<?xml version="1.0" encoding="utf-8"?>
<!-- Generator: Adobe Illustrator 24.1.2, SVG Export Plug-In . SVG Version: 6.00 Build 0)  -->
<svg version="1.1" xmlns="http://www.w3.org/2000/svg" xmlns:xlink="http://www.w3.org/1999/xlink" x="0px" y="0px"
	 viewBox="0 0 286.4 282.7" style="enable-background:new 0 0 286.4 282.7;" xml:space="preserve">
<style type="text/css">
	.st0{display:none;}
	.st1{display:inline;stroke:#FFFFFF;stroke-miterlimit:10;}
	.st2{display:inline;fill:#FFFFFF;stroke:#FFFFFF;stroke-width:10;stroke-miterlimit:10;}
	.st3{display:inline;fill:#FFFFFF;stroke:#FFFFFF;stroke-width:9;stroke-miterlimit:10;}
	.st4{display:inline;fill:#FFFFFF;stroke:#F298A5;stroke-width:4;stroke-miterlimit:10;}
	.st5{display:inline;fill:#FFFFFF;stroke:#FFFFFF;stroke-width:7;stroke-miterlimit:10;}
	.st6{display:inline;fill:none;stroke:#FFFFFF;stroke-width:17;stroke-miterlimit:10;}
	.st7{fill:#FFFFFF;stroke:#FFFFFF;stroke-width:10;stroke-miterlimit:10;}
	.st8{fill:#FFFFFF;stroke:#FFFFFF;stroke-width:9;stroke-miterlimit:10;}
	.st9{fill:#F296A1;stroke:#F296A1;stroke-miterlimit:10;}
	.st10{fill:#F296A1;stroke:#FFFFFF;stroke-miterlimit:10;}
	.st11{fill:none;stroke:#FFFFFF;stroke-width:17;stroke-miterlimit:10;}
	.st12{display:inline;fill:none;stroke:#FFFFFF;stroke-width:14;stroke-miterlimit:10;}
	.st13{display:inline;fill:#FFFFFF;stroke:#FFFFFF;stroke-width:14;stroke-miterlimit:10;}
	.st14{display:inline;}
	.st15{fill:#F296A1;}
</style>
<g id="Layer_2" class="st0">
	<rect x="4.6" y="12.2" class="st1" width="274.4" height="260.1"/>
</g>
<g id="Layer_3" class="st0">
	<path class="st2" d="M153.7,202.7c-0.9,2.4-7.8,4.5-21.5,8.5c-14.7,4.3-22,6.5-27.5,6.7c-9.1,0.4-18-2.5-35.8-8.1
		c-11.7-3.7-17.6-5.6-18.6-8.2c-4-10.3,18.3-36.7,44.8-39.4C127.4,159,157.7,192.1,153.7,202.7z"/>
	
		<ellipse transform="matrix(0.9992 -3.933938e-02 3.933938e-02 0.9992 -4.8855 3.75)" class="st3" cx="92.8" cy="126" rx="27.5" ry="29.5"/>
	<path class="st4" d="M227.4,201c-0.5,2.9-7.5,6.3-21.5,12.9c-14.9,7.1-22.4,10.7-28.3,11.8c-9.7,1.8-19.8-0.1-40-3.7
		c-13.3-2.4-20-3.7-21.5-6.5c-6.2-11.1,12.8-44.4,40.8-51.4C191.2,155.4,229.7,188.4,227.4,201z"/>
	
		<ellipse transform="matrix(0.9871 -0.1599 0.1599 0.9871 -18.7315 28.7342)" class="st5" cx="169.2" cy="130.8" rx="28.5" ry="30.6"/>
	<ellipse class="st6" cx="132.8" cy="152.2" rx="102.5" ry="96.5"/>
</g>
<g id="Layer_4">
	<path class="st7" d="M198.3,216.5c-1.1,2.9-9.3,5.4-25.8,10.2c-17.6,5.2-26.4,7.8-33.1,8.1c-10.9,0.4-21.6-3-43.1-9.7
		c-14.1-4.5-21.2-6.8-22.4-9.9c-4.8-12.4,22-44.1,53.8-47.3C166.8,164,203.1,203.8,198.3,216.5z"/>
	
		<ellipse transform="matrix(0.9992 -3.933938e-02 3.933938e-02 0.9992 -4.8369 5.3082)" class="st8" cx="132.5" cy="125.6" rx="33" ry="35.4"/>
	<path class="st9" d="M124.1,170.3c2.4,9.2,4.8,18.5,7.1,27.7c2.1,0,4.2,0,6.2,0c2.4-9.2,4.8-18.5,7.1-27.7H124.1z"/>
	<path class="st9" d="M133.9,173c5.2,0.1,9-1.7,10.7-2.7"/>
	<path class="st9" d="M124.1,170.3c1.7,0.9,5.1,2.6,9.8,2.7"/>
	<path class="st10" d="M128.5,188.2c-3.9,18.2-7.7,36.3-11.6,54.5c12.5,0,25,0,37.5,0c-4.8-18.5-9.5-36.9-14.3-55.4
		c-1,0.6-2.7,1.5-5.1,1.8C132,189.4,129.7,188.6,128.5,188.2z"/>
	<ellipse class="st11" cx="133.4" cy="149.1" rx="102.5" ry="96.5"/>
</g>
<g id="Layer_1" class="st0">
	<ellipse class="st6" cx="134.7" cy="154.4" rx="102.5" ry="96.5"/>
	<ellipse class="st12" cx="134.7" cy="153.7" rx="73" ry="68.7"/>
	<ellipse class="st13" cx="135.7" cy="152.9" rx="31.5" ry="29"/>
	<path class="st5" d="M202.4,71.3c2.6-20.3,2.3-36.2,1.5-47.4c-0.4-4.6-0.9-9.6,0.3-9.9c2.7-0.8,11.9,22.1,19.9,43.4L202.4,71.3z"/>
	<path class="st5" d="M217,87.5c16.8-11.9,31.1-19,41.5-23.3c4.3-1.8,9-3.5,8.7-4.9c-0.6-3-25.3-1.4-48,0.6L217,87.5z"/>
	<g class="st14">
		<line class="st15" x1="223.2" y1="60.9" x2="145.2" y2="144.9"/>
		<g>
			<path class="st15" d="M216.2,53.8c-22.8,24.5-45.5,49-68.3,73.5c-3.2,3.5-6.5,7-9.7,10.5c-8.7,9.4,5.4,23.6,14.1,14.1
				c22.8-24.5,45.5-49,68.3-73.5c3.2-3.5,6.5-7,9.7-10.5C239,58.5,224.9,44.4,216.2,53.8L216.2,53.8z"/>
		</g>
	</g>
</g>
</svg>
