<svg id="Layer_4" data-name="Layer 4" xmlns="http://www.w3.org/2000/svg" viewBox="0 0 170.16 69.96"><defs><style>.cls-1{fill:#fff;}</style></defs><path class="cls-1" d="M9.84,47.85H8A9.55,9.55,0,0,1,6.5,47.7c-1.17-.16-1.79-.3-1.87-.44l0-.06a.4.4,0,0,0-.29-.12,1.88,1.88,0,0,1-.62-.47,6.9,6.9,0,0,1-1.46-1.52c-.22-.29-.45-.58-.71-.88a1.37,1.37,0,0,1-.38-.61l.12-.24a4,4,0,0,1-.35-1c-.1-.53-.23-.8-.38-.8l-.06.18a1,1,0,0,0,.07.41.4.4,0,0,0,.16.22c.06,0,.09.12.09.28a.3.3,0,0,0,0,.16.13.13,0,0,1,0,.07c.08,0,.12.15.12.44-.06,0-.13-.09-.21-.29A6.8,6.8,0,0,1,0,40a16.87,16.87,0,0,1,.23-2.46,3.54,3.54,0,0,1,.36-1.2c.05,0,.08.08.08.24a4.11,4.11,0,0,1-.2,1L.35,38.85v1.09l-.17.84a.43.43,0,0,0,0,.2l.05.07a0,0,0,0,0,0,0,.43.43,0,0,1,.38.23H.73l-.2-.53.2.12a.49.49,0,0,0-.14-.38l-.06-.23a7.57,7.57,0,0,1,.23-1.44L1,37.77A25,25,0,0,1,2.29,33.9a3.35,3.35,0,0,0,.14-.38l1.64-3.63a12.94,12.94,0,0,0,1.38-3.4,2.15,2.15,0,0,1,.23-.59l.09-.17a2.63,2.63,0,0,0,.47-1.09l-.12-.38h.06l.24.26L6.83,24a26.5,26.5,0,0,0,1.43-2.61l0-.09-.09-.06a.29.29,0,0,0-.17.06,1,1,0,0,1-.09.34H7.79c-.21,0-.47.31-.76.91l-.12.24.47-.3s-.08.14-.23.3-.26.23-.31.23a.28.28,0,0,0-.13,0,.31.31,0,0,0-.12.13,1.55,1.55,0,0,0-.12.28l.3-.23h.06a2.05,2.05,0,0,1-.47.76v-.24c-.1,0-.39.49-.88,1.45s-.73,1.46-.73,1.48a26.1,26.1,0,0,0-2.08,4.63L.73,36.1s-.06,0-.06-.12a17.79,17.79,0,0,1,1.44-4.1c.9-2.17,1.4-3.32,1.49-3.46A5.84,5.84,0,0,0,4,27.57C4.75,26,6,23.65,7.75,20.48a39.49,39.49,0,0,1,6.05-8.26l.85-.91a13,13,0,0,1,1.54-1.58A10.55,10.55,0,0,1,17.75,8.5l1.73-1a8.17,8.17,0,0,1,2-.76l1.09-.35a3.84,3.84,0,0,1,1.11-.2l.38,0q4.34.93,5,5.8a29.73,29.73,0,0,1,.38,4.89A18.2,18.2,0,0,1,29.21,19a6,6,0,0,1-.41,1.54l-.18.26-.11-.61a2.25,2.25,0,0,0-.05.22,2.54,2.54,0,0,1-.2.48,9,9,0,0,1-.49.85q-.61,1.14-1.08,1.14l-.15-.11a1.1,1.1,0,0,0-.55-.24.29.29,0,0,0-.15-.06h-.1s0,0,0-.1a.35.35,0,0,1,.12-.24,2.64,2.64,0,0,0,.53-1l-.06-.05a.14.14,0,0,1-.06-.07l.12-.62-.12-.17c.06-.24.14-.35.24-.35l.11.06s0-.08.06-.24a.8.8,0,0,0-.17-.5l-.12-.47s0,0,.07,0l.06.07,0,.06a.13.13,0,0,1,0,.06s.06-.12.06-.35a.68.68,0,0,1,.32-.68l.18-.11H27c-.1,0-.14-.07-.14-.21a.13.13,0,0,1,0-.06,1.26,1.26,0,0,1,.43,0L27,17a.83.83,0,0,1,.12-.17l.1-.12a.19.19,0,0,0,.05-.1.44.44,0,0,1,0-.1s-.05,0-.05.07,0,0-.12,0L27,16.57c-.06,0-.09-.12-.09-.28l.12-.11.06.05q.18,0,.18,0c0-.13,0-.48.11-1V14q0-.36,0-.69a6.05,6.05,0,0,0,0-.63c0-.2,0-.35,0-.47a1.34,1.34,0,0,0-.15-.7L27,13c0,.08-.05.12-.14.12s-.18,0-.18-.06a1.59,1.59,0,0,0,.12-.41c-.08-.62-.12-1-.12-1.07s0-.23,0-.42a1.12,1.12,0,0,1,0-.27,1,1,0,0,0,0-.26l0-.5,0-.06L26.47,10a.34.34,0,0,1-.07-.16A3.06,3.06,0,0,1,26.28,9a.37.37,0,0,0-.06-.21.75.75,0,0,0-.41-.14.17.17,0,0,0-.12.06,1.5,1.5,0,0,1,.27.38,1.84,1.84,0,0,1,.2.7c-.1,0-.29-.19-.58-.56L25,8.44l-1,.24a5.66,5.66,0,0,0-1.32.54s-.11.17-.35.36a4.78,4.78,0,0,1-.91.59A12.58,12.58,0,0,0,20,11.22l-.38.47c-.14.18-.5.59-1.09,1.23A20.55,20.55,0,0,0,16.44,15a1.37,1.37,0,0,0-.47.8l0,.05a.2.2,0,0,1-.15.06c-.06,0-.09,0-.1,0a.14.14,0,0,0,0,.06q0,.21,0,.21a.46.46,0,0,0-.29.11.86.86,0,0,0-.23.3,2.68,2.68,0,0,1-.74.73c-.25.15-.39.31-.41.47q0,.53-.93,1.11l-.15.12,0,0s.08.05.23.05c-.45.65-.71,1-.8,1s-.22.12-.4.35c-1,1.16-1.52,1.94-1.52,2.35,0,.1-.06.17-.18.23a6.69,6.69,0,0,0-.76,1.14,1.1,1.1,0,0,1-.14.21l-.63,1a1.16,1.16,0,0,0-.14.62c-.05,0-.14.07-.25.2a2.61,2.61,0,0,0-.3.56c-.18.41-.33.73-.46,1s-.25.35-.36.35l-.06,0a1.55,1.55,0,0,0-.12.76c0,.49-.09.73-.26.73l-.06-.17s-.06.05-.07.14a1.86,1.86,0,0,1,0,.27,1.67,1.67,0,0,1-.06.52.66.66,0,0,1-.28.33,1.08,1.08,0,0,0-.36.52c0,.24,0,.36-.09.37H5.64a.17.17,0,0,0-.13.08,1,1,0,0,0-.12.19l.06.14a11.71,11.71,0,0,1-1,2.52,30.56,30.56,0,0,0-1.4,4,4.81,4.81,0,0,1-.15.67,10.46,10.46,0,0,0-.26,1.67H2.7v.94a2.1,2.1,0,0,1,.11.79,3.37,3.37,0,0,0,.73,1.64,1.89,1.89,0,0,0,.42.47.45.45,0,0,1,.35.18,1.31,1.31,0,0,0,.67.29,5.41,5.41,0,0,0,1.2.12,10.57,10.57,0,0,1,1.35-.06l1.41.17c.35,0,.53-.06.55-.17l.12-.06c.14,0,.22,0,.25-.06a.3.3,0,0,0,0-.18l.3.18.35-.18a1.37,1.37,0,0,0,.61-.23.41.41,0,0,1,.3-.12l.29.12.32-.23.23.11.18-.17.12.06a.05.05,0,0,0,.06-.06l.73-.21a3.36,3.36,0,0,0,1-.35l.94-.41a5.13,5.13,0,0,0,.79-.29,3.22,3.22,0,0,1,.94-.38,1.29,1.29,0,0,0,.56-.24.55.55,0,0,1,.47-.17l1-.47h.09a.11.11,0,0,0,.09,0,2.52,2.52,0,0,1,.44-.28q3.89-2,4.13-2.57a.09.09,0,0,0,0-.05.08.08,0,0,1,0,0s0,0,.08,0a2.2,2.2,0,0,0,.79-.35,2,2,0,0,1,.47-.37.82.82,0,0,1,.29-.13c.12,0,.21-.11.29-.32s.15-.32.21-.32a1,1,0,0,1,.05.35A.55.55,0,0,1,26,38a4,4,0,0,1-1.09,1l-1.49,1c-1.33.9-2,1.36-2,1.38a.52.52,0,0,0,.35-.18.83.83,0,0,1,.32-.06c0,.12-.12.25-.35.39a.72.72,0,0,1-.32.08l.11.18c0,.1-.11.22-.33.37s-1,.56-2.3,1.24c-.8.41-1.22.64-1.26.67a.2.2,0,0,0-.06.15c0,.06,0,.09-.08.09l-.14,0-.13,0a3.39,3.39,0,0,0-.74.61,4.58,4.58,0,0,0,1.26-.47.71.71,0,0,1,.24-.11l-.06.06c.76-.22,1.14-.37,1.14-.46s0-.15.08-.17a.28.28,0,0,1,.16-.05,1.27,1.27,0,0,0,.55-.2c.65-.34,1-.57,1-.71a.2.2,0,0,1,.15-.06s0,0,0,.06l.11.06.06-.06-.06-.11q0-.24.06-.24l.24.06a1.61,1.61,0,0,0,.73-.18c.39-.21.58-.35.58-.41s0,0,0,0l-.5,0,.52-.26.12.06a7.35,7.35,0,0,0,2.4-1.35l1.12-.73.17-.09a1.91,1.91,0,0,1,.82-.35c.06,0,.84-.63,2.35-1.9a28.3,28.3,0,0,1,2.93-2.35s-.06.12-.16.24l-.37.38.06.06a3.44,3.44,0,0,0-.47.41.27.27,0,0,1-.16.05c-.05,0-.09,0-.13.15a1.26,1.26,0,0,1-.41.41c-.34.27-.51.47-.53.59s.13.06.38.06v0a.7.7,0,0,1-.35.06,1,1,0,0,0-.73.32.33.33,0,0,0-.12.21l.06.06L30,38l.06-.06.06.06-.15.15a2.33,2.33,0,0,1-1.17.64,5.55,5.55,0,0,0-.76.59l-.09.09a7,7,0,0,1-2.08,1.43v-.06s-.07,0-.09.09a2.33,2.33,0,0,1-.58.62.77.77,0,0,0-.21.14c-.18.14-.26.24-.26.3s-.43.46-1.28,1a4.77,4.77,0,0,1-1.62.79,1,1,0,0,0-.5.3,15.63,15.63,0,0,1-9.7,3.72l-.88-.06-.17,0a.33.33,0,0,0-.15,0A2.22,2.22,0,0,1,9.84,47.85ZM1.49,42.16l0-.2a3.38,3.38,0,0,0,0-.47,16.78,16.78,0,0,1,.54-3.11,34.27,34.27,0,0,1,1.15-3.63c.44-1.15,1.19-2.92,2.25-5.29S7.11,25.9,7.15,25.9a.17.17,0,0,0,.12-.06V25.7c0-.08,0-.12.1-.12s.29-.38.66-1.14l.32-.53c.16-.14.23-.25.23-.35l-.05-.06a3.69,3.69,0,0,1,.41-.56,1.5,1.5,0,0,0,.35-.64l.14-.18a.17.17,0,0,1,.12.06l-.06.18a2.34,2.34,0,0,0-.32.91,1.55,1.55,0,0,0,.5-1.09c0-.12,0-.17-.06-.17V22l.18-.38a.83.83,0,0,0,.29-.53.32.32,0,0,1,.06-.18h.11v-.11q0-.12.24-.39l.09-.08a1.15,1.15,0,0,0,.19-.33l.08-.22a.17.17,0,0,1,.14-.07l0,.18a.93.93,0,0,1-.11.41.29.29,0,0,0-.06.17l.06-.06c.11,0,.17,0,.17-.13A7.92,7.92,0,0,1,12,18.9a3.9,3.9,0,0,0,.62-1,3.89,3.89,0,0,0-.41.34.46.46,0,0,0-.18.34.76.76,0,0,1-.32.29.88.88,0,0,0-.38.59c-.1.17-.19.26-.27.26a1.46,1.46,0,0,1,.24-.7,2.64,2.64,0,0,1,1-1.17.72.72,0,0,0,.27-.39,1.6,1.6,0,0,1,.47-.61.57.57,0,0,0,.23-.38c-.17,0-.53.35-1,1.05l-.41.56a7.59,7.59,0,0,0-1.26,2,.17.17,0,0,1-.06.12l-.24-.12-.05,0-.12.06a5.19,5.19,0,0,0-.65,1.06c-.29.32-.44.55-.44.71s0,0,.06,0l.18-.09a.18.18,0,0,0-.05.07.14.14,0,0,1,0,.08l-.08,0-.17,0a.23.23,0,0,0-.18.11,1.32,1.32,0,0,1-.29.53c-1.19,2.05-2.48,4.55-3.85,7.5a44.77,44.77,0,0,0-2.95,8,17,17,0,0,0-.29,3C1.32,41.82,1.38,42.16,1.49,42.16Zm1-3.25.12-.12v-.2s0,0-.06,0a.24.24,0,0,0,0,.13A1.5,1.5,0,0,0,2.46,38.91Zm1-4s.06-.07.14-.21l.06-.12a1.37,1.37,0,0,0,.15-.41l-.06-.06A1.13,1.13,0,0,0,3.49,34.9Zm.9-1.38.06-.24c0-.09,0-.14-.06-.14a.58.58,0,0,0-.08.32Zm.24-.67q.12,0,.12-.3l-.06-.06a.27.27,0,0,0-.05.14A1.48,1.48,0,0,0,4.63,32.85Zm1.43-3.29c.16-.07.24-.16.24-.26l-.06-.06s-.08,0-.12.1a1.2,1.2,0,0,0-.08.15.13.13,0,0,0,0,.07Zm.53-1.08c.08,0,.13-.15.15-.32l0-.18a.23.23,0,0,0-.1.13l-.08.18,0,.12a.25.25,0,0,0,0,.07Zm2-7.38v-.18q0-.12.06-.12a4.89,4.89,0,0,0,.78-1.11,4,4,0,0,0,.6-1.23L10,18.4c-.12,0-.21.08-.29.24s0,.17-.06.17a.19.19,0,0,1,0-.1.69.69,0,0,1,0-.13s0-.06-.12-.06a1.05,1.05,0,0,0-.38.64c0,.18-.05.27-.14.27h0l.16.14a.18.18,0,0,1,.07.15.2.2,0,0,0-.23.23l.06.18-.06-.07-.09-.13a.18.18,0,0,0-.15-.09v.35l-.11-.06c-.12,0-.27.22-.44.67v.06Zm.94-2H9.35l-.06-.05c0-.08.09-.12.2-.12l.12.12ZM9.9,22c.06,0,.22-.2.47-.59a3.05,3.05,0,0,0,.38-.67c-.06,0-.21.16-.47.5A1.5,1.5,0,0,0,9.9,22Zm.35-3.81s.64-.76,1.85-2.29a7.13,7.13,0,0,1,.64-.74.53.53,0,0,0,.21-.37,4.58,4.58,0,0,0-.72.7,3.88,3.88,0,0,0-.7.87,1.61,1.61,0,0,1-.37.5c-.21.22-.33.36-.33.41a.39.39,0,0,1-.06.11,1.58,1.58,0,0,1-.57.05,1.93,1.93,0,0,1-.18.41v.06l.16-.15.12-.09.13-.06A1.67,1.67,0,0,0,10.25,18.14Zm.3-1.06.26-.2.29-.41v-.06c-.06,0-.12.05-.2.16l-.19.28A1.88,1.88,0,0,1,10.55,17.08Zm2.22.65.18-.18a7,7,0,0,0,1.23-1.49l.23-.44c-.09,0-.31.24-.64.73s-.54.73-.62.73A2.77,2.77,0,0,0,12.77,17.73Zm.91-1.85a3.44,3.44,0,0,0,.5-.44c.47-.5.75-.76.83-.76s.15-.11.17-.32l.05-.18-.05-.11c-.06,0-.12.09-.18.29a.3.3,0,0,1-.19.19.31.31,0,0,0-.19.22A6.27,6.27,0,0,1,13.68,15.88ZM14,13.54l.18-.06a.68.68,0,0,1,.18-.13c.05,0,.08-.06.08-.1l-.14-.06-.06,0A.6.6,0,0,0,14,13.54Zm1.76-1.88c.08,0,.26-.13.53-.39s.41-.43.41-.49C16.47,10.94,16.16,11.23,15.73,11.66Zm1.2.91c.14,0,.43-.3.88-.91V11.6s-.13.07-.28.21l-.41.42A.69.69,0,0,0,16.93,12.57Zm1.5-1.38c.06,0,.11-.07.17-.23s.06-.38.18-.38l-.12.2a.32.32,0,0,0,.18.06c.06,0,.09,0,.09-.11,0-.24.17-.44.52-.62a.93.93,0,0,0,.41-.35l.06-.06.06.06a.11.11,0,0,0,.12-.12c0-.06-.07-.15-.21-.29a.87.87,0,0,1-.14-.12.28.28,0,0,1-.06-.2.63.63,0,0,0-.25.13l-.37.28c-.11.1-.17.18-.17.26s0,.12.06.12l.11.06,0,0L19,10l-.08.07L18.72,10c-.06,0-.13.08-.22.24a.9.9,0,0,0-.13.47,1.61,1.61,0,0,1-.06.44ZM18.78,44h-.06q0-.21.12-.24l.12.12Zm.06-.91a1.11,1.11,0,0,0,.35-.09,2.35,2.35,0,0,0,.45-.22c.15-.09.22-.14.22-.16l-.06-.06a4.67,4.67,0,0,0-1,.53Zm.91.44h-.12c0-.12.17-.22.53-.29,0,0,0,.08-.12.14A1.13,1.13,0,0,1,19.75,43.54ZM20,9.26l.35-.06c.18-.13.26-.23.26-.29a.75.75,0,0,0-.52.18A.18.18,0,0,0,20,9.26Zm.12,33.25a.32.32,0,0,0,.16,0l.09,0h.08a.11.11,0,0,0,.08,0c.48-.22.73-.36.73-.41a.11.11,0,0,1,0-.08s-.05-.09-.15-.19l.06-.12c0-.07,0-.11-.12-.11l0,0-.06.07a.58.58,0,0,0,0,.25c0,.14,0,.2-.09.2s-.15,0-.15-.17,0-.11.12-.15a.18.18,0,0,1-.07.05h-.08c-.11.12-.17.21-.17.26q-.12.3-.24.3l-.11-.06.11-.18L20.21,42s-.07,0-.11.09a.49.49,0,0,0-.06.27s.06.06.06.08S20.12,42.51,20.16,42.51Zm.61-2,.53-.41a1.13,1.13,0,0,1,.23-.15,1.28,1.28,0,0,1,.5-.2v.06a1.28,1.28,0,0,1-.32.25c-.18.1-.36.21-.56.3l-.11.06A1,1,0,0,1,20.77,40.52Zm.76,2-.11-.06c0-.07,0-.11.08-.11l.21.05Zm.24-.73v-.06s.06-.07.17-.15a.79.79,0,0,1,.21,0c0,.06,0,.12-.13.17A.63.63,0,0,1,21.77,41.84Zm.55-.76c-.07,0-.11,0-.11-.06s.19-.18.41-.18a.47.47,0,0,0,.35-.17l.06,0v.14q0,.12.06.12l.55-.26a.49.49,0,0,1-.29.2,3.46,3.46,0,0,1-.54.16A2.31,2.31,0,0,1,22.32,41.08Zm1.09,1.67a.21.21,0,0,0,.09,0l.16-.1c.07,0,.1-.07.1-.09a.05.05,0,0,0-.06-.06.74.74,0,0,0-.22.2Zm1.67-20.51L25,22.18a.85.85,0,0,1,.18-.38.56.56,0,0,0,.29-.26l.18-.15a.31.31,0,0,0-.06.13l-.09.28a.64.64,0,0,1-.13.25l-.13.12Zm.12,19.6h-.06a.7.7,0,0,1,.08-.16,1.07,1.07,0,0,1,.2-.22.28.28,0,0,1,.19-.09l.14.06C25.75,41.53,25.57,41.66,25.2,41.84Zm1.37-2.58H26.4a1.82,1.82,0,0,1-.47-.12c-.08,0-.12,0-.12-.11s.15-.23.45-.44a1.46,1.46,0,0,1,.63-.32l.12,0a.22.22,0,0,1,0,.09l-.08.09a.22.22,0,0,1-.17.06l-.06.12a.23.23,0,0,0,0,.07s.12,0,.31,0c0,.06-.07.13-.22.22S26.57,39.18,26.57,39.26Zm-.35-1.38s-.06,0-.06-.05a.25.25,0,0,1,.08-.17.24.24,0,0,1,.16-.07c.06,0,.11-.08.17-.23s0-.18.06-.18l.26.12s.06,0,.06-.12S26.9,37,26.79,37s-.16,0-.16-.15l.12-.06a.22.22,0,0,1,.23.13.31.31,0,0,0,.22.18c.11,0,.16,0,.16.07l0,.06a2.84,2.84,0,0,1-.54.4A1.31,1.31,0,0,1,26.22,37.88Zm.91-26.63-.12-.9-.09-.22L26.87,10a.17.17,0,0,0-.12,0l-.06.12C26.69,10.74,26.84,11.12,27.13,11.25Zm-.06,3.84a.38.38,0,0,1-.32-.41l.14-.5h-.14a.05.05,0,0,1-.06-.06l.12-.23.14-.06a.32.32,0,0,1,.18.06.53.53,0,0,1,.06.23,1.13,1.13,0,0,0-.06.52Q27.13,15.09,27.07,15.09Zm-.18.73a.34.34,0,0,1-.14-.32.15.15,0,0,1,.07-.12.27.27,0,0,1,.13-.05s.05,0,.08.08a1,1,0,0,1,0,.36A.3.3,0,0,1,26.89,15.82Zm.18-2.28H27c-.1,0-.14-.06-.14-.18s0-.06.14-.06Zm.18,3.6a.19.19,0,0,1,.1,0,.08.08,0,0,0,.07-.08s-.07-.05-.2-.05-.09,0-.09.11A.17.17,0,0,0,27.25,17.14Zm.41,19,.79-.71a13.62,13.62,0,0,1,1.26-1l-.56.67c0,.08.11.12.32.12,0,0,0,0,0,0l-.08.08a.21.21,0,0,1-.17.06l-.06-.06a4.1,4.1,0,0,0-1,.58Zm.79.41h-.06l-.05,0-.07-.06-.13-.11a.23.23,0,0,1-.07-.16l.08-.06c.12,0,.22.11.3.35Zm.41-.3-.06-.05a.27.27,0,0,1,.06-.17.2.2,0,0,1,.11-.07L29,36C29,36.1,29,36.16,28.86,36.21Zm.55-.52.18-.21.29-.12a.14.14,0,0,1-.06.11l-.11.09-.13.07-.11,0Zm2.14-1.64V34q0-.24.12-.24a.54.54,0,0,1,0,.18C31.6,34,31.57,34.05,31.55,34.05Zm.74.85v-.06c0-.14.09-.22.29-.24a.31.31,0,0,1,0,.11.67.67,0,0,1-.19.16Zm.76-.62a.05.05,0,0,1-.06-.06s0,0,.12-.07a.67.67,0,0,1,.26,0,.08.08,0,0,1,0,0l-.07.07A.33.33,0,0,1,33.05,34.28Zm.32-.47-.06-.06a1.49,1.49,0,0,1,.31-.49c.2-.28.34-.41.39-.41a3.24,3.24,0,0,1-.17.32l-.1.17a.4.4,0,0,0,0,.3l.05,0a.09.09,0,0,0,0,.06l-.3-.11Z"/><path class="cls-1" d="M63.05,49.28h0a.79.79,0,0,1-.32-.06.69.69,0,0,0-.24-.06l-1.2-.47q-.4-.46-.63-.48t-.57-.66a11,11,0,0,1-.76-4.25,28.4,28.4,0,0,1,1-7.17,63.73,63.73,0,0,1,2.3-7.21c1-2.66,1.73-4.53,2.19-5.63a5.15,5.15,0,0,0,.41-1,.85.85,0,0,1,.2-.56.74.74,0,0,0,.19-.44s-.13.1-.27.3a5.7,5.7,0,0,0-.58.71,4.11,4.11,0,0,1-.41.52l-.09.11a6.06,6.06,0,0,1-.47.59v-.12a.17.17,0,0,0-.12.06l.06.12a.48.48,0,0,1-.09.23c-.15.24-.28.35-.36.35s-.17.13-.25.38l.06-.05c.07,0,.11,0,.11.05l-.17.12c-.12,0-.27.13-.44.38a.33.33,0,0,0-.12.21.19.19,0,0,0-.12.17l.06.06,0,0a.14.14,0,0,0-.08.09,9,9,0,0,1-.68.86.71.71,0,0,0-.17.28c-.06.14-.11.21-.14.21s0,.05,0,.14a.18.18,0,0,1-.12.19.18.18,0,0,0-.11.19c0,.1-.13.29-.39.56a1.37,1.37,0,0,0-.2.31.08.08,0,0,1,0,.06h-.19a2.89,2.89,0,0,1-.42.84c-.28.46-.46.69-.53.69s-.1,0-.1.08v.06c0,.1,0,.16-.1.18a.15.15,0,0,0-.11.16c0,.09-.09.23-.29.42a.78.78,0,0,0-.17.3,15.29,15.29,0,0,1-.88,1.26,7.77,7.77,0,0,0-.76,1.14c0,.08-.6.9-1.72,2.46s-1.7,2.34-1.74,2.34-.08.08-.12.24l-1.08,1.38A17,17,0,0,1,51,41.46l-.82,1a.71.71,0,0,1-.19.18.12.12,0,0,0-.08.12l.06.11h-.12s-.06.07-.06.09a.14.14,0,0,1,0,.09,1.84,1.84,0,0,0-.59.5l-.06,0c-.1.07-.16.13-.17.17a.29.29,0,0,1-.27.18l0,.06s0,.08,0,.2h-.11c-.06,0-.11,0-.14.12a.49.49,0,0,1-.07.16.1.1,0,0,1-.09,0,.05.05,0,0,0-.06.06l.06.09s0,.06-.1.13a1.73,1.73,0,0,0-.19.72.9.9,0,0,0,.15-.19,1.2,1.2,0,0,0,.08-.15l0-.06.13-.13a1.52,1.52,0,0,0,.79-.52c.1-.14.2-.21.29-.21a.24.24,0,0,1,0-.18l0-.11.06.06a.73.73,0,0,0,.12-.34c0-.09.12-.17.35-.25a2.72,2.72,0,0,0,.62-.63c.09-.17.17-.25.22-.26a2,2,0,0,0,.45-.49l.32-.32a.94.94,0,0,1,.56-.29,3.61,3.61,0,0,1,.59-.91,5,5,0,0,0,.85-1.36c0-.15.1-.23.32-.24s.35-.07.41-.19.12-.17.17-.17l.06-.12-.06-.06-.11.06v-.06a2.1,2.1,0,0,0,.35-.42c0-.09.09-.14.14-.14s.09-.05.09-.17.05-.18.15-.18.15,0,.15-.06l-.12,0a1.42,1.42,0,0,1,.22-.18.7.7,0,0,0,.22-.38,0,0,0,0,0,0,0c.06-.25.17-.38.35-.38s.13-.05.14-.15a.43.43,0,0,1,.3-.47s.06,0,.06,0l-.12-.11c0-.12.09-.21.28-.27s.28-.13.28-.23h-.12l-.06-.06.12-.12-.21-.23s.07-.08.19-.12.19-.1.19-.19,0-.13.12-.13v.2l.06,0a.72.72,0,0,0,.07-.11.59.59,0,0,0,0-.29.42.42,0,0,1,.23-.37.53.53,0,0,1,.06.24s.06,0,.06-.12l-.06-.18s.06,0,.17,0,.31,0,.33-.12a.71.71,0,0,0-.11-.18.51.51,0,0,1-.1-.2s.05,0,.15,0a.17.17,0,0,0,.17-.13.72.72,0,0,1,.15-.47l.29-.41a1.43,1.43,0,0,1,.33-.51.32.32,0,0,0,.11-.28,1.6,1.6,0,0,1,0-.28.23.23,0,0,1,.13-.13,1.32,1.32,0,0,0,.56-.55A2,2,0,0,1,60,30a1.5,1.5,0,0,0,.22-.2.89.89,0,0,1,.19-.54.77.77,0,0,0,.2-.43.16.16,0,0,0,0-.1l0,0v0c.37,0,.56-.16.58-.47q0-.21-.06-.21l-.11.21a.37.37,0,0,1,.08-.22c.06-.07.1-.11.12-.11s0-.06.08-.19a2.6,2.6,0,0,1,.24-.57,2.8,2.8,0,0,1,.5-.61.46.46,0,0,0,.12.29.11.11,0,0,0,.12-.12l-.06-.41a.19.19,0,0,1,.12-.17c.07,0,.11-.14.11-.3l-.06-.14a.54.54,0,0,0,.27-.09c.19-.12.29-.22.29-.32l.06-.12.13-.16a.45.45,0,0,1,.16-.15.55.55,0,0,1,.24,0c.11.08.17.14.17.18a.24.24,0,0,0,.06.13.25.25,0,0,1,.06.16l-.18-.12-.41.18s-.07,0-.11.08a1,1,0,0,0-.09.17l-.06.13a.26.26,0,0,0,0,.11l.18-.05a.16.16,0,0,1,.17-.15l.06.06c0,.08-.06.17-.18.29s0,0,0,.07a.14.14,0,0,1-.1.11.5.5,0,0,0-.29.47.62.62,0,0,1-.27.49q-.09.06-.09.09a1.14,1.14,0,0,1-.23.6,1.19,1.19,0,0,0-.23.54l0,.12-.17-.12c-.16.28-.62.95-1.38,2a1.51,1.51,0,0,0-.32.67.32.32,0,0,0-.18.06q.24,0,.3-.12l0,.06a.46.46,0,0,1,0,.1,1.76,1.76,0,0,1-.19.37l-.15.29a.4.4,0,0,1-.17,0,.45.45,0,0,0-.27.12l-.06,0a.56.56,0,0,0-.08.14l.06.06.29-.26V32a.57.57,0,0,1-.16.27,5.74,5.74,0,0,0-.4.5,3.59,3.59,0,0,1-.64,1,.45.45,0,0,0-.12.28,1,1,0,0,1-.19.44.83.83,0,0,1-.75.31l-.44.41a.17.17,0,0,0,.12,0,.09.09,0,0,1,.07,0l.12,0a.85.85,0,0,1,.28,0v.12c-.06.21-.13.33-.22.36a.17.17,0,0,0-.13.18c0,.09-.11.23-.32.42a1.06,1.06,0,0,0-.21.24.81.81,0,0,1-.41.64q-.21.12-.21.21l.06.14H56q-.09,0-.09.21a12.25,12.25,0,0,1-1.88,3,33.63,33.63,0,0,1-2.37,3.07,3.18,3.18,0,0,0-.41.5q-3.35,4.24-5.65,4.25a2.4,2.4,0,0,1-1.44-.5,2,2,0,0,0-.41-.1.62.62,0,0,1-.38-.18,1.21,1.21,0,0,0-.5-.24,1.71,1.71,0,0,1-.59-.3,3.29,3.29,0,0,1-1-2.69,7.72,7.72,0,0,1,.23-2,2.29,2.29,0,0,1,.38-.93H42l-.06-.18a5.26,5.26,0,0,1,.71-2,3,3,0,0,0,.23-.79l.15-.47a17.22,17.22,0,0,1,.76-1.79,3,3,0,0,0,.28-.58c0-.16.1-.31.16-.46a5.86,5.86,0,0,1,.47-.8l-.12,0s-.06,0-.06,0a.24.24,0,0,1,.06-.18,1.67,1.67,0,0,0,.35-.85s.64-1.42,1.91-4.13c.35-.86,1-2.19,1.93-4q0-.24,3.72-7.91a1.36,1.36,0,0,1,.19-.58A6.51,6.51,0,0,0,53,16a21.6,21.6,0,0,0,1.14-4.34c0-.62-.13-.93-.38-.93a3.09,3.09,0,0,0-1,.29,1.69,1.69,0,0,1-.59.17.91.91,0,0,0-.44.17,3.36,3.36,0,0,1-.79.3c-.06,0-.11.05-.16.14a.24.24,0,0,1-.19.13,6.52,6.52,0,0,0-2.64,1.64C46,15.19,44,17,42,19.05a.63.63,0,0,0-.29.38,27.1,27.1,0,0,0-2.87,4.19l-.44.76L37.27,27a2.3,2.3,0,0,0-.18.65.48.48,0,0,0,.23.41.83.83,0,0,1,.19.38.71.71,0,0,0,.12.31.6.6,0,0,1,.1.33.65.65,0,0,1-.48.61,2.72,2.72,0,0,1-1,.19,1.3,1.3,0,0,1-.66-.14,1.34,1.34,0,0,0-.43-.16,1.42,1.42,0,0,1-.58-.32,1,1,0,0,0-.4-.22.38.38,0,0,1-.27-.25,1.11,1.11,0,0,0-.21-.32.78.78,0,0,1-.21-.41l.18-.18a.13.13,0,0,0,0-.06l-.08-.08a1.84,1.84,0,0,1-.14-.62,2,2,0,0,1,0-.28c0-.05.08-.08.22-.1l-.06-.06a4.36,4.36,0,0,1,.56-1.7,4.27,4.27,0,0,1,.64-1.11V24l-.23.61a3.91,3.91,0,0,0-.41,1.32l.06.18c.06,0,.15-.12.29-.35l.18-.27.11.12a.26.26,0,0,1,.08-.21.28.28,0,0,0,.08-.19A.33.33,0,0,1,35.1,25a11.3,11.3,0,0,0,1-1.84,3.75,3.75,0,0,1,.3-.59s.2-.3.49-.79a8.73,8.73,0,0,1,.81-1.23,1.25,1.25,0,0,0,.28-.37c0-.06.55-.8,1.58-2.21l1.93-2a53,53,0,0,1,5.45-4.69l3-1.67c-.15,0-.23,0-.23.06a.37.37,0,0,1-.27.09h-.13a.13.13,0,0,0-.09,0,.08.08,0,0,0,0,0,.09.09,0,0,1,0,0c-.2,0-.31,0-.35.1s-.13.11-.28.13-.22,0-.22.07-.05.06-.16.08a4.1,4.1,0,0,0-.86.41c0-.08.4-.33,1.2-.74a3.11,3.11,0,0,1,1.34-.52c.1,0,.15,0,.15-.11s.12-.1.35-.1l.27.06V9.2l.76-.35L51.3,9l.12.17s0,0,.07-.09A.37.37,0,0,1,51.68,9l.06,0V8.85H52s0-.07.08-.09l.11-.06.16,0,.12.05s0,.06-.12.06-.11,0-.11.09l.07.06a.3.3,0,0,0,.16,0,.66.66,0,0,1,.21,0,4.89,4.89,0,0,0,.7-.15l1.32.35a9.43,9.43,0,0,1,1.16.9c.63.54,1,.84,1,.92a.89.89,0,0,0,.23.56c.08.08.12.14.12.2s-.18,0-.18.09S57,12,57,12s.09,0,.09.11a.63.63,0,0,1,0,.19.67.67,0,0,0,0,.18.13.13,0,0,1,0,.1l0,.35q0,.18.12.18t.12.15a.39.39,0,0,0,0,.14.27.27,0,0,1,0,.12,10,10,0,0,0-.32,1.29l-.15.7a10.23,10.23,0,0,0-.5,1.32,8.72,8.72,0,0,1-.44,1.2,2,2,0,0,0-.12.34.9.9,0,0,1-.24.35c-.15.15-.22.26-.22.34l.11.23a1.53,1.53,0,0,1-.29.62,1.41,1.41,0,0,0-.18.29l-2.6,5.3a7.72,7.72,0,0,1-.53.94.81.81,0,0,0-.13.31.48.48,0,0,1-.13.25.89.89,0,0,0-.21.41l0,.11c-.08.2-.17.42-.29.66a6.94,6.94,0,0,0-.3.72l0,.15c0,.19-.1.3-.18.32a20.93,20.93,0,0,0-1.9,4q-1.68,4.27-3.58,10.29l-.23.67a2.2,2.2,0,0,1-.18.53l-.06.52a1,1,0,0,0,.09.41,1,1,0,0,0,.13.25.15.15,0,0,1,.05.08.09.09,0,0,0,0,.06h-.18l-.06,0,.06.12c.18,0,.76-.51,1.76-1.52A6.56,6.56,0,0,1,47.2,44a1.77,1.77,0,0,0,.41-.32l.35-.33c.14-.21.25-.32.35-.32s.12,0,.12.06a.46.46,0,0,0-.24.22c-.06.11-.14.26-.26.45l-.09.18a2.44,2.44,0,0,1-.25.35h0l-.06,0a.77.77,0,0,0-.2.15.14.14,0,0,0-.06.11l.06.06c.13,0,.43-.21.9-.64a6.29,6.29,0,0,0,.71-.69,1.46,1.46,0,0,1,.17-.31q1-1.32,1.23-1.32a.08.08,0,0,0,.09-.09.07.07,0,0,1,.07-.08s.08,0,.08,0,0-.21.1-.21a.33.33,0,0,0,.19-.06l-.06-.11c.12,0,.28-.19.5-.58s.39-.57.53-.57l-.06-.11h.17l0-.12a.21.21,0,0,1,.07-.16c0-.05.08-.08.1-.08a12,12,0,0,0,2-2.37,15.2,15.2,0,0,0,1.79-2.61s-.16.1-.35.3l.12-.15c.11-.17.23-.26.33-.26a22.22,22.22,0,0,0,2.19-3.25L58,31.06l.41-.68-.24.62s.08-.08.18-.23a1.1,1.1,0,0,1,.23-.3.34.34,0,0,0,.12-.12v0s0-.06-.09-.06-.09,0-.09-.06l.06-.18c.06,0,.18-.17.35-.52a.05.05,0,0,1,0,0l0,.07a.07.07,0,0,0,.07.06c.22-.12.34-.23.38-.35a.35.35,0,0,0,0-.16c0-.07,0-.1.06-.1s.07,0,.09-.12a1.32,1.32,0,0,1,.23-.38,0,0,0,0,0,0,0,.36.36,0,0,0,.09-.18.08.08,0,0,0-.09-.09c-.06,0-.09,0-.09,0a.37.37,0,0,1,.08-.14L60,28A.21.21,0,0,1,60,28l.18.21a.79.79,0,0,0,0-.15s.05-.06.14-.13a1.47,1.47,0,0,0,.3-.51l-.25.23a.27.27,0,0,1-.19.06,1,1,0,0,1,.12-.22,2.3,2.3,0,0,1,.25-.34c.09-.1.15-.14.19-.14s0,.17-.06.17l-.06.18a3,3,0,0,0,.38-.47l.06-.12a1.23,1.23,0,0,0,.27-.44h-.12l-.06-.06.12-.23s.06.07.06.09,0,0,.11,0l.06-.12v-.18a1,1,0,0,1,.33-.55c0,.15,0,.25-.12.29s.06,0,.13-.12a1,1,0,0,0,.15-.2,2,2,0,0,1,.13-.22,1.53,1.53,0,0,0,.17-.34l-.23.12a.28.28,0,0,1,.29-.3.42.42,0,0,0,.22-.05,1.74,1.74,0,0,0,.34-.56.92.92,0,0,1,.35-.53,1.87,1.87,0,0,1,.15-.32.54.54,0,0,0,.07-.12.64.64,0,0,1,.13-.17q.24-.24.24-.3l-.12-.23.18.06c.17,0,.26,0,.26-.06s0-.18.09-.18.1-.08.14-.26a.09.09,0,0,0,0-.07.21.21,0,0,1,0-.11.14.14,0,0,1,.1-.05l-.06-.12a.33.33,0,0,1,.18-.29l0-.06a.21.21,0,0,1,0-.06.5.5,0,0,0,0-.24l.18.06.17-.11A6.77,6.77,0,0,1,66.42,19c.45-.51.67-.82.67-.94L67,18l.12-.06c.16,0,.45-.64.89-1.74a10.13,10.13,0,0,0,.66-1.92q0-.12.18-.12l-.06-.23a.11.11,0,0,1,.12-.12.79.79,0,0,0,.32-.52l-.06-.06.06-.41s0-.11-.15-.21.07,0,.21-.06a.17.17,0,0,0,.12-.06,1.3,1.3,0,0,1,0-.35h.09l0,0s0,0,0-.05a.69.69,0,0,0-.06-.24l.12.06c.06,0,.16-.26.32-.78s.27-.77.32-.77l.15.06.26,0a3.13,3.13,0,0,1,1-.15,1,1,0,0,1,.62.23,2.11,2.11,0,0,0,.24.18,1.58,1.58,0,0,1,.31.25,2.32,2.32,0,0,1,.38.44.79.79,0,0,1,.18.45l-.12.32h.06a.67.67,0,0,0-.06.3,21.39,21.39,0,0,1-1.35,3.57A22.12,22.12,0,0,0,71.1,18q0,.12-2.55,6.11-1.92,4.56-2.87,6.68c-.37.87-.79,2-1.26,3.48l-.93,2.87a28.82,28.82,0,0,0-1.15,7.74,8.76,8.76,0,0,0,.33,2.72c0,.1.06.15.14.15a.26.26,0,0,1,.21.14c.06.1.12.15.2.15a.24.24,0,0,1,.15,0l-.06.62.18.08-.12.12.12.12s-.05,0-.15.09-.26.07-.26.11A.12.12,0,0,1,63.05,49.28ZM34.86,23.73v-.05a.31.31,0,0,1,0-.08l0-.13a.81.81,0,0,1,.1-.18.23.23,0,0,1,.14-.08s.05,0,.05.06a.23.23,0,0,1,0,.07l-.06.13a.68.68,0,0,1-.13.18A.28.28,0,0,1,34.86,23.73Zm1.26,1.09.24-.3q-.3.15-.3.24Zm.56-1.14a.31.31,0,0,0,.12-.06.81.81,0,0,0,.16-.16.43.43,0,0,0,.07-.25c-.06,0-.12.05-.17.14a3.16,3.16,0,0,1-.18.27Zm.12-2.41.29-.47a.83.83,0,0,1-.09.33A.45.45,0,0,1,36.8,21.27Zm.29,1.61c.08,0,.21-.21.41-.64s.25-.5.29-.5l.15-.23a.33.33,0,0,0-.21.1A8.16,8.16,0,0,0,37.09,22.88Zm.12-2.19-.06-.09a1.18,1.18,0,0,1,.17-.24C37.32,20.58,37.28,20.69,37.21,20.69Zm.23-.44a10.64,10.64,0,0,1,1.36-2,17.17,17.17,0,0,1,2-2.3q.8-.64,1.26-1.08a46.1,46.1,0,0,0-4.13,4.92l-.38.41S37.46,20.25,37.44,20.25Zm.06,2.4h.06l.07-.06a.16.16,0,0,0,0-.11h-.12A.24.24,0,0,0,37.5,22.65Zm.56-1.26.17-.35s-.09.07-.14.2A.24.24,0,0,0,38.06,21.39Zm.41-.7.17-.33-.11.06-.12.27Zm.11.35.06-.24s-.08,0-.11.11a.4.4,0,0,0-.06.13Zm.12-.79.24-.24a1.87,1.87,0,0,0,.3-.38.15.15,0,0,1,.06-.09.7.7,0,0,0,.16-.14,1.67,1.67,0,0,0,.27-.41l-.18.07a.89.89,0,0,0-.26.28l-.06.06a2.41,2.41,0,0,0-.38.54A2,2,0,0,0,38.7,20.25Zm1.11-1.5.06,0,.09-.07.15-.15a.32.32,0,0,0,.09-.23.05.05,0,0,0,0,0,.08.08,0,0,1,0,.05l-.07.09-.29.3Zm.94-1.08.62-.65c.23-.25.45-.48.64-.7a1.16,1.16,0,0,0,.29-.38l-.7.69A11.78,11.78,0,0,0,40.75,17.67Zm1.06,26.16s0,0,0-.12,0-.05-.06-.05v.17Zm.2-29L43,14S42.66,14.31,42,14.86ZM43.1,46.23v-.14a.52.52,0,0,1-.12-.38,5.73,5.73,0,0,1,.35-1.47l0-.17a5.62,5.62,0,0,0,.2-1,.76.76,0,0,1,.18-.23.31.31,0,0,1,0-.12,1,1,0,0,0,.08-.24c.06-.35.13-.52.23-.52v-.21c.08,0,.12-.1.13-.29a.9.9,0,0,1,.14-.47.65.65,0,0,0,.11-.32l-.06-.24a.31.31,0,0,1,.18,0l-.06-.24a.2.2,0,0,1,.15-.06s0,0,0,.12l.11-.06a.24.24,0,0,0,0-.15c-.09,0-.14,0-.14,0l.35-.47h-.12l.12-.15a.5.5,0,0,0,.18-.41.44.44,0,0,1,.1-.35.86.86,0,0,0,.16-.18l-.06-.32q.09,0,.09,0a1,1,0,0,1,0-.22.05.05,0,0,1,.06,0,2.24,2.24,0,0,0,.28-.59c.35-1,.69-2,1-2.78.35-1,.54-1.49.57-1.54l.28-.51a20.81,20.81,0,0,1,.87-2,3.14,3.14,0,0,1,.21-.47q2.05-4.23,2-4.35A.58.58,0,0,1,51,25.2a2.93,2.93,0,0,0,.64-1.44.14.14,0,0,1,0-.11h.09c.06,0,.09,0,.09-.11a1.58,1.58,0,0,1,.26-.52,1.52,1.52,0,0,0,.26-.55,2,2,0,0,1,.27-.58A6.93,6.93,0,0,0,53,21a4.67,4.67,0,0,1,.26-.63,7.89,7.89,0,0,0,.5-1.09,2.18,2.18,0,0,1,.25-.6,9.29,9.29,0,0,0,.42-1l.21-.53a3.8,3.8,0,0,0,.38-.86.32.32,0,0,1,0-.19.21.21,0,0,0,0-.11.16.16,0,0,1,0-.08,1.36,1.36,0,0,0,.08-.37l0-.2a.19.19,0,0,0,.12-.09.82.82,0,0,1,0-.22s0,0,.1,0,.09-.07.09-.23-.07-.06-.09-.06a.09.09,0,0,1-.06,0h0v0a.29.29,0,0,1,0-.14l0,0,.06-.18a1.29,1.29,0,0,0,.06-.2s0-.06-.15-.06-.15,0-.15,0a.85.85,0,0,0,.24-.56c0-.13,0-.21.06-.23l.05.11a.88.88,0,0,0,.06-.29.16.16,0,0,0-.11,0q-.09,0-.09,0h0v-.67c-.18,0-.26.12-.26.35l0,.41c0,.1,0,.15,0,.15l0-.06c0,.1,0,.16,0,.17a8.61,8.61,0,0,0-.44,1.15,31,31,0,0,1-1.82,4.65.77.77,0,0,1,.18-.54,1.22,1.22,0,0,0,.17-.77.71.71,0,0,1,.13-.33.59.59,0,0,0,.14-.33,1.24,1.24,0,0,1,.11-.4.66.66,0,0,0,.09-.26l-.06-.18a9.51,9.51,0,0,0-.7,1.44c-.22.53-.44,1-.67,1.55A23.52,23.52,0,0,1,51,22L50,23.88a1.48,1.48,0,0,0-.24.26.17.17,0,0,1,.12.06.62.62,0,0,1-.12.24,2.24,2.24,0,0,1-.23.35.76.76,0,0,0-.12.44s0,0-.06.07l-.1.09-.09.07s0,.08,0,.18H48.9l.11.12c0,.29,0,.43-.11.43h-.06l0,0a.26.26,0,0,0,0,.11.14.14,0,0,1,0,.07.64.64,0,0,0,0,.07.1.1,0,0,1-.05.06l-.23.07,0,.06a.13.13,0,0,0,0,.06.13.13,0,0,0,.09.05s.07.06.07.16a.1.1,0,0,1-.11.11h-.06a.88.88,0,0,1-.1.43,3.79,3.79,0,0,0-.2.34l.06.11c-.09,0-.15,0-.17.06a.67.67,0,0,0-.21.37.83.83,0,0,1-.17.38.88.88,0,0,0-.18.32.28.28,0,0,1,0,.13.23.23,0,0,0,0,.09.91.91,0,0,0-.17.44v.21l0,0a.36.36,0,0,1-.07.09.2.2,0,0,0-.06.15.41.41,0,0,1-.06.2l0,.06-.14.38c-.18.37-.33.56-.44.56l-.18-.12a.74.74,0,0,0,0,.18.08.08,0,0,0,.07.07l.09,0a.09.09,0,0,1,.06,0l-.06.11a1.71,1.71,0,0,0-.38.85l0,.12q0,.18-.24.18c-.11,0-.17.11-.17.17h.06c0,.37,0,.56-.06.56h-.12l.12.23h-.12c-.1,0-.17.11-.21.34s-.09.34-.17.34L45,34.43v.26A.68.68,0,0,1,45,35q0,.12-.12.12a.22.22,0,0,0-.1,0l-.09.07a.2.2,0,0,0-.06.15l.12-.06a4.05,4.05,0,0,1-.35,1.43v-.35a1.11,1.11,0,0,1-.09.22.17.17,0,0,0,0,.07.16.16,0,0,1,0,.08.3.3,0,0,0,0,.16l.06.26L44.09,37l-.06.11a3.5,3.5,0,0,1-.08.52H43.8l-.12-.06a2.27,2.27,0,0,0,.12.41c0,.26,0,.38-.15.38h0l-.08.12s-.09.06-.27.06l-.06.12.12.11.06,0,.06.11-.06.27a1,1,0,0,1-.12.32s0,0,0,0,0,0-.12.1v0l-.17.39a.44.44,0,0,1-.09.13l-.07,0-.08,0s0,0-.05,0,.1.09.32.09q.06.06.06.09l-.12.11h-.15l.06.18a3.19,3.19,0,0,1-.26.76,1.18,1.18,0,0,0-.21.53l.18.11q0,.12-.15.12c-.1,0-.14.06-.14.18h.11a3.55,3.55,0,0,0-.11.7l-.18-.12a.91.91,0,0,0,0,.25l.09.31a1,1,0,0,1,0,.23l-.12-.05a3.31,3.31,0,0,0-.06,1,.1.1,0,0,1,.06-.09.22.22,0,0,0,.09-.07l.11-.18a.56.56,0,0,0,.09-.33l-.06-.3a4.5,4.5,0,0,1,.35-1,2.84,2.84,0,0,1,0,.45c0,.19-.09.57-.19,1.16l-.06.09.06.11.18-.11a.1.1,0,0,1,.11.11c-.19.1-.29.18-.29.24a.32.32,0,0,0,.18-.06v.12a.17.17,0,0,1-.11.06s0,0,0,0,0,.06,0,.12a1.08,1.08,0,0,0,0,.32s0,.06,0,.06l.09-.11h.08A2.88,2.88,0,0,0,43.1,46.23Zm-.56-30.61.17-.06.12-.23Zm.17,28.62c-.07,0-.11,0-.11-.09s0-.08.06-.08.11,0,.11,0Zm-.05,1-.06-.06V45a.16.16,0,0,0,0,.08A.3.3,0,0,1,42.66,45.21Zm.14-1.32h-.09l.06-.12.06.06Zm0-1.67V42.1c.08-.21.15-.32.21-.32l.06.15-.12.23Zm.27.64-.06,0v-.18a.13.13,0,0,0,0,.07A.32.32,0,0,1,43.1,42.86Zm.29-29.2-.06-.06.12-.12.06.12Zm-.06,27.42v-.24c0-.17,0-.26.12-.26Zm.18.58c-.08,0-.12,0-.12-.08l.12-.33s.05.1.05.3Zm-.06-1.26v-.11c0-.14,0-.22.11-.24a.05.05,0,0,1,.06.06l-.06.24Zm.17-25.72.18-.12s0-.05-.06-.05l-.12.11Zm.06,25.26-.06-.12a1.23,1.23,0,0,1,.11-.44A1.14,1.14,0,0,1,44,39a1.86,1.86,0,0,1-.13.6A1.38,1.38,0,0,1,43.68,39.94Zm-.06,5a.11.11,0,0,1,0-.08.11.11,0,0,0,0-.08.22.22,0,0,1,0-.1,2.23,2.23,0,0,0,0-.53A5.74,5.74,0,0,0,43.62,45Zm.3-6.29h-.06s0,0,0,0l0-.06a.13.13,0,0,1,0-.1h.06l.12.12Zm-.12,5.09s.07-.07.15-.2a.67.67,0,0,0,0-.21C43.9,43.36,43.84,43.5,43.8,43.77Zm.26-29.47s0,0,0-.12l-.12.06v.06Zm0,28.89.06-.09v-.29l0,0,0,.06A.16.16,0,0,0,44,43a.22.22,0,0,1,0,.1Zm.15-.56a.11.11,0,0,0,.12-.12.15.15,0,0,0-.06-.11l-.15.17Zm.2-5.21h-.2q0-.12.18-.12l0,.06Zm-.11.9h-.09c0-.07.08-.11.18-.11S44.33,38.28,44.27,38.32Zm0-23.81a.17.17,0,0,0,.12-.08.49.49,0,0,1,.08-.1.12.12,0,0,0,0-.09c-.06,0-.11.07-.17.21Zm.06,21.7.06-.23-.12.23ZM44.36,38v-.06l0-.14q0-.18.12-.21l.06.06a.34.34,0,0,1-.15.29Zm0,4c.08,0,.16-.23.24-.68l.17-.29a.32.32,0,0,1,.06-.18A14.38,14.38,0,0,1,45.5,39a1.71,1.71,0,0,0-.29.49,3.09,3.09,0,0,0-.27.71A7.11,7.11,0,0,0,44.41,42Zm.44-5.13c-.06,0-.08,0-.08-.06l0-.12.12.06Q44.94,36.86,44.85,36.86Zm.21-.65v-.05l.06-.27a1.36,1.36,0,0,1,.17-.53h.09a1.05,1.05,0,0,1-.06.33C45.22,36,45.14,36.21,45.06,36.21Zm.12,4.87c.07,0,.11,0,.11-.12a.05.05,0,0,0-.06-.06c-.07,0-.11,0-.11.09S45.14,41,45.18,41.08Zm.38-2.23.11-.17V38.5l-.17.35Zm.06-4-.06-.12.11-.12.06.06-.11.12Zm.11,3.54a.16.16,0,0,0,.12-.17q0-.15-.06-.15c-.08,0-.12.11-.12.32Zm.06-5.89.06-.23-.12.23Zm.06,5.39.18-.35A.52.52,0,0,0,45.85,37.88Zm.23-26.33c-.07,0-.11,0-.11-.06l.06-.12A.41.41,0,0,1,46.08,11.55Zm0,22.2.06-.41c0-.13,0-.2.12-.2a.78.78,0,0,1-.12.44Zm.12,3.43.12-.06-.12-.06a.06.06,0,1,0,0,.12Zm0,1.14c.08,0,.12-.08.12-.26L46.26,38A.53.53,0,0,0,46.2,38.32Zm.06-1.46c.14,0,.28-.29.44-.88A1.79,1.79,0,0,0,46.26,36.86Zm.23-4-.05-.06a.44.44,0,0,1,.07-.24c.05-.08.09-.11.13-.11l.06.05Zm.06-20.51.15-.12-.15-.06s0,0,0,0a.4.4,0,0,0,0,.15ZM46.88,11l-.06-.06a1.66,1.66,0,0,1,.35-.26h0s0,0,0,.09,0,.08-.12.14A.4.4,0,0,1,46.88,11Zm.23,20.39c-.2,0-.29-.06-.29-.17h.06l.23.11h0a.22.22,0,0,0,0-.12.21.21,0,0,1,.06-.16l.11.06C47.34,31.25,47.27,31.35,47.11,31.35ZM47,45.94l.3-.32h-.06a1,1,0,0,0-.24.26Zm.12-16.49c.08,0,.16-.15.23-.44L47.29,29a1.47,1.47,0,0,1-.11.22.66.66,0,0,0-.06.12A.58.58,0,0,0,47.11,29.45Zm.38,1.11H47.4l-.06-.06.18-.12.06.06Q47.58,30.56,47.49,30.56Zm.32,15-.06-.06s0-.14,0-.29l-.24.23c.12,0,.18,0,.18.05a.05.05,0,0,0,0,.06Zm-.17-11.81.06-.06v-.23s0,0,0,0a.59.59,0,0,1-.05.08.38.38,0,0,0,0,.19Zm.06,1v-.06q0-.12-.06-.12Q47.64,34.72,47.7,34.72Zm0-1.38c.06,0,.13-.09.21-.29a1.32,1.32,0,0,0,.12-.38A2.18,2.18,0,0,0,47.75,33.34ZM48,27.81l.06-.12L48,27.57l-.06.24Zm.35,4.33a.11.11,0,0,0,.12-.12L48.37,32l-.12.11Zm.06-.32.12-.06,0-.23Zm.35-20.45.12-.12q-.18,0-.18.06A.05.05,0,0,0,48.72,11.37Zm0,16.38,0,0a.24.24,0,0,1,.15,0Zm.53-.91h0l-.06-.06.12-.12A.31.31,0,0,1,49.25,26.84Zm.26,15.09a.2.2,0,0,1,0-.11l.06-.08a.38.38,0,0,1,.09-.09.21.21,0,0,1,.11,0,.3.3,0,0,1,0,.14l-.09.06Zm.27-30.68,0-.06h-.11v.06Zm.43,30.35-.11-.05L50,41.43v.12s0,.05-.06.05,2-2.87,6-8.55L59.59,28q-.8,1.5-6.83,10c-.78,1.11-1.17,1.69-1.17,1.72a3.37,3.37,0,0,1-.41.52,3,3,0,0,1-.45.49s-.1,0-.19.14c-.26.24-.38.42-.38.56Zm.12-17.08c-.08,0-.12,0-.12-.08a.09.09,0,0,1,0-.06l.09-.06.09.15ZM51,23.27l.17-.27.06.06s0,.08-.1.13S51,23.27,51,23.27ZM51,41a.05.05,0,0,1,0,0,.53.53,0,0,1,0-.14c.07,0,.11,0,.11,0A.25.25,0,0,1,51,41Zm.38-18.72h0l-.06-.06a.13.13,0,0,1,0-.06l.06-.07a.14.14,0,0,1,.1,0,.25.25,0,0,1,.21.11v.06l-.21-.12C51.47,22.18,51.45,22.24,51.39,22.24Zm.49-.91h0q-.12,0-.12-.06l.06-.11a.1.1,0,0,1,.11.11Zm0,21,.12-.06.06-.18s0,0-.06,0,0,0-.07,0A.4.4,0,0,0,51.91,42.28Zm.21-21.53h0L52,20.69q0-.21.12-.21a.05.05,0,0,1,.06.06Q52.21,20.75,52.12,20.75Zm.23,18.45h-.08v-.06l.11-.11A.29.29,0,0,1,52.35,39.2Zm.27-19.66a.85.85,0,0,1,.11-.32s.07-.06.15-.06ZM53,8.79h-.09q-.15,0-.15-.06s.05-.05.15-.05l.12.05ZM53,41s0,0,.06,0l0-.06.31-.52s-.06,0-.1.09l-.14.18a2.27,2.27,0,0,0-.23.35Zm.32-3q-.15,0-.15-.12a.09.09,0,0,1,0-.05l.09-.06.06.11Q53.35,38,53.32,38Zm.26-29L53.64,9l0,0-.06,0-.09,0-.1,0s0,.08.09.12A.27.27,0,0,0,53.58,9Zm-.11,28.62v-.06a.13.13,0,0,1,0-.06l.06-.1s.06-.07.1-.07v.08A.9.9,0,0,1,53.47,37.65Zm.35-21.53.06-.18-.06-.12-.06.24Zm.12,1.26v-.24c.05-.17.14-.26.26-.26Zm0,19.57.05-.21.21-.12-.06.18Zm.49,2,1.2-1.5h-.05a2.2,2.2,0,0,0-.56.62A3.72,3.72,0,0,0,54.43,39Zm.06-2.7v-.06a.35.35,0,0,1,.12-.23l.06.06Zm1.23-22.61,0-.06-.06-.06c-.07,0-.11,0-.11.09v0Zm-.09,23.7q.18,0,.18-.12l-.06-.06a.17.17,0,0,0-.12.06.21.21,0,0,0-.05.12Zm.24-.35c.27-.24.41-.39.41-.44h-.12Zm.35-.5.24-.24.2-.35C56.43,36.21,56.28,36.41,56.22,36.51Zm.06-2.82v0l.38-.56a1.17,1.17,0,0,1-.13.25,1.45,1.45,0,0,0-.12.19A.52.52,0,0,1,56.28,33.69Zm1-1.43h-.09V32.2a.15.15,0,0,1,.07-.12.25.25,0,0,1,.16-.06Zm.2-.44a.32.32,0,0,1,.07-.13.21.21,0,0,1,.16-.1A.63.63,0,0,1,57.48,31.82ZM58.1,34l0,0,.08-.06a.12.12,0,0,0,0-.1l-.23.12Zm.23-.3.06,0,.12-.24a.24.24,0,0,0-.17.1.56.56,0,0,0-.07.14Zm.29-.55.12-.12V33l-.18.12Zm.24-.29.23-.3.21-.35s-.1,0-.18.13l-.22.27a.38.38,0,0,0-.1.25ZM58.92,30l0-.17-.11.11A.05.05,0,0,0,58.92,30Zm.49-1,.18-.35.23-.12a.32.32,0,0,1-.07.19.85.85,0,0,1-.19.19A.44.44,0,0,1,59.41,29Zm.3,14.35V43h-.06v.32Zm0,1,.06-.12-.06-.12Zm.11-2.64v-.17h0C59.77,41.66,59.78,41.72,59.82,41.72Zm.12-14.32a.31.31,0,0,1,0-.08l0-.13a.12.12,0,0,1,.12-.09.34.34,0,0,1-.06.22A.17.17,0,0,1,59.94,27.4Zm0,12.65.12-.06-.12-.05Zm.12,2.76.06-.12a.05.05,0,0,0-.06-.06q-.12,0-.12.06ZM60,46s0,0,0-.12v-.09s0,0-.06,0V46Zm.21-4,0-.06a.28.28,0,0,0-.11-.21l-.12.06Zm-.12,1.49,0,0a.24.24,0,0,0,0-.15L60.06,43s-.06.12-.06.35S60,43.48,60.06,43.48Zm.32-2.64c.12,0,.18-.1.18-.32l0-.35a.5.5,0,0,0,0-.12.09.09,0,0,0-.06-.07l-.07,0c-.06,0-.1.08-.13.26a.93.93,0,0,1-.13.38q0,.15.09.18C60.22,40.81,60.28,40.84,60.38,40.84Zm-.2-2.22,0-.06,0-.12Zm0-11.78v-.06a1.08,1.08,0,0,0,.19-.25c.07-.11.14-.16.2-.16a.14.14,0,0,1,0,.06l-.06.12a1.3,1.3,0,0,1-.13.19A.24.24,0,0,1,60.23,26.84Zm.21,11q.12,0,.12-.18l-.12-.29s0,0,0,.11a1,1,0,0,1,0,.24Zm.12,1.93.06-.06c0-.14,0-.21-.12-.23s-.06,0-.06.11Zm.76,7.68-.18-5.6a6.34,6.34,0,0,0,.27-1.26,17.62,17.62,0,0,1,.52-2.37,1.76,1.76,0,0,0,.12-.53c0-.39.08-.62.18-.67v-.27a.31.31,0,0,1,.11-.2q.12-.12.12-.15l0,0h-.08s-.05-.08-.05-.19l.05-.24a.05.05,0,0,1,.06.06.17.17,0,0,0,.06.12V36c.06,0,.09-.17.09-.46a.9.9,0,0,1,.2-.63l0,.12.11.12L62.9,35l-.09-.35c0-.31.09-.52.27-.61l.17-.06s-.06,0-.17,0-.18,0-.18-.09l.07-.09a.31.31,0,0,0,.05-.19.32.32,0,0,1,0-.17.67.67,0,0,0,.06-.12.08.08,0,0,1,.08-.07.36.36,0,0,0,.18-.09v-.06l-.12.06V33h.06a.05.05,0,0,0,.06-.06l-.06-.17a.15.15,0,0,1,.09-.14.13.13,0,0,0,.09-.13.46.46,0,0,1,.11-.23l0-.06a1.41,1.41,0,0,0,.27-.47l-.06-.06-.24.12s-.06-.06-.06-.18,0-.29.06-.29.06,0,.12.09a.26.26,0,0,0,.18.09l.06-.12a.46.46,0,0,0-.18-.06s-.06,0-.06-.12a.54.54,0,0,1,0-.19.26.26,0,0,0,0-.1c.1-.29.19-.44.29-.44l.09.06-.09.26a.36.36,0,0,0,.15-.08,1.54,1.54,0,0,0,.2-.33l.09-.26s0-.12.06-.35a.87.87,0,0,1,0-.18s0-.06.11-.06a.37.37,0,0,0,.17,0v-.06c-.15,0-.23,0-.23-.09s0-.05.06-.09a1.27,1.27,0,0,0,.17-.26,1,1,0,0,0,.12-.53v-.62a.09.09,0,0,1,0,.05.08.08,0,0,0,0,0l0,0s0,0,0,.05l.06.07a1.25,1.25,0,0,0,.14-.35l0-.24-.29.24q-.12,0-.12-.09v0a.52.52,0,0,1,.41-.31c.22-.05.32-.12.32-.22h-.14s0,0,0-.11l-.21.17c0-.19,0-.3-.06-.32s-.51.71-1.06,2.14a14.25,14.25,0,0,0-.87,2.58q-.62.58-1.79,5.94l-.17.71a1.16,1.16,0,0,0-.29.52.27.27,0,0,0,0,.12.29.29,0,0,1-.06.15q-.06.09-.27.09a.12.12,0,0,1,0-.09,1,1,0,0,0,.15-.65,1,1,0,0,1,.07-.47l.11-.14h0L61,37.47l.06-.29v-.44a12.14,12.14,0,0,0-.53,2.35c0,.11,0,.17.06.17l.17-.06.3.12,0,.15-.16.14a.52.52,0,0,0-.13.24l0,.06,0,.32.06.29h.06L61,40.4l.11.18a.62.62,0,0,1-.1.32c-.07.12-.14.22-.2.31a.6.6,0,0,0-.11.16l.12-.06s.1,1,.25,3.06S61.28,47.44,61.32,47.44Zm-.82-5a.23.23,0,0,0,.16-.08.21.21,0,0,0,.07-.16l-.06-.06-.11.06ZM61,26.78h-.24l.06-.07a.17.17,0,0,1,.06-.06l.06,0,.11.12s0,0,0,0A.05.05,0,0,0,61,26.78Zm-.24,3.6v-.17s.06,0,.06.12Zm.32-.46H61l-.12-.06s0-.06.12-.06a.17.17,0,0,1,.11.06Zm-.06,10.37c-.09,0-.14-.06-.14-.18V40s0,0,.12,0l0,.18Q61.08,40.29,61.05,40.29ZM61,35.54l.06-.06,0-.29a.23.23,0,0,0,0,.12A1.46,1.46,0,0,0,61,35.54Zm.29,1.08c.06,0,.19-.27.38-.82,0-.19,0-.29.1-.3s.08,0,.08-.06,0-.12,0-.28l.2-1.23a2.16,2.16,0,0,1,.18-.5,13.87,13.87,0,0,0,.9-3s0,0-.11,0v-.06l0,0a1.37,1.37,0,0,1,.29-.23q.09-.06.09-.09a.3.3,0,0,1-.16,0l-.08,0s.08-.11.24-.17a5.82,5.82,0,0,0,.31-.79A4.76,4.76,0,0,0,64,28h-.1a.25.25,0,0,1,0-.11s0,0,0,0a.06.06,0,0,1,0,0s.05,0,.13,0,.28-.44.6-1.32.51-1.4.54-1.55.24-.28.36-.65l.14-.32c0-.12,0-.18,0-.19a.13.13,0,0,1-.07-.05l.17-.17a1.56,1.56,0,0,0,.44-.85.46.46,0,0,1,.09-.24,1.17,1.17,0,0,0,.2-.32,2.22,2.22,0,0,0,.3-.82.27.27,0,0,1,.06-.17l-.06-.24c.07,0,.14-.05.2-.15a1.15,1.15,0,0,0,.27-.61.11.11,0,0,1,0-.1.14.14,0,0,0,.06-.11l-.06-.05q-.34.23-2.75,6.18t-2.4,6.24l.06.06-.12.29a1.91,1.91,0,0,1-.38,1q-.15.21-.24.21v-.24l.06-.11a.19.19,0,0,1-.1,0c-.05,0-.07.07-.07.19s.08.23.25.4a1.49,1.49,0,0,1,.25.28l-.12,0c-.16,0-.24,0-.25,0a.4.4,0,0,0,0,.15.49.49,0,0,1-.17.41,1,1,0,0,0-.06.38,1.22,1.22,0,0,1-.12.5,1,1,0,0,0-.11.38c0,.12,0,.18,0,.19l.11,0ZM61.52,26h0s-.05,0-.05-.12l.05-.06s.06,0,.06.12Zm.18,7.32.06-.14H61.7l-.15.09A.2.2,0,0,0,61.7,33.28Zm0,10.43,0,0a.4.4,0,0,0,0-.21.32.32,0,0,0-.06-.18l-.15.24C61.55,43.66,61.6,43.71,61.7,43.71Zm0-.73v-.23h-.06Zm0-.41.12-.06-.06-.11A.27.27,0,0,0,61.7,42.57Zm.06-9.67.06-.11-.06-.12Zm.06,8.82v-.17s-.06.05-.06.17ZM62,25.17c-.08,0-.11,0-.11-.06s0-.12.11-.12l.06.12Zm.12,18.6.06-.14v-.44l-.06.11a1.13,1.13,0,0,0-.06.36C62.05,43.73,62.07,43.77,62.11,43.77Zm.18-12.18q0-.21-.12-.24l-.06.06.06.18Zm0-.53.05-.06.06-.29-.11.29Zm.23-4.63.12-.12a.32.32,0,0,0-.18.06A.05.05,0,0,0,62.52,26.43ZM62.75,36a.14.14,0,0,0,.11-.06.3.3,0,0,0,0-.18l-.09-.11L62.7,36Zm.33-6.68v-.09s-.06,0-.18,0a.11.11,0,0,0,.12.12Zm.23-.82,0,0,0,0s0,0,0-.07l-.12-.06a.05.05,0,0,0-.06.06Q63.25,28.54,63.31,28.54Zm.18-3-.12-.06a.24.24,0,0,1,.17-.06C63.54,25.54,63.53,25.58,63.49,25.58Zm0-.94v-.26l0-.06c0-.06.08-.18.26-.35a.4.4,0,0,0,.15-.25c0-.07,0-.1.06-.1a.37.37,0,0,1,.05.17,4.75,4.75,0,0,0,.27-.6.38.38,0,0,1,0-.1.19.19,0,0,1,0-.09h.14c.1,0,.25-.17.44-.53.1-.15.18-.23.24-.23l0,.06c0,.08,0,.12-.08.12h0A19.24,19.24,0,0,1,63.54,24.64Zm.06-.26.12-.12.12-.23c-.06,0-.12.06-.18.17A.24.24,0,0,0,63.6,24.38Zm.18.32a1.06,1.06,0,0,1,.13-.26l.26-.44a2.07,2.07,0,0,1,.17-.24l0,0h.06a1.21,1.21,0,0,1-.32.56A2.5,2.5,0,0,1,63.78,24.7Zm.12,6.53a.1.1,0,0,0,.11-.11L64,31q-.18,0-.18.12c0,.07,0,.11.09.11Zm.32-.9h-.15a.05.05,0,0,1-.06-.06l.16-.05h.09a.08.08,0,0,1,0,.05s0,0,0,0Zm.12-.41-.12-.12.17.06Zm0-8.12-.06-.12.11-.06A.31.31,0,0,1,64.34,21.8Zm.17,7.38v-.11a.32.32,0,0,1,.18-.06.14.14,0,0,1-.06.11A.17.17,0,0,1,64.51,29.18Zm.27-.41-.15-.06.12-.11s0,0,0,.06S64.79,28.77,64.78,28.77Zm.93-2.11c.1,0,.22-.13.35-.41l-.11.06v-.06a.17.17,0,0,1-.16-.08.14.14,0,0,0-.12-.09s-.07-.06-.07-.18,0-.17-.06-.17-.09,0-.15.14a2.29,2.29,0,0,0-.16.35,1,1,0,0,0-.07.33,1.89,1.89,0,0,0,.29-.15,1,1,0,0,1,.32-.15,1.12,1.12,0,0,1-.12.35Zm-.44-7.06c.57-1,1-1.52,1.26-1.52s.21.06.21.18a.47.47,0,0,1-.24.39.85.85,0,0,1-.36.18c-.09,0-.13,0-.13.1a.78.78,0,0,1,0,.16c0,.05-.08.07-.22.07a.05.05,0,0,0,.06.06s.06,0,.06.12c-.24,0-.38,0-.44.12A.44.44,0,0,1,65.27,19.6Zm.33,6,.11-.06.12-.12a.38.38,0,0,0-.19,0S65.6,25.5,65.6,25.58Zm.11-4.45q.3-.21.3-.27Zm0,4h.06l.09-.06.13-.1a.15.15,0,0,0,.07-.12l0-.06-.06,0A.63.63,0,0,0,65.71,25.11Zm.41-.59c.16-.05.24-.34.24-.84a.9.9,0,0,1-.15.17,1,1,0,0,0-.2.62ZM66.06,26c.12,0,.18-.17.18-.44a.11.11,0,0,0-.12-.12c-.08,0-.11.08-.11.24S66,26,66.06,26Zm.62-1.58a.11.11,0,0,0,.12-.12v0a.8.8,0,0,0-.27,0l-.06.06Zm.06-.41a.26.26,0,0,0,.16-.07.19.19,0,0,0,.07-.12,5.73,5.73,0,0,1,.38-.66A4.6,4.6,0,0,0,68,21.8a.2.2,0,0,0-.08,0s0-.09,0-.22,0-.21-.09-.21a.3.3,0,0,0-.06.22.82.82,0,0,1-.1.37c-.07.13-.13.21-.2.23a.14.14,0,0,0-.11.15l.06.17a.42.42,0,0,1-.23.12s-.07,0-.07,0a.53.53,0,0,0-.11-.13,2.23,2.23,0,0,0-.19.32l-.13.25-.12.22.06.06a.21.21,0,0,0,.21-.15.57.57,0,0,1,.29-.18.05.05,0,0,1,.06.06q0,.12-.06.12l-.23.56-.18.23ZM66.8,18q-.12,0-.12-.09a.33.33,0,0,1,.15-.23l0,0C66.86,17.9,66.84,18,66.8,18Zm.35,4.22s.06,0,.06-.12l.35-.91-.12-.05a.34.34,0,0,0-.13.19c0,.08-.06.16-.09.22a1.11,1.11,0,0,0-.07.16l-.06.14c0,.05,0,.12-.06.19S67.07,22.24,67.15,22.24Zm.29-2.58.06-.06a.91.91,0,0,0,.18-.35,2.4,2.4,0,0,1,.11-.23c0-.08.17-.37.38-.88,0,0,0-.07,0-.21s0-.21.09-.22a.23.23,0,0,0,.1,0,.11.11,0,0,0-.12-.12c-.17,0-.38.38-.61,1.14l-.3.91ZM67.5,21c.08,0,.22-.3.44-.91q-.06,0-.09.12A1.71,1.71,0,0,0,67.5,21Zm.56-1,.06-.17a.05.05,0,0,0-.06-.06l-.12.17A.17.17,0,0,0,68.06,20Zm.2.91s0,0,0-.06,0-.11-.06-.11-.11,0-.11.05,0,.12.08.12Zm-.09-1.43a2.94,2.94,0,0,0,.36-.44,7,7,0,0,1,.8-1,.13.13,0,0,0,.1,0,.24.24,0,0,0,0-.15.32.32,0,0,0-.13-.08.33.33,0,0,1-.12-.06,1.27,1.27,0,0,1,.24-.43,1.08,1.08,0,0,0,.23-.48l0,0a.09.09,0,0,0,0-.05.19.19,0,0,1,0-.09.26.26,0,0,0-.08-.11s-.07,0-.08.08a1,1,0,0,0-.15.49,1.61,1.61,0,0,1-.21.63A9.32,9.32,0,0,0,68.17,19.49Zm.3-1.88.06-.06a6,6,0,0,0,.23-1l-.06-.06s-.08,0-.12.14-.07.22-.11.35l0,.09,0,.27Zm.23-1.26.24-.12h-.06l-.11.05S68.7,16.33,68.7,16.35Zm.18,2.81.06-.06L68.88,19Zm.11-3q.09,0,.18-.3s0-.05,0-.05v.05a.15.15,0,0,0,0-.08.61.61,0,0,1,.05-.12.93.93,0,0,1,0-.29l-.06-.06a4.47,4.47,0,0,0-.32.79ZM71.16,10,71,10v0q0-.12.24-.12h.06C71.34,9.94,71.28,10,71.16,10Z"/><path class="cls-1" d="M75.91,51,75.56,51l-.24,0a6.48,6.48,0,0,1-2.11-.59,3.29,3.29,0,0,1-.95-.58,7.08,7.08,0,0,1-.66-.91A3.72,3.72,0,0,1,71,47.14s0,0,.08.06a.61.61,0,0,0,0,.15.31.31,0,0,0,.09.13c0,.05.08.07.1.07l.06-.06a.88.88,0,0,0-.18-.41v0h0a1.1,1.1,0,0,0-.09-.29.79.79,0,0,1-.05-.29,1.55,1.55,0,0,1,.08-.47c.06-.16.11-.3.15-.44a1.89,1.89,0,0,1,.31-.56,5.59,5.59,0,0,1,1-.64q.12,0,.12.15a1.72,1.72,0,0,1-.3.46c-.11,0-.17.29-.17.85a2.19,2.19,0,0,0,.17,1l.3.06a.88.88,0,0,1,.44.09h1.31a.2.2,0,0,0,.18-.09c2.54-.47,3.92-.7,4.13-.7l1.41-.41A59.62,59.62,0,0,0,87.45,43c3.15-1.39,4.72-2.68,4.72-3.9a1.73,1.73,0,0,0-.79-1.31,17.15,17.15,0,0,0-1.91-1.47,48.73,48.73,0,0,1-4-3.1Q80,28.69,79.75,23.91a.67.67,0,0,0,0-.21l-.13-.2,0-.06a1.29,1.29,0,0,1-.29-1,9.28,9.28,0,0,1,.36-2.34c.25-.9.44-1.53.57-1.9a23.56,23.56,0,0,1,3.37-5.54,3.27,3.27,0,0,0,.68-.65,35.93,35.93,0,0,1,5-4.51l.7-.58a3.68,3.68,0,0,1,.94-.76,24.9,24.9,0,0,1,2.78-1.65,5.58,5.58,0,0,1,4-1.2,7,7,0,0,1,4,1l.15.15a10.12,10.12,0,0,1,.79.73,5.39,5.39,0,0,1,1.2,3.57c0,2.27-1.08,5.05-3.22,8.35l-.09.09c-.22.31-.37.48-.46.51a4.62,4.62,0,0,0-.77.9l-.15.14c-.37.43-.59.65-.67.65h-.18c-.06,0-.09.07-.09.16a.46.46,0,0,1-.17.31c-.33.35-.55.52-.65.52a.16.16,0,0,0-.17.14.54.54,0,0,1-.21.27,1.52,1.52,0,0,1-.73.44s-.06,0-.06,0h-.06s-.06,0-.06-.08l-.11.05a.38.38,0,0,0-.18.18.32.32,0,0,0,.18.06l-.41.29c.09-.1.14-.16.14-.2a.12.12,0,0,1,0-.09l-.38.17a12.62,12.62,0,0,1-2.08,1.32A3.8,3.8,0,0,1,92,23.5l-.67.06a.66.66,0,0,1-.32-.08c-.1,0-.15-.1-.15-.16l.09-.26a.25.25,0,0,1,.25-.12,3,3,0,0,0,1-.58c1-.65,1.43-1.05,1.43-1.2a.11.11,0,0,1,.08,0l.07,0a1.71,1.71,0,0,0,.23-.19.56.56,0,0,1,.34-.17c.09,0,.17-.13.25-.39l-.06-.11c-.08,0-.12,0-.13,0a.08.08,0,0,0,0,0l0,0-.18-.11-.2.11v-.11c0-.12.1-.22.32-.3l.52-.67a3.54,3.54,0,0,0-.61.35c-.76.57-1.22.92-1.38,1.06l-.23.11c0-.07.14-.25.44-.52a3.34,3.34,0,0,0,.67-.53,4.73,4.73,0,0,1,.53-.41l.41-.29.17-.12a.3.3,0,0,0,.11-.07.31.31,0,0,0,.07-.22l-.06-.12s-.1,0-.17.12,0,.07,0,.08l-.21.12-.12,0a.86.86,0,0,1-.38.35,5,5,0,0,0-1.37,1c-.16.16-.28.23-.35.23l-.44.5a.86.86,0,0,1-.3.06s-.06,0-.06.06a.44.44,0,0,1-.29.28c-.12,0-.17.07-.17.13a.17.17,0,0,0,0,.13s.05,0,.07,0a5.45,5.45,0,0,1,.68-.35.56.56,0,0,1,0,.12,1.57,1.57,0,0,1,0,.16.32.32,0,0,0,.1.19l-.17-.06a.54.54,0,0,0-.37.13.38.38,0,0,0-.13.25l.06.06-.24-.06c-.15,0-.27.1-.35.3h-.17l.11.29c0,.2,0,.29-.09.29-.39,0-.58-.09-.58-.26v0a1.4,1.4,0,0,0-.24-.29.81.81,0,0,1-.41-.62c0-.31.33-.56,1-.76a7.26,7.26,0,0,1,2.17-1.52.56.56,0,0,0,.2,0l-.11-.15c0-.12.17-.28.51-.5a4.87,4.87,0,0,0,.75-.55l1-.91a23.62,23.62,0,0,0,3.66-4.22,14.22,14.22,0,0,0,1.73-3.66,5.94,5.94,0,0,0,.38-1.82c0-.08-.07-.13-.2-.15a8,8,0,0,0-2.08.74l-1.09.35q-2.86.7-8,5.39l-2.73,2.58-.58.64a3.12,3.12,0,0,1-.53.56c-.53.27-1.29,1.47-2.29,3.6-.37.8-.61,1.36-.73,1.67a9.85,9.85,0,0,0-.35,2.4,5.16,5.16,0,0,0,.59,2.6,6.3,6.3,0,0,0,1.42,1.75A16.49,16.49,0,0,0,85.72,31a4.39,4.39,0,0,1,1.41,1.26c0,.14.37.41,1.05.82a15.6,15.6,0,0,1,7,8.11,20.46,20.46,0,0,1,0,2.06Q91.91,47,82.62,49.84c-.26,0-.5.09-.72.14l-.59.15a.67.67,0,0,0-.3.12h-.09a3,3,0,0,1-.68.09c-.62.15-1.17.31-1.64.46l-.85.12-.26-.06a.6.6,0,0,0-.32.06A.37.37,0,0,1,77,51l-.26-.06A7.91,7.91,0,0,1,75.91,51Zm-3.4-3.19c.14,0,.2,0,.2-.12s0-.06-.17-.06-.18,0-.18.12S72.41,47.85,72.51,47.85Zm1.85.55a14.32,14.32,0,0,0,2.18-.28,7.74,7.74,0,0,0,1.71-.39l.91-.24a27.9,27.9,0,0,1,2.93-1,3.78,3.78,0,0,0,1.79-.82,1.24,1.24,0,0,1,.32-.21c.39-.17.59-.33.59-.47s-.1-.13-.3-.23-.1,0-.13.12a1.3,1.3,0,0,1-.31.35,12.21,12.21,0,0,1-3.37,1.32l-3,.79a12.55,12.55,0,0,1-1.67.38,16.23,16.23,0,0,1-2.52.32c-.61.08-.91.15-.91.2A6.93,6.93,0,0,0,74.36,48.4Zm.14,1.5a5.87,5.87,0,0,0,1.2-.06,1.49,1.49,0,0,1,.5-.06,1.29,1.29,0,0,1,.38-.12,7.22,7.22,0,0,1,1.26-.12l.16-.07a.72.72,0,0,1,.28,0,24.73,24.73,0,0,0,5.13-1.56A22.09,22.09,0,0,0,87.86,46c.51-.23.76-.38.76-.44s-.06-.06-.17-.06l-.3.13a3,3,0,0,1-.36.14,1.22,1.22,0,0,0-.28.1l-.12,0a.2.2,0,0,0-.14.21c-.32-.24-.47-.42-.47-.56s0-.06.09-.06a2.08,2.08,0,0,0,.43-.12A4.15,4.15,0,0,1,88.65,45l.15.3c.08,0,.12,0,.13-.09a.4.4,0,0,1,0-.12,3,3,0,0,1,.65,0c.41,0,.61-.06.61-.17l0-.06-.36.06c0-.06.16-.2.47-.41S91,44,91,44l-.12-.06-.34.19a.81.81,0,0,1-.45.1c-.16,0-.24,0-.24-.11s.23-.34.68-.65a1.49,1.49,0,0,0,.61-.61c0-.08,0-.13.08-.14l.11-.07.25-.23q.27-.27.27-.33c0-.13,0-.2.13-.2s.14-.1.16-.29-.08-.36-.23-.36l-.8.36-.17.05-.35.18a1,1,0,0,0-.37.22l-.07.1h.17c.3,0,.44.08.44.24a.36.36,0,0,1-.29.29,1.56,1.56,0,0,0-.44.06,2,2,0,0,0-.7.29q-.24,0-.27-.06a10.72,10.72,0,0,0-2,.74,7.3,7.3,0,0,0-1.81.9s0,.06.15.06a1.08,1.08,0,0,0,.54-.13,1.2,1.2,0,0,1,.57-.13l-.35.26a1.22,1.22,0,0,0-.53.44,2.27,2.27,0,0,1-.61.44,5.29,5.29,0,0,0-.86.5,1.5,1.5,0,0,1-.52.26l-4.22,1.35A26.06,26.06,0,0,1,76,48.4l-.88.12q-.09,0-.09.06l-.47.06c-1.17.07-1.76.17-1.76.29a2.46,2.46,0,0,0,1.2.23,11.55,11.55,0,0,0,2.61-.36c1-.25,2-.51,3-.78A14.16,14.16,0,0,1,83,47.26c.25,0,.39.06.41.18s-.13.13-.4.21l-.86.28a2.6,2.6,0,0,1-.73.15L81.24,48l.18-.12a.15.15,0,0,0,.17-.17c-.1,0-1,.26-2.78.79l-.82.26a3.82,3.82,0,0,1-1.06.15s-.05.1-.05.23a.14.14,0,0,1-.11-.06.17.17,0,0,0-.13-.05l-.79.17a7.71,7.71,0,0,1-1.88.44c-.31,0-.46,0-.46.12a.05.05,0,0,0,0,0,.07.07,0,0,1,.06,0A3.4,3.4,0,0,0,74.5,49.9Zm-1.14-2.17,0-.06-.18-.06-.11.06S73.2,47.73,73.36,47.73Zm.67-.18c.26,0,.38-.06.38-.17l.12.06,1.5-.18.73-.18a2,2,0,0,0,.76-.2,4.35,4.35,0,0,0,1.55-.41l.21,0c.39-.06.58-.15.58-.26l-.06-.06-.38.08a19.46,19.46,0,0,1-2.25.56,9.67,9.67,0,0,1-1.73.35,12.41,12.41,0,0,1-1.25.19.58.58,0,0,0-.33.08A.15.15,0,0,0,74,47.55Zm5.89-25.19c.06,0,.12-.14.18-.41a3,3,0,0,1,.41-1.12l0-.08-.06.05-.06-.05.12-.5a10.27,10.27,0,0,1,1.87-3.55,24.75,24.75,0,0,1,2.49-3.22,43.58,43.58,0,0,1,8-6.59c1-.69,1.55-1.09,1.55-1.2a.34.34,0,0,0-.29-.15,6,6,0,0,0-2.64,1.35A79.78,79.78,0,0,0,85,12.25l-.53.44q-.4.49-.6.69a1.17,1.17,0,0,0-.2.22.14.14,0,0,0,0,.06.34.34,0,0,1-.2.11,7.1,7.1,0,0,0-1.15,1.5.26.26,0,0,1-.17.11,6.79,6.79,0,0,0-.72,1.25,6.15,6.15,0,0,0-.48,1.1,2.06,2.06,0,0,0-.31.63,3,3,0,0,0-.22.69,1.16,1.16,0,0,1-.12.38A5.36,5.36,0,0,0,80,21Zm.24.91s0-.15,0-.44l0-.06Zm0-1a16.29,16.29,0,0,0,1.09-2.55l.38-1c0-.07,0-.11-.09-.11a4.35,4.35,0,0,0-.47.92,4.08,4.08,0,0,0-.41,1.27q0,.15-.06.18A2.91,2.91,0,0,0,80.21,22.24Zm.39,2.4v-.17c0-.26,0-.4-.06-.44s-.06.06-.06.17a1.62,1.62,0,0,0,0,.21.41.41,0,0,0,0,.14l0,.06A.05.05,0,0,0,80.6,24.64Zm.23,21.24c.29,0,.45-.06.47-.17a2.11,2.11,0,0,0-.65.11S80.71,45.86,80.83,45.88ZM81.12,21l.06-.06a.31.31,0,0,0-.12-.23l0,.11A.27.27,0,0,0,81,21,.08.08,0,0,0,81.12,21Zm.35-.5a3.25,3.25,0,0,0,.36-.59,24.35,24.35,0,0,1,1.93-3.13q.76-1.26,6.53-6.59a5.62,5.62,0,0,0,1-.68c.57-.45.86-.72.86-.82l-.06-.05L92,8.7c-.15,0-.24.08-.25.12a.23.23,0,0,1,0,.1l-.12.14c-.25.27-.44.41-.55.41l-.12-.21a8.7,8.7,0,0,1-1.41,1.32c-3.18,2.54-5.08,4.4-5.68,5.6-.1,0-.41.43-.94,1.3A6.27,6.27,0,0,0,82.09,19Zm.27-2.2c.08,0,.12-.08.12-.26A.05.05,0,0,0,81.8,18Zm.29-.49.18-.21c.11-.12.17-.2.17-.26a.05.05,0,0,0-.06-.06c-.09,0-.17.07-.22.2A1.4,1.4,0,0,0,82,17.85Zm.44-.71h.06a2.14,2.14,0,0,0,.26-.37l-.06-.06a.37.37,0,0,0-.2.21.63.63,0,0,0-.09.23Zm1.17,28,.12-.06-.06-.11c-.12,0-.17,0-.17.08Zm.3-29.71.07,0s0-.16,0-.43l-.23.41Zm5.94,27q.12,0,.12-.18l-.18.12A.05.05,0,0,0,89.88,42.34ZM90,21.57a.63.63,0,0,0,.21-.05.67.67,0,0,0,.21-.13,1,1,0,0,0,.14-.13l.06-.09s0-.05.08-.07l.15-.06a1.66,1.66,0,0,0,.32-.18,1.1,1.1,0,0,0,.21-.14.75.75,0,0,1,.2-.15c.16-.1.24-.18.24-.23a0,0,0,0,0,0,0,.8.8,0,0,0-.38.08l-.56.36c-.08,0-.12,0-.12.05v0l-.17.24c-.26.25-.44.38-.56.38h0a.17.17,0,0,0,0,.12Zm.59,23.29s0,0,0-.06,0-.06-.09-.06-.09,0-.09.12Zm.49-1a.87.87,0,0,0,.74-.47V43.3c-.53.26-.79.43-.79.53S91,43.89,91.08,43.89Zm1-.53a.09.09,0,0,0,.06,0l.1-.11a.29.29,0,0,0,.08-.18l-.12.06h-.35Zm-.12-23c.12,0,.24-.14.36-.41v-.06h-.12c-.2.1-.29.21-.29.35ZM92.58,8.5q.12,0,.12-.12l-.12-.06q-.18,0-.18.12l.12.06Zm1.2,34.42.67-.58.12-.24L94.51,42l-.1.06a.22.22,0,0,0-.07.06l-.09.09-.12.13a.86.86,0,0,0-.1.16,1.05,1.05,0,0,1-.15.21C93.81,42.83,93.78,42.88,93.78,42.92Zm.56-1.61s0,0,.07-.1a.62.62,0,0,0,0-.25C94.38,41,94.34,41.08,94.34,41.31Zm.46-21c.06,0,.12-.05.18-.17s0-.12.1-.12a2.38,2.38,0,0,0,.69-.41c0-.08-.15-.15-.44-.23h0v0a.2.2,0,0,0,0,.08.52.52,0,0,0,0,.11.09.09,0,0,1,0,.07c0-.12,0-.18-.11-.18s-.12,0-.12.09v0a.43.43,0,0,1-.06.24.17.17,0,0,0-.12-.06c-.09,0-.17.08-.23.23s.06.06.18.06,0,0,0,.06l0,.17Zm.3-1.84c.11,0,.17,0,.17-.12l-.11-.06L95,18.4ZM95,42.16l.06-.23a.05.05,0,0,0,0,0A.77.77,0,0,0,95,42.16Zm.38-23.29.47-.18-.12-.05a.33.33,0,0,0-.23.11l-.08.06A.07.07,0,0,0,95.42,18.87Zm.53.56a.35.35,0,0,0,.29-.21l-.06-.12a1.31,1.31,0,0,1-.29.17c-.12,0-.18.1-.18.16Zm.47,1.49.11-.06.15-.11C96.52,20.75,96.44,20.8,96.42,20.92Z"/><path class="cls-1" d="M103.74,53.73a.76.76,0,0,1-.32-.11l-.09,0a2.05,2.05,0,0,1-.54-.31,1.27,1.27,0,0,1-.28-.25l0,0a.46.46,0,0,1-.23.12.47.47,0,0,1-.38-.24s-.12-.42-.3-1.2l.18-.82q.5-3,5-12.51c.94-2.09,1.41-3.18,1.41-3.28a2.47,2.47,0,0,0,.2-.41c.1-.23.22-.49.37-.77l.36-.75a3.32,3.32,0,0,1,.21-.47l-.06-.06a.1.1,0,0,1-.07,0,.13.13,0,0,1-.08,0,.22.22,0,0,0-.1,0,.21.21,0,0,0-.07.19l0,.06-.35.06-.09.06a.17.17,0,0,1-.06-.12h-.12c-.15,0-.24-.06-.26-.17a.19.19,0,0,0-.21-.18c-.23,0-.35,0-.35-.06,0-.21,0-.32-.13-.33a.3.3,0,0,1-.22-.17,1.06,1.06,0,0,1-.2-.64c0-.12.06-.18.19-.18s.19,0,.19-.05a3.58,3.58,0,0,1,1.31-.41q.12,0,.12-.21l.18.21c.12,0,.35-.15.7-.44l.73-.53h.18l.12-.06v-.06l-.18.06.26-.32a.58.58,0,0,1,.47-.18c.14,0,.26-.19.35-.58l.11-.12,0-.06,0-.06,0-.07a1.12,1.12,0,0,0,0-.37l.17.12,0-.24a.37.37,0,0,0,0-.11l.08-.12a.69.69,0,0,0,.09-.22c0-.11,0-.21.07-.31h-.06s-.06,0-.06.08a.28.28,0,0,1,0,.13l0,.07a.09.09,0,0,1,0,.05l-.14.2a.6.6,0,0,1-.24.41,1.13,1.13,0,0,0-.23.79l-.06.06a.14.14,0,0,1-.13-.07.42.42,0,0,1,0-.22,1,1,0,0,1,.18-.68l.12-.23a.64.64,0,0,1,.1-.4c.07-.08.13-.13.19-.13s.12-.08.18-.23a.3.3,0,0,0,0-.16s-.07-.05-.15-.05l.18-.12,0,.06s.06,0,.06-.08a3.74,3.74,0,0,1,.12-.56,10.08,10.08,0,0,0,.56-1.26.82.82,0,0,0,.17-.47.23.23,0,0,1,.09-.19.37.37,0,0,1,.19-.09h.13a.24.24,0,0,0-.06-.18.44.44,0,0,0-.11-.09l.26-.54a4,4,0,0,0,.18-.42,6.79,6.79,0,0,1,.29-.82c.08-.16.32-.79.73-1.91a11.56,11.56,0,0,0,.59-1.58.37.37,0,0,0,.06-.15,1.07,1.07,0,0,1,.06-.17.58.58,0,0,0,0-.1.11.11,0,0,1,0-.08l-.41.06-1.26.5a.63.63,0,0,0-.44.12l-.29.11a6.44,6.44,0,0,0-1.26.47,9.25,9.25,0,0,0-1.14.44l-2.11.65a.62.62,0,0,1-.35-.12c-.51-.29-.76-.58-.76-.85v-.12c0-.12-.07-.19-.21-.23a.46.46,0,0,1-.29-.41c0-.24.22-.5.67-.79l.82-.41a.21.21,0,0,0,0,.06l-.06.08a.52.52,0,0,0-.07.15l.17-.12a1.83,1.83,0,0,0,.44-.26,0,0,0,0,1,0,0,.51.51,0,0,1,.32-.12.36.36,0,0,0,.14-.09.29.29,0,0,1,.14-.08,2.14,2.14,0,0,0,.4-.21,2.16,2.16,0,0,1,.83-.41c.15,0,.22-.06.22-.17l.09-.18a.55.55,0,0,1,.41-.23v.11s.05,0,.09-.11c.17-.45.43-.68.76-.68s.29,0,.29-.06a.09.09,0,0,0-.07,0,.09.09,0,0,1-.07,0l0,0h-.07a.07.07,0,0,1-.06-.07h.62a.72.72,0,0,1,.08-.35c.16-.22.29-.33.38-.33a.11.11,0,0,1,.12.12l-.06.06.06.09a.66.66,0,0,0,.18-.09c.1-.06.15-.11.16-.15a.34.34,0,0,0,0-.09l0,0-.26.11-.06-.06.15-.23-.18.09-.15,0-.11.05c0-.06.09-.15.26-.27a4.19,4.19,0,0,0,.88-.55l0,0a.24.24,0,0,1,.15,0,.37.37,0,0,0,.14,0s0-.07,0-.19a.5.5,0,0,0,.35-.14.46.46,0,0,1,.33-.15l.29.06-.12-.18c0-.06.09-.16.26-.31a1.27,1.27,0,0,0,.37-.42,1.25,1.25,0,0,0,.1-.56.77.77,0,0,1,.24-.58l.12-.12a3.74,3.74,0,0,1-.3.56l.24.17-.12.12a.34.34,0,0,0-.18.29c.08,0,.27-.14.56-.42s.44-.48.44-.57a.57.57,0,0,0-.26.17.8.8,0,0,1-.5.29l.17-.29c.08-.29.14-.44.18-.44h.15a.6.6,0,0,0,.41-.23l.17-.47h-.32V9.7a.09.09,0,0,0,0-.07s0-.05.13-.05a.38.38,0,0,0,.25-.11.83.83,0,0,0,.26-.62l.09,0s0,0,.09-.06a1.1,1.1,0,0,0,.16-.32c.07-.17.15-.38.25-.61l-.12-.18c0-.08.06-.15.16-.21a.31.31,0,0,0,.16-.32l0-.11-.09,0-.12,0a.14.14,0,0,1,0-.06l0-.09s.07-.06.15-.06.12-.13.14-.38a2.2,2.2,0,0,1,.15-.67l0-.21c0-.21,0-.33.14-.34s.2-.1.3-.27a.49.49,0,0,1,.47-.27c.05,0,.08.1.08.29l.06.06.18-.06a.66.66,0,0,1,.54.24.51.51,0,0,0,.4.23c.13,0,.2.06.2.16s0,.18.09.19.09.33.09.91,0,1.09-.12,1.15a2,2,0,0,0-.15.58.12.12,0,0,0,0,.09,3.48,3.48,0,0,1-.14.85,8.67,8.67,0,0,1-.41,1.49l-.12.41a2.61,2.61,0,0,1-.18.63,1.42,1.42,0,0,0-.11.46,1,1,0,0,1-.18.47.64.64,0,0,0-.12.38c0,.08.06.11.18.11l.64-.11a3.56,3.56,0,0,1,1.09-.27c.23,0,.35,0,.35-.08s0-.09.15-.09a9.19,9.19,0,0,0,1.11-.24,20.38,20.38,0,0,0,3.19-.79l.27-.06c.84-.19,1.68-.36,2.53-.49s1.35-.21,1.5-.21a7.94,7.94,0,0,0,.95-.12,27.87,27.87,0,0,1,4.36-.44q1.08,0,1.32.33a.33.33,0,0,0,.32.2,1.12,1.12,0,0,0,.22.1,3.12,3.12,0,0,1,.66.52c.31.15.47.3.47.44a.2.2,0,0,1,0,.07.26.26,0,0,1-.09.1.21.21,0,0,0-.07.18l.35.35s-.05.06-.14.06a.27.27,0,0,0-.21.09l-.18.17c-.47.47-.77.7-.91.7l-.12-.05-.05.11a4.2,4.2,0,0,1-.62.53,1.28,1.28,0,0,1-.88.32c-.16,0-.23,0-.23-.11a.27.27,0,0,1,0-.12.5.5,0,0,1,.1-.13.29.29,0,0,1,.22-.08c0-.23-.06-.35-.18-.35a2.47,2.47,0,0,1-.48.28l-.13,0a.27.27,0,0,1-.12,0c0-.07.1-.19.29-.35s.44-.41.44-.47l-.11.06c0-.12.12-.3.38-.56a.38.38,0,0,0,.2-.29c0-.08-.12-.12-.35-.12s-.56,0-1.16.11l-1.8.19-1.05.17a10.85,10.85,0,0,0-1.88.33l-.35.29s-.06,0-.06-.09,0-.09-.06-.09l-.32.24-.06-.06a.17.17,0,0,0,.06-.12.67.67,0,0,0-.23,0l-.15,0a.9.9,0,0,0-.32.18,1.69,1.69,0,0,1-.5.08,1.56,1.56,0,0,0-.82.21l-.06-.06-.23.12-.09-.06-.18.17s0,0,0-.11a.2.2,0,0,0-.14-.06.36.36,0,0,0-.3.17l-.17.06-.24-.06s-.06,0-.06.08-.06.09-.2.13l-1.44.47a5.59,5.59,0,0,1-1.26.35,5.86,5.86,0,0,0-1.26.29l-2.08.74c-.5.15-.81.35-.9.58s-.44,1.12-1.09,2.9l-.12.12,0-.06s-.08.09-.12.26a10.07,10.07,0,0,1-1.2,3.23,2.28,2.28,0,0,0-.35.88c0,.15,0,.23-.06.23h0a1.88,1.88,0,0,0-.29.67,0,0,0,0,0,0,0c-.47,1.37-.72,2.06-.74,2.07s0,0,0,0l0,0a.64.64,0,0,0-.15.34.48.48,0,0,1-.18.31c-.08,0-.11,0-.11.08s.05.09.17.09l-.06.27s0,.05.06.05a42.73,42.73,0,0,0,4.6-1.23c.7-.19,1.48-.37,2.32-.52.58-.12,1.17-.26,1.75-.41a28.84,28.84,0,0,1,3.11-.56,17.63,17.63,0,0,1,2.75-.18,5.51,5.51,0,0,1,2.41.38L132,26a.21.21,0,0,1,.12.2l.14.06c.26,0,.39.08.4.22a.56.56,0,0,0,.1.33.29.29,0,0,1,.09.13.09.09,0,0,0,0,.06s0,0,0,.08a.43.43,0,0,1-.12.11.61.61,0,0,1-.28,0q-.67-.06-1.32-.06a27.52,27.52,0,0,0-5.74.7c-2.26.51-4.32,1-6.15,1.53a12,12,0,0,1-1.26.29.89.89,0,0,0-.4.13,4.62,4.62,0,0,1-1.18.31,6,6,0,0,0-1.09.25,1.46,1.46,0,0,1-.25.13l-.24.09-.68.29a1.5,1.5,0,0,0-.32.1c-.1.05-.15.1-.15.14s-.06.06-.17.06l-.06,0a1.83,1.83,0,0,0,0,.5c0,.39-.1.6-.29.62s-.12,0-.12.09.06.08.17.08a1.13,1.13,0,0,0-.23.79q0,.36-.12.36c-.08,0-.11.09-.11.29v.12a2.94,2.94,0,0,1-.62,1.7.44.44,0,0,0-.23.35c.07,0,.11.08.11.23l-.06.12h0a1.08,1.08,0,0,0-.12.5.05.05,0,0,1-.06.06l-.12-.06a.8.8,0,0,0,.08.16,1.15,1.15,0,0,1,0,.42.2.2,0,0,0,0,.08s0,0-.08,0l-.11-.12-.06.06.06.24a.52.52,0,0,1-.12.38.7.7,0,0,0-.24.52c0,.2,0,.32-.14.36a3.8,3.8,0,0,0-.62,1.49l-.2.61-.12.06-.06.18.12-.12a10.78,10.78,0,0,1-.73,2c-.24.47-.43.88-.59,1.23-.37.86-.61,1.29-.73,1.29l-.06,0-.18.46v0c-.13,0-.23.09-.29.29a.09.09,0,0,1,.07,0l.11,0a.07.07,0,0,0,.06-.07q-1,2.46-1.32,2.46s0,0-.06.06a10.79,10.79,0,0,1-.85,1.93,10.09,10.09,0,0,0-.65,1.34.21.21,0,0,1-.11.17l-.27.16a.5.5,0,0,1-.11.27l-.27.26c-.1.08-.14.15-.14.21l.11.23a.36.36,0,0,1-.29.29ZM102.1,52.3l.06-.06v-.12c.17,0,.26,0,.26,0l0-.08a1,1,0,0,1-.14-.56l.11-.24s.06.06.06.18l-.06.35s0,.06,0,.06.21-.14.21-.41-.06-.35-.18-.35,0-.06-.06-.18a2.28,2.28,0,0,1,.18-.85c0-.27.08-.42.12-.44a1.09,1.09,0,0,1,.35,0,.22.22,0,0,0,.23-.17,2.79,2.79,0,0,0,.06-.73l.06-.15v-.15s0-.06.15-.06a.36.36,0,0,0,.17-.32l-.06-.47.18.18s0-.09,0-.26,0-.44.09-.44a.32.32,0,0,0,.14,0,.36.36,0,0,0,.13-.12.29.29,0,0,0,.08-.18.67.67,0,0,1-.18-.46l.18.11.11-.17s0,0-.08-.06-.09-.05-.09-.09,0-.09,0-.09a.55.55,0,0,1,.26.06v-.12s.06-.11.16-.22.16-.18.16-.22l-.14-.29c0-.1.06-.17.19-.22s.19-.12.19-.2a.58.58,0,0,1,.12-.31,1.31,1.31,0,0,0,.23-.59.51.51,0,0,0,0-.22l0-.07,0-.06a.8.8,0,0,1,.3.06l0-.06-.11-.32.23.09-.06-.27a1.39,1.39,0,0,1,.3-.67.83.83,0,0,0,.2-.41.23.23,0,0,1,.09-.21c.06,0,.09-.13.09-.27a.5.5,0,0,1,.17-.38.52.52,0,0,0,.18-.4l-.06-.35c.18,0,.66-.82,1.45-2.46a23.53,23.53,0,0,0,1.19-2.64l.35-.73c.17-.35.29-.61.35-.78a3,3,0,0,1,.23-.48,1.32,1.32,0,0,0,.19-.38.51.51,0,0,1,.12-.22.29.29,0,0,0,.07-.22c0-.08,0-.12-.05-.12-.28,0-.7.65-1.26,1.93q-.18.36-.33.36c-.09,0-.14,0-.14,0s0,.18-.06.18v-.38s0,0,0,0a.11.11,0,0,1,0,0s0,0,.08,0l.11.12s.07,0,.14-.13a1.37,1.37,0,0,0,.16-.32,1.16,1.16,0,0,0,.06-.34.41.41,0,0,1,.13-.29,2.86,2.86,0,0,0,.22-.3.72.72,0,0,0,.08-.38c0-.06,0-.09,0-.09s-.27.27-.62.79l.06.18a.05.05,0,0,1-.06.06c-.12,0-.17.12-.17.35H109l-.29.56-2,4.13Q103,46.15,102.54,49l-.06.35c-.21.82-.32,1.26-.32,1.32a.66.66,0,0,1-.09.26.79.79,0,0,0-.09.35,1.21,1.21,0,0,1,.06.54C102,52.14,102.06,52.3,102.1,52.3Zm.56-1.7s.09-.11.17-.32l.18-.44-.06-.06c-.12,0-.18,0-.18.13a.4.4,0,0,1-.11.26.41.41,0,0,0-.12.25Zm.58-.06.27-.35a1.6,1.6,0,0,0,.2-.63.67.67,0,0,1,.24-.5c.13-.11.2-.19.2-.25l-.12-.17a.18.18,0,0,1,.11-.19.48.48,0,0,0,.16-.31c0-.08,0-.12,0-.12s0-.14,0-.41l-.38.94A13.66,13.66,0,0,0,103.24,50.54Zm1.44-.18a5.91,5.91,0,0,0,.54-.74,6.56,6.56,0,0,0,.69-1.22,6.55,6.55,0,0,1,.42-.91,3.19,3.19,0,0,0,.35-.73.67.67,0,0,1,.09-.23,1.07,1.07,0,0,1,.37-.18.12.12,0,0,1,0-.09.05.05,0,0,0-.06-.06l-.09,0a.24.24,0,0,0,.24-.2,1.18,1.18,0,0,1,.3-.42,1.19,1.19,0,0,0,.25-.88s0-.06.15-.06.15,0,.15-.06l-.12-.11a.65.65,0,0,1,.2-.37c.14-.15.21-.25.21-.31l.85-1.84s.06-.07.12-.21a1.76,1.76,0,0,0,.29-.82l-.12-.17,0,0a.12.12,0,0,1,.09,0,.29.29,0,0,0,.15-.06,18.26,18.26,0,0,0,.87-2,16.53,16.53,0,0,0,1.26-4.07H112a2.12,2.12,0,0,0,.12-.68c.08-.31.18-.49.32-.53s.06,0,.06-.05l-.06-.15a.29.29,0,0,1,.09-.21,2.34,2.34,0,0,0,.26-1.11.55.55,0,0,1,.18-.41.05.05,0,0,0-.06-.06s-.1.05-.19.15a1.15,1.15,0,0,0-.22.38,4.93,4.93,0,0,0-.67,1.76c-.1,0-.18.07-.24.2a4.6,4.6,0,0,0-.44,1l-.09.17a.93.93,0,0,0-.29.62c0,.16-.07.23-.15.23a1.2,1.2,0,0,1-.23.53.92.92,0,0,0-.2.41,0,0,0,0,0,0,0,3.39,3.39,0,0,1-.36.65,1.5,1.5,0,0,0-.23.52c-.14.39-.26.62-.38.68l-.06.06.06,0q0,.12-.06.12h0q-.09,0-.09.06l.18.18h-.12c-.15,0-.23.22-.23.67a.94.94,0,0,0-.24-.18l.06.18a.39.39,0,0,1-.09.26c-.15.26-.27.38-.36.38a.38.38,0,0,0-.22.06.11.11,0,0,0,.12.12h0a.29.29,0,0,1-.11.19.27.27,0,0,0-.12.19H108a.05.05,0,0,1,.06.06.11.11,0,0,1-.12.12h-.06a.07.07,0,0,0-.06,0,.17.17,0,0,0,0,.1.12.12,0,0,1,0,.09,2.23,2.23,0,0,1-.46,1.32l0,.06a.42.42,0,0,0-.12.23.34.34,0,0,1-.24.35l-.16.08s-.07.17-.07.44a2.34,2.34,0,0,1-.41,1.07c-.1.15-.16.23-.18.23v-.23s-.1.1-.19.3a1.63,1.63,0,0,0-.13.43.05.05,0,0,0,.06.06.37.37,0,0,1,.07-.14l0,0a0,0,0,0,1,0,0l0-.05h0a16.14,16.14,0,0,0-.82,2.29l-.06.14a6.73,6.73,0,0,1-.36,1.1,4,4,0,0,0-.21.57q0,.18-.12.18s-.08,0-.08.12,0,.11.06.11a1.23,1.23,0,0,0,.27-.29c.25-.33.41-.5.47-.5a2.08,2.08,0,0,1-.24.68A1.1,1.1,0,0,0,104.68,50.36Zm-.24-2.87c.06,0,.13-.05.21-.14a1.33,1.33,0,0,0,.23-.71.2.2,0,0,1,.09-.19.16.16,0,0,0,.09-.16l1.61-3.48a.6.6,0,0,1,.06-.27c.08-.21.15-.32.2-.32a41.25,41.25,0,0,0,1.89-3.76c1.2-2.51,1.8-3.83,1.8-3.94a.67.67,0,0,1,0-.21l.1-.21-.12.33q.12,0,.21-.21c.06-.13.19-.63.41-1.49h-.06a1.47,1.47,0,0,0-.29.55c-.18.43-.34.65-.5.65a.72.72,0,0,1,.06-.29,1.15,1.15,0,0,0,.06-.41l-.35.7s0,.06.11.06.12,0,.12.11a9.61,9.61,0,0,1-.73,1.7l.09.06,0-.06h.12l-.17.12-.15-.06s0,0,0,.12-.09.29-.2.29a.57.57,0,0,0-.33.11.24.24,0,0,0-.14.19l.06.11a43,43,0,0,1-2.32,5.86Zm1-.79-.06-.23-.12-.06a.25.25,0,0,0,0,.07l0,.13A.12.12,0,0,0,105.47,46.7Zm1.67-6.35.15-.12a1.26,1.26,0,0,0,.29-.53Zm.23,6.67,0-.05c0-.1,0-.15-.11-.15a.13.13,0,0,0-.15.15S107.22,47,107.37,47Zm.15-5.09a.89.89,0,0,0,.18-.56.05.05,0,0,0-.06-.06C107.56,41.37,107.52,41.58,107.52,41.93Zm.88-4.22.14-.12a.35.35,0,0,0,.18-.35l-.06-.06Zm.79,5.39a.19.19,0,0,0,.12-.07.27.27,0,0,0,.06-.17l-.06,0-.18.23Zm.06-7.12.12-.06.11-.38c.22-.19.32-.35.32-.47l0-.12q-.15,0-.15.24l-.12.26A1.74,1.74,0,0,0,109.25,36Zm.58-1.2.06,0a.69.69,0,0,0,.27-.53c-.24.16-.36.32-.36.5Zm.21,6.53.06-.12Q110.1,41.31,110,41.31Zm.64-8.23c.12,0,.18-.14.18-.41-.16,0-.24.13-.24.38Zm.44-3.4v-.15l-.2-.08-.06.06a.05.05,0,0,1,0,0,.26.26,0,0,0,0,.07S111,29.68,111.12,29.68ZM111,32.2l.29-.12-.06-.06-.32.12Zm.29,1.38v-.06l-.12-.24a.05.05,0,0,0-.06.06.14.14,0,0,0,0,.06s0,.06,0,.1A.12.12,0,0,0,111.3,33.58Zm0-1c.06,0,.15-.06.26-.17a1.53,1.53,0,0,0,.32-.56l0-.12c-.12,0-.26.15-.41.44l-.18.29Zm.06.53c.08,0,.11,0,.11-.12s0-.06-.08-.06-.09,0-.09.15Zm.06-5.51.17-.35s-.08,0-.12.12A.59.59,0,0,0,111.42,27.63Zm.17-11.22a.84.84,0,0,0,.35-.12,2.88,2.88,0,0,0,.68-.41c0-.08.26-.34.77-.8s.78-.74.78-.84a2.06,2.06,0,0,1-.41.29,4.8,4.8,0,0,0-1.2.8,4.88,4.88,0,0,0-1,1Zm-.06,13.15c.06,0,.14,0,.24-.17a2.05,2.05,0,0,0,.41-1,8.82,8.82,0,0,1,.85-2l.67-1.26a1.22,1.22,0,0,1,.24-.47l.11-.44a.4.4,0,0,1,0-.15l.22-.32-.12-.23c.12,0,.23-.18.35-.53a1.56,1.56,0,0,0,.06-.44,8,8,0,0,0,1-2.37,20.52,20.52,0,0,1,.79-2,1.54,1.54,0,0,0,.17-.38.12.12,0,0,1,0-.09l0-.27-.06,0a.18.18,0,0,0-.17.13c0,.07,0,.1-.06.1a.31.31,0,0,0-.32.2,2.31,2.31,0,0,0-.36.88l0,.18a2.93,2.93,0,0,0-.5,1.35q0,.28-.12.33a1.55,1.55,0,0,0-.31.5c-.14.31-.25.46-.3.46s-.09,0-.09.14a.17.17,0,0,1-.15.18q-.15,0-.15.06s.05.06.15.06.15,0,.15,0,0,.12-.06.12h0q-.09,0-.15.21l0,0a.05.05,0,0,1,0,0,.17.17,0,0,0,0,.12s-.06.06-.08.06l-.12-.12.18.74-.12.41a.84.84,0,0,0-.18.46l-.5,1.15a3.33,3.33,0,0,1-.29.73.64.64,0,0,0-.12.29,1.1,1.1,0,0,1-.11.35A9.62,9.62,0,0,0,111.53,29.56Zm.53,5.8s0,0,.07,0l.12-.09s.07-.06.07-.1l0-.06q-.27,0-.27.24Zm.12-8.43.14-.09.06-.12s0-.08-.09-.12,0,0,0,.15a.12.12,0,0,1-.09,0,.05.05,0,0,0-.06.06Zm0,2.81c.1,0,.14-.06.14-.18h-.14l-.06.12A.05.05,0,0,0,112.18,29.74Zm.26-3.37.12-.06-.29-.06s0,0,0,0l.06,0A.13.13,0,0,0,112.44,26.37Zm.06-.35.06-.06a.5.5,0,0,1,0-.15s.07,0,.16,0v-.05h0c-.22,0-.33,0-.33.11S112.42,26,112.5,26Zm.29,2.75c.08,0,.16-.06.24-.17a.74.74,0,0,1,.2-.24c.06,0,.09-.07.09-.11l-.06-.21c0-.06.06-.16.19-.29s.19-.24.19-.3,0-.27.15-.3.15-.12.15-.27a1.82,1.82,0,0,1,0-.45c0-.24.12-.35.24-.35l.12.11-.06-.11a2.12,2.12,0,0,1,.22-.78,2.38,2.38,0,0,0,.22-.83.44.44,0,0,0-.12-.19l-.09-.08a.42.42,0,0,1-.17.18l-.12.26a.41.41,0,0,0,.29-.17s.06,0,.06.05a.59.59,0,0,1-.12.42.52.52,0,0,1-.47.35.15.15,0,0,0,.06.11.35.35,0,0,1,.06.24,1.84,1.84,0,0,0-.06.23q0,.15-.06.27c0,.07,0,.11-.11.11l-.06-.17.12-.44-.11.12a.85.85,0,0,0-.11.16.46.46,0,0,0-.08.27s0,.08.12.11a.16.16,0,0,1,.12.16c0,.1,0,.14-.12.14l-.18-.17s0,0,0,.09a.53.53,0,0,1-.06.13l-.06.12s-.09.07-.21.07l.06.09-.06.17a.68.68,0,0,0-.11.3h0l.33-.24a.05.05,0,0,1,.06.06c-.06.08-.14.16-.22.25a.58.58,0,0,0-.17.34.54.54,0,0,1-.32.46.37.37,0,0,0-.26.33C112.56,28.71,112.64,28.77,112.79,28.77Zm0-.58q.12,0,.12-.15t-.06-.12a.21.21,0,0,0-.12,0s0,.05,0,.07S112.71,28.19,112.79,28.19Zm.18-.44.06-.12v-.06q-.18,0-.18.09ZM113.2,32c.08,0,.12-.06.12-.2h-.12l-.11.15Zm.18-8.05.15-.18v-.11h-.06c-.1,0-.15.12-.15.26Zm.32-.59.12-.17a.12.12,0,0,0-.12-.09s0,0,0,0,0,0,0,.06a.18.18,0,0,0,0,.07Q113.58,23.38,113.7,23.38Zm.65-9.26a.11.11,0,0,0,0-.07.15.15,0,0,1,0-.07l0-.09a3.38,3.38,0,0,1,.41-.41c-.64.14-1,.29-1,.47l0,0s0,0,.07.07a.18.18,0,0,0,.15.07Zm-.24,11,.06-.06a.21.21,0,0,0,0-.06.12.12,0,0,1,.05,0,.17.17,0,0,0,0-.12l-.12.06Zm.29,4.19a3.33,3.33,0,0,0,.62-.18,8.46,8.46,0,0,1,1.36-.35c.15,0,.24,0,.27,0l.13-.13.29,0,0-.06.26-.09a3.61,3.61,0,0,0,.76-.23,4.83,4.83,0,0,0-.76.08,12.59,12.59,0,0,0-2.34.56,1.73,1.73,0,0,1-.6.15c-.15,0-.25.08-.31.26ZM115,16.47a2,2,0,0,0,.47-.35l-.06.17a1.69,1.69,0,0,1,.4-.33l.19-.08a3,3,0,0,0,.44-.85s-.06,0-.18-.06-.1,0-.18.12L116,15q-.18,0-.33.3l.06-.06.38-.12a.05.05,0,0,1,.06.06c0,.1-.13.17-.41.23a.58.58,0,0,0-.14.12,3.81,3.81,0,0,1-.66.32c-.4.18-.6.3-.6.35l.05.06c.34,0,.51.08.52.11A.25.25,0,0,0,115,16.47Zm-.44,12.36.27-.06.29-.11.22-.08.17-.06a1.61,1.61,0,0,1,.38-.07,13,13,0,0,0,1.4-.35l4.24-1.26c-.07,0-1.28.32-3.6.95s-3.49,1-3.49,1Zm.62-13.33a1,1,0,0,0,.22-.12.34.34,0,0,0,.19-.29c0-.08,0-.12,0-.13l-.07,0c.25,0,.41,0,.47-.12l.09.06.29-.24v.18c.08,0,.15-.11.2-.32s.12-.34.18-.36.11-.11.15-.29A2.17,2.17,0,0,0,117,13a.11.11,0,0,0,.12-.12,12.35,12.35,0,0,0-2.58,2.23l.38.06a.05.05,0,0,0,.06-.06l-.06-.06L115,15a.71.71,0,0,1,.29.18.22.22,0,0,1-.11.17q-.12.09-.12.12Zm-.5,8.41s0,0,0-.07a.27.27,0,0,1,.19-.05c.1,0,.15-.11.15-.35a.23.23,0,0,0-.12-.23c-.08.15-.13.23-.17.23l-.15.47Zm.2-10.61c.2,0,.3-.06.3-.2a.05.05,0,0,0-.06-.06.37.37,0,0,0-.25.09c-.07.06-.1.1-.1.12Zm.59,8.94v-.12l-.18-.17a.19.19,0,0,1,0,.1.23.23,0,0,0,.06.12s0,0,0,.06Zm-.06-.5.12-.06a.15.15,0,0,0,.12-.16c0-.09,0-.13.08-.13s.09-.08.09-.23-.06-.3-.17-.3-.07.09-.09.27a1.12,1.12,0,0,0,0,.32l.06.06a.11.11,0,0,1-.08,0s-.06,0-.1.06-.06.06-.06.08Zm.41-1s.06-.05.12-.13a.65.65,0,0,0,.09-.37c-.08,0-.12,0-.12,0a.11.11,0,0,1,0,.08l-.12.29v.06S115.74,20.69,115.78,20.69Zm.26-8.47,0,0a.2.2,0,0,0,.11-.07.21.21,0,0,0,.07-.16.4.4,0,0,0-.19.11.25.25,0,0,0-.07.15Zm.47,8.53q.09,0,.12-.15a.17.17,0,0,1,0-.1.26.26,0,0,0,0-.14.17.17,0,0,0-.12.08A.53.53,0,0,0,116.51,20.75Zm.59-5.83.06-.06s0-.06.13-.06.13,0,.13-.06a.11.11,0,0,0-.12-.12.15.15,0,0,1-.1.05s-.08,0-.09.07A.87.87,0,0,0,117.1,14.92Zm.32.29a.15.15,0,0,0,.08-.05.13.13,0,0,0,0-.07.27.27,0,0,0-.06-.17.09.09,0,0,0,0,.05v.09a.17.17,0,0,1-.12,0h-.08v.06A.27.27,0,0,0,117.42,15.21Zm.18-1.14c.11,0,.17-.06.17-.18v-.18l.47-2.22c-.06,0-.17.37-.35,1.11-.08.29-.15.57-.22.82a1.27,1.27,0,0,1-.31.59S117.44,14.07,117.6,14.07Zm-.06,3.66.12-.29a1.3,1.3,0,0,0,.11-.42s0-.05-.06-.05l-.11.05a.94.94,0,0,0-.12.47A.35.35,0,0,0,117.54,17.73Zm1,10.52.36-.21,0,.06.09,0s0-.06,0-.16a.5.5,0,0,0,.29.18.16.16,0,0,0,.18-.12.2.2,0,0,0,0-.07s-.13-.06-.34-.1a.5.5,0,0,0-.29.07,1.06,1.06,0,0,0-.18.13l-.09.09-.06.07A.16.16,0,0,0,118.56,28.25Zm1.32-12.69h.06a.19.19,0,0,0,.07-.06.16.16,0,0,0,0-.11q-.24.15-.24.18Zm.12-1.05q.12,0,.12-.15a.07.07,0,0,0-.05-.07l-.19-.11q0,.33.09.33Zm.06-.62.17-.06.12-.12s0-.05-.12-.05-.23,0-.23.11Zm.58.41.12-.06a1.16,1.16,0,0,0,.35-.16c.06-.05.09-.09.09-.13l.12.06a.35.35,0,0,0,.29.17A1,1,0,0,0,122,14a.88.88,0,0,1,.39-.18q.12,0,.12-.09c0-.05.08-.08.23-.08l.41.11.06.06v-.17l-.06-.06.06-.06.12.06c.14,0,.2,0,.2-.09s.08-.09.22-.09.24,0,.27,0a.39.39,0,0,1,.1-.08.27.27,0,0,1,.12,0l.09,0,.08,0a.27.27,0,0,0,.12,0,.3.3,0,0,0,.28-.12c.05-.07.16-.11.34-.11.35,0,.52,0,.52-.15l.24-.12a.6.6,0,0,1,.28.05l.1.06h.06v-.23l.29.11a2.2,2.2,0,0,0,.51-.08,1.88,1.88,0,0,1,.46-.09l-.91.06a7,7,0,0,1,1-.15.89.89,0,0,0,.58-.21,1.63,1.63,0,0,1,.56,0c.33,0,.51,0,.53-.12s.07-.12.17-.12.21,0,.21.12l.11.06a1.34,1.34,0,0,0,.41-.08.72.72,0,0,0,.33-.16.42.42,0,0,1,.14-.11c.06,0,.09,0,.09.13s0,.14,0,.16h.06v-.12s.06-.06.17-.13l.33-.19,0,.06.06.09a.14.14,0,0,0,.13,0l.29,0v-.06a.08.08,0,0,0,0-.08.25.25,0,0,1-.12-.07l.41.06c.13,0,.2,0,.2,0s0-.07.08-.12a.28.28,0,0,1,.22-.08l.46.24a.05.05,0,0,0,.06-.06c0-.14,0-.21.06-.23l.18.17a.21.21,0,0,1,.2-.23.32.32,0,0,1,.19.07.63.63,0,0,1,.14.12l.05.1a.1.1,0,0,0,.09.06.4.4,0,0,0-.17-.35s.06,0,.2-.05.21,0,.21-.13l-.06-.06-.24.06a2.88,2.88,0,0,0-.85.06,5.87,5.87,0,0,1-1.26.06c.82-.18,1.45-.29,1.88-.35a2.71,2.71,0,0,0,.88-.18s-.06,0-.18-.06l-.7.12-1.93.15a.53.53,0,0,0-.22.11l-.08.09-.06-.06q-.13,0-1.26.18-.58,0-6,1.2-.24.09-.24.21A.17.17,0,0,1,124,13h-.12V13h0l0-.09c0-.13,0-.2-.12-.2a12.27,12.27,0,0,1-1.42.38c-.26,0-.61.12-1,.23a2.6,2.6,0,0,1-.38.12c-.2.06-.29.1-.29.12h.11a11.39,11.39,0,0,1,1.26-.18H122c0,.12-.06.18-.17.18h-.09a2.09,2.09,0,0,0-.85.26q-.21.09-.21.21a1,1,0,0,0-.35-.06c-.11,0-.17,0-.17.11S120.29,14.26,120.64,14.3Zm-.29,1.08a.85.85,0,0,0,.35-.14l.18-.08c.06,0,.09-.05.09-.07h-.21s.09-.08.27-.17h-.15a.25.25,0,0,0-.18.22c0,.08-.13.16-.41.21,0,0-.06,0-.06,0Zm.85-.29.24-.12a.48.48,0,0,0-.3.12Zm.7,11.75.21,0,.18,0,.08,0a.05.05,0,0,0,0-.05l-.11-.06a1.31,1.31,0,0,0-.37,0l-.1,0s0,0,0,0A.15.15,0,0,0,121.9,26.84ZM122,14.92l.27-.12a.6.6,0,0,0-.27.06Zm.68,11.74.9-.06a9,9,0,0,1,1.38-.32c.43-.06.65-.1.65-.14l-.18-.06a1.32,1.32,0,0,0-.56.07,7.25,7.25,0,0,1-1.26.28l-.49.12A1.2,1.2,0,0,0,122.64,26.66Zm.23.56.29-.06-.08-.09a1.59,1.59,0,0,0-.36-.08l0,.11C122.7,27.18,122.75,27.22,122.87,27.22Zm.53-.18c.13,0,.2-.1.2-.32A1,1,0,0,0,123.4,27Zm.56-.11.16-.06c.08,0,.13-.09.13-.15l-.06-.06-.41.12Zm2.4-.85s-.08,0-.24-.06-.2,0-.2.06Zm.41-.12.06-.06h-.12q-.12,0-.12.06Zm.85-.06.17-.06.06-.06c-.23,0-.35,0-.35.12Zm1.14-13.27.12-.06v-.06a.05.05,0,0,0-.06-.06q-.12,0-.12.09T128.76,12.63Zm5.39-.12c.08,0,.12-.06.12-.11h-.12a.18.18,0,0,1-.07,0s-.05,0-.05.06Zm.47-1v-.06a.41.41,0,0,1,.25-.13c.09,0,.13,0,.13-.11s0-.11-.06-.11c-.25.07-.38.21-.38.41Zm.56-.59a1.56,1.56,0,0,0,.64-.18s-.06,0-.18,0l-.82,0s0,.08.09.12A.49.49,0,0,0,135.18,11Zm.29.35.29-.06s0,0,0,0a3.73,3.73,0,0,0-.57,0,.05.05,0,0,0,0,0s0,0,0,0S135.35,11.31,135.47,11.31Z"/><path class="cls-1" d="M138.4,48.14A4.4,4.4,0,0,1,134.94,47a1.61,1.61,0,0,0-.41-.27,4.75,4.75,0,0,1-2.37-2,6.63,6.63,0,0,1-.29-1.64V41.43l0,0,0,.05,0,.06a.59.59,0,0,1,.08.08s.05.06.07.06l.06-.12c0-.09-.06-.21-.1-.35a1.32,1.32,0,0,1-.08-.47l.06-.05s.06,0,.06,0c0,.17,0,.27.06.29a.54.54,0,0,0,.22,0,.15.15,0,0,1,.16.17l0,.09a.67.67,0,0,0,.14.15q.12,0,.12-.09c0-.16,0-.25-.06-.29s-.23-.43-.47-.94l-.05.06.11.61a2.57,2.57,0,0,1-.2-.61c.1-.39.16-.59.2-.59,0,.24.09.35.27.35,0,0,.05,0,.08-.13s.1-.2.18-.34.06,0,.06,0c0,.26.07.39.2.39s.21,0,.21-.06l-.12-.06v0a.24.24,0,0,1,0-.15c0-.21-.07-.32-.2-.32l-.35.32-.06.12-.08,0a.21.21,0,0,1,0-.12.67.67,0,0,0,0-.18,1.62,1.62,0,0,1,0-.19,1.94,1.94,0,0,0,0-.2l.09,0s.06,0,.06,0a.34.34,0,0,0,0,.09.08.08,0,0,0,.08.06s.11-.25.23-.76c.14.47.28.7.41.7s.12-.13.12-.41v-.16c0-.05,0-.07-.06-.07l-.18.23a2.31,2.31,0,0,1,.06-.52l-.06-.06,0,0s0,0-.06.06l-.09.07a3,3,0,0,1,.26-.85.17.17,0,0,1,.18.13,3.67,3.67,0,0,1,0,.61c0,.17.07.27.2.29s.37-.34.47-1l-.23.06v-.17a1.14,1.14,0,0,1,.25-.25c.12-.11.24-.22.35-.34a.66.66,0,0,0,.16-.44.09.09,0,0,0-.06,0l-.09.09a.87.87,0,0,0-.13.19.38.38,0,0,1-.13.16v-.44s0,0-.06,0a.76.76,0,0,0-.23.18v-.24l-.18-.29.23.17-.05-.35a.53.53,0,0,1,.17-.38c.12,0,.18.21.18.62l-.06.06c.1,0,.17-.06.22-.18s.11-.18.19-.18l-.06.18v.29c.1,0,.19-.11.26-.35a3.29,3.29,0,0,0,.12-1l-.06-.18.24.12c.13,0,.23-.17.29-.5a.12.12,0,0,1,0-.09.5.5,0,0,0,.07-.16c0-.09.08-.19.13-.31l.06-.26-.06-.12-.23.06.06-.18c0-.09,0-.14-.12-.14s-.12,0-.12.14l.06.18h-.23l.06.18s0,.07-.12.11-.12.08-.12.12l.06.18h-.12l0,.23q0,1.08-.36,1.08a.26.26,0,0,1-.19-.07.21.21,0,0,1-.07-.16q0-.18.21-.18c.13,0,.2,0,.2-.08l-.06-.27a4.48,4.48,0,0,1,.27-1,2.47,2.47,0,0,0,.17-.71s-.05,0-.1.09-.09.09-.13.09l.06-.18c0-.19-.28-.4-.82-.61a7.49,7.49,0,0,1-2.14-1.45,5.22,5.22,0,0,1-1.44-3.33l-.06-.91a5.77,5.77,0,0,1,.24-1.61,14.17,14.17,0,0,1,.66-2.3c.26-.69.46-1.07.6-1.12s.23,0,.23-.12-.06,0-.17-.06l-.12.06.12-.35a36.26,36.26,0,0,1,2.3-3.69,8.64,8.64,0,0,1,1.24-1.59v.06l-.12.3a1.6,1.6,0,0,0-.17.58h.06c.07,0,.11.07.11.21l-.06.05a.59.59,0,0,0-.08-.11.17.17,0,0,0-.11-.06l-.1,0c-.08,0-.36.32-.85,1a3.33,3.33,0,0,1-.41.61c-.25.41-.38.63-.38.65l0,0,.11-.13a2.16,2.16,0,0,0,.33-.38.48.48,0,0,1,.08-.12c.27-.27.41-.47.41-.58s.12-.29.38-.5a.33.33,0,0,1,.23-.12,2.54,2.54,0,0,1-.58,1.14c-.39.55-.64.82-.74.82s-.14,0-.14.06a.12.12,0,0,0,.09.12,15.54,15.54,0,0,1-.82,1.48.5.5,0,0,1-.4.22c-.15,0-.23,0-.25.12s0,.05.06.05l.15-.05.17.11q0,.12-.06.12h0c-.05,0-.08.06-.08.18s-.05.17-.15.17-.16.23-.25.56a2,2,0,0,1-.18.53l0,.05-.05.06a.69.69,0,0,1-.09.38,3.57,3.57,0,0,1-.32.47h.24a3,3,0,0,1-.24.59H131a4.92,4.92,0,0,1-.09.91,7.75,7.75,0,0,0-.24,2,2.65,2.65,0,0,0,.68,2l-.24-.82.24.06-.15-.15a.76.76,0,0,1-.1-.35,4.58,4.58,0,0,1-.05-.7,5.62,5.62,0,0,1,.08-.92,1.57,1.57,0,0,1,.14-.53l.09-.1.05-.06v-.15l-.18.06a2.63,2.63,0,0,0,.24-.94c.19,0,.29,0,.29,0l-.06-.23a.4.4,0,0,1,.09-.24A.26.26,0,0,1,132,24c.08,0,.12.07.12.08l-.06.47a1.29,1.29,0,0,0-.17.53l-.18.47a6,6,0,0,0-.12,1.46c0,.55.08.82.12.82l.47-.93-.06-.56a.3.3,0,0,0,.26-.12c0-.19,0-.29-.1-.29s-.1,0-.1-.12a.48.48,0,0,1,.09-.25c.05-.08.11-.13.17-.13h.12l-.06-.23a.24.24,0,0,1,.18-.06c.07,0,.11-.06.11-.18l-.06-.47a.24.24,0,0,1,.06-.17l0-.06,0,0,.06.12v.2l.18-.32q.59-1.2,2.52-4.25a31.27,31.27,0,0,1,4.86-5.83,3.75,3.75,0,0,0,.53-.44.07.07,0,0,1,0-.05,4.2,4.2,0,0,1,.37-.36l.73-.64a31.06,31.06,0,0,1,2.81-2.26A2.36,2.36,0,0,1,146,9.88l.17.11-.06-.23c0-.18.18-.38.53-.6s.53-.37.53-.43l.1,0h.13a1.87,1.87,0,0,0,.5-.37,1.3,1.3,0,0,1,.28-.29.43.43,0,0,1,.19-.09l1.35-.7a7.76,7.76,0,0,1,.92-.57l.47-.24.09,0,.14-.12a2.78,2.78,0,0,1,.46-.26l1.32-.59c2-.86,2.95-1.39,2.95-1.61a.05.05,0,0,0,0,0s-.42,0-1.18,0a.44.44,0,0,0-.32-.11q-1,0-4.61,2.13a62.53,62.53,0,0,0-7.61,5.5,43.24,43.24,0,0,0-6.91,7.13q-1,1.5-1.32,1.5l-.12-.12.06-.12a.14.14,0,0,1,0-.06l0-.07.12-.19a1.1,1.1,0,0,0,.26-.35,2.39,2.39,0,0,0,.53-.76l-.06-.09-.17.09.11-.21.12.06a3.12,3.12,0,0,0,.53-.56c.9-1,2.26-2.48,4.1-4.35a27.94,27.94,0,0,1,4.72-4l.73-.49a6.85,6.85,0,0,0,1.29-1,0,0,0,0,0,0,0h0v0l.11-.09.12-.11.15-.12h-.06a1.4,1.4,0,0,1-.59.23l-.06,0,.36-.41h-.06a7.68,7.68,0,0,0-1.67,1.11,4.35,4.35,0,0,1-1,.79,4.54,4.54,0,0,1-1.07.61q-.15,0-.15.12c0,.28-.33.59-1,.94a1.38,1.38,0,0,1-.49.2s.15-.22.46-.49l.33-.33a.3.3,0,0,0,.08-.2c-.11,0-.35.16-.7.47s-.44.38-.44.5v0l.12.08h0a.42.42,0,0,1,0,.18l-.24-.12a2.34,2.34,0,0,0-.82.53,25.8,25.8,0,0,0-3,3q-1,1.2-1.26,1.2c0-.39,1.34-1.77,4-4.13l2.2-1.91,0-.11c0,.19,0,.29.12.29a3,3,0,0,0,.79-.56c.14-.13.35-.32.65-.55.13-.08.2-.15.2-.21a.57.57,0,0,0-.13.07l-.66.4-.61.38-.18.09c0-.12.52-.54,1.55-1.26.51-.37,1.18-.87,2-1.5a3.75,3.75,0,0,1,2.1-.93,1.79,1.79,0,0,0,.39,0,1,1,0,0,0,.13-.18.17.17,0,0,1,.11-.1,4.12,4.12,0,0,0,.49-.19c.58-.25,1.55-.65,2.9-1.17a27.33,27.33,0,0,1,9.84-2.14q4.6,0,6.71,2.84a10.36,10.36,0,0,1,1.88,6,2.24,2.24,0,0,1-.82,2.08h0c-.16.13-.24.21-.24.23s.07.13.21.21.09,0,.09.05l-.06.12a.21.21,0,0,0-.24.24v.17l-.17-.06s0,0-.05.06a.87.87,0,0,0,0,.18l0,.06a2.36,2.36,0,0,1-.05.35,3.42,3.42,0,0,0,0,.44l.06.47a11.16,11.16,0,0,1-.53,1.75,2.77,2.77,0,0,1-.14.38l-.47,1.35c0-.15,0-.3,0-.42s0-.25,0-.35a2.66,2.66,0,0,1,0-.3,1.13,1.13,0,0,0,0-.25,2.5,2.5,0,0,1,0-.25,1.72,1.72,0,0,1,0-.24.86.86,0,0,1,0-.33.12.12,0,0,1,.09,0,9.36,9.36,0,0,0,.32-1.72l.32-1.44a3.33,3.33,0,0,1,.17-.7l0-.09a.14.14,0,0,0,0-.06v0h0v0a.78.78,0,0,0,0-.22.61.61,0,0,1,0-.17.47.47,0,0,0,0-.16c0-.06-.06-.09-.08-.09a1.47,1.47,0,0,0-.06.42,2.12,2.12,0,0,1-.13.63,2.24,2.24,0,0,0-.13.63,28.45,28.45,0,0,1-.75,2.76c-.5,1.69-1.15,3.57-2,5.64a28.75,28.75,0,0,1-2.73,5.33,4.61,4.61,0,0,0-.79,1.43.11.11,0,0,0,.12.12,1.6,1.6,0,0,0,.32-.06l-.06.12a1.35,1.35,0,0,1-.73.23h-.47s-.06.05-.06.13,0,.15-.06.17l-.1.05-.15.08a.59.59,0,0,0-.19.13q0,.53-5.15,5.45Q151,39.58,151,39.61a.36.36,0,0,1-.07.09h-.12c-.17,0-.51.25-1,.73a1.33,1.33,0,0,0-.22.15.24.24,0,0,1-.14.06s-.09,0-.16.13a.4.4,0,0,0-.1.25l.06.17-.18,0c-.07,0-.11,0-.11,0v0a.09.09,0,0,1-.06,0q-.3,0-.3.15c-.05.12-.1.19-.14.2l-.08,0-.1,0v0l.27.12s0,0-.09,0h-.09a1.06,1.06,0,0,0-.67.15.59.59,0,0,0-.18.49l-.12-.06c-.09,0-.23.09-.41.27,0,0,0,0-.07,0a.27.27,0,0,1-.19.05l-.06.11q0,.27.24.27a4.58,4.58,0,0,0,1.75-.91,105.37,105.37,0,0,0,10-8.42,26.2,26.2,0,0,0,3-3.39c.1-.17.19-.26.26-.26s.2-.14.36-.41l.17-.24c1.53-2.52,2.46-3.78,2.81-3.78l-.11-.2A4.79,4.79,0,0,1,166,24a2.37,2.37,0,0,0,.29-.47.41.41,0,0,1,.1-.31,1.25,1.25,0,0,0,.19-.54c.06-.2.12-.38.18-.56a.63.63,0,0,1,.23-.35q.12,0,.12.15a4.62,4.62,0,0,1-.53,1.52l-1,2.2a10.88,10.88,0,0,0-.59,1.26c0,.08,0,.11.12.11a.56.56,0,0,0,.53-.38,5,5,0,0,1-.18.62,2.09,2.09,0,0,0-.06.47c.08,0,.18-.17.29-.5a.3.3,0,0,1,0-.1s0,0,0,0a.12.12,0,0,0,.09,0,.05.05,0,0,1,.06.06.12.12,0,0,0,0,.09A49,49,0,0,1,151.38,43c0,.18-.1.26-.3.26a34.41,34.41,0,0,1-7,3.62A17.1,17.1,0,0,1,138.4,48.14Zm-7.18-21.36.06-.12a.29.29,0,0,0-.06-.17l-.06.11Zm.76-2.93a.56.56,0,0,1-.35-.15.08.08,0,0,1-.06-.08l.06-.06.18.06.11-.06-.11-.24c.09,0,.2-.09.32-.29A2.46,2.46,0,0,0,132.6,22l-.06-.21c0-.08.11-.2.32-.38s.32-.3.32-.37a.38.38,0,0,1,0-.16c.06-.15.13-.23.21-.23h.12l.14.15a1.51,1.51,0,0,1-.06-.41.12.12,0,0,1,.09,0h.1s.05,0,.05.08a1.6,1.6,0,0,1-.09.53c-.14.39-.25.59-.34.59a.54.54,0,0,0-.25.06l.06.17a2.15,2.15,0,0,1-.44.94,1.65,1.65,0,0,0-.26.44C132.44,23.61,132.26,23.85,132,23.85Zm.44,18.31V42.1c0-.07,0-.11-.12-.11s-.2,0-.2,0l.26.12Zm.06,2.29s.06-.05.06-.15l-.44-2c0,.33.07.68.09,1a3,3,0,0,0,.14.83l.06.12Q132.45,44.45,132.48,44.45Zm-.18-15.68q.18,0,.3-1.08s0,0-.09.06a1.69,1.69,0,0,0-.26.85C132.25,28.71,132.27,28.77,132.3,28.77Zm.18-8a.24.24,0,0,0,.16-.05.25.25,0,0,0,.07-.21l-.11.06-.13,0s-.05-.06-.05-.16h-.06v.33Zm.29,19.93c.1,0,.2-.21.3-.62q0-.06-.12-.06c-.06,0-.11.06-.16.18a.89.89,0,0,0-.08.35Zm0-20.78.47-.73c-.08,0-.15.05-.23.15A1.25,1.25,0,0,0,132.77,20Zm.12,17.64v-.06a.23.23,0,0,1,0-.11s0-.07.05-.14l.11-.22s.05,0,.05.06a.43.43,0,0,1-.14.38Q133,37.59,132.89,37.59Zm.29,6.24s.1-.07.18-.2a.2.2,0,0,0,.06-.15A.35.35,0,0,0,133.18,43.83Zm.24-.64a.1.1,0,0,0,.09-.06,3,3,0,0,1,0-.62.44.44,0,0,0,0-.1.09.09,0,0,1,0-.07.09.09,0,0,0,0-.06s0-.06-.11-.06-.21.11-.21.32a1.62,1.62,0,0,1-.06.41A.21.21,0,0,0,133.42,43.19Zm-.12-6v0c0-.19,0-.3.12-.32a.21.21,0,0,1,.14.09l.11.1s0,0,0,.07A.57.57,0,0,0,133.3,37.21Zm.12-9.7.09-.17q0-.21-.15-.24v.35Zm0,8.59.2-.5h0s0,0,0,.09a.39.39,0,0,1-.1.3C133.51,36.06,133.46,36.1,133.42,36.1Zm.2,5.94c.14,0,.3-.13.47-.41l.06-.2-.06-.06a.9.9,0,0,0-.23.18.24.24,0,0,1,.06-.18.62.62,0,0,1,.19-.12c.08,0,.14-.07.16-.11h-.06q-.12,0-.12-.36c.08-.17.16-.26.25-.26a17.27,17.27,0,0,0,1.29-3.09,17.45,17.45,0,0,0,1.16-3.79l-.06-.12c-.12,0-.52.6-1.2,1.79l-.18.49q-1.84,4.94-1.84,6C133.51,42,133.54,42,133.62,42Zm0-2.9v-.2s0,0-.06,0l-.05.12.05.11Zm3.34,6.8.91-.06a8.52,8.52,0,0,0,2.2-.53c.8-.29,1.89-.74,3.28-1.34a5.43,5.43,0,0,1,1.41-.47s0,0,0,.06h.05a.35.35,0,0,0,.12-.24.23.23,0,0,0,0-.11.23.23,0,0,1,0-.09c-.06-.1-.11-.16-.17-.18q7.2-5.16,7.35-5.15l.06.11.09-.06a.33.33,0,0,1,.06-.23,1.69,1.69,0,0,1,.35-.53c.23-.29.37-.44.41-.44s.28-.13.49-.41c.36-.39.59-.58.71-.58l.06.06a6.91,6.91,0,0,1-.91,1l-.88.91a13.08,13.08,0,0,0,1.55-1.3c1-.87,1.66-1.51,2.05-1.92q6.42-7.3,7.56-9.79a4.29,4.29,0,0,0,.53-1.58l-.12-.7a.88.88,0,0,1,.06-.33,1.28,1.28,0,0,1,.35-.64c.08,0,.12.1.12.29a2,2,0,0,1-.06.5.64.64,0,0,0-.12.35.16.16,0,0,0,.18.18c.08,0,.21-.08.41-.25a2.48,2.48,0,0,0,.56-.84l.87-2.37a2.38,2.38,0,0,0,.15-.58c0-.1,0-.15,0-.15a2.05,2.05,0,0,0,.22-.53l.14-.55a34.14,34.14,0,0,0,1.14-7.74,9,9,0,0,0-.32-2.81,7.94,7.94,0,0,0-.88-2c-.37-.59-.68-.88-.93-.88s-.25,0-.27,0a1,1,0,0,0,.18.53,5.09,5.09,0,0,1,.55,2.11,4.56,4.56,0,0,0-4.68-2.93,15.83,15.83,0,0,0-6.49,1.69,42.21,42.21,0,0,0-7.43,4.44,55.76,55.76,0,0,0-7,6,37.2,37.2,0,0,0-5.2,6.56,11.71,11.71,0,0,0-2,5.95,5.46,5.46,0,0,0,.35,1.9,1.28,1.28,0,0,0,.32.44,3.35,3.35,0,0,0,.49.55.86.86,0,0,0,.33.22q.12,0,.27-.3c0-.08.05-.11.09-.11l-.12.41,0,.05.53.12a.59.59,0,0,0,.35.12c.06,0,.1-.06.13-.18a.71.71,0,0,1,.28-.35,1.12,1.12,0,0,0,.44-.73.7.7,0,0,0-.19-.47.66.66,0,0,1-.19-.47.63.63,0,0,1,.07-.23.31.31,0,0,0,0-.12.91.91,0,0,1,.18-.29l.15-.15c.07,0,.11,0,.11.12a1.6,1.6,0,0,1-.13.52,1.72,1.72,0,0,0-.13.56c0,.12.07.18.2.18s.25-.18.38-.53a.57.57,0,0,0,.09-.29.15.15,0,0,0-.17.11q0,.12-.06.12l-.06-.12a.34.34,0,0,1,.1-.2.27.27,0,0,1,.19-.12c.06,0,.18-.09.35-.26s.44-.46.44-.62a22.1,22.1,0,0,1,2.05-3.07,17.47,17.47,0,0,0,1.47-2.23q-.12,0-.12.15v.08s-.05,0-.16,0-.34.22-.69.66a2.9,2.9,0,0,0-.53.78c0,.08-.14.23-.43.47-.47.45-.71.75-.71.89a.42.42,0,0,1-.06.28c-.09.18-.15.26-.17.26a1.51,1.51,0,0,0,.12-.47c-.06,0-.18.16-.36.47a6.2,6.2,0,0,0-.32,1.06q0,.09,0,.09h-.12l.06-.24h-.38l-.06-.12a.35.35,0,0,1,.12-.23l.26-.12a.7.7,0,0,0,.18-.11,7.48,7.48,0,0,1,.85-1.81,6.6,6.6,0,0,1,.76-1c.2-.19.29-.33.29-.43l-.05-.17h.11c.1,0,.36-.25.79-.74a2.53,2.53,0,0,0,.59-1s-.33.3-.94.91l.82-1c.24-.25.6-.6,1.09-1l1.4-1.24a2.75,2.75,0,0,1,.82-.59s0,.06-.08.12a1.14,1.14,0,0,0-.15.17,1.62,1.62,0,0,0-.38.62l.56-.35a.81.81,0,0,0,.23-.44.67.67,0,0,0-.06-.32.48.48,0,0,1-.06-.21l.59.18v-.12c0-.08.14-.16.44-.24a6.64,6.64,0,0,1,1.84-.2c.37,0,.56,0,.56.06a1.25,1.25,0,0,0-.44,0c0,.1.19.17.56.23,1.77.28,2.95.91,3.51,1.91a2.1,2.1,0,0,1,.33,1c0,.24,0,.35-.12.35l-.21-.11,0,.14a.19.19,0,0,1-.19.21.41.41,0,0,0-.29.23.51.51,0,0,1-.38.27,1.27,1.27,0,0,0-.29.08l0,0s0,0,0,0a.09.09,0,0,1,0-.07s-.08,0-.25,0-.26,0-.3-.09-.07-.09-.09-.09v.12l-.06.06h0l0-.12a1.4,1.4,0,0,0-.29-.24.52.52,0,0,1-.29,0,1.3,1.3,0,0,1,.26-.47,1.69,1.69,0,0,0,.26-.44h0c0,.06-.09.09-.11.09a.26.26,0,0,0-.12.07l-.15.13-.11.09a.45.45,0,0,1-.24.17.28.28,0,0,1-.2.09l-.06-.06c0-.06.1-.17.29-.35a1.67,1.67,0,0,0,.56-.79q0-.18-.12-.18c-.29,0-1,.49-2,1.47s-2.15,2.13-3.34,3.46-2.23,2.59-3.12,3.79a5.73,5.73,0,0,0-1.34,2.51l.06.23a.33.33,0,0,0-.25.12.37.37,0,0,0-.1.2l.06.12a14.92,14.92,0,0,0,2.4.12l2.61,0c1.64,0,2.63-.08,3-.12s1.65-.18,4.13-.53a2.83,2.83,0,0,0,.76-.09l.41,0s0,0,0,.05a.18.18,0,0,1-.07.15.48.48,0,0,0-.1.09l.38-.06c.11,0,.17.05.17.15s-.14.17-.44.17l-.23-.06-.18.06v0h0a.68.68,0,0,1-.26,0l0,.06s-.19.06-.5.06-.26,0-.26.06-.14.06-.43.06a.83.83,0,0,0-.54.11c0,.08-.14.12-.41.12h-.17l.23.12a11.42,11.42,0,0,0,1.58-.14,7.79,7.79,0,0,0,1.58-.35,4.34,4.34,0,0,1,.8-.22l-.24.3s.06.06.18.06.17,0,.17.11,0,.05-.06.09-.13.21-.41.32a2.46,2.46,0,0,1-1.11.44,7,7,0,0,1-1.46.18l-.06.06.06,0a9.25,9.25,0,0,1-1.15.24,35.5,35.5,0,0,1-6.82.67c-.86,0-1.66,0-2.41-.11a12,12,0,0,0-1.75-.21l-.41.06A9.47,9.47,0,0,0,137.64,37q-2.29,5.35-2.29,7.35a1.49,1.49,0,0,0,.43,1.24A1.8,1.8,0,0,0,137,45.94Zm-3.1-25.75s0,0,0,0,0,0-.05-.05a.15.15,0,0,1,0-.11s0-.06.06-.06l.23.12a.08.08,0,0,1-.07.08A.19.19,0,0,0,133.86,20.19Zm-.12,15.17v-.17a1.8,1.8,0,0,1,.21-.44l.08-.1s0,0,.06,0v.06c-.06.16-.12.29-.17.41A1.46,1.46,0,0,1,133.74,35.36Zm.7,4.75-.11-.06a.21.21,0,0,1,.07-.16s.08-.07.1-.07a.05.05,0,0,1,.06.06A.35.35,0,0,1,134.44,40.11Zm-.11,2.34a2.46,2.46,0,0,1,.08-.27l.09-.27a1.8,1.8,0,0,0,.05-.19.85.85,0,0,1,0-.17.57.57,0,0,0,0-.18l-.06-.12a.41.41,0,0,1-.07.11,1.43,1.43,0,0,0-.11.48Zm.23-17.87a1.09,1.09,0,0,0,.23-.41,1.08,1.08,0,0,0,.09-.38.05.05,0,0,0-.06-.06c-.07,0-.16.17-.26.5a.26.26,0,0,1,0,.1.54.54,0,0,0,0,.19A.05.05,0,0,0,134.56,24.58Zm.5,10-.06-.11q0-.21.12-.21a.15.15,0,0,1,.11.06.2.2,0,0,1,0,.09.19.19,0,0,0-.05.1C135.15,34.52,135.12,34.54,135.06,34.54Zm.17-18.13,3.49-3.72.06,0,.06-.05a.38.38,0,0,1,.2,0q.18,0,.21-.09a.56.56,0,0,0,0-.2c0-.08,0-.12.07-.12a.28.28,0,0,0,.13,0l.09,0,.07,0a.32.32,0,0,1,.16,0c0,.1-.2.32-.61.65A40,40,0,0,1,135.23,16.41Zm.65,15.18-.06-.06A1.66,1.66,0,0,1,136,31a4.06,4.06,0,0,1,.38-.72c.15-.22.27-.32.37-.32a.39.39,0,0,1,.12.23,1.1,1.1,0,0,1-.12.41.37.37,0,0,0-.06.21l.29-.15a.13.13,0,0,1,0,.06l-.07.09a.25.25,0,0,1-.15.05h-.12s-.06-.07-.06-.19,0-.18-.06-.18-.09.16-.11.37a2.14,2.14,0,0,1-.12.54A.37.37,0,0,1,135.88,31.59Zm1.52.49c.2,0,.5-.27.91-.82a37.56,37.56,0,0,0,2.46-3.86c.31-.59.47-.9.47-.93s.45-.66,1.35-1.89l1.46-1.93a.05.05,0,0,0-.06-.06c-.17,0-.61.43-1.31,1.28s-1.47,1.84-2.29,3S138.85,29,138.22,30a5.55,5.55,0,0,0-.93,1.83C137.29,32,137.32,32.08,137.4,32.08Zm.35-3.13a.21.21,0,0,1-.23-.24,1.12,1.12,0,0,1,.13-.45,2.64,2.64,0,0,1,.28-.48c.1-.14.18-.21.23-.21s.18.12.18.18a1.1,1.1,0,0,1-.26.52,1.09,1.09,0,0,0-.27.62Zm-.11-.41c.06,0,.13-.08.23-.24l.06-.11-.09,0A.31.31,0,0,0,137.64,28.54Zm.17-1.14v-.12q.12-.24.18-.24a.47.47,0,0,1-.06.3A.17.17,0,0,1,137.81,27.4ZM138.34,17l.15-.09c.15-.1.23-.18.23-.24Zm1.2,7.67.44-.55h.12C140.1,24.2,139.91,24.39,139.54,24.64ZM140,12H140s0,0,0-.11,0-.1-.09-.1l-.06.06h-.2c0-.08.17-.22.5-.41a.86.86,0,0,1,.52-.24.05.05,0,0,1,.06.06c0,.06-.13.15-.33.25s-.31.22-.31.34Zm.7,11.33s-.06,0-.06-.05.14-.27.24-.27l-.06.27h-.09S140.74,23.28,140.74,23.32Zm1.47-10a1.59,1.59,0,0,0,.23-.38.05.05,0,0,0-.06-.06.12.12,0,0,0-.09,0,.52.52,0,0,0-.17.3Zm.06,9.58a5.2,5.2,0,0,0,.82-.73,3.5,3.5,0,0,0,.67-.76l-.06-.06c-.08,0-.22.09-.44.26a8.28,8.28,0,0,0-.79.79c-.23.26-.35.43-.35.5Zm.17-1.26c.08,0,.12,0,.12-.11a.1.1,0,0,0-.09-.06c-.14,0-.2,0-.2.09l0,0A.2.2,0,0,0,142.44,21.68Zm0,24.2a23.64,23.64,0,0,0,3.49-1.26,3.18,3.18,0,0,1,.7-.26,1,1,0,0,0,.4-.18,1,1,0,0,1,.36-.17q.09,0,.09,0c0-.14.22-.27.59-.38.15-.08.62-.36,1.4-.85.47-.28.71-.45.71-.53s0-.12.13-.12a7.07,7.07,0,0,0,1.32-.85c.79-.56,1.67-1.25,2.65-2Q158,36.28,158,35.69q0-.09.15-.09a1.87,1.87,0,0,0,.36,0s.05-.06.05-.17a.72.72,0,0,1,0-.19s.1,0,.28,0L158.7,35H159s.06,0,.06-.16.07-.16.21-.16h.14c.06,0,.1-.06.12-.14a8.3,8.3,0,0,0-1.13.65l-.71.58q-2.7,2.7-10.81,7.71c-.24-.25-.41-.38-.53-.38s-.15,0-.16.13a3.26,3.26,0,0,0,0,.37l-.12-.06a.27.27,0,0,0-.23.15.3.3,0,0,1-.26.14h-.24a.17.17,0,0,0-.06.12l.06.17a.05.05,0,0,1-.06.06,1.81,1.81,0,0,0-.64.15c-.68.31-1,.53-1,.64a6.39,6.39,0,0,0,1-.36c.62-.25.93-.41.93-.49s0-.11.14-.11.28,0,.3.06-.44.34-1.31.68a6.84,6.84,0,0,1-1.59.52v-.06a.17.17,0,0,0,.11-.06l.09-.09,0,0-.06-.06-.07.06-.16.08a.16.16,0,0,0-.12.17.28.28,0,0,1-.07.21c-.05,0-.2.18-.46.39Zm.24-33,0,0c0-.12,0-.18-.17-.18l-.12.06a.19.19,0,0,0,.07.12A.26.26,0,0,0,142.68,12.86Zm.35-.35.23-.11s0-.06-.12-.06a.17.17,0,0,0-.11,0,.15.15,0,0,0-.06.07Zm.44-.35.17-.06c.16-.11.24-.22.24-.32a.05.05,0,0,0-.06-.06Zm.47-3.89a.29.29,0,0,0,.14-.08c.06,0,.09-.09.09-.13L144.11,8,144,8l-.06,0-.06,0a.44.44,0,0,0-.1.12.05.05,0,0,0,.06.06Zm.41-.5.29-.06h-.29Zm2.16,36.12h-.17s0,0,.06-.1.15-.08.35-.08Q146.75,43.8,146.51,43.89Zm1.2-10.55,3.73-.32c-.34,0-1.13,0-2.38.12l-1,.06c-.63,0-.94.07-.94.08Zm-.35-27.13.35,0s0,0-.11-.08a.67.67,0,0,0-.24,0c-.07,0-.11,0-.11.06A.1.1,0,0,0,147.36,6.21Zm.41,2.7.06,0,.06,0,.06-.05,0,0s0,0,0,0h-.24l-.11.12v.06Zm.47-2.46a.24.24,0,0,0-.06-.18.26.26,0,0,0-.11-.08.27.27,0,0,0-.12,0s0,.06,0,.07a.08.08,0,0,1,0,.06s0,.06.09.09Zm.27,1.82.14,0c.37-.14.56-.26.56-.36a.74.74,0,0,0-.22,0l-.21.07-.17.09A.19.19,0,0,0,148.51,8.27Zm.58,24.58a.5.5,0,0,0,.24,0h-.06a.11.11,0,0,0-.08,0l-.11,0a.61.61,0,0,0-.22,0l-.24.06s0,0,0,0l0,0Zm.18-10.43s-.08,0-.12-.09a.29.29,0,0,1-.06-.15.05.05,0,0,1,.06-.06.5.5,0,0,1,.35.18Zm0-16.56a.44.44,0,0,0,.2-.1c.1-.07.15-.13.15-.19v0h0a.4.4,0,0,0-.38.21A.15.15,0,0,0,149.27,5.86Zm.17-.5.15-.05c.19-.1.29-.18.29-.24a.63.63,0,0,1-.2.1A.67.67,0,0,0,149.44,5.36Zm.44,27.49.12-.06s-.09,0-.26-.06-.12,0-.12.06.06.06.17.06Zm1,9.49.12,0,.13-.06.16-.09q.09-.06.09-.12l-.12.05-.16.06a1,1,0,0,0-.22.13Zm.56-3.84.23-.15a.18.18,0,0,0,.06-.14l-.12.06A.21.21,0,0,0,151.44,38.5Zm.11,3.34s.28-.17.76-.5a3.54,3.54,0,0,0,.74-.56l-.27.14C152.69,41,152.27,41.27,151.55,41.84Zm2-1.38.82-.64c.34-.28.5-.44.5-.5s-.31.19-.7.56l-.32.29A1.92,1.92,0,0,0,153.6,40.46ZM155,35.13q-.12,0-.12-.09c0-.15.2-.34.59-.55a.62.62,0,0,1-.18.48A.47.47,0,0,1,155,35.13Zm.47-.64v-.21s0,0,0,0a1.37,1.37,0,0,1,.34,0Zm.55-.44L156,34l.05-.12a9.52,9.52,0,0,1,.91-1c.39-.32.59-.61.59-.88l.23-.21a3.37,3.37,0,0,1-.77,1.29C156.5,33.71,156.18,34.05,156.06,34.05Zm.12,4.27.12-.11.12-.21h-.12a.2.2,0,0,0-.1.13A1,1,0,0,0,156.18,38.32Zm.12-34.57.23-.17-.11-.06a.19.19,0,0,0-.12,0s-.06.06-.06.08Zm1.84,32.64h.06l.09-.05.1-.07.12-.1a.15.15,0,0,0,.07-.12h-.05l-.33.23ZM158.7,31h-.06a5.06,5.06,0,0,1,.35-.53,1.87,1.87,0,0,1,.36-.32.6.6,0,0,1-.11.22,2.59,2.59,0,0,1-.17.25l-.13.15Zm.35,4.48c.45-.29.68-.47.68-.53a.43.43,0,0,0-.3.15Zm.47-5.45a4.29,4.29,0,0,1,.56-.91h.06a.81.81,0,0,1-.12.27l-.12.2C159.75,29.87,159.62,30,159.52,30Zm.53,3.61,0-.06a.11.11,0,0,0-.12-.12q-.12,0-.12.06T160.05,33.64Zm.2,0a.88.88,0,0,0,.36-.21,3.58,3.58,0,0,0,.49-.53.94.94,0,0,0,.24-.46l-.06-.29,0,0a.2.2,0,0,1,.09-.09,3.38,3.38,0,0,0,.55-.7l.15-.32A.05.05,0,0,0,162,31c-.12,0-.41.44-.88,1.32l-.26.47-.41.29a2.34,2.34,0,0,0,.26-.44.37.37,0,0,0,.09-.2c-.16.17-.3.34-.44.51a.72.72,0,0,0-.2.33l.29-.2A1.84,1.84,0,0,1,160.25,33.69Zm.12-4.86a1.09,1.09,0,0,0,.18-.22,1.07,1.07,0,0,0,.06-.45c0-.12,0-.18.17-.18l.06.38C160.84,28.42,160.68,28.58,160.37,28.83Zm.53,1.38v-.12a.5.5,0,0,1,.07-.16.87.87,0,0,1,.13-.19l.06.06Zm0,1.61c.06,0,.24-.16.56-.47s.29-.31.29-.41C161.18,31.39,160.9,31.68,160.9,31.82Zm.5-4.25q-.12,0-.12-.06c0-.11.06-.17.18-.17l0,.06Zm.17-.35h-.06a.42.42,0,0,1,.09-.22,1.71,1.71,0,0,1,.21-.26c.07-.09.13-.14.17-.14a.44.44,0,0,1-.09.27C161.76,27.1,161.65,27.22,161.57,27.22Zm.12,4.8a.74.74,0,0,0,.31-.13,2.78,2.78,0,0,0,.41-.29.46.46,0,0,0,.19-.31.24.24,0,0,0-.18-.06c-.12,0-.17.05-.17.14s-.09.19-.27.3l-.13.06a.93.93,0,0,0-.1.1A.31.31,0,0,0,161.69,32Zm.73-6.12-.06-.06a.14.14,0,0,1,0-.06l.06-.1c0-.05.06-.07.08-.07a.11.11,0,0,0,.08,0l.06.06a.17.17,0,0,1-.08.16l-.1.07A.09.09,0,0,1,162.42,25.9Zm.29,3.9.06,0,.11-.1a.28.28,0,0,0,.07-.16.9.9,0,0,1-.41.11v.06C162.6,29.76,162.66,29.8,162.71,29.8ZM163,31a.32.32,0,0,0,.19-.07.26.26,0,0,0,.1-.22l-.12-.33s.06,0,.18-.05l.2.05.06-.05c-.19-.28-.36-.41-.5-.41a.38.38,0,0,0-.23.08.94.94,0,0,0-.29.5l.06.06c.11,0,.17.05.17.15v.11A.16.16,0,0,0,163,31Zm-.35-5.6a1.05,1.05,0,0,1,.35-.55c.08-.1.15-.15.23-.15s-.09.24-.28.43A1.64,1.64,0,0,1,162.66,25.4Zm.41,3.9c.05,0,.15-.1.29-.29a2.16,2.16,0,0,0,.44-.59c-.16,0-.35.16-.59.47A.68.68,0,0,0,163.07,29.3Zm.29-5q-.12,0-.12-.09l.12-.55c.08,0,.15.09.2.29a.5.5,0,0,1,0,.12.16.16,0,0,0,0,.08Q163.45,24.32,163.36,24.32ZM164,30l.08,0V29.8l-.17.12a1.13,1.13,0,0,1,.06-.36.53.53,0,0,1,.41-.2l-.06-.18a.15.15,0,0,1,.17-.17s.06,0,.06.07,0,0,.12,0a.19.19,0,0,0,.12,0l.07,0s0,0,0,0-.12-.12-.38-.12-.23,0-.23.09,0,.09-.06.09A.17.17,0,0,1,164,29a.22.22,0,0,0-.17-.06.43.43,0,0,0-.3.17l-.14.39a.34.34,0,0,0,.17.32A.43.43,0,0,0,164,30Zm-.21-6.35-.06-.3S163.74,23.42,163.74,23.62Zm.41,4.24c.06,0,.14-.05.25-.16a3,3,0,0,0,.29-.33.53.53,0,0,0,.13-.27l0-.06c-.1,0-.24.14-.41.4a4,4,0,0,0-.27.42Zm.35.85.12-.17.2-.12c.1,0,.16,0,.18.07a.36.36,0,0,0,.06.11,1.79,1.79,0,0,1,.12-.68s-.14-.06-.41-.06v.06s-.05.06-.15.06l0,0c-.25.24-.38.39-.38.47h.06l.23-.18.06.06Zm.12-7.61-.06-.06a.56.56,0,0,1,.12-.34c.08-.11.14-.16.2-.16l-.11.44Zm.38,1.2h-.06a1.46,1.46,0,0,1,.18-.44l.17-.12a.17.17,0,0,1,0,.07l-.05.11a.5.5,0,0,0,0,.13.89.89,0,0,1-.09.16Q165,22.3,165,22.3Zm.23-2.4s0-.08,0-.24l0-.26,0-.09a.42.42,0,0,1,.12-.26A2.08,2.08,0,0,1,165.23,19.9Zm.18-1.09.29-1.37c.53-1.88.81-2.82.85-2.82a18.76,18.76,0,0,1-.52,2.21A10.14,10.14,0,0,1,165.41,18.81Zm.12,7.68q-.12,0-.12-.09l.06-.18a2.84,2.84,0,0,0,.26-.68c0-.09,0-.14,0-.14.26.14.38.31.38.5a.5.5,0,0,1-.22.41A.65.65,0,0,1,165.53,26.49Zm.35.73-.06-.23a.31.31,0,0,1,.23-.3.17.17,0,0,1,.12,0c.06,0,.09-.08.09-.25a.61.61,0,0,1,0-.27h.15l-.06-.12.85-1.55c.11-.08.17-.15.17-.21a6.18,6.18,0,0,1,.41-1.26,4.08,4.08,0,0,0,.21-.56c.21-.5.44-1.07.67-1.69a13.34,13.34,0,0,0,.62-2.67l-.18.32-.06-.26c.06-.51.14-.76.24-.76l.44.11.05,0a.12.12,0,0,0,0-.08.13.13,0,0,0-.1,0l-.21,0c-.1,0-.14-.1-.14-.24a2.31,2.31,0,0,1,.06-.52,1.17,1.17,0,0,1,.13-.55.38.38,0,0,0,.1-.13,2,2,0,0,0,.09-.38,3.36,3.36,0,0,0,.06-.38v0h0V15a1.25,1.25,0,0,1,.11-.52q0-.09,0-.09s.08.2.12.61,0,.65-.06.65v-.06s0,0,0,0l-.05.09a.68.68,0,0,0,0,.26c0,.14,0,.23-.13.26s-.13.09-.13.15l.12.28c0,.09.08.13.14.13,0,.22,0,.55-.08,1a12.36,12.36,0,0,1-.47,2.31A48.79,48.79,0,0,1,165.88,27.22Zm.5-2h-.06l.06-.12s0-.06-.09-.12a.22.22,0,0,1-.09-.17c0-.06.27-.23.82-.5C166.67,24.93,166.45,25.23,166.38,25.23ZM166.49,14v-.18a3.74,3.74,0,0,1,.12-.85.5.5,0,0,1,0-.12s0,0,0,0a4.4,4.4,0,0,1-.07.77A1.18,1.18,0,0,1,166.49,14Zm.36-4.87,0-.29a15.57,15.57,0,0,1-.21-1.79c0-.13,0-.2.06-.2a1.46,1.46,0,0,1,.1.48c0,.27.06.55.09.85s0,.54,0,.72S166.88,9.14,166.85,9.14Zm0,.56-.06-.23q0-.15.06-.15l.05.2A.41.41,0,0,1,166.85,9.7Zm0,.88-.06-.29q0-.12.06-.12l.05.23C166.9,10.52,166.88,10.58,166.85,10.58ZM167.08,24H167l.06-.47L167,23.5l-.17.06a3.61,3.61,0,0,1,.44-.79s-.06-.06-.06-.18a.45.45,0,0,1,.06-.26c0-.06.17-.11.41-.15l.11-.12a.23.23,0,0,1-.2-.08q-.09,0-.09-.18c0-.12.07-.19.2-.22s.21-.07.21-.13,0-.06-.12-.06-.11,0-.11-.09a4.74,4.74,0,0,1,.57-1.57c.38-.77.63-1.15.74-1.15l.06.11a6.7,6.7,0,0,1-.23.88A24.23,24.23,0,0,1,167.08,24Zm0-2.35v-.06a.2.2,0,0,1,.06-.14l.12-.12,0,0,.05.06a.11.11,0,0,1-.05.09A.47.47,0,0,1,167.08,21.68Zm.32-.64-.06-.12a.67.67,0,0,1,.24-.44l.06.06Zm.3-.79-.06-.06q0-.21.06-.24s.05,0,.05.12S167.73,20.25,167.7,20.25Zm.46-5.33,0-.06v-.24h0Zm.06,3.66-.06-.18.06-.12h.06v.18Zm.62-8.47c.13,0,.21-.17.23-.53l-.11.36-.24-.36h-.06a.32.32,0,0,1,0,.14,1.49,1.49,0,0,0,0,.17A.4.4,0,0,0,168.84,10.11Zm-.18,8.35v-.12a9.75,9.75,0,0,1,.21-1.2,11.91,11.91,0,0,0,.26-1.64c0-.13,0-.21-.06-.23s-.29-.26-.29-.35l.06-.06a.26.26,0,0,1,.19.08.3.3,0,0,0,.13.11h.09l.07,0s.05.1.05.24a8.72,8.72,0,0,1-.18,1.31C169,17.86,168.8,18.46,168.66,18.46Zm.53-4.22a.19.19,0,0,1-.12,0,.16.16,0,0,1-.06-.13q0-.12.06-.12c.12,0,.18.08.18.23Zm0-3.66a.45.45,0,0,0,.2-.21s0,0,0-.08l0-.06h-.12c-.08.06-.12.12-.12.17S169.15,10.58,169.19,10.58Zm.06,2.23.17-1-.11-.06q-.12,0-.12.24Zm.06-1.32c.07,0,.11-.08.11-.24l0-.35c-.08,0-.12.16-.12.47Q169.25,11.49,169.31,11.49Zm.11,3.19s0,0,0-.09,0-.13,0-.22a1.32,1.32,0,0,1,0-.3c0-.14,0-.21.08-.22s.12-.17.18-.49a2.34,2.34,0,0,1,0-.38A4.7,4.7,0,0,1,169.42,14.68Zm0,3.17.06-.12c0-.1,0-.16-.11-.18l-.06.06Zm.18-9.58V8.06c0-.25,0-.39-.06-.41l-.06.29a.26.26,0,0,1,0,.11.16.16,0,0,0,0,.08.16.16,0,0,1,0,.08A.09.09,0,0,0,169.6,8.27Zm.44,5.85s-.07-.06-.09-.2a1.12,1.12,0,0,1-.09-.5,1.23,1.23,0,0,1,.3-.91v.79C170.16,13.85,170.12,14.12,170,14.12Z"/></svg>