<?xml version="1.0" encoding="utf-8"?>
<!-- Generator: Adobe Illustrator 24.1.2, SVG Export Plug-In . SVG Version: 6.00 Build 0)  -->
<svg version="1.1" xmlns="http://www.w3.org/2000/svg" xmlns:xlink="http://www.w3.org/1999/xlink" x="0px" y="0px"
	 viewBox="0 0 286.4 282.7" style="enable-background:new 0 0 286.4 282.7;" xml:space="preserve">
<style type="text/css">
	.st0{display:none;}
	.st1{display:inline;stroke:#FFFFFF;stroke-miterlimit:10;}
	.st2{display:inline;fill:#FFFFFF;stroke:#FFFFFF;stroke-width:10;stroke-miterlimit:10;}
	.st3{display:inline;fill:#FFFFFF;stroke:#FFFFFF;stroke-width:9;stroke-miterlimit:10;}
	.st4{display:inline;fill:#FFFFFF;stroke:#F298A5;stroke-width:4;stroke-miterlimit:10;}
	.st5{display:inline;fill:#FFFFFF;stroke:#FFFFFF;stroke-width:7;stroke-miterlimit:10;}
	.st6{display:inline;fill:none;stroke:#FFFFFF;stroke-width:17;stroke-miterlimit:10;}
	.st7{display:inline;fill:#F296A1;stroke:#F296A1;stroke-miterlimit:10;}
	.st8{display:inline;fill:#F296A1;stroke:#FFFFFF;stroke-miterlimit:10;}
	.st9{fill:#FFFFFF;}
	.st10{fill:#F296A1;}
	.st11{fill:#FFFFFF;stroke:#FFFFFF;stroke-width:9;stroke-miterlimit:10;}
	.st12{fill:none;stroke:#FFFFFF;stroke-width:17;stroke-miterlimit:10;}
	.st13{fill:none;stroke:#FFFFFF;stroke-width:14;stroke-miterlimit:10;}
	.st14{display:inline;fill:none;stroke:#FFFFFF;stroke-width:14;stroke-miterlimit:10;}
	.st15{display:inline;fill:#FFFFFF;stroke:#FFFFFF;stroke-width:14;stroke-miterlimit:10;}
	.st16{display:inline;}
</style>
<g id="Layer_2" class="st0">
	<rect x="4.6" y="12.2" class="st1" width="274.4" height="260.1"/>
</g>
<g id="Layer_3" class="st0">
	<path class="st2" d="M153.7,202.7c-0.9,2.4-7.8,4.5-21.5,8.5c-14.7,4.3-22,6.5-27.5,6.7c-9.1,0.4-18-2.5-35.8-8.1
		c-11.7-3.7-17.6-5.6-18.6-8.2c-4-10.3,18.3-36.7,44.8-39.4C127.4,159,157.7,192.1,153.7,202.7z"/>
	
		<ellipse transform="matrix(0.9992 -3.933938e-02 3.933938e-02 0.9992 -4.8855 3.75)" class="st3" cx="92.8" cy="126" rx="27.5" ry="29.5"/>
	<path class="st4" d="M227.4,201c-0.5,2.9-7.5,6.3-21.5,12.9c-14.9,7.1-22.4,10.7-28.3,11.8c-9.7,1.8-19.8-0.1-40-3.7
		c-13.3-2.4-20-3.7-21.5-6.5c-6.2-11.1,12.8-44.4,40.8-51.4C191.2,155.4,229.7,188.4,227.4,201z"/>
	
		<ellipse transform="matrix(0.9871 -0.1599 0.1599 0.9871 -18.7315 28.7342)" class="st5" cx="169.2" cy="130.8" rx="28.5" ry="30.6"/>
	<ellipse class="st6" cx="132.8" cy="152.2" rx="102.5" ry="96.5"/>
</g>
<g id="Layer_4" class="st0">
	<path class="st2" d="M198.3,216.5c-1.1,2.9-9.3,5.4-25.8,10.2c-17.6,5.2-26.4,7.8-33.1,8.1c-10.9,0.4-21.6-3-43.1-9.7
		c-14.1-4.5-21.2-6.8-22.4-9.9c-4.8-12.4,22-44.1,53.8-47.3C166.8,164,203.1,203.8,198.3,216.5z"/>
	
		<ellipse transform="matrix(0.9992 -3.933938e-02 3.933938e-02 0.9992 -4.8369 5.3082)" class="st3" cx="132.5" cy="125.6" rx="33" ry="35.4"/>
	<path class="st7" d="M124.1,170.3c2.4,9.2,4.8,18.5,7.1,27.7c2.1,0,4.2,0,6.2,0c2.4-9.2,4.8-18.5,7.1-27.7H124.1z"/>
	<path class="st7" d="M133.9,173c5.2,0.1,9-1.7,10.7-2.7"/>
	<path class="st7" d="M124.1,170.3c1.7,0.9,5.1,2.6,9.8,2.7"/>
	<path class="st8" d="M128.5,188.2c-3.9,18.2-7.7,36.3-11.6,54.5c12.5,0,25,0,37.5,0c-4.8-18.5-9.5-36.9-14.3-55.4
		c-1,0.6-2.7,1.5-5.1,1.8C132,189.4,129.7,188.6,128.5,188.2z"/>
	<ellipse class="st6" cx="133.4" cy="149.1" rx="102.5" ry="96.5"/>
</g>
<g id="Layer_5">
	<g>
		<path class="st9" d="M137.7,225.4c-10.1,0-21-3.4-40.8-9.7c-11.9-3.8-20.5-6.5-21.5-9c-1.3-3.2,0.1-8.3,3.6-14.1
			c8.5-13.9,28-29,49-31.1c1.7-0.2,3.5-0.3,5.3-0.3c23.9,0,47.6,16.3,58.8,32.4c4.2,6,6,11.5,4.9,14.5c-0.8,2.2-11.4,5.4-24.8,9.3
			c-17.5,5.2-26.2,7.7-32.7,8C138.9,225.4,138.3,225.4,137.7,225.4z"/>
		<path class="st10" d="M133.3,159.7v3c26.1,0,48.7,19,57.6,31.7c2.9,4.1,5.8,10,4.7,13c-1.4,1.9-12.8,5.2-23.9,8.5
			c-17.3,5.1-26,7.7-32.3,7.9c-0.6,0-1.2,0-1.7,0c-9.9,0-20-3.2-40.3-9.6c-7.5-2.4-12.3-3.9-15.7-5.3c-4.3-1.8-4.8-2.7-4.8-2.8
			c-1.1-2.7,0.2-7.5,3.5-12.8c8.3-13.6,27.4-28.4,47.9-30.4c1.7-0.2,3.4-0.3,5.1-0.3L133.3,159.7 M133.3,159.7
			c-1.8,0-3.6,0.1-5.4,0.3c-31.8,3.2-58.7,34.9-53.8,47.3c1.2,3.1,8.3,5.4,22.4,9.9c20.2,6.4,30.9,9.8,41.2,9.8c0.6,0,1.2,0,1.8,0
			c6.7-0.3,15.5-2.9,33.1-8.1c16.5-4.9,24.7-7.4,25.8-10.2C203,196.4,170.2,159.7,133.3,159.7L133.3,159.7z"/>
	</g>
	
		<ellipse transform="matrix(0.9992 -3.933938e-02 3.933938e-02 0.9992 -4.9909 5.55)" class="st11" cx="138.5" cy="129.6" rx="33" ry="35.4"/>
	<ellipse class="st12" cx="134.5" cy="151.2" rx="102.5" ry="96.5"/>
	<line class="st13" x1="139.5" y1="24.1" x2="139.5" y2="77.4"/>
	<line class="st13" x1="261.7" y1="159.1" x2="206.7" y2="158.1"/>
	<line class="st13" x1="63.9" y1="154.4" x2="8.9" y2="153.4"/>
	<line class="st13" x1="135.7" y1="224.6" x2="135.7" y2="277.9"/>
</g>
<g id="Layer_1" class="st0">
	<ellipse class="st6" cx="134.7" cy="154.4" rx="102.5" ry="96.5"/>
	<ellipse class="st14" cx="134.7" cy="153.7" rx="73" ry="68.7"/>
	<ellipse class="st15" cx="135.7" cy="152.9" rx="31.5" ry="29"/>
	<path class="st5" d="M202.4,71.3c2.6-20.3,2.3-36.2,1.5-47.4c-0.4-4.6-0.9-9.6,0.3-9.9c2.7-0.8,11.9,22.1,19.9,43.4L202.4,71.3z"/>
	<path class="st5" d="M217,87.5c16.8-11.9,31.1-19,41.5-23.3c4.3-1.8,9-3.5,8.7-4.9c-0.6-3-25.3-1.4-48,0.6L217,87.5z"/>
	<g class="st16">
		<line class="st10" x1="223.2" y1="60.9" x2="145.2" y2="144.9"/>
		<g>
			<path class="st10" d="M216.2,53.8c-22.8,24.5-45.5,49-68.3,73.5c-3.2,3.5-6.5,7-9.7,10.5c-8.7,9.4,5.4,23.6,14.1,14.1
				c22.8-24.5,45.5-49,68.3-73.5c3.2-3.5,6.5-7,9.7-10.5C239,58.5,224.9,44.4,216.2,53.8L216.2,53.8z"/>
		</g>
	</g>
</g>
</svg>
