<?xml version="1.0" encoding="utf-8"?>
<!-- Generator: Adobe Illustrator 24.1.2, SVG Export Plug-In . SVG Version: 6.00 Build 0)  -->
<svg version="1.1" xmlns="http://www.w3.org/2000/svg" xmlns:xlink="http://www.w3.org/1999/xlink" x="0px" y="0px"
	 viewBox="0 0 286.4 282.7" style="enable-background:new 0 0 286.4 282.7;" xml:space="preserve">
<style type="text/css">
	.st0{display:none;}
	.st1{display:inline;stroke:#FFFFFF;stroke-miterlimit:10;}
	.st2{fill:none;stroke:#FFFFFF;stroke-width:17;stroke-miterlimit:10;}
	.st3{fill:none;stroke:#FFFFFF;stroke-width:14;stroke-miterlimit:10;}
	.st4{fill:#FFFFFF;stroke:#FFFFFF;stroke-width:14;stroke-miterlimit:10;}
	.st5{fill:#FFFFFF;stroke:#FFFFFF;stroke-width:7;stroke-miterlimit:10;}
	.st6{fill:#F296A1;}
</style>
<g id="Layer_2" class="st0">
	<rect x="-276" y="-123.1" class="st1" width="829.5" height="583.6"/>
</g>
<g id="Layer_1">
	<ellipse class="st2" cx="134.7" cy="154.4" rx="102.5" ry="96.5"/>
	<ellipse class="st3" cx="134.7" cy="153.7" rx="73" ry="68.7"/>
	<ellipse class="st4" cx="135.7" cy="152.9" rx="31.5" ry="29"/>
	<path class="st5" d="M202.4,71.3c2.6-20.3,2.3-36.2,1.5-47.4c-0.4-4.6-0.9-9.6,0.3-9.9c2.7-0.8,11.9,22.1,19.9,43.4L202.4,71.3z"/>
	<path class="st5" d="M217,87.5c16.8-11.9,31.1-19,41.5-23.3c4.3-1.8,9-3.5,8.7-4.9c-0.6-3-25.3-1.4-48,0.6L217,87.5z"/>
	<g>
		<line class="st6" x1="223.2" y1="60.9" x2="145.2" y2="144.9"/>
		<g>
			<path class="st6" d="M216.2,53.8c-22.8,24.5-45.5,49-68.3,73.5c-3.2,3.5-6.5,7-9.7,10.5c-8.7,9.4,5.4,23.6,14.1,14.1
				c22.8-24.5,45.5-49,68.3-73.5c3.2-3.5,6.5-7,9.7-10.5C239,58.5,224.9,44.4,216.2,53.8L216.2,53.8z"/>
		</g>
	</g>
</g>
</svg>
