<svg id="Layer_2" data-name="Layer 2" xmlns="http://www.w3.org/2000/svg" viewBox="0 0 147.13 69.96"><defs><style>.cls-1{fill:#fff;}</style></defs><path class="cls-1" d="M17,70h-.2a1.39,1.39,0,0,1-.94-.5,4.51,4.51,0,0,1-.78-1.14,2.88,2.88,0,0,1-.36-1l.06-.29-.12.06c-.12,0-.2-.12-.24-.35a1.45,1.45,0,0,1,0-.44v0h0v-.06l-.2-.5a1.88,1.88,0,0,1-.24-1l.12-.88q0-.12-.09-.12h0c-.15,0-.23-.11-.23-.32a.4.4,0,0,1,0-.21v0h0a3.6,3.6,0,0,0,.55.29.36.36,0,0,0-.07-.1l-.12-.14a.84.84,0,0,1-.07-.46.75.75,0,0,0-.09-.39,1.62,1.62,0,0,1-.09-.7,7.61,7.61,0,0,1,0-.88c0-.25.06-.38.09-.38s.08-.1.16-.29l-.06-.21-.12.09L14,60a.79.79,0,0,1-.29-.06.51.51,0,0,1-.12-.38l.06-.82,0,.35c0,.47,0,.7.15.7s.05-.08.09-.26c0-.41,0-.61.14-.61l.18,0,.06,0v-.53l0,0-.05.08a.33.33,0,0,1-.22.05.55.55,0,0,1-.3-.11c-.11-.08-.17-.16-.17-.24V58c.12.17.21.26.27.26v0h0l.06-.06a1.27,1.27,0,0,0,.41-.12.58.58,0,0,0-.3-.58l.38.12s.06,0,.06,0a3.76,3.76,0,0,0-.07-1l-.12-.22a.22.22,0,0,0-.13-.1h.12c.29,0,.44-1,.44-3.08l-.06-.11.12,0c.07,0,.15-.11.23-.35a14,14,0,0,1,.41-2.17c.12-1,.28-1.65.5-1.78l.17-.27v-.11l-.41.26.06-.2a6.27,6.27,0,0,0,.35-1.21l.56-1.87a23.13,23.13,0,0,1,.7-2.52q.18-.59.24-.6l.09,0s0,0,0,0L17.64,42a.59.59,0,0,1,.11-.2.2.2,0,0,0,.06-.15,33.46,33.46,0,0,1,1.56-4.54q2.22-5.87,2.22-6l-.06-.2a3,3,0,0,1,.44-1.2,2,2,0,0,0,.35-1,.3.3,0,0,0,0-.18,1,1,0,0,0-.31-.14c-.23,0-.38.21-.44.64a1.63,1.63,0,0,1-.23.56.47.47,0,0,0-.12.38q0,.18-.09.18c-.05,0-.08.11-.08.35a.43.43,0,0,1-.15.3.7.7,0,0,0-.15.49l.06.17c-.21,0-.32.31-.32.91,0,.39-.12.59-.35.59s-.18,0-.18.12l.12.35-.15.2a1.05,1.05,0,0,0-.14.53c-.1.39-.18.59-.24.59s-.12.19-.12.39a.58.58,0,0,1-.14.45,3.56,3.56,0,0,0-.41.91c-.06,0-.1.12-.13.34s-.08.35-.14.38l-.1.07,0,.08a.37.37,0,0,1-.06.1.6.6,0,0,0,0,.29l0,.12h-.2l.08.12a2.22,2.22,0,0,1-.13.39,2.54,2.54,0,0,0-.1.25.45.45,0,0,0,0,.13.35.35,0,0,1,0,.12.35.35,0,0,0,0,.13l.06.21s0,0-.1,0a.35.35,0,0,0-.22.11,1.26,1.26,0,0,0-.32.56l.05.06q.18,0,.18-.21l.12-.05.06.05-.24.68a5.2,5.2,0,0,0-.35.94c-.08.29-.19.44-.32.44h0v.05a.36.36,0,0,0-.06.11.69.69,0,0,0,0,.25V43a.38.38,0,0,1-.12.17c-.11,0-.17.08-.17.24a.47.47,0,0,1-.18.23.69.69,0,0,1-.41.09l.32.25c.1.07.15.12.15.16a2.3,2.3,0,0,1-.18.65,2.8,2.8,0,0,0-.23.95c0,.24,0,.36-.07.36s-.11.1-.18.3a5.4,5.4,0,0,0-.19.73c-.18.68-.34,1-.48,1s-.22.07-.22.23a0,0,0,0,0,0,0v.06a0,0,0,0,0,0,0l.23-.24s.06,0,.06,0a11.66,11.66,0,0,1-.32,2,9.11,9.11,0,0,0-.21,1,1.41,1.41,0,0,1,0,.28c-.06.22-.12.32-.17.32s-.06-.07-.06-.23l.06-.79-.06-.18q-.15,0-.3,1.44l-.05.23.41-.23.08.17-.08.39c-.08.46-.16.7-.24.7S14,53.3,14,53.14l.06-.7a14.9,14.9,0,0,0-.28,1.6c-.14,1-.29,2.19-.42,3.62q-.12,1.26-.12,3.6l-.06.82C13.08,62,13,61.31,13,60c0-1,.05-2,.14-3q1.71-13.59,3.7-17.49a2.58,2.58,0,0,0,.32-1.05s.09-.13.14-.32.14-.42.24-.68a11.28,11.28,0,0,1,.94-2.23.46.46,0,0,0,.05-.23s0,0-.07,0l-.1,0a.1.1,0,0,1-.06-.09.09.09,0,0,1,.06-.08,3.82,3.82,0,0,0,.76-1.56,8.62,8.62,0,0,0,.67-1.7c.32-.93.66-1.86,1-2.78l-3.19.41a21.68,21.68,0,0,0-3.9.65.58.58,0,0,1-.35.11c-1.17.1-2.07.19-2.68.28a3,3,0,0,0-1.36.46,1.08,1.08,0,0,1-.53.23l.06-.2-.06,0c-.14,0-.21,0-.22,0a.3.3,0,0,0,0,.14l-.11.18v0h0l0,0a1.84,1.84,0,0,1-.15-.24.27.27,0,0,1-.12-.1A.19.19,0,0,0,8,30.47a.25.25,0,0,0-.21.07l-.08.09H7.62a1.09,1.09,0,0,0-.53.09c-.27.18-.48.71-.62,1.58a1.19,1.19,0,0,1-.14.47.47.47,0,0,1-.47.27H5.71v.06l-.06,0H5.57A.29.29,0,0,1,5.3,33q-.09,0-.09-.09l.06-.06.12.06.06-.06c0-.6.06-.91.19-.91s.19,0,.19,0l0-.05,0-.09.12-.65c0-.19-.18-.29-.53-.29a1,1,0,0,1-.26,0,2.28,2.28,0,0,0-1,.22,1.17,1.17,0,0,0-.61.53,2.74,2.74,0,0,0-.22.91,10.43,10.43,0,0,0-.08,1.3c.24,2.44.49,3.66.77,3.66s.43-.67.73-2,.53-2,.73-2,.29,0,.29,0a.08.08,0,0,1,0-.05l.13-.14H6c.11,0,.17.08.17.24L6,34.13s0,.06,0,.07l0,0,0,0a.75.75,0,0,1,.27,0l.09,0v.08a.16.16,0,0,1,0,.08s0,0,0,0l-.09,0s-.07,0-.07.06h0a.25.25,0,0,0,.09.15v.08c0,.1-.11.17-.32.21q-.06,0-.06,0h0L6,34.72h0l-.09.14L5.77,35a.4.4,0,0,0,0,.16,1.68,1.68,0,0,0,0,.2l.06.12H5.6l-.33.2-.38,0,0,.12a1.25,1.25,0,0,0-.06.44.3.3,0,0,0,0,.16.41.41,0,0,1,0,.09l0,.07s0,0,.07,0L5,36.47,5,36.09A.2.2,0,0,1,5,36,5.24,5.24,0,0,1,6,35.62s.06,0,.06,0,0,.18,0,.19l-.16,0c-.23,0-.35,0-.35.06s.07.12.2.17l.18.15-.26-.06-.06.06a0,0,0,0,0,0,0v.06l.11.17v.09l-.07.12,0,0,0,0,0,0a.14.14,0,0,0,0,.11l.26.56-.06.12c-.09,0-.14,0-.14.11l.06.18v.23l-.12.12a0,0,0,0,1,0,0v-.06h0L5.45,38,5.39,38,5.21,38H5L5,37.91a.11.11,0,0,0-.12-.12h0l0,.06a1,1,0,0,0,.06.35l-.06.06c-.37,0-.55.59-.55,1.76,0,.55.07.82.2.82a1.79,1.79,0,0,0,.18-.29h.06s.07.22.11.67l.12.06.06,0v0A1,1,0,0,0,5,40.84s0,0,0,0l0,0,.09,0a.13.13,0,0,0,.07-.05l0-.23.11-.18a3.25,3.25,0,0,0,.44-1.46c.1-.51.17-.76.21-.76s.1-.07.17-.21a2.12,2.12,0,0,0,.21-.94.62.62,0,0,1,.2-.32c.28-.27.41-.47.41-.58l-.08-.18a.09.09,0,0,1,.07,0H7a.61.61,0,0,0,.09-.22,10.56,10.56,0,0,1,.06-1.32c0-.7.16-1.06.44-1.06.12,0,.17.06.17.18a1.08,1.08,0,0,1,0,.32.47.47,0,0,1-.09.19.24.24,0,0,0-.06.09l0,.07a.13.13,0,0,0,0,.06.77.77,0,0,1,.35-.23A.11.11,0,0,1,8,34a.39.39,0,0,1-.12.27.34.34,0,0,1-.25.14c-.09,0-.13,0-.13,0l0,0a1.4,1.4,0,0,0,.06.41l-.06.09c-.08,0-.12.16-.12.47a3.6,3.6,0,0,1-.14.75c0,.09-.08.15-.1.19a.63.63,0,0,0,0,.32l-.06,0a.31.31,0,0,1-.13,0c-.07,0-.14.09-.2.28a1.56,1.56,0,0,0-.11.57l.12.38s0,0-.09,0-.32,0-.32.09v0a.17.17,0,0,0,0,.08l.06.06a.26.26,0,0,0,.14,0l0,0h0v0c0,.06-.06.12-.17.18a.93.93,0,0,0-.24.38.51.51,0,0,0,0,.17,3.06,3.06,0,0,1,0,.59l-.12.17,0-.05v-.12H6a.78.78,0,0,0-.21.38,0,0,0,0,0,0,0v0l0,0,.07.06s0,.08,0,.2a.84.84,0,0,1-.12.35,1.47,1.47,0,0,0-.22.52c0,.1,0,.16,0,.17l-.41.16.41.12v.06a.65.65,0,0,0-.15.29,2.53,2.53,0,0,1-.32,1,.44.44,0,0,1-.35.23V44a.22.22,0,0,1-.18.08v.35a.59.59,0,0,1-.26.47,1.6,1.6,0,0,0-.35.74,2.21,2.21,0,0,1-.18.8,6.44,6.44,0,0,0-.32,1.38,9.49,9.49,0,0,0-.15,1.42l.06.35a1.49,1.49,0,0,1-.09.47c-.17.41-.33.61-.47.61l0,0,0,0,0,.09a.13.13,0,0,0,0,.06.25.25,0,0,1,0,.07.76.76,0,0,1,0,.11c-.06.13-.12.21-.18.22H2.24a.07.07,0,0,1,0,0v0a0,0,0,0,1,0,0A.15.15,0,0,0,2.15,51,.18.18,0,0,0,2,51l-.26.11A.65.65,0,0,1,1.44,51a1.09,1.09,0,0,0-.62-.27l0,.06.12.18L.79,51H.73a1.74,1.74,0,0,1-.13-.36.5.5,0,0,0-.31-.29l.06.18c0,.13,0,.21-.06.23a4.21,4.21,0,0,1-.06-1s0,0-.11,0-.12,0-.12,0a1.43,1.43,0,0,1,.07-.46.71.71,0,0,1,.27-.35.39.39,0,0,0,.19-.31,1.1,1.1,0,0,1,.32-.7l.23-.67c0-.08.31-1.17.91-3.28a3.92,3.92,0,0,1,.21-.85l.14-.79-.11-.53.07-.09a1.5,1.5,0,0,0,.1-.41A17.17,17.17,0,0,0,2.23,38c0-.08-.17-.86-.38-2.35,0,.16.13.47.23.94a4.66,4.66,0,0,0,.18.65c.05.15.14.23.26.23s.18,0,.18-.15l-.12-.23c-.1,0-.2-.56-.29-1.55l-.06-.12H2.11v0h0l0,0,0,0a4.59,4.59,0,0,1-.11-.57c0-.28-.08-.44-.08-.5v-.05l0,0,.26.06-.06-.12a4.07,4.07,0,0,1-.12-.54c0-.05,0-.07-.08-.07a1,1,0,0,1-.24.2l.12-.85L1.67,32l-.12-.35h0l0,.06c0,.31,0,.5-.14.56a.3.3,0,0,0-.15.29s.05.06.15.06.14,0,.14-.12l-.11-.21.23.21a1.16,1.16,0,0,0-.06.15s0,.12-.07.19a1,1,0,0,0,0,.36,5.1,5.1,0,0,0,.11,1,11.35,11.35,0,0,1,.12,1.84c0,.3-.08.44-.12.44V36.3s0,0-.06,0-.05,0-.05,0a2.41,2.41,0,0,1-.18-.56,18.39,18.39,0,0,0-.35-2.52,10.86,10.86,0,0,1-.18-1.61A1.61,1.61,0,0,1,.82,31a1.71,1.71,0,0,1,1.47-1.47l.35-.06a.12.12,0,0,1-.06.12l-.18.09c-.08,0-.11.08-.11.14l1.25-.23A8.92,8.92,0,0,0,5,29.38c.88-.13,1.36-.29,1.45-.48a12.53,12.53,0,0,0,.48-1.51c.57-2.15.93-3.66,1.09-4.54l.35-1.26a.55.55,0,0,0,.09-.19s0-.18.08-.45c.41-1.55.81-3.3,1.18-5.28a14.11,14.11,0,0,0,.29-2.6Q10,13,9.9,13c-.45,0-.71,0-.79-.12a.85.85,0,0,0-.58.29l-.06,0,.23-.53c.14-.37.3-.56.5-.56s.31-.05.35-.14v-.15l-.32-.29a.07.07,0,0,1,0-.05l0,0h0A.43.43,0,0,0,9.49,11l.06-.12a.4.4,0,0,0,.21,0v0h0v0a.7.7,0,0,1,.11-.44c.06,0,.15-.15.27-.44a5.44,5.44,0,0,1,.38-.82,1.2,1.2,0,0,0,.28-.35A.69.69,0,0,1,11,8.53.6.6,0,0,0,11,8.31a2,2,0,0,1,.08-.4.88.88,0,0,0,.12-.5.22.22,0,0,1,.06-.17c.19,0,.29-.23.29-.68l-.06,0a.48.48,0,0,0-.29.12,0,0,0,0,1,0,0V6.56a.46.46,0,0,1,0-.2A.41.41,0,0,1,11.34,6l0,0,0,0a1.32,1.32,0,0,0,0-.35l0-.06a1,1,0,0,1,.71-.18l.7.18a.78.78,0,0,0,.22,0,2.25,2.25,0,0,0,.4-.21c.07,0,.11,0,.11.12l-.06.12c0,.08.1.11.3.11a1.39,1.39,0,0,1,.77.18,1.77,1.77,0,0,1,.55.67,1.05,1.05,0,0,1,.17.65L15.23,8.7c-.35,2.34-.52,3.64-.52,3.9a35,35,0,0,0-1.06,3.81q-2.37,9.57-3,9.9c-.17.14-.26.24-.26.32l.06.12-.12.44s0,0,.12,0,.32,0,.32.11l-.26.21-.29.06c-.24,0-.36-.11-.36-.32v-.41a.3.3,0,0,0-.17.05c0,.34-.08.5-.24.5a.55.55,0,0,1-.14-.26l0-.29,0-.12a1.19,1.19,0,0,1,.11-.41,1.77,1.77,0,0,1,.18-.62c0-.11,0-.17.09-.17l.06.06L9.73,26a1.07,1.07,0,0,0,.08.41.52.52,0,0,0,.18.35c.06.1.11.14.15.14l.06,0v0a.54.54,0,0,0-.09-.33l-.18-.11-.06-.06a0,0,0,0,1,0,0H10a.11.11,0,0,0,.12-.12l0-.5,0-.06h.06l.11-.05c0-.26-.05-.4-.17-.41l-.24.11-.05-.06a.22.22,0,0,1,0-.11.61.61,0,0,0,0-.12A.08.08,0,0,1,9.93,25,.19.19,0,0,0,10,24.9L10,24.7h.12c.08,0,.14-.16.19-.49s.12-.51.22-.57.13-.05.17-.14l0-.06v-.06l-.26.06v0h0l-.06-.06v0h0c0-.08,0-.12.13-.12a.13.13,0,0,0,.15-.13c0-.09,0-.15.06-.17a.14.14,0,0,1,.09,0h.11c.05,0,.08-.07.08-.16l-.12-.5a2.27,2.27,0,0,1,.23-.94c.06-.14.65-2.71,1.76-7.73l.21-1a.21.21,0,0,1,0,.09,1.94,1.94,0,0,0-.1.17l-.13.27a.49.49,0,0,0-.07.23l.05.12-.17.35c-.1.19-.19.4-.28.61a1.46,1.46,0,0,0-.13.5.26.26,0,0,0,0,.11.11.11,0,0,1,0,.07l.06.12c-.08.11-.16.17-.24.17h0s0,0-.09-.08v0h0l.06-.11L12,14s0,0-.06,0a.84.84,0,0,0-.23.52,1.52,1.52,0,0,0-.15.5.22.22,0,0,0,0,.1.12.12,0,0,1,0,.09.87.87,0,0,0-.1.31,8.32,8.32,0,0,0-.24,1.29.67.67,0,0,1-.23.53.47.47,0,0,0-.12.32l.06.06a1.55,1.55,0,0,1-.18.52,2.82,2.82,0,0,0-.32,1,.72.72,0,0,1-.06.29.53.53,0,0,1-.17.24.13.13,0,0,1,0,.07.3.3,0,0,0,0,.16s0,0,.06,0,.06,0,.06,0a.8.8,0,0,1-.12.5,1.26,1.26,0,0,0-.23.73s0,.06-.06.06L9.49,21a.51.51,0,0,0,0,.22l.06.07a0,0,0,0,0,0,0c.12.08.18.16.18.23v0l-.06.06a.36.36,0,0,1-.19,0,.33.33,0,0,0-.25.09l-.06.06a.21.21,0,0,0-.06.08l.38-.05s.06,0,.06,0a1.37,1.37,0,0,1-.12.58l-.06.24c0-.12-.07-.23-.1-.33a.68.68,0,0,1,0-.2v0H9.2v.06a.3.3,0,0,0-.07.19c0,.09,0,.15,0,.19l.06.35a.41.41,0,0,1-.12.26.43.43,0,0,0-.11.27L9,23.7l-.08.06v0a.24.24,0,0,0,0,.15c.06.64.13,1,.23,1a.17.17,0,0,1,.18.15v0a0,0,0,0,1,0,0l0,0A.46.46,0,0,1,8.89,25a.45.45,0,0,1-.13-.35c0-.14,0-.23-.12-.25l-.06.18a11.17,11.17,0,0,1,.06,1.14c0,.12-.1.18-.17.18l-.06-.18.06-.23A5,5,0,0,0,8,27V27l0,.09s.09,0,.27,0,.29.06.31.17,0,.16-.07.18l-.16,0a.34.34,0,0,0-.15.06.41.41,0,0,0-.09.1L8,28.36a.39.39,0,0,1-.18.29.51.51,0,0,0-.13.12.16.16,0,0,0,0,.09s.13.06.41.06c.56,0,.85-.23.85-.56L8.88,28l.23.06-.06-.24a.05.05,0,0,1,0,0l0,0,0,0h.09c.06.05.09.09.09.11a.09.09,0,0,0,0,.06v.35A.28.28,0,0,0,9.49,28l.24.11.06,0V28a2.48,2.48,0,0,1,.05-.44c.06,0,.1.11.12.35l-.06.59q.7-.06,1.35-.15,7.29-.67,8.85-1a2.4,2.4,0,0,0,1.17-.49,1.32,1.32,0,0,0,.32-.74A5.45,5.45,0,0,1,21.91,25a1.2,1.2,0,0,0,.18-.48c0-.11,0-.17,0-.19a1,1,0,0,0,.15-.53l2.54-6.07c.14-.39.5-1.34,1.09-2.87a6.59,6.59,0,0,1,.61-1.34.52.52,0,0,0,.18-.36,38.54,38.54,0,0,1,1.38-3.83,1,1,0,0,0,.14-.53l.47-1.23c.59-1.6,1-2.56,1.14-2.87l.24-.59a2.75,2.75,0,0,1,.41-1,2.39,2.39,0,0,0,.32-1L30.67,2l0-.06.08-.07a.62.62,0,0,1,.19-.1c.13,0,.21,0,.23-.12s-.06-.18-.17-.18v0h0l0,0,0-.05s0,0,0-.07,0-.12.13-.18a.49.49,0,0,1,.28-.09c.27.08.41.15.41.2s0,.07,0,.07,0,0,.08.09h0v0c.07,0,.12-.06.14-.18l.06-.12a.89.89,0,0,0,.37.25,2.45,2.45,0,0,0,.6.05s0,0,0,0v.15a.13.13,0,0,1-.08.07l-.07,0a0,0,0,0,0,0,0c0,.12.17.17.5.17a.5.5,0,0,1,.35.18,8.58,8.58,0,0,1,1,1.58.24.24,0,0,1-.12.18h.06a2.49,2.49,0,0,0-.5,1.49l0,.18a15,15,0,0,1-.38,1.93A40.84,40.84,0,0,0,32,12.83c-.06.39-.14.59-.26.59l-.06.06.06.2a.24.24,0,0,1-.18.24l-.11.05V14a1.75,1.75,0,0,1,.11.35l-.11.15v0a5.47,5.47,0,0,1-.71,1.58c-.08,0-.16.26-.26.76A3.57,3.57,0,0,1,30.06,18a11,11,0,0,0-.53,1.08l-.09.18a6.2,6.2,0,0,0-.52,1.49,6,6,0,0,1-.36,1,7.14,7.14,0,0,1-1,1.76l-.12.14.06.12c-.22.53-.49,1.12-.82,1.79a5.24,5.24,0,0,1-.26.61l.67-.12a2.11,2.11,0,0,0,1-.26l.11-.12.21.12v0s0,0,.13,0a1.28,1.28,0,0,1,.34.06H29a3.56,3.56,0,0,0,.47.19.64.64,0,0,1,.33.19c0,.19-.63.43-1.88.7l-1.38.35q-.68,0-1,1.35a7.94,7.94,0,0,1-.32.88.85.85,0,0,0-.12.56,3,3,0,0,1,0,.45.67.67,0,0,1-.21.37A3.41,3.41,0,0,0,24.4,32,5.41,5.41,0,0,1,24,33.25c-.05.14-.09.23-.1.28s0,.07,0,.07l-.07.06-.06.06v0l.06.26a.64.64,0,0,1-.06.14l-.09.11a2.71,2.71,0,0,0-.2.52.58.58,0,0,1-.06.26.18.18,0,0,1-.16.12c-.07,0-.1,0-.1.08v0l.08.12c0,.27-.08.45-.26.53l-.23.23-.06,0a.2.2,0,0,1-.06-.14h-.12l-.06.2.12.59a1.64,1.64,0,0,1-.15.68c-.09.23-.19.34-.29.34s-.15.14-.15.43a1.52,1.52,0,0,1-.44.95.91.91,0,0,0-.3.47,1.75,1.75,0,0,0-.11.5.16.16,0,0,0,0,.11v0a0,0,0,0,0,0,0l.18-.06.06.12,0,0-.06,0a.24.24,0,0,1-.18.06c-.17,0-.35.22-.52.67a9,9,0,0,0-.12.94l-.06-.06s0,0-.06.06a.35.35,0,0,1-.06.09,1,1,0,0,0-.2.35,2,2,0,0,0-.27.7.33.33,0,0,1-.14.29.54.54,0,0,0-.15.44.38.38,0,0,0,.06.19.18.18,0,0,0,.16.11.24.24,0,0,1,.18.07.21.21,0,0,1,.07.16.87.87,0,0,1-.18.45c-.11.19-.21.28-.29.28h0v0q-.09,0-.09,0l.06-.38c-.1,0-.19.12-.28.34a7.78,7.78,0,0,0-.23.76,2.85,2.85,0,0,0-.1.66.23.23,0,0,0,0,.09.27.27,0,0,1,0,.12.32.32,0,0,1-.24.08l.06.12a.66.66,0,0,1,.18.44c0,.18-.14.33-.41.47.15.1.23.18.23.23a.16.16,0,0,1-.18.18l-.08.06,0,.06a1.21,1.21,0,0,0,.06.38.34.34,0,0,1-.12.29A2.58,2.58,0,0,0,18,50.36a2.21,2.21,0,0,1-.15.62A2.2,2.2,0,0,0,17.58,52a6.66,6.66,0,0,1-.35,1.55l-.06.24a0,0,0,0,0,0,0v.06l.09.14-.24.59.06.06-.06.06.06.67-.06.12h-.12c-.05,0-.08.09-.08.29a2.85,2.85,0,0,0,.08.62l-.26-.62a9.47,9.47,0,0,0-.19,1c0,.25-.05.42-.07.51a.7.7,0,0,1-.15.28l.06-1.2q0-.39-.09-.39h0a1.93,1.93,0,0,0-.15.47,4.15,4.15,0,0,0-.08.79.86.86,0,0,0,.17.63.67.67,0,0,1,.18.52c0,.25-.06.38-.18.38s0,0,0,0,0-.29,0-.8a.17.17,0,0,0-.14.09,2.77,2.77,0,0,0-.41,1.23,12.12,12.12,0,0,1,.58-3.4l.21-.38-.16-.13a.41.41,0,0,1-.08-.28,2,2,0,0,1,.06-.44,1.47,1.47,0,0,1,.09-.53c.06-.16.11-.23.15-.23l.11.35a.4.4,0,0,1,0,.13l-.09.19a.94.94,0,0,0,0,.35l.06.06s.07-.08.16-.25a2.69,2.69,0,0,0,.22-.59,2.15,2.15,0,0,0,.09-.54c0-.21-.06-.32-.18-.32l-.06,0v.29a.15.15,0,0,1-.17-.14.16.16,0,0,0,0-.08.48.48,0,0,1,0-.22l0,0s.1,0,.32,0a1.81,1.81,0,0,1-.12-.52,7.62,7.62,0,0,1,.27-1.76,7.16,7.16,0,0,0,.23-1.44.32.32,0,0,1,.06-.17c.12,0,.17.19.17.58a6.42,6.42,0,0,1-.05.74v.08a5.65,5.65,0,0,1-.5,2.08H16.7l-.09.12H17a.2.2,0,0,0,.18-.09.74.74,0,0,0,.06-.38,6.5,6.5,0,0,1,.17-1.23A20.16,20.16,0,0,0,17.75,49l0,0-.32.06v0h0L17.31,49v0h0a35.36,35.36,0,0,1,1-4.25,15.81,15.81,0,0,1,.7-2.43q.12-.12.12-.15s.1-.28.29-.79l.91-2.52a41.34,41.34,0,0,0,1.58-4.63l1.76-4.92a4.43,4.43,0,0,0,.27-1.15,1.51,1.51,0,0,0-.44.06c-.4.14-.59.24-.59.3s-.19.63-.56,1.73l-.35,1c-1.89,5.43-2.93,8.15-3.1,8.15h-.12l.06,0L15.53,51.88A4.29,4.29,0,0,0,15.32,53a43.24,43.24,0,0,0-.5,5.48c0,.52,0,.79-.07.79s-.08,0-.09,0a.45.45,0,0,0,0,.14,2.12,2.12,0,0,0,.12.68.54.54,0,0,0,.11.23l-.06.47a.64.64,0,0,0-.05.32,1.5,1.5,0,0,0,.17.59l-.23.35a.57.57,0,0,1,.2.31,2.45,2.45,0,0,0,.08.29A1.37,1.37,0,0,1,15,63a2.77,2.77,0,0,0,0,.39,3,3,0,0,1,0,.4c0,.62.07.94.2.94s.1-.14.12-.41l-.18-1.73a1.56,1.56,0,0,1,.12-.68c.12-.23.23-.35.32-.35s.12.22.12.65a.39.39,0,0,1-.26.06l0,0,0,0a.19.19,0,0,0-.05.09.49.49,0,0,0,0,.12c.1.92.22,1.38.38,1.38l.06.06a.69.69,0,0,0-.18.35l.12.11h0l0,.09-.09.06s-.07.16-.09.41a11.1,11.1,0,0,0,.16,1.42,13.81,13.81,0,0,0,.3,1.45,3.43,3.43,0,0,0,.54,1,4,4,0,0,1,.62,1S17.19,69.94,17,70ZM1.61,37.12l-.12-.06a.19.19,0,0,0,.05-.1c0-.05.05-.09.13-.13s.12,0,.12.11S1.73,37.06,1.61,37.12Zm.91.73.23-.17s0-.06-.11-.06-.18,0-.18.06A.32.32,0,0,0,2.52,37.85Zm.23,1.5.06-.12a2.38,2.38,0,0,0-.09-.68l-.05-.2q-.12-.21-.15-.21l.06.74Zm0,1.2c.08,0,.12-.18.12-.53s0-.44-.12-.44l0,.18A6.56,6.56,0,0,1,2.75,40.55Zm.12.73v-.44H2.75A.61.61,0,0,0,2.87,41.28Zm1.7,2.31.06-.05a.81.81,0,0,0-.24-.36c-.13,0-.2.06-.2.18s.07.23.2.23Zm0-2.31.12-.06-.3-.2-.08,0C4.31,41.21,4.39,41.28,4.57,41.28Zm0,1s.06,0,.06-.12a.88.88,0,0,0,0-.21.74.74,0,0,1,0-.19.34.34,0,0,0,0-.16c0-.06-.06-.09-.08-.09s-.06.1-.06.3S4.45,42.22,4.57,42.28Zm-.06-5c.06,0,.11-.05.16-.15a.72.72,0,0,0,.08-.32s-.1.1-.18.29A.32.32,0,0,0,4.51,37.24Zm.18,2.66c-.12,0-.18-.14-.18-.44s.07-.29.21-.29h0a.36.36,0,0,1,.17.29A2.67,2.67,0,0,1,4.69,39.9Zm.47-2.34c.11,0,.17-.11.17-.32a.78.78,0,0,0,0-.22c0-.07,0-.13,0-.18s0-.11,0-.19a2.09,2.09,0,0,1-.2.6.45.45,0,0,0-.09.25l.08,0A.28.28,0,0,0,5.16,37.56ZM5,38.88l-.12-.06a.63.63,0,0,1,.18-.27c.08,0,.11.05.11.15S5.16,38.82,5,38.88Zm.17-3.37q.12,0,.24-.3a.17.17,0,0,1,0-.07.3.3,0,0,0,0-.16s0,0,0,0l0,0A.83.83,0,0,0,5.21,35.51Zm.36-.73.14-.24.06-.41c0-.14,0-.21-.12-.23s-.14,0-.14.11l.06.12a.18.18,0,0,1-.09.15.17.17,0,0,0-.09.14.26.26,0,0,1,0,.11.88.88,0,0,0,0,.14A.13.13,0,0,0,5.57,34.78Zm.55-2.88s.07,0,.13-.17a1.58,1.58,0,0,0,.22-.79c0-.12,0-.18,0-.18s-.12.23-.17.34A4.06,4.06,0,0,0,6.12,31.9Zm.79,1h0s0,0,0-.06,0-.06.08-.13a.6.6,0,0,1,.24-.16L7,32.81Zm.06,5h0s0,0,0-.12a1.55,1.55,0,0,1,.24-.91,2.74,2.74,0,0,0,.25-.54c.14-.36.26-.54.33-.54l-.35,1.14C7.19,37.59,7.05,37.91,7,37.91Zm.24-6.18L7,31.67s.09,0,.27-.06.08,0,.08.06ZM7.32,31c-.11,0-.17,0-.17-.12s.08-.06.17-.06.22,0,.24.12Zm.3-3.9.06-.18v-.08s0,0-.09,0v0s0,.08,0,.2Zm.06,1.38c.07,0,.18-.19.3-.56a3.78,3.78,0,0,0,.19-.64H8c-.08,0-.12.13-.12.27a.57.57,0,0,1-.12.37.54.54,0,0,0-.11.32.3.3,0,0,0,0,.16A.16.16,0,0,1,7.68,28.48Zm.41,5.09L8,33.46a.87.87,0,0,0-.18-.31,1.73,1.73,0,0,1-.17-.21.19.19,0,0,1-.06-.13s0-.06.11-.06A.33.33,0,0,1,8,32.9a.88.88,0,0,1,.16.32,1.24,1.24,0,0,1,0,.3Zm-.36-7,.06-.06.12-.23H7.85l-.1.06a.18.18,0,0,0-.07.16S7.69,26.57,7.73,26.57Zm.91,6.3.06-.73-.06-.06-.2.22a.33.33,0,0,1-.27.1.23.23,0,0,0,0,.1.09.09,0,0,1-.1.08l-.12-.06-.06-.21a.58.58,0,0,1,.06-.26A.77.77,0,0,0,8,31.71c0-.14,0-.23,0-.25l.16,0-.26-.39L8,31c.08,0,.16.06.26.19a.52.52,0,0,0,.41.19c.24,0,.35-.06.35-.18l-.23-.15H8.7A3.17,3.17,0,0,1,9.29,31L9,31.93C8.85,32.56,8.72,32.87,8.64,32.87ZM8,25.43a.11.11,0,0,0,.12-.07c0-.05,0-.09,0-.11a.56.56,0,0,0,.11-.35q0-.09-.06-.09s-.07,0-.11.11a1.07,1.07,0,0,0-.09.19l0,.13a.2.2,0,0,0,0,.07Zm.2,3.25c-.09,0-.14,0-.14-.09a.05.05,0,0,1,0-.05.59.59,0,0,1,.08-.08.37.37,0,0,1,.21,0l.06.06C8.41,28.61,8.33,28.68,8.17,28.68Zm.09-4.16c.08,0,.13-.06.15-.17s0-.22-.12-.24-.12.07-.12.21,0,.2.06.2Zm-.09,10.2v-.24a3.18,3.18,0,0,1,0-.36,3.34,3.34,0,0,1,.08-.43c0-.12.07-.17.13-.17l.06.14-.12.68C8.29,34.59,8.23,34.72,8.17,34.72Zm.12-2.64a.53.53,0,0,0,.21-.2.12.12,0,0,0,0-.09q0-.18-.12-.18s-.08,0-.12.09a.48.48,0,0,0-.06.26Q8.23,32.08,8.29,32.08Zm.18-8.7c.11,0,.17-.06.17-.18s0-.17-.11-.17l-.12.23Q8.41,23.38,8.47,23.38Zm.35,3.31H8.76s0,0-.09-.06a1.2,1.2,0,0,1-.14-.47l.11.06c.2.16.3.27.3.35A.11.11,0,0,1,8.82,26.69Zm0-4.25.12-.26.11-.47L9,21.59c-.05,0-.11.12-.17.35a.67.67,0,0,0-.06.3C8.76,22.37,8.78,22.44,8.82,22.44Zm0,9.52s0-.06.06-.17l-.06-.24-.06.06A1,1,0,0,0,8.82,32Zm.06-18.72-.06-.12c0-.07,0-.11.12-.11s.17,0,.17.06ZM9.05,26,9,26a.19.19,0,0,1,0-.09,1.1,1.1,0,0,1,0-.21s0,0,.07.11A.62.62,0,0,1,9.05,26Zm.56-14.56.23-.12s-.05,0-.17-.06l-.12.06A.17.17,0,0,0,9.61,11.46ZM9.67,23,9.55,23a.09.09,0,0,1,0-.06l.07-.1a.21.21,0,0,1,.19-.08l.06.06A.21.21,0,0,1,9.67,23Zm.76,2.11a.44.44,0,0,0,.15-.09,1.8,1.8,0,0,0,.2-.19.29.29,0,0,0,.09-.16l-.06-.06a2,2,0,0,1-.31.12.25.25,0,0,0-.19.26q0,.12.09.12ZM11,23.5s0,0,0-.12l0-.29-.12.17Zm1.14-10.26.06-.12c0-.13,0-.21-.12-.23L12,13Zm.17-.91c.08,0,.12,0,.12-.11a.17.17,0,0,0,0-.12H12.3l-.11.12c0,.07,0,.11.09.11Zm1,51.39-.06-.06a.62.62,0,0,1,.06-.32s0,.06.06.18S13.31,63.72,13.27,63.72Zm.41-2.17-.12-.23.12-.06.06.12Zm.18-6v0a.15.15,0,0,1-.08-.05.13.13,0,0,1,0-.1.11.11,0,0,1,.12-.12l.17,0s.06.07.06.09ZM13.8,57h-.06a7.2,7.2,0,0,1,.12-1.32,1.29,1.29,0,0,1,.06.44,2.66,2.66,0,0,1-.12.82Zm.06.73H13.8l-.06-.17.06-.27A1.61,1.61,0,0,1,13.86,57.77ZM14,55H14l-.05-.2.05-.18h0A2.21,2.21,0,0,1,14,55Zm0-.67H14l.09-.35q0-.24.09-.24C14.15,54.05,14.11,54.25,14,54.29Zm.38-3.9s0,0,.06-.09a1.3,1.3,0,0,1,.08-.17,1.09,1.09,0,0,0,.07-.25,1.58,1.58,0,0,0,0-.28l-.06-.18A1.58,1.58,0,0,0,14.41,50.39Zm.53-2.64s0,0,.06-.17l-.06-.18h-.06Zm.18,2.41h-.06V50l.12-.26s.05,0,.05.14A.25.25,0,0,1,15.12,50.16Zm.17,11.57h-.06a1,1,0,0,1-.05-.35C15.23,61.38,15.27,61.49,15.29,61.73Zm.12,3.66v-.47l-.06.06v.35Zm0-20a.55.55,0,0,0,.18-.1c.09-.07.14-.13.14-.19L15.59,45Zm.26,21.18v-.44l-.14.21Zm0-6.79-.08-.06v-.24h.08l.06.12Q15.73,59.74,15.67,59.74Zm.06.61c-.1,0-.14,0-.14-.12s.06-.17.2-.17a.11.11,0,0,1,.12.12C15.91,60.29,15.85,60.35,15.73,60.35Zm.12,2.81-.06,0-.06-.24.06-.23A1.67,1.67,0,0,1,15.85,63.16Zm.35-3L16,60a.79.79,0,0,1-.06-.38c0-.39.06-.59.17-.59s.18.1.18.3,0,.29-.09.29-.09.06-.09.17Zm-.06,3.54L16,61l0-.53c.12,0,.18.54.18,1.61A13,13,0,0,1,16.14,63.72Zm.59-4.92c-.12,0-.18-.15-.18-.44l.06-.12h.06q.12,0,.12.24Zm-.12,1.26V60a1.22,1.22,0,0,1-.06-.44c.08,0,.12.08.12.23S16.65,60.06,16.61,60.06Zm.18-2.35V57l.06.35Zm1-8.93a8.4,8.4,0,0,0,.56-1.88c.31-1.25.47-1.9.47-2a.24.24,0,0,0,0-.15h-.15a.75.75,0,0,0-.13.39c0,.19-.06.29-.1.29a5.74,5.74,0,0,0-.37,1.23,8.84,8.84,0,0,0-.31,1.76A.53.53,0,0,0,17.81,48.78ZM19,44.21a.7.7,0,0,0,.16-.1.74.74,0,0,0,.07-.4,3.22,3.22,0,0,1,.13-.82,2,2,0,0,1,.28-.38.63.63,0,0,0,.2-.35L19.75,42l.05,0h.06a.92.92,0,0,0,.05-.37c0-.23.06-.35.16-.35s.14,0,.14-.15l-.05-.41.23.12-.06-.35a1.87,1.87,0,0,1,0-.34,1.38,1.38,0,0,0,0-.25,1.61,1.61,0,0,1,0-.25,1.52,1.52,0,0,0,0-.19c-.06.08-.31.75-.76,2a4.79,4.79,0,0,0-.38,1.12,2.44,2.44,0,0,1-.3.8,2.61,2.61,0,0,0-.29.77Q18.72,44.21,19,44.21Zm.23,2.34q-.12,0-.12-.09c0-.11,0-.18.06-.2a.83.83,0,0,1,.32.06.23.23,0,0,1-.08.16A.27.27,0,0,1,19.19,46.55Zm1.58-7c.12,0,.18-.31.18-.94a1.33,1.33,0,0,1,.35-.85.47.47,0,0,0,.17-.35l-.11-.26c-.06,0-.12.06-.18.17a4.51,4.51,0,0,0-.61,1.82.5.5,0,0,0,.08.29Q20.74,39.58,20.77,39.58ZM21.56,37l0-.06-.06-.29a.05.05,0,0,1,.06-.06l.18.06.06-.12c-.06-.11-.12-.17-.18-.17s-.27.15-.35.47C21.3,36.94,21.39,37,21.56,37Zm.65-10.49a.13.13,0,0,0,.11-.14c0-.06,0-.09-.05-.09a.18.18,0,0,0-.17.07.35.35,0,0,1-.07.11s0,.05.12.05Zm.11,10.37.12-.05-.12-.12a.32.32,0,0,0-.17.06c0,.08,0,.11.12.11Zm.06-2.22.06-.12a.34.34,0,0,0,.12-.12.65.65,0,0,0,.06-.35.46.46,0,0,1,.11-.35.89.89,0,0,0,.18-.56l-.06-.41-.47.91.06.53Zm.35-8.38a.58.58,0,0,0,.3-.12l.11-.1a.28.28,0,0,0,.09-.1,4.15,4.15,0,0,1,.38-1,1,1,0,0,0,.21-.47c0-.12-.1-.21-.29-.29l-.36-.12c-.05,0-.09.08-.11.24a5.31,5.31,0,0,1-.33,1,2.22,2.22,0,0,0-.17.71C22.56,26.19,22.62,26.28,22.73,26.28Zm-.05.53c.07,0,.11,0,.11-.12a.32.32,0,0,0-.06-.18.18.18,0,0,0-.11,0,.15.15,0,0,0-.06.13q0,.12.09.12ZM23,32.58c.1,0,.19-.26.29-.65s.15-.44.21-.44h.11l0-.35c0-.08,0-.12.07-.13a.43.43,0,0,0,.16-.07.24.24,0,0,0,0-.11.24.24,0,0,0-.19-.07,2.72,2.72,0,0,0-.24.47A5.73,5.73,0,0,0,23,32a2.16,2.16,0,0,0-.12.56Zm.67-8.47c.18,0,.64-1,1.38-3a22.46,22.46,0,0,1,1.08-2.75L27.48,15c.31-.82.47-1.25.47-1.29l-.06-.14-.06.05h-.12c-.07,0-.11,0-.11-.05s-.18.26-.37.8a4.86,4.86,0,0,0-.28,1c0,.14-.05.22-.16.22s-.16,0-.16.11l.12.44q0,.12-.15.12h-.06c-.13,0-.2.06-.2.18v0a.76.76,0,0,1-.18.49,3.28,3.28,0,0,0-.41.83,1.47,1.47,0,0,1-.38.76.38.38,0,0,0-.17.28,7.18,7.18,0,0,1-.27,1,2.06,2.06,0,0,0-.09.44l.12.29s0,.06-.12.06c-.35,0-.7.69-1.05,2.05a4.78,4.78,0,0,0-.21,1.15Zm.18,2.46A.32.32,0,0,0,24,26.5a.25.25,0,0,0,.1-.22l.44.06q.18,0,.18-.12l-.12-.38s0-.08.09-.12.35-.51.58-1.32l0-.2s0,0-.06,0l-.14.07a.31.31,0,0,0-.09.11.36.36,0,0,1-.09.26.63.63,0,0,0-.2.47l.06.29a1.59,1.59,0,0,0-.17-.25,1.07,1.07,0,0,0-.2-.22c-.07-.06-.11-.09-.13-.09s-.29.19-.38.56q0,.06,0,.06a2.61,2.61,0,0,0-.3.91A.21.21,0,0,0,23.82,26.57Zm-.12,3.9s.08-.1.18-.29a9,9,0,0,0,.55-1.41,1.87,1.87,0,0,0,.12-.59.37.37,0,0,1-.15.06c-.07,0-.11.1-.11.24a1.25,1.25,0,0,1-.24.52.31.31,0,0,0-.11.21l0,.17a1.24,1.24,0,0,1-.08.27A3.25,3.25,0,0,0,23.7,30.47Zm.85-6.92s0,0,.07,0a.41.41,0,0,1,.11-.07.12.12,0,0,0,.06-.12.17.17,0,0,0-.12-.06l-.18.18C24.49,23.52,24.51,23.55,24.55,23.55Zm.7,2.47s.06-.07.11-.21a1.34,1.34,0,0,0,.07-.32l-.15.07c-.06,0-.08.1-.08.22a.51.51,0,0,0,0,.16A.16.16,0,0,1,25.25,26Zm.18-.77s.05,0,.1-.11l.15-.27a.49.49,0,0,0,.07-.23q0-.12-.06-.12C25.6,24.52,25.51,24.77,25.43,25.25Zm.38-.9s.08-.07.18-.21A.2.2,0,0,0,26,24a.15.15,0,0,1-.1.05.13.13,0,0,0-.1.07.35.35,0,0,1-.06.09.12.12,0,0,0,0,.09Zm.41-.8c.06,0,.09,0,.09-.05a1.73,1.73,0,0,1,.15-.3v-.06h-.12q-.18,0-.18.36S26.18,23.55,26.22,23.55ZM28,13.36c.17,0,.26-.06.26-.18l-.06-.35a5.36,5.36,0,0,0,.24-1,.32.32,0,0,1,.15-.3.49.49,0,0,0,.2-.3c0-.15.08-.33.12-.55a4.62,4.62,0,0,1,.11-1s-.42,1-1.14,3.07a.83.83,0,0,0-.12.41c0,.12,0,.19.05.21A.38.38,0,0,0,28,13.36Zm1,1.64c.13,0,.35-.35.64-1.05l.67-1.79.3-1.14a3.3,3.3,0,0,0,.26-1,.53.53,0,0,1-.23.06s0,0,0-.09-.06-.09-.16-.09-.16.13-.17.38a7.9,7.9,0,0,1-.71,1.82v.06l-.32.61a2.69,2.69,0,0,0-.29,1.09,1.23,1.23,0,0,1-.24.7l-.06.29.06.15a.22.22,0,0,0,0-.1.83.83,0,0,1,0-.13c0-.06,0-.09.13-.09s.12,0,.12.11l-.06.15A.05.05,0,0,0,28.92,15Zm-.18,2.31a.33.33,0,0,0,.18-.29s0-.06-.06-.06,0,0,0,0l-.06.09a.2.2,0,0,0-.06.14c0,.05,0,.09,0,.1Zm.56-7.73.06,0s.05,0,.1-.07a.15.15,0,0,0,.07-.13c0-.12-.09-.18-.26-.18a.16.16,0,0,0-.18.18.64.64,0,0,0,.08.14.22.22,0,0,0,.1.09Zm.23,3.31a.29.29,0,0,1,.06-.15l.35-.46c0,.07-.07.14-.1.2l-.12.25C29.67,12.84,29.61,12.89,29.53,12.89Zm.7-1.87V11a.31.31,0,0,1,.24-.3l-.12.24-.06.07S30.25,11,30.23,11Zm.56-1.21c.08,0,.16-.06.24-.2l0-.06,0-.32A.43.43,0,0,0,31,9a.6.6,0,0,0-.36.18.49.49,0,0,0-.2.35.3.3,0,0,0,.09.19A.28.28,0,0,0,30.79,9.81Z"/><path class="cls-1" d="M29.56,42.33a2.6,2.6,0,0,1-.89-.26,3.3,3.3,0,0,1-1.19-.91,2.69,2.69,0,0,1-.56-1.81,6.39,6.39,0,0,1,.79-2.88c.18-.46.47-1.11.88-1.93a10.12,10.12,0,0,1,.71-1.38l.49-1c.14-.24.24-.35.31-.35s.17-.18.31-.53.18-.56.25-.56.22-.19.47-.58a2.9,2.9,0,0,0,.36-.68c0-.06.08-.13.24-.23a.09.09,0,0,0,0-.07.19.19,0,0,1,0-.08l.41-.57a13.46,13.46,0,0,1,1-1.21,6.76,6.76,0,0,0,.82-.85l.08-.09.05-.08a.2.2,0,0,1,.08,0,2.05,2.05,0,0,1,.41.18.17.17,0,0,0,.16-.08.83.83,0,0,1,.13-.16l-.23.12q-.09,0-.24-.21c0-.11.38-.17,1.14-.17a3,3,0,0,1,1.37.22,5.51,5.51,0,0,1,1.24,1.3,6.82,6.82,0,0,1,.65,1.12c.06,0,.16-.08.32-.24a4,4,0,0,0,.45-.54,1,1,0,0,0,.22-.44.14.14,0,0,1,.13-.15c.09,0,.21-.11.37-.3l.06-.24-.06-.06.26-.35a.88.88,0,0,0,.27-.38.49.49,0,0,1,0-.12,1.2,1.2,0,0,1,.06-.17.67.67,0,0,1,.16-.24l.06-.29a.05.05,0,0,1-.06-.06s.06,0,.18-.07l.39-.09a2,2,0,0,1,.4,0c.49,0,.73.07.73.23l-.23.5v.12l.17.05a1.38,1.38,0,0,1,.62-.17s0,.09,0,.22,0,.19.12.19h0c.08,0,.13.09.15.26a7.41,7.41,0,0,1-.88,2.32,46.73,46.73,0,0,0-2.55,6.06c-.13.47-.23.71-.29.73a4.88,4.88,0,0,0-.29.94,12.37,12.37,0,0,0-.47,2.61,1.9,1.9,0,0,0,0,.6s.12,0,.28,0A2.15,2.15,0,0,1,40,39.4c.13,0,.2,0,.2-.14s.23-.33.7-.71a6,6,0,0,0,1-.76c.11-.15.2-.23.26-.23a.14.14,0,0,0,.13-.09.68.68,0,0,1,.13-.18c0-.19.11-.29.25-.29s.36-.18.63-.55a.56.56,0,0,0,.15-.36l.12.09a.23.23,0,0,0,.23-.17,1.3,1.3,0,0,1,.2-.36c.14-.25.25-.38.33-.38a.22.22,0,0,0,.14,0v0l.06-.14h0c.06-.14.11-.22.16-.24l.1,0v-.12l.18-.18c.14-.1.21-.17.21-.23v-.12a.27.27,0,0,1,.17-.06.29.29,0,0,0,.06-.17l.12.06c0,.15-.21.45-.62.9a16.34,16.34,0,0,0-2,2.49c.06,0,.25-.15.57-.47S44.39,36,45.18,35L45.12,35l.17-.26a12.6,12.6,0,0,0,.88-.94,27.22,27.22,0,0,1,2.17-2.46l.23-.44c.18-.1.27-.19.27-.26a.21.21,0,0,1,.06-.17.17.17,0,0,1,.11,0s.06-.06.06-.18L49,30.18l-.21.05v-.05a.58.58,0,0,1,.26-.06c.24,0,.36.06.36.17a.83.83,0,0,1-.15.28,1.23,1.23,0,0,1-.16.22l0,0a.05.05,0,0,0,0,0l0,0a1.18,1.18,0,0,1-.35.26.55.55,0,0,0-.17.35s0,.07,0,.14-.09.16-.25.27a1.94,1.94,0,0,0-.23.25.8.8,0,0,0-.15.31c-.11.16-.21.24-.29.24s-.13,0-.15.08a1,1,0,0,0-.17.33s0,0,.06,0l.05,0,.06,0c-.19.28-.35.41-.47.41L47,33.4c-.06,0-.14.06-.25.19a.41.41,0,0,1-.27.19v.06A.75.75,0,0,0,47,34a1,1,0,0,0,.28,0l.15,0s0,0,0,0l-.06-.12h-.11v-.06l.11-.26a.05.05,0,0,0,.06-.06,1.43,1.43,0,0,1,0-.31s0,0,.14,0,.2-.1.34-.29l.35-.44c1-1,1.53-1.5,1.73-1.5a1.72,1.72,0,0,1-.23.68h0l-.08.14a3.35,3.35,0,0,0-.53.76,1.52,1.52,0,0,0-.15.69,4.13,4.13,0,0,1-1,1.66l-1.23,1.55a12.85,12.85,0,0,0-1.44,1.61A26.16,26.16,0,0,1,43.3,40.3a4.31,4.31,0,0,1-1.49,1,5.57,5.57,0,0,1-1.73.23,5.89,5.89,0,0,1-.68,0,.83.83,0,0,1-.76-.41c-.08-.07-.12-.11-.14-.11s-.25-.11-.4-.31a3.26,3.26,0,0,1-.37-.69c-.09-.33-.19-.5-.29-.5s-.18-.16-.26-.48a5,5,0,0,1-.12-1.19A2.53,2.53,0,0,0,37,37l-.12.29L37,35.68l-.06-.23A32.09,32.09,0,0,1,34.13,39,19.23,19.23,0,0,1,31,41.92,2.52,2.52,0,0,1,29.56,42.33Zm-1-5.27a2.17,2.17,0,0,0,.36-.59,3,3,0,0,0,.26-.61,1.48,1.48,0,0,0-.29.38A2.68,2.68,0,0,0,28.59,37.06Zm.68-1.38.11-.11.12-.3v-.06a.71.71,0,0,0-.1.14l-.09.16A.35.35,0,0,0,29.27,35.68Zm.41,3.9a.67.67,0,0,0,.36-.12c.13-.07.19-.15.19-.22a.25.25,0,0,1,.05-.16l.07-.09h.12l-.06.12.12-.12a8.14,8.14,0,0,1,1.3-1.55,8.14,8.14,0,0,0,1.39-1.35l.91-1.17.06.12a1.11,1.11,0,0,1-.56.82,1.36,1.36,0,0,0-.41.73.11.11,0,0,0,.12.12c.12,0,.18,0,.18-.13s.2-.35.61-.78A9.38,9.38,0,0,0,35.57,34l1.14-1.56A18.78,18.78,0,0,0,38,30.62c.15-.3.28-.44.36-.44s.14,0,.14-.12l-.06-.12-.24.12a.41.41,0,0,0-.41.35,1,1,0,0,1-.5.47l-.23.5H37a.05.05,0,0,1-.06-.06,10.1,10.1,0,0,1,1-1.47c-.76-.17-1.14-.35-1.14-.52l.06-.53h.05l0,.12a.18.18,0,0,0,.15.11V29c-.23-.48-.41-.73-.53-.73l-.26.06a9,9,0,0,0-1.64,1.79,32.38,32.38,0,0,0-3.52,5.68,15.23,15.23,0,0,0-1.49,3.69ZM30,34.07l.15-.11.17-.39-.06,0a1.46,1.46,0,0,0-.26.3l0,.12a.25.25,0,0,0,0,.07A.05.05,0,0,0,30,34.07Zm.62-1a.37.37,0,0,0,.11-.24c0-.08,0-.11-.06-.11l-.11.23v.12Zm.2-.53q.21-.12.21-.18s0-.06,0-.07l0,0v0h0l-.07.08a.47.47,0,0,0-.11.13.29.29,0,0,1-.07.1Zm1.41,6.3a5.87,5.87,0,0,0,1.32-1.2,7,7,0,0,0,1.14-1.34.31.31,0,0,1,.17-.24l.38-.24v.12l.06.06.11,0s.07-.13.07-.31a5.42,5.42,0,0,1,1.49-2.46c.28-.27.41-.46.41-.58s0-.06.11-.13.2-.23.39-.49a2.29,2.29,0,0,0,.7-1.32l-.17.12L36,34a15.17,15.17,0,0,1-1,1.4c-.47.59-.71.9-.72.94l0,.12a.11.11,0,0,1-.07.08,4.48,4.48,0,0,0-.48.58,9.15,9.15,0,0,1-.6.71c-.49.51-.76.79-.79.85A.32.32,0,0,0,32.2,38.82Zm.93-1.76q.15,0,.15-.12s0-.07-.09-.11a.27.27,0,0,0-.14-.06l-.06.11C33,37,33,37.06,33.13,37.06Zm.44,1.32.12-.06.27-.23A.05.05,0,0,0,33.9,38Zm1.09-4h0s0,0,0-.11a.34.34,0,0,1,0-.09.77.77,0,0,1,.06-.15.52.52,0,0,1,.22-.17s.06,0,.06.11A.44.44,0,0,1,34.66,34.42Zm.06,2.64c.06,0,.28-.21.67-.64a.69.69,0,0,0-.35.23C34.82,36.85,34.72,37,34.72,37.06Zm.44-3.22-.06-.06c0-.08.11-.22.35-.44l.06.06a.35.35,0,0,1-.21.32Zm.64,2.52.06-.27a1.21,1.21,0,0,1,.18-.58l0,0a.4.4,0,0,0,.14-.13.45.45,0,0,0,.07-.19q0-.12-.06-.12l-.32.47c-.1,0-.15.13-.15.41l-.17-.12-.12.38h.12a.18.18,0,0,1,.17.07A.36.36,0,0,0,35.8,36.36Zm-.06-3.31a1.35,1.35,0,0,1,.19-.41c.13-.22.24-.33.34-.33a.55.55,0,0,1-.29.5ZM37,34.31l-.12-.12a.42.42,0,0,0-.35-.18.36.36,0,0,0,0,.11A1.46,1.46,0,0,0,37,34.31Zm-.29.47a.24.24,0,0,0,.12-.18l-.18-.18q-.12,0-.12.18l.12.18Zm.23-.94.18-.27.23-.46-.17,0C37,33.24,36.94,33.47,36.94,33.84Zm.24,3.66.29-.62h-.06a.23.23,0,0,1-.13,0C37.21,36.94,37.18,37.13,37.18,37.5Zm.06.59s0,0,0-.12a.71.71,0,0,0,0-.29s-.06,0-.06.17S37.2,38.09,37.24,38.09Zm0,.73.05,0a1.5,1.5,0,0,0,0-.3h-.06l0,.14Zm.06-2.35c.06,0,.12,0,.18-.14a2.7,2.7,0,0,0,.15-.29l-.15-.12c-.06,0-.14.11-.24.32v.21S37.31,36.47,37.35,36.47ZM38,34.6l.17-.06c0-.12,0-.17-.17-.17a.19.19,0,0,0-.12,0s-.06.05-.06.07,0,0,0,0l.06.05A.18.18,0,0,0,38,34.6Zm.12,1.2v-.29s-.06.08-.06.23Zm.11-.53s0-.07.06-.23l-.06-.12-.06.12ZM38.55,34l.27-.44.17-.71-.05-.11v0C38.88,32.86,38.75,33.27,38.55,34Zm.62-4.81a.21.21,0,0,0,.16-.07.23.23,0,0,0,.07-.16c0-.08,0-.12-.11-.12H39.2a.36.36,0,0,0-.09.09.29.29,0,0,0-.06.19Zm.29-.56.12-.11a.16.16,0,0,0-.18-.12c-.07,0-.11,0-.11.06ZM44,37.5q.18,0,.18-.15a.14.14,0,0,0,0-.11l-.06-.06-.06.06a.49.49,0,0,0,0,.11.19.19,0,0,1,0,.09Zm.36-.5.11-.06c.32-.25.47-.41.47-.47a.46.46,0,0,1-.06-.23.58.58,0,0,1-.14-.13s-.13-.07-.27-.07a.61.61,0,0,1,.24.38c0,.15,0,.23-.15.23s-.26.06-.26.18S44.29,37,44.33,37Zm.35,1.2.73-.85c.41-.54.67-.83.79-.85l0,0c0-.22.34-.65,1-1.29a1.91,1.91,0,0,0,.17-.24l0-.06s0,0,0,0a1.19,1.19,0,0,0,.29-.46h-.23L47.7,34l-.33.35-.11.23.32-.06q0,.18-.24.18h-.11c-.08,0-.13,0-.14.06a1.23,1.23,0,0,0,0,.23c0,.12-.16.29-.47.53a.65.65,0,0,1-.44.14l.15.12.06.24-.15-.06q-.12,0-.12.09v.17c0,.06-.09.2-.29.41l-.06-.06-.17.06-.12.24a.48.48,0,0,1-.06.26c-.08.14-.16.2-.23.2l-.06,0c-.1,0-.15,0-.15,0l.06.21,0,.12c-.08.15-.16.23-.23.23s-.13,0-.14,0a1.73,1.73,0,0,0,0,.3Zm.44-1.61c.06,0,.09,0,.11-.12a.75.75,0,0,0,.18-.46.17.17,0,0,1,0-.12c.16-.18.26-.27.32-.27h.12s.06,0,.06,0a.11.11,0,0,0-.12-.12l-.18,0a3.63,3.63,0,0,0-.46.32,1.72,1.72,0,0,0,.41-.82c-.06,0-.16.1-.28.29a.93.93,0,0,0-.19.47l.06.18-.06.17a.26.26,0,0,0,.17.15l-.26.29Zm1.2-1.32-.09-.17c0-.2.05-.32.15-.38s.17,0,.17.1,0,.1.12.1.23,0,.23-.09l-.17-.35c0-.11,0-.17.06-.17l.06.06c.07,0,.11,0,.11-.06s-.11-.12-.35-.12-.44,0-.51.13a.64.64,0,0,0-.1.4.58.58,0,0,1-.3.55.41.41,0,0,0,.27-.06.15.15,0,0,0,.06-.07l0,0a.21.21,0,0,1,.14.07A.38.38,0,0,0,46.32,35.27Zm-.12-2h-.09L46,33.11s0-.06.11-.06.12.06.12.17Zm.47,2,.12-.11a.08.08,0,0,0,0-.08l-.07,0h0s0,0,0,.06a.16.16,0,0,0-.05.1A.17.17,0,0,0,46.67,35.27Zm0-2.69v-.06c0-.14.1-.28.29-.44s.3-.16.3-.31,0-.22.13-.22h.17s.07-.1.11-.28,0-.06.08-.06v.18c0,.1-.21.36-.64.79A3.52,3.52,0,0,1,46.67,32.58Zm1.38.64a.4.4,0,0,0,.11-.29l0-.06-.18.35Zm-.06.91.12-.12L48,33.9h-.06V34Q47.93,34.13,48,34.13Zm0-2.87V31.2c.21-.57.41-.85.58-.85l.12.12,0,0s0,0-.06.06l-.19.2a1.9,1.9,0,0,0-.24.28A1,1,0,0,1,48,31.26Zm.29,1.49.24-.17c.15-.16.23-.27.23-.32h-.06C48.59,32.26,48.46,32.42,48.28,32.75Z"/><path class="cls-1" d="M46.73,38.64l-.06-.09V38.2l.06-.06s.06.08.06.24S46.77,38.64,46.73,38.64Zm3.6,4.48h-.17a3.8,3.8,0,0,1-1.06-.21.6.6,0,0,1-.31-.47.92.92,0,0,0-.2-.52,2.24,2.24,0,0,0-.4-.32,2.31,2.31,0,0,0-.67-.26l-.12.06.06-.12a.24.24,0,0,0,0-.15,1.65,1.65,0,0,1-.41-.79,2.11,2.11,0,0,1-.12-.58q0-.18.06-.18a1.66,1.66,0,0,1,.12.56c.1.31.19.47.26.47h.12L47.34,40a9.43,9.43,0,0,1,.15-1.49,10.07,10.07,0,0,1,.44-1.76,6.1,6.1,0,0,1,.37-1.42.46.46,0,0,0,.1-.31,28.33,28.33,0,0,1,1.05-2.93,8.46,8.46,0,0,0,.41-1.17l.41-1.15a1.31,1.31,0,0,0,.18-.58,1.18,1.18,0,0,0-.24.17,3.43,3.43,0,0,0-.61.68,3.48,3.48,0,0,1-.35.76,3.61,3.61,0,0,0-.35,1.25q0,.39-.12.39a.11.11,0,0,0-.12.12l.12.35-.06.06-.06-.06h-.14l-.06.06.06.29s-.06.12-.18.25a1.73,1.73,0,0,0-.23.29,2,2,0,0,0-.06.66s0,.06-.09.06-.09,0-.09.12l.12.44-.24-.27.12.74c0,.07-.06.11-.17.11h-.06c-.06,0-.1.12-.11.36a.7.7,0,0,1-.27.55.94.94,0,0,0-.18.53c0,.16,0,.23.06.23l.26-.41a.26.26,0,0,0,0,.11s0,.24-.11.63a6.4,6.4,0,0,1-.36,1.67l0-.41,0-.8a5.92,5.92,0,0,1,.15-1.34,52.38,52.38,0,0,1,1.73-5.25,7.57,7.57,0,0,0,.53-1.84c0-.08,0-.13.07-.15l.1-.06a.77.77,0,0,1,.18-.58,1.17,1.17,0,0,0,.32-.56l-.06-.06a.05.05,0,0,1,.06-.06s.1-.07.18-.2a3.79,3.79,0,0,0,.41-.88,15.09,15.09,0,0,1,.71-1.48c.48-.93.8-1.39,1-1.39l.2.06a1.15,1.15,0,0,0-.26-.41c0-.08.14-.12.44-.12a.65.65,0,0,0,.29-.06q.12-.06.12-.12v-.09c0-.13.26-.21.79-.23a2.77,2.77,0,0,1,.53.06h.08a.89.89,0,0,1,.44.2.55.55,0,0,1,.09.34,1.35,1.35,0,0,0,0,.28s0,.06.11.07l.41,0c.21,0,.32,0,.34,0l.07.1a.83.83,0,0,1,.09.25c0,.13.06.26.1.4A9.35,9.35,0,0,1,55,28.59l-.61,1.26a1.57,1.57,0,0,1-.3.74c-.35.74-.95,2.12-1.81,4.13L51.47,37A8.44,8.44,0,0,0,51,38.7a3.17,3.17,0,0,0,.58-.51L52.76,37c.45-.45.84-.87,1.18-1.26s.41-.47.46-.47l0,.12s0,.06.11.06a.33.33,0,0,0,0-.15,1.09,1.09,0,0,1,.24-.41,1,1,0,0,1,.61-.35h.12s0-.1,0-.25a.25.25,0,0,1,.26-.27c.24,0,.35,0,.35.12s-.16.33-.49.65l0,0c-.26.28-.38.44-.38.5s-.1.12-.3.18a.64.64,0,0,1-.17.13c-.06,0-.09.06-.09.1h.06v.06l-.12.18-.23.11h-.18a.75.75,0,0,1-.12.4,3.87,3.87,0,0,1-.52.6c-.1.1-.15.17-.15.2s.19-.09.41-.29l.06,0L55,36c.92-1,1.38-1.48,1.38-1.51a1,1,0,0,1,.17-.28l.36-.18a4.41,4.41,0,0,0,.38-.36c.23-.25.41-.37.52-.37l.12.18c0,.17-.08.26-.23.26l-.24-.06c-.1,0-.14.13-.14.38,0,.08,0,.12,0,.13l-.06,0q-.12,0-.15-.06l0,.06a.05.05,0,0,1,0,0v.06a.94.94,0,0,0-.14.23l-.47.31a.1.1,0,0,0-.05,0,1.11,1.11,0,0,0,0,.24c0,.23-.23.54-.67.93-.81.84-1.21,1.35-1.21,1.53l.06.06q.67-.54.81-.63a.41.41,0,0,1,.22-.11.17.17,0,0,0,.14-.06.74.74,0,0,0,.15-.23.85.85,0,0,1,.24-.29.44.44,0,0,1,.29-.12.23.23,0,0,0,.26-.26l-.06-.24.06-.12.12.06c.08,0,.23-.11.47-.35a0,0,0,0,0,0,0,2,2,0,0,1,.51-.38h.1s0-.08,0-.19a.62.62,0,0,0-.29-.06v-.12l0,0a.11.11,0,0,1,0,0,.05.05,0,0,1,.05,0,.38.38,0,0,1,.25.15c.08.1.15.15.19.15s.34-.16.67-.49.93-.93,1.79-1.83c1.56-1.7,2.34-2.66,2.34-2.9q0-.12-.09-.12c-.06,0-.08,0-.08-.05.15-.36.28-.53.38-.53s.06-.06.08-.06l.06.06a.05.05,0,0,0,.06-.06q-.06-.15-.09-.15a1.41,1.41,0,0,0-.85.5l-.32.06v-.06c0-.06.1-.15.29-.29l.5-.5s0-.06,0-.06a1.69,1.69,0,0,0-.38.06v-.06a.37.37,0,0,0,.24-.35V27.6c-.35.35-.6.52-.74.52l-.17-.05v.11c0,.1-.1.26-.31.47s-.41.42-.63.62-.36.29-.44.29-.12,0-.12.09v.06c0,.1-.08.14-.26.14a0,0,0,0,0,0,0,.47.47,0,0,1-.2.41l-.12.12L59.56,30c0-.23.26-.58.79-1,1.23-1.24,2.13-1.87,2.7-1.87h.17c.8.14,1.23.27,1.29.4a.86.86,0,0,1,.09.39c0,.27.06.41.18.41h.32a1.4,1.4,0,0,1,1,.56,12.76,12.76,0,0,1,.41,3.23,20.89,20.89,0,0,0,.35,3.24,2.22,2.22,0,0,1,.06.59l-.06.32.06.12c.12,0,.22.1.3.29a.72.72,0,0,0,.32.41.39.39,0,0,0,.29.18.16.16,0,0,0,.18-.18L68,36.77a.11.11,0,0,1,.12-.12c.07,0,.11,0,.11.06s0,.06,0,.06,0,0,0,0a.22.22,0,0,0,.06.07.53.53,0,0,0,.5-.35.3.3,0,0,1,.14-.2l.18-.09.09-.06-.06-.2s0-.06,0-.06l.32.06-.06-.06.3-.59L70.2,35a1.12,1.12,0,0,0-.08.18.3.3,0,0,1,0,.1.16.16,0,0,0,0,.09.19.19,0,0,1,0,.08l0,.14a.76.76,0,0,0-.08.23,3.83,3.83,0,0,0,.24-.31,1.18,1.18,0,0,1,.17-.2,1.05,1.05,0,0,1,.53-.08,1.87,1.87,0,0,0,.75-.33,5.61,5.61,0,0,0,1-.75.79.79,0,0,1,.67-.23s0,0,0,.06l-.06.11c.3-.1.44-.26.44-.5l-.26.09c0-.13,0-.2.06-.2h.38a.86.86,0,0,0,.47-.24l.79-.7.06.06A4.54,4.54,0,0,1,74,33.66l-.35.35c-.37.34-.56.53-.56.59a1.36,1.36,0,0,0,.62-.35l.38-.29.15-.06.35.35v-.06l.44-.67a1.53,1.53,0,0,0-.12.44,3.61,3.61,0,0,0,.35-.33l.33-.29a2.49,2.49,0,0,0,.23-.23,2.16,2.16,0,0,1,.5-.39.83.83,0,0,1,.29-.2,2.35,2.35,0,0,0,.44-.62,1.44,1.44,0,0,0,.26-.58l-.32.12c.06-.34.14-.5.24-.5.29.17.44.32.44.44l-.18.47a2.82,2.82,0,0,1-.76,1.08c-1.86,1.93-3.36,3.42-4.51,4.45-.65.55-1,.82-1,.82l-.09,0a1.23,1.23,0,0,0-.61.21,1.84,1.84,0,0,1-.44.2l-.16,0-.21,0a.25.25,0,0,0-.16,0,.14.14,0,0,0-.06.13c0,.06,0,.09,0,.1l.08,0h.06l.05,0-.22.27a.68.68,0,0,1-.49.14,4,4,0,0,1-2-.61,4.57,4.57,0,0,1-.94-.65,8.93,8.93,0,0,1-1.2-1.61l-.06-.12A1.41,1.41,0,0,1,64.6,36l.26.05,0-.08c-.35-.34-.52-.58-.52-.74s0-.38-.12-.44-.12,0-.12-.11l.12-.59h-.06l-.17.18-.06-.06.11-.47c0-.14,0-.21-.11-.21s-.12-.06-.12-.2,0-.38.09-.38A.08.08,0,0,0,64,32.9l-.06-.76a.05.05,0,0,0,0,0,.41.41,0,0,0,0,.1,1.12,1.12,0,0,1-.1.25q0,.12-.06.12l-.06-.5a2.66,2.66,0,0,0-.32-1.61c-.08,0-.12.15-.12.47v.2c0,.08,0,.12,0,.12l-.18-.18c-.06-.13-.12-.2-.18-.2s-.32.19-.67.58q-1,.82-6.62,7a13.59,13.59,0,0,1-1.23,1.28l-1,1.21a2.66,2.66,0,0,1-.86.95c-.5.4-.75.65-.75.76s-.15.2-.44.28A3.32,3.32,0,0,1,50.33,43.12Zm-1.87-2.4c.09,0,.19-.12.29-.36a2,2,0,0,0,.15-.77c0-.26,0-.42.11-.48L49.42,38l.36-1.32H49.6a.05.05,0,0,1-.06-.06,2.33,2.33,0,0,1,.21-.69c.13-.34.25-.67.35-1a1.19,1.19,0,0,1,.2-.61,3.77,3.77,0,0,0,.27-1,.87.87,0,0,1,.25-.52,1,1,0,0,0,.24-.58c.08-.19.16-.37.24-.52a1,1,0,0,0,.12-.41,1.21,1.21,0,0,0-.18-.38l.06-.06h.29l-.12-.13a.34.34,0,0,1,0-.17.39.39,0,0,1,0-.13,1,1,0,0,1,.07-.17,1.72,1.72,0,0,0,.07-.21l.06-.19.06-.2a.21.21,0,0,0-.18-.24,4.16,4.16,0,0,0-.36.29,2.4,2.4,0,0,0-.43.66,2.09,2.09,0,0,0-.23.84,3.63,3.63,0,0,1-.06.67l-.12.12.12-.59c-.06,0-.24.28-.53.82s-.4.85-.55.85,0,.06-.06.18l.06.32a.08.08,0,0,1,0,.05h-.22l.06.12c0,.15,0,.23,0,.23s-.11.11-.22.32a11.43,11.43,0,0,0-.53,1.7.67.67,0,0,1-.06.28.67.67,0,0,0-.06.28A6.07,6.07,0,0,0,48,37.79a8.07,8.07,0,0,0-.21,1.67c0,.61.12.93.36,1h.23a.75.75,0,0,0,.06.29Zm.14.85.12-.06c-.14-.23-.26-.35-.38-.35l-.12.06a.36.36,0,0,0,.13.24A.45.45,0,0,0,48.6,41.57Zm1.91-12.83.23-.26a1.74,1.74,0,0,0,.32-.65c-.13,0-.28.16-.44.47a.92.92,0,0,0-.17.38A.05.05,0,0,0,50.51,28.74Zm.17,2.52V31.2a1.76,1.76,0,0,1,.21-.7.55.55,0,0,1,.29-.27c-.06.18-.12.33-.17.46a2.28,2.28,0,0,1-.18.32A2.36,2.36,0,0,0,50.68,31.26Zm5.72,3.05-.24-.3a.6.6,0,0,1-.06-.29,2.29,2.29,0,0,1,0-.25c0-.09.2-.13.57-.13l.06-.06-.12-.41.12.12c.08,0,.15-.11.23-.34s.14-.34.18-.34a1.31,1.31,0,0,1-.18.74h-.06c0,.25,0,.41,0,.48a.31.31,0,0,1,0,.12h-.18C56.57,33.66,56.47,33.88,56.4,34.31Zm1.08-1.56c-.08,0-.12-.06-.12-.2a.46.46,0,0,1,.06-.28.3.3,0,0,1,.24-.07c.11,0,.17-.08.17-.24,0-.31,0-.47.06-.47a.29.29,0,0,0,.29-.17c.08-.2.16-.3.25-.32l.19-.06v-.18c0-.12.1-.17.3-.17l.46.17s-.06.13-.2.28a.65.65,0,0,1-.5.22l-.12-.06.06.06a.53.53,0,0,1-.13.38.36.36,0,0,1-.25.15L58,31.73s-.06.1-.06.31a1.05,1.05,0,0,1,0,.36.22.22,0,0,1-.18.06c-.09,0-.13.08-.13.24Zm1.08.3-.16,0s0,0,0-.1.06-.15.18-.21l.08,0,.06,0a.31.31,0,0,1,0,.18l0,.06Zm.3-.59a.72.72,0,0,1,.2-.44c.14-.15.23-.23.27-.23a.55.55,0,0,1-.06.26C59.07,32.32,58.94,32.46,58.86,32.46Zm.29-1.93c-.08,0-.12,0-.13-.05a.18.18,0,0,0-.05-.07q0-.12.24-.12l.23.06Zm.91.67-.12-.15s-.06-.07-.06-.17l.06-.12a.11.11,0,0,1,.12.12,1.22,1.22,0,0,0,.47-.24.27.27,0,0,1,.07-.08l.06,0,.22-.16c0,.1-.08.23-.25.4a3.07,3.07,0,0,1-.31.28C60.22,31.14,60.14,31.2,60.06,31.2Zm.23-.73.35-.41a1.36,1.36,0,0,1,.31-.24.69.69,0,0,1,.25-.08.26.26,0,0,1,.29-.3h.24a.12.12,0,0,1,.06.12l0,.06a1.89,1.89,0,0,1-.43.41.76.76,0,0,1-.3.1.67.67,0,0,0-.31.12A3.35,3.35,0,0,1,60.29,30.47Zm1.32,0c-.12,0-.17,0-.17-.12a.44.44,0,0,1,.29-.12q.12,0,.12.06a.08.08,0,0,1,0,.05l-.07.07A.2.2,0,0,1,61.61,30.47Zm.12-1.26V29a.08.08,0,0,0,0-.07.15.15,0,0,1,0-.07l0-.08.05-.11a.35.35,0,0,1,.11-.16l.06.11A.89.89,0,0,1,61.73,29.21Zm1.32-1.61c.19,0,.29,0,.29-.12a.2.2,0,0,0-.06-.15.23.23,0,0,0-.17,0H63l-.08.06-.13.13q0,.12.18.12Zm8,7.5S71,35,71,34.83l.2-.41h.12l-.18.24.06.06c.08,0,.19-.1.32-.3s.27-.29.39-.29.11,0,.11.06-.17.29-.52.53Zm1-1V34c0-.07.08-.19.24-.35l1.34-1.14c0,.08,0,.16-.07.25a1.45,1.45,0,0,1-.4.45C72.57,33.79,72.2,34.07,72,34.07Zm.85.35c.12,0,.18-.05.18-.17a.15.15,0,0,0,0-.08s0,0-.07,0-.18,0-.18.09S72.81,34.42,72.89,34.42Zm-.06.62q.18,0,.18-.21c0-.07,0-.11-.06-.11l-.18.11Q72.77,35,72.83,35Zm1-2.52c0-.08.12-.23.35-.45s.37-.34.41-.34-.11.25-.32.47S73.88,32.52,73.8,32.52Zm.12.59.11-.24.3-.23s0,0,0,.06A5.65,5.65,0,0,1,73.92,33.11Zm1.78-.47v-.06a4.2,4.2,0,0,1,.91-.82l.18-.09a4.54,4.54,0,0,1-.62.63C75.92,32.52,75.76,32.64,75.7,32.64Zm.38-2.05c-.09,0-.14-.22-.14-.65a.4.4,0,0,1,.13.13,1.52,1.52,0,0,0,.25.28A.69.69,0,0,1,76.08,30.59Zm.59.29.18-.35c.07-.28.17-.41.29-.41l.12.06c0,.11-.12.27-.36.46Z"/><path class="cls-1" d="M69.7,68.76l-.47-.06c-1.74-.35-2.84-1-3.31-1.79a2,2,0,0,1-.35-.77,1.16,1.16,0,0,0-.27-.57,1.89,1.89,0,0,1-.47-.74l.3.27a3.35,3.35,0,0,1,.06-1l.23.35c.1,0,.17-.21.2-.64l.12-.79a8.68,8.68,0,0,1,.35,1.32,6.48,6.48,0,0,0,.74,2.11l0,0,.06.08a.46.46,0,0,0,.14.1.51.51,0,0,0,.27.06l1.44-.12.12-.06v.24a2.81,2.81,0,0,0,1.08-.5.84.84,0,0,1,.5-.23l.12,0-.06-.17c0-.06,0-.11.14-.16a.63.63,0,0,1,.27-.08l.11.06s.06,0,.06,0,.08-.22.24-.38c.39-.45.65-.67.79-.67h.35a.94.94,0,0,1-.18-.24s.1-.15.3-.29l.44-.61.05-.24.3.12s.06-.06.06-.18,0-.11,0-.11h-.09c0-.06.12-.2.35-.41a1.12,1.12,0,0,0,.35-.33.53.53,0,0,0,.12-.29q0-.12.06-.12h0c.27,0,.41-.05.41-.14a3.05,3.05,0,0,1,.61-.91l.09-.15c0-.12,0-.18.13-.19s.32-.31.69-.91a6.61,6.61,0,0,0,.6-1.07c0-.11.06-.17.1-.17s.13-.08.27-.24a1.63,1.63,0,0,0,.38-.82.58.58,0,0,1,.06-.26c.1-.2.19-.29.29-.29a.66.66,0,0,0,.19,0,.77.77,0,0,0,.19-.16.05.05,0,0,1,.06-.06l.06.06a.82.82,0,0,1-.12.47.26.26,0,0,0-.17.23.05.05,0,0,0,0,0l.06,0,.06.06a.46.46,0,0,1,0,.16.23.23,0,0,0,0,.11.24.24,0,0,1-.06.14s-.07.07-.1.07,0,.08,0,.23,0,0-.09.09-.29.21-.29.32l0,.27-.11-.06c-.12,0-.46.48-1,1.43-.39.69-.62,1-.7,1a.11.11,0,0,0-.12.12c0,.07-.06.15-.17.23a9.92,9.92,0,0,0-1.32,1.67l-1,1.26a4.39,4.39,0,0,1-.79.79,15,15,0,0,1-2,1.61c-.47.2-.7.4-.7.62a14.11,14.11,0,0,0,1.55-.91,14.27,14.27,0,0,0,2.93-2.75l1-1.26c.27-.3.8-1,1.58-2.08a8.61,8.61,0,0,0,1-1.64l.5-.77a.81.81,0,0,0,.18-.38l-.12-.44a.88.88,0,0,1,.23-.46l.24-.47h-.06s-.14.09-.29.29a.69.69,0,0,0-.17-.29.27.27,0,0,0-.19-.06l.18-.27.12.15c.06,0,.15-.11.29-.32s.18-.41.23-.41l.33.23-.21-.41.27-.5v-.05h-.21l-.06.05,0-.05.09-.08a.24.24,0,0,1,.15,0,.26.26,0,0,0,.17-.09.77.77,0,0,0,.18-.45.5.5,0,0,1,.11-.34.05.05,0,0,1,.06-.06l.18.18L80,53.76a2.25,2.25,0,0,1,.5-1.2A3.68,3.68,0,0,0,81,51.47L82.24,49c.13-.29.36-.81.68-1.55s.52-1.17.58-1.27.09-.17.11-.17l.06.09a2.39,2.39,0,0,1-.06.53,1,1,0,0,0-.11.41l.17-.23.06,0c0,.16-.14.28-.41.36L83.2,47c0,.25.08.38.24.38l.11.06c0,.06-.07.14-.23.24h0l0,0a.55.55,0,0,0-.06.33L83.09,48a.05.05,0,0,0-.06.06l.06.29q-.21,0-.21,0l.06.41-.23-.06.05.12a2.68,2.68,0,0,1-.2.73,2.54,2.54,0,0,0-.21.7l.06.06.06,0,.12-.14a.32.32,0,0,0,.06-.18l.38-.91a4.67,4.67,0,0,0,.38-.85,1.45,1.45,0,0,1,.06-.19c0-.05.11-.29.29-.73s.41-.94.69-1.49.56-1.12.83-1.69a5.3,5.3,0,0,0,.5-1.46,1.27,1.27,0,0,1,.09-.47c.1-.37.19-.56.28-.56s.19-.13.31-.38a5.56,5.56,0,0,0,.46-1.49,2,2,0,0,1,.06-.44v-.09c.08-.49.16-.73.24-.73s.11,0,.11-.09c0-.31,0-.53,0-.66a2.83,2.83,0,0,0-.16-.63c0-.49.09-.74.16-.76a.31.31,0,0,0,.13-.06,4.48,4.48,0,0,1,.21-1,17.83,17.83,0,0,1,.88-2.49,2.26,2.26,0,0,0,.17-1A2.16,2.16,0,0,1,89,31a.67.67,0,0,0,.13-.46,1.6,1.6,0,0,1,.19-.7,2.14,2.14,0,0,0,.22-.78,1.77,1.77,0,0,0,.15-.61l.11-.24-.05-.06c-.1,0-.51.42-1.23,1.25l-1.18,1.33q-3.57,4.33-3.78,4.69a1.15,1.15,0,0,1-.29.23,26.27,26.27,0,0,1-3.84,3.9c-1.27,1.05-2.11,1.73-2.52,2a5,5,0,0,1-3.07,1c-.35,0-.53,0-.53.06a1.21,1.21,0,0,1-.44-.18,4.58,4.58,0,0,1-1.2-.79,1.15,1.15,0,0,1-.47-.91,1.14,1.14,0,0,0-.23-.53.91.91,0,0,1-.18-.58s0,0-.09,0-.08-.16-.08-.47,0-.45,0-.47l.12.06V38.5a.77.77,0,0,1,.15-.43.71.71,0,0,0,.14-.39l0-.18a.72.72,0,0,1,.11-.31c.08-.12.16-.19.24-.19l.06.06c0-.23,0-.35,0-.35l.06,0a1.23,1.23,0,0,0,0-.27.29.29,0,0,0,.33-.33l-.06-.35h.11c.06,0,.15-.07.27-.2a1.56,1.56,0,0,0,.44-.85.17.17,0,0,1,.08-.16.15.15,0,0,0,.09-.14s0-.08.09-.08.18-.12.35-.35a5,5,0,0,0,.82-1.32l.32-.5h.12l-.12.06v.2c.06,0,.14-.12.24-.38l.41-.53a.39.39,0,0,0,.26-.29,2.3,2.3,0,0,1,.59-.73,2.13,2.13,0,0,0,.38-.43,2.89,2.89,0,0,0,.18-.27l0-.06a1.57,1.57,0,0,1,.42-.35,1.46,1.46,0,0,0,.42-.46A13,13,0,0,1,79,27.28,8.65,8.65,0,0,1,80.74,26a.35.35,0,0,0,.3-.18l.17-.12.18.18h0a.83.83,0,0,0,0-.25l0,0a2.4,2.4,0,0,0,.74.11,1.72,1.72,0,0,0,.39,0c.13,0,.19-.07.19-.13l.12-.06a5.23,5.23,0,0,1,1.29.29A3,3,0,0,1,85,26a5.31,5.31,0,0,1,.76.65c.47.49.81.73,1,.73v.18A.55.55,0,0,0,87,28q.12,0,.12-.06L87,27.71l.06.06a.85.85,0,0,0,.22-.13,1.26,1.26,0,0,0,.34-.35,1,1,0,0,1,.46-.37.43.43,0,0,1,.24-.05l-.06-.18a.63.63,0,0,1,.13-.21,1.2,1.2,0,0,0,.11-.67c0-.37,0-.56.17-.57a.27.27,0,0,0,.24-.13,2.55,2.55,0,0,0,0-.65s0-.06,0-.06l-.18.12v-.06l.23-.41a.64.64,0,0,0,.33-.29l.11-.12a.27.27,0,0,1,.24.18,2.53,2.53,0,0,0-.06-.56c0-.12,0-.17.13-.17s.14-.07.15-.21a.42.42,0,0,1,.07-.26.35.35,0,0,1,.24-.06c.27,0,.41,0,.41.12l0,.05.53.06q.24.12.24.24l-.06.29c0,.08.05.12.14.12h.06a1.19,1.19,0,0,1,.59.29l.06,0c.21.23.38.35.5.35s.18.44.2,1.32,0,1.7-.12,2.52c-.15,1.23-.29,1.84-.41,1.84s0,.05-.06.15A6.26,6.26,0,0,0,92,31l-.06.2a34.18,34.18,0,0,1-1.14,4l-.32.91A4,4,0,0,1,90,37.44,5,5,0,0,1,89.56,39a4.37,4.37,0,0,0-.44,1.25c-1.68,4.43-2.69,7-3.05,7.61A44,44,0,0,1,82.59,55c-1,1.54-1.54,2.4-1.67,2.58a9.58,9.58,0,0,0-.68,1,2.49,2.49,0,0,1-.41.68s-.21.24-.46.73l-1.53,2.14c0,.06-.06.12-.17.17L76.41,64,75.26,65.3a3.08,3.08,0,0,1-.36.44c-.05,0-.24.25-.57.62-.2.19-.64.56-1.34,1.1a5.51,5.51,0,0,1-1.18.8l-.5.12A3.17,3.17,0,0,1,69.7,68.76Zm1.49-29.88.06-.12a.48.48,0,0,0-.06-.21.49.49,0,0,0-.06.27Zm.24-.44.11-.06c0-.08,0-.12-.07-.13a.19.19,0,0,1-.1,0l-.06.12A.11.11,0,0,0,71.43,38.44Zm0-.41s.13-.15.29-.44l.2-.38a6.08,6.08,0,0,0,.44-.91l0-.12-.06-.09s-.11.08-.16.22S71.88,37,71.43,38Zm.85,1.73a.08.08,0,0,0,.07,0l0-.06s0,0,0-.07a.05.05,0,0,1,.06-.06l.18.12c0-.1,0-.16-.08-.18l-.1-.06a.05.05,0,0,1-.06.06Zm.29-3.9a.1.1,0,0,0,.09-.06,3.23,3.23,0,0,1,.35-.53l-.27.18h.06A.66.66,0,0,0,72.57,35.86Zm.35,3c.06,0,.16-.11.29-.32a1.54,1.54,0,0,0,.33-.69A1.79,1.79,0,0,1,74,37a2.2,2.2,0,0,0,.44-.91.1.1,0,0,0-.11-.11c-.26,0-.38.2-.38.61a.57.57,0,0,1-.18.47q-.09.18-.18.18v-.12a5.9,5.9,0,0,0-.47.56,2.56,2.56,0,0,0-.32,1Zm.56,1.43a3.7,3.7,0,0,0,1.1-.46,3.82,3.82,0,0,0,1-.74,1.54,1.54,0,0,1,.29-.23q.18,0,.18-.12a14.93,14.93,0,0,1,1.84-1.76c.35-.43.65-.64.88-.64h0q0,.12-.48.54c-.33.28-.49.48-.49.6l.12.29-.18,0a1.39,1.39,0,0,0-.64.41c-.45.37-.67.61-.67.73l.11.06a.11.11,0,0,0,.12-.12.43.43,0,0,1,.24-.06c.09,0,.23-.12.41-.35l.08-.19a.11.11,0,0,1,.11-.07,3.91,3.91,0,0,0,.67-.44q.6-.45.6-.57c0-.09.28-.33.85-.72a6.56,6.56,0,0,0,.82-.85,1.2,1.2,0,0,0,.2-.18l.24-.2a3.3,3.3,0,0,0,.38-.41q.12-.06.12-.15c.23-.27.82-.92,1.76-1.93a4.68,4.68,0,0,0,.43-.56c1.37-1.68,2.06-2.54,2.06-2.58h-.12a.11.11,0,0,0-.09.05.54.54,0,0,0-.06.11.81.81,0,0,1-.06.13c-.07,0-.11-.05-.11-.17l0-.47h-.17l-.18.12.12.11c0,.06,0,.1,0,.12a5.4,5.4,0,0,0-.43.5,5.22,5.22,0,0,1,0-.62c0-.15.09-.23.21-.23s.23-.4.23-.91c0-.29,0-.47-.12-.53a5.33,5.33,0,0,0-1.84.53,9.12,9.12,0,0,0-1.73,1.14,32.67,32.67,0,0,0-5.66,6.13s0,0,0,0a7.32,7.32,0,0,0-.65,1,24.72,24.72,0,0,0-1.49,2.64l-.41,1S73.2,40.25,73.48,40.25ZM73.3,35l.06-.15c.08-.19.18-.29.29-.29h.09s0,0,0-.06l-.18-.23a.19.19,0,0,0-.17.12c-.1.19-.18.29-.25.29s-.1,0-.1.12,0,0,.07.11A.16.16,0,0,0,73.3,35Zm.88-.73s.18-.15.42-.46a2.2,2.2,0,0,0,.37-.51.83.83,0,0,0-.31,0s0,.07,0,.15q-.24,0-.24-.18a.18.18,0,0,1,.12-.17.65.65,0,0,0,.24-.3.05.05,0,0,0-.06-.06l-.27.22a.58.58,0,0,0-.14.43.11.11,0,0,1-.1.06h-.12s-.07,0-.1.13l-.18.37a.71.71,0,0,0,.22-.15,1.06,1.06,0,0,1,.22-.16l.12-.06a.23.23,0,0,1,.11,0v.18l-.26.44Zm-.12,28.86.12-.24a.05.05,0,0,0-.06-.06.48.48,0,0,0-.12.3Zm.62-27.31.06-.47.11-.06v.18s.09,0,.15-.12a1,1,0,0,0,.26-.61q0-.15.24-.27l.14-.08v-.06a.57.57,0,0,0-.38.17c-.5.53-.76.91-.76,1.14Zm.17,26.34q.12,0,.18-.18l.23-.41-.05-.06-.15,0a.33.33,0,0,0-.13.07C74.88,61.65,74.85,61.83,74.85,62.14Zm.12-29,.12-.06.12-.24-.12-.06-.12.18Zm.35-1.21.21-.11c.11-.12.17-.2.17-.24a.05.05,0,0,0-.06-.06.38.38,0,0,1-.13.09.29.29,0,0,0-.1.06l-.09.1a.24.24,0,0,0-.06.11Zm.32.3a.46.46,0,0,0,.21-.12c.1-.08.43-.42,1-1,.15-.09.23-.19.23-.29a.13.13,0,0,0,0-.06L77,30.6a.18.18,0,0,0-.16-.07,2.49,2.49,0,0,1-.56.91A5.31,5.31,0,0,0,75.64,32.2Zm.06,1.93c.1,0,.2-.09.3-.28a1.46,1.46,0,0,1,.36-.45,3.18,3.18,0,0,0,.37-.35L76.64,33c-.66.47-1,.83-1,1.08Zm0-2.81.18-.12c.16-.14.23-.22.23-.26L76,31Zm.53,7.91-.06-.12-.07,0a.3.3,0,0,0-.16,0Zm-.12,24.11.12-.12c.16-.08.23-.16.23-.25a2.19,2.19,0,0,1,.43-.67,2.43,2.43,0,0,0,.42-.63c-.07,0-.3.26-.68.78a6.48,6.48,0,0,0-.58.83Zm.12-3,.07-.1s.09-.13.16-.25a.58.58,0,0,0,.12-.32l-.23.26c-.16.14-.24.25-.24.35a.08.08,0,0,0,0,.05Zm.18-20.59a3.07,3.07,0,0,0,.64-.43c.37-.28.56-.45.56-.51l-1.15.82Zm.38,19.74s0-.06.06-.17,0-.24-.12-.24C76.73,59.35,76.75,59.48,76.79,59.5Zm.35-29.09c.43-.25.64-.41.64-.47h-.06Zm.29,31.14c.08,0,.2-.13.35-.41a2.12,2.12,0,0,1,.49-.61c.24-.24.36-.41.36-.52s.12-.28.37-.52A9.48,9.48,0,0,0,80,58a2.17,2.17,0,0,1,.2-.3l.38-.61a1.31,1.31,0,0,1,.36-.59.5.5,0,0,0,.17-.33c0-.11.16-.35.47-.72a1.21,1.21,0,0,0,.26-.51c0-.09,0-.14.12-.14a6,6,0,0,0,.88-1.55q1.41-2.77,2-4.19a5.13,5.13,0,0,1,.68-1.49l.06-.15a6.65,6.65,0,0,0,.35-.76A19.88,19.88,0,0,1,87,44.06l.24-.5c.13-.33.71-2,1.72-4.92a2.65,2.65,0,0,0,.38-1.08,5.74,5.74,0,0,0,.39-1.26,4.32,4.32,0,0,1,.26-.85l.12-.47a6.54,6.54,0,0,0,.23-1.26l-.12.12a12,12,0,0,0-.47,1.61,39.46,39.46,0,0,1-1.43,4.19,11.26,11.26,0,0,0-.5,1.58,14.56,14.56,0,0,1-.94,2.37,2.18,2.18,0,0,0-.32.84A6,6,0,0,1,86,45.94c-.28.54-.49,1-.65,1.37-.52,1.2-.88,1.95-1,2.26a12,12,0,0,1-.65,1.17V51c0,.07,0,.12-.08.13s-.09.07-.09.17a1.54,1.54,0,0,1-.21.57,3.25,3.25,0,0,1-.76,1.18L82,54.17a.34.34,0,0,1-.32.23l-.06.06.06.06a9,9,0,0,1-1,1.79,7.85,7.85,0,0,1-1.1,1.58l-.12-.06.06.12c0,.12-.1.27-.29.47a3.84,3.84,0,0,0-.73,1.2.11.11,0,0,1-.12.12.3.3,0,0,0-.18,0l.06.15c0,.14-.15.29-.44.47h.06l-.59,1.08S77.35,61.55,77.43,61.55Zm.35-22.91.53-.38c.18-.12.26-.19.26-.23a.76.76,0,0,0-.23-.18l.06.12V38s-.06.08-.18.11l-.38.3Zm0,19.19.12-.06.15-.23H77.9l-.12.23ZM77.9,39.7a2,2,0,0,0,.76-.44,22.28,22.28,0,0,0,2.46-2.11L83.26,35,84,34c1.06-1.36,2.24-2.83,3.55-4.39a2.45,2.45,0,0,0,.55-.65l.36-.43a2.32,2.32,0,0,0,.41-.47c-.12,0-.5.34-1.15,1L85.22,32a5.56,5.56,0,0,0-.82,1.13c0,.09-.09.16-.27.22s-.28.13-.28.21a.4.4,0,0,1-.09.23l-.88.85c-.27.37-.48.56-.61.56h-.36c-.09,0-.14,0-.14.11a.05.05,0,0,0,.06.06l.29-.12.12.06c0,.1-.07.17-.21.22a.25.25,0,0,0-.2.25v.12l-.15.06c-.16,0-.27.13-.35.38a3,3,0,0,1-.47.47,6.89,6.89,0,0,0-1.38,1.43l-.85.79a2.59,2.59,0,0,0-.52.43C78,39.57,77.9,39.66,77.9,39.7Zm.73,17.9c.14,0,.55-.6,1.23-1.79a10.89,10.89,0,0,1,.88-1.41,6.51,6.51,0,0,0,1.2-2.52s-.06,0-.06-.11a.39.39,0,0,1,0-.13s.08-.07.22-.11l.06.06-.06.18.29-.59,0,0-.06,0-.07.08a.09.09,0,0,1-.06,0,.11.11,0,0,1-.12-.12l.18-.79a2.53,2.53,0,0,0-.47,1.26c0,.12,0,.18,0,.19l0,0a.05.05,0,0,1,0,0,.14.14,0,0,0,0,.06v.15l-.2-.06c-.08-.12-.16-.18-.23-.18h0a.17.17,0,0,0,0,.12l-.18.38c-.16.18-.23.29-.23.35a.41.41,0,0,0,.27-.16,1,1,0,0,0,.25-.39l.12-.06.06.11a.91.91,0,0,1-.09.3,2.08,2.08,0,0,1-.22.38c-.09.12-.14.17-.16.17S81,53.1,81,53s0-.12-.09-.12,0,0-.09.06a.77.77,0,0,0,.07.16.66.66,0,0,1,0,.31,1.14,1.14,0,0,1-.11.44.32.32,0,0,1-.3.23v-.23q0-.09-.15-.18h-.06a1.5,1.5,0,0,1-.41.88c-.12.12-.21.18-.29.18,0,.17.06.26.17.26a.27.27,0,0,1,.18.23l-.06.06-.17-.06,0,.18,0,.06c-.1,0-.2.1-.3.29h.24a.5.5,0,0,1-.19.12.21.21,0,0,0-.14.17.46.46,0,0,0-.08.22c0,.07-.15.11-.44.11l0,.35c0,.27-.07.41-.19.41s-.19,0-.19.12Zm.85-19.87a7.41,7.41,0,0,0,1.19-1.09,8.17,8.17,0,0,0,1-1.07.53.53,0,0,0-.29.17c-.61.69-1,1-1.2,1,0-.14.18-.36.55-.68a1.81,1.81,0,0,0,.47-.64L81,35.39c0,.2-.34.59-1,1.19s-1,1-1,1.1A5.9,5.9,0,0,1,80,37l.06.06s0,0,0,.06a.64.64,0,0,0-.06.12.73.73,0,0,1-.15.17,1.53,1.53,0,0,0-.18.18A.6.6,0,0,1,79.48,37.73Zm-.11-1.93-.12-.12.12-.23.2-.06a0,0,0,0,1,0,0,.33.33,0,0,1-.09.22l-.12.13ZM80,55.08V55c.1-.45.19-.69.26-.73a.67.67,0,0,1,.3-.06v.12a.28.28,0,0,1-.16,0c-.07,0-.11,0-.11.06v0a.3.3,0,0,1,0,.16.16.16,0,0,0,0,.08C80.17,55,80.09,55.08,80,55.08Zm.5-17.52.11-.21c.16-.15.26-.23.3-.23a.05.05,0,0,1,.06.06A2,2,0,0,1,80.51,37.56Zm.7-2.11a.71.71,0,0,0,.12-.41l-.18.12Zm.29-.35c.12,0,.4-.27.85-.79a.66.66,0,0,0,.24-.41.67.67,0,0,0-.3.17C81.77,34.58,81.5,34.92,81.5,35.1Zm.79-.18.18-.17c.12-.12.41-.45.86-1a3.28,3.28,0,0,0,.69-.95c-.07,0-.11,0-.11.06l-1.44,1.61c-.19.12-.29.24-.29.35Zm.53-1.2.32-.32c.2-.18.3-.33.3-.47h-.18c-.12.06-.17.12-.17.18a2,2,0,0,0-.24.55Zm.85-1.14.35-.27s0-.05-.11-.05-.18.05-.18.17Zm.24,13.74h-.06a.41.41,0,0,1-.06-.27l.06,0,.11,0S84,46,84,46s-.15-.18-.23-.18a3.32,3.32,0,0,1,.61-1.61c.16-.31.26-.47.31-.47s.1-.05.16-.15l.06-.05v.14a.11.11,0,0,0,.12.12l.12-.06a.19.19,0,0,0,0,.09.15.15,0,0,1-.06.09L85,44c-.12,0-.23.12-.35.34a1.57,1.57,0,0,0-.18.75l-.11.23q-.12,0-.12.18l.06.12h-.21v.35C84.08,46.19,84,46.32,83.91,46.32Zm0-15.62s0-.09,0-.22a1.85,1.85,0,0,1,.18-.38,1.64,1.64,0,0,1,.26-.31,1.08,1.08,0,0,1-.19.62C84.09,30.61,84,30.7,83.91,30.7Zm.32,2,.12-.24.23-.26-.06-.06C84.42,32.14,84.33,32.32,84.23,32.7Zm.47-.62c.07,0,.11-.08.11-.23a.18.18,0,0,0-.16.07l-.07.1Zm.23-.47c.06,0,.2-.12.41-.35l.5-.5-.5.24c-.1.05-.14.1-.14.13a.09.09,0,0,1,0,.07l-.06-.06h0C85,31.14,85,31.3,84.93,31.61Zm.29,11.93.12-.47-.17.23-.24.12.18-.47a.05.05,0,0,1,.06-.06l.1.07a.48.48,0,0,0,.13.09.19.19,0,0,1,.09.19.66.66,0,0,1-.21.27ZM85.34,29l.15-.11-.27-.27h0a.11.11,0,0,0,0,.08.22.22,0,0,1,0,.1c0,.14.06.2.17.2Zm-.12,16.67.12,0a.66.66,0,0,0,.21-.53,1,1,0,0,0,.14-.31,1,1,0,0,1,.15-.31A11.51,11.51,0,0,0,86.41,43a4.23,4.23,0,0,0,.25-1l-.06-.12a.37.37,0,0,1,.21.06c.11,0,.19-.21.23-.64q0-.06-.12-.06c-.21,0-.32.08-.32.23a16.42,16.42,0,0,0-.82,2.61q0,.09-.12.09c-.07,0-.17.32-.29,1A2.48,2.48,0,0,1,85.22,45.64Zm.18-2.87-.06-.06a1.86,1.86,0,0,1,.06-.52c.12-.45.22-.68.32-.68a.16.16,0,0,1,.12.18l-.15.29a.66.66,0,0,0,0,.21c0,.08,0,.12,0,.14C85.56,42.63,85.48,42.77,85.4,42.77Zm.38-1.49-.06-.06.12-.22.13-.25c0-.1.1-.14.16-.14a.66.66,0,0,1,0,.23A2.13,2.13,0,0,1,85.78,41.28Zm.41-11h.06a.85.85,0,0,0,.12-.28v-.06l-.3,0s0,.05,0,.15a.39.39,0,0,1,0,.09.13.13,0,0,0,.07.08ZM87.1,41l.12-.06a.63.63,0,0,0,.11-.41.9.9,0,0,0,0-.25c0-.07-.06-.1-.14-.1s-.06,0-.06.11l.06.12a.09.09,0,0,0,0,.05l0,0a.21.21,0,0,0,0,.06.37.37,0,0,0,0,.14Zm.12-1.79h0a2,2,0,0,0,0-.4.91.91,0,0,0-.11.16.82.82,0,0,0,0,.19Zm.11-10.49.06-.14,0-.18c0-.2.06-.31.12-.35l.15-.12-.12-.06c-.1,0-.18.08-.25.22a1,1,0,0,0-.1.43C87.22,28.59,87.26,28.66,87.33,28.68Zm.36-1,.23-.11a.27.27,0,0,0,.2-.12l.09-.13a.17.17,0,0,0,0-.07.05.05,0,0,0-.06-.06,1.64,1.64,0,0,0-.27.26Zm.23.59.15-.12s-.07,0-.21-.06l-.12.06c0,.06,0,.1.05.11Zm-.06,10.46c.06,0,.13-.15.21-.44a1.88,1.88,0,0,0,.17-.59c0-.07,0-.11-.06-.11a.1.1,0,0,0-.11.11v.06a1.21,1.21,0,0,1-.08.49c0,.1-.1.16-.16.16s-.09,0-.09.11Zm.5-11.22.09-.06c.29-.23.44-.38.44-.44a.26.26,0,0,0-.16.09l-.19.17A1.25,1.25,0,0,0,88.36,27.54Zm.18-.44.11-.23a.05.05,0,0,0-.06-.06l-.17.23Zm.11-.88c.3-.29.48-.44.56-.44s.12-.06.12-.17l-.15-.24h-.06C89,25.65,88.79,25.93,88.65,26.22Zm.53,1.61.15-.06s0-.07,0-.17h-.2c-.12,0-.18,0-.18.11l.12.12Zm0-1a.23.23,0,0,0,.15-.24s0-.06-.06-.06l-.15.18v.12Zm.09-.59.35-.26c.19-.14.29-.24.29-.3h-.06A5.14,5.14,0,0,0,89.27,26.28Zm.47-1.08.05-.12V24.9c-.07,0-.11.08-.11.24Zm1.08-2.06s.06,0,.06-.05a.16.16,0,0,0-.18-.18l-.11.06,0,.06,0,0,.06,0A.13.13,0,0,0,90.82,23.14Z"/><path class="cls-1" d="M99.11,43.8a7.9,7.9,0,0,1-1.42-.15,4.76,4.76,0,0,1-1.17-.33,1.71,1.71,0,0,0-.6-.22l0,0c-.14,0-.32-.12-.56-.36a1,1,0,0,0-.53-.55.67.67,0,0,1-.24-.16.3.3,0,0,1-.11-.18s0-.07-.14-.07l-.06.06.06-.18,0,0h0a4.2,4.2,0,0,1-.24-.66,5.07,5.07,0,0,1-.2-1.47,5.84,5.84,0,0,1,.12-1.21c.07-.38.15-.57.23-.57l.12.11-.06-.23a9.94,9.94,0,0,1,.53-2.21c.35-1.13.53-1.69.55-1.69a1.76,1.76,0,0,1,.06.41,1.22,1.22,0,0,1-.06.41c0,.12-.07.18-.1.18s0,.06-.07.17l.06.09-.08,0s-.06.17-.1.48a1.24,1.24,0,0,1-.29.73l.06.12a3.61,3.61,0,0,1-.08.38c0,.12-.1.47-.22,1s-.19.93-.22,1a2.13,2.13,0,0,0-.07.27.52.52,0,0,1-.15.27l.06.17c.12,0,.18.21.18.62,0,.08.07.12.2.12l-.2.23.2-.06.06.12a2.57,2.57,0,0,0,0,.41s0,.06.1.06l.12-.12a.23.23,0,0,0-.11,0s-.07-.1-.07-.25a6.13,6.13,0,0,0,.18-1.15,30.23,30.23,0,0,1,2-6.62l.11-.38h0c.1,0,.15,0,.15-.14L97,32.08l.18-.12-.06-.11a.17.17,0,0,1,0-.12h.09l0,.06.06-.06-.11-.41.2.12h0v-.39c0-.31.06-.5.18-.58s.18-.18.2-.53.05-.38.09-.38a3.09,3.09,0,0,0,.38-1c.12-.48.23-.73.35-.73l.18.12-.06-.29A.3.3,0,0,1,99,27.6a.17.17,0,0,0,.12-.06.17.17,0,0,1,0-.12l.06.12a3,3,0,0,1-.23.76,14.37,14.37,0,0,1-1,2.23,4.71,4.71,0,0,0-.35,1l-.41,1a12.53,12.53,0,0,1-.68,1.57c-.09.14-.19.22-.29.22l-.06.23q0,.12.06.15l.06,0a1.21,1.21,0,0,0-.18.38,7.74,7.74,0,0,1-.5,1.9,10.84,10.84,0,0,0-.46,2.84,3.19,3.19,0,0,0,.23,1.32l.18.47V40.61a4.14,4.14,0,0,1,.14-1l.06-.7.53-1.7a2.24,2.24,0,0,1,.29-.91,9,9,0,0,0,.21-1,3.29,3.29,0,0,1,.17-.7c.12,0,.33-.47.65-1.41q1.72-4.16,2-4.92c.64-1.6,1.09-2.66,1.35-3.19a2.44,2.44,0,0,1,.35-.91q4-8.73,4-9l1.32-2.46a4.16,4.16,0,0,0-.64.05s-.5,1-1.44,3l-2.34,4.81a10.89,10.89,0,0,0-.5,1.05c-.12.2-.24.3-.35.3s-.12,0-.12-.09a1.53,1.53,0,0,1,.2-.7.64.64,0,0,1,.36-.36c.15-.06.29-.25.41-.58-.06,0-.23.13-.5.41a4.23,4.23,0,0,1,.64-1.23,3.59,3.59,0,0,0,.56-1.09,1,1,0,0,1,.12-.44c.19-.45.34-.67.44-.67a.16.16,0,0,0,.17-.12c0-.07-.06-.11-.17-.11a.67.67,0,0,1,0-.3c.12-.27.24-.41.36-.41s0-.05.08-.14a10.4,10.4,0,0,1,1.41-3.29h-.76q0,.24-.06.24l-.23-.06a0,0,0,0,0,0,0v.32s0,.06-.12.06-.12,0-.12.06l.06.23s-.05.09-.15.14a.21.21,0,0,0-.14.19l.06.29a.34.34,0,0,1-.18.29.76.76,0,0,0-.53.73.56.56,0,0,1-.19.36c-.09.05-.13.11-.13.17l.06,0c.08,0,.12.09.12.26s-.11.27-.33.46-.32.32-.32.39l.06.24L102.3,17s0,.17,0,.5a6.63,6.63,0,0,1-.59,1.35A5.12,5.12,0,0,1,101,20a6.79,6.79,0,0,1,.73-2.05q1.44-3.28,2.49-5.22h-.35c-2.25.12-4.11.26-5.6.41a25.24,25.24,0,0,1-3.1.24A3.19,3.19,0,0,1,93.3,13a2.2,2.2,0,0,1-.78-1.53v-.18a.89.89,0,0,1,.61-.82,1.78,1.78,0,0,1,.65-.21c0-.07,0-.11.06-.11s.26.17.79.17a17.54,17.54,0,0,0,2.14-.23h.44a.91.91,0,0,1,.38.06l.09,0a1,1,0,0,1,.61-.21.59.59,0,0,1,.44.15s0,0,.07,0a.15.15,0,0,0,.08.05v-.06s0-.06.11-.06a1.38,1.38,0,0,1,.85.35c.12-.23.24-.35.36-.35l.49.06-.39.1c-.11,0-.16.05-.16.07a6.29,6.29,0,0,0,1.49-.44l-.15.15a.36.36,0,0,0-.08.24s0,.05.06.05a3,3,0,0,1,.79-.08,2.18,2.18,0,0,0,.77-.06s.13-.07.31-.09l.76.06.15-.12q.18,0,1,.12a2.86,2.86,0,0,1,.5-.94q.09-.15.12-.15a4.13,4.13,0,0,1-.56,1.09h.3l.08-.18v.18l.15,0a.27.27,0,0,0,.12,0l.1,0,.1,0H107a13.58,13.58,0,0,0,.71-1.58v0l0,0,.11-.18.22-.37Q110.33,4,110.33,3.4q0-.12-.06-.12c-.09,0-.35.35-.76,1s-.61,1-.61,1.07a.25.25,0,0,1,0,.07.76.76,0,0,1,0,.11,1.33,1.33,0,0,1-.24.29l.18-.41s-.08,0-.12.12a1.05,1.05,0,0,0-.29.52l.06.21c0,.1-.09.15-.25.15s-.25,0-.25.08l.06.06a1.51,1.51,0,0,0-.47.12,5.21,5.21,0,0,1,.5-1,3.26,3.26,0,0,0,.29-.55,10.28,10.28,0,0,0-.61.93l-.91,1.41c-.57.92-.86,1.38-.88,1.38s.61-1.2,1.84-3.37Q110.36.94,111.3.29a1.73,1.73,0,0,1,1-.29h1.2l1.12.83a.61.61,0,0,1,.31.49,3,3,0,0,1-.7,1.08l-.65.79a74.29,74.29,0,0,0-4.1,6.89l2.61.2c2.7.22,4.1.42,4.22.62s.16.24.44.26.35.16.35.3l-.06.23a.5.5,0,0,0,.24.41c.15.18.23.3.23.38,0,.31-.42.47-1.26.47a20.36,20.36,0,0,1-3.37-.29c-.53-.08-.81-.19-.85-.33a.14.14,0,0,0-.09-.05l.06.32s0,.06-.09.06-.21-.09-.29-.27l0-.11h-.06l0,.11c0,.1,0,.15-.17.15a1,1,0,0,1-.35-.07c-.12-.05-.18-.1-.18-.14l.12-.11-.12-.06c-.21,0-.33,0-.34.09a.86.86,0,0,0,0,.16.28.28,0,0,1,0,.13q-1.76,0-2.34.06-2.46,4.8-4.84,10t-4,9.13a23.18,23.18,0,0,0-1.61,4.57l.06.17a1.15,1.15,0,0,1-.09.36,16.42,16.42,0,0,0-.65,2.22,9.56,9.56,0,0,0-.23,1.73,2.28,2.28,0,0,0,.16.87c.11.26.21.4.31.42a1,1,0,0,1,.26.09A5.92,5.92,0,0,0,100,40.93l.72-.47c.22-.16.44-.31.64-.47a1,1,0,0,1,.4-.23.9.9,0,0,0,.32-.14,10.93,10.93,0,0,0,1.17-.86c.2-.18.32-.26.38-.26l.18.26a0,0,0,0,0,0,0,1.87,1.87,0,0,1,.58-.94c.51-.52.82-.79.94-.79l.06.06a6.81,6.81,0,0,1-.53.79l.3-.2c.56-.47.92-.71,1.08-.71a.05.05,0,0,1,.06.06s0,.07-.09.09a.85.85,0,0,0-.26.2q0,.21-.15.21a.29.29,0,0,1-.15-.06l.06.06a.3.3,0,0,1-.09.19.91.91,0,0,1-.2.19.37.37,0,0,1-.21.09l0-.06V38l0,.06-.35.35-.06.2.18-.09a.75.75,0,0,1-.23.44l-.18.36c0,.07,0,.11.06.11a.15.15,0,0,0,.17-.17,1.18,1.18,0,0,0,.77-.41,1.52,1.52,0,0,1,.76-.41.29.29,0,0,0,.14,0c.14,0,.37-.27.71-.68l.32-.32-.59.29c-.05,0-.08,0-.08,0a.6.6,0,0,1,.23-.41,2.83,2.83,0,0,1,.37-.33.27.27,0,0,0,.13-.22c0-.08.1-.24.31-.47s.5-.59.89-1.09a4.49,4.49,0,0,1,.73-.85l.18-.18a.46.46,0,0,0,.06-.29h.11q.09,0,.12-.12a.37.37,0,0,1,.06-.15l-.12,0a.28.28,0,0,0-.29.26,15.78,15.78,0,0,1-2.13,2.53,14.15,14.15,0,0,1-2.15,2.13q0-.18,4.22-5a13.9,13.9,0,0,1,1.08-1.33.54.54,0,0,1,.24,0c.19,0,.29.19.29.56a1.54,1.54,0,0,1-.26.44,10.62,10.62,0,0,0-1,1.35c-.21.27-.43.52-.64.76s-.32.38-.32.44l.11.11a5.59,5.59,0,0,1-1.14,1.56,5.61,5.61,0,0,0-.76,1.14l.47-.47a1.3,1.3,0,0,1-.24.38l-.32.41c-.7.88-1.14,1.32-1.3,1.32a.86.86,0,0,0-.37.06v.06l.18-.06a8.51,8.51,0,0,1-1.12,1.14,11.43,11.43,0,0,1-1.92,1.44,14,14,0,0,1-1.52.61,4.58,4.58,0,0,1-1.23.32.58.58,0,0,0-.45.15s0,0,0,0A.66.66,0,0,1,99.11,43.8Zm-5.68-4.51-.06-.06a.35.35,0,0,1,.06-.24l.06.12Zm.17-29.15h0s0,0,0-.12a.24.24,0,0,1,.24-.21q.18,0,.18.09Q93.69,10.14,93.6,10.14Zm-.06,28.24V38a7.88,7.88,0,0,1,.36-1.47L94,36.3c.06-.18.1-.26.12-.26Zm.53.5.06-.18a.14.14,0,0,0-.12-.15h.06a.49.49,0,0,0-.06.27Zm.62,2.75-.06-.12a1.16,1.16,0,0,1-.32-.44V40.9l0,0a.22.22,0,0,0-.15.23.28.28,0,0,0,.13.22,2.11,2.11,0,0,0,.27.18A.42.42,0,0,0,94.69,41.63Zm-.32-6.24-.12-.23.06-.06c.09,0,.14.06.14.17Zm.26-.91-.06-.06v-.23q.12,0,.12.09Zm.29-1.2a16.16,16.16,0,0,1,.57-1.64,5.06,5.06,0,0,1,.69-1.52v.11l-.17.44-.44,1.21A4.55,4.55,0,0,1,94.92,33.28Zm.47.18h-.06a3.54,3.54,0,0,1,.38-1.23l.18-.44A3.89,3.89,0,0,1,95.73,33C95.62,33.31,95.51,33.46,95.39,33.46Zm.85-3.4h-.06L96.06,30a.14.14,0,0,1,.12-.15.12.12,0,0,1,.12.09v0l-.12.09Zm-.12,1.2-.06-.06a.49.49,0,0,1,.08-.22.83.83,0,0,1,.19-.23l.14-.11q.12,0,.12.09C96.59,30.87,96.44,31,96.12,31.26Zm.24-1.58h-.12a.48.48,0,0,1,.12-.3.05.05,0,0,0,0,0s0,0,0,0l0,.11C96.47,29.6,96.44,29.68,96.36,29.68Zm-.06,9.43.17-.23,0-.06-.06,0,0,0,0,.06a.13.13,0,0,0,0,.1A.05.05,0,0,0,96.3,39.11Zm.06-28.45,1.37-.11.24-.06s-.08,0-.24-.06a3.76,3.76,0,0,0-.52,0c-.22,0-.41.07-.59.11A.91.91,0,0,0,96.36,10.66Zm.11,28,.06-.14-.06-.12h0s0,0,0,.12S96.44,38.64,96.47,38.64Zm.06-9.43-.06-.06.18-.47.06.12a.33.33,0,0,1,0,.15.19.19,0,0,0,0,.1.22.22,0,0,1,0,.1A.1.1,0,0,1,96.53,29.21Zm-.06,1.2v-.23c.22-.65.37-1,.44-1l-.08.29.26-.06v.06c-.06.16-.11.28-.15.37a1.5,1.5,0,0,1-.11.22.19.19,0,0,1-.16.09C96.6,30.18,96.53,30.25,96.47,30.41Zm.06,7.85c.1,0,.15-.13.15-.41l0-.29s-.09.09-.15.26a1.87,1.87,0,0,0-.09.32Q96.47,38.26,96.53,38.26Zm.24-1c.06,0,.15-.2.29-.59a1.31,1.31,0,0,0,.09-.47c-.06,0-.12.12-.18.35S96.85,37,96.77,37.24Zm.2-9.17a2.84,2.84,0,0,1,.19-.6c.13-.33.22-.49.28-.49a.05.05,0,0,1,.06.06Zm.12,1.2a.46.46,0,0,0,0-.19L97,28.93a.25.25,0,0,1,0-.07s0-.06.15-.06.15,0,.16-.09a.24.24,0,0,1,0-.12h-.17a.29.29,0,0,1,0-.11,1.05,1.05,0,0,0,.08-.25c0-.11,0-.16.11-.16l.24.11H97.5a.11.11,0,0,0-.12.12l.06.24a.85.85,0,0,1-.23.61Q97.12,29.27,97.09,29.27Zm.29-19s0,0,0,0h-.28l-.06.05Zm-.11,25.49c.09,0,.16-.09.2-.26a2,2,0,0,0,.06-.35l-.09.06c-.23.21-.35.36-.35.43a.11.11,0,0,0,.12.12Zm.23-7.85h-.06v-.12l.12-.23s.06,0,.06.12S97.58,27.89,97.5,27.89ZM97.44,35s.09-.06.16-.19a2.24,2.24,0,0,0,.18-.44,1.4,1.4,0,0,0,.07-.39q0-.12-.06-.12c-.06,0-.09,0-.1.07a.22.22,0,0,1,0,.09S97.58,34.34,97.44,35Zm.12-8.17-.06-.18.06-.12h0s0,0,0,.15S97.6,26.81,97.56,26.81Zm.12,4.07,0-.12c0-.12,0-.17-.11-.17C97.62,30.78,97.64,30.88,97.68,30.88Zm.23-19.31c.08,0,.12,0,.12-.11l-.12-.06-.18.11Zm.18,15.59L98,27A.18.18,0,0,1,98,27a.07.07,0,0,0-.07,0l-.18.12c0-.21,0-.33.15-.35s.14.09.18.26A.66.66,0,0,1,98.09,27.16Zm-.3-1v-.09q0-.29.06-.33a.23.23,0,0,0,.07-.08l0-.05a.85.85,0,0,1,0,.29C97.86,26.07,97.81,26.16,97.79,26.16ZM98,33.72a1.2,1.2,0,0,0,.17-.38,9.94,9.94,0,0,0,.91-2.46s-.11.11-.23.32a3.54,3.54,0,0,0-.53,1.44l-.09.29A4.84,4.84,0,0,0,98,33.72Zm.2-23.29,1.38-.18-.56,0A1.9,1.9,0,0,0,98.17,10.43Zm0,14.77v-.06a.92.92,0,0,1,.09-.38,1.88,1.88,0,0,1,.21-.37c.07-.11.13-.16.17-.16l-.11.32C98.37,25,98.25,25.2,98.17,25.2Zm.36-13.69c.23,0,.35,0,.35-.11l-.53-.06q-.12,0-.12.06c0,.07.07.11.21.11ZM98.29,26a1.27,1.27,0,0,1,.12-.41c.12-.28.19-.41.23-.41l.12.17-.12.41-.06.07s0,0,0,0v-.06A.47.47,0,0,1,98.29,26Zm.53-1.26h0v0s0,0,0-.09l.09-.26c.86-2.5,1.44-3.76,1.76-3.76,0,0,.08,0,.08.12s0,.12-.06.12a.3.3,0,0,1-.14-.06v.5l-.18-.12.06.47-.12-.12s-.11.07-.16.21a1.53,1.53,0,0,0-.07.51c0,.21,0,.31-.09.31a.26.26,0,0,0-.14,0,.12.12,0,0,0-.06.12s0,.05.08.05a.08.08,0,0,1,.09.09.27.27,0,0,1,0,.12.23.23,0,0,0,0,.09c-.15.39-.29.58-.41.58v-.09c-.09,0-.18.17-.26.5a2.27,2.27,0,0,0-.06.59l-.17-.18Q98.94,24.76,98.82,24.76Zm.06-1a.05.05,0,0,1,0,0,1.1,1.1,0,0,1,0-.22h0A.71.71,0,0,1,98.88,23.76Zm.06,3.46a.05.05,0,0,1-.06-.06,1.15,1.15,0,0,1,.26-.27,1,1,0,0,0,.29-.73c0-.17.06-.26.12-.26v-.29a1,1,0,0,1,.44-.74.4.4,0,0,1,.26-.11l-.2.23a1.63,1.63,0,0,0-.22.25.51.51,0,0,0,0,.25.5.5,0,0,0,.23-.18v.12A15,15,0,0,0,99.35,27a.18.18,0,0,1-.09.15A.75.75,0,0,1,98.94,27.22Zm1.2-15.71c.66,0,2.15-.07,4.45-.23l.12-.32a49.13,49.13,0,0,0-5.48.35l-.29,0A4,4,0,0,0,100.14,11.51ZM99.2,30.76a0,0,0,0,0,0,0c0-.17,0-.26-.06-.26s-.12,0-.12.09S99.1,30.76,99.2,30.76Zm0-.41s0,0,.07,0a.15.15,0,0,0,0-.08c0-.11,0-.17-.12-.17a.11.11,0,0,0-.12.12v.13S99.15,30.35,99.23,30.35Zm.26-.41c.08,0,.12-.13.13-.39s0-.4.12-.4.16-.15.28-.44a.33.33,0,0,1,0-.1.5.5,0,0,0,0-.19.56.56,0,0,1-.15.1.16.16,0,0,0-.09.16,3.55,3.55,0,0,0-.49,1.11.15.15,0,0,0,0,.11A.13.13,0,0,0,99.49,29.94Zm1.06-19.16-.35-.06H100A2,2,0,0,0,100.55,10.78Zm-.5,13.86h0l-.06-.06.85-1.9c0-.34.1-.5.18-.5l.17.11v-.23a.11.11,0,0,1,.12-.12q.12,0,.12.24l-.12.44c-.63,1.19-1,1.78-1,1.78h-.09s-.08,0-.08.12S100.11,24.64,100.05,24.64Zm.09,3.48s.06,0,.13-.08a.6.6,0,0,0,.15-.18l0-.13a.25.25,0,0,0,0-.07h-.06c-.23.17-.35.33-.35.46Zm.47-.84a.84.84,0,0,1,.19-.3.47.47,0,0,0,.13-.29v-.12a1.22,1.22,0,0,0-.32-.11Zm.55-16.5q.3,0,.3-.12s-.06,0-.18-.05l-.47.05c0,.08.08.12.23.12Zm0,7.62-.06-.06a.23.23,0,0,1,.08-.16.21.21,0,0,1,.16-.07Zm.06,7.44.32-.7a3.18,3.18,0,0,0,.33-1,.05.05,0,0,0-.06-.06.69.69,0,0,0-.12.29q0,.18-.18.18l-.05.12a1.87,1.87,0,0,1-.12.6A1.66,1.66,0,0,0,101.22,25.84Zm.91-16.08H102c-.1,0-.14,0-.14-.06h.2Q102.13,9.7,102.13,9.76Zm.12,1a.53.53,0,0,0,.23-.06c0-.07-.1-.11-.29-.11s-.32,0-.32.11A.85.85,0,0,0,102.25,10.72Zm-.38,13a2.21,2.21,0,0,0,.23-.29,9.87,9.87,0,0,0,.7-1.38,1.28,1.28,0,0,0,.15-.5l-.12.06a10.81,10.81,0,0,0-.85,1.73A1.19,1.19,0,0,0,101.87,23.76Zm.55-8.12,0-.05q.12-.3.21-.3,0,.15-.06.18C102.54,15.59,102.48,15.64,102.42,15.64Zm.18.85.06,0a.26.26,0,0,0,.11-.18.05.05,0,0,0-.06-.06C102.64,16.2,102.6,16.3,102.6,16.49Zm.41-5.77a.94.94,0,0,0,.35,0c.06,0,.09-.06.09-.07h-.79c0,.07.07.11.23.11Zm.32,3a.51.51,0,0,1,.15-.32s0-.06.08-.06a.3.3,0,0,1,0,.2Q103.36,13.74,103.33,13.74ZM103.68,40c.43-.31.65-.5.65-.56-.16,0-.39.19-.71.56Zm.41-29.41,0,0s0,0,0,0h-.47A1.51,1.51,0,0,0,104.09,10.61Zm.06,8.46.18-.35v-.06A.51.51,0,0,0,104.15,19.07Zm.73-8.41.06-.11-.53.06S104.57,10.66,104.88,10.66Zm-.17.62.23-.06.18-.26h-.3Zm.52-.62.12-.11h-.29l-.06.11Zm0,28.8.12-.06a.48.48,0,0,0,.15-.1l.22-.17a1.12,1.12,0,0,0,.19-.19l-.09,0a1.41,1.41,0,0,0-.41.25C105.29,39.32,105.23,39.4,105.23,39.46Zm.06-28.24c.67,0,1,0,1-.1a.91.91,0,0,1,.06-.16h-1.09Zm0,5.39.44-.79.47-1h-.06a5.23,5.23,0,0,1-.47.68h-.08a2.46,2.46,0,0,1-.18.67A1.34,1.34,0,0,0,105.29,16.61ZM105.67,37c-.09,0-.15-.07-.17-.2a.24.24,0,0,1,0-.15l.06.06c.06,0,.26-.19.61-.56a9.31,9.31,0,0,1,1.56-1.55,17,17,0,0,1-1.79,2.17C105.81,36.92,105.73,37,105.67,37Zm-.2-.82a.4.4,0,0,1,.06-.13.76.76,0,0,1,.1-.15l.09-.1a.22.22,0,0,1,.07-.07l.06,0H106Zm.38-25.52c.29,0,.45,0,.47-.05s-.22-.1-.65-.12c0,.12,0,.17-.14.17Zm0,28.92a2.77,2.77,0,0,0,.42-.34,2.37,2.37,0,0,0,.4-.36.61.61,0,0,0-.29.13,2.87,2.87,0,0,0-.4.31c-.13.11-.19.2-.19.26Zm.12-26h-.06a.27.27,0,0,1,.09-.24h0s0,0,0,.06a.19.19,0,0,1,0,.12S106,13.54,106,13.54Zm-.06,22,.35-.36s.06,0,.06,0a.14.14,0,0,1,0,.06l0,.06a.1.1,0,0,1,0,0l-.1,0-.13.07A.21.21,0,0,1,105.91,35.57Zm.29-26.28-.06-.06V9.05l.12.06Zm.06,27.48h-.06a10.83,10.83,0,0,0,.91-1l.7-.76a3.43,3.43,0,0,1-.67,1C106.69,36.49,106.4,36.77,106.26,36.77Zm.12,1.55-.12-.06-.06-.12h.12c.08,0,.13-.06.16-.2s.07-.21.13-.21l.07.05a.09.09,0,0,1,.06.06.18.18,0,0,0,.05.07l0,.06C106.66,38.2,106.53,38.32,106.38,38.32Zm.11-29.5c-.07,0-.11,0-.11-.09s.11-.16.35-.18a.15.15,0,0,0-.07-.1.86.86,0,0,1-.17-.13l0-.06a.73.73,0,0,0,.24-.42c0-.15.08-.22.17-.22s.12.06.12.17a1.12,1.12,0,0,1-.12.35l.12.18c0,.1-.07.18-.2.23S106.55,8.82,106.49,8.82Zm.44,3.4V12.1h-.32q0,.12.24.12Zm.53-1.06.12-.2H107l-.14.2Zm-.23-3.6q-.18,0-.18-.06l.06-.15c.21-.27.35-.41.41-.41l.06.12a.11.11,0,0,1-.08,0s-.08,0-.16.15v.11h.06q.12,0,.12.09s0,0,0,0l-.08,0A.38.38,0,0,1,107.23,7.56Zm0,.64-.12-.06V8.09l.06-.12h.09l.06.12C107.29,8.16,107.26,8.2,107.2,8.2Zm.5,2.46,0-.11-.58.06v.05Zm.29-.46,1.14-2.35c0-.33.08-.5.12-.5l-.06.38a.56.56,0,0,0,.15-.08,9.31,9.31,0,0,0,.6-1.19,5.75,5.75,0,0,0,.51-1.36c-.16,0-1.13,1.62-2.93,4.86a.17.17,0,0,0,.12,0,.39.39,0,0,0,.14,0A.27.27,0,0,1,108,10.2Zm0,24.37c.29-.33.49-.5.58-.5v.06Zm1.55-22.29a3.49,3.49,0,0,0-1.26-.18q0,.15-.06.18Zm-1.2-7.36s0,0,.1-.09a.23.23,0,0,0,.07-.17h-.11c-.08.06-.12.12-.12.17Zm.17,31.32s.07,0,.15-.1a1,1,0,0,0,.18-.19.92.92,0,0,0,.07-.13.31.31,0,0,0,0-.08q-.09,0-.33.3A.25.25,0,0,0,108.54,36.24Zm.3-31.32s0,0,.1-.09a.23.23,0,0,0,.07-.17h-.11l-.12.17Zm7.85,7.18L117,12c0-.06-.33-.16-1-.32a17,17,0,0,0-3-.47c-1.27-.12-2.62-.19-4-.23a.29.29,0,0,0-.12.2c1.35.12,2.87.29,4.57.53C115.26,12,116.36,12.1,116.69,12.1ZM109,32.46V32.4c0-.06.07-.17.21-.35a.18.18,0,0,1,.15-.09A2.87,2.87,0,0,1,109,32.46Zm.91-26.16h-.06c-.07,0-.11,0-.11-.06a.21.21,0,0,1,0-.09.17.17,0,0,1,.12-.06l.12.09v0S110,6.28,109.92,6.3Zm.18,6.12.06-.09-.12-.17a.17.17,0,0,0-.12.06.18.18,0,0,0,.06.14A.17.17,0,0,0,110.1,12.42Zm0,21c.08,0,.11,0,.11-.12s0-.12-.11-.12l-.12.06Zm.23-.3s.07-.07.13-.23.15-.23.24-.23.13-.07.13-.21,0-.09-.06-.09-.1.05-.19.13a1.29,1.29,0,0,0-.22.3.57.57,0,0,0-.09.28Zm2.17-22.32,0,0s0,0,0,0l-2.23-.17,1,.14Zm.5,1.64a1.42,1.42,0,0,0-.44-.06S112.71,12.48,113,12.48Zm.06-1.58,0-.06q0-.12-.24-.12l-.17.06a.05.05,0,0,0,0,.05l.07,0A.7.7,0,0,0,113.06,10.9Zm2.63.12c0-.08-.07-.12-.2-.12l-.12.06s0,0,0,0A1.09,1.09,0,0,0,115.69,11Zm.94-.06h-.06a.2.2,0,0,1-.11,0,.1.1,0,0,1-.06-.09.15.15,0,0,1,.11-.06Z"/><path class="cls-1" d="M110.8,42.33a2.6,2.6,0,0,1-.89-.26,3.3,3.3,0,0,1-1.19-.91,2.69,2.69,0,0,1-.56-1.81,6.29,6.29,0,0,1,.8-2.88,20.62,20.62,0,0,1,.87-1.93,10.12,10.12,0,0,1,.71-1.38l.5-1c.13-.24.23-.35.3-.35s.17-.18.31-.53.18-.56.25-.56.22-.19.47-.58a2.9,2.9,0,0,0,.36-.68c0-.06.08-.13.24-.23a.09.09,0,0,0,0-.07.19.19,0,0,1,0-.08l.41-.57a13.46,13.46,0,0,1,1-1.21,6.76,6.76,0,0,0,.82-.85l.08-.09a.33.33,0,0,1,.06-.08.13.13,0,0,1,.07,0,2.05,2.05,0,0,1,.41.18.17.17,0,0,0,.16-.08.83.83,0,0,1,.13-.16l-.23.12q-.09,0-.24-.21c0-.11.38-.17,1.15-.17a3,3,0,0,1,1.36.22,5.51,5.51,0,0,1,1.24,1.3,6.82,6.82,0,0,1,.65,1.12c.06,0,.16-.08.32-.24a4,4,0,0,0,.45-.54,1,1,0,0,0,.22-.44.14.14,0,0,1,.14-.15q.12,0,.36-.3l.06-.24-.06-.06.27-.35a1,1,0,0,0,.26-.38.49.49,0,0,1,0-.12,1.2,1.2,0,0,1,.06-.17.67.67,0,0,1,.16-.24l.06-.29a.05.05,0,0,1-.06-.06s.06,0,.18-.07l.39-.09a2,2,0,0,1,.4,0c.49,0,.73.07.73.23l-.23.5v.12l.17.05a1.38,1.38,0,0,1,.62-.17s0,.09,0,.22,0,.19.12.19h0c.08,0,.13.09.15.26a7.41,7.41,0,0,1-.88,2.32,46.73,46.73,0,0,0-2.55,6.06c-.13.47-.23.71-.29.73a4.88,4.88,0,0,0-.29.94,12.37,12.37,0,0,0-.47,2.61,1.9,1.9,0,0,0,0,.6s.12,0,.28,0a2.15,2.15,0,0,1,.46-.06c.12,0,.19,0,.19-.14s.23-.33.7-.71a6,6,0,0,0,1-.76c.11-.15.2-.23.26-.23a.14.14,0,0,0,.13-.09.68.68,0,0,1,.13-.18c0-.19.11-.29.25-.29s.36-.18.63-.55a.56.56,0,0,0,.15-.36l.12.09A.23.23,0,0,0,125,36a1.3,1.3,0,0,1,.2-.36c.14-.25.25-.38.33-.38a.22.22,0,0,0,.14,0v0l.06-.14h0c.06-.14.11-.22.16-.24l.11,0v-.12l.17-.18c.14-.1.21-.17.21-.23v-.12a.27.27,0,0,1,.17-.06.29.29,0,0,0,.06-.17l.12.06c0,.15-.21.45-.62.9a16.34,16.34,0,0,0-2,2.49c.06,0,.25-.15.57-.47s.87-.92,1.66-1.84l-.06-.06.17-.26a12.6,12.6,0,0,0,.88-.94,27.22,27.22,0,0,1,2.17-2.46l.23-.44c.18-.1.27-.19.27-.26a.21.21,0,0,1,.06-.17.17.17,0,0,1,.11,0s.06-.06.06-.18l-.11-.05-.21.05v-.05a.58.58,0,0,1,.26-.06c.24,0,.36.06.36.17a.83.83,0,0,1-.15.28,1.23,1.23,0,0,1-.16.22l0,0a.05.05,0,0,0,0,0l0,0a1.18,1.18,0,0,1-.35.26.55.55,0,0,0-.17.35s0,.07,0,.14-.09.16-.25.27a1.94,1.94,0,0,0-.23.25.8.8,0,0,0-.15.31c-.11.16-.21.24-.29.24s-.13,0-.15.08a1.29,1.29,0,0,0-.17.33s0,0,.06,0l.05,0,.06,0c-.19.28-.35.41-.47.41l.06-.17c-.06,0-.14.06-.25.19a.41.41,0,0,1-.27.19v.06a.75.75,0,0,0,.52.12,1,1,0,0,0,.28,0l.15,0s0,0,0,0l-.06-.12h-.11v-.06l.11-.26a.05.05,0,0,0,.06-.06,1.43,1.43,0,0,1,0-.31s.06,0,.14,0,.2-.1.34-.29l.35-.44c1-1,1.53-1.5,1.73-1.5a1.72,1.72,0,0,1-.23.68h0l-.08.14a3.35,3.35,0,0,0-.53.76,1.52,1.52,0,0,0-.15.69,4.13,4.13,0,0,1-1,1.66l-1.23,1.55a12.85,12.85,0,0,0-1.44,1.61,26.16,26.16,0,0,1-2.11,2.45,4.31,4.31,0,0,1-1.49,1,5.57,5.57,0,0,1-1.73.23,5.89,5.89,0,0,1-.68,0,.83.83,0,0,1-.76-.41c-.08-.07-.12-.11-.14-.11s-.25-.11-.4-.31A3.26,3.26,0,0,1,119,40c-.09-.33-.19-.5-.29-.5s-.18-.16-.26-.48a5,5,0,0,1-.12-1.19,2.53,2.53,0,0,0-.06-.85l-.12.29.12-1.61-.06-.23A32.09,32.09,0,0,1,115.37,39a19.23,19.23,0,0,1-3.16,2.91A2.52,2.52,0,0,1,110.8,42.33Zm-1-5.27a2.17,2.17,0,0,0,.36-.59,3,3,0,0,0,.26-.61,1.48,1.48,0,0,0-.29.38A2.68,2.68,0,0,0,109.83,37.06Zm.68-1.38.11-.11.12-.3v-.06a.71.71,0,0,0-.1.14l-.09.16A.35.35,0,0,0,110.51,35.68Zm.41,3.9a.65.65,0,0,0,.36-.12c.13-.07.19-.15.19-.22a.25.25,0,0,1,0-.16l.07-.09h.12l-.06.12.12-.12a8.14,8.14,0,0,1,1.3-1.55,8.14,8.14,0,0,0,1.39-1.35l.91-1.17.06.12a1.11,1.11,0,0,1-.56.82,1.36,1.36,0,0,0-.41.73.11.11,0,0,0,.12.12c.12,0,.18,0,.18-.13s.2-.35.61-.78A9.38,9.38,0,0,0,116.81,34L118,32.4a18.78,18.78,0,0,0,1.29-1.78c.15-.3.28-.44.36-.44s.14,0,.14-.12l-.06-.12-.24.12a.41.41,0,0,0-.41.35,1,1,0,0,1-.49.47l-.24.5h-.06a.05.05,0,0,1-.06-.06,10.1,10.1,0,0,1,1-1.47c-.76-.17-1.14-.35-1.14-.52l.06-.53h.05l0,.12a.18.18,0,0,0,.15.11V29c-.23-.48-.41-.73-.53-.73l-.26.06a9,9,0,0,0-1.64,1.79,32.38,32.38,0,0,0-3.52,5.68,15.23,15.23,0,0,0-1.49,3.69Zm.29-5.51.15-.11.17-.39-.06,0a1.46,1.46,0,0,0-.26.3l0,.12a.25.25,0,0,0,0,.07A.05.05,0,0,0,111.21,34.07Zm.62-1a.37.37,0,0,0,.11-.24c0-.08,0-.11-.06-.11l-.11.23v.12Zm.2-.53q.21-.12.21-.18s0-.06,0-.07l0,0v0h0l-.07.08a.32.32,0,0,0-.1.13.49.49,0,0,1-.08.1Zm1.41,6.3a5.87,5.87,0,0,0,1.32-1.2,7,7,0,0,0,1.14-1.34.31.31,0,0,1,.17-.24l.39-.24v.12l.05.06.11,0s.07-.13.07-.31a5.42,5.42,0,0,1,1.49-2.46c.28-.27.41-.46.41-.58s0-.06.11-.13.2-.23.39-.49a2.29,2.29,0,0,0,.7-1.32l-.17.12-2.4,3.2a15.17,15.17,0,0,1-1,1.4c-.47.59-.71.9-.72.94l0,.12a.11.11,0,0,1-.07.08,4.48,4.48,0,0,0-.48.58,9.15,9.15,0,0,1-.6.71c-.49.51-.75.79-.79.85A.32.32,0,0,0,113.44,38.82Zm.94-1.76c.09,0,.14,0,.14-.12s0-.07-.09-.11a.24.24,0,0,0-.14-.06l-.06.11Q114.23,37.06,114.38,37.06Zm.43,1.32.12-.06.27-.23a.05.05,0,0,0-.06-.06Zm1.09-4h0s0,0,0-.11a.34.34,0,0,1,0-.09.77.77,0,0,1,.06-.15.52.52,0,0,1,.22-.17s.06,0,.06.11A.44.44,0,0,1,115.9,34.42Zm.06,2.64c.06,0,.28-.21.67-.64a.69.69,0,0,0-.35.23C116.06,36.85,116,37,116,37.06Zm.44-3.22-.06-.06c0-.08.12-.22.35-.44l.06.06a.35.35,0,0,1-.21.32Zm.64,2.52.06-.27a1.21,1.21,0,0,1,.18-.58l0,0a.4.4,0,0,0,.14-.13.45.45,0,0,0,.07-.19q0-.12-.06-.12l-.32.47c-.1,0-.15.13-.15.41l-.17-.12-.12.38h.12a.18.18,0,0,1,.17.07A.36.36,0,0,0,117,36.36ZM117,33.05a1.35,1.35,0,0,1,.19-.41c.13-.22.24-.33.34-.33a.55.55,0,0,1-.29.5Zm1.26,1.26-.12-.12a.42.42,0,0,0-.35-.18.36.36,0,0,0,0,.11A1.46,1.46,0,0,0,118.24,34.31Zm-.29.47a.24.24,0,0,0,.12-.18l-.18-.18q-.12,0-.12.18l.12.18Zm.23-.94.18-.27.23-.46-.17,0C118.26,33.24,118.18,33.47,118.18,33.84Zm.24,3.66.29-.62h-.06a.23.23,0,0,1-.13,0C118.45,36.94,118.42,37.13,118.42,37.5Zm.06.59s.06,0,.06-.12a.72.72,0,0,0-.06-.29s-.06,0-.06.17S118.44,38.09,118.48,38.09Zm.06.73,0,0a1.5,1.5,0,0,0,0-.3h0l-.06.14Zm0-2.35c.06,0,.12,0,.18-.14a2.7,2.7,0,0,0,.15-.29l-.15-.12c-.06,0-.14.11-.23.32v.21S118.55,36.47,118.59,36.47Zm.62-1.87.17-.06c0-.12,0-.17-.17-.17a.19.19,0,0,0-.12,0s-.06.05-.06.07,0,0,0,0l.06.05A.18.18,0,0,0,119.21,34.6Zm.12,1.2v-.29s-.06.08-.06.23Zm.11-.53s0-.07.06-.23l-.06-.12-.06.12Zm.35-1.31.27-.44.17-.71,0-.11v0C120.12,32.86,120,33.27,119.79,34Zm.62-4.81a.21.21,0,0,0,.16-.07.23.23,0,0,0,.07-.16c0-.08,0-.12-.11-.12h-.09l-.09.09a.29.29,0,0,0-.06.19Zm.29-.56.12-.11a.16.16,0,0,0-.18-.12c-.07,0-.11,0-.11.06Zm4.51,8.91q.18,0,.18-.15a.14.14,0,0,0,0-.11l-.06-.06-.06.06a.49.49,0,0,0,0,.11.19.19,0,0,1,0,.09Zm.36-.5.11-.06c.32-.25.47-.41.47-.47a.46.46,0,0,1-.06-.23.86.86,0,0,1-.14-.13s-.13-.07-.27-.07a.61.61,0,0,1,.24.38c0,.15,0,.23-.15.23s-.26.06-.26.18S125.53,37,125.57,37Zm.35,1.2.73-.85c.41-.54.67-.83.79-.85l0,0c0-.22.34-.65,1-1.29a1.91,1.91,0,0,0,.17-.24l.05-.06s0,0,0,0a1.19,1.19,0,0,0,.29-.46h-.23l.12-.41-.33.35-.11.23.32-.06q0,.18-.24.18h-.11c-.08,0-.13,0-.14.06a1.23,1.23,0,0,0,0,.23c0,.12-.16.29-.47.53a.65.65,0,0,1-.44.14l.15.12.06.24-.15-.06q-.12,0-.12.09v.17c0,.06-.09.2-.29.41l-.06-.06-.17.06-.12.24a.48.48,0,0,1-.06.26c-.08.14-.16.2-.23.2l-.06,0c-.1,0-.15,0-.15,0l.06.21,0,.12c-.08.15-.16.23-.23.23s-.13,0-.14,0a1.73,1.73,0,0,0,0,.3Zm.44-1.61c.06,0,.1,0,.11-.12a.75.75,0,0,0,.18-.46.17.17,0,0,1,0-.12c.16-.18.26-.27.32-.27h.12s.06,0,.06,0a.11.11,0,0,0-.12-.12l-.18,0a3.63,3.63,0,0,0-.46.32,1.72,1.72,0,0,0,.41-.82c-.06,0-.16.1-.28.29a.93.93,0,0,0-.19.47l.06.18-.06.17a.29.29,0,0,0,.17.15l-.26.29Zm1.2-1.32-.09-.17c0-.2,0-.32.15-.38s.17,0,.17.1,0,.1.12.1.23,0,.23-.09l-.17-.35c0-.11,0-.17.06-.17l.06.06c.07,0,.11,0,.11-.06s-.11-.12-.35-.12-.44,0-.51.13a.64.64,0,0,0-.1.4.58.58,0,0,1-.3.55.41.41,0,0,0,.27-.06.15.15,0,0,0,.06-.07l0,0a.21.21,0,0,1,.14.07A.5.5,0,0,0,127.56,35.27Zm-.12-2h-.09l-.11-.17s0-.06.11-.06.12.06.12.17Zm.47,2,.12-.11a.08.08,0,0,0,0-.08l-.07,0h0s0,0,0,.06a.16.16,0,0,0,0,.1A.17.17,0,0,0,127.91,35.27Zm0-2.69v-.06c0-.14.1-.28.29-.44s.3-.16.3-.31,0-.22.13-.22h.17s.07-.1.11-.28,0-.06.08-.06v.18c0,.1-.21.36-.64.79A3.52,3.52,0,0,1,127.91,32.58Zm1.38.64a.4.4,0,0,0,.11-.29l-.05-.06-.18.35Zm-.06.91.12-.12-.12-.11h-.06V34Q129.17,34.13,129.23,34.13Zm0-2.87V31.2c.21-.57.41-.85.58-.85l.12.12,0,0-.06.06-.19.2a1.9,1.9,0,0,0-.24.28A1,1,0,0,1,129.23,31.26Zm.29,1.49.24-.17c.15-.16.23-.27.23-.32h-.06C129.83,32.26,129.7,32.42,129.52,32.75Z"/><path class="cls-1" d="M123.93,68.76l-.47-.06c-1.74-.35-2.84-1-3.31-1.79a2.14,2.14,0,0,1-.36-.77,1.12,1.12,0,0,0-.26-.57,1.89,1.89,0,0,1-.47-.74l.3.27a4.21,4.21,0,0,1,0-1l.24.35c.1,0,.16-.21.2-.64L120,63a10,10,0,0,1,.35,1.32,6.78,6.78,0,0,0,.73,2.11l.06,0,.06.08a.53.53,0,0,0,.13.1.55.55,0,0,0,.28.06l1.44-.12.11-.06v.24a2.77,2.77,0,0,0,1.09-.5.82.82,0,0,1,.5-.23l.11,0,0-.17c0-.06,0-.11.14-.16a.63.63,0,0,1,.27-.08l.11.06s.06,0,.06,0,.08-.22.24-.38c.39-.45.65-.67.79-.67h.35a.94.94,0,0,1-.18-.24s.1-.15.3-.29l.43-.61.06-.24.3.12s.06-.06.06-.18,0-.11,0-.11h-.09c0-.06.12-.2.35-.41a1.12,1.12,0,0,0,.35-.33.53.53,0,0,0,.12-.29q0-.12.06-.12h0c.27,0,.41-.05.41-.14a3.05,3.05,0,0,1,.61-.91l.09-.15c0-.12,0-.18.13-.19s.32-.31.69-.91a6.61,6.61,0,0,0,.6-1.07c0-.11.06-.17.1-.17s.13-.08.27-.24a1.63,1.63,0,0,0,.38-.82.58.58,0,0,1,.06-.26c.09-.2.19-.29.29-.29a.66.66,0,0,0,.19,0,.77.77,0,0,0,.19-.16.05.05,0,0,1,.06-.06l.06.06a.82.82,0,0,1-.12.47.27.27,0,0,0-.18.23l0,0,.06,0,.06.06a1.26,1.26,0,0,1,0,.16.23.23,0,0,0,0,.11.24.24,0,0,1-.06.14s-.07.07-.1.07,0,.08,0,.23,0,0-.09.09-.3.21-.3.32l.06.27-.11-.06c-.12,0-.46.48-1,1.43-.39.69-.62,1-.7,1a.11.11,0,0,0-.12.12c0,.07-.06.15-.18.23a10.42,10.42,0,0,0-1.31,1.67l-1,1.26a4.76,4.76,0,0,1-.79.79,15.59,15.59,0,0,1-2.05,1.61c-.47.2-.7.4-.7.62a15.34,15.34,0,0,0,1.55-.91,14.27,14.27,0,0,0,2.93-2.75l1-1.26c.28-.3.8-1,1.59-2.08a8.61,8.61,0,0,0,1-1.64l.5-.77a.76.76,0,0,0,.17-.38l-.11-.44a.81.81,0,0,1,.23-.46l.24-.47H133s-.14.09-.3.29a.61.61,0,0,0-.16-.29.29.29,0,0,0-.19-.06l.18-.27.12.15c.05,0,.15-.11.29-.32s.17-.41.23-.41l.33.23-.21-.41.26-.5v-.05h-.2l-.06.05,0-.05.09-.08a.23.23,0,0,1,.14,0,.26.26,0,0,0,.18-.09.77.77,0,0,0,.18-.45.45.45,0,0,1,.11-.34.05.05,0,0,1,.06-.06l.18.18-.06-.12a2.17,2.17,0,0,1,.5-1.2,3.53,3.53,0,0,0,.52-1.09l1.2-2.43c.14-.29.37-.81.69-1.55s.52-1.17.57-1.27.1-.17.12-.17l.06.09a2.39,2.39,0,0,1-.06.53.93.93,0,0,0-.12.41l.18-.23.06,0c0,.16-.14.28-.41.36l-.12-.24c0,.25.08.38.24.38l.11.06c0,.06-.07.14-.23.24h0l0,0a.55.55,0,0,0-.06.33l-.12-.06s-.05,0-.05.06l.05.29c-.13,0-.2,0-.2,0l.06.41-.24-.06.06.12a2.68,2.68,0,0,1-.2.73,2.54,2.54,0,0,0-.21.7l.06.06.06,0,.12-.14a.32.32,0,0,0,.06-.18l.38-.91a4.67,4.67,0,0,0,.38-.85,1.45,1.45,0,0,1,.06-.19c0-.05.11-.29.29-.73a14.29,14.29,0,0,1,.69-1.49c.28-.56.56-1.12.83-1.69a5.67,5.67,0,0,0,.5-1.46,1.27,1.27,0,0,1,.09-.47c.1-.37.19-.56.28-.56s.19-.13.3-.38a5.3,5.3,0,0,0,.47-1.49,2,2,0,0,1,.06-.44v-.09c.08-.49.16-.73.24-.73s.11,0,.11-.09c0-.31,0-.53,0-.66a3.55,3.55,0,0,0-.16-.63c0-.49.09-.74.16-.76a.31.31,0,0,0,.13-.06,4.91,4.91,0,0,1,.2-1,20.86,20.86,0,0,1,.88-2.49,2.1,2.1,0,0,0,.18-1,2.16,2.16,0,0,1,.28-.82.67.67,0,0,0,.13-.46,1.6,1.6,0,0,1,.19-.7,2.14,2.14,0,0,0,.22-.78,1.77,1.77,0,0,0,.15-.61l.11-.24-.06-.06a6.56,6.56,0,0,0-1.23,1.25c-.72.83-1.11,1.27-1.17,1.33q-3.57,4.33-3.78,4.69a1.15,1.15,0,0,1-.29.23,26.27,26.27,0,0,1-3.84,3.9c-1.27,1.05-2.11,1.73-2.52,2a5,5,0,0,1-3.07,1c-.35,0-.53,0-.53.06a1.15,1.15,0,0,1-.44-.18,4.58,4.58,0,0,1-1.2-.79,1.15,1.15,0,0,1-.47-.91,1.26,1.26,0,0,0-.23-.53.91.91,0,0,1-.18-.58s0,0-.09,0-.09-.16-.09-.47,0-.45.06-.47l.12.06V38.5a.77.77,0,0,1,.15-.43.81.81,0,0,0,.14-.39l-.06-.18a.64.64,0,0,1,.12-.31c.08-.12.16-.19.24-.19l.05.06c0-.23,0-.35,0-.35l.06,0a1.23,1.23,0,0,0,0-.27c.22,0,.32-.11.32-.33l0-.35h.11c.06,0,.15-.07.27-.2a1.56,1.56,0,0,0,.44-.85.15.15,0,0,1,.08-.16.15.15,0,0,0,.09-.14s0-.08.09-.08.17-.12.35-.35a5,5,0,0,0,.82-1.32l.32-.5h.12l-.12.06v.2c.06,0,.14-.12.24-.38l.41-.53a.41.41,0,0,0,.26-.29,2.3,2.3,0,0,1,.59-.73,2.5,2.5,0,0,0,.38-.43,2.15,2.15,0,0,0,.17-.27l0-.06a1.69,1.69,0,0,1,.41-.35,1.37,1.37,0,0,0,.43-.46,13,13,0,0,1,1.73-1.62A8.65,8.65,0,0,1,135,26a.33.33,0,0,0,.29-.18l.18-.12.18.18h0a1.11,1.11,0,0,0,0-.25l.06,0a2.38,2.38,0,0,0,.73.11,1.75,1.75,0,0,0,.4,0c.13,0,.19-.07.19-.13l.12-.06a5.23,5.23,0,0,1,1.29.29,3,3,0,0,1,.79.32,5.31,5.31,0,0,1,.76.65c.47.49.81.73,1,.73v.18a.5.5,0,0,0,.17.35q.12,0,.12-.06l-.06-.18.06.06a.85.85,0,0,0,.22-.13,1.23,1.23,0,0,0,.33-.35,1.13,1.13,0,0,1,.47-.37.43.43,0,0,1,.24-.05l-.06-.18a.63.63,0,0,1,.13-.21,1.24,1.24,0,0,0,.1-.67q0-.55.18-.57a.25.25,0,0,0,.23-.13,2,2,0,0,0,.06-.65.05.05,0,0,0-.06-.06l-.17.12v-.06l.23-.41a.58.58,0,0,0,.32-.29l.12-.12a.27.27,0,0,1,.24.18,2.53,2.53,0,0,0-.06-.56c0-.12,0-.17.13-.17s.14-.07.15-.21a.42.42,0,0,1,.07-.26.33.33,0,0,1,.23-.06c.28,0,.41,0,.41.12l0,.05.53.06c.16.08.23.16.23.24l0,.29c0,.08,0,.12.14.12h.06a1.19,1.19,0,0,1,.59.29l.06,0c.21.23.38.35.49.35s.19.44.21,1.32,0,1.7-.12,2.52c-.16,1.23-.29,1.84-.41,1.84s0,.05-.06.15a6.26,6.26,0,0,0-.35,1.06l-.06.2a34.18,34.18,0,0,1-1.14,4l-.32.91a4,4,0,0,1-.47,1.29,5,5,0,0,1-.41,1.51,4.37,4.37,0,0,0-.44,1.25q-2.52,6.64-3,7.61A44.89,44.89,0,0,1,136.82,55c-1,1.54-1.54,2.4-1.67,2.58a8.15,8.15,0,0,0-.68,1,2.49,2.49,0,0,1-.41.68c-.06,0-.21.24-.47.73l-1.52,2.14c0,.06-.06.12-.18.17L130.63,64l-1.14,1.29a4.08,4.08,0,0,1-.36.44s-.24.25-.58.62c-.19.19-.64.56-1.33,1.1a5.51,5.51,0,0,1-1.18.8l-.5.12A3.17,3.17,0,0,1,123.93,68.76Zm1.49-29.88.06-.12a.48.48,0,0,0-.06-.21.49.49,0,0,0-.06.27Zm.23-.44.12-.06c0-.08,0-.12-.07-.13a.19.19,0,0,1-.1,0l-.06.12C125.54,38.4,125.58,38.44,125.65,38.44Zm0-.41s.14-.15.3-.44l.2-.38a7.26,7.26,0,0,0,.44-.91l0-.12-.06-.09c-.06,0-.11.08-.16.22S126.1,37,125.65,38Zm.85,1.73a.08.08,0,0,0,.08,0,.16.16,0,0,1,0-.06s0,0,0-.07a.05.05,0,0,1,.06-.06l.18.12c0-.1,0-.16-.08-.18l-.1-.06a.05.05,0,0,1-.06.06Zm.3-3.9a.08.08,0,0,0,.08-.06,4.14,4.14,0,0,1,.36-.53l-.27.18H127A.66.66,0,0,0,126.8,35.86Zm.35,3c.06,0,.15-.11.29-.32a1.48,1.48,0,0,0,.32-.69,1.84,1.84,0,0,1,.47-.81,2.2,2.2,0,0,0,.44-.91c0-.07,0-.11-.12-.11-.25,0-.38.2-.38.61a.57.57,0,0,1-.17.47q-.09.18-.18.18v-.12a5.9,5.9,0,0,0-.47.56,2.56,2.56,0,0,0-.32,1Zm.56,1.43a3.66,3.66,0,0,0,1.09-.46,3.71,3.71,0,0,0,1-.74,1.54,1.54,0,0,1,.29-.23c.12,0,.17,0,.17-.12a15.63,15.63,0,0,1,1.85-1.76c.35-.43.64-.64.88-.64h0q0,.12-.48.54c-.33.28-.49.48-.49.6l.12.29-.18,0a1.39,1.39,0,0,0-.64.41c-.45.37-.68.61-.68.73l.12.06a.11.11,0,0,0,.12-.12.41.41,0,0,1,.23-.06c.1,0,.24-.12.41-.35l.09-.19a.1.1,0,0,1,.1-.07,3.4,3.4,0,0,0,.68-.44q.6-.45.6-.57c0-.09.28-.33.85-.72a7.57,7.57,0,0,0,.82-.85,1.8,1.8,0,0,0,.2-.18l.24-.2a3.3,3.3,0,0,0,.38-.41q.12-.06.12-.15c.23-.27.82-.92,1.75-1.93a4,4,0,0,0,.44-.56c1.37-1.68,2.05-2.54,2.05-2.58h-.11a.11.11,0,0,0-.09.05.54.54,0,0,0-.06.11.81.81,0,0,1-.06.13c-.08,0-.12-.05-.12-.17l.06-.47h-.17l-.18.12.12.11a.14.14,0,0,1-.05.12s-.17.19-.42.5a5.22,5.22,0,0,1,0-.62c0-.15.09-.23.2-.23s.24-.4.24-.91c0-.29,0-.47-.12-.53a5.33,5.33,0,0,0-1.84.53,9.12,9.12,0,0,0-1.73,1.14,32.67,32.67,0,0,0-5.66,6.13,0,0,0,0,1,0,0,8.72,8.72,0,0,0-.64,1,24.72,24.72,0,0,0-1.49,2.64l-.42,1S127.43,40.25,127.71,40.25ZM127.53,35l.06-.15c.08-.19.17-.29.29-.29H128s0,0,0-.06l-.18-.23a.18.18,0,0,0-.17.12c-.1.19-.18.29-.25.29s-.11,0-.11.12a.27.27,0,0,1,.08.11A.16.16,0,0,0,127.53,35Zm.88-.73s.18-.15.42-.46a2.2,2.2,0,0,0,.37-.51.83.83,0,0,0-.31,0s0,.07,0,.15q-.24,0-.24-.18a.18.18,0,0,1,.12-.17.59.59,0,0,0,.23-.3s0-.06-.05-.06l-.27.22a.54.54,0,0,0-.14.43.11.11,0,0,1-.11.06h-.11s-.07,0-.11.13-.09.21-.17.37a.71.71,0,0,0,.22-.15,1.06,1.06,0,0,1,.22-.16l.11-.06.12,0v.18l-.26.44Zm-.12,28.86.12-.24a.05.05,0,0,0-.06-.06.48.48,0,0,0-.12.3Zm.62-27.31.05-.47.12-.06v.18s.09,0,.15-.12a1.11,1.11,0,0,0,.26-.61q0-.15.24-.27l.14-.08v-.06a.57.57,0,0,0-.38.17c-.51.53-.76.91-.76,1.14Zm.17,26.34q.12,0,.18-.18l.23-.41-.06-.06-.14,0a.28.28,0,0,0-.13.07S129.08,61.83,129.08,62.14Zm.12-29,.12-.06.11-.24-.11-.06-.12.18Zm.35-1.21.21-.11c.11-.12.17-.2.17-.24a.05.05,0,0,0-.06-.06.38.38,0,0,1-.13.09l-.1.06-.09.1a.24.24,0,0,0-.06.11Zm.32.3a.46.46,0,0,0,.21-.12c.1-.08.43-.42,1-1,.16-.09.24-.19.24-.29a.14.14,0,0,0,0-.06.89.89,0,0,1,0-.1.18.18,0,0,0-.17-.07,2.4,2.4,0,0,1-.55.91A5.31,5.31,0,0,0,129.87,32.2Zm.06,1.93c.1,0,.2-.09.29-.28a1.49,1.49,0,0,1,.37-.45,3.18,3.18,0,0,0,.37-.35l-.09-.06c-.66.47-1,.83-1,1.08Zm0-2.81.18-.12c.15-.14.23-.22.23-.26l-.14.09Zm.53,7.91-.06-.12-.07,0a.32.32,0,0,0-.16,0Zm-.12,24.11.12-.12c.16-.08.23-.16.23-.25a2,2,0,0,1,.43-.67,2.43,2.43,0,0,0,.42-.63c-.08,0-.3.26-.69.78a5.73,5.73,0,0,0-.57.83Zm.12-3,.07-.1s.09-.13.16-.25a.58.58,0,0,0,.12-.32l-.23.26c-.16.14-.24.25-.24.35a.08.08,0,0,0,0,.05Zm.17-20.59a2.74,2.74,0,0,0,.65-.43c.37-.28.56-.45.56-.51l-1.15.82ZM131,59.5s0-.06,0-.17,0-.24-.11-.24C131,59.35,131,59.48,131,59.5Zm.35-29.09c.43-.25.64-.41.64-.47H132Zm.29,31.14c.08,0,.19-.13.35-.41a2.12,2.12,0,0,1,.49-.61c.24-.24.36-.41.36-.52s.12-.28.37-.52a9.48,9.48,0,0,0,1-1.48,1.53,1.53,0,0,1,.2-.3l.38-.61a1.31,1.31,0,0,1,.36-.59.5.5,0,0,0,.17-.33c0-.11.16-.35.47-.72a1.21,1.21,0,0,0,.26-.51c0-.09,0-.14.12-.14a6,6,0,0,0,.88-1.55q1.41-2.77,2-4.19a5.13,5.13,0,0,1,.68-1.49l.05-.15a5.08,5.08,0,0,0,.36-.76,19.88,19.88,0,0,1,1.08-2.61l.23-.5q.21-.5,1.73-4.92a2.65,2.65,0,0,0,.38-1.08A5.22,5.22,0,0,0,144,36.3a5.19,5.19,0,0,1,.27-.85l.12-.47a6.54,6.54,0,0,0,.23-1.26l-.12.12a12,12,0,0,0-.47,1.61,39.46,39.46,0,0,1-1.43,4.19,11.26,11.26,0,0,0-.5,1.58,14.56,14.56,0,0,1-.94,2.37,2.18,2.18,0,0,0-.32.84,6.45,6.45,0,0,1-.64,1.51c-.28.54-.49,1-.65,1.37-.53,1.2-.88,1.95-1,2.26a12,12,0,0,1-.65,1.17V51c0,.07,0,.12-.09.13s-.08.07-.08.17a1.54,1.54,0,0,1-.21.57,3.25,3.25,0,0,1-.76,1.18l-.47,1.08a.35.35,0,0,1-.32.23l-.06.06.06.06a9,9,0,0,1-1,1.79,7.85,7.85,0,0,1-1.1,1.58l-.12-.06.06.12c0,.12-.1.27-.29.47a4.11,4.11,0,0,0-.74,1.2c0,.08,0,.12-.11.12a.3.3,0,0,0-.18,0l.06.15c0,.14-.15.29-.44.47h.06l-.59,1.08S131.58,61.55,131.66,61.55ZM132,38.64l.53-.38c.17-.12.26-.19.26-.23a.9.9,0,0,0-.23-.18l.06.12V38s-.06.08-.18.11l-.38.3Zm0,19.19.12-.06.15-.23h-.15l-.12.23Zm.12-18.13a2,2,0,0,0,.76-.44,22.28,22.28,0,0,0,2.46-2.11L137.49,35l.76-1c1.06-1.36,2.24-2.83,3.55-4.39a2.45,2.45,0,0,0,.55-.65l.36-.43a2.32,2.32,0,0,0,.41-.47c-.12,0-.5.34-1.15,1L139.45,32a5.56,5.56,0,0,0-.82,1.13c0,.09-.09.16-.28.22s-.27.13-.27.21a.4.4,0,0,1-.09.23l-.88.85c-.27.37-.48.56-.62.56h-.35c-.1,0-.14,0-.14.11s0,.06.05.06l.3-.12.11.06c0,.1-.06.17-.2.22s-.21.13-.21.25v.12l-.14.06c-.16,0-.28.13-.35.38a3,3,0,0,1-.47.47,6.89,6.89,0,0,0-1.38,1.43l-.85.79a3,3,0,0,0-.53.43C132.2,39.57,132.13,39.66,132.13,39.7Zm.73,17.9c.14,0,.55-.6,1.23-1.79A10.89,10.89,0,0,1,135,54.4a6.51,6.51,0,0,0,1.2-2.52s-.06,0-.06-.11a.39.39,0,0,1,0-.13s.08-.07.22-.11l.06.06-.06.18.29-.59,0,0-.06,0-.08.08a.05.05,0,0,1-.05,0,.11.11,0,0,1-.12-.12l.17-.79a2.6,2.6,0,0,0-.46,1.26c0,.12,0,.18,0,.19l0,0s0,0,0,0a.09.09,0,0,0,0,.06v.15l-.2-.06q-.12-.18-.24-.18h0s0,.06,0,.12l-.18.38c-.16.18-.23.29-.23.35a.41.41,0,0,0,.27-.16,1.14,1.14,0,0,0,.25-.39l.12-.06.06.11a.91.91,0,0,1-.09.3,2.08,2.08,0,0,1-.22.38c-.09.12-.14.17-.16.17s-.18,0-.18-.11,0-.12-.08-.12-.05,0-.09.06a.77.77,0,0,0,.07.16.66.66,0,0,1,.05.31,1.14,1.14,0,0,1-.11.44.34.34,0,0,1-.31.23v-.23c0-.06,0-.12-.14-.18h-.06a1.5,1.5,0,0,1-.41.88.5.5,0,0,1-.29.18c0,.17.06.26.17.26a.27.27,0,0,1,.18.23l-.06.06-.18-.06.06.18-.06.06c-.09,0-.19.1-.29.29H134a.47.47,0,0,1-.2.12.22.22,0,0,0-.13.17.37.37,0,0,0-.08.22c0,.07-.15.11-.44.11l0,.35c0,.27-.07.41-.19.41s-.19,0-.19.12Zm.85-19.87a7.41,7.41,0,0,0,1.19-1.09,8.17,8.17,0,0,0,.95-1.07.53.53,0,0,0-.29.17c-.61.69-1,1-1.2,1,0-.14.18-.36.55-.68a1.81,1.81,0,0,0,.47-.64l-.17-.06c0,.2-.34.59-1,1.19s-1,1-1,1.1a5.9,5.9,0,0,1,1-.68l.06.06a.14.14,0,0,1,0,.06.87.87,0,0,0-.05.12.73.73,0,0,1-.15.17,1.53,1.53,0,0,0-.18.18A.92.92,0,0,1,133.71,37.73Zm-.12-1.93-.11-.12.11-.23.21-.06a0,0,0,0,1,0,0,.33.33,0,0,1-.09.22l-.12.13Zm.65,19.28V55c.1-.45.18-.69.26-.73a.65.65,0,0,1,.29-.06v.12a.23.23,0,0,1-.16,0c-.07,0-.1,0-.1.06v0a.3.3,0,0,1,0,.16.16.16,0,0,0,0,.08C134.39,55,134.32,55.08,134.24,55.08Zm.5-17.52.11-.21c.16-.15.26-.23.3-.23a.05.05,0,0,1,.06.06A2.26,2.26,0,0,1,134.74,37.56Zm.7-2.11a.71.71,0,0,0,.12-.41l-.18.12Zm.29-.35c.12,0,.4-.27.85-.79a.66.66,0,0,0,.24-.41.67.67,0,0,0-.3.17C136,34.58,135.73,34.92,135.73,35.1Zm.79-.18.18-.17c.12-.12.4-.45.86-1a3.28,3.28,0,0,0,.69-.95q-.12,0-.12.06l-1.43,1.61c-.2.12-.29.24-.29.35Zm.53-1.2.32-.32c.2-.18.3-.33.3-.47h-.18q-.18.09-.18.18a2.22,2.22,0,0,0-.23.55Zm.85-1.14.35-.27s0-.05-.12-.05a.15.15,0,0,0-.17.17Zm.23,13.74h0a.41.41,0,0,1-.06-.27l.06,0,.11,0s.06,0,.06,0-.15-.18-.23-.18a3.32,3.32,0,0,1,.61-1.61c.16-.31.26-.47.31-.47s.1-.05.16-.15l.06-.05v.14a.11.11,0,0,0,.12.12l.11-.06a.39.39,0,0,0,0,.09.15.15,0,0,1-.06.09l-.07,0c-.12,0-.24.12-.35.34a1.57,1.57,0,0,0-.18.75l-.12.23c-.07,0-.11.06-.11.18l.06.12h-.21v.35C138.31,46.19,138.25,46.32,138.13,46.32Zm0-15.62a1.53,1.53,0,0,1,.06-.22,1.85,1.85,0,0,1,.18-.38,1.34,1.34,0,0,1,.26-.31,1.08,1.08,0,0,1-.19.62C138.31,30.61,138.21,30.7,138.13,30.7Zm.33,2,.11-.24.24-.26-.06-.06C138.65,32.14,138.55,32.32,138.46,32.7Zm.47-.62c.07,0,.11-.08.11-.23a.17.17,0,0,0-.16.07l-.07.1Zm.23-.47c.06,0,.19-.12.41-.35l.5-.5-.5.24c-.1.05-.15.1-.15.13a.09.09,0,0,1,0,.07l0-.06h0C139.25,31.14,139.2,31.3,139.16,31.61Zm.29,11.93.12-.47-.18.23-.23.12.18-.47s0-.06,0-.06a.41.41,0,0,1,.11.07.48.48,0,0,0,.13.09.19.19,0,0,1,.09.19.66.66,0,0,1-.21.27ZM139.57,29l.15-.11-.27-.27h-.06a.19.19,0,0,0,0,.08.54.54,0,0,1,0,.1c0,.14,0,.2.17.2Zm-.12,16.67.12,0a.66.66,0,0,0,.21-.53,1.29,1.29,0,0,0,.14-.31,1,1,0,0,1,.15-.31,13.31,13.31,0,0,0,.57-1.43,4.23,4.23,0,0,0,.25-1l-.06-.12A.37.37,0,0,1,141,42c.11,0,.19-.21.23-.64q0-.06-.12-.06c-.21,0-.32.08-.32.23a16.42,16.42,0,0,0-.82,2.61q0,.09-.12.09c-.08,0-.17.32-.29,1A2.48,2.48,0,0,1,139.45,45.64Zm.18-2.87-.06-.06a1.86,1.86,0,0,1,.06-.52c.12-.45.22-.68.32-.68a.16.16,0,0,1,.12.18l-.15.29a.66.66,0,0,0,0,.21c0,.08,0,.12,0,.14C139.79,42.63,139.71,42.77,139.63,42.77Zm.38-1.49-.06-.06.12-.22.13-.25c.05-.1.1-.14.16-.14a.66.66,0,0,1,0,.23A2.13,2.13,0,0,1,140,41.28Zm.41-11h.06a.85.85,0,0,0,.12-.28v-.06l-.3,0s0,.05-.06.15a.19.19,0,0,1,0,.09.13.13,0,0,0,.07.08ZM141.33,41l.12-.06a.63.63,0,0,0,.11-.41.9.9,0,0,0,0-.25.13.13,0,0,0-.14-.1s-.06,0-.06.11l.06.12a.09.09,0,0,0,0,.05l0,0-.05.06a.45.45,0,0,0,0,.14Zm.12-1.79h0a2.67,2.67,0,0,0,0-.4,1.5,1.5,0,0,0-.1.16.82.82,0,0,0,0,.19Zm.11-10.49.06-.14,0-.18c0-.2.06-.31.12-.35a.87.87,0,0,0,.14-.12l-.11-.06c-.1,0-.18.08-.25.22a1,1,0,0,0-.1.43C141.45,28.59,141.48,28.66,141.56,28.68Zm.35-1,.24-.11a.29.29,0,0,0,.2-.12l.09-.13a.17.17,0,0,0,0-.07.05.05,0,0,0-.06-.06,1.69,1.69,0,0,0-.28.26A1.66,1.66,0,0,1,141.91,27.71Zm.24.59.14-.12s-.06,0-.2-.06l-.12.06c0,.06,0,.1.05.11Zm-.06,10.46c.06,0,.13-.15.2-.44a1.72,1.72,0,0,0,.18-.59c0-.07,0-.11-.06-.11s-.12,0-.12.11v.06a1.24,1.24,0,0,1-.07.49c-.05.1-.1.16-.16.16s-.09,0-.09.11Zm.5-11.22.09-.06c.29-.23.44-.38.44-.44a.31.31,0,0,0-.17.09l-.19.17A1.91,1.91,0,0,0,142.59,27.54Zm.17-.44.12-.23a.05.05,0,0,0-.06-.06l-.17.23Zm.12-.88c.29-.29.48-.44.56-.44s.11-.06.11-.17l-.14-.24h-.06A7.9,7.9,0,0,0,142.88,26.22Zm.53,1.61.14-.06s.06-.07.06-.17h-.2c-.12,0-.18,0-.18.11l.12.12Zm0-1a.23.23,0,0,0,.14-.24s0-.06-.05-.06l-.15.18v.12Zm.09-.59.35-.26c.19-.14.29-.24.29-.3h-.06A5.14,5.14,0,0,0,143.5,26.28ZM144,25.2l.06-.12V24.9c-.07,0-.11.08-.11.24Zm1.09-2.06s.06,0,.06-.05a.16.16,0,0,0-.18-.18l-.12.06.05.06s0,0,0,0l.06,0A.13.13,0,0,0,145.05,23.14Z"/></svg>