<?xml version="1.0" encoding="utf-8"?>
<!-- Generator: Adobe Illustrator 24.1.2, SVG Export Plug-In . SVG Version: 6.00 Build 0)  -->
<svg version="1.1" xmlns="http://www.w3.org/2000/svg" xmlns:xlink="http://www.w3.org/1999/xlink" x="0px" y="0px"
	 viewBox="0 0 391.9 372.9" style="enable-background:new 0 0 391.9 372.9;" xml:space="preserve">
<style type="text/css">
	.st0{display:none;}
	.st1{display:inline;stroke:#FFFFFF;stroke-miterlimit:10;}
	.st2{display:inline;fill:#FFFFFF;stroke:#FFFFFF;stroke-width:10;stroke-miterlimit:10;}
	.st3{display:inline;fill:#FFFFFF;stroke:#FFFFFF;stroke-width:9;stroke-miterlimit:10;}
	.st4{display:inline;fill:#FFFFFF;stroke:#F298A5;stroke-width:4;stroke-miterlimit:10;}
	.st5{display:inline;fill:#FFFFFF;stroke:#FFFFFF;stroke-width:7;stroke-miterlimit:10;}
	.st6{display:inline;fill:none;stroke:#FFFFFF;stroke-width:17;stroke-miterlimit:10;}
	.st7{display:inline;fill:#F296A1;stroke:#F296A1;stroke-miterlimit:10;}
	.st8{display:inline;fill:#F296A1;stroke:#FFFFFF;stroke-miterlimit:10;}
	.st9{display:inline;}
	.st10{fill:#FFFFFF;}
	.st11{fill:#F296A1;}
	.st12{display:inline;fill:none;stroke:#FFFFFF;stroke-width:14;stroke-miterlimit:10;}
	.st13{display:inline;fill:none;stroke:#FFFFFF;stroke-width:7;stroke-miterlimit:10;}
	.st14{display:inline;fill:#FFFFFF;stroke:#F3A2AC;stroke-width:2;stroke-miterlimit:10;}
	.st15{display:inline;fill:#FFFFFF;stroke:#F3A2AC;stroke-width:3;stroke-miterlimit:10;}
	.st16{fill:#F3A2AC;}
	.st17{display:inline;fill:#FFFFFF;stroke:#FFFFFF;stroke-width:2;stroke-miterlimit:10;}
	.st18{display:inline;fill:#FFFFFF;stroke:#FFFFFF;stroke-miterlimit:10;}
	.st19{display:inline;fill:#FFFFFF;stroke:#FFFFFF;stroke-width:14;stroke-miterlimit:10;}
	.st20{display:inline;fill:#FFFFFF;stroke:#FFFFFF;stroke-width:16;stroke-miterlimit:10;}
	.st21{display:inline;fill:none;stroke:#FFFFFF;stroke-width:11;stroke-miterlimit:10;}
	.st22{display:inline;fill:#F3A2AC;stroke:#F3A2AC;stroke-width:12;stroke-miterlimit:10;}
	.st23{display:inline;fill:#FFFFFF;stroke:#FFFFFF;stroke-width:17;stroke-miterlimit:10;}
	.st24{display:inline;fill:#F3A2AC;stroke:#F3A2AC;stroke-width:14;stroke-miterlimit:10;}
	.st25{fill:#F3A2AC;stroke:#FFFFFF;stroke-width:4;stroke-miterlimit:10;}
	.st26{fill:none;stroke:#FFFFFF;stroke-width:17;stroke-miterlimit:10;}
	.st27{fill:#FFFFFF;stroke:#FFFFFF;stroke-width:0.5;stroke-miterlimit:10;}
</style>
<g id="Layer_2" class="st0">
	<rect x="11.9" y="14.5" class="st1" width="342.9" height="339.8"/>
</g>
<g id="Layer_3" class="st0">
	<path class="st2" d="M203.8,239.5c-0.9,2.4-7.8,4.5-21.5,8.5c-14.7,4.3-22,6.5-27.5,6.7c-9.1,0.4-18-2.5-35.8-8.1
		c-11.7-3.7-17.6-5.6-18.6-8.2c-4-10.3,18.3-36.7,44.8-39.4C177.5,195.7,207.7,228.8,203.8,239.5z"/>
	
		<ellipse transform="matrix(0.9992 -3.933938e-02 3.933938e-02 0.9992 -6.2916 5.7487)" class="st3" cx="142.9" cy="162.7" rx="27.5" ry="29.5"/>
	<path class="st4" d="M277.5,237.8c-0.5,2.9-7.5,6.3-21.5,12.9c-14.9,7.1-22.4,10.7-28.3,11.8c-9.7,1.8-19.8-0.1-40-3.7
		c-13.3-2.4-20-3.7-21.5-6.5c-6.2-11.1,12.8-44.4,40.8-51.4C241.2,192.2,279.8,225.1,277.5,237.8z"/>
	
		<ellipse transform="matrix(0.9871 -0.1599 0.1599 0.9871 -23.9593 37.2139)" class="st5" cx="219.3" cy="167.5" rx="28.5" ry="30.6"/>
	<ellipse class="st6" cx="182.9" cy="189" rx="102.5" ry="96.5"/>
</g>
<g id="Layer_4" class="st0">
	<path class="st2" d="M248.4,253.2c-1.1,2.9-9.3,5.4-25.8,10.2c-17.6,5.2-26.4,7.8-33.1,8.1c-10.9,0.4-21.6-3-43.1-9.7
		c-14.1-4.5-21.2-6.8-22.4-9.9c-4.8-12.4,22-44.1,53.8-47.3C216.9,200.7,253.2,240.5,248.4,253.2z"/>
	
		<ellipse transform="matrix(0.9992 -3.933938e-02 3.933938e-02 0.9992 -6.243 7.3069)" class="st3" cx="182.5" cy="162.3" rx="33" ry="35.4"/>
	<path class="st7" d="M174.2,207c2.4,9.2,4.8,18.5,7.1,27.7c2.1,0,4.2,0,6.2,0c2.4-9.2,4.8-18.5,7.1-27.7H174.2z"/>
	<path class="st7" d="M184,209.7c5.2,0.1,9-1.7,10.7-2.7"/>
	<path class="st7" d="M174.2,207c1.7,0.9,5.1,2.6,9.8,2.7"/>
	<path class="st8" d="M178.6,224.9c-3.9,18.2-7.7,36.3-11.6,54.5c12.5,0,25,0,37.5,0c-4.8-18.5-9.5-36.9-14.3-55.4
		c-1,0.6-2.7,1.5-5.1,1.8C182.1,226.1,179.7,225.3,178.6,224.9z"/>
	<ellipse class="st6" cx="183.5" cy="185.8" rx="102.5" ry="96.5"/>
</g>
<g id="Layer_5" class="st0">
	<g class="st9">
		<path class="st10" d="M187.8,262.1c-10.1,0-21-3.4-40.8-9.7c-11.9-3.8-20.5-6.5-21.5-9c-1.3-3.2,0.1-8.3,3.6-14.1
			c8.5-13.9,28-29,49-31.1c1.7-0.2,3.5-0.3,5.3-0.3c23.9,0,47.6,16.3,58.8,32.4c4.2,6,6,11.5,4.9,14.5c-0.8,2.2-11.4,5.4-24.8,9.3
			c-17.5,5.2-26.2,7.7-32.7,8C189,262.1,188.4,262.1,187.8,262.1z"/>
		<path class="st11" d="M183.4,196.4v3c26.1,0,48.7,19,57.6,31.7c2.9,4.1,5.8,10,4.7,13c-1.4,1.9-12.8,5.2-23.9,8.5
			c-17.3,5.1-26,7.7-32.3,7.9c-0.6,0-1.2,0-1.7,0c-9.9,0-20-3.2-40.3-9.6c-7.5-2.4-12.3-3.9-15.7-5.3c-4.3-1.8-4.8-2.7-4.8-2.8
			c-1.1-2.7,0.2-7.5,3.5-12.8c8.3-13.6,27.4-28.4,47.9-30.4c1.7-0.2,3.4-0.3,5.1-0.3L183.4,196.4 M183.4,196.4
			c-1.8,0-3.6,0.1-5.4,0.3c-31.8,3.2-58.7,34.9-53.8,47.3c1.2,3.1,8.3,5.4,22.4,9.9c20.2,6.4,30.9,9.8,41.2,9.8c0.6,0,1.2,0,1.8,0
			c6.7-0.3,15.5-2.9,33.1-8.1c16.5-4.9,24.7-7.4,25.8-10.2C253,233.1,220.2,196.4,183.4,196.4L183.4,196.4z"/>
	</g>
	
		<ellipse transform="matrix(0.9992 -3.933938e-02 3.933938e-02 0.9992 -6.397 7.5487)" class="st3" cx="188.6" cy="166.3" rx="33" ry="35.4"/>
	<ellipse class="st6" cx="184.6" cy="187.9" rx="102.5" ry="96.5"/>
	<line class="st12" x1="189.5" y1="60.9" x2="189.5" y2="114.1"/>
	<line class="st12" x1="311.8" y1="195.9" x2="256.8" y2="194.9"/>
	<line class="st12" x1="114" y1="191.1" x2="59" y2="190.1"/>
	<line class="st12" x1="185.8" y1="261.3" x2="185.8" y2="314.6"/>
</g>
<g id="Layer_6" class="st0">
	<g class="st9">
		<path class="st10" d="M244.6,159.9c3.3,0,6,2.7,6,6v51.4c0,3.3-2.7,6-6,6H116.8c-3.3,0-6-2.7-6-6v-51.4c0-3.3,2.7-6,6-6H244.6
			 M244.6,153.9H116.8c-6.6,0-12,5.4-12,12v51.4c0,6.6,5.4,12,12,12h127.8c6.6,0,12-5.4,12-12v-51.4
			C256.6,159.3,251.2,153.9,244.6,153.9L244.6,153.9z"/>
	</g>
	<g class="st9">
		<path class="st10" d="M110.7,178c-1.9,0-3.4-1.5-3.4-3.4v-10.1c0-1.9,1.5-3.4,3.4-3.4h138.9c1.9,0,3.4,1.5,3.4,3.4v10.1
			c0,1.9-1.5,3.4-3.4,3.4H110.7z"/>
		<path class="st10" d="M249.6,162.5c1.1,0,1.9,0.9,1.9,1.9v10.1c0,1.1-0.9,1.9-1.9,1.9H110.7c-1.1,0-1.9-0.9-1.9-1.9v-10.1
			c0-1.1,0.9-1.9,1.9-1.9H249.6 M249.6,159.5H110.7c-2.7,0-4.9,2.2-4.9,4.9v10.1c0,2.7,2.2,4.9,4.9,4.9h138.9c2.7,0,4.9-2.2,4.9-4.9
			v-10.1C254.6,161.8,252.4,159.5,249.6,159.5L249.6,159.5z"/>
	</g>
	<g class="st9">
		<path class="st10" d="M216.2,167.5c-2.4,0-4.3-1.8-4.3-4s1.9-4,4.3-4s4.3,1.8,4.3,4S218.6,167.5,216.2,167.5z"/>
		<path class="st11" d="M216.2,160.4c1.8,0,3.3,1.4,3.3,3s-1.5,3-3.3,3c-1.8,0-3.3-1.4-3.3-3S214.4,160.4,216.2,160.4 M216.2,158.4
			c-2.9,0-5.3,2.3-5.3,5c0,2.8,2.4,5,5.3,5c2.9,0,5.3-2.3,5.3-5C221.5,160.6,219.1,158.4,216.2,158.4L216.2,158.4z"/>
	</g>
	<g class="st9">
		<path class="st10" d="M245.8,167.9c-2.4,0-4.3-1.8-4.3-4s1.9-4,4.3-4s4.3,1.8,4.3,4S248.2,167.9,245.8,167.9z"/>
		<path class="st11" d="M245.8,160.8c1.8,0,3.3,1.4,3.3,3s-1.5,3-3.3,3s-3.3-1.4-3.3-3S244,160.8,245.8,160.8 M245.8,158.8
			c-2.9,0-5.3,2.3-5.3,5c0,2.8,2.4,5,5.3,5c2.9,0,5.3-2.3,5.3-5C251.2,161.1,248.8,158.8,245.8,158.8L245.8,158.8z"/>
	</g>
	<g class="st9">
		<path class="st10" d="M230.5,167.4c-2.4,0-4.3-1.8-4.3-4s1.9-4,4.3-4c2.4,0,4.3,1.8,4.3,4S232.9,167.4,230.5,167.4z"/>
		<path class="st11" d="M230.5,160.3c1.8,0,3.3,1.4,3.3,3s-1.5,3-3.3,3s-3.3-1.4-3.3-3S228.6,160.3,230.5,160.3 M230.5,158.3
			c-2.9,0-5.3,2.3-5.3,5c0,2.8,2.4,5,5.3,5s5.3-2.3,5.3-5C235.8,160.6,233.4,158.3,230.5,158.3L230.5,158.3z"/>
	</g>
	<line class="st13" x1="110.1" y1="190.1" x2="165.1" y2="190.1"/>
	<line class="st13" x1="110.6" y1="202.1" x2="203.1" y2="202.1"/>
	<line class="st13" x1="110.6" y1="216.1" x2="165.6" y2="216.1"/>
	<path class="st14" d="M217.2,159.4c14.5-21.8,26.7-40.1,29.1-38.5c2.1,1.4-6.3,15.8-17.6,49.1c-8.4,24.7-14.1,46.8-19.4,47.3
		c-2.1,0.2-2.3-3.4-7.7-6.7c-4.8-2.9-7-1.5-8.2-3.4C190.8,203,197.6,188.8,217.2,159.4z"/>
	<path class="st15" d="M209.3,222.1c4.7,19.2-55.3,51.8-57.6,48.9c-0.6-0.7,4.2-3.5,9.8-12c11.7-17.7,6.2-29,17.4-40.2
		c2-2,8.3-8.4,16.3-7.6C201.3,211.8,208,216.6,209.3,222.1z"/>
	<ellipse class="st6" cx="182.6" cy="189.6" rx="102.5" ry="96.5"/>
</g>
<g id="Layer_7" class="st0">
	<ellipse class="st6" cx="186.2" cy="179.1" rx="151.6" ry="142.7"/>
	<path class="st2" d="M267.4,233c-1.3,3.6-11.5,6.6-31.8,12.6c-21.7,6.4-32.5,9.6-40.7,9.9c-13.5,0.5-26.6-3.6-53-12
		c-17.4-5.5-26.1-8.3-27.6-12.2c-6-15.2,27-54.3,66.2-58.2C228.6,168.3,273.3,217.3,267.4,233z"/>
	<g class="st9">
		<path class="st10" d="M168.6,274.3c-21.8,0-26.9-0.9-32-5.7c-3.1-2.9-5.1-6.3-10.1-24.7c-4-14.9-7.5-30.3-10.3-45.7
			c0-1.7,0.5-7.3,4.9-11.7c3.2-3.2,7.4-4.9,11.8-4.9h106.3c9.2,0,16.7,7.5,16.7,16.6c-3.2,13.2-6.6,26.6-10.1,39.8
			c-6.4,24-7.9,27.2-11.5,30.6c-5.8,5.4-12,5.4-46.3,5.6l-5.9,0C177,274.2,172.5,274.3,168.6,274.3z"/>
		<path class="st16" d="M239.2,182.5c8.6,0,15.6,6.9,15.7,15.5c-3.2,13.1-6.6,26.5-10.1,39.6c-6.3,23.7-7.8,26.9-11.3,30.1
			c-5.3,4.9-10.1,5.2-45.6,5.4l-3.3,0l-2.6,0c-5.1,0-9.6,0.1-13.5,0.1c-21.5,0-26.5-0.9-31.3-5.4c-3-2.8-4.9-6.1-9.8-24.2
			c-4-14.9-7.5-30.2-10.3-45.5c0-1.7,0.5-6.8,4.6-11c3-3,6.9-4.6,11.1-4.6H239.2 M239.2,180.5H132.9c-4.9,0-9.3,2-12.5,5.2
			c-5.1,5.1-5.2,11.3-5.2,12.5c3.3,18,7,33.4,10.4,45.9c4.9,18.2,7,21.9,10.4,25.1c5.5,5.2,11.4,6,32.7,6c4.6,0,9.9,0,16.1-0.1
			c37.7-0.2,44-0.1,50.3-5.9c3.9-3.7,5.5-7.5,11.8-31.1c4.3-15.9,7.6-29.5,10.1-39.9C257,188.5,249,180.5,239.2,180.5L239.2,180.5z"
			/>
	</g>
	<path class="st17" d="M233.5,287h-91.6c-1.6,0-3-1.4-3-3v-2.9c0-1.6,1.4-3,3-3h91.6c1.6,0,3,1.4,3,3v2.9
		C236.5,285.7,235.1,287,233.5,287z"/>
	<g class="st9">
		<path class="st11" d="M186.9,242.2c-7.5,0-13.6-5.7-13.6-12.8s6.1-12.8,13.6-12.8c7.5,0,13.6,5.7,13.6,12.8
			S194.4,242.2,186.9,242.2z"/>
		<path class="st11" d="M186.9,217c7.2,0,13.1,5.5,13.1,12.3s-5.9,12.3-13.1,12.3s-13.1-5.5-13.1-12.3S179.7,217,186.9,217
			 M186.9,216c-7.8,0-14.1,6-14.1,13.3c0,7.4,6.3,13.3,14.1,13.3s14.1-6,14.1-13.3C201,222,194.7,216,186.9,216L186.9,216z"/>
	</g>
	<path class="st18" d="M164.7,82.2c-25.6,16.9-28,39.4-43.3,69.3c-0.5,0.9-1.8,3.5-1,6.2c0.4,1.6,2.2,5.3,12.2,7.7
		c16.8,4,36.1-0.8,54.8-1.2c24.5-0.5,40.1,6.7,60.1,0.9c3.6-1,12.6-3.7,13.3-8.9c0.4-3-2.1-5.5-2.9-6.4c-14.4-15.6-14.9-50-43-67.6
		c-4.2-2.6-15.1-9.2-29.1-8C182.8,74.4,174.8,75.5,164.7,82.2z"/>
	
		<ellipse transform="matrix(0.9992 -3.933938e-02 3.933938e-02 0.9992 -4.5531 7.4778)" class="st15" cx="187.7" cy="119.4" rx="40.7" ry="43.6"/>
	<g class="st9">
		<g>
			<path class="st10" d="M209.8,81.1c-10.7-6.2-23.7-6.7-35.5-3.6c-6.6,1.8-13,4.9-17.7,10c-5,5.4-7.2,12.4-9.2,19.4
				c3-0.4,6.1-0.8,9.1-1.2c-0.1-0.2-0.2-0.5-0.4-0.7c0.2,1.3,0.3,2.6,0.5,3.9c-0.2,0.3-0.4,0.5-0.6,0.8c-1.6,0.4-3.2,0.9-4.9,1.3
				c12,4.5,23.3,7,36.2,6.4c6.3-0.3,12.5-1,18.8-1.3c6.2-0.3,12.4,0.9,18.5,0.5c11.6-0.8,6.7-14.2,2.7-20.5
				c-4.4-6.8-12.1-11.3-20-12.7c-5.1-0.9-9.4,6.5-3.9,9.1c5.5,2.6,10.3,6,14.7,10.3c1.6-2.8,3.2-5.6,4.9-8.4
				c-8.5-3-17.1-5.8-26.2-6.6c-8.7-0.7-18,1.1-26.5,2.9c-15,3.1-27.1,17.5-23.9,33.1c1,4.8,8.7,4.8,9.6,0c0.7-3.6,14.4-3,17.1-3
				c6.5-0.1,12.9,0.5,19.4,1c6.2,0.5,12.2-0.1,18.3-0.3c6.4-0.2,12.1,2.2,18.5,1.2c-2.1-2.1-4.1-4.1-6.2-6.2
				c-0.6,3.4-1.8,3.3,2.6,2.9c1.7-1,2.9-1,3.7,0.3c-0.2-0.4-0.2-0.4-0.1-0.1c0-0.2-0.7-2.6-0.9-3.4c-0.9-3.8-1.7-7.6-2.9-11.3
				C222.9,95.3,218.2,86.6,209.8,81.1c-5.4-3.5-10.4,5.1-5,8.6c9.5,6.2,11.8,18.3,14.3,28.6c0.7,3.1,1.4,7.1,4.4,8.8
				c5.9,3.4,8.9-3.5,9.7-8c0.7-4-2.2-6.8-6.2-6.2c-3.7,0.6-7.5-1-11.1-1.4c-3.9-0.4-7.6,0.1-11.5,0.3c-7.8,0.5-15.5-0.7-23.2-1
				c-7.5-0.3-15.2-0.1-22.6,1.2c-5.3,0.9-10.7,3.3-11.9,9.1c3.2,0,6.4,0,9.6,0c-1.4-6.8,2.2-11.3,6.8-15.8c4.5-4.4,10.3-5,16.3-6
				c6.9-1.1,13.6-2.2,20.6-1.1c7,1.1,13.8,3.5,20.5,5.8c4.8,1.7,8.3-5,4.9-8.4c-4.9-4.9-10.4-8.9-16.7-11.9c-1.3,3-2.6,6.1-3.9,9.1
				c5.8,1,11.5,3.7,14.5,9c0.8,1.4,1.4,2.9,1.9,4.5c0.2,0.5,0.3,1,0.5,1.5c0.4,2.7,1.2,2.3,2.3-1.4c-0.4-0.6-5.9-0.4-6.8-0.5
				c-2.5-0.1-4.9-0.2-7.4-0.1c-9.4,0.1-18.7,1.6-28.1,1.6c-9.9,0-18.7-2.7-27.9-6.2c-1.6-0.6-3.7,0.1-4.9,1.3
				c-2.4,2.4-2.7,5.2-1.1,8.2c2,3.9,8,2.8,9.1-1.2c1.5-5.2,2.9-10.8,6.6-15c3.9-4.4,9.5-6.6,15.1-7.9c8.7-2,18.1-1.5,25.9,3
				C210.3,92.9,215.3,84.3,209.8,81.1z"/>
		</g>
	</g>
	<g class="st9">
		<g>
			<path class="st10" d="M163.3,99.4c5.4-5.3,12.1-11,19.5-13.2c8.2-2.5,16.3,2.2,23.3,6.1c5.6,3.1,10.7-5.5,5-8.6
				c-9-5-18.8-9.8-29.4-7.5c-9.6,2.1-18.7,9.4-25.5,16.2C151.6,96.9,158.7,104,163.3,99.4L163.3,99.4z"/>
		</g>
	</g>
</g>
<g id="Layer_1" class="st0">
	<ellipse class="st6" cx="184.8" cy="191.1" rx="102.5" ry="96.5"/>
	<ellipse class="st12" cx="184.8" cy="190.4" rx="73" ry="68.7"/>
	<ellipse class="st19" cx="185.8" cy="189.6" rx="31.5" ry="29"/>
	<path class="st5" d="M252.5,108c2.6-20.3,2.3-36.2,1.5-47.4c-0.4-4.6-0.9-9.6,0.3-9.9c2.7-0.8,11.9,22.1,19.9,43.4L252.5,108z"/>
	<path class="st5" d="M267.1,124.2c16.8-11.9,31.1-19,41.5-23.3c4.3-1.8,9-3.5,8.7-4.9c-0.6-3-25.3-1.4-48,0.6L267.1,124.2z"/>
	<g class="st9">
		<line class="st11" x1="273.3" y1="97.6" x2="195.3" y2="181.6"/>
		<g>
			<path class="st11" d="M266.2,90.6c-22.8,24.5-45.5,49-68.3,73.5c-3.2,3.5-6.5,7-9.7,10.5c-8.7,9.4,5.4,23.6,14.1,14.1
				c22.8-24.5,45.5-49,68.3-73.5c3.2-3.5,6.5-7,9.7-10.5C289.1,95.3,275,81.1,266.2,90.6L266.2,90.6z"/>
		</g>
	</g>
</g>
<g id="Layer_8" class="st0">
	<ellipse class="st6" cx="186.4" cy="177.4" rx="153.8" ry="144.8"/>
	<ellipse transform="matrix(0.9637 -0.267 0.267 0.9637 -33.3795 40.2982)" class="st20" cx="131.5" cy="142.9" rx="35" ry="32.9"/>
	<line class="st21" x1="81.1" y1="115.2" x2="104.3" y2="131.4"/>
	<line class="st21" x1="116.6" y1="88.9" x2="122.1" y2="108.7"/>
	<line class="st21" x1="161.4" y1="92.7" x2="152.5" y2="116.4"/>
	<line class="st21" x1="180.9" y1="174.5" x2="158.4" y2="153.6"/>
	<line class="st21" x1="145.4" y1="196.7" x2="139.1" y2="177.1"/>
	<line class="st21" x1="103" y1="194.6" x2="110.9" y2="170.5"/>
	<line class="st21" x1="187.9" y1="127.9" x2="166.6" y2="133.7"/>
	<line class="st21" x1="97.6" y1="152.9" x2="76.4" y2="158.8"/>
	
		<ellipse transform="matrix(0.9637 -0.267 0.267 0.9637 -33.2644 40.0465)" class="st22" cx="130.6" cy="142.4" rx="17.4" ry="16.4"/>
	
		<ellipse transform="matrix(0.1469 -0.9892 0.9892 0.1469 -11.4716 411.9068)" class="st23" cx="233.1" cy="212.6" rx="41.1" ry="43.4"/>
	<line class="st12" x1="193.4" y1="150.5" x2="207.5" y2="186.1"/>
	<line class="st12" x1="245" y1="144.4" x2="241.7" y2="169.9"/>
	<line class="st12" x1="291.5" y1="169.4" x2="269.8" y2="192.3"/>
	<line class="st12" x1="274.2" y1="272.9" x2="258.6" y2="238"/>
	<line class="st12" x1="217.4" y1="283.4" x2="219.7" y2="257.8"/>
	<line class="st12" x1="175.5" y1="258.2" x2="196.2" y2="234.4"/>
	<line class="st12" x1="304.7" y1="222.7" x2="277.6" y2="219.2"/>
	<line class="st12" x1="189.5" y1="207.6" x2="162.4" y2="204"/>
	
		<ellipse transform="matrix(0.1469 -0.9892 0.9892 0.1469 -11.0481 410.289)" class="st24" cx="232.3" cy="211.5" rx="20.4" ry="21.6"/>
</g>
<g id="Layer_9">
	<ellipse class="st25" cx="214.3" cy="126.8" rx="25.8" ry="24.1"/>
	<ellipse class="st25" cx="213.7" cy="126.4" rx="15.2" ry="14.2"/>
	<ellipse class="st26" cx="193.6" cy="189.3" rx="176.6" ry="166.3"/>
	<path class="st27" d="M196.7,204.4c0.4-12.2,1.7-29.7,6.1-50.5c2-9.3,8.2-38.3,14.1-38c4.4,0.2,6.9,16.3,7.7,21.6
		c2.4,15.3,0.9,27.4,0.5,30.9c-1.4,12.6-2.2,30.9,0.9,55.1c3.9-13.6,11.3-22.7,18.5-22.7c0.5,0,4.8,0.1,6.9,3.2
		c2.9,4.4-2.1,9.8-4.7,20.5c-3.4,14.1,2.4,16.3-1.6,31c-2.5,9.3-6,16.1-6,16.1c-3.5,7.8-5.7,10-7.9,19.9
		c-6.8,31.6,5.9,53.8-3.6,60.1c-3.2,2.1-4.7-0.3-20.7,1.2c-11.9,1.1-11.9,2.5-14.9,2c-14.7-2.5-10.5-34.7-30.9-64.9
		c-8.9-13.2-15.5-15.6-22.8-24c-4.9-5.6-6.8-8.9-9.1-13.3c-3.5-7-12.6-37.7-0.6-47.9c0.4-0.3,4.9-4.1,9.1-2.5
		c3.6,1.3,5.9,6.2,5.9,12.3c-0.1-10.4,3.7-18.9,9.8-21.3c0.8-0.3,3.9-1.5,6.8-0.2c6.5,3,6.2,15.4,7.9,15.3c2.2-0.1,0.2-19.2,8.8-24
		c3.1-1.7,6.4-0.9,7.5-0.6C191.3,185.4,196.4,193.7,196.7,204.4z"/>
	<ellipse class="st27" cx="117.8" cy="125.1" rx="25.8" ry="24.1"/>
	<ellipse class="st27" cx="297" cy="125.1" rx="25.8" ry="24.1"/>
</g>
</svg>
