<?xml version="1.0" encoding="UTF-8"?><svg id="a" xmlns="http://www.w3.org/2000/svg" viewBox="0 0 264 360.84"><defs><style>.c{fill:#fff;}</style></defs><path id="b" class="c" d="M240.47,156.84l12.25,16.22c5.18,7.39,5.04,17.27-.33,24.51l-110.98,139.09c-3.57,5.21-10.69,6.54-15.89,2.97-1.25-.86-2.32-1.95-3.14-3.22L15.14,194.35c-5.18-7.39-5.04-17.27,.33-24.51l12.68-15.88c3.63-5.22,10.8-6.5,16.02-2.87,1.3,.91,2.4,2.07,3.23,3.42l63.26,88.01,2.82-207.81c.13-9.62,6.24-17.29,13.71-17.19l17.97,.24c7.47,.1,13.37,7.92,13.24,17.55l-2.82,207.81,65.63-86.25c3.41-5.32,10.48-6.88,15.81-3.47,1.39,.89,2.56,2.06,3.46,3.45h0Z"/></svg>