<svg id="Layer_3" data-name="Layer 3" xmlns="http://www.w3.org/2000/svg" viewBox="0 0 147.13 69.96"><defs><style>.cls-1{fill:#fff;}</style></defs><path class="cls-1" d="M17.67,36.68l-1.14-.47A6.73,6.73,0,0,0,15,35.6a6.5,6.5,0,0,1-2.87-1.38L11.72,34h-.06l0,0a.15.15,0,0,1-.08-.08,3.59,3.59,0,0,0-.54-.42,2.45,2.45,0,0,1-.91-1.58,5.76,5.76,0,0,1-.17-1.56c0-.31.06-.6.08-.88a5.14,5.14,0,0,1,.24-1.08,5.37,5.37,0,0,1,.7-1.82l.12-.58a.2.2,0,0,0,.06-.15.43.43,0,0,1,.11-.23.14.14,0,0,1,0-.06s0,0,0,0a.59.59,0,0,0,.12-.29,13.32,13.32,0,0,1,.94-1.76,9.44,9.44,0,0,1,1.17-1.82l.35-.53c0-.07.17-.28.5-.61A29.09,29.09,0,0,1,17,17.27a53.84,53.84,0,0,1,6.27-5.92,40.25,40.25,0,0,1,9.22-5.64A15.47,15.47,0,0,1,34.37,5a4.85,4.85,0,0,1-1.2.67,9.2,9.2,0,0,1-1.32.59,20.17,20.17,0,0,0-3.44,1.89,57.28,57.28,0,0,0-7,5.2,41,41,0,0,0-7,7.68c-.35.48-.69,1-1,1.45a16.38,16.38,0,0,0-1.13,2.06,13.56,13.56,0,0,0-1,2.4c.05,0,.15-.13.29-.41l.23-.41.06.12-.06.23c-.27.88-.41,1.36-.41,1.44a.05.05,0,0,0,.06.06l.1-.07a4.89,4.89,0,0,0,.25-.9,7.29,7.29,0,0,1,.33-.85c0-.06.1-.21.19-.45a7.24,7.24,0,0,1,.57-1.16,18.39,18.39,0,0,1,1.43-2.31c.08,0,.12-.07.13-.19a.63.63,0,0,1,.19-.37,36.53,36.53,0,0,1,8.35-9,26.57,26.57,0,0,1,2.47-1.91l.08-.09a14.43,14.43,0,0,1,2.08-1.43c.34-.26,1.2-.78,2.61-1.58a32,32,0,0,1,5-2.44,24.77,24.77,0,0,1,4.87-1.78,2.75,2.75,0,0,1,1.16-.4,3.7,3.7,0,0,0,.95-.16,1.35,1.35,0,0,1,.53-.18A.71.71,0,0,1,43,2.9V2.78l.12-.06h0a.15.15,0,0,1,.06-.07.12.12,0,0,0,.06-.1s-.09,0-.27-.06a16,16,0,0,0-3.81.85,33.68,33.68,0,0,0-4,1.49,4.65,4.65,0,0,1-.64.12c0-.12.59-.4,1.78-.85a7.85,7.85,0,0,1,1.53-.58,24.21,24.21,0,0,1,7.53-1.26l1.81.11a2.2,2.2,0,0,1,1.32.41c0,.06.22.16.65.3a15.54,15.54,0,0,1,1.67.73c.41.21.61.36.61.44s0,.15.15.23a2.71,2.71,0,0,0,.7.65A7.53,7.53,0,0,1,53.4,6.3a7.21,7.21,0,0,1,.92,1.35,3.7,3.7,0,0,1,.37,1,5,5,0,0,1,.07.92c0,.65,0,1.28-.06,1.91v.08a8.84,8.84,0,0,0-.17,1.2,11.72,11.72,0,0,1-.91,2.58,16,16,0,0,1-1.35,2.05l-.21.41.12-.06a.05.05,0,0,1,.06.06c0,.1-.09.19-.26.28a2.22,2.22,0,0,0-.52.38c-.16.17-.24.27-.24.31s0,.08-.08.13A.39.39,0,0,0,51,19q-.18.09-.18.18l.12.17c-.25,0-.6.33-1,1a6.27,6.27,0,0,1-.47.59l0,0a.27.27,0,0,0-.06.2c0,.1,0,.15-.16.15s-.35.17-.72.53l-.32.29-.06-.06.59-.62c.39-.39.58-.66.58-.82s0,0-.06,0a1.25,1.25,0,0,1-.35.23.47.47,0,0,1,.21-.37.65.65,0,0,1,.29-.16s0,.06.06.18c.47-.39.7-.65.7-.76s-.14.07-.29.23-.28.24-.35.24a17.49,17.49,0,0,0,2.19-2.93l0-.06c-.1,0-.18.08-.24.23l-.23.12.06-.12h-.06a.11.11,0,0,1,0,.07.34.34,0,0,0,0,.17c0,.17-.12.31-.37.42s-.37.21-.38.29a2.09,2.09,0,0,0,0,.24.58.58,0,0,1,0,.19l-.56.53a3.1,3.1,0,0,0-.64.89c0,.09-.1.17-.3.25l-.08,0a.11.11,0,0,0-.08.08.38.38,0,0,0,0,.1s-.07.1-.21.2a.48.48,0,0,0-.2.37c0,.08,0,.12.08.12l.21-.06a5,5,0,0,1-.56.47.29.29,0,0,1,0-.12,1.11,1.11,0,0,1,.19-.18l-.06-.05c-.08,0-.24.12-.5.38a.43.43,0,0,1-.23.08c-.08,0-.15.07-.21.19a.93.93,0,0,0-.09.4c0,.14,0,.21,0,.21s-.15.07-.27.23-.1.18-.17.18H46.5c-.06,0-.09,0-.09.08a2,2,0,0,1-.41.35c-.27.18-.41.3-.41.36l.06.05-.19,0a.22.22,0,0,0-.13.09.29.29,0,0,0-.06.19c0,.12,0,.17.06.17a.72.72,0,0,0,.44-.26l0,0c.24-.23.4-.35.49-.35a.32.32,0,0,0,.17,0l.08,0c.19-.1.29-.18.29-.23v-.06h-.09s-.06,0-.06,0,.13-.35.38-.59.3-.23.36-.23a.27.27,0,0,1-.06.17q-.12,0-.12.09s0,0,.06.09l.29-.12.06.06c-.12.24-.22.35-.31.35s-.16.07-.22.21-.16.28-.49.5a1.43,1.43,0,0,0-.59.55v.06q-.12.21-.24.21c-.07,0-.21.1-.39.32s-.34.32-.45.32c-.4.23-.59.39-.59.47h.06V26l-.06.11s-.08,0-.13-.08a.36.36,0,0,1-.08-.24l.06-.12a.38.38,0,0,0,.24-.14,2.22,2.22,0,0,1,.33-.49c.15-.16.22-.26.22-.3H45a3.46,3.46,0,0,0-1.29.93,2.1,2.1,0,0,0-.44.85l-.06.18.06,0a.17.17,0,0,0,.06-.06.31.31,0,0,0,0-.08.64.64,0,0,1,.05-.11.31.31,0,0,0,0-.12l.12.06c.12,0,.18,0,.18-.1s.05-.13.17-.17L44,26l-.06.17.18-.12a.84.84,0,0,1,0,.27.54.54,0,0,1-.14.39.43.43,0,0,1-.32.16,3.39,3.39,0,0,0-1.26.44H42.4a.23.23,0,0,1,.13-.23.49.49,0,0,0,.22-.21l.06-.11a2,2,0,0,0-.88.44l-3.37,2.87-2,1.55s0,.06-.13.06a.85.85,0,0,0-.4.2c-.41.26-.62.43-.62.53l.85-.44a.36.36,0,0,0,.3-.23.18.18,0,0,1,.07-.05.53.53,0,0,0,.15-.1.49.49,0,0,1,.25-.12h.07l.07,0,.18-.1c0-.08.06-.12.17-.12l.09-.06q.21,0,.21-.09a.1.1,0,0,1,0-.08.46.46,0,0,1,.24-.19.75.75,0,0,0,.22-.11c.16-.07.24-.14.24-.2s.13-.18.22-.18.13,0,.13-.13.17-.14.5-.16l.29.06s0,.06,0,.07l-.06,0-.64.44a10.16,10.16,0,0,1-1.16,1,2.29,2.29,0,0,1-.8.45l-.44.26a4.83,4.83,0,0,1-2.14.82h0v0h-.06v0h0a2.73,2.73,0,0,0-.79-.06L33,33s0,0,0-.07a.27.27,0,0,0-.19,0,1.53,1.53,0,0,1-.51-.17c-.25-.12-.37-.2-.37-.24s.28-.18.85-.38c.39-.12.59-.19.59-.23l.17-.12a8.09,8.09,0,0,0,1-.53,21.21,21.21,0,0,0,2.84-2.05l1-.79.41-.41v-.06a.78.78,0,0,0,.36-.17,1,1,0,0,1,.29-.3,12.8,12.8,0,0,0,1.35-1.14c.31-.29.52-.44.64-.44l.06.15s0,.06-.13.06-.22.09-.4.29A24.93,24.93,0,0,1,39,28l-.35.32c-.3.29-.66.6-1.09.94s-.6.48-.76.63a.69.69,0,0,1-.36.22c-.09,0-.14,0-.14.13s-.19.22-.58.39l-.5.44q0,.12-.09.12h0a.27.27,0,0,0-.23.12v.11a1,1,0,0,0,.2-.11l.22-.15a.79.79,0,0,1,.43-.09l0,0a.2.2,0,0,0,.09.09c.15-.08.23-.16.23-.23l-.12-.15a.11.11,0,0,1,.08,0h.1l.16,0a1.71,1.71,0,0,0,.37-.16c.17-.1.26-.2.26-.3s0-.06-.07-.06a.24.24,0,0,1-.14-.05l.27-.12a.18.18,0,0,1,.14.06.14.14,0,0,0,0,.11,9,9,0,0,0,1-.58,5.36,5.36,0,0,0,.42-.5l-.06-.06-.17.06c0,.1-.18.2-.41.32l-.27.15c0-.12.21-.31.62-.59l.41-.17a.58.58,0,0,0,.36-.12.33.33,0,0,0,.17-.25c0-.09.09-.17.27-.23a2.41,2.41,0,0,0,.62-.38c.22-.19.43-.38.63-.58S41,27,41,26.92a.37.37,0,0,1,0-.22.3.3,0,0,1,.19,0l-.17.29a.27.27,0,0,0,.17-.06l.12-.23a.54.54,0,0,1,0-.2s0,0,.13,0l0,.08s0,0,.11,0l.06-.06-.06-.11c0-.06.05-.12.15-.19a.48.48,0,0,1,.22-.11.13.13,0,0,0,.12-.05.19.19,0,0,0,0-.12,1,1,0,0,1,0-.15.35.35,0,0,1,.08-.16.2.2,0,0,1,.11-.07s.06.05.06.14,0,.15,0,.15l.06-.12c0-.15.06-.23.12-.23s.51-.3.94-.91c.23-.35.38-.53.44-.53l.11.06a.29.29,0,0,1,.08-.22l.16-.19c.06-.08.11-.12.14-.12l-.05.06v.18l.05-.06a2.6,2.6,0,0,0,.5-.47l.06-.09a2,2,0,0,0,.27-.35,1.36,1.36,0,0,1,0-.25s.09,0,.25,0l.06.06v-.06q-.12,0-.12-.09v-.09h.15c.09,0,.14,0,.14-.06s0-.05.11-.05,1-1,2.79-3c.78-.92,1.4-1.61,1.85-2.08a3.23,3.23,0,0,0,.53-.62,20.87,20.87,0,0,0,1.61-3.42A4.42,4.42,0,0,0,53.09,12c-.21,0-.36.17-.44.5s-.17.31-.53.41c0,0-.06-.06-.06-.17l.06-.24-.85,1,.62-1.26q0-.21.09-.21a8.39,8.39,0,0,0,.5-1.84c0-.37.05-.79.05-1.26A4.18,4.18,0,0,0,51,5.24a2.15,2.15,0,0,0-.94-.46.38.38,0,0,1-.35-.15c-.06-.1-.39-.18-1-.24l-.1,0a.09.09,0,0,1-.07,0,.3.3,0,0,1-.19-.09,11.33,11.33,0,0,0-1.8-.15L45.94,4A21.31,21.31,0,0,0,40.7,5a49.48,49.48,0,0,0-6.29,2.18,15.31,15.31,0,0,0-4.26,2.48l-.59.44a10.14,10.14,0,0,0-1.08.7,40.34,40.34,0,0,0-6.27,4.81.24.24,0,0,0-.09.08,2.14,2.14,0,0,1-.57.41,11.67,11.67,0,0,0-1.21,1.32q-.21.24-.33.24c-.07,0-.11,0-.11.06a7.92,7.92,0,0,0-.68.87,2,2,0,0,1-.42.49c-.28.28-.47.42-.54.42s-.16.08-.24.24l-.1.14s-.05.06-.07.06v0h0s-.06.1-.16.19a.52.52,0,0,0-.17.43l0,.23a4,4,0,0,0-.44.53l-1.23,1.58h.05l-.11.24-.21.11.09.06c0,.12-.22.43-.67.94a2.1,2.1,0,0,0-.43.53,6.53,6.53,0,0,0-.28.7l0,.06a1.34,1.34,0,0,1-.35.67,9.64,9.64,0,0,0-1.26,4.48,10.23,10.23,0,0,0,.09,1.67A2.45,2.45,0,0,0,13.54,34a6.25,6.25,0,0,0,1.26.55,11.31,11.31,0,0,1,2.93,1.58c.19.2.29.34.29.41h-.29S17.67,36.56,17.67,36.68Zm.73-18.11h.06a.19.19,0,0,0,.07-.06.17.17,0,0,0,0-.13l-.12-.06A.39.39,0,0,0,18.4,18.57Zm.35-.44.91-.87q.12,0,.12-.27a3,3,0,0,0-.54.56Zm3,33.26s-.07,0-.1-.08l-.07-.1-.3.12c-.07,0-.14-.07-.2-.21L21,51a2.66,2.66,0,0,1-.53-1.32q0-.42,0-1.2A21.07,21.07,0,0,1,21.19,44a49.88,49.88,0,0,1,1.55-4.8c.58-1.54,1.1-2.83,1.54-3.85A12.39,12.39,0,0,1,25,33.81a9.75,9.75,0,0,1-.61,1.8c-.41,1-.65,1.62-.7,1.73s-.26.61-.59,1.51c-.43,1.19-.67,1.82-.73,1.9a4,4,0,0,1-.21.79,17.5,17.5,0,0,0-.93,3.37c.07,0,.11.08.11.18l-.06.2a4.3,4.3,0,0,0-.17,1.23c.06,0,.14-.24.26-.73s.27-.82.32-.82c-.11.76-.25,1.52-.41,2.29a10.16,10.16,0,0,0-.26,2,.87.87,0,0,1-.06.39.81.81,0,0,0-.09.25c0,.31.11.47.21.47a.27.27,0,0,1,.2.06q.12,0,.12-1.2.27-3.63,4.57-13.57a15.07,15.07,0,0,0,1-2.4l-.06-.12a13.39,13.39,0,0,1,1.26-3.25l.18-.41a12.64,12.64,0,0,0,1-2.52,6.46,6.46,0,0,0,.38-1.05c.41-1.1.68-1.77.79-2a2.4,2.4,0,0,0,.21-.65.09.09,0,0,1,0-.06s0,0-.05-.05,0-.08,0-.18a.21.21,0,0,0,0-.06l.08-.09a.18.18,0,0,0,.06-.14l-.06-.12c.23,0,.35-.15.35-.44q0-.18-.12-.18a2.27,2.27,0,0,1-.41.12s0,0,0-.06a.45.45,0,0,0,.1-.14,1.52,1.52,0,0,1,.14-.21.57.57,0,0,0,.08-.35,2.27,2.27,0,0,1,.06-.59l.06-.32-.23.24v-.06l.11-.24s0-.09.06-.29,0-.22-.06-.23l-.05,0-.06,0a2.56,2.56,0,0,1,.11-.5,7.77,7.77,0,0,0,.24-1c.06-.33.21-.91.45-1.75s.51-1.7.78-2.58A16,16,0,0,1,33,12a1.17,1.17,0,0,1,.34-.32.74.74,0,0,1,.39-.15l.08,0s0,.14,0,.39a.49.49,0,0,0,.25-.14.47.47,0,0,1,.31-.15l.1.13a.19.19,0,0,0,.16.1q.09,0,.09.06l-.06.18c0,.06.06.1.18.13a1.64,1.64,0,0,1,.38.16A1.75,1.75,0,0,1,35.81,14l-.06.9a21.52,21.52,0,0,1-.85,2.93,2.72,2.72,0,0,0-.18.53c0,.2,0,.3-.07.32a.21.21,0,0,0-.1.06l.05.12a.8.8,0,0,1-.05.23c-.14.28-.23.41-.27.41s-.06.05-.06.15a1.74,1.74,0,0,1-.17.53,1.52,1.52,0,0,0-.18.58,2.1,2.1,0,0,1-.29.91,2.36,2.36,0,0,0-.35,1,1.52,1.52,0,0,1-.3.57,1.38,1.38,0,0,0-.26.63,1.58,1.58,0,0,1-.12.61.74.74,0,0,1-.29.41l-.09.27a3.41,3.41,0,0,1-.64,1.46c-.06,0-.09.1-.09.29a.36.36,0,0,1,0,.19l-.12.2,0,0c-.13.24-.68,1.52-1.64,3.84-.48,1-.77,1.69-.85,2a.47.47,0,0,1-.14.24.22.22,0,0,0-.09.07l-.06.09a1.42,1.42,0,0,0-.09.29,6.08,6.08,0,0,1-.35.93,4,4,0,0,1-.73,1.31A13.93,13.93,0,0,0,26,38.88l-.41,1a10.86,10.86,0,0,0-.53,1.19c-.31.75-.65,1.67-1,2.77a23.8,23.8,0,0,0-1.58,6.06l-.06,1.26a.24.24,0,0,1-.14-.1.1.1,0,0,0-.1-.07.25.25,0,0,1-.07.17.93.93,0,0,1-.18.16A.34.34,0,0,1,21.74,51.39ZM21,47.31v-.43S21,47,21,47.26Zm.29-2.46-.06-.06.18-.38v.18Zm.12-29.47.16-.06a.78.78,0,0,0,.24-.16.37.37,0,0,0,.1-.25l-.15,0s-.17.13-.41.38Zm.29,34.19c.06,0,.12-.11.18-.32a9.08,9.08,0,0,0,.32-1.58,5.72,5.72,0,0,0,.06-.74s0,0,0,0a.14.14,0,0,0,0,.06,1.68,1.68,0,0,0-.06.47.12.12,0,0,1-.09.12c-.05,0-.08.19-.08.51a1,1,0,0,1-.16.64.71.71,0,0,0-.17.52.88.88,0,0,0,0,.22A.16.16,0,0,0,21.74,49.57Zm0-6.3V43.1h.09s.06,0,.06,0Zm.21.79V44l.17-.46a1.77,1.77,0,0,0,.18-.62c0-.06.23-.66.7-1.82a2.25,2.25,0,0,1,.09-.26.36.36,0,0,1,.07-.1.36.36,0,0,0,.08-.12.54.54,0,0,1,.07-.13l.07-.09v.12c0,.08,0,.11.12.11l.18-.05a.64.64,0,0,1,0,.2q-.12.18-.15.18v-.18s0,0-.06,0-.19.31-.41.91l-.32,1C22.34,43.58,22.08,44.06,22,44.06Zm.11-1.37,0-.06s0-.06.08-.12h.08a.07.07,0,0,1,0,0Zm.06,8.08.06-.12c0-.07,0-.11,0-.11a.1.1,0,0,0-.09.06Zm.24-36.24a.19.19,0,0,0,.12,0l.11-.08s.06-.05.06-.11l-.22,0c-.09,0-.13.06-.13.13Zm0,27.13s-.06,0-.06-.15l.06,0,.12.06Zm.06,4.92.17-.12a1.3,1.3,0,0,0,.12-.55l-.06-.12q-.12,0-.12.09a.17.17,0,0,0,.06.12A5.53,5.53,0,0,0,22.42,46.58Zm.23-1.14.12-.12.06-.23-.12.06Zm.24-5.57v-.06a.73.73,0,0,1,.13-.23l.13-.15.06.06Zm.05,5c.06,0,.13-.08.21-.26a.53.53,0,0,0,.06-.23.31.31,0,0,0-.21.11l-.11.32Zm0-30.67c.06,0,.13-.08.21-.23a.43.43,0,0,0,.06-.24h-.06s-.08.06-.13.18A.75.75,0,0,0,22.94,14.18Zm.44,26.22A5.53,5.53,0,0,1,24,38.45c.43-.91.69-1.36.79-1.36A24.87,24.87,0,0,1,23.38,40.4Zm.06-26.75a11.42,11.42,0,0,0,2.29-1.76v-.11a.84.84,0,0,1-.38.23q-.18,0-.18.12C24,13.11,23.44,13.61,23.44,13.65Zm.12,29.83Q24,42.16,26.61,36c.15-.36.31-.71.46-1.07s.28-.67.36-.91a8.26,8.26,0,0,1,.76-1.45c-.22,0-.32,0-.32,0l.23-.68.09-.38h-.06c-.29.57-.58,1.17-.85,1.79l-1,2.34a.57.57,0,0,1-.1.31.85.85,0,0,0-.12.24.28.28,0,0,1,0,.11.36.36,0,0,0,0,.18c0,.09,0,.13-.07.13s-.09,0-.1,0v.09a8.07,8.07,0,0,0-.39.94l-.87,2a2.6,2.6,0,0,0-.27.93.55.55,0,0,1-.17.2.44.44,0,0,0-.19.19,1,1,0,0,0-.08.49.11.11,0,0,0,0,.08s0,.06-.06.1a.32.32,0,0,0,.06.2c-.09,0-.15,0-.16,0a1.8,1.8,0,0,0,0,.31.86.86,0,0,1,0,.32.1.1,0,0,1-.07.05s-.05,0-.05.06a.33.33,0,0,1,.15.32Zm.7-7.09v-.06a.3.3,0,0,1,0-.16c0-.05.06-.08.1-.08Zm.15,2.28v-.06a.69.69,0,0,1,0-.22,1,1,0,0,1,.12-.23c.05-.07.09-.1.13-.1a.85.85,0,0,1-.13.38C24.48,38.59,24.43,38.67,24.41,38.67Zm.61-4h0l.06-.29s0,0,.06.17S25.08,34.63,25,34.63Zm.24-.59q-.09,0-.09-.06c0-.07,0-.11.06-.11l.12.06C25.35,34,25.32,34,25.26,34Zm0,1.85s-.06,0-.06-.12a.28.28,0,0,1,0-.16l.08-.09.09-.13a.58.58,0,0,1,.11-.15c.1-.11.16-.17.18-.17a2.54,2.54,0,0,1-.24.53C25.32,35.79,25.25,35.89,25.23,35.89Zm.12-2.76-.12-.05a1.39,1.39,0,0,1,.16-.31c.11-.19.18-.28.22-.28a.82.82,0,0,1-.09.38l-.07.16C25.42,33.1,25.39,33.13,25.35,33.13Zm-.12.62a.27.27,0,0,1,.1-.19.37.37,0,0,1,.28-.1s0,.08-.09.11l-.14.11-.09.06Zm.23,2.4H25.4a.05.05,0,0,1,0,0,1.17,1.17,0,0,1,.19-.13l.06.06a0,0,0,0,1,0,0s0,0,0,0A.2.2,0,0,1,25.46,36.15Zm.27-2.84q-.12,0-.12-.09v-.07a.12.12,0,0,1,0-.09.2.2,0,0,1,.14,0v0C25.79,33.22,25.77,33.31,25.73,33.31Zm.06,1.58c-.08,0-.12,0-.12-.11l.12-.27c.07,0,.11,0,.11.12Zm.17-23,.15-.06a.5.5,0,0,0,.19-.19.44.44,0,0,0,.07-.19q0-.09-.06-.09a.28.28,0,0,0-.17.1.54.54,0,0,0-.15.18.54.54,0,0,1-.06.11.16.16,0,0,0,0,.08Zm.12,20.47.06-.32a3,3,0,0,1,.32-.88s.11-.16.2-.49a3.37,3.37,0,0,1,.44-1.29,4.87,4.87,0,0,0,.36-1q0-.12-.06-.12t-.12.27a.57.57,0,0,1,0-.18.49.49,0,0,0,0-.15c.1-.42.19-.64.29-.64l.06-.23c0-.18,0-.27.1-.27s.11,0,.13-.06v-.2c0-.06.23-.59.68-1.58A6.46,6.46,0,0,1,29.1,24c.17-.32.28-.48.32-.48s.06-.1.07-.28a.73.73,0,0,1,.1-.38.3.3,0,0,0,.09-.18c0-.05,0-.07.08-.07a.31.31,0,0,0,.13,0l.09,0c0-.08,0-.12.11-.12a.16.16,0,0,1,.18.18.37.37,0,0,1-.08.14.94.94,0,0,1-.1.14.4.4,0,0,0-.06.25c0,.11.06.17.18.17a.63.63,0,0,0-.23.44c-.08.16-.16.25-.24.26a.14.14,0,0,0-.12.15.05.05,0,0,0,.06.06l.12-.06.06.06c0,.1-.07.18-.21.23a.33.33,0,0,0-.2.33c0,.15-.05.23-.13.23s-.19.14-.31.41a3.59,3.59,0,0,0-.35.91l.11.17c0,.1,0,.16-.11.18s-.24.16-.24.23a.55.55,0,0,1-.19.44A1,1,0,0,0,28,28a.5.5,0,0,1-.23.35c-.16.12-.24.2-.24.26a8.56,8.56,0,0,1-.73,2C26.35,31.76,26.1,32.31,26.08,32.31Zm.47.71h-.12a1.58,1.58,0,0,1,.25-.63c.16-.31.27-.46.31-.46a1.9,1.9,0,0,1-.21.6A3.38,3.38,0,0,1,26.55,33Zm0-2.81V30c.06-.29.13-.44.23-.44l.15.06-.06.06C26.75,29.65,26.65,29.83,26.55,30.21Zm.23-19,.12-.06q.09-.06.09-.12a.36.36,0,0,0-.21-.05l-.12.05q0,.18.09.18Zm.21,18a.05.05,0,0,1-.06-.06q0-.18.06-.18l.11.06A.26.26,0,0,1,27,29.24Zm.2,2.22h0s-.06,0-.06-.05a.27.27,0,0,1,.09-.24l.15-.12a1.11,1.11,0,0,0-.05.24C27.28,31.39,27.25,31.45,27.19,31.46Zm.21-20.65a.09.09,0,0,0,.06,0,.44.44,0,0,1,.13-.09c.07,0,.1-.07.1-.11a.05.05,0,0,0-.06-.06s-.14.08-.29.23Zm.06,20H27.4l-.06-.12c0-.08,0-.11.12-.11a.1.1,0,0,1,.11.11Zm.29-.82v-.29l.06.11Q27.81,30,27.75,30Zm.12-19.57.32-.12.35-.17a4.91,4.91,0,0,1,1.38-.85,5.42,5.42,0,0,1,1.24-.84,13.84,13.84,0,0,1,1.28-.72q.23,0,4.86-2.22V5.6s0,.05.12.05.17,0,.17-.05.1-.09.3-.14a7.08,7.08,0,0,0,.77-.23c.32-.11.49-.23.49-.38s0-.22.11-.22l.68.15c.11,0,.18,0,.19-.14s.11-.13.3-.13a.2.2,0,0,0,.15-.06l0,0V4.34l.29-.06s0,0,.06,0l.15,0,.14,0A1.74,1.74,0,0,0,41.84,4a2.8,2.8,0,0,1,1-.2V4a.76.76,0,0,0,.32-.11l.09,0L44,3.75c.45,0,.67-.12.67-.23s-.09,0-.29-.06a8.27,8.27,0,0,0-.85.11.38.38,0,0,1-.29-.11l-1.09.29a3.75,3.75,0,0,0-.79.18,3,3,0,0,0-.58.35l-.21-.12c-.45.1-.89.22-1.32.35a1.68,1.68,0,0,1-.47.18,22.69,22.69,0,0,0-3.36,1.46,2.73,2.73,0,0,1-.78.21c-.15,0-.22,0-.22.09v.29a.51.51,0,0,0-.32-.12.54.54,0,0,0-.41.18s-.69.33-1.94,1a11.28,11.28,0,0,0-2.08,1.27l-.11.06a.84.84,0,0,0-.62.35.59.59,0,0,1-.19.13l-.15.08-.11,0a.1.1,0,0,0-.08.1v0a.57.57,0,0,1,0,.13,2.06,2.06,0,0,1-.54.46ZM28,29V29a.31.31,0,0,1,0-.08s0-.07,0-.12l.06-.11.06-.1a.1.1,0,0,1,.09-.06l.11.06A1.91,1.91,0,0,1,28,29Zm.09-2.28.06-.06a.46.46,0,0,0,.06-.29C28.17,26.37,28.13,26.48,28.13,26.72Zm.06,5.59a.1.1,0,0,0,.09,0s0-.14.08-.34a.59.59,0,0,0-.23.38Zm.29-.49q.12,0,.12-.12l-.06-.12a.21.21,0,0,0-.18.18s0,.06,0,.06ZM28.66,28q-.12,0-.12-.09a.29.29,0,0,1,.06-.15.11.11,0,0,1,.12.12Zm.06-.3s-.06,0-.06-.11a2.51,2.51,0,0,1,.35-.79s.06,0,.06.11a.47.47,0,0,1,0,.19.36.36,0,0,0,0,.11,1,1,0,0,1-.16.36C28.78,27.7,28.73,27.74,28.72,27.74Zm.41-1.08h-.06a2,2,0,0,0,.13-.32c0-.1.07-.15.13-.15a.05.05,0,0,1,.06.06.46.46,0,0,1-.06.18.83.83,0,0,1-.12.17A.21.21,0,0,1,29.13,26.66Zm.11,3.49.06-.06q.09-.06.09-.12a.05.05,0,0,0-.06-.06l-.15.24Zm.15-4a.05.05,0,0,1-.06-.06l.12-.26.11-.06V26C29.51,26.07,29.45,26.13,29.39,26.13Zm.23-.79v-.06a.54.54,0,0,1,.09-.26.25.25,0,0,1,.21-.15l-.06.13a1,1,0,0,1-.09.17Zm.12-2.87v-.18a.27.27,0,0,1,0-.11l.1-.21.06.06a.5.5,0,0,0-.05.16.48.48,0,0,1-.06.18Zm.12,2.29V24.7a1.32,1.32,0,0,1,.12-.38,1.66,1.66,0,0,0,.11-.41.74.74,0,0,1,.06-.27c.12-.27.24-.41.35-.41l.09.06a2.5,2.5,0,0,1-.29.76l-.15.3a1.91,1.91,0,0,1-.2.33Zm.29-3.2h-.06a.83.83,0,0,1,.12-.41l.06.06A.46.46,0,0,1,30.15,21.56Zm.18-.67v-.06a.89.89,0,0,1,.07-.29l.13-.38q.06-.18.12-.21h.06a3.79,3.79,0,0,1-.18.7C30.43,20.81,30.37,20.89,30.33,20.89Zm.73-1.73c.14,0,.25-.26.35-.79v-.06a.11.11,0,0,0-.09.07,2.93,2.93,0,0,1-.17.31A.82.82,0,0,0,31,19Zm.17,12.89c-.11,0-.17,0-.17-.06s.42-.39,1.26-.82a22.46,22.46,0,0,0,4.42-2.84c.26-.19.57-.42.94-.67l.23-.18a.36.36,0,0,1,.18-.09c-.06.08-.34.35-.85.82l.53-.29,0,.06c-.1.23-.17.35-.21.35a4.16,4.16,0,0,0-.89.7,3.22,3.22,0,0,1-.67.57,1.46,1.46,0,0,0-.28.14,11.24,11.24,0,0,1-2,1.34,3.74,3.74,0,0,1-1.12.5l.47-.41H33c-.74.28-1.11.47-1.11.59l.47-.06A3.83,3.83,0,0,1,31.23,32.05Zm0-10.49v-.23s-.05.08-.05.23Zm.68-1.49.06-.24c0-.07,0-.11-.06-.11a.79.79,0,0,0-.06.32S31.87,20.07,31.91,20.07ZM32.49,18l.06-.12v-.17S32.51,17.76,32.49,18ZM36.83,5.3l0,0s0,0,0,0l-.26,0a.14.14,0,0,0,0,.11ZM37.3,30h-.18s0,0,.05-.06l.07-.06.24-.11.05.11ZM38.76,5h0V5l.06-.12a.05.05,0,0,1,.06.06Q38.85,5,38.76,5Zm.88,24.9s-.06,0-.06-.12,0-.18.09-.2h.18q.09,0,.09-.06c0-.12,0-.17.05-.17a2.69,2.69,0,0,0,.52-.44,1.42,1.42,0,0,1,.72-.47.33.33,0,0,0,.19-.21c0-.12.22-.24.51-.38l.29-.29c0,.31,0,.47-.06.47a.16.16,0,0,0,0-.08.3.3,0,0,1,0-.16,3.43,3.43,0,0,0-.32.41.58.58,0,0,1-.09.3c-.17.29-.31.44-.41.44s-.26.11-.49.35a1,1,0,0,1-.58.35.53.53,0,0,0-.39.2ZM39.76,4.1,40.17,4c.2-.06.29-.11.29-.17a.82.82,0,0,0-.35.06A1.07,1.07,0,0,0,39.76,4.1ZM41,3.75a3.57,3.57,0,0,0,.59-.12c.39-.09,1-.2,1.7-.32.31-.06.47-.12.47-.18a8.4,8.4,0,0,0-1.6.27C41.35,3.57,41,3.69,41,3.75Zm.53,21.88a2.51,2.51,0,0,1,.26-.26c.39-.37.59-.58.59-.64s.13-.18.41-.35l.44-.24a6.22,6.22,0,0,1-.79.78A3.62,3.62,0,0,1,41.49,25.63Zm2-23q.18,0,.18-.12s-.06,0-.18-.06-.23,0-.23.06,0,.12.17.12Zm.94.46c.19,0,.3,0,.32,0s-.06,0-.18-.06L44,3.08S44.16,3.13,44.48,3.13Zm1.93,20.6-.06-.06c0-.12.06-.17.18-.17a.21.21,0,0,1,.12.05Zm1.38-1.08h-.06s0-.06.09-.11a.3.3,0,0,1,.14-.07C48,22.59,47.9,22.65,47.79,22.65Zm.55-5.1h-.05c0-.06.05-.15.17-.26s.08-.09.18-.09Zm.24.53L48.52,18a.19.19,0,0,1,.1-.18.38.38,0,0,1,.19-.06A.8.8,0,0,1,48.58,18.08Zm.29-.53,0,0a.16.16,0,0,1,0-.1l.15-.14a1.07,1.07,0,0,0,.47-.71,1.47,1.47,0,0,1,.25-.25c.1-.08.16-.15.16-.19a1.89,1.89,0,0,1,.23-.41,2.64,2.64,0,0,0,.21-.29.57.57,0,0,0,.09-.29s-.16.13-.36.41-.45.55-.52.55.28-.44.85-1.27a7.36,7.36,0,0,1,.93-1.25l-.17.47a.05.05,0,0,0,.06.06.09.09,0,0,1,.07,0s.07,0,.12-.09l.16-.17h.06l.26.47v.06l-.15-.06s0,0,0,.13a2.43,2.43,0,0,1-.29.72,12,12,0,0,1-.57,1.11c-.24.43-.43.74-.57.94a.45.45,0,0,1-.32.17L50,17.2a.92.92,0,0,0,.21-.44.11.11,0,0,0-.12-.12l-.52.44A2.32,2.32,0,0,1,48.87,17.55Zm1.44,2.08c.11,0,.17-.06.17-.18H50.4l-.15.18Zm.23-3.84c.12,0,.27-.25.44-.76l-.5.7Zm.27-1s0-.05,0-.15,0-.06,0-.06-.12,0-.12.09A.11.11,0,0,0,50.81,14.74Zm1.72-2.52.06-.15q0-.12-.06-.12a.26.26,0,0,0-.11.18C52.42,12.19,52.46,12.22,52.53,12.22Zm.91-2.35.06-.11-.06-.15-.06.09Zm0,.47v-.23l-.06.11Z"/><path class="cls-1" d="M47.52,42.8s0-.08-.05-.23l-.18-.35h-.15s-.06,0-.06.11,0,.12,0,.12-.26-.15-.36-.45a2.75,2.75,0,0,0-.46-.88c-.22-.28-.39-.43-.52-.43s-.24-.11-.33-.35a9,9,0,0,1,0-1,3.57,3.57,0,0,1,.21-1.25,1,1,0,0,0,.18-.48.4.4,0,0,1,0-.15c0-.21.09-.45.14-.72s.22-.83.51-1.71.38-1.17.45-1.17.13-.17.16-.5a2.59,2.59,0,0,1,.3-.94c.15-.29.33-.44.52-.44t0,.06l0,.15a.75.75,0,0,0-.18.47.29.29,0,0,1-.15.3.31.31,0,0,0-.14.3,2.24,2.24,0,0,1-.06.48c-.2.43-.4.94-.62,1.52a12.18,12.18,0,0,0-.79,2.82.65.65,0,0,1-.12.41,3.45,3.45,0,0,0-.11,1l-.06.79a2.4,2.4,0,0,0,.56-.85l-.06-.06.14,0a.51.51,0,0,0,.18-.08.09.09,0,0,0,0-.06l-.06-.12a.5.5,0,0,1,0-.15.54.54,0,0,1,.22,0c.14,0,.22-.09.24-.29V38.5l-.18.23a.05.05,0,0,1-.06-.06.41.41,0,0,1,.18-.32.59.59,0,0,0,.31-.31.66.66,0,0,1,.38-.33.4.4,0,0,0,.28-.36c0-.13,0-.2-.06-.2l-.24.32v-.06a4.64,4.64,0,0,1,.31-.92c.07-.11.14-.16.22-.16L48,35.77a.2.2,0,0,1,.21-.22c.13,0,.2,0,.2-.07l-.11-.06a.23.23,0,0,1-.18-.23,3,3,0,0,0,.29-1.09L48.34,34l.06,0h.08s.07-.1.13-.28l.35-1,.82-2.66a1.17,1.17,0,0,0,0-.32c-.08,0-.17.1-.26.32a1.81,1.81,0,0,1-.33.5.84.84,0,0,1-.23.19h-.1l-.11,0-.05-.12.17-.82a3,3,0,0,0,.29-.92.51.51,0,0,1,.18-.39V28l-.06-.06c-.06,0-.16.24-.29.73a11.91,11.91,0,0,1-1,2.76,1,1,0,0,0-.06.32c0,.1,0,.15,0,.15a.16.16,0,0,1-.18-.18,18.42,18.42,0,0,1,.53-1.79L49,27.22a3.61,3.61,0,0,0,.23-1l.24-1.14a3,3,0,0,1,.14-.81.3.3,0,0,1,.18,0,3.59,3.59,0,0,1,1,.29q-.21,0-.24.15s0,.08.12.11a1,1,0,0,0,.41.06,1.61,1.61,0,0,1,.44.05l.32.1a.77.77,0,0,1,.32.23,1.79,1.79,0,0,1,.18.91l0,.38.06.12-.27.73a4,4,0,0,1-.17.88,2.15,2.15,0,0,1-.22.62s-.06.05-.09.14a1.47,1.47,0,0,0-.05.41,3.62,3.62,0,0,1-.23,1.12,4,4,0,0,0-.35,1.11c0,.18,0,.26-.15.26l-.11.18,0,.15c.14,0,.4-.33.79-1A24.93,24.93,0,0,1,54,27.57a8.87,8.87,0,0,1-1.14,2l-.47.85A20.8,20.8,0,0,1,50.92,33a6.74,6.74,0,0,0-.76,1.82c.06,0,.14-.09.24-.25a10.11,10.11,0,0,1,.79-1.07,7.77,7.77,0,0,0,.87-1.22,1.88,1.88,0,0,1,.28-.53l.4-.6L52.8,31a.91.91,0,0,0,.11-.3v-.07h.18a.6.6,0,0,0,.06-.27,2.48,2.48,0,0,1,.5-.82,3,3,0,0,0,.29-.35.59.59,0,0,0,.12-.29q0-.12.06-.12l.73-1a19.4,19.4,0,0,1,1.7-2.49,4.3,4.3,0,0,1,1.23-1.17,1,1,0,0,0,.44-.35l.06-.12h.29c.08,0,.16-.05.26-.16a.48.48,0,0,0,.15-.33L58.92,23l.12-.12c.11,0,.17.14.17.41h0l0-.05,0-.06a.49.49,0,0,1,.12-.26.44.44,0,0,1,.32-.09,11.38,11.38,0,0,1,2.61.62c.45.19.67.36.67.51s.13.27.4.38.39.23.39.37a.14.14,0,0,0,0,.06l0,.1c0,.05.08.07.18.07a.47.47,0,0,1,.17.35c0,.12-.06.18-.17.18a1,1,0,0,1-.74-.47,1,1,0,0,0-.41-.35,1.46,1.46,0,0,0-.58-.09,3.83,3.83,0,0,0-1.09.15,6.92,6.92,0,0,0-2,1.26A12.26,12.26,0,0,0,57.1,28c-.17.29-.39.62-.64,1a12.12,12.12,0,0,0-.79,1.23s-.57,1-1.7,2.82l-2,3.13a.52.52,0,0,0-.18.35q0,.18-.15.18c-.09,0-.14.06-.14.17a1.05,1.05,0,0,1-.12.3c-.08.15-.18.32-.29.5a1.65,1.65,0,0,0-.44.76.37.37,0,0,1-.18.32L50.4,39c0,.16,0,.24,0,.24a1.43,1.43,0,0,0-.24.32,4.89,4.89,0,0,0-.38.76,8.66,8.66,0,0,1-.94,1.5c-.35.45-.6.67-.76.67l-.17-.06c-.06,0-.12,0-.18.13A1.42,1.42,0,0,1,47.52,42.8Zm.41-9.61c.37-1.46.66-2.21.85-2.25h.12q.12,0,.12.06a.66.66,0,0,1-.24.41,1.53,1.53,0,0,0-.17.64A1.86,1.86,0,0,1,47.93,33.19ZM49.25,30a.11.11,0,0,0,.12-.12c0-.11,0-.18-.12-.2l-.11.2c0,.08,0,.12.08.12Zm0,4.6q.18,0,.18-.12c0-.07-.06-.11-.18-.11l-.11,0Zm.35-5.39c.1,0,.27-.18.5-.53C49.77,28.83,49.6,29,49.6,29.18Zm.15,7.68.29-.47.3-.62-.06-.06-.06.06a.36.36,0,0,0-.18.31c0,.13,0,.19-.08.19h0a.56.56,0,0,0-.18.29Zm.76-1.09s.1-.06.19-.17a7,7,0,0,0,.49-1h-.12c-.14,0-.29.22-.47.67A1.54,1.54,0,0,0,50.51,35.77Zm.85-1.38c.06,0,.24-.2.53-.61a2.5,2.5,0,0,0,.44-.75c0-.09.18-.32.54-.7a5.76,5.76,0,0,0,1-1.39,13.06,13.06,0,0,0,.85-1.26,7.81,7.81,0,0,0,.71-1.22A3.83,3.83,0,0,1,56,27.6l1.23-1.44a7.18,7.18,0,0,1,1.61-1.46q.24-.12.24-.27c0-.05-.06-.11-.18-.17a.3.3,0,0,0-.29.17.29.29,0,0,1-.27.18,7,7,0,0,0-.88.85c-.72.72-1.22,1.26-1.5,1.61a2.2,2.2,0,0,0-.43.62l.06,0a.31.31,0,0,1-.13.06,1.73,1.73,0,0,0-.44.35c-.23.22-.38.33-.46.33s-.11,0-.11.06l.06.05A7.87,7.87,0,0,1,53.88,30a4.65,4.65,0,0,0-.73,1.38l.06.11h-.12c-.06,0-.13.05-.2.15a.78.78,0,0,0-.15.25.84.84,0,0,1-.07.16.21.21,0,0,0-.05.09,3.37,3.37,0,0,1-.56.73A4.42,4.42,0,0,0,51.36,34.39ZM54,27.22l.53-.62s0,0,0,.12S54.39,27,54,27.22Zm.85-1.09v-.06a5.84,5.84,0,0,1,1-1.21,7.9,7.9,0,0,1,1.54-1.19l.88-.5h0c0,.06-.15.17-.46.33a11,11,0,0,0-2.47,2.08C55.16,26,55,26.13,54.85,26.13Zm4.48-1.87q.18,0,.18-.12a.5.5,0,0,1,0-.19c0-.05.11-.12.29-.22a3.45,3.45,0,0,0,.51-.15.22.22,0,0,0,.13-.23l-.06-.06a4.91,4.91,0,0,1-1.08.44c-.23.12-.35.23-.35.35S59.1,24.2,59.33,24.26Z"/><path class="cls-1" d="M60.59,39.38l-.06-.18a2.5,2.5,0,0,1,.12-.7l.06.17A2.89,2.89,0,0,1,60.59,39.38Zm4.69,3.72L64.72,43c-1-.14-1.59-.35-1.79-.65s-.25-.32-.41-.32-.2.09-.2.26a.05.05,0,0,1-.06.06l-.41-.32a2.43,2.43,0,0,1-.64-.64,4.32,4.32,0,0,1-.62-1.73l.29.41c.08,0,.19-.34.33-1a5.2,5.2,0,0,0,.11-.77,1.54,1.54,0,0,1,.06-.43c.08,0,.12-.1.12-.29v-.12a1.62,1.62,0,0,1,.06-.53c0-.09.08-.14.11-.14l.41.17h.06V36.8l.18.06c0,.11-.16.17-.47.17q-.09,0-.18.21c0,.11.06.17.18.17a.46.46,0,0,0,.23-.06.07.07,0,0,1,0,0l-.07.06-.11.07a.46.46,0,0,0-.1.1.29.29,0,0,0-.06.19l.06.3c0,.11,0,.17-.09.17a.2.2,0,0,0-.14.06l.06.15a2.57,2.57,0,0,1-.12.82c0,.35,0,.53.06.55s.17-.2.29-.61l.12.23a.46.46,0,0,1-.06.28l-.07.1-.05.06.06.06H62v.06l-.3.29c.16,0,.3.12.41.35l.06-.11a18.7,18.7,0,0,1,.53-2.64,2.49,2.49,0,0,0,.15-.81,1.18,1.18,0,0,1,.29-.74.24.24,0,0,0,.06-.18.56.56,0,0,1,0-.2.49.49,0,0,0,0-.15c.09-.37.19-.56.29-.57s.15-.15.17-.41.07-.43.15-.49.12,0,.12-.08v-.06a.37.37,0,0,1,.06-.21.1.1,0,0,0,.11-.11v-.06a5.89,5.89,0,0,1,.33-1,3.36,3.36,0,0,1,.46-1s0-.06.09-.14a1.06,1.06,0,0,0,.16-.3c0-.11.11-.25.17-.41l0,0a2.25,2.25,0,0,1,.27-.59A3.82,3.82,0,0,0,65,31.52a9.07,9.07,0,0,1-.71,1.2A3.38,3.38,0,0,0,63.52,34a6.2,6.2,0,0,1-.47.8,3.46,3.46,0,0,1,.29-.91.65.65,0,0,0,.12-.41v-.12a.29.29,0,0,0-.17,0s0-.06,0-.06a.59.59,0,0,0,.44-.23.69.69,0,0,0,.21-.41s-.11,0-.32-.06-.18.14-.18.17,0,.06-.12.06a3.7,3.7,0,0,1,.41-1,3.45,3.45,0,0,1,.5-.83l.06.06a.22.22,0,0,0,0,.1.35.35,0,0,1,0,.12l-.06.11,0,.08.17-.12A.69.69,0,0,0,64.5,31a.93.93,0,0,0,.1-.39c0-.28.12-.41.22-.41s.16,0,.16,0l0-.21a.23.23,0,0,1,0-.13.25.25,0,0,0,0-.07.31.31,0,0,1,0-.08.12.12,0,0,1,.07-.07.75.75,0,0,1,.27,0l-.12-.12c0-.07.06-.16.18-.25a.36.36,0,0,0,.17-.27l-.06-.12a.09.09,0,0,1,.06,0s0,0,.07-.05l.06-.05,0,0,0,0,0-.05,0,0a.08.08,0,0,1,0,0l0-.06a1.71,1.71,0,0,1,.41-.59l.33-.35v-.06l-.41.18a6,6,0,0,0-1.53,1.73,2.22,2.22,0,0,1-.64.73h-.24a3.81,3.81,0,0,1,.53-.88c.35-.51.73-1,1.13-1.51a7.52,7.52,0,0,1,.94-1c.22-.18.45-.38.68-.6a2.07,2.07,0,0,1,.36-.32.52.52,0,0,1,.26-.12.2.2,0,0,1,.06.15q0,.09.06.09a4.67,4.67,0,0,0,1-.18l.12-.06-.06-.11c0-.12.26-.26.76-.41a1.11,1.11,0,0,1,.5-.12.51.51,0,0,1,.35.12,2.35,2.35,0,0,0,.8.17c.23,0,.5.18.82.53a1.68,1.68,0,0,0,1,.44,3.94,3.94,0,0,1,1.44.38,1.27,1.27,0,0,1,.48.38.94.94,0,0,0,.31.32,5.31,5.31,0,0,1,.41.47c.06.24.17.35.35.35l.5-.11s.06.06.17.06a2.46,2.46,0,0,0,1-.36,6.27,6.27,0,0,1,1.38-.52l.41-.15a0,0,0,0,1,0,0h-.09v0l.12-.12a2.87,2.87,0,0,1,1-.17.65.65,0,0,1,.35.06s0,.08-.1.11a.31.31,0,0,0-.13.12c-.16.06-.23.13-.23.21l.17.06.62-.15a5,5,0,0,1-1.47.69,11.7,11.7,0,0,1-1.48.51c-.09,0-.13,0-.13.13s-.1.13-.29.13a1.61,1.61,0,0,0-.44.09,1.91,1.91,0,0,0-.59.32c.76-.19,1.55-.43,2.37-.7,1.39-.45,2.08-.75,2.08-.91a.32.32,0,0,0,.14,0,.51.51,0,0,1,.17,0,.49.49,0,0,1,.19.14.3.3,0,0,1,.09.19v0s-.14.19-.41.44c0,.12-.37.33-1.1.63s-1.22.5-1.48.57-.26.05-.26.13a5.5,5.5,0,0,1-1.61.84s-.1.09-.3.15a1,1,0,0,0-.46.2.32.32,0,0,0-.18.31,2.72,2.72,0,0,1-.09.6,13.67,13.67,0,0,1-1,2.53,14.23,14.23,0,0,1-1.39,2.39l-1.12,1.44a13.77,13.77,0,0,1-3.54,3.42c-.72.59-1.08.93-1.08,1h.08s0,0,0,.06l-.17.12-.13,0s0,0,0-.1a5.09,5.09,0,0,0-1.64.35A1.65,1.65,0,0,1,65.28,43.1Zm-4.57-5V38a5.05,5.05,0,0,1,.11-.62,6.24,6.24,0,0,1,.44-1.49h.09s0,0,0,.09A6.7,6.7,0,0,1,60.71,38.06Zm.85-2.82a1.31,1.31,0,0,1,.29-.67v.21A2.17,2.17,0,0,1,61.56,35.24ZM62,36.56h-.21l-.12-.06s.06,0,.18,0l.18,0Zm.11-.26h0l-.21-.12.06-.23a1.73,1.73,0,0,1,0-.24l0-.07,0-.07,0-.06a.26.26,0,0,1,.18-.09l-.18.35,0,.38s0,.07,0,.08Zm.15.32-.06-.06.12-.23c.14,0,.2,0,.2.06v0S62.44,36.52,62.26,36.62Zm0-2.93.12-.5.26-.47h.06l-.18.47Zm.32,2.14v-.12a.62.62,0,0,1,.09-.32.25.25,0,0,1,.21-.15l-.12.38Q62.67,35.83,62.58,35.83Zm.18-3.34H62.7a7.73,7.73,0,0,1,.35-.82c.45-.74.73-1.11.85-1.11A12.3,12.3,0,0,1,62.76,32.49Zm1,.06v-.06c0-.18.17-.44.52-.79l-.11-.06a.34.34,0,0,0-.18.07,2.69,2.69,0,0,0-.32.78Zm.52,8.76a.62.62,0,0,0,.41-.24c.1-.09.28-.23.53-.41a7.13,7.13,0,0,1,1.26-.74c.14,0,.2-.09.2-.18s.1-.13.3-.13c.41-.18.61-.33.61-.47L67.5,39l0-.06c.08-.19.19-.29.34-.29s.43-.2.84-.61a12.29,12.29,0,0,1,1.55-1.38c.12,0,.18,0,.19-.15a1,1,0,0,1,.28-.44,15.31,15.31,0,0,1,.91-1.31.55.55,0,0,1,.1-.18l.17-.26c0-.08.24-.32.57-.71a.15.15,0,0,0,.14-.09.33.33,0,0,0,0-.17.49.49,0,0,1,.09-.32c.06-.08.11-.16.16-.24l.16-.26a4.31,4.31,0,0,0,.53-1.2l-.35-.06-.82.06q-1,0-2.85-.18l-.46-.06a2.21,2.21,0,0,0-1.78.78A12.63,12.63,0,0,0,65.75,35l-1,2.08-.64,2a3.82,3.82,0,0,0-.18,1v.29C63.9,41,64,41.27,64.25,41.31Zm-.35-8.88c.06,0,.15-.08.28-.23a.69.69,0,0,0,.19-.38l-.12-.12A2,2,0,0,0,63.9,32.43ZM67.8,39c.08,0,.11,0,.11-.11s0-.12,0-.12l-.18.12c0,.06,0,.09,0,.1ZM70,38.79c0-.06,0-.09,0-.1l.06,0v0h-.2q-.12,0-.12.09S69.83,38.77,70,38.79Zm.64-.5a1.72,1.72,0,0,0,.5-.35.79.79,0,0,1,.29-.23l.67-.69a.39.39,0,0,0,.09-.11l.5-.35-.29.44a1.07,1.07,0,0,0-.27.53l.06.06a2,2,0,0,0,.56-.44,3.09,3.09,0,0,0,.53-.88l-.06-.12.06-.06.11.06c.2,0,.59-.56,1.18-1.7a6.49,6.49,0,0,0,.87-2.37.51.51,0,0,1,0-.16s0,0,.07,0,.07-.19.09-.56a.28.28,0,0,0-.1-.25.53.53,0,0,0-.31-.07c-.33,0-.56.25-.67.76a1.46,1.46,0,0,1-.16.41c-.07.1-.12.14-.14.14H74.1l.17.18-.12.12a.35.35,0,0,0-.17.29.5.5,0,0,1-.18.35l-.06,0a.21.21,0,0,0,0,.09h0a3.39,3.39,0,0,0-.38.56,1.37,1.37,0,0,1-.1.52c-.07.18-.14.28-.22.31s-.13.05-.14.07l0,.06c0,.08,0,.12-.11.12h-.06l0,0-.07,0a.12.12,0,0,0-.06.12l.06.05.24-.11v.11s0,0-.08.09l-.1.09c-.16,0-.28.12-.38.35s-.16.5-.24.5l0-.06,0-.06V36a.22.22,0,0,1-.1,0s-.07.09-.07.27t-.06.09a2.38,2.38,0,0,1-.47.61c-.45.47-.67.75-.67.84s0,.13-.12.13-.12,0-.12.09S70.53,38.29,70.61,38.29Zm.12-9a5.66,5.66,0,0,0,1-.18c1.15-.27,1.9-.43,2.23-.47L73.25,27l-.65-.12c-.21,0-.39.19-.54.58s-.31.6-.5.65a1.49,1.49,0,0,0-.58.43,2,2,0,0,0-.43.63v0Q70.55,29.3,70.73,29.3Zm2.75,3.25a.14.14,0,0,0,.1,0l.06,0,0,0L73.8,32l-.08.06a.32.32,0,0,0-.12.15.48.48,0,0,0-.18.35ZM75,28.48q.36-.12.36-.21l-.15-.2A2.75,2.75,0,0,1,75,27.7a2.83,2.83,0,0,0-.15-.28,1.09,1.09,0,0,0-.45-.35l.12.38q0,.12-.09.12h0c-.08,0-.12.06-.12.17,0,.43.08.65.24.65a3.67,3.67,0,0,1,.67-.18l-.23.27Z"/><path class="cls-1" d="M81.77,42.74l-1-.23a.38.38,0,0,1-.16,0,2,2,0,0,0-.47,0,1.23,1.23,0,0,1-.63-.13,4.27,4.27,0,0,1-.65-.51,5.16,5.16,0,0,1-1.58-2.49l-.12-.41L77,39.2s0-.1,0-.29a7.27,7.27,0,0,1-.09-1.44q.18-4,4-10.25a14.09,14.09,0,0,1,1.58-2.08,9.86,9.86,0,0,1,1.81-1.59c.59-.39.89-.63.89-.73l.12-.06.64.12.24-.06a.75.75,0,0,1,.32-.17.24.24,0,0,1,.23.23.12.12,0,0,0,.09.12s.22.06.62.06a2,2,0,0,1,1.93,1.43,4,4,0,0,1,.17,1.2A6.65,6.65,0,0,1,89.1,28l-.62,1.61c0,.16-.07.31-.1.45a1.53,1.53,0,0,1-.43.63.83.83,0,0,1-.73.5.43.43,0,0,1-.41-.17c0-.14-.07-.21-.22-.21s-.39-.21-.75-.64q0-.06.09-.06T86,30l-.18-.79a1.27,1.27,0,0,1,.12-.41c.18-.47.34-.73.5-.79a.57.57,0,0,0,.15-.34,5.85,5.85,0,0,1,.2-.86c.12-.43.2-.65.24-.65l0,.06-.11.35h0a.21.21,0,0,0,0-.07l.06-.09a.69.69,0,0,0,.09-.18l-.12-.38.06-.06.06.06.06-.06-.06-.23q0-.21.06-.24l.18.06,0-.06a.22.22,0,0,0-.07-.07s-.06-.12-.06-.28l.06-.12-.06,0-.35.17a4.78,4.78,0,0,0-1.33,1.14c-.68.71-1.36,1.48-2.06,2.32a13.24,13.24,0,0,0-1.42,2,15.09,15.09,0,0,1-.76,1.5,3.94,3.94,0,0,0-.44,1L81,33a.24.24,0,0,1-.13,0c-.07,0-.23.32-.47.92A4.35,4.35,0,0,0,80,35.27q0,.21,0,.21h0s-.06.08-.06.25,0,.25-.09.25-.09.07-.09.22a10.5,10.5,0,0,1-.17,1.15,9.48,9.48,0,0,0-.24,2.35c0,.54,0,.86.15.93a1.28,1.28,0,0,0,.7.12,3.78,3.78,0,0,0,1.07-.2,4.28,4.28,0,0,0,.89-.38,3.92,3.92,0,0,1,.56-.24,3,3,0,0,1,.82-.17l.21-.06a2.53,2.53,0,0,0,.76-.35c.13-.1.45-.31.93-.62s1-.63,1.41-1l.41-.29a6.19,6.19,0,0,0,.53-.39A.87.87,0,0,1,88,36.9s.06,0,.06,0a.51.51,0,0,1,0-.09.13.13,0,0,1,.07-.09l.1-.06.1,0a.34.34,0,0,0,.12-.06.35.35,0,0,1,.15-.07c-.1.31-.18.46-.24.46s-.11.06-.17.18l-.24.44L88.6,37a2.92,2.92,0,0,1,.38-.32,17.75,17.75,0,0,1,1.87-1.82,3.37,3.37,0,0,1,.77-.64,11.51,11.51,0,0,1-1,1.08,7.84,7.84,0,0,0-.94,1,.26.26,0,0,0-.09.17c.06,0,.18-.11.36-.35a2.48,2.48,0,0,0,.29-.17l.42-.27s0,0,.09-.07a.31.31,0,0,0,.1-.16.14.14,0,0,1,.11-.1.67.67,0,0,0,.22-.14c.09-.07.41-.42.93-1l.12-.29c.06-.37.14-.56.24-.56l.08,0s.06,0,.06.07a.74.74,0,0,0,0,.12.19.19,0,0,0,0,.1,5.05,5.05,0,0,1,.51-.57c.17-.15.27-.22.31-.22l.06.06-.06-.12c0-.12.25-.42.73-.91a6.13,6.13,0,0,1,1-.76l-.26.41.06.06.32-.12.06.06a.35.35,0,0,1-.24.12l-.32.5a3.63,3.63,0,0,1-.67,1c-.63.81-1.42,1.74-2.38,2.82-.74.92-1.5,1.79-2.28,2.63A10.65,10.65,0,0,1,86.34,41C84.08,42.17,82.55,42.74,81.77,42.74Zm-4.33-2.28-.06-.06a1.08,1.08,0,0,1-.24-.79l.24.56Zm.14-.85A7.89,7.89,0,0,0,77.64,38q0-1.41.18-1.41s.06-.07.06-.22a3.44,3.44,0,0,1,.14-.78,13.39,13.39,0,0,1,.88-2.25l.12-.53a1.3,1.3,0,0,1,.23-.47,2.63,2.63,0,0,0,.41-.82,6.15,6.15,0,0,1,.74-1.34L81.1,29a2.05,2.05,0,0,1,.36-.57,1.06,1.06,0,0,0,.31-.69c.1-.19.22-.4.35-.61l.18-.47-.06-.06a20.17,20.17,0,0,0-2,2.7v-.12h-.06c-.14.1-.21.2-.21.29a1.24,1.24,0,0,1-.29.56.82.82,0,0,0-.23.5,2.87,2.87,0,0,1-.35.88,2,2,0,0,0-.5.85.66.66,0,0,1-.18.29l-.12.17a5,5,0,0,1-.27,1c-.19.53-.31.8-.37.8l-.06-.06-.06.06.06.21c0,.15,0,.23-.07.23a.18.18,0,0,0-.13.06l.14.41a.27.27,0,0,1-.2.06l.06.35h-.12L77.2,36c0,.15,0,.23,0,.23h0a.94.94,0,0,1,0,.29,3.59,3.59,0,0,0-.12,1,6.25,6.25,0,0,0,.13,1.26A2.7,2.7,0,0,0,77.58,39.61Zm.76-2.14.06-.12v-.14l-.06-.12,0,.15ZM78.4,36l.06-.27a2.23,2.23,0,0,1,.12-.41l.29-.76.27-.56V34l0,.06-.17.74s0,0,.06,0l.47-1.37-.3.41h-.06c.24-.72.49-1.43.77-2.11a.89.89,0,0,1,.2-.38c.39-.55.68-.82.88-.82a2.73,2.73,0,0,1,.26-.91c.14-.27.24-.41.3-.41l.05.06.24-.12c.16-.18.23-.29.23-.35a.05.05,0,0,0-.06-.06.74.74,0,0,1-.23.15l-.06,0a2.94,2.94,0,0,1,.29-.71l.74-1.11h-.12L81,29.47c-.12.24-.24.5-.37.78s-.22.43-.29.45a.14.14,0,0,0-.1.15c0,.21,0,.32-.12.32H80l.05.06-.52,1.32a21,21,0,0,0-.82,2.11,5.31,5.31,0,0,0-.33,1.23Zm1.7-3.78.35-.65a4,4,0,0,0,.36-.76,1.33,1.33,0,0,0-.33.44A3.36,3.36,0,0,0,80.1,32.26Zm1.32-2.41.12-.11.11-.27A.37.37,0,0,0,81.42,29.85Zm5.86-3c.23,0,.4-.4.5-1.08l.12.06.11-.35.06-.76a.45.45,0,0,0-.12-.33s0,.06-.08.18l0,.06a3,3,0,0,0-.15.61,2.74,2.74,0,0,1-.23.91A2.87,2.87,0,0,0,87.28,26.89Zm1.44,9.73.08-.23c0-.2,0-.32.06-.35h.29l.12.05C89.27,36.19,89.09,36.37,88.72,36.62Zm.38-.85s.06-.07.2-.16.34-.25.62-.48a1.84,1.84,0,0,0-.14.14,1,1,0,0,1-.17.19,1.45,1.45,0,0,1-.29.21A.9.9,0,0,1,89.1,35.77Zm1.55-.94,0,0s0-.07,0-.17,0-.29.06-.29l.29.38-.06.06-.11-.06Zm.73-.73.47-.73s.06.05.06.15S91.73,33.79,91.38,34.1Z"/><path class="cls-1" d="M98,42.74H96.8a3.93,3.93,0,0,1-1.89-.44,6.3,6.3,0,0,1-1.36-.92,4.52,4.52,0,0,1-.62-.63,5,5,0,0,1-.87-3.1,8,8,0,0,1,.35-2.35A11.24,11.24,0,0,1,93,33.69l.29-.73,2.23-4a11.87,11.87,0,0,1,1.2-1.67l.88-1.21a4.22,4.22,0,0,1,.65-.57,1.91,1.91,0,0,1,.32-.16,5,5,0,0,1,1.26-.47,11.31,11.31,0,0,1,1.55-.11,2.21,2.21,0,0,1,1.51.76,4.3,4.3,0,0,1,1.1,1.76l.12.93a6,6,0,0,1-1.21,3.23c-.11.19-1.11,1.26-3,3.19a9.44,9.44,0,0,1-1.54,1.46,1.18,1.18,0,0,0-.51.3,1.76,1.76,0,0,1-.34.25.86.86,0,0,1-.28.1c-.22,0-.35,0-.41.12a1.72,1.72,0,0,1-.89-.33,1.91,1.91,0,0,1-.71-.66c-.12-.22-.22-.33-.28-.33s-.24.31-.38.93a10,10,0,0,0-.2,2c0,1.71.44,2.57,1.32,2.57a4.73,4.73,0,0,0,2.58-.76l.35-.2a8,8,0,0,0,1.49-1,1.1,1.1,0,0,1,.56-.35l.11.06c0-.26.08-.39.24-.41l.23.06,0-.06c0-.14.44-.53,1.34-1.17l.71-.53,0,.06-.17.35c0,.1,0,.14.06.14a3.67,3.67,0,0,1,.38-.32l.14-.11c1.22-.92,1.82-1.5,1.82-1.73V35l.09.07.07.06a.19.19,0,0,0,.13,0l-.11-.41.52-.21.12.06c.14,0,.54-.32,1.22-1s1-1,1-1.18a1,1,0,0,1,.06-.37c.07,0,.11,0,.11.09l-.11.23h.06l.11-.12a5.92,5.92,0,0,0,.9-.74,1.52,1.52,0,0,0,.3-.4l-.06-.06-.41.24h-.11a.58.58,0,0,1-.24.41l-.23.06a1.47,1.47,0,0,1,.2-.27,6,6,0,0,1,1.47-1.23,1.18,1.18,0,0,0,.29-.23c0,.06-.12.17-.35.35a2.6,2.6,0,0,0-.5.73c0,.18-.59.83-1.79,2a9.83,9.83,0,0,0-.68.74.93.93,0,0,0-.22.52s0,.06-.12.06-.06,0-.06-.11l.06-.06-.06-.06s-.14.1-.29.31a1,1,0,0,0-.24.39c0,.06-.18.23-.55.5l.44-.47a.83.83,0,0,0-.5.26c-.2.18-.29.31-.29.39s-.08.33-.12.35a.47.47,0,0,0-.12.09l.06-.33.12-.11c-.35.11-.53.24-.53.38v0h0s.05,0,.15,0l-.18.11c-.25,0-.38.05-.38.15l-.06.15.18-.06c0,.06-.13.19-.37.39a2.69,2.69,0,0,1-.4.31l.06-.23h-.11A.21.21,0,0,0,104,37a1.06,1.06,0,0,1-.27.41c-.52.57-.88.85-1.08.85l-.12-.12h0s-.07,0-.11.15a1.23,1.23,0,0,1-.35.38l-.47.41c-.24.14-.35.27-.35.38a4.92,4.92,0,0,0,1.2-.64l.73-.62c.13-.08.42-.27.85-.58.25-.24.41-.36.47-.36l.73-.61c.43-.43.72-.64.88-.64a.3.3,0,0,0,.14,0s0-.07,0-.19a.8.8,0,0,0,.47-.12l.38-.23q-1,1-1.26,1l.24-.29c-.31.08-.47.22-.47.41a.65.65,0,0,1-.18.29l-.17,0c-.16,0-.43.19-.82.58a.8.8,0,0,0-.21.38l-.06-.06c-.11,0-.18,0-.19,0a.11.11,0,0,0,0,.05l0,0a.17.17,0,0,0,.12,0s.06.07.06.09l-.47.17q-.27.18-.27.36v0a0,0,0,0,1,0,0,1.28,1.28,0,0,0-.9.53.56.56,0,0,0-.21.35l.12.06c.06,0,.13,0,.22-.15a3.45,3.45,0,0,1,.28-.26,2.06,2.06,0,0,0,.61-.28,3.29,3.29,0,0,0,.65-.42l.17-.15c.27-.21.64-.53,1.09-.94.7-.58,1.4-1.2,2.1-1.84A15.29,15.29,0,0,0,110,33a3.46,3.46,0,0,0-.76.64.9.9,0,0,0-.23.15c-.47.39-.72.59-.74.59l.12-.41-.06-.06.12.06a.55.55,0,0,0,.32-.18c.39-.25.59-.49.59-.7a1,1,0,0,1,.19-.38c.13-.2.24-.3.34-.3v.18a2.56,2.56,0,0,0,.44-.56.74.74,0,0,1,.14-.22c.06-.07.09-.11.09-.14s.1-.13.29-.28c1.53-1.21,2.29-2,2.29-2.35v-.11l.12.06a.12.12,0,0,0,.13-.11.24.24,0,0,1,0-.13.19.19,0,0,1,.18.12.6.6,0,0,1,.17.29,1.63,1.63,0,0,1-.41.82A9,9,0,0,1,112.5,31l-.52.64a16.08,16.08,0,0,1-1.47,1.76,37.51,37.51,0,0,1-4.25,4.13L105,38.61a30.51,30.51,0,0,1-3.48,2.54A10,10,0,0,1,98,42.74Zm-5.27-5.09q.12,0,.12-.3l-.06-.11-.06,0h.06Zm.23,0q.51-3.19,1.2-3.9l.24-.29q0-.12-.18-.21c-.17,0-.35.24-.52.71a2.28,2.28,0,0,0-.15.49l-.18.27a.77.77,0,0,0-.17.44,10.71,10.71,0,0,0-.12,1.11Zm.18,2.05.06-.09L93,39.14A1.11,1.11,0,0,0,93.14,39.7Zm1.14-6.57a.25.25,0,0,0,.15-.07.23.23,0,0,0,.09-.19v-.16s0,0,.1,0a.2.2,0,0,0,.17-.11.31.31,0,0,0,.08-.19.84.84,0,0,1,.17-.45,1.83,1.83,0,0,1,.38-.4L96.24,30a1.73,1.73,0,0,0,.27-.62c-.08,0-.19.09-.34.27a.74.74,0,0,0-.22.39c0,.09,0,.14-.12.14s-.11,0-.11.13a2.37,2.37,0,0,1-.43.73c-.28.4-.54.8-.77,1.2a2.14,2.14,0,0,0-.36.81Zm.44-.58h0l-.06-.06v-.06l.09-.12h0l.06.12Q94.81,32.55,94.72,32.55Zm.94,2,.12-.06a.57.57,0,0,1,.39-.11.55.55,0,0,0,.4-.12s.07-.06.23-.06a9.44,9.44,0,0,1,1.14-1.26,14.37,14.37,0,0,0,2-2.14c0-.12.1-.24.32-.38l.7-1a4.36,4.36,0,0,0,.62-2.14,2.93,2.93,0,0,0-.21-1.09c0-.11,0-.17-.12-.17s-.17.08-.35.26-.3.26-.38.26-.15.1-.2.3a1.64,1.64,0,0,1-.44.5c-.24.07-.35.14-.35.2a3.64,3.64,0,0,1-.55.75,4.52,4.52,0,0,0-.54.72,1.75,1.75,0,0,1-.37.42,3.41,3.41,0,0,0-.6.81c-.15.29-.24.44-.27.44a.11.11,0,0,0-.09.05.21.21,0,0,0,0,.11,4.36,4.36,0,0,1-.41.68l-.44.53-.41.85a1.9,1.9,0,0,0-.41,1C95.42,34.28,95.5,34.49,95.66,34.51Zm.91-5.21c.11,0,.17-.05.17-.13a.16.16,0,0,1,.12-.17,1,1,0,0,0,.06-.35l-.06.12a1.79,1.79,0,0,0-.35.53Zm3.34,2.22a3.25,3.25,0,0,0,.41-.44l.44-.49a3.91,3.91,0,0,0,.73-1l.29-.47a3.8,3.8,0,0,0,.53-2,2.35,2.35,0,0,0-.18-.94l-.23-.38h-.12a2.86,2.86,0,0,1,.18,1,4.66,4.66,0,0,1-.53,2.43l-.18.26a10.74,10.74,0,0,1-1,1.5l-.44.49Zm1.75,8.35c.12-.06.18-.13.18-.23s0,0-.09,0a.16.16,0,0,0-.14.09.29.29,0,0,0-.06.17Zm1.62-2.78h-.06a.85.85,0,0,0,.23-.35l0-.12a1.17,1.17,0,0,1,.94-.47C103.79,36.78,103.41,37.09,103.28,37.09Zm.46-.47.12-.06c.18-.1.27-.17.27-.23a.2.2,0,0,0-.15.06l-.12.1a.22.22,0,0,0-.07.07Zm.74.12c.11,0,.17-.1.17-.29,0,0,0,0,0,.1s-.07.07-.19.07l-.12-.06a.09.09,0,0,1,0,.06.1.1,0,0,0,0,.07S104.4,36.74,104.48,36.74Zm-.12-.76c0-.06.09-.16.26-.3.41-.41.67-.61.77-.61s0,0,0,.06a1.85,1.85,0,0,1-.44.52A1.31,1.31,0,0,1,104.36,36ZM106,35a.6.6,0,0,0,.32-.29l-.1,0a.16.16,0,0,0-.09,0l-.1,0s-.06.06-.06.16A0,0,0,0,0,106,35Zm.38-.62.09-.11.23-.06v.06Zm.79-.64.06-.12.18-.17a.05.05,0,0,1,.06.06Zm0,1.61.3-.35h0a.13.13,0,0,1,0,.06l-.07.12A.73.73,0,0,1,107.17,35.36Zm.56-.41h-.09a.42.42,0,0,0,.26-.38.2.2,0,0,1-.11,0,.37.37,0,0,0-.16,0,.9.9,0,0,0-.22.14c0-.08.08-.16.25-.24s.24-.16.24-.25a.29.29,0,0,1,.09-.22.37.37,0,0,1,.27-.09.62.62,0,0,1-.18.3l-.12.23.24-.12.06.06a.76.76,0,0,1-.18.33.3.3,0,0,0-.25.08C107.78,34.92,107.75,35,107.73,35Zm.06-1.7q-.15,0-.15-.12c0-.07,0-.11.15-.11l.06.11Zm.41-.53v-.17l.11-.24v.24C108.31,32.67,108.28,32.72,108.2,32.72Zm.53,1h-.06a.38.38,0,0,1,.14-.26l.09-.12c.24-.19.38-.29.44-.29s-.1.2-.29.44l-.12.1-.12.09Zm.79-1.38v-.05c0-.14.11-.25.35-.33a.53.53,0,0,0-.1.12,1.42,1.42,0,0,0-.11.16A.17.17,0,0,1,109.52,32.31Zm.9-1.31.06-.15.24-.18a.05.05,0,0,1,.06.06l-.14.06-.1.07A.58.58,0,0,0,110.42,31Zm1.44-1.82v-.06a.22.22,0,0,1,.18-.23l0-.06A.74.74,0,0,1,111.86,29.18Z"/><path class="cls-1" d="M110,46.46a13.58,13.58,0,0,1-1.89-.14,5.34,5.34,0,0,1-1.4-.32A2.83,2.83,0,0,1,105,44.36l0-.15a3,3,0,0,1-.14-.37c0-.1-.06-.18-.08-.23a.28.28,0,0,1-.05-.12.22.22,0,0,0,0-.1.48.48,0,0,1,.13-.32.43.43,0,0,1,.34-.15c.18,0,.26,0,.26.06a.35.35,0,0,1-.08.16.4.4,0,0,0-.06.25l.06.15c.13,0,1.17.05,3.1.05a15,15,0,0,0,1.61-.17l.36,0a21.62,21.62,0,0,0,2.63-.7,7.18,7.18,0,0,0,2.2-.77,9.05,9.05,0,0,1,1-.49c.57-.3.85-.48.85-.56s-.36-.39-1.08-.88l-1.26-1.14c-1.07-1-1.61-1.6-1.61-1.82l-.09-.17a12.79,12.79,0,0,1-1.64-2.55,6.69,6.69,0,0,1-.73-3.08l.12-1.08a9.42,9.42,0,0,1,1.09-2.35A20.86,20.86,0,0,1,114,25l1-1.08A18.87,18.87,0,0,1,116.83,22a25.26,25.26,0,0,1,2.06-1.73,3,3,0,0,1,1.38-.72c.08,0,.13-.06.14-.17l-.08-.18h.08l.3.18s0-.06,0-.18.11-.18.31-.18l.61.06a1.77,1.77,0,0,1,1.06.3,5.74,5.74,0,0,0,.72.3,1.8,1.8,0,0,1,.69.49,5.92,5.92,0,0,0,.35.48,1.11,1.11,0,0,1,.17.66.57.57,0,0,0,0,.18.5.5,0,0,1,0,.19.19.19,0,0,1-.18.1,1.17,1.17,0,0,0-.47.26,4.43,4.43,0,0,0-.65.65,22.23,22.23,0,0,1-1.56,1.78c-.7.69-1.14,1-1.32,1v-.38s-.06,0-.14,0a.64.64,0,0,0-.41.23.52.52,0,0,1-.44.3c-.18,0-.45.23-.82.7-.08.14-.16.2-.25.2a8.82,8.82,0,0,0-1.42,1.5,18.45,18.45,0,0,0-2.4,3.07,2.59,2.59,0,0,1-.43.63,3.49,3.49,0,0,0-.51,1.16,5.3,5.3,0,0,0-.27,1.5,3.29,3.29,0,0,0,.24,1.31,10.32,10.32,0,0,0,2.81,3c.37.32.78.7,1.23,1.15,1.08,1.07,1.61,1.72,1.61,2a.11.11,0,0,0,.12.12c.08,0,.2.19.35.58l.3.68q-.86,1.14-1.38,1.14l-.12-.06-.06.06c0,.13-.48.37-1.43.7a8.29,8.29,0,0,1-1.19.28,1.77,1.77,0,0,0-.75.22l-1.67.47a10.81,10.81,0,0,1-1.34.35A15.39,15.39,0,0,1,110,46.46Zm1.08-1.2.06,0,1.46-.18a8,8,0,0,0,.94-.38c.43-.16.74-.26.92-.31a4.23,4.23,0,0,0,.57-.19l.27-.09c.54-.23.82-.41.82-.52s-.12-.19-.35-.27a2,2,0,0,0-.4.09,2.91,2.91,0,0,0-.63.29,1.67,1.67,0,0,1-.79.3,3.9,3.9,0,0,0-.59.17h-.08s0,0,0-.06l.11-.23.18-.12-.06-.06a8.2,8.2,0,0,1-1,.18q-.09,0-.09-.06s-.09-.06-.26-.06-.27,0-.28-.06a.44.44,0,0,1,0-.1.09.09,0,0,0,0-.07,1.62,1.62,0,0,1-.42.33L111,44v-.18q0-.12-.09-.12a.37.37,0,0,0-.32.18V44l.24-.06-.12.11a2.35,2.35,0,0,1-1,.3,3.7,3.7,0,0,1-.79.11h-.15a.92.92,0,0,1-.14-.16l-.06,0a.39.39,0,0,1-.06.26.46.46,0,0,1-.29.06l-.21,0-1.58-.16a.09.09,0,0,1-.09-.1l.12-.06a9.24,9.24,0,0,1,1,.17c.09,0,.15,0,.17,0v-.3c0-.08-.08-.11-.23-.11l-.56,0-.26,0a.85.85,0,0,0-.56.12l0,.18a.58.58,0,0,0,.23.49,3.9,3.9,0,0,0,1.62.18c.27,0,.41,0,.42.07a.43.43,0,0,0,0,.11l.06,0,.11-.07a2.43,2.43,0,0,1,.8-.06,7,7,0,0,0,1.5-.12L111,45c0,.08,0,.12-.16.12s-.17,0-.19.12S110.77,45.26,111,45.26Zm-3.11-1.14.12-.12s0,0-.12,0a.13.13,0,0,0-.14.11A.2.2,0,0,0,107.93,44.12Zm.3.06.11-.06s.08,0,.12-.12,0,0-.12,0-.12,0-.13,0a.16.16,0,0,1,0,.07Zm1-.06c.12,0,.18-.06.18-.17a.62.62,0,0,0-.32-.06l-.18.11s.07,0,.21.09Zm.65-.06.14,0,.33,0,.09,0q0-.24-.39-.24c-.11,0-.18,0-.19.06a.38.38,0,0,0,0,.1.11.11,0,0,1,0,.08l-.12-.06c-.08,0-.11,0-.11.06S109.64,44.06,109.84,44.06ZM111,31l.12-.27.12-.41-.06-.06a1.34,1.34,0,0,0-.11.25.4.4,0,0,1,0,.13A1.18,1.18,0,0,0,111,31Zm.18-1s.11-.09.22-.26.49-.87,1.15-2.08A2.29,2.29,0,0,0,113,27a.31.31,0,0,1,.12-.22.92.92,0,0,0,.23-.21,2,2,0,0,0,.47-.73h-.06c-.35.19-.52.34-.52.44a.58.58,0,0,1-.18.35,10.55,10.55,0,0,0-1.52,2.4A2.63,2.63,0,0,0,111.16,30Zm.7,14h-.09c-.13,0-.2,0-.2-.11l.08-.12.24.18Zm-.21-11.51c0-.6.12-.91.22-.91s.23-.17.37-.53a14.2,14.2,0,0,1,1-1.77,8.1,8.1,0,0,1,1.05-1.36c.27-.25.41-.42.41-.5a2.4,2.4,0,0,1,.5-.7,32.34,32.34,0,0,1,2.64-2.78c.7-.63,1-1,1-1.15s0-.06.1-.11a2.13,2.13,0,0,0,.22-.21,3.47,3.47,0,0,0,.65-.73l-.19,0a1.38,1.38,0,0,0-.28.1l-.34.18a.92.92,0,0,0-.26.21,1.81,1.81,0,0,1-.28.23.91.91,0,0,1-.32.15,1.49,1.49,0,0,0-.5.47c-.06.11-.12.17-.18.17s0-.12-.05-.12l-.06.12a.67.67,0,0,0-.18.5c-.1,0-.32.16-.67.47a17.32,17.32,0,0,0-2.46,2.55,7.68,7.68,0,0,0-1.79,2.84,9.55,9.55,0,0,0-.65,2.4Zm4.08-8.82a.15.15,0,0,0,.17-.17l-.06-.15-.17.15C115.67,23.61,115.69,23.67,115.73,23.67Zm6.47,26.87h-.47a14,14,0,0,1-1.7-.11,4.17,4.17,0,0,1-1.14-.24,3.32,3.32,0,0,1-1.79-1.67,2.51,2.51,0,0,0-.29-.85.41.41,0,0,1-.12-.3.54.54,0,0,1,.15-.39.43.43,0,0,1,.32-.16q.21,0,.24.06l-.12.49.12.18.35.06a25.19,25.19,0,0,0,3.4-.32,9,9,0,0,0,1.26-.3,10.54,10.54,0,0,0,2.6-.94l1.26-.55a3.25,3.25,0,0,0,.53-.21l.16-.08a.58.58,0,0,0,.18-.17,5.4,5.4,0,0,1,.77-.54l.39-.2c.41-.26.61-.43.61-.53s-.12-.19-.35-.38a19.27,19.27,0,0,1-2.14-1.82c-1.17-1.07-1.76-1.7-1.76-1.87l-.23-.44a12.35,12.35,0,0,1-1.67-2.55,8.3,8.3,0,0,1-1-4l.06-.68a11.15,11.15,0,0,1,.89-2.68A22.29,22.29,0,0,1,124.6,26l.85-1.32a29.64,29.64,0,0,1,3.72-4.4c.59-.56,1-.85,1.21-.85a.22.22,0,0,0,.14,0,1.4,1.4,0,0,0,0-.44.78.78,0,0,0,.35.18c0-.19,0-.31.08-.35a2.6,2.6,0,0,1,.83-.06,2.33,2.33,0,0,1,1.09.26,1.86,1.86,0,0,0,.76.33.89.89,0,0,1,.66.44,2.23,2.23,0,0,0,.48.64,1.27,1.27,0,0,1,.18.67l-.06.41-.06.08s-.06,0-.12,0c-.23,0-.68.55-1.35,1.64-.45.72-.81,1.26-1.08,1.61q-1,1.26-1.23,1.26l-.06-.06v-.32q0-.12-.06-.12a.76.76,0,0,0-.16,0,.77.77,0,0,0-.22.21c-.27.29-.46.44-.56.44s-.2.08-.3.25-.21.32-.31.45-.25.38-.34.38a9,9,0,0,0-1.3,1.76,29.38,29.38,0,0,0-2.52,4.37,3.65,3.65,0,0,0-.41,1.26,8.83,8.83,0,0,0-.18,1.72,4.75,4.75,0,0,0,.3,1.56A10.26,10.26,0,0,0,128,41.19q.67.56,1.38,1.26c1.11,1.11,1.67,1.81,1.67,2.08s0,.21.06.21.11.07.23.23a11.19,11.19,0,0,1,.62,1.08,8.79,8.79,0,0,1-.65.88l-.09.12a.86.86,0,0,1-.58.38h-.12a.23.23,0,0,0,0,.1s-.16.17-.46.34a6.86,6.86,0,0,1-1.9.82,10.47,10.47,0,0,0-1.14.41c-1.57.63-2.47,1-2.73,1A19.45,19.45,0,0,1,122.2,50.54Zm-5.45-7.27.06-.06c.08,0,.12,0,.12-.11s0-.06-.12-.06-.12,0-.12.08A.29.29,0,0,0,116.75,43.27Zm6.3,5.83.76-.17a4.46,4.46,0,0,0,.93-.24q.36-.15.9-.42l1.07-.55a2.72,2.72,0,0,0,.62-.27,5.5,5.5,0,0,0,.54-.38c.15-.13.22-.23.22-.31a.09.09,0,0,0,0-.06l-.13-.07a.54.54,0,0,0-.22-.05,1.29,1.29,0,0,0-.37.12c-.18.08-.37.18-.57.29a12.91,12.91,0,0,1-1.46.68s-.06,0-.06-.12l.15-.19.08-.13a.27.27,0,0,0,0-.12l-1.08.26q-.12,0-.15-.06l0-.05-.2.05a.47.47,0,0,1-.28-.05.24.24,0,0,1,0-.15.25.25,0,0,0,0-.12.17.17,0,0,0,0,.12.49.49,0,0,0-.16.18,1.4,1.4,0,0,1-.46.32v-.24c0-.08,0-.11-.09-.11a.34.34,0,0,0-.35.23q0,.12.06.12l.15-.06-.09.12c-.12.19-.67.41-1.67.64a.33.33,0,0,1-.29-.18s0-.05-.06-.05c0,.19,0,.31-.11.36a1.46,1.46,0,0,1-.65.08q-1.23-.06-1.47-.09a.17.17,0,0,1-.06-.12.24.24,0,0,1,.24-.12,1.27,1.27,0,0,0,.67.12l.23.06a.2.2,0,0,0,.18-.09,2.94,2.94,0,0,0,0-.35c0-.06-.11-.09-.28-.09-.33,0-.64.09-.91.15s-.41.11-.41.14l0,.21c0,.27,0,.44.16.51a1.32,1.32,0,0,0,.57.13h1.26c.2,0,.3,0,.31.06a.07.07,0,0,0,.07.06l.12-.06c.08-.11.39-.17.95-.17a2.41,2.41,0,0,0,1.13-.18h.32a.17.17,0,0,1,.06.12q0,.12-.15.12c-.09,0-.15,0-.17.08s0,.07,0,.08Zm-3.13-1L120,48a.26.26,0,0,0,.11-.18l-.11-.06a.11.11,0,0,0-.12.12A.32.32,0,0,0,119.92,48.08Zm.49-.06.12-.18s0-.06-.12-.06-.12.06-.14.18A.2.2,0,0,0,120.41,48Zm.82-.12a.16.16,0,0,0,.18-.18l-.12,0-.35.17S121,47.88,121.23,47.9Zm.74-.12.35-.06s.06,0,.06,0a.25.25,0,0,0-.08-.17.27.27,0,0,0-.19-.07c-.13,0-.2,0-.2.09v0a.11.11,0,0,1-.12.12l-.12-.06,0,.11a.05.05,0,0,0,0,.05ZM122.08,33l.18-.76-.06-.09a.09.09,0,0,0,0,.07.19.19,0,0,1,0,.11.41.41,0,0,0-.07.23,1.7,1.7,0,0,0,0,.26Zm.06-1.08c.08,0,.24-.32.47-.94l.79-1.76a2.43,2.43,0,0,0,.3-.85.31.31,0,0,1,.11-.21s.1-.07.24-.23a2.17,2.17,0,0,0,.44-.88h-.06c-.37.2-.56.42-.56.68l-.12.23a15.26,15.26,0,0,0-1.28,2.84A3.81,3.81,0,0,0,122.14,31.88Zm.65,2.75.06-.47c0-.35.06-.53.14-.53s.2-.22.35-.67a19.72,19.72,0,0,1,.85-2.1,7.67,7.67,0,0,1,.94-1.62,1.33,1.33,0,0,0,.38-.62,16.48,16.48,0,0,1,1.55-2.31c.42-.59,1-1.39,1.79-2.4.33-.45.5-.69.5-.71a.89.89,0,0,1,.12-.2,1.16,1.16,0,0,1,.35-.35,2.6,2.6,0,0,0,.41-.62s0-.06,0-.06a.83.83,0,0,0-.32.06c-.78.69-1.21,1-1.29,1.09a.87.87,0,0,0-.38.55q-.09.24-.18.24,0-.18-.06-.18a.36.36,0,0,1-.07.1l-.12.15a.74.74,0,0,0-.07.4l.06.05h-.12c-.1,0-.3.19-.61.56a19.34,19.34,0,0,0-1.79,2.34l-.85,1.37a8.5,8.5,0,0,0-.73,1.4,16.86,16.86,0,0,0-.68,2.57A7.43,7.43,0,0,0,122.79,34.63Zm1,13c-.11,0-.17-.06-.17-.18l.06-.12,0,0a.28.28,0,0,1,.2.15A.11.11,0,0,1,123.81,47.67Zm2.41-23.29c.11,0,.17-.06.17-.18l-.06-.12c-.06,0-.11,0-.17.12S126.18,24.38,126.22,24.38Zm2.51,22.08.06-.05.08,0s0,0,0-.13l-.09,0c-.1,0-.14,0-.14.12Z"/></svg>