<?xml version="1.0" encoding="utf-8"?>
<!-- Generator: Adobe Illustrator 24.1.2, SVG Export Plug-In . SVG Version: 6.00 Build 0)  -->
<svg version="1.1" xmlns="http://www.w3.org/2000/svg" xmlns:xlink="http://www.w3.org/1999/xlink" x="0px" y="0px"
	 viewBox="0 0 110 78.2" style="enable-background:new 0 0 110 78.2;" xml:space="preserve">
<style type="text/css">
	.st0{display:none;}
	.st1{display:inline;stroke:#FFFFFF;stroke-width:16;stroke-miterlimit:10;}
	.st2{display:inline;stroke:#FFFFFF;stroke-miterlimit:10;}
	.st3{display:inline;fill:#FFFFFF;stroke:#FFFFFF;stroke-width:10;stroke-miterlimit:10;}
	.st4{display:inline;fill:#FFFFFF;stroke:#FFFFFF;stroke-width:8.9996;stroke-miterlimit:9.9994;}
	.st5{display:inline;fill:#FFFFFF;stroke:#F298A5;stroke-width:4;stroke-miterlimit:10;}
	.st6{display:inline;fill:#FFFFFF;stroke:#FFFFFF;stroke-width:6.9996;stroke-miterlimit:9.9994;}
	.st7{display:inline;fill:none;stroke:#FFFFFF;stroke-width:17;stroke-miterlimit:10;}
	.st8{display:inline;fill:#F296A1;stroke:#F296A1;stroke-miterlimit:10;}
	.st9{display:inline;fill:#F296A1;stroke:#FFFFFF;stroke-miterlimit:10;}
	.st10{display:inline;}
	.st11{fill:#FFFFFF;}
	.st12{fill:#F296A1;}
	.st13{display:inline;fill:none;stroke:#FFFFFF;stroke-width:14;stroke-miterlimit:10;}
	.st14{display:inline;fill:none;stroke:#FFFFFF;stroke-width:7;stroke-miterlimit:10;}
	.st15{display:inline;fill:#FFFFFF;stroke:#F3A2AC;stroke-width:2;stroke-miterlimit:10;}
	.st16{display:inline;fill:#FFFFFF;stroke:#F3A2AC;stroke-width:3;stroke-miterlimit:10;}
	.st17{fill:none;stroke:#FFFFFF;stroke-width:17;stroke-miterlimit:10;}
	.st18{fill:#FFFFFF;stroke:#FFFFFF;stroke-width:10;stroke-miterlimit:10;}
	.st19{fill:#F3A2AC;}
	.st20{fill:#FFFFFF;stroke:#FFFFFF;stroke-width:2;stroke-miterlimit:10;}
	.st21{fill:#FFFFFF;stroke:#FFFFFF;stroke-miterlimit:10;}
	.st22{fill:#FFFFFF;stroke:#F3A2AC;stroke-width:2.9998;stroke-miterlimit:9.9994;}
	.st23{display:inline;fill:#FFFFFF;stroke:#FFFFFF;stroke-width:14;stroke-miterlimit:10;}
	.st24{display:inline;fill:#FFFFFF;stroke:#FFFFFF;stroke-width:7;stroke-miterlimit:10;}
	.st25{fill:none;}
	.st26{display:none;fill:none;stroke:#FFFFFF;stroke-width:3;stroke-miterlimit:10;}
	.st27{display:inline;fill:none;stroke:#FFFFFF;stroke-width:3;stroke-miterlimit:10;}
</style>
<g id="Layer_1">
	<g id="Layer_2_1_" class="st0">
		<rect x="-125.4" y="-197.3" class="st1" width="356.6" height="357.4"/>
	</g>
	<g id="Layer_1_2_" class="st0">
		<g id="Layer_2_2_">
			<rect x="-119.3" y="-166.7" class="st2" width="342.9" height="339.8"/>
		</g>
		<g id="Layer_3">
			<path class="st3" d="M72.5,58.2c-0.9,2.4-7.8,4.5-21.5,8.5c-14.7,4.3-22,6.5-27.5,6.7c-9.1,0.4-18-2.5-35.8-8.1
				c-11.7-3.7-17.6-5.6-18.6-8.2c-4-10.3,18.3-36.7,44.8-39.4C46.3,14.5,76.5,47.6,72.5,58.2z"/>
			
				<ellipse transform="matrix(0.9992 -3.934142e-02 3.934142e-02 0.9992 0.7388 0.4473)" class="st4" cx="11.7" cy="-18.5" rx="27.5" ry="29.5"/>
			<path class="st5" d="M146.3,56.5c-0.5,2.9-7.5,6.3-21.5,12.9c-14.9,7.1-22.4,10.7-28.3,11.8c-9.7,1.8-19.8-0.1-40-3.7
				c-13.3-2.4-20-3.7-21.5-6.5c-6.2-11.1,12.8-44.4,40.8-51.4C110,11,148.6,43.9,146.3,56.5z"/>
			
				<ellipse transform="matrix(0.9871 -0.1599 0.1599 0.9871 3.3324 13.9159)" class="st6" cx="88.1" cy="-13.7" rx="28.5" ry="30.6"/>
			<ellipse class="st7" cx="51.7" cy="7.7" rx="102.5" ry="96.5"/>
		</g>
		<g id="Layer_4">
			<path class="st3" d="M117.2,72c-1.1,2.9-9.3,5.4-25.8,10.2C73.8,87.4,65,90,58.3,90.3c-10.9,0.4-21.6-3-43.1-9.7
				C1.1,76.1-6,73.8-7.2,70.7c-4.8-12.4,22-44.1,53.8-47.3C85.7,19.5,122,59.3,117.2,72z"/>
			
				<ellipse transform="matrix(0.9992 -3.934142e-02 3.934142e-02 0.9992 0.7852 2.0048)" class="st4" cx="51.3" cy="-18.9" rx="33" ry="35.4"/>
			<path class="st8" d="M42.9,25.8c2.4,9.2,4.8,18.5,7.1,27.7c2.1,0,4.2,0,6.2,0c2.4-9.2,4.8-18.5,7.1-27.7H42.9z"/>
			<path class="st8" d="M52.8,28.5c5.2,0.1,9-1.7,10.7-2.7"/>
			<path class="st8" d="M42.9,25.8c1.7,0.9,5.1,2.6,9.8,2.7"/>
			<path class="st9" d="M47.4,43.7C43.5,61.9,39.7,80,35.8,98.2c12.5,0,25,0,37.5,0C68.5,79.7,63.8,61.3,59,42.8
				c-1,0.6-2.7,1.5-5.1,1.8C50.9,44.9,48.5,44.1,47.4,43.7z"/>
			<ellipse class="st7" cx="52.3" cy="4.6" rx="102.5" ry="96.5"/>
		</g>
		<g id="Layer_5">
			<g class="st10">
				<path class="st11" d="M56.6,80.9c-10.1,0-21-3.4-40.8-9.7c-11.9-3.8-20.5-6.5-21.5-9C-7,59-5.6,53.9-2.1,48.1
					c8.5-13.9,28-29,49-31.1c1.7-0.2,3.5-0.3,5.3-0.3c23.9,0,47.6,16.3,58.8,32.4c4.2,6,6,11.5,4.9,14.5c-0.8,2.2-11.4,5.4-24.8,9.3
					c-17.5,5.2-26.2,7.7-32.7,8C57.8,80.9,57.2,80.9,56.6,80.9z"/>
				<path class="st12" d="M52.2,15.2v3c26.1,0,48.7,19,57.6,31.7c2.9,4.1,5.8,10,4.7,13c-1.4,1.9-12.8,5.2-23.9,8.5
					c-17.3,5.1-26,7.7-32.3,7.9c-0.6,0-1.2,0-1.7,0c-9.9,0-20-3.2-40.3-9.6C8.8,67.3,4,65.8,0.6,64.4c-4.3-1.8-4.8-2.7-4.8-2.8
					c-1.1-2.7,0.2-7.5,3.5-12.8c8.3-13.6,27.4-28.4,47.9-30.4c1.7-0.2,3.4-0.3,5.1-0.3L52.2,15.2 M52.2,15.2c-1.8,0-3.6,0.1-5.4,0.3
					C15,18.7-11.9,50.4-7,62.8c1.2,3.1,8.3,5.4,22.4,9.9c20.2,6.4,30.9,9.8,41.2,9.8c0.6,0,1.2,0,1.8,0c6.7-0.3,15.5-2.9,33.1-8.1
					c16.5-4.9,24.7-7.4,25.8-10.2C121.8,51.9,89,15.2,52.2,15.2L52.2,15.2z"/>
			</g>
			
				<ellipse transform="matrix(0.9992 -3.934142e-02 3.934142e-02 0.9992 0.6325 2.2479)" class="st4" cx="57.4" cy="-14.9" rx="33" ry="35.4"/>
			<ellipse class="st7" cx="53.4" cy="6.7" rx="102.5" ry="96.5"/>
			<line class="st13" x1="58.3" y1="-120.4" x2="58.3" y2="-67.1"/>
			<line class="st13" x1="180.6" y1="14.6" x2="125.6" y2="13.6"/>
			<line class="st13" x1="-17.2" y1="9.9" x2="-72.2" y2="8.9"/>
			<line class="st13" x1="54.6" y1="80.1" x2="54.6" y2="133.4"/>
		</g>
		<g id="Layer_6">
			<g class="st10">
				<path class="st11" d="M113.3-21.3c3.3,0,6,2.7,6,6v51.4c0,3.3-2.7,6-6,6H-14.4c-3.3,0-6-2.7-6-6v-51.4c0-3.3,2.7-6,6-6H113.3
					 M113.3-27.3H-14.4c-6.6,0-12,5.4-12,12v51.4c0,6.6,5.4,12,12,12h127.8c6.6,0,12-5.4,12-12v-51.4
					C125.3-21.9,119.9-27.3,113.3-27.3L113.3-27.3z"/>
			</g>
			<g class="st10">
				<path class="st11" d="M-20.5-3.2c-1.9,0-3.4-1.5-3.4-3.4v-10.1c0-1.9,1.5-3.4,3.4-3.4h138.9c1.9,0,3.4,1.5,3.4,3.4v10.1
					c0,1.9-1.5,3.4-3.4,3.4H-20.5z"/>
				<path class="st11" d="M118.4-18.7c1.1,0,1.9,0.9,1.9,1.9v10.1c0,1.1-0.9,1.9-1.9,1.9H-20.5c-1.1,0-1.9-0.9-1.9-1.9v-10.1
					c0-1.1,0.9-1.9,1.9-1.9H118.4 M118.4-21.7H-20.5c-2.7,0-4.9,2.2-4.9,4.9v10.1c0,2.7,2.2,4.9,4.9,4.9h138.9
					c2.7,0,4.9-2.2,4.9-4.9v-10.1C123.4-19.5,121.1-21.7,118.4-21.7L118.4-21.7z"/>
			</g>
			<g class="st10">
				<path class="st11" d="M85-13.8c-2.4,0-4.3-1.8-4.3-4s1.9-4,4.3-4s4.3,1.8,4.3,4S87.4-13.8,85-13.8z"/>
				<path class="st12" d="M85-20.9c1.8,0,3.3,1.4,3.3,3s-1.5,3-3.3,3s-3.3-1.4-3.3-3S83.2-20.9,85-20.9 M85-22.9
					c-2.9,0-5.3,2.3-5.3,5c0,2.8,2.4,5,5.3,5c2.9,0,5.3-2.3,5.3-5S87.9-22.9,85-22.9L85-22.9z"/>
			</g>
			<g class="st10">
				<path class="st11" d="M114.6-13.3c-2.4,0-4.3-1.8-4.3-4s1.9-4,4.3-4s4.3,1.8,4.3,4S117-13.3,114.6-13.3z"/>
				<path class="st12" d="M114.6-20.4c1.8,0,3.3,1.4,3.3,3s-1.5,3-3.3,3s-3.3-1.4-3.3-3S112.8-20.4,114.6-20.4 M114.6-22.4
					c-2.9,0-5.3,2.3-5.3,5c0,2.8,2.4,5,5.3,5c2.9,0,5.3-2.3,5.3-5S117.6-22.4,114.6-22.4L114.6-22.4z"/>
			</g>
			<g class="st10">
				<path class="st11" d="M99.3-13.8c-2.4,0-4.3-1.8-4.3-4s1.9-4,4.3-4c2.4,0,4.3,1.8,4.3,4S101.6-13.8,99.3-13.8z"/>
				<path class="st12" d="M99.3-20.9c1.8,0,3.3,1.4,3.3,3s-1.5,3-3.3,3s-3.3-1.4-3.3-3S97.4-20.9,99.3-20.9 M99.3-22.9
					c-2.9,0-5.3,2.3-5.3,5c0,2.8,2.4,5,5.3,5s5.3-2.3,5.3-5S102.2-22.9,99.3-22.9L99.3-22.9z"/>
			</g>
			<line class="st14" x1="-21.1" y1="8.9" x2="33.9" y2="8.9"/>
			<line class="st14" x1="-20.6" y1="20.9" x2="71.9" y2="20.9"/>
			<line class="st14" x1="-20.6" y1="34.9" x2="34.4" y2="34.9"/>
			<path class="st15" d="M85.9-21.8c14.5-21.8,26.7-40.1,29.1-38.5c2.1,1.4-6.3,15.8-17.6,49.1C89,13.5,83.3,35.6,78,36.1
				c-2.1,0.2-2.3-3.4-7.7-6.7c-4.8-2.9-7-1.5-8.2-3.4C59.5,21.8,66.4,7.6,85.9-21.8z"/>
			<path class="st16" d="M78.1,40.9c4.7,19.2-55.3,51.8-57.6,48.9c-0.6-0.7,4.2-3.5,9.8-12c11.7-17.7,6.2-29,17.4-40.2
				c2-2,8.3-8.4,16.3-7.6C70.1,30.6,76.7,35.4,78.1,40.9z"/>
			<ellipse class="st7" cx="51.4" cy="8.4" rx="102.5" ry="96.5"/>
		</g>
		<g id="Layer_7" class="st10">
			<ellipse class="st17" cx="55" cy="-2.2" rx="151.6" ry="142.7"/>
			<path class="st18" d="M136.2,51.7c-1.3,3.6-11.5,6.6-31.8,12.6c-21.7,6.4-32.5,9.6-40.7,9.9c-13.5,0.5-26.6-3.6-53-12
				C-6.7,56.7-15.4,53.9-16.9,50c-6-15.2,27-54.3,66.2-58.2C97.4-12.9,142.1,36,136.2,51.7z"/>
			<g>
				<path class="st11" d="M37.4,93.1c-21.8,0-26.9-0.9-32-5.7c-3.1-2.9-5.1-6.3-10.1-24.7C-8.7,47.8-12.2,32.4-15,17
					c0-1.7,0.5-7.3,4.9-11.7c3.2-3.2,7.4-4.9,11.8-4.9H108c9.2,0,16.7,7.5,16.7,16.6c-3.2,13.2-6.6,26.6-10.1,39.8
					c-6.4,24-7.9,27.2-11.5,30.6c-5.8,5.4-12,5.4-46.3,5.6h-5.9C45.8,93,41.3,93.1,37.4,93.1z"/>
				<path class="st19" d="M108,1.3c8.6,0,15.6,6.9,15.7,15.5c-3.2,13.1-6.6,26.5-10.1,39.6c-6.3,23.7-7.8,26.9-11.3,30.1
					c-5.3,4.9-10.1,5.2-45.6,5.4h-3.3h-2.6c-5.1,0-9.6,0.1-13.5,0.1C15.8,92,10.8,91.1,6,86.6c-3-2.8-4.9-6.1-9.8-24.2
					c-4-14.9-7.5-30.2-10.3-45.5c0-1.7,0.5-6.8,4.6-11c3-3,6.9-4.6,11.1-4.6L108,1.3 M108-0.7H1.7c-4.9,0-9.3,2-12.5,5.2
					C-15.9,9.6-16,15.8-16,17c3.3,18,7,33.4,10.4,45.9c4.9,18.2,7,21.9,10.4,25.1c5.5,5.2,11.4,6,32.7,6c4.6,0,9.9,0,16.1-0.1
					c37.7-0.2,44-0.1,50.3-5.9c3.9-3.7,5.5-7.5,11.8-31.1C120,41,123.3,27.4,125.8,17C125.8,7.3,117.8-0.7,108-0.7L108-0.7z"/>
			</g>
			<path class="st20" d="M102.3,105.8H10.7c-1.6,0-3-1.4-3-3v-2.9c0-1.6,1.3-3,3-3h91.6c1.7,0,3,1.4,3,3v2.9
				C105.3,104.5,103.9,105.8,102.3,105.8z"/>
			<g>
				<path class="st12" d="M55.7,60.9c-7.5,0-13.6-5.7-13.6-12.8s6.1-12.8,13.6-12.8S69.3,41,69.3,48.1S63.2,60.9,55.7,60.9z"/>
				<path class="st12" d="M55.7,35.8c7.2,0,13.1,5.5,13.1,12.3s-5.9,12.3-13.1,12.3s-13.1-5.5-13.1-12.3S48.5,35.8,55.7,35.8
					 M55.7,34.8c-7.8,0-14.1,6-14.1,13.3c0,7.4,6.3,13.3,14.1,13.3s14.1-6,14.1-13.3S63.5,34.8,55.7,34.8L55.7,34.8z"/>
			</g>
			<path class="st21" d="M33.5-99C7.9-82.1,5.5-59.6-9.8-29.7c-0.5,0.9-1.8,3.5-1,6.2c0.4,1.6,2.2,5.3,12.2,7.7
				c16.8,4,36.1-0.8,54.8-1.2c24.5-0.5,40.1,6.7,60.1,0.9c3.6-1,12.6-3.7,13.3-8.9c0.4-3-2.1-5.5-2.9-6.4
				c-14.4-15.6-14.9-50-43-67.6c-4.2-2.6-15.1-9.2-29.1-8C51.6-106.8,43.6-105.7,33.5-99z"/>
			
				<ellipse transform="matrix(0.9992 -3.934142e-02 3.934142e-02 0.9992 2.4769 2.1762)" class="st22" cx="56.5" cy="-61.8" rx="40.7" ry="43.6"/>
			<path class="st18" d="M92.9-72.2c-2.2,4.1-9.6,1.2-38.7,1.3c-26.2,0.1-32.5,2.4-34.5-1.3c-4.2-7.7,13.6-34.8,36.6-34.9
				C79.2-107.1,97.1-80,92.9-72.2z"/>
		</g>
		<g id="Layer_1_1_">
			<ellipse class="st7" cx="53.6" cy="9.9" rx="102.5" ry="96.5"/>
			<ellipse class="st13" cx="53.6" cy="9.2" rx="73" ry="68.7"/>
			<ellipse class="st23" cx="54.6" cy="8.4" rx="31.5" ry="29"/>
			<path class="st24" d="M121.3-73.2c2.6-20.3,2.3-36.2,1.5-47.4c-0.4-4.6-0.9-9.6,0.3-9.9c2.7-0.8,11.9,22.1,19.9,43.4L121.3-73.2z
				"/>
			<path class="st24" d="M135.8-57c16.8-11.9,31.1-19,41.5-23.3c4.3-1.8,9-3.5,8.7-4.9c-0.6-3-25.3-1.4-48,0.6L135.8-57z"/>
			<g class="st10">
				<line class="st25" x1="142.1" y1="-83.6" x2="64.1" y2="0.4"/>
				<g>
					<path class="st12" d="M135-90.7c-22.8,24.5-45.5,49-68.3,73.5c-3.2,3.5-6.5,7-9.7,10.5c-8.7,9.4,5.4,23.6,14.1,14.1
						c22.8-24.5,45.5-49,68.3-73.5c3.2-3.5,6.5-7,9.7-10.5C157.9-85.9,143.8-100.1,135-90.7L135-90.7z"/>
				</g>
			</g>
		</g>
	</g>
	<line class="st26" x1="55.5" y1="-166.4" x2="55.5" y2="176.2"/>
	<g class="st0">
		<line class="st27" x1="-67.9" y1="2.3" x2="274.8" y2="2.3"/>
	</g>
</g>
<g id="Layer_2">
	<path class="st11" d="M8.2,14.6C24,34.7,39.7,54.8,55.5,74.9c15.8-20.1,31.6-40.3,47.4-60.4c3.1-3.5,2.9-7.9,1.2-9.3
		c-1.8-1.5-6.5-0.9-9.3,3.3C81.6,24.6,68.5,40.8,55.4,57C42.5,40.9,29.7,24.9,16.8,8.8C15,5.4,11.4,4.2,9.3,5.2
		C7,6.3,5.6,10.7,8.2,14.6z"/>
</g>
</svg>
