<?xml version="1.0" encoding="utf-8"?>
<!-- Generator: Adobe Illustrator 26.2.1, SVG Export Plug-In . SVG Version: 6.00 Build 0)  -->
<svg version="1.1" id="Layer_1" xmlns="http://www.w3.org/2000/svg" xmlns:xlink="http://www.w3.org/1999/xlink" x="0px" y="0px"
	 viewBox="0 0 229.4 219.3" style="enable-background:new 0 0 229.4 219.3;" xml:space="preserve">
<style type="text/css">
	.st0{display:none;}
	.st1{display:inline;stroke:#FFFFFF;stroke-miterlimit:10;}
	.st2{fill:#FFFFFF;stroke:#FFFFFF;stroke-width:10;stroke-miterlimit:10;}
	.st3{fill:#FFFFFF;stroke:#FFFFFF;stroke-width:8.9998;stroke-miterlimit:9.9997;}
	.st4{fill:#FFFFFF;stroke:#F298A5;stroke-width:4;stroke-miterlimit:10;}
	.st5{fill:#FFFFFF;stroke:#FFFFFF;stroke-width:6.9998;stroke-miterlimit:9.9997;}
	.st6{fill:none;stroke:#FFFFFF;stroke-width:17;stroke-miterlimit:10;}
	.st7{display:inline;fill:none;stroke:#FFFFFF;stroke-width:17;stroke-miterlimit:10;}
	.st8{display:inline;fill:none;stroke:#FFFFFF;stroke-width:14;stroke-miterlimit:10;}
	.st9{display:inline;fill:#FFFFFF;stroke:#FFFFFF;stroke-width:14;stroke-miterlimit:10;}
	.st10{display:inline;fill:#FFFFFF;stroke:#FFFFFF;stroke-width:7;stroke-miterlimit:10;}
	.st11{display:inline;}
	.st12{fill:none;}
	.st13{fill:#F296A1;}
</style>
<g id="Layer_2_00000017513071350151171990000005488985889338340763_" class="st0">
	<rect x="-13.4" y="-50.8" class="st1" width="274.4" height="260.1"/>
</g>
<g id="Layer_3">
	<path class="st2" d="M134.7,157.7c-0.9,2.4-7.8,4.5-21.5,8.5c-14.7,4.3-22,6.5-27.5,6.7c-9.1,0.4-18-2.5-35.8-8.1
		c-11.7-3.7-17.6-5.6-18.6-8.2c-4-10.3,18.3-36.7,44.8-39.4C108.4,114,138.7,147.1,134.7,157.7z"/>
	
		<ellipse transform="matrix(0.9992 -3.934040e-02 3.934040e-02 0.9992 -3.1294 2.9659)" class="st3" cx="73.8" cy="81" rx="27.5" ry="29.5"/>
	<path class="st4" d="M208.4,156c-0.5,2.9-7.5,6.3-21.5,12.9c-14.9,7.1-22.4,10.7-28.3,11.8c-9.7,1.8-19.8-0.1-40-3.7
		c-13.3-2.4-20-3.7-21.5-6.5c-6.2-11.1,12.8-44.4,40.8-51.4C172.2,110.4,210.7,143.4,208.4,156z"/>
	
		<ellipse transform="matrix(0.9871 -0.1599 0.1599 0.9871 -11.7858 25.1218)" class="st5" cx="150.2" cy="85.8" rx="28.5" ry="30.6"/>
	<ellipse class="st6" cx="113.8" cy="107.2" rx="102.5" ry="96.5"/>
</g>
<g id="Layer_1_00000134971137962698910780000001956550810543195806_" class="st0">
	<ellipse class="st7" cx="116.7" cy="91.4" rx="102.5" ry="96.5"/>
	<ellipse class="st8" cx="116.7" cy="90.7" rx="73" ry="68.7"/>
	<ellipse class="st9" cx="117.7" cy="89.9" rx="31.5" ry="29"/>
	<path class="st10" d="M184.4,8.3c2.6-20.3,2.3-36.2,1.5-47.4c-0.4-4.6-0.9-9.6,0.3-9.9c2.7-0.8,11.9,22.1,19.9,43.4L184.4,8.3z"/>
	<path class="st10" d="M199,24.5c16.8-11.9,31.1-19,41.5-23.3c4.3-1.8,9-3.5,8.7-4.9c-0.6-3-25.3-1.4-48,0.6L199,24.5z"/>
	<g class="st11">
		<line class="st12" x1="205.2" y1="-2.1" x2="127.2" y2="81.9"/>
		<g>
			<path class="st13" d="M198.2-9.2c-22.8,24.5-45.5,49-68.3,73.5c-3.2,3.5-6.5,7-9.7,10.5c-8.7,9.4,5.4,23.6,14.1,14.1
				c22.8-24.5,45.5-49,68.3-73.5c3.2-3.5,6.5-7,9.7-10.5C221-4.5,206.9-18.6,198.2-9.2L198.2-9.2z"/>
		</g>
	</g>
</g>
</svg>
