<?xml version="1.0" encoding="utf-8"?>
<!-- Generator: Adobe Illustrator 24.1.2, SVG Export Plug-In . SVG Version: 6.00 Build 0)  -->
<svg version="1.1" xmlns="http://www.w3.org/2000/svg" xmlns:xlink="http://www.w3.org/1999/xlink" x="0px" y="0px"
	 viewBox="0 0 286.4 282.7" style="enable-background:new 0 0 286.4 282.7;" xml:space="preserve">
<style type="text/css">
	.st0{display:none;}
	.st1{display:inline;stroke:#FFFFFF;stroke-miterlimit:10;}
	.st2{display:inline;fill:#FFFFFF;stroke:#FFFFFF;stroke-width:10;stroke-miterlimit:10;}
	.st3{display:inline;fill:#FFFFFF;stroke:#FFFFFF;stroke-width:9;stroke-miterlimit:10;}
	.st4{display:inline;fill:#FFFFFF;stroke:#F298A5;stroke-width:4;stroke-miterlimit:10;}
	.st5{display:inline;fill:#FFFFFF;stroke:#FFFFFF;stroke-width:7;stroke-miterlimit:10;}
	.st6{display:inline;fill:none;stroke:#FFFFFF;stroke-width:17;stroke-miterlimit:10;}
	.st7{display:inline;fill:#F296A1;stroke:#F296A1;stroke-miterlimit:10;}
	.st8{display:inline;fill:#F296A1;stroke:#FFFFFF;stroke-miterlimit:10;}
	.st9{display:inline;}
	.st10{fill:#FFFFFF;}
	.st11{fill:#F296A1;}
	.st12{display:inline;fill:none;stroke:#FFFFFF;stroke-width:14;stroke-miterlimit:10;}
	.st13{fill:none;stroke:#FFFFFF;stroke-width:7;stroke-miterlimit:10;}
	.st14{fill:#FFFFFF;stroke:#F3A2AC;stroke-width:2;stroke-miterlimit:10;}
	.st15{fill:#FFFFFF;stroke:#F3A2AC;stroke-width:3;stroke-miterlimit:10;}
	.st16{fill:none;stroke:#FFFFFF;stroke-width:17;stroke-miterlimit:10;}
	.st17{display:inline;fill:#FFFFFF;stroke:#FFFFFF;stroke-width:14;stroke-miterlimit:10;}
</style>
<g id="Layer_2" class="st0">
	<rect x="4.6" y="12.2" class="st1" width="274.4" height="260.1"/>
</g>
<g id="Layer_3" class="st0">
	<path class="st2" d="M153.7,202.7c-0.9,2.4-7.8,4.5-21.5,8.5c-14.7,4.3-22,6.5-27.5,6.7c-9.1,0.4-18-2.5-35.8-8.1
		c-11.7-3.7-17.6-5.6-18.6-8.2c-4-10.3,18.3-36.7,44.8-39.4C127.4,159,157.7,192.1,153.7,202.7z"/>
	
		<ellipse transform="matrix(0.9992 -3.933938e-02 3.933938e-02 0.9992 -4.8855 3.75)" class="st3" cx="92.8" cy="126" rx="27.5" ry="29.5"/>
	<path class="st4" d="M227.4,201c-0.5,2.9-7.5,6.3-21.5,12.9c-14.9,7.1-22.4,10.7-28.3,11.8c-9.7,1.8-19.8-0.1-40-3.7
		c-13.3-2.4-20-3.7-21.5-6.5c-6.2-11.1,12.8-44.4,40.8-51.4C191.2,155.4,229.7,188.4,227.4,201z"/>
	
		<ellipse transform="matrix(0.9871 -0.1599 0.1599 0.9871 -18.7315 28.7342)" class="st5" cx="169.2" cy="130.8" rx="28.5" ry="30.6"/>
	<ellipse class="st6" cx="132.8" cy="152.2" rx="102.5" ry="96.5"/>
</g>
<g id="Layer_4" class="st0">
	<path class="st2" d="M198.3,216.5c-1.1,2.9-9.3,5.4-25.8,10.2c-17.6,5.2-26.4,7.8-33.1,8.1c-10.9,0.4-21.6-3-43.1-9.7
		c-14.1-4.5-21.2-6.8-22.4-9.9c-4.8-12.4,22-44.1,53.8-47.3C166.8,164,203.1,203.8,198.3,216.5z"/>
	
		<ellipse transform="matrix(0.9992 -3.933938e-02 3.933938e-02 0.9992 -4.8369 5.3082)" class="st3" cx="132.5" cy="125.6" rx="33" ry="35.4"/>
	<path class="st7" d="M124.1,170.3c2.4,9.2,4.8,18.5,7.1,27.7c2.1,0,4.2,0,6.2,0c2.4-9.2,4.8-18.5,7.1-27.7H124.1z"/>
	<path class="st7" d="M133.9,173c5.2,0.1,9-1.7,10.7-2.7"/>
	<path class="st7" d="M124.1,170.3c1.7,0.9,5.1,2.6,9.8,2.7"/>
	<path class="st8" d="M128.5,188.2c-3.9,18.2-7.7,36.3-11.6,54.5c12.5,0,25,0,37.5,0c-4.8-18.5-9.5-36.9-14.3-55.4
		c-1,0.6-2.7,1.5-5.1,1.8C132,189.4,129.7,188.6,128.5,188.2z"/>
	<ellipse class="st6" cx="133.4" cy="149.1" rx="102.5" ry="96.5"/>
</g>
<g id="Layer_5" class="st0">
	<g class="st9">
		<path class="st10" d="M137.7,225.4c-10.1,0-21-3.4-40.8-9.7c-11.9-3.8-20.5-6.5-21.5-9c-1.3-3.2,0.1-8.3,3.6-14.1
			c8.5-13.9,28-29,49-31.1c1.7-0.2,3.5-0.3,5.3-0.3c23.9,0,47.6,16.3,58.8,32.4c4.2,6,6,11.5,4.9,14.5c-0.8,2.2-11.4,5.4-24.8,9.3
			c-17.5,5.2-26.2,7.7-32.7,8C138.9,225.4,138.3,225.4,137.7,225.4z"/>
		<path class="st11" d="M133.3,159.7v3c26.1,0,48.7,19,57.6,31.7c2.9,4.1,5.8,10,4.7,13c-1.4,1.9-12.8,5.2-23.9,8.5
			c-17.3,5.1-26,7.7-32.3,7.9c-0.6,0-1.2,0-1.7,0c-9.9,0-20-3.2-40.3-9.6c-7.5-2.4-12.3-3.9-15.7-5.3c-4.3-1.8-4.8-2.7-4.8-2.8
			c-1.1-2.7,0.2-7.5,3.5-12.8c8.3-13.6,27.4-28.4,47.9-30.4c1.7-0.2,3.4-0.3,5.1-0.3L133.3,159.7 M133.3,159.7
			c-1.8,0-3.6,0.1-5.4,0.3c-31.8,3.2-58.7,34.9-53.8,47.3c1.2,3.1,8.3,5.4,22.4,9.9c20.2,6.4,30.9,9.8,41.2,9.8c0.6,0,1.2,0,1.8,0
			c6.7-0.3,15.5-2.9,33.1-8.1c16.5-4.9,24.7-7.4,25.8-10.2C203,196.4,170.2,159.7,133.3,159.7L133.3,159.7z"/>
	</g>
	
		<ellipse transform="matrix(0.9992 -3.933938e-02 3.933938e-02 0.9992 -4.9909 5.55)" class="st3" cx="138.5" cy="129.6" rx="33" ry="35.4"/>
	<ellipse class="st6" cx="134.5" cy="151.2" rx="102.5" ry="96.5"/>
	<line class="st12" x1="139.5" y1="24.1" x2="139.5" y2="77.4"/>
	<line class="st12" x1="261.7" y1="159.1" x2="206.7" y2="158.1"/>
	<line class="st12" x1="63.9" y1="154.4" x2="8.9" y2="153.4"/>
	<line class="st12" x1="135.7" y1="224.6" x2="135.7" y2="277.9"/>
</g>
<g id="Layer_6">
	<g>
		<path class="st10" d="M194.5,123.2c3.3,0,6,2.7,6,6v51.4c0,3.3-2.7,6-6,6H66.7c-3.3,0-6-2.7-6-6v-51.4c0-3.3,2.7-6,6-6H194.5
			 M194.5,117.2H66.7c-6.6,0-12,5.4-12,12v51.4c0,6.6,5.4,12,12,12h127.8c6.6,0,12-5.4,12-12v-51.4
			C206.5,122.6,201.1,117.2,194.5,117.2L194.5,117.2z"/>
	</g>
	<g>
		<path class="st10" d="M60.6,141.2c-1.9,0-3.4-1.5-3.4-3.4v-10.1c0-1.9,1.5-3.4,3.4-3.4h138.9c1.9,0,3.4,1.5,3.4,3.4v10.1
			c0,1.9-1.5,3.4-3.4,3.4H60.6z"/>
		<path class="st10" d="M199.6,125.8c1.1,0,1.9,0.9,1.9,1.9v10.1c0,1.1-0.9,1.9-1.9,1.9H60.6c-1.1,0-1.9-0.9-1.9-1.9v-10.1
			c0-1.1,0.9-1.9,1.9-1.9H199.6 M199.6,122.8H60.6c-2.7,0-4.9,2.2-4.9,4.9v10.1c0,2.7,2.2,4.9,4.9,4.9h138.9c2.7,0,4.9-2.2,4.9-4.9
			v-10.1C204.5,125,202.3,122.8,199.6,122.8L199.6,122.8z"/>
	</g>
	<g>
		<path class="st10" d="M166.1,130.7c-2.4,0-4.3-1.8-4.3-4s1.9-4,4.3-4s4.3,1.8,4.3,4S168.5,130.7,166.1,130.7z"/>
		<path class="st11" d="M166.1,123.6c1.8,0,3.3,1.4,3.3,3s-1.5,3-3.3,3c-1.8,0-3.3-1.4-3.3-3S164.3,123.6,166.1,123.6 M166.1,121.6
			c-2.9,0-5.3,2.3-5.3,5c0,2.8,2.4,5,5.3,5c2.9,0,5.3-2.3,5.3-5C171.4,123.9,169.1,121.6,166.1,121.6L166.1,121.6z"/>
	</g>
	<g>
		<path class="st10" d="M195.8,131.2c-2.4,0-4.3-1.8-4.3-4s1.9-4,4.3-4s4.3,1.8,4.3,4S198.1,131.2,195.8,131.2z"/>
		<path class="st11" d="M195.8,124.1c1.8,0,3.3,1.4,3.3,3s-1.5,3-3.3,3s-3.3-1.4-3.3-3S193.9,124.1,195.8,124.1 M195.8,122.1
			c-2.9,0-5.3,2.3-5.3,5c0,2.8,2.4,5,5.3,5c2.9,0,5.3-2.3,5.3-5C201.1,124.4,198.7,122.1,195.8,122.1L195.8,122.1z"/>
	</g>
	<g>
		<path class="st10" d="M180.4,130.7c-2.4,0-4.3-1.8-4.3-4s1.9-4,4.3-4c2.4,0,4.3,1.8,4.3,4S182.8,130.7,180.4,130.7z"/>
		<path class="st11" d="M180.4,123.6c1.8,0,3.3,1.4,3.3,3s-1.5,3-3.3,3s-3.3-1.4-3.3-3S178.6,123.6,180.4,123.6 M180.4,121.6
			c-2.9,0-5.3,2.3-5.3,5c0,2.8,2.4,5,5.3,5s5.3-2.3,5.3-5C185.7,123.9,183.3,121.6,180.4,121.6L180.4,121.6z"/>
	</g>
	<line class="st13" x1="60" y1="153.4" x2="115" y2="153.4"/>
	<line class="st13" x1="60.5" y1="165.4" x2="153" y2="165.4"/>
	<line class="st13" x1="60.5" y1="179.4" x2="115.5" y2="179.4"/>
	<path class="st14" d="M167.1,122.7c14.5-21.8,26.7-40.1,29.1-38.5c2.1,1.4-6.3,15.8-17.6,49.1c-8.4,24.7-14.1,46.8-19.4,47.3
		c-2.1,0.2-2.3-3.4-7.7-6.7c-4.8-2.9-7-1.5-8.2-3.4C140.7,166.3,147.5,152.1,167.1,122.7z"/>
	<path class="st15" d="M159.2,185.4c4.7,19.2-55.3,51.8-57.6,48.9c-0.6-0.7,4.2-3.5,9.8-12c11.7-17.7,6.2-29,17.4-40.2
		c2-2,8.3-8.4,16.3-7.6C151.2,175.1,157.9,179.9,159.2,185.4z"/>
	<ellipse class="st16" cx="132.5" cy="152.9" rx="102.5" ry="96.5"/>
</g>
<g id="Layer_1" class="st0">
	<ellipse class="st6" cx="134.7" cy="154.4" rx="102.5" ry="96.5"/>
	<ellipse class="st12" cx="134.7" cy="153.7" rx="73" ry="68.7"/>
	<ellipse class="st17" cx="135.7" cy="152.9" rx="31.5" ry="29"/>
	<path class="st5" d="M202.4,71.3c2.6-20.3,2.3-36.2,1.5-47.4c-0.4-4.6-0.9-9.6,0.3-9.9c2.7-0.8,11.9,22.1,19.9,43.4L202.4,71.3z"/>
	<path class="st5" d="M217,87.5c16.8-11.9,31.1-19,41.5-23.3c4.3-1.8,9-3.5,8.7-4.9c-0.6-3-25.3-1.4-48,0.6L217,87.5z"/>
	<g class="st9">
		<line class="st11" x1="223.2" y1="60.9" x2="145.2" y2="144.9"/>
		<g>
			<path class="st11" d="M216.2,53.8c-22.8,24.5-45.5,49-68.3,73.5c-3.2,3.5-6.5,7-9.7,10.5c-8.7,9.4,5.4,23.6,14.1,14.1
				c22.8-24.5,45.5-49,68.3-73.5c3.2-3.5,6.5-7,9.7-10.5C239,58.5,224.9,44.4,216.2,53.8L216.2,53.8z"/>
		</g>
	</g>
</g>
</svg>
