<?xml version="1.0" encoding="UTF-8"?><svg id="a" xmlns="http://www.w3.org/2000/svg" viewBox="0 0 234.23 88.83"><defs><style>.b{fill:#fff;}</style></defs><path class="b" d="M7.3,88.83c-.36,0-.68-.08-.97-.25s-.59-.25-.92-.25-.71-.13-1.15-.39-.77-.52-1.01-.76-.47-.37-.68-.37l.09-.2c0-.07-.05-.16-.14-.29s-.23-.2-.41-.2l-.09,.1,.36,.49-.09,.1c-.18,0-.45-.16-.81-.49-.54-.43-.92-.88-1.15-1.35s-.34-1.27-.34-2.38l.09-2.01c.06-1.93,.2-3.36,.41-4.27l2.34-9.62c.33-.82,.53-1.59,.59-2.31,.09-.56,.27-1.13,.54-1.72,1.05-4.19,2.1-8.04,3.15-11.54l.45-1.42c.36-1.15,.6-1.96,.72-2.46,.24-.88,.44-1.33,.59-1.33l.09-.05,.09,.2c0,.36-.18,1.18-.54,2.46-.24,.69-.47,1.52-.68,2.5l-1.08,3.83c-2.64,9.36-4.15,15.14-4.51,17.33-.09,.69-.17,1.03-.23,1.03h-.09l-.09,.05v.05c-.09,.92-.27,1.93-.54,3.04l-.09,.59c0,.13,0,.21,.02,.25s.07,.05,.16,.05c-.12,.13-.21,.26-.27,.39,0,.29,.12,.44,.36,.44,.12,0,.18-.05,.18-.15l-.09-.69c0-.07,0-.11,.02-.15s.09-.05,.23-.05,.2-.18,.2-.54-.03-.57-.09-.64l.09-.74c.18-.88,.32-1.47,.43-1.77s.18-.44,.23-.44,.08-.03,.11-.1,.06-.11,.09-.15c.18-.36,.27-.64,.27-.83-.06,0-.09-.1-.09-.29,0-.29,.03-.44,.09-.44,.3-1.24,.45-1.95,.45-2.11l-.09-.29c0-.23,.11-.52,.32-.88,.12-.13,.2-.2,.23-.2,.06,.07,.09,.2,.09,.39,0,.49-.21,1.67-.63,3.54l-.45,2.21c.09,0,.18-.18,.27-.54,0-.1,.03-.19,.09-.27s.12-.12,.18-.12l-.05,.49c-.18,.56-.35,.83-.52,.83s-.35,.72-.56,2.16c0,.03,.02,.05,.05,.05,.15,0,.23,.1,.23,.29-.06,.2-.09,.41-.09,.64,0,.07-.02,.11-.05,.15-.03,.26-.06,.45-.09,.56s-.08,.17-.14,.17l-.27-.29-.09,.39c0,.33,.06,.56,.18,.69,.06,0,.09,.13,.09,.39-.03,.03-.05,.07-.07,.12s-.05,.07-.11,.07l-.18-.2s-.06,.1-.09,.29c0,.23,.05,.34,.14,.34s.14,.02,.14,.05c0,.62,.03,.93,.09,.93,.09,0,.18-.28,.27-.83s.24-1.33,.45-2.31l.23-1.03c.12-.56,.26-1.1,.41-1.62,.21-.79,.34-1.2,.38-1.25s.07-.08,.07-.1,.02-.04,.05-.07l-.45,2.6c.12,0,.54-1.56,1.26-4.67,.39-1.57,.77-2.86,1.13-3.88l.18-1.13c-.18,0-.45,.77-.81,2.31l-.36,1.33h-.09c0-.39,.04-.83,.11-1.3s.19-.84,.34-1.1c.12-.39,.18-.64,.18-.74,.81-2.65,1.22-4.26,1.22-4.81,0-.29,.09-.56,.27-.79l.18-.39c0-.07-.23-.13-.68-.2-.39,0-.69,.74-.9,2.21-.69,2.75-1.1,4.12-1.22,4.12-.06-.1-.11-.18-.16-.25s-.11-.1-.2-.1v-.29l.36-.49c.09,0,.14-.13,.14-.39,.03-.03,.05-.07,.05-.12s0-.09,.02-.12,.11-.23,.29-.59c-.09-.13-.2-.2-.32-.2l-.18,.1s.13-.18,.38-.44,.38-.64,.38-1.13c.09-.52,.18-.87,.27-1.03,.12,0,.18-.07,.18-.22s.03-.3,.09-.47c.15-.46,.3-1.26,.45-2.41,0-.23,.15-.61,.45-1.13-.06-.1-.09-.2-.09-.29h.23l.09-.1-.09-.29c0-.13,.03-.37,.09-.71s.15-.65,.27-.91,.21-.39,.27-.39l.09,.29c0,.36-.11,.99-.32,1.89s-.45,1.71-.72,2.43c0,.03-.02,.09-.05,.17s-.05,.19-.05,.32,.03,.2,.09,.2l.32-.29h.14c.06,.07,.14,.2,.23,.39,.03-.03,.06-.06,.09-.07s.08-.06,.16-.12,.11-.22,.11-.47,.05-.58,.14-1.01c.21-.95,.44-1.65,.68-2.11l.09-.64c0-.72,.23-1.24,.68-1.57l-.27-.54s.05-.07,.07-.1,.05-.09,.11-.17,.12-.37,.18-.86c.15-.65,.3-1.01,.45-1.08,.09-.16,.21-.59,.36-1.28l.05-.29c.12-.49,.23-.88,.34-1.18s.43-1.51,.97-3.63c.63-2.46,.95-3.91,.95-4.37l-.09-.1c-.12,.13-.21,.2-.27,.22s-.14,.05-.25,.1-.2,.07-.29,.07c-.69,0-1.04,.23-1.04,.69,0,.23-.06,.34-.18,.34-.18,0-.3-.18-.36-.54l-.09-2.11s.05-.06,.05-.07,0-.04,.02-.07,.05-.05,.11-.05l.27,.54c.09,0,.21-.34,.36-1.03,.66-2.1,1.07-3.63,1.22-4.62,.03-.13,.06-.25,.09-.34s.05-.2,.07-.29,.04-.19,.07-.27,.05-.16,.05-.22c.3-.26,.77-1.56,1.4-3.88,.21-.65,.39-1.22,.54-1.69s.27-.74,.36-.79,.17-.11,.23-.17l-.32-.59c0-.07,.02-.11,.05-.15,.3-.13,.51-.34,.63-.64,.03-.1,.07-.18,.11-.25s.28-.1,.7-.1c.18,0,.3-.1,.36-.29,.15-.39,.41-.59,.77-.59l.9,.2c1.29,.26,2.13,.64,2.52,1.13,.15,.2,.27,.29,.36,.29l.27-.1c.21,0,.33,.54,.36,1.62,0,1.67-.18,2.86-.54,3.58l-1.58,4.52c-.51,1.18-.89,2.23-1.13,3.17s-.54,1.79-.9,2.58l-.45,2.01-1.85,5.45c-.6,2.03-1.01,3.34-1.22,3.93-.15,.43-.96,3.19-2.43,8.3-.9,3.24-1.38,4.93-1.44,5.06-.18,1.01-.45,1.88-.81,2.6-.12,.2-.33,.8-.63,1.82l-.72,2.46c-.06,.2-.14,.72-.23,1.57-.09,.1-.2,.36-.32,.79-.36,1.11-.6,2.1-.72,2.95-.09,.33-.18,.67-.27,1.03s-.21,1.49-.36,3.39c.57-.59,1.1-1.26,1.58-2.01,.36-.69,.57-1.03,.63-1.03l-.05,.44s-.05,.08-.05,.15c-.09,.26-.18,.47-.27,.64-.24,.33-.36,.59-.36,.79l.05,.1,.14-.1v-.34s.03-.05,.09-.05l.27,.29-.09-.29c0-.2,.06-.29,.18-.29s.18-.08,.18-.25,.05-.25,.16-.25,.16-.03,.16-.1,0-.13,.02-.2,.08-.1,.18-.1,.22-.11,.34-.34c.3-.52,.45-.95,.45-1.28,0-.13,.09-.2,.27-.2h.09s-.02-.07-.07-.12-.11-.14-.2-.27l.18-.25c.24-.16,.36-.37,.36-.61s.05-.5,.14-.76c.18-.75,.32-1.15,.41-1.18s.2-.13,.32-.29l.05-.1c.27-.46,.41-.76,.43-.91s.16-.43,.43-.86l.09-.15c.3-.49,.48-.74,.54-.74,0,.16-.09,.39-.27,.69l-.18,.49c.09,0,.19-.07,.29-.2s.19-.27,.25-.42,.09-.3,.09-.47l-.18-.39c0-.43,.29-1.06,.86-1.92,.06-.16,.09-.47,.09-.93l.72,.1c.12-.82,.32-1.42,.59-1.82l-.23,.83c0,.07,.03,.1,.09,.1l.59-1.42-.09,.1h-.05v-.05s-.05-.08-.05-.25c.12-.13,.18-.29,.18-.49,.03,.13,.12,.26,.27,.39l.45-1.08-.36-.25,.32-.59s.07-.1,.11-.2,.11-.2,.2-.29l-.27,.98h.09l.54-.69,.32-.69c.18-.69,.71-1.93,1.58-3.73,1.08-2.49,1.8-4.22,2.16-5.21,0-.2,.05-.34,.14-.44,.21-.29,.56-1.07,1.04-2.33s.72-1.92,.72-1.99c.06-.2,.17-.29,.32-.29h.32s-.05-.08-.05-.15-.03-.1-.09-.1-.11-.02-.14-.05l.05-.1c.21,0,.32-.23,.32-.69,0-.29,.08-.44,.23-.44s.26-.07,.32-.2c0-.13-.05-.2-.14-.2s-.14-.08-.14-.25c0-.13,.07-.2,.2-.22s.22-.09,.25-.22c-.06-.29-.15-.57-.27-.83,0-.1,.06-.25,.18-.44,.27-.49,.98-2.49,2.12-5.99,.99-3.08,1.49-4.71,1.49-4.91s.06-.39,.18-.59c.18-.13,.29-.36,.32-.69s.05-.92,.05-1.77c0-1.05,.08-1.64,.23-1.77,0-.29-.04-.56-.11-.79s-.11-.57-.11-1.03c.09-.26,.17-.39,.23-.39l.45,.54,.09,.05c0-.33,.17-.61,.5-.86s.66-.37,.99-.37c.12,0,.23,.03,.32,.1s.14,.29,.14,.69c0,.03,.02,.05,.05,.05,.21,0,.38-.07,.5-.2,.27-.29,.48-.44,.63-.44,.21,0,.41,.15,.59,.44s.37,.45,.56,.47,.37,.12,.52,.32l.41,.2,.45-.1c0,.2,0,.3,.02,.32l.09,.1,.11,.12c.27,.13,.41,.36,.41,.69,0,.13-.02,.22-.05,.27s-.06,.11-.09,.2-.07,.13-.11,.15-.1,.37-.16,1.06l-.36,2.8-.68,5.79c-.6,5.07-1.01,7.74-1.22,8h-.05c-.15,.16-.23,.28-.23,.34h.18c.12,0,.18,.23,.18,.69,0,.88-.09,1.33-.27,1.33-.06,0-.13,.2-.2,.59s-.19,1.15-.34,2.26c-.06,.26-.11,.56-.14,.88-.27,1.64-.42,2.46-.45,2.46,0-.26-.06-.39-.18-.39-.09,0-.19,.07-.29,.22s-.16,.29-.16,.42h.18c.03,.1,.06,.24,.09,.42s.09,.27,.18,.27l.18-.2v-.1l.09,.2c0,.16-.12,.33-.36,.49-.12,.07-.18,.16-.18,.29,.24,.26,.36,.54,.36,.83,0,.33-.11,.49-.32,.49h-.05c-.06,0-.09,.03-.09,.1s.05,.14,.14,.22,.14,.14,.14,.17h-.09c-.06,0-.09,.03-.09,.1,.12,.26,.18,.83,.18,1.72,.03,.43,.09,.83,.18,1.23,0,.07-.09,.1-.27,.1h-.09c-.06,.07-.09,.31-.09,.74,0,.1-.03,.15-.09,.15-.18,0-.27-1.47-.27-4.42,.15-5.37,.32-9.07,.5-11.1,.09-.98,.14-1.67,.14-2.06l-.09-.44-.09,.1c-.06,.26-.2,1.34-.41,3.24l-.09,.59c-.84,7.1-1.34,11.38-1.49,12.82-.21,2.1-.32,3.39-.32,3.88,.12,.1,.26,1.88,.41,5.35,.03,1.8,.12,3.65,.27,5.55,.27,4.62,.66,6.92,1.17,6.92l.18-.1c-.39-2.13-.59-3.78-.59-4.96,0-.33,.03-.49,.09-.49l.09,.1s.06,.06,.09,.07,.12,.55,.27,1.6l.05,.2c.33,2.98,.92,4.47,1.76,4.47,.36,0,.76-.15,1.19-.44s.83-.58,1.17-.86,.56-.42,.65-.42l-.27,.64,.09,.2c.18,0,.5-.34,.95-1.03,.27-.46,.54-.79,.81-.98l.45-.49c.03-.16,.07-.26,.11-.29s.07-.07,.07-.12,.02-.09,.05-.12c.21-.26,.39-.75,.54-1.47,.03-.2,.09-.37,.18-.52s.18-.29,.27-.42c0-.16,.06-.28,.18-.34s.18-.21,.18-.44,.09-.56,.27-.98c.45-1.15,.89-2.03,1.31-2.65,.21-.33,.38-.49,.52-.49s.32-.25,.54-.74,.46-1.03,.7-1.62c.36-1.05,.66-1.67,.9-1.87,.12-.07,.23-.13,.32-.2s.19-.26,.29-.59,.37-.93,.79-1.82c.66-1.28,.99-2.06,.99-2.36,.03-.03,.05-.08,.05-.15l.05-.05h.14l1.17-3.19c-1.2,2.36-1.82,3.54-1.85,3.54,2.01-5.24,4.43-12.03,7.26-20.38s5.36-16.32,7.59-23.92,3.36-12.42,3.36-14.49c0-.59-.14-.88-.41-.88-.36,0-1.1,.93-2.21,2.8l-.27,.44c-.06,0-.09-.05-.09-.15v-.2c0-.2-.03-.29-.09-.29-.09,0-.35,.26-.77,.79l-.32,.34c-.69,.85-1.26,1.28-1.71,1.28-.42,0-.63-.07-.63-.2,0-.03,.02-.07,.05-.1s.09-.09,.18-.17,.18-.12,.27-.12c0,.13,.06,.26,.18,.39h.18v-.29c0-.13,.03-.2,.09-.2,.42-.92,.63-1.49,.63-1.72-.09,0-.15,.04-.18,.12s-.06,.12-.09,.12v.05s-.05,.06-.05,.07-.02,.03-.05,.05-.05,.04-.05,.07-.02,.05-.05,.05l-.05,.1c-.09,.16-.17,.32-.25,.47s-.16,.22-.25,.22l-.18-.29c0-.1,.05-.21,.14-.34s.14-.29,.14-.49l-.09-.29c-.09-.07-.2-.1-.32-.1-.27,1.01-.45,1.52-.54,1.52,0-.23,.18-.74,.54-1.52-.06,.07-.32,.45-.77,1.15s-.74,1.06-.86,1.06c-.06,0-.09-.05-.09-.15,0-.23,.14-.63,.43-1.2s.5-.97,.63-1.18,.2-.39,.2-.54,.06-.32,.18-.52c.27-.49,.41-.87,.41-1.13l-.14-.29h-.27c0-.07,.09-.16,.27-.29,.63-.43,.99-.92,1.08-1.47,.06-.23,.14-.34,.23-.34l.45,.1s-.06-.11-.18-.25-.18-.31-.18-.54h-.09c0,.07-.06,.1-.18,.1-.09,0-.18-.08-.27-.25,0-.13,.14-.2,.41-.2,.96,0,1.44-.03,1.44-.1l-.18-.29h.27c.3,0,.45-.1,.45-.29,0-.07-.03-.1-.09-.1s-.11,0-.16-.02-.08-.04-.11-.07l.09-.1c.36-.13,.56-.28,.61-.44s.23-.28,.56-.34c.36,0,.65-.08,.86-.25,1.44,0,2.72,.31,3.83,.93,1.68,1.01,2.52,2.82,2.52,5.4,0,1.15-.18,2.46-.54,3.93l-2.21,10.56-3.15,11.83c-.3,1.15-.45,1.83-.45,2.06,0,.07-.06,.1-.18,.1l-.09,.2c-1.53,4.65-2.49,7.53-2.88,8.64-.57,1.67-.9,2.5-.99,2.5l-.09-.2,.18-.98-.27,.39c0-.43,.14-.89,.41-1.4s.41-.84,.41-1.01,.02-.25,.05-.25c.36-.03,.54-.15,.54-.34,.81-2.55,1.22-4.26,1.22-5.11,0-.03,.05-.05,.16-.05s.16-.23,.16-.69,.14-.83,.41-1.13l.18-.39-.09-.2c0-.23,.07-.63,.2-1.2s.29-1.09,.45-1.55,.28-.72,.34-.79h.09c0,.16-.06,.43-.18,.79s-.18,.61-.18,.74l.45-.88,.18-1.03c0-.23-.05-.43-.14-.59,.24,0,.38-.03,.43-.1s.07-.16,.07-.29l-.36,.2c0-.13,.02-.22,.05-.27s.05-.11,.07-.2,.14-.17,.38-.27c0-.07-.04-.12-.11-.17s-.11-.16-.11-.32c.69-1.51,1.04-2.44,1.04-2.8l-.18,.2-.09-.2c0-.39,.1-.59,.29-.59s.34-.22,.43-.66,.18-1.14,.27-2.09c0-.2,.03-.29,.09-.29l.09,.1,.14-.1-.23-.39c0-.43,.45-2.85,1.35-7.27l.99-4.62-.18,.2-.14-.1c-.06,0-.09,.17-.09,.52s0,.52-.02,.54l-.07,.07-.09,.05c-.24,.29-.36,1.05-.36,2.26,0,.2-.02,.35-.07,.47s-.07,.2-.07,.25-.05,.07-.14,.07l-.05,1.03-.05,.39c-.12,.88-.27,1.33-.45,1.33l-.09-.1c0,.52-.06,1.03-.18,1.52l-.63,2.85c-.21,.75-.32,1.19-.32,1.33-.09,.16-.15,.34-.18,.54l-.27-.44-.09,.44c0,.36-.33,1.78-.99,4.27-.57,2.06-.86,3.31-.86,3.73,0,.26-.13,.59-.38,.98s-.41,.7-.47,.93l-.18,.29h-.09l.18-1.08-.09-.2c-.09,0-.18,.23-.27,.69-.3,1.24-.6,2.23-.9,2.97s-.47,1.32-.5,1.74l-.36,.98c-.21,.59-.36,.93-.45,1.03,0,.16-.17,.88-.5,2.16s-.51,1.93-.54,1.96c-.21,.1-.51,.9-.9,2.41l-.63,2.26c-.06,0-.12,.03-.18,.1l.09,.59-.18-.1c-.24,0-.44,.43-.59,1.28l-.27,1.33c-.09,0-.2,.18-.32,.54-.21,.65-.36,.98-.45,.98s-.14,.08-.14,.25-.03,.25-.09,.25l-.23-.1-.09,.1,.09,.39c-.06,.1-.11,.17-.16,.22s-.17,.43-.38,1.15c-.54,1.64-.87,2.46-.99,2.46v-.1c-.06,0-.15,.15-.27,.44-.81,1.57-1.22,2.96-1.22,4.17,0,.26-.06,.39-.18,.39s-.18,.03-.18,.1v.2l-.09,.05c-.3,0-.63,.49-.99,1.47-.06,.2-.14,.38-.23,.54l.72-.25c.06,0,.09,.08,.09,.25s-.12,.33-.36,.49c-.12,.07-.29,.1-.5,.1s-.35,.21-.41,.64c-.06,.23-.09,.41-.09,.54,.03,0,.08-.05,.14-.15,.24-.49,.41-.74,.5-.74,.12,0,.18,.13,.18,.39,0,.07-.04,.1-.11,.1s-.14,.07-.2,.2c-.21,.43-.32,.8-.32,1.13,0,.07-.02,.11-.05,.15l-.09,.05c-.27,0-.41,.13-.41,.39l.09,.2c0,.2-.17,.47-.5,.83-.12,.13-.24,.2-.36,.2v-.29c-.12,0-.35,.38-.68,1.13s-.5,1.18-.5,1.28l.81-1.13h.09l.09,.39c0,.26-.07,.48-.2,.66s-.27,.3-.41,.37-.2,.26-.2,.59l.09,.29-.41-.2v-.2c-.3,0-.51,.26-.63,.79h.63l.14,.25c0,.07-.05,.15-.14,.25s-.17,.17-.25,.22-.14,.08-.18,.1-.08,.02-.11,.02l-.36-.2c-.12,0-.18,.05-.18,.15,0,.13,.04,.25,.11,.37s.16,.17,.25,.17l.27-.1-.23,.54c-.27,.46-.41,.77-.41,.93s-.02,.25-.05,.27-.05,.02-.07,.02-.04,.02-.07,.05-.05,.05-.07,.05-.04,.02-.07,.05-.05,.05-.07,.05-.04,.02-.07,.05v.29c-.12,.07-.18,.2-.18,.39,0,.13,.03,.2,.09,.2,.15,0,.9-1.49,2.25-4.47l1.62-3.34c.21-.52,.39-.9,.54-1.13,.27-.36,.48-.87,.63-1.52,.66-1.87,1.19-3.15,1.58-3.85s.63-1.06,.72-1.06c0,.07-.23,.79-.68,2.16-.63,1.83-1.11,2.86-1.44,3.09l-.09,.1-.05,.15c0,.36-.57,1.85-1.71,4.47l-2.39,5.11c-.24,.46-.43,.87-.56,1.23s-.58,1.24-1.33,2.65c-.42,.88-.74,1.44-.95,1.67-.15,.1-.38,.39-.68,.88-.51,.72-1.11,1.51-1.8,2.36s-1.35,1.28-1.98,1.28c-.18,0-.29,.02-.32,.05s-.08,.07-.14,.1l-.09,.1c-.51,.36-1.4,.54-2.66,.54-2.49,0-4.19-.77-5.09-2.31-1.2-2.23-1.8-4.47-1.8-6.73,0-.65-.08-.98-.23-.98,0-.29,.05-.59,.14-.88s.14-.54,.14-.74l-.09-.2c-.18-.2-.27-.39-.27-.59,0-.29,.06-.57,.18-.83s.18-.49,.18-.69l-.18-.29,.09-.64c.18-.46,.27-.79,.27-.98,0-.23-.06-.41-.18-.54-.12-.03-.2-.23-.23-.59l-.05-.49,.05-.1c.15,0,.23,.13,.23,.39,.03,0,.21-3.27,.54-9.82,0-1.11-.03-1.72-.09-1.82,0-.13,.03-.2,.09-.2,.18,0,.29-.05,.32-.15,0-.52-.08-.88-.25-1.06s-.25-.32-.25-.42c0-.03,.08-.08,.23-.15,.39,0,.6-.11,.63-.34l-.09-.44,.36-.2c-.18-.16-.27-.33-.27-.49h.36c-.24-.1-.36-.23-.36-.39l.09-.93c0-.23-.06-.75-.18-1.57,0-.13,.03-.22,.09-.27s.09-.2,.09-.47l-.09-.79h-.09v.05l-.27,.25-.14-.29c.24-1.74,.38-2.6,.41-2.6,.24,.13,.39,.2,.45,.2,0-.1,0-.19-.02-.27s-.11-.22-.29-.42c-.12-.03-.23-.08-.32-.15-.27,0-.41,.49-.41,1.47,0,.46-.02,.85-.07,1.18s-.17,.52-.38,.59c-.18,0-.27-.16-.27-.49l-.27,.59c-.15,.46-.29,.74-.43,.86s-.2,.35-.2,.71l-.32,.74c-.09,.03-.14,.17-.14,.42s-.02,.37-.05,.37-.05-.02-.05-.05c-.12-.1-.2-.25-.23-.44h-.05v.05c-.03,.07-.05,.36-.05,.88-.03,0-.05,.02-.07,.05s-.02,.07-.02,.1c-.27,.88-.51,1.44-.72,1.67l-.18,.39-.09,.88c-.12-.03-.23-.1-.32-.2l-.09,.2,.09,.49-.09,.2c-.12,0-.18,.12-.18,.37s-.05,.37-.14,.37-.17,.03-.23,.1c0,.26-.06,.47-.18,.64s-.24,.46-.36,.88c0,.16-.09,.33-.27,.49-.03,.03-.08,.18-.14,.44-.03,.03-.05,.08-.05,.15-.12,.56-.32,1.21-.59,1.96-.12,.29-.24,.44-.36,.44h-.23c-.06,0-.11,.07-.14,.2-.03,.49-.09,.87-.18,1.13-.24,.46-.43,.71-.56,.76s-.2,.12-.2,.22c0,.07,.03,.1,.09,.1l.23-.2,.09,.1v.2c-.06,.23-.12,.34-.18,.34s-.12,.03-.18,.1c-.33,.88-.65,1.62-.95,2.21-.36,.75-.54,1.14-.54,1.15s0,.06-.02,.12-.04,.1-.07,.1c-.15,0-.24,.05-.27,.15-.09,.46-.14,.71-.16,.76s-.04,.09-.07,.12c-.75,1.37-1.55,3-2.41,4.89s-1.74,3.71-2.64,5.48c-2.13,4.16-3.98,6.24-5.54,6.24Zm-5.9-8.15l.09-.2c0-.07-.02-.16-.05-.29s-.08-.2-.14-.2-.09-.03-.09-.1l.05-.49,.09-.34,.05-.59c0-.13-.03-.2-.09-.2-.12,0-.29,.1-.5,.29l.23,.49c0,.23-.07,.47-.2,.71s-.2,.45-.2,.61l.27,.29c.09,0,.14-.05,.16-.15s.03-.16,.05-.2,.05-.05,.11-.05l.18,.39Zm-.68,1.82l.09-1.42c-.09,0-.14,.02-.16,.05s-.02,.43-.02,1.18l.09,.2Zm1.4-.83l.27-.1c0-.13-.09-.2-.27-.2s-.27,.03-.27,.1h.05s.02,.07,.07,.12,.1,.07,.16,.07Zm.72-5.6h-.09v-.39l.09,.1v.29Zm.5,1.92c.12-.2,.21-.67,.27-1.42-.06,0-.11,.11-.16,.32s-.09,.4-.14,.56-.07,.31-.07,.44l.09,.1Zm.63-6.78c-.06,0-.09-.07-.09-.2,0-.2,.03-.33,.09-.39l.18,.1-.18,.49Zm0,13.5l.09-.2-.09-.2h0c-.06,.1-.09,.21-.09,.34,0,.03,.03,.05,.09,.05Zm.09-2.21l.09-.29-.09-.34h.09l-.09-.1-.09,.34,.09,.39Zm0,.69v-.39c-.06,.1-.09,.21-.09,.34,0,.03,.03,.05,.09,.05Zm.18-10.07c-.06,0-.09-.07-.09-.2,0-.23,.05-.52,.14-.88,.15-.95,.35-1.42,.59-1.42,.03,0,.05,.03,.05,.1,0,.26-.11,.73-.32,1.4s-.33,1.01-.36,1.01Zm.09,8.15v-.69c-.06,0-.09,.23-.09,.69h.09Zm.09-11.64s-.05-.02-.07-.07-.02-.2-.02-.47l.09,.1v.44Zm.23-.83h-.05s-.07,0-.11-.02-.07-.07-.07-.17l.18-.39s.06,.1,.09,.29c0,.16-.02,.26-.05,.29Zm.68-1.82c-.12,0-.23-.1-.32-.29,0-.2,0-.31,.02-.34s.07-.18,.16-.44h.09l.09,.79,.09,.1c0,.13-.05,.2-.14,.2Zm.95-.69l.09-.1v-.69c-.06,.29-.09,.56-.09,.79Zm.18-1.23s.2-.38,.5-1.13c.18-.39,.27-.82,.27-1.28-.06,0-.27,.59-.63,1.77-.09,.33-.14,.54-.14,.64Zm.95-3c.06-.07,.09-.2,.09-.39-.06,0-.09,.05-.09,.15v.25Zm.45-1.82l.09-.1v-.39l-.09-.1-.09,.29,.09,.29Zm.18-6.24c-.06,0-.09-.13-.09-.39,0-.2,.02-.42,.07-.66s.1-.45,.16-.61,.14-.25,.23-.25l.09,.2c0,.65-.15,1.23-.45,1.72Zm.45,.1c-.06,0-.09-.1-.09-.29l.09-.29c.06,0,.09,.07,.09,.2l-.09,.39Zm.32-2.9c-.06,0-.09-.03-.09-.1,.06-1.01,.15-1.62,.27-1.82,.21-.36,.38-.97,.52-1.84s.29-1.3,.47-1.3c.03,0,.06,.11,.09,.34,0,.49-.21,1.46-.63,2.9-.3,1.21-.51,1.82-.63,1.82Zm.27,30.79l.54-.15,.09-.1-.09-.1c-.06,.03-.12,.06-.18,.07s-.14,.04-.23,.07-.14,.1-.14,.2Zm.27-.44l.36-.39,.09,.1c.12,0,.21-.02,.27-.05,.15-.33,.35-.64,.59-.93,.15-.07,.27-.28,.36-.64,.03-.16,.15-.39,.36-.69,.45-.36,.74-.76,.88-1.2s.2-1.01,.2-1.69l.41-.1-.09,.2v.39c.06,0,.39-.7,.99-2.11,.12,0,.87-1.46,2.25-4.37s2.07-4.5,2.07-4.76l-.09-.44c0-.1,.02-.19,.07-.27s.19-.12,.43-.12v-.15l-.27-.25s0-.05,.02-.05,.04-.02,.07-.05c.3,0,.48-.02,.54-.05,0-.26,.08-.49,.23-.69,.3-.29,2.19-4.94,5.68-13.95,.12-.23,.27-.59,.45-1.08,.48-1.31,.72-2.19,.72-2.65,0-.13,.04-.24,.11-.32l.18-.2s.09-.08,.14-.1,.07-.04,.07-.07h-.68v-.44c0-.2,.06-.29,.18-.29,.18,.2,.35,.41,.5,.64l.27-2.5c-.09,0-.77,1.59-2.03,4.76l-5,12.23c-.63,1.51-1.2,2.72-1.71,3.63l-.23,.49c0,.39-.39,1.23-1.17,2.5-.21,.39-.32,.61-.32,.66s-.15,.32-.45,.81c-.42,.65-.63,1.15-.63,1.47s-.26,.9-.77,1.72l-.09,.25c-.6,1.21-1,2.12-1.19,2.73s-.35,.96-.47,1.06-.2,.2-.25,.32-.11,.22-.2,.32l-.41,1.03c-.18,.49-.6,1.42-1.26,2.8-.78,1.41-1.17,2.24-1.17,2.5Zm.36-37.52h-.09c-.06,0-.09-.03-.09-.1,0-.13,.04-.2,.11-.22s.13-.04,.16-.07l.09,.1c0,.16-.06,.26-.18,.29Zm0-.59l-.09-.2c0-.13,.09-.26,.27-.39,.12,0,.18,.07,.18,.2,0,.16-.12,.29-.36,.39Zm.54,2.21l-.09-.59c0-.29,.09-.46,.27-.49,0,.26-.02,.44-.05,.54-.06,.36-.11,.54-.14,.54Zm0,36.93c.15,0,.33-.13,.54-.39,.09-.1,.14-.2,.14-.29,0-.03-.03-.05-.09-.05-.39,.29-.59,.54-.59,.74Zm.68-38.3c-.09,0-.2-.1-.32-.29l-.18-.25c0-.07,.02-.1,.05-.1h.36l.09,.64Zm.09-1.33v-.29c0-.23,.03-.44,.09-.64,.03-.03,.05-.06,.05-.07s.02-.02,.05-.02c.06,.07,.09,.15,.09,.25l.27-.44h.09c0,.07-.08,.29-.25,.66s-.29,.56-.38,.56Zm.54,38.89c.12-.03,.18-.1,.18-.2l-.09-.2c0-.16,.03-.26,.09-.29,.21,0,1.04-1.41,2.48-4.22,0-.16,.11-.31,.32-.44l.27-.25c-.39,0-.59-.07-.59-.2,0-.2,.14-.44,.41-.74l.18-.54c.18-.43,.32-.64,.41-.64s.14-.11,.14-.34,.02-.37,.07-.42,.11-.1,.18-.15,.14-.09,.2-.12c.03,0,.05,.11,.07,.34s.03,.37,.05,.42,.05,.07,.11,.07c.21,0,.32-.1,.32-.29,0-.16-.09-.44-.27-.83v-.1l.5,.29s.05-.07,.05-.2,.05-.22,.16-.27,.18-.09,.23-.12,.08-.07,.11-.1c0-.03-.14-.09-.43-.17s-.43-.16-.43-.22l.09-.2s-.07-.02-.11-.05-.13-.05-.25-.05c0-.1,.11-.21,.32-.34,.57-.33,1.4-1.36,2.48-3.09,.18-.2,.29-.47,.32-.83s.06-.6,.09-.71,.11-.17,.25-.17,.23-.04,.27-.12,.08-.15,.11-.2,.05-.14,.05-.27c0-.2-.15-.29-.45-.29-.06,0-.09-.07-.09-.2,0-.03,.04-.11,.11-.22s.16-.21,.25-.29,.18-.12,.27-.12l.32,.1s.06-.02,.09-.05,.08-.07,.16-.12,.11-.16,.11-.32c0-.2-.11-.29-.34-.29s-.34-.07-.34-.2v-.2s-.05,.08-.05,.15-.02,.11-.07,.12-.13,.02-.25,.02l-7.57,15.08c-.09,.03-.17,.28-.23,.74-.06,.26-.11,.39-.14,.39s-.06,.02-.09,.05c-.18,.07-.27,.18-.27,.34h.18c.06,0,.09,.03,.09,.1,0,.1-.05,.25-.14,.47s-.14,.42-.14,.61l.18,.1h.09Zm.18-8l.27-.2v-.2s-.03-.05-.09-.05c-.09,0-.14,.02-.16,.05s-.02,.16-.02,.39Zm.45-36.34l.18-.1c.06-.26,.09-.62,.09-1.08-.03,.2-.08,.4-.16,.61s-.11,.4-.11,.56Zm.5-1.28l.09-.29c.12-.52,.18-.87,.18-1.03-.09,0-.17,.13-.25,.39s-.11,.51-.11,.74c0,.13,.03,.2,.09,.2Zm0-3.44s.08-.05,.14-.15c.27-.36,.41-.67,.41-.93-.06,0-.12,.07-.18,.22s-.12,.29-.18,.42-.1,.23-.11,.29-.04,.11-.07,.15Zm.09,38.6l.63-1.47v-.1c-.09,0-.22,.23-.38,.69s-.25,.75-.25,.88Zm.63-40.32l.09-.1c.12-.13,.18-.26,.18-.39-.09,0-.17,.06-.25,.17s-.11,.19-.11,.22l.09,.1Zm.36,42.77v-.1c0-.1,.03-.2,.09-.32s.1-.2,.11-.25,.04-.07,.07-.07c0,.43-.02,.65-.07,.66s-.08,.02-.11,.02-.06,.02-.09,.05Zm.86-1.62v-.1c0-.2,.09-.29,.27-.29-.03,.1-.07,.18-.11,.25s-.1,.11-.16,.15Zm1.85-9.04l-.14-.1,.41-.64v.1l-.27,.64Zm1.08,5.5l-.09-.1c0-.2,.09-.29,.27-.29l-.18,.39Zm.45-.59s-.05,0-.05-.02-.02-.05-.07-.1-.07-.11-.07-.17l.09-.1,.18,.1c.06,0,.09-.08,.09-.25s.05-.28,.16-.34,.16-.38,.16-.93c.03,.03,.05,.05,.07,.05s.04,.02,.07,.05,.08,.11,.14,.22,.09,.24,.09,.37c-.27,.75-.56,1.13-.86,1.13Zm.09,.59h-.09v-.34c0-.1,.03-.15,.09-.15v.49Zm3.25-5.75v-.1c0-.59,.44-1.56,1.31-2.9,.12-.16,.18-.33,.18-.49,0-.07-.03-.1-.09-.1l-.54,.2c-.09,0-.14-.1-.14-.29,0-.23,.19-.37,.56-.42s.56-.2,.56-.44,.12-.58,.36-1.01c.18-.26,.27-.52,.27-.79-.39,.43-.63,.64-.72,.64l-.09-.2v-.44c0-.07-.03-.1-.09-.1-.15,0-.23,.07-.25,.22s-.02,.38-.02,.71l-.09-.1c-.15,0-.3,.13-.45,.39s-.23,.59-.23,.98c0,.46,.11,.9,.32,1.33,0,.03,0,.07-.02,.1s-.05,.09-.11,.17-.12,.14-.18,.17l-.18,.1c-.06,.03-.12,.05-.18,.05l-.18-.1v-.1c0-.07,.07-.1,.2-.1s.22-.07,.25-.2c0-.07-.06-.12-.18-.17s-.18-.19-.18-.42c-.06,0-.15,.11-.27,.34-.36,.62-.54,1.13-.54,1.52,0,.1-.02,.18-.05,.25-.15,.29-.23,.56-.23,.79,0,.13,0,.22,.02,.27s.13,.12,.34,.22l.36-.2,.27,.2Zm-.54-.29c-.12,0-.18-.07-.18-.2,0-.2,.06-.29,.18-.29s.18,.07,.18,.2c0,.2-.06,.29-.18,.29Zm.27-.69c-.12,0-.18-.07-.18-.2,0-.1,.03-.2,.09-.29,.18,0,.27,.07,.27,.2,0,.2-.06,.29-.18,.29Zm.54-8.45c.18,0,.27-.26,.27-.79-.06,.07-.14,.13-.23,.2s-.14,.2-.14,.39c0,.13,.03,.2,.09,.2Zm.68-5.45s-.05-.02-.07-.07-.02-.16-.02-.32l.09,.1v.29Zm.09,2.46l.18-.15c.12-.07,.18-.15,.18-.25,0-.03-.02-.05-.05-.05s-.06,.02-.09,.05l-.14,.15c-.06,.07-.09,.15-.09,.25Zm.27-5.65v-.29c0-.29,.03-.44,.09-.44v.64l-.09,.1Zm.27-.93c-.06,0-.09-.1-.09-.29s.06-.36,.18-.49c.06,0,.12,.03,.18,.1,0,.1-.02,.18-.05,.25s-.05,.12-.05,.17-.02,.11-.07,.17-.08,.1-.11,.1Zm.18,12.28c.12,0,.18-.07,.18-.2l-.09-.2c-.12,0-.19,.02-.2,.07s-.02,.09-.02,.12-.02,.07-.05,.1l.18,.1Zm.45-.79v-.29h.09l-.09-.1c-.06,0-.09,.1-.09,.29,0,.07,.03,.1,.09,.1Zm.36-.49l.09-.1c0-.07-.02-.15-.05-.25s-.07-.15-.11-.15-.08-.02-.11-.05c0,.36,.05,.54,.14,.54h.05Zm.5-1.42c.09,0,.36-.23,.81-.69,.09-.13,.2-.48,.34-1.06s.27-1.19,.41-1.84,.2-1.13,.2-1.42c0-.23-.03-.34-.09-.34-.18,.26-.36,.64-.54,1.13-.81,2.16-1.22,3.5-1.22,4.03,0,.13,.03,.2,.09,.2Zm.23,.39l.23-.1-.18-.2h-.14l-.05,.1c0,.13,.05,.2,.14,.2Zm.14,.69l-.09-.39c.06,0,.09-.03,.09-.1l-.09,.2c0,.2,.03,.29,.09,.29Zm.54-4.91l-.09-.39h.09s-.02,.07-.05,.12-.05,.14-.05,.27h.09Zm.36-3.63l-.09-.1-.09-.39c0-.13,.03-.2,.09-.2,.09,.2,.15,.39,.18,.59l-.09,.1Zm.95-4.22s.08-.02,.16-.07,.11-.19,.11-.42c0-.2-.03-.29-.09-.29-.09,0-.18,.13-.27,.39v.34s.03,.05,.09,.05Zm.27,22.44v-.39c0-.2,.03-.29,.09-.29v.59l-.09,.1Zm.36-23.62v-.29h.09l-.09-.1c-.06,.1-.09,.21-.09,.34,0,.03,.03,.05,.09,.05Zm.09-.59l.18-.44c0-.2-.03-.29-.09-.29-.03,.03-.05,.06-.05,.07s-.02,.05-.05,.1-.05,.1-.05,.15-.02,.11-.05,.17c0,.16,.03,.25,.09,.25Zm.36-2.55l.09-.98s-.05,.02-.07,.05-.02,.07-.02,.1c-.12,.23-.18,.47-.18,.74,0,.03,0,.06,.02,.07s.07,.02,.16,.02Zm.18-1.08l.23-.1c-.06-.13-.14-.2-.23-.2s-.18,.03-.27,.1c0,.03,0,.05,.02,.05s.05,.02,.09,.07,.1,.07,.16,.07Zm0,16.79v-.59l.14,.1v.39l-.14,.1Zm.23,14.49v-.39h.09l-.09-.15-.09,.25c0,.2,.03,.29,.09,.29Zm-.09,11.15c.06-.07,.09-.26,.09-.59h-.07s-.02,.2-.02,.59Zm.18-18.81l.09-.2-.09-.2h.09l-.09-.1-.09,.29,.09,.2Zm.09-.88v-.54c-.06,0-.09,.11-.09,.34,0,.13,.03,.2,.09,.2Zm0,5.21v-.39c-.06,0-.09,.1-.09,.29,0,.07,.03,.1,.09,.1Zm.09,17.83l.05-.05s.05-.16,.05-.39c0-.07-.06-.13-.18-.2-.06,0-.09,.07-.09,.2v.1s.02,.1,.05,.2,.08,.15,.14,.15Zm0-31.82l.27-.1v-.1c0-.07-.06-.1-.18-.1s-.18,.05-.18,.15c0,.03,.03,.08,.09,.15Zm.09,32.51s.06-.1,.09-.29c0-.16-.06-.26-.18-.29l.09,.59Zm1.26-7.02s-.05-.11-.05-.34l-.05-.29c-.03-.43-.05-.95-.07-1.57s-.02-1.26-.02-1.92l.09-3.93,.09,.1,.14-.1-.14-.29-.09-1.03c0-.49,.06-.85,.18-1.08s.23-.34,.32-.34c.12,0,.18,.1,.18,.29-.27,7.01-.47,10.51-.59,10.51Zm.41,1.92v-.74h.09v.59l-.09,.15Zm.54-21.95c.12,0,.18-.36,.18-1.08-.03,0-.05,.02-.07,.05s-.02,.07-.02,.1c-.12,.39-.18,.67-.18,.83,0,.07,.03,.1,.09,.1Zm7.3,29.96c.15,0,.35-.16,.59-.49,.12-.2,.23-.29,.32-.29l.18,.1c0-.46,0-.7,.02-.74s.08-.05,.2-.05h.23c.21,0,.56-.49,1.04-1.47s.74-1.56,.77-1.72,.12-.45,.27-.86,.29-.78,.43-1.1,.2-.59,.2-.79c-.03,0-.32,.47-.86,1.42l-.54,.88c-.93,1.54-1.4,2.34-1.4,2.41-.9,.98-1.35,1.59-1.35,1.82l.45-.29,.09,.1c-.09,.16-.22,.31-.38,.44s-.25,.34-.25,.64Zm1.44-8.84c.09,0,.21-.16,.36-.49l.23-.39c-.12,0-.3,.15-.54,.44l-.14,.25c0,.13,.03,.2,.09,.2Zm.5,3.34c.12,0,.4-.47,.83-1.4s.65-1.51,.65-1.74h-.14c-.09,0-.42,.51-.99,1.52l-.18,.54c-.18,.43-.27,.72-.27,.88,0,.13,.03,.2,.09,.2Zm0-4.42l.18-.1c.12-.07,.18-.16,.18-.29,0-.03-.02-.05-.05-.05s-.06,0-.09,.02-.08,.07-.14,.15-.09,.17-.09,.27Zm.54-.83c.12-.13,.18-.25,.18-.34s-.03-.15-.09-.15-.12,.04-.18,.12-.09,.2-.09,.37h.18Zm2.39,2.11l.18-.1v-.1c-.18,0-.27,.05-.27,.15,0,.03,.03,.05,.09,.05Zm.59-9.13c-.06,0-.09-.03-.09-.1,0-.03,0-.07,.02-.1s.05-.07,.09-.12,.1-.07,.16-.07l.09,.1s-.07,.09-.11,.17-.1,.12-.16,.12Zm.09,3.39v-.49c-.06,0-.09,.1-.09,.29,0,.13,.03,.2,.09,.2Zm0,4.47c.18,0,.27-.16,.27-.49-.03-.03-.08-.05-.14-.05-.15,0-.23,.11-.23,.34l.09,.2Zm.63-9.38v-.1c0-.13,.03-.27,.09-.42l.18-.44c.06-.15,.12-.22,.18-.22,0,.16-.03,.33-.09,.49-.21,.46-.33,.69-.36,.69Zm0,3.14c.06,0,.11-.11,.16-.32s.2-.55,.47-1.01l.18-.29c.06-.1,.13-.21,.2-.34s.11-.29,.11-.49h-.14c-.33,0-.62,.56-.86,1.67-.09,.39-.14,.65-.14,.79Zm.99,2.7c.21-.1,.32-.2,.32-.29-.06-.07-.17-.1-.32-.1-.12,0-.18,.05-.18,.15,0,.07,.03,.15,.09,.25h.09Zm.14-5.35c.09,0,.18-.1,.27-.29v-.2h-.18l-.23,.29,.14,.2Zm1.17-1.92v-.1c.06-.2,.15-.29,.27-.29s.29-.18,.5-.54c.45-.72,.9-1.57,1.35-2.55,.36-.75,.56-1.13,.61-1.13s.26-.56,.65-1.67c.69-1.96,1.07-2.95,1.13-2.95s.21-.41,.45-1.23c.12-.56,.23-.88,.32-.98,.18,0,.44-.5,.79-1.5s.53-1.55,.54-1.65,.1-.38,.25-.86,.35-1.01,.59-1.6c2.55-7.24,3.83-10.87,3.83-10.9s.21-.92,.63-2.65c4.75-19.32,7.12-29.58,7.12-30.79,0-.1-.02-.15-.05-.15-.87,0-1.35,.34-1.44,1.03-.03,.26-.08,.55-.14,.86s-.16,.49-.29,.54-.23,.13-.29,.25-.09,.43-.09,.96c.12-.13,.19-.24,.2-.32s.04-.14,.07-.17v.88c0,.59-.09,.88-.27,.88-.06-.2-.09-.56-.09-1.08l-.68,2.7c.09,0,.3-.49,.63-1.47,.03,0,.05-.02,.05-.05-.06,.69-.15,1.31-.27,1.87-.27,1.31-.43,2.05-.47,2.21s-.17,.61-.38,1.33c-.06,.2-.11,.32-.16,.37s-.11,.07-.2,.07v.2c-.3,.75-.45,1.19-.45,1.33l.27-.29,.09,.29c0,.26-.06,.39-.18,.39l-.18-.1c-.15,0-.24,.16-.27,.47s-.05,.79-.05,1.45c0,.85-.05,1.65-.14,2.41v-1.28c0-.49-.05-.74-.14-.74s-.24,.54-.45,1.62c-.09,.85-.45,2.47-1.08,4.86-.57,2.19-.9,3.34-.99,3.44-.12,.23-.2,.59-.25,1.08s-.1,1.01-.16,1.57c-.09,0-.15,.12-.18,.37s-.11,.37-.25,.37-.2,.13-.2,.39c0,.1,0,.17,.02,.22s.07,.07,.16,.07l-.27,.29v.07s.12,.02,.36,.02l-.36,.69c0,.13,.02,.21,.05,.25s.05,.06,.05,.07,.02,.04,.05,.07,.05,.08,.05,.15c-.03,.03-.06,.05-.09,.05s-.05,0-.07,.02-.05,.04-.09,.07-.1,.09-.16,.17-.11,.18-.16,.29-.08,.2-.11,.25-.08,.11-.14,.2-.14,.12-.23,.12l-.27-.1s-.05,.02-.05,.05l.05,.25c0,.26-.06,.44-.18,.54v.2l.18-.1c.12,0,.18,.1,.18,.29,0,1.08-1.37,5.47-4.1,13.16-2.43,6.81-3.83,10.61-4.19,11.39-.36,.36-.63,.83-.81,1.42-.27,.95-.41,1.83-.41,2.65Zm.18,5.35l-.09-.1c.12-.2,.24-.29,.36-.29,0,.13-.04,.22-.11,.27s-.13,.09-.16,.12Zm.18-1.62s.05-.05,.07-.05,.05-.05,.11-.15l.09-.88c-.24,.26-.36,.59-.36,.98,0,.07,.03,.1,.09,.1Zm2.03-4.32h-.09c-.06,0-.09-.03-.09-.1l.27-.49,.09,.1-.18,.49Zm.09-9.04c.12,0,.49-.98,1.1-2.95s.92-3.03,.92-3.19c-1.35,3.93-2.03,5.97-2.03,6.14Zm1.94,6.43c-.12,0-.18-.05-.18-.15,0-.03,.03-.05,.09-.05,0-.2,.05-.39,.14-.59,.21-.43,.39-.64,.54-.64l.09,.1c-.03,.13-.06,.25-.09,.34s-.07,.24-.11,.42-.13,.32-.25,.42-.2,.15-.23,.15Zm.09-2.8l-.09-.25c0-.07,.03-.1,.09-.1s.11,.02,.16,.05,.1,.1,.16,.2c-.06,.07-.17,.1-.32,.1Zm.59,1.28l.09-.49c0-.43,.11-.88,.32-1.37s.44-.92,.68-1.3,.41-.56,.5-.56c0,.36-.53,1.6-1.58,3.73Zm1.85-4.81s-.05-.02-.07-.07-.02-.12-.02-.22c1.44-3.34,2.19-5.37,2.25-6.09,0-.03,0-.07,.02-.1s.04-.05,.07-.05,.05-.23,.05-.69c0-.92,.18-1.44,.54-1.57,.06-.03,.09-.08,.09-.15l-.09-.1v-.25h.09c.12,0,.2-.08,.23-.25s.08-.25,.14-.25c.09,.26,.14,.61,.14,1.06s.03,.66,.09,.66c.03,0,.07-.03,.11-.1s.07-.14,.07-.22,0-.15,.02-.2,.04-.11,.07-.17c.09-.23,.21-.36,.36-.39,0,.36-.3,1.1-.9,2.21l-.23,.49c.12-.82,.21-1.23,.27-1.23l-.9,1.92c-.09,.13-.15,.2-.18,.22s-.09,.16-.18,.42c-1.2,3.4-1.88,5.11-2.03,5.11Zm2.3-23.82c-.18,0-.27-.1-.27-.29,0-.13,.09-.2,.27-.22s.51-.45,.99-1.3l-.27,.98c-.21,.56-.45,.83-.72,.83Zm1.4,13.65h-.09v-.49l.09,.1v.39Zm.09-.98l.09-.34s.08-.32,.25-.86,.29-.81,.38-.81c0,.39-.05,.72-.14,.98l-.09,.25c-.09,.2-.17,.34-.23,.44s-.11,.18-.16,.25-.08,.1-.11,.1Zm.9-2.46c-.06,0-.09-.03-.09-.1,0-.2,.11-.63,.34-1.3s.37-1.01,.43-1.01c0,.26-.05,.56-.14,.88-.24,.85-.42,1.36-.54,1.52Zm.77-1.18l-.09-.1,.27-.29c.12,0,.18,.03,.18,.1s-.05,.13-.16,.2-.17,.1-.2,.1Zm-.09,.69v-.2c0-.2,.03-.29,.09-.29l.09,.1c0,.26-.06,.39-.18,.39Zm.09-2.31v-.1c0-.1,.21-.57,.63-1.42-.33,1.01-.54,1.52-.63,1.52Zm.36,1.03h-.09c-.06,0-.09-.03-.09-.1,0-.23,.05-.34,.14-.34h.23v.1c0,.2-.06,.31-.18,.34Zm1.08-5.45h-.09c-.06,0-.09-.03-.09-.1,0-.23,.06-.36,.18-.39,.12,0,.18,.07,.18,.2l-.18,.29Zm.27-13.36s-.05-.02-.07-.07-.02-.2-.02-.47l.09,.1v.44Zm.95,6.73l.09-.39h-.09v.39Zm.27-14.19c.21-.13,.39-.77,.54-1.92l.09-.98c-.09,0-.23,.38-.43,1.13s-.29,1.28-.29,1.57l.09,.2Zm.18,12.77v-.39h.09c-.09,0-.14,0-.16,.02s-.02,.04-.02,.07c0,.2,.03,.29,.09,.29Zm.18-.69l.09-.2-.09-.2h.09l-.09-.1v.49Zm.27-.93v-.49l-.09,.2c0,.2,.03,.29,.09,.29Zm.68-3.29v-.1s.06-.08,.09-.15l.11-.25c.05-.1,.07-.18,.07-.25,.12-.2,.18-.43,.18-.69-.36,.39-.54,.83-.54,1.33l.09,.1Zm.36-16.11l.09-.1v-.79c-.06,.26-.09,.56-.09,.88Zm.54,18.02s-.05-.02-.07-.07-.02-.2-.02-.47l.09,.15v.39Zm.09-5.45l.09-.1v-.59c-.06,0-.09,.23-.09,.69Zm.41-2.01c.18,0,.3-.43,.36-1.28l-.27,.59-.09,.69Zm.54,3.24s.09-.11,.18-.34l.09-.39-.09-.1c-.18,0-.27,.18-.27,.54,0,.2,.03,.29,.09,.29Zm0-5.35l.09-.1v-.49l-.09-.1v.69Zm.18-1.08s.06-.18,.09-.54l-.09,.2v.34Zm.27-.83v-.59h.09l-.09-.1c-.06,0-.09,.1-.09,.29l.09,.39Zm.27-1.82s.08-.02,.16-.07,.11-.19,.11-.42l-.09-.29c-.06,.07-.12,.15-.18,.25s-.09,.21-.09,.34,.03,.2,.09,.2Zm.36-1.37v-.44h0c-.06,.13-.09,.26-.09,.39,0,.03,.03,.05,.09,.05Zm.32,1.18l.36-.79,.27-1.33c-.06,.29-.18,.56-.36,.79-.09,.1-.16,.21-.2,.34s-.07,.46-.07,.98Zm.27-1.72l.09-.1v-.49l-.09-.1v.69Zm.54-1.37c.18,0,.27-.54,.27-1.62l-.09-.29-.27,1.52c0,.26,.03,.39,.09,.39Zm.45-.29s0-.06,.02-.07,.03-.04,.05-.07,.05-.08,.11-.15,.09-.15,.09-.25l-.18-.1c-.12,0-.18,.1-.18,.29,0,.13,.03,.25,.09,.34Z"/><path class="b" d="M64.68,80.78h-1.85c-1.08,0-2.05-.25-2.91-.74s-1.55-1.01-2.1-1.55-.86-.89-.95-1.06c-.9-1.28-1.35-3.01-1.35-5.21,0-1.31,.18-2.62,.54-3.93,.51-1.64,.83-2.54,.95-2.7l.45-1.23,3.43-6.73c.69-1.21,1.31-2.14,1.85-2.8l1.35-2.01c.48-.52,.81-.84,.99-.96s.35-.2,.5-.27c.87-.46,1.52-.72,1.94-.79,.78-.13,1.58-.2,2.39-.2,.75,0,1.52,.43,2.32,1.28s1.36,1.83,1.69,2.95l.18,1.57c0,1.57-.62,3.37-1.85,5.4-.18,.33-1.71,2.11-4.6,5.35-1.44,1.64-2.23,2.46-2.37,2.46s-.4,.16-.79,.49c-.15,.16-.32,.3-.52,.42s-.34,.17-.43,.17c-.33,0-.54,.07-.63,.2-.39,0-.85-.18-1.37-.54s-.89-.73-1.08-1.1-.34-.56-.43-.56c-.18,0-.38,.52-.59,1.57s-.32,2.18-.32,3.39c0,2.88,.68,4.32,2.03,4.32s2.73-.43,3.97-1.28l.54-.34c1.02-.59,1.79-1.13,2.3-1.62,.39-.39,.68-.59,.86-.59l.18,.1c0-.43,.12-.65,.36-.69l.36,.1-.09-.1c0-.23,.69-.88,2.07-1.96l1.08-.88,.09,.1-.27,.59c0,.16,.03,.25,.09,.25,.15-.16,.35-.34,.59-.54l.23-.2c1.86-1.54,2.79-2.5,2.79-2.9v-.2c.06,.07,.11,.11,.14,.12s.07,.05,.11,.1,.11,.07,.2,.07l-.18-.69,.81-.34,.18,.1c.21,0,.83-.54,1.87-1.62s1.55-1.74,1.55-1.99,.03-.45,.09-.61c.12,0,.18,.05,.18,.15l-.18,.39h.09l.18-.2c.6-.46,1.06-.88,1.37-1.25s.47-.6,.47-.66l-.09-.1-.63,.39h-.18c0,.23-.12,.46-.36,.69l-.36,.1s.11-.18,.32-.44c.93-1.08,1.68-1.77,2.25-2.06,.12-.07,.27-.2,.45-.39,0,.1-.18,.29-.54,.59-.51,.69-.77,1.1-.77,1.23,0,.29-.92,1.39-2.75,3.29-.51,.56-.86,.97-1.06,1.23s-.31,.56-.34,.88c0,.07-.06,.1-.18,.1-.06,0-.09-.07-.09-.2l.09-.1-.09-.1c-.06,0-.21,.17-.45,.52s-.36,.56-.36,.66-.29,.38-.86,.83l.68-.79c-.21,0-.47,.15-.77,.44s-.45,.51-.45,.64c-.06,.36-.12,.56-.18,.59s-.12,.08-.18,.15l.09-.54,.18-.2c-.54,.2-.81,.41-.81,.64v.05h.05s.08,.05,.23,.05l-.27,.2c-.39,0-.59,.08-.59,.25l-.09,.25,.27-.1c0,.1-.19,.32-.56,.66s-.58,.52-.61,.52l.09-.39h-.18c-.12,.1-.18,.2-.18,.29s-.14,.33-.41,.69c-.81,.95-1.37,1.42-1.67,1.42l-.18-.2h-.05c-.06,0-.12,.08-.18,.25s-.24,.38-.54,.64l-.72,.69c-.36,.23-.54,.44-.54,.64,.18,0,.8-.36,1.85-1.08l1.13-1.03c.21-.13,.65-.46,1.31-.98,.39-.39,.63-.59,.72-.59l1.13-1.03c.66-.72,1.11-1.08,1.35-1.08,.12,0,.2,0,.23-.02s.05-.12,.05-.32c.3,0,.54-.07,.72-.2s.38-.26,.59-.39c-1.02,1.15-1.67,1.72-1.94,1.72l.36-.49c-.48,.13-.72,.36-.72,.69-.06,.2-.15,.36-.27,.49l-.27-.1c-.24,0-.66,.33-1.26,.98-.21,.29-.32,.51-.32,.64l-.09-.1c-.18,0-.28,.02-.29,.05s-.02,.06-.02,.07-.02,.04-.05,.07c.03,.03,.09,.05,.18,.05,.06,.07,.09,.11,.09,.15l-.72,.29c-.27,.2-.41,.39-.41,.59v.1s-.02,.05-.05,.05c-.45,0-.92,.29-1.4,.88-.21,.23-.32,.43-.32,.59l.18,.1c.09,0,.2-.08,.34-.25s.28-.31,.43-.44c.12,0,.44-.16,.95-.47s.84-.55,.99-.71l.27-.25c.42-.36,.98-.88,1.67-1.57,1.08-.98,2.16-2.01,3.25-3.09,2.61-2.59,3.92-4.01,3.92-4.27-.09,0-.48,.36-1.17,1.08-.03,0-.15,.08-.36,.25-.72,.65-1.1,.98-1.13,.98l.18-.69-.09-.1,.18,.1c.12,0,.29-.1,.5-.29,.6-.43,.9-.82,.9-1.18,0-.1,.1-.31,.29-.64s.37-.49,.52-.49v.29c.33-.36,.56-.67,.68-.93,.06-.13,.14-.25,.23-.37s.14-.2,.14-.25,.15-.2,.45-.47c2.34-2.03,3.52-3.34,3.52-3.93v-.2l.18,.1c.12,0,.19-.06,.2-.17s.04-.19,.07-.22c.12,0,.21,.07,.27,.2,.18,.23,.27,.39,.27,.49,0,.29-.21,.75-.63,1.37s-.89,1.21-1.4,1.77l-.81,1.08c-.42,.69-1.17,1.67-2.25,2.95-2.79,3.31-4.97,5.61-6.54,6.92l-2.03,1.82c-1.38,1.31-3.16,2.73-5.34,4.25s-3.96,2.41-5.34,2.68Zm-8.11-8.54c.12,0,.18-.16,.18-.49l-.09-.2-.09,.1h.09l-.09,.59Zm.36,0c.51-3.57,1.13-5.75,1.85-6.53l.36-.49c0-.13-.09-.25-.27-.34-.27,0-.54,.39-.81,1.18-.15,.46-.23,.74-.23,.83l-.27,.44c-.12,.1-.21,.34-.27,.74-.03,.07-.09,.69-.18,1.87l-.18,2.31Zm.27,3.44l.09-.15-.27-.79c0,.39,.06,.7,.18,.93Zm1.76-11c.06,0,.14-.04,.23-.12s.14-.19,.14-.32v-.27s.05-.07,.16-.07,.2-.06,.27-.17,.11-.22,.11-.32c0-.23,.09-.48,.27-.76s.38-.5,.59-.66l1.26-2.5c.27-.52,.41-.87,.41-1.03-.12,0-.29,.15-.52,.44s-.34,.52-.34,.66-.06,.22-.18,.22-.18,.07-.18,.22-.22,.56-.65,1.23-.83,1.34-1.19,2.01-.54,1.12-.54,1.35l.18,.1Zm.68-.98h-.05l-.09-.1v-.1l.14-.2h.05l.09,.2c0,.13-.05,.2-.14,.2Zm1.44,3.29l.18-.1c.12-.13,.32-.2,.61-.2s.49-.07,.61-.2c0-.07,.12-.1,.36-.1,0-.1,.59-.8,1.76-2.11,2.07-2.19,3.11-3.39,3.11-3.58s.17-.41,.5-.64l1.08-1.72c.63-1.21,.95-2.41,.95-3.58,0-.62-.11-1.23-.32-1.82,0-.2-.06-.29-.18-.29-.09,0-.27,.15-.54,.44s-.47,.44-.59,.44-.23,.16-.32,.49c-.27,.46-.5,.74-.68,.83-.36,.13-.54,.25-.54,.34s-.28,.52-.83,1.25-.83,1.14-.83,1.2-.19,.3-.56,.71-.68,.86-.92,1.35-.38,.74-.43,.74-.09,.03-.14,.1-.07,.12-.07,.17-.21,.43-.63,1.15l-.68,.88-.63,1.42c-.42,.65-.63,1.23-.63,1.72,0,.69,.12,1.05,.36,1.08Zm1.4-8.74c.18,0,.27-.07,.27-.22s.06-.24,.18-.27c.06-.2,.09-.39,.09-.59l-.09,.2c-.36,.49-.54,.79-.54,.88h.09Zm5.14,3.73c.09-.07,.3-.31,.63-.74l.68-.83c.75-.95,1.13-1.51,1.13-1.67l.45-.79c.54-.98,.81-2.1,.81-3.34,0-.59-.09-1.11-.27-1.57l-.36-.64h-.18c.18,.52,.27,1.1,.27,1.72,0,1.77-.27,3.13-.81,4.08l-.27,.44c-.66,1.21-1.19,2.05-1.58,2.5l-.68,.83h.18Zm2.7,14c.18-.1,.27-.23,.27-.39,0-.03-.05-.05-.14-.05s-.17,.05-.23,.15-.09,.2-.09,.29h.18Zm2.48-4.67h-.09c.15-.13,.27-.33,.36-.59l.05-.2c.39-.52,.87-.79,1.44-.79-.96,1.05-1.55,1.57-1.76,1.57Zm.72-.79l.18-.1c.27-.16,.41-.29,.41-.39-.09,0-.17,.03-.23,.1s-.12,.12-.18,.17-.1,.09-.11,.12-.04,.07-.07,.1Zm1.13,.2c.18,0,.27-.16,.27-.49-.03,.03-.05,.09-.07,.17s-.11,.12-.29,.12l-.18-.1s.05,.07,.05,.1,0,.07,.02,.12,.08,.07,.2,.07Zm-.18-1.28c0-.1,.14-.26,.41-.49,.63-.69,1.02-1.03,1.17-1.03,.06,0,.09,.03,.09,.1-.15,.29-.38,.59-.68,.88-.45,.36-.78,.54-.99,.54Zm2.52-1.62c.15-.03,.32-.2,.5-.49-.06,.03-.11,.05-.16,.05s-.09,.02-.14,.05-.1,.06-.16,.07-.09,.11-.09,.27c0,.03,.02,.05,.05,.05Zm.59-1.03l.14-.2,.36-.1v.1l-.5,.2Zm1.22-1.08l.09-.2,.27-.29c.06,0,.09,.03,.09,.1l-.45,.39Zm0,2.7l.45-.59h.09s0,.07-.02,.1-.05,.1-.11,.2-.2,.2-.41,.29Zm.86-.69h-.14c.27-.16,.41-.38,.41-.64-.06,.03-.12,.05-.18,.05s-.14,.02-.25,.07-.22,.12-.34,.22c0-.13,.13-.26,.38-.39s.38-.27,.38-.42,.05-.27,.14-.37,.23-.15,.41-.15c0,.1-.09,.26-.27,.49l-.18,.39,.36-.2,.09,.1c0,.1-.09,.28-.27,.54-.18,0-.31,.05-.38,.15s-.13,.15-.16,.15Zm.09-2.85c-.15,0-.23-.07-.23-.2s.08-.2,.23-.2l.09,.2-.09,.2Zm.63-.88v-.29l.18-.39v.39c0,.2-.06,.29-.18,.29Zm.81,1.62h-.09c0-.13,.08-.28,.23-.44l.14-.2c.36-.33,.59-.49,.68-.49,0,.1-.15,.34-.45,.74-.06,.07-.12,.12-.18,.17l-.18,.15c-.06,.05-.11,.07-.14,.07Zm1.22-2.31v-.1c0-.23,.18-.41,.54-.54-.06,.07-.11,.13-.16,.2s-.1,.16-.16,.27-.14,.17-.23,.17Zm1.4-2.21l.09-.25,.36-.29c.06,0,.09,.03,.09,.1-.09,.03-.16,.07-.2,.1s-.1,.07-.16,.12-.12,.12-.18,.22Zm2.21-3.04v-.1c0-.2,.09-.33,.27-.39l.09-.1c-.09,.26-.21,.46-.36,.59Z"/><path class="b" d="M90.37,82.2c-.36,0-.66-.03-.9-.1-1.5-.43-2.67-1.04-3.49-1.84s-1.4-1.72-1.74-2.75-.5-2.05-.5-3.07c0-1.08,.11-2.13,.32-3.14l.09-.44c.18-.79,.36-1.51,.54-2.16s.29-1.21,.32-1.67c.06-1.83,1.38-6.63,3.97-14.39l2.66-7.96c.24-.56,.44-.83,.59-.83l-.63,1.82c-1.23,3.57-1.85,5.63-1.85,6.19,0,.03,.03,.08,.09,.15h.09l-.09,.39-.36-.1s-.1,.06-.2,.17-.16,.22-.16,.32c0,.03,.09,.05,.27,.05v.1l-.18,.1c-.18,.23-.27,.39-.27,.49,0,.07,.03,.13,.09,.2s.09,.13,.09,.2h-.27c-.06,0-.09,.03-.09,.1l.27,.59-.18-.1c-.09,0-.23,.23-.41,.69s-.35,.97-.5,1.52-.23,1-.23,1.33l.18,.59-.09,.1-.18-.2c-.15,0-.33,.46-.54,1.37-.06,.16-.1,.27-.11,.32s-.1,.63-.25,1.74l.09,.98c-.09-.16-.2-.29-.32-.39-.09,0-.17,.11-.23,.34-.12,.52-.18,.84-.18,.96s-.02,.19-.05,.22l-.27,2.01,.05-.05s.05-.07,.05-.12,.02-.11,.05-.2,.05-.16,.07-.25,.04-.16,.07-.22c.21-.85,.39-1.28,.54-1.28,.36,0,1.16-1.8,2.39-5.4l.86-3.04,5.81-16.3c.09,0,1.61-3.47,4.55-10.41,.27-.62,.44-.97,.5-1.03s.14-.2,.23-.39c.18-.36,.27-.64,.27-.83l-.09,.1-.18-.1c0-.2,.07-.29,.2-.29s.29-.13,.47-.39l.05-.1c.15-.2,.29-.49,.41-.88s.71-1.69,1.76-3.9,1.65-3.38,1.78-3.51,.2-.27,.2-.42,.02-.24,.05-.27l.09-.1h.05c.06,0,.2-.18,.41-.54,.06-.13,.15-.28,.27-.44,.36-.59,.54-.96,.54-1.1s.08-.31,.25-.49,.34-.42,.52-.71c.12-.33,.29-.63,.5-.91s.32-.56,.32-.83,.05-.42,.16-.42,.17-.02,.2-.05c.24-.07,.36-.23,.36-.49l-.09-.34s-.18,.15-.45,.44c-.18,.2-.39,.29-.63,.29l.09,.29c0,.1-.11,.26-.32,.49-.39,.36-1.31,1.6-2.75,3.73l-.9,1.72c-.39,.79-.68,1.18-.86,1.18,0-.13,.04-.23,.11-.29s.14-.13,.2-.2,.09-.11,.09-.15v-.25l-.41,.1c-.24,.29-.36,.52-.36,.66s-.09,.4-.27,.76c-.18,.2-.33,.29-.45,.29l1.04-2.21c.66-1.41,1.07-2.22,1.22-2.43s.23-.42,.23-.61,.07-.34,.2-.42,.31-.37,.52-.86c.6-1.28,1.34-2.39,2.21-3.34,.72-.82,1.16-1.49,1.31-2.01,.03-.2,.07-.36,.11-.49s.25-.25,.61-.34,.71-.2,1.04-.29c.54,0,.96,.13,1.26,.39,.21,.16,.44,.25,.68,.25h1.22c0-.13,.03-.2,.09-.2,.12,0,.35,.2,.68,.59,.84,1.28,1.26,2.01,1.26,2.21-.06,.07-.14,.1-.23,.1s-.14,.1-.14,.29c0,1.47-.81,4.37-2.43,8.69-3.43,8.94-7.33,17.87-11.72,26.81-1.83,3.7-2.91,5.55-3.22,5.55s-1.12,1.36-2.41,4.08-1.94,4.17-1.94,4.37-.06,.34-.18,.44c-.24,.16-.39,.41-.45,.74,0,.1-.17,.44-.5,1.03l-.18,.39c-.3,.56-.62,1.21-.95,1.96-1.14,2.36-1.71,3.75-1.71,4.17-.06,1.28-.39,2-.99,2.16-.03,.03-.08,.05-.14,.05s-.17,.52-.32,1.57c-.27,2.32-.41,4.01-.41,5.06,0,.62,.03,.97,.09,1.03h.09c1.74-.92,2.61-1.59,2.61-2.01l.18,.1c.39,0,1.58-1.11,3.56-3.34,.99-1.08,1.53-1.62,1.62-1.62l-.09,.25c-.21,0-.32,.07-.32,.2,0,.2,.08,.29,.23,.29,.27,0,.41-.07,.43-.2s.05-.23,.11-.29h.27v-.15c0-.13-.04-.2-.11-.2s-.14-.05-.2-.15-.11-.18-.14-.25c0-.2,.03-.29,.09-.29,.06,.13,.15,.2,.27,.2l.23-.1v.2c0,.16,.05,.29,.14,.39,0-.03,0-.06,.02-.07s.1-.02,.25-.02c0-.36,.06-.56,.18-.59h.18c0,.2-.03,.39-.09,.59,.09,0,.18-.1,.27-.29v-.2l.14,.29c0,.13-.06,.29-.18,.49-.03,0-.05,.02-.05,.05-.18,.26-.37,.47-.56,.64s-.31,.25-.34,.25c0-.13,.15-.36,.45-.69,.12-.13,.18-.25,.18-.34l-.09,.1c-.51,.69-.97,1.18-1.37,1.47s-.68,.47-.81,.54-.2,.11-.2,.15l.18-.15,.09,.25c0,.13-.03,.2-.09,.2h-.05c-.09,0-.14,.1-.14,.29l.09,.2h-.36c-.12,0-.18,.03-.18,.1,0,.03,.04,.11,.11,.22s.19,.17,.34,.17c.18,0,.27-.13,.27-.39l.18-.29c.18,0,.29-.02,.34-.07s.08-.08,.11-.1,.11-.07,.25-.17,.24-.15,.32-.15,.11-.07,.11-.2,.23-.44,.68-.93c3.64-3.96,6.23-7.28,7.8-9.97,.42-.72,.68-1.08,.77-1.08l.09,.1c0,.46-.07,.79-.2,1.01s-.2,.42-.2,.61c0,.59-.35,1.46-1.04,2.6-.45,.65-.68,1.18-.68,1.57,0,.1-.07,.15-.2,.15s-.2,.13-.2,.39c-.42,0-.63,.16-.63,.49l.09,.2c0,.1-.15,.39-.45,.88l-.41,.59-.59,.98-.9,1.28c0,.07-.12,.28-.36,.64-.12,.2-.2,.32-.25,.37s-.08,.09-.09,.12l-.05,.1s-.03,.06-.05,.07-.05,.06-.09,.12-.08,.13-.11,.2h.09c0,.1-.05,.2-.14,.32s-.2,.17-.32,.17c-.06,.2-.17,.4-.34,.61s-.25,.42-.25,.61h-.23l-.59,.79s-.12,.16-.36,.39c-2.76,3.57-5.2,5.35-7.3,5.35Zm-5.14-3.14c.06,0,.09-.07,.09-.2l-.18-.39c-.45-.59-.68-1.77-.68-3.54,0-.65,.06-1.11,.18-1.37,.06,0,.11,.44,.14,1.33,.09,1.11,.15,1.67,.18,1.67l.18-.79-.09-.83c.18,0,.29-.11,.32-.32s.05-.71,.05-1.5c.06-.1,.09-.27,.09-.52s.08-.5,.23-.76,.23-.54,.23-.83c0-.1-.05-.2-.14-.32s-.2-.2-.32-.25-.23-.07-.32-.07-.17-.02-.23-.05c-.09,0-.14,.02-.16,.07s-.04,.09-.07,.12-.05,.07-.05,.1-.02,.07-.05,.1c-.18,1.8-.27,3.24-.27,4.32,0,1.57,.11,2.64,.34,3.19s.4,.83,.52,.83Zm1.08-2.5l.05-.25c.03-.23,.05-.56,.05-.98,0-.75,.17-1.57,.5-2.46,.24-.65,.36-1.21,.36-1.67-.06-.2-.18-.29-.36-.29-.12,0-.24,.2-.36,.59-.18,.69-.29,1.8-.32,3.34l.09,1.72Zm.68-14.49s-.06-.1-.09-.29l.09-.39c.12,.03,.18,.13,.18,.29,0,.13-.06,.26-.18,.39Zm1.26,10.07v-.1c0-.13-.06-.2-.18-.2l-.18,.1v.05c0,.07,.06,.11,.18,.15h.18Zm-.18,2.31v-.1c0-.26-.03-.39-.09-.39l-.09,.2,.18,.29Zm.09-17.29v-.1c0-.13,.17-.51,.5-1.13-.15,.82-.32,1.23-.5,1.23Zm1.13,3s.06,0,.09-.02,.08-.05,.16-.1,.11-.11,.11-.17-.02-.1-.05-.1c-.21,0-.32,.13-.32,.39Zm.99-4.12c.24-.03,.5-.43,.77-1.18,.12-.36,.21-.54,.27-.54,.03,.03,.05,.07,.05,.12s0,.11,.02,.17,.05,.11,.09,.15,.07,.06,.07,.07,.02,.02,.05,.02c.12,0,.18-.18,.18-.54,0-.13,.02-.22,.05-.27s.06-.08,.09-.1,.08-.06,.14-.12l-.18-.69,.09-.1,.36,.29,.14-.2-.14-.49c.03-.1,.08-.2,.16-.29s.53-1.24,1.37-3.44c.39-1.01,.61-1.54,.65-1.57s1.46-3.58,4.26-10.66,4.19-10.66,4.19-10.75,.03-.15,.09-.15,.17-.08,.32-.25c.27-.36,.41-.65,.41-.88s.14-.57,.43-1.03,.43-.88,.43-1.28c0-.13,0-.21,.02-.25s.07-.05,.16-.05,.15-.02,.18-.05v-.05c0-.07,.17-.41,.5-1.03,.48-.85,.72-1.37,.72-1.57,.3-.56,.57-1.13,.81-1.72,.21-.72,.44-1.1,.68-1.13,.03-.03,.05-.1,.05-.2,0-.23-.06-.36-.18-.39-.45,0-1.59,1.92-3.43,5.75s-3.81,8.26-5.93,13.28-3.98,9.62-5.59,13.8-2.41,6.57-2.41,7.19l.09,.1Zm.09,1.03c.27,0,.41-.25,.41-.74-.15,0-.32,.21-.5,.64,0,.07,.03,.1,.09,.1Zm.23-7.17c-.06,0-.09-.03-.09-.1,0-.03,.02-.12,.05-.27s.08-.22,.14-.22l.09,.2-.18,.39Zm.54,6.53c.12-.03,.18-.1,.18-.2l-.09-.1c-.18,0-.27,.07-.27,.2,0,.07,.02,.1,.05,.1h.14Zm.14-.69l.23-.1c-.06-.13-.18-.2-.36-.2,0,.2,.05,.29,.14,.29Zm.86-12.28l.09-.59,2.7-6.04c-1.35,3.34-2.03,5.12-2.03,5.35,0,.07-.11,.29-.32,.69s-.36,.59-.45,.59Zm.5,.69v-.1h-.09v-.49c.12,0,.18,.13,.18,.39l-.09,.2Zm1.08,9.28l.23-.1c.21-.13,.32-.31,.32-.54,0-.1-.03-.15-.09-.15-.03,0-.06,0-.09,.02s-.08,.06-.16,.12-.14,.14-.18,.22-.08,.15-.09,.2-.02,.09-.02,.12c0,.07,.03,.1,.09,.1Zm0-12.18v-.1c0-.2,.04-.3,.11-.32s.13-.04,.16-.07l-.09,.39-.18,.1Zm.09,13.5s.08-.05,.16-.15,.11-.2,.11-.29c0-.07-.03-.1-.09-.1-.03,0-.05,0-.05,.02s-.02,.05-.07,.1-.08,.1-.09,.15-.02,.1-.02,.15-.02,.09-.05,.12h.09Zm.36,22.69c.21,0,.38-.07,.5-.22s.18-.27,.18-.37c-.03,0-.06,0-.09,.02s-.08,.05-.16,.1-.17,.12-.27,.22-.16,.18-.16,.25Zm.59-24.01l-.09-.1c0-.07,.12-.25,.36-.54,.36-.49,.57-.95,.63-1.37l-.09-.2c-.27,.29-.53,.45-.79,.47s-.38,.22-.38,.61c.06-.07,.14-.16,.23-.29s.2-.2,.32-.2l.09,.1c-.36,.59-.54,1-.54,1.23,0,.1,.03,.17,.09,.22s.12,.07,.18,.07Zm.81-16.89l.09-.69h-.09l-.54,.69-.09-.1c.15-.33,.23-.53,.23-.61s.17-.45,.5-1.1l.09,.98-.09,.74-.09,.1Zm-.63,14.88s.07-.03,.11-.1,.08-.12,.11-.17,.06-.13,.09-.25,.05-.2,.05-.27c-.09,0-.21,.26-.36,.79Zm.36,25.04c.09,0,.47-.34,1.13-1.03l.45-.59c-.24,.16-.47,.34-.7,.54s-.43,.4-.61,.61-.27,.37-.27,.47Zm.54-25.44c.09,0,.29-.33,.59-.98,.21-.43,.42-.8,.63-1.13l.27-.64-.09-.59c0-.1,0-.17,.02-.22s.13-.27,.34-.66l-.18,.88s.08-.02,.14-.07,.12-.11,.18-.17c.45-.43,.75-.92,.9-1.47,.45-.75,.74-1.22,.88-1.4s.2-.34,.2-.49,.05-.22,.14-.22c.09-.1,.14-.19,.16-.27s.05-.15,.09-.2,.09-.11,.14-.17,.28-.49,.7-1.28,.63-1.21,.63-1.28c-.03,0-.08,.04-.14,.12s-.14,.17-.23,.27c-.24,.26-.47,.57-.68,.93-.6,.98-.9,1.54-.9,1.67,0,.29-.21,.65-.63,1.08-.18,.16-.33,.25-.45,.25l.27-.49c.36-.49,.54-.83,.54-1.03,0-.13-.09-.2-.27-.2-.15,0-.29,.05-.43,.15s-.2,.21-.2,.34l.09,.2-.09,.44v-.54c0-.79,.33-1.44,.99-1.96,.21-.16,.39-.25,.54-.25,0,.13-.12,.2-.36,.2-.24,.16-.36,.31-.36,.44l.09,.1h.18l.09-.1,.09,.1c-.12,.13-.23,.2-.32,.2s-.2,.07-.32,.2v.29c.12,0,.34-.17,.65-.52s.63-.77,.95-1.28,.55-1.02,.7-1.55c.03-.1,.17-.34,.41-.74,1.2-1.93,1.8-3.09,1.8-3.49h-.36c.21-.46,.36-.69,.45-.69v.49c.12,0,.44-.57,.95-1.72,.18-.39,.35-.7,.5-.93s.26-.34,.32-.34c0,.16-.15,.52-.45,1.08l-.27,.69c-.57,1.51-.93,2.26-1.08,2.26s-.23,.13-.23,.39l-.27,.59c-.6,.85-.9,1.42-.9,1.72,0,.13,.03,.2,.09,.2,.09,0,.3-.26,.63-.79,.06-.2,.54-1.16,1.44-2.9,1.68-3.37,2.52-5.16,2.52-5.35l-.18-.1-.45,.98c-.3,.69-.5,1.03-.59,1.03l-.09-.39,.09-.64-.09-.29c0-.07,.03-.1,.09-.1,.21,0,.48-.33,.81-.98,.21-.36,.35-.54,.41-.54l.09,.1s.06-.26,.09-.79l.09-.2-.09-.1-.27,.2c0-.13,.08-.23,.23-.29h.23l.36-.59c.51-.65,.77-1.16,.77-1.52l-.27-.59v-.15c.27,0,.48,.11,.63,.34,.03,.13,.08,.2,.14,.2,.09,0,.14-.1,.14-.29v-1.03c0-.33,.08-.61,.25-.83s.34-.34,.52-.34v.39h.09c.27-.29,.86-1.62,1.76-3.98,.96-2.49,1.44-4.01,1.44-4.57l-.09-.2c.75-2.46,1.13-4.04,1.13-4.76-.09,0-.18,.25-.27,.74-.12,.79-.27,1.42-.45,1.92-.09,.26-.16,.52-.2,.76s-.09,.41-.14,.49-.07,.14-.07,.17c-.06,.16-.11,.29-.16,.37s-.08,.15-.09,.2-.02,.16-.02,.34-.02,.38-.05,.61l-.05,.15c-.24,.82-.42,1.23-.54,1.23-.03,0-.05,0-.05-.02s-.02-.04-.07-.07-.07-.08-.07-.15c0-.1,.09-.26,.27-.49l.05-.39c.12-.62,.32-1.41,.59-2.36l.36-1.52c.12-.49,.18-.83,.18-1.03l-.09-.2c-.15,0-.33,.15-.54,.44-.6,.69-.98,1.31-1.13,1.87-.03,.07-.05,.14-.07,.22s-.03,.14-.05,.17-.02,.06-.02,.07-.02,.02-.05,.02l-.27-.2,.18,.59-.09,.1h-.18l.09,.59c0,.16-.03,.25-.09,.25s-.09,.03-.09,.1l.09,.39-.07,.07s-.34,.99-.97,2.92c-.3,.95-.53,1.42-.68,1.42-.03,0-.05-.07-.05-.2,0-.33,.06-.49,.18-.49,0-.95,.04-1.42,.11-1.42s.32-.56,.74-1.69,.63-1.87,.63-2.23l-.09-.1c-.36,0-2.09,3.26-5.18,9.77-1.32,2.46-2.18,4.19-2.57,5.21l-1.49,3.54c-.96,2.06-1.71,3.92-2.23,5.57s-.79,2.64-.79,2.97c.09,0,.27-.41,.54-1.23l.18-.2h.09c-.33,1.41-.66,2.11-.99,2.11-.03,0-.05-.02-.07-.05s-.04-.06-.07-.07-.05-.04-.05-.07l.09-.39s-.05,0-.07,.02-.05,.05-.11,.1-.13,.13-.2,.25-.11,.19-.11,.22,0,.05,.02,.05,.04,.02,.07,.07,.08,.07,.14,.07,.11,.02,.14,.05,.05,.11,.05,.25c0,.72-.41,1.8-1.22,3.24,0,.2,.03,.34,.09,.44,.09,.29,.18,.44,.27,.44-.33,0-.51-.03-.54-.1-.06,1.21-.24,1.82-.54,1.82l-.14-.1c-.06,0-.09,.1-.09,.29s-.03,.43-.09,.69l-.36,1.23,.27-.29c.24-.59,.44-.88,.59-.88,0,.39-.29,1.06-.86,2.01l.18,.2Zm0-16.6h-.09c.6-1.64,.98-2.54,1.13-2.7,.06,0,.09,.07,.09,.2,0,.2-.05,.37-.14,.52s-.17,.29-.23,.42c-.33,1.05-.59,1.57-.77,1.57Zm.95,14.09s-.05,0-.07-.02-.02-.09-.02-.22l.18-.39,.09,.2-.18,.44Zm.18,6.24c-.06,0-.09-.02-.09-.05v-.2l.18-.39,.09,.1c0,.2-.06,.38-.18,.54Zm.45-22.93c-.12,0-.18-.1-.18-.29,0-.29,.15-.87,.45-1.72,.81-1.83,1.31-2.75,1.49-2.75,0,.26-.24,.83-.72,1.72-.63,1.15-.95,1.88-.95,2.21,0,.16,.09,.33,.27,.49,0,.03,0,.07-.02,.1s-.05,.08-.09,.15-.13,.1-.25,.1Zm0,14.34l-.18-.49h.18c.12,0,.24-.11,.36-.34s.18-.47,.18-.74l-.09-.54,.59,.34s-.02,.09-.05,.17-.08,.2-.16,.37-.16,.3-.25,.42-.17,.24-.23,.37c-.15,.26-.27,.41-.36,.44Zm0-3.09s.06-.04,.09-.12,.07-.16,.11-.22,.08-.16,.11-.27,.05-.2,.05-.27c-.15,0-.24,.07-.27,.2l-.18,.69h.09Zm-.09,27.25l.54-.69v.1c-.15,.26-.33,.46-.54,.59Zm.72-24.06c-.12,0-.18-.03-.18-.1,0-.03,0-.07,.02-.1s.05-.07,.09-.12,.1-.07,.16-.07l.14,.1-.23,.29Zm.32,24.06h-.18s-.05-.07-.05-.2l.23-.39h.09c.06,0,.09,.07,.09,.2,0,.2-.06,.33-.18,.39Zm-.09-40.02v-.2c0-.2,.04-.3,.11-.32s.13-.04,.16-.07c-.03,.07-.05,.15-.07,.25s-.08,.21-.2,.34Zm.09,12.57h-.09s.02-.12,.05-.27,.08-.22,.14-.22l.09,.2c0,.1-.06,.2-.18,.29Zm.54,26.76c-.12,0-.18-.05-.18-.15,0-.16,.06-.35,.18-.56s.23-.32,.32-.32,.32-.29,.68-.88c0,.36-.03,.59-.09,.69h.09v.1c-.15,.29-.26,.45-.32,.47s-.26,.02-.59,.02l.09,.44-.18,.2Zm.18,.2c0-.13,.04-.27,.11-.42s.13-.22,.16-.22c.12,0,.18,.03,.18,.1l-.45,.54Zm.18-43.26v-.1c0-.36,.51-1.49,1.53-3.39,.39-.75,.71-1.47,.95-2.16l.77-1.28c0,.26-.12,.65-.36,1.18l-.32,1.33-.36-.1c-.06,0-.09,.1-.09,.29s-.07,.34-.2,.44-.31,.49-.52,1.18c-.57,1.08-.86,1.65-.86,1.72,0,.1,.03,.2,.09,.29l.18-.1c.09,0,.14,.07,.14,.2-.03,.03-.05,.05-.07,.05s-.05,.02-.09,.07-.08,.07-.11,.07c-.27,0-.5,.1-.68,.29Zm.45,14.78c-.12,0-.18-.16-.18-.49l-.11,.12s-.1,.14-.16,.27c0-.2,.02-.36,.05-.49,.06-.33,.17-.49,.32-.49,.03,.03,.05,.07,.05,.12s0,.11,.02,.17,.04,.1,.07,.1c.09,0,.17-.05,.23-.15s.11-.18,.14-.25c.12-.26,.18-.47,.18-.64l-.09-.1c-.12,.03-.23,.1-.32,.2-.06,0-.15-.23-.27-.69,.03,0,.08,.05,.14,.15s.14,.15,.23,.15c.09-.03,.16-.07,.2-.12s.08-.08,.11-.1,.06-.04,.09-.07v.29c0,.1,.06,.15,.18,.15,.18,.1,.27,.25,.27,.44h-.27v.44c0,.46-.12,.69-.36,.69-.06,.03-.13,.06-.2,.07s-.17,.09-.29,.22Zm.59,27.06c-.06,0-.09-.03-.09-.1l.18-.39,.09,.1c0,.2-.06,.33-.18,.39Zm.18-34.18l.09-.2-.09-.34-.09,.25,.09,.29Zm0-8.99s.05-.17,.14-.42,.17-.37,.23-.37,.09,.03,.09,.1l-.45,.69Zm.09,45.77l.18-.29c0-.13-.06-.2-.18-.2-.06,0-.09,.1-.09,.29,0,.13,.03,.2,.09,.2Zm.54-33.39h-.09c0-.33,.06-.49,.18-.49,.06,0,.09,.07,.09,.2l-.18,.29Zm.09-14.04c0-.1,0-.17,.02-.22s.1-.12,.25-.22l.09-.1,.09,.1c0,.16-.05,.28-.16,.34s-.2,.1-.29,.1Zm.27,13.16l.09-.39,.27-.29-.09-.1-.18,.1-.09-.1c0-.16,.07-.25,.2-.25s.44-.34,.92-1.03c.24-.43,.39-.64,.45-.64l-.72,1.42c-.24,.49-.43,.83-.56,1.01s-.23,.27-.29,.27Zm.36,3.54c.09,0,.17-.07,.23-.22s.09-.32,.09-.52l-.09-.2c-.15,0-.26,.08-.32,.25s-.09,.36-.09,.59l.18,.1Zm-.09,27.25v-.2c0-.23,.03-.34,.09-.34,.03,.03,.08,.06,.14,.07s.09,.07,.09,.17c0,.07-.04,.11-.11,.15s-.14,.08-.2,.15Zm.63-45.96h-.14c0-.29,.06-.44,.18-.44l.09,.25c0,.13-.05,.2-.14,.2Zm1.49,10.46l-.18-.29c0-.13,.04-.22,.11-.27s.14-.09,.2-.12,.12-.05,.18-.05c.12,0,.18,.03,.18,.1,0,.03-.02,.08-.07,.15s-.09,.16-.14,.29-.14,.2-.29,.2Zm.23-14.88s.08-.04,.14-.12,.14-.17,.23-.27c.18-.23,.27-.37,.27-.42s.18-.4,.54-1.06c.57-1.08,.86-1.67,.86-1.77-.09,0-.34,.28-.74,.83s-.65,1.05-.74,1.47l-.09,.2c-.15,.2-.28,.37-.38,.52s-.16,.29-.16,.42,.03,.2,.09,.2Zm.27,19.99l.27-.2c.12-.03,.18-.13,.18-.29l-.09-.1s-.06,.06-.09,.07-.06,.04-.09,.07-.07,.08-.11,.15-.07,.16-.07,.29Zm.18-6.24l.18-.98-.09-.29,.18-.15h.45l-.72,1.42Zm.9-2.11l.05-.2c.21-.46,.39-.69,.54-.69l-.59,.88Zm.86-1.52v-.1c0-.2,.09-.43,.27-.69s.27-.59,.27-.98h.18c.18,0,.42-.72,.72-2.16,.06-.26,.11-.39,.14-.39v.64l.27-.54h.09c0,.26-.28,1.03-.83,2.31s-.92,1.92-1.1,1.92Zm.09-14.14s.09-.07,.18-.2c.24-.26,.39-.54,.45-.83-.15,0-.36,.34-.63,1.03Zm.81,16.79c.12,0,.18-.07,.18-.2s-.06-.21-.18-.25l-.18,.25v.1l.18,.1Zm.18-.83c.06,0,.33-.43,.81-1.28,.15-.29,.26-.47,.32-.54,.18-.2,.27-.39,.27-.59,0-.13-.08-.2-.23-.2-.03,0-.05,.04-.05,.12s-.12,.29-.36,.61c-.57,.82-.86,1.39-.86,1.72,0,.1,.03,.15,.09,.15Zm.86-16.7h-.09l-.09-.1c.03-.13,.15-.2,.36-.2l-.18,.29Zm.18,17.09s.08-.04,.16-.12,.11-.2,.11-.37l-.09-.1c-.15,.13-.24,.29-.27,.49l.09,.1Zm.09-7.12h-.09c0-.33,.06-.49,.18-.49,.06,0,.09,.03,.09,.1,0,.2-.06,.33-.18,.39Zm.81,2.8s.07-.04,.11-.12,.07-.15,.07-.2,.02-.11,.05-.2,.05-.17,.05-.27l-.09-.1s-.08,.06-.16,.07-.11,.19-.11,.52c0,.2,.03,.29,.09,.29Zm.59-2.21v-.1c0-.2,.54-1.77,1.62-4.71,.21-.46,.35-.69,.41-.69s.09,.07,.09,.2c0,.2-.03,.43-.09,.69-.21,.98-.63,2.1-1.26,3.34-.42,.85-.68,1.28-.77,1.28Z"/><path class="b" d="M110.24,80.78l-1.58-.39c-.09,0-.17-.02-.25-.05s-.32-.05-.72-.05-.73-.07-.97-.22-.57-.43-.99-.86c-1.41-1.54-2.22-2.93-2.43-4.17l-.18-.69-.18,.49s-.05-.16-.05-.49c-.09-.39-.14-1.19-.14-2.41,.18-4.42,2.24-10.15,6.17-17.19,.69-1.21,1.5-2.37,2.43-3.49s1.86-2,2.77-2.65,1.37-1.06,1.37-1.23l.18-.1,.99,.2,.36-.1c.24-.2,.41-.29,.5-.29s.17,.04,.25,.12,.11,.17,.11,.27,.05,.16,.14,.2c.03,.07,.35,.1,.95,.1,1.38,0,2.37,.8,2.97,2.41,.18,.65,.27,1.33,.27,2.01,0,1.15-.24,2.42-.72,3.83l-.95,2.7c-.06,.26-.11,.52-.16,.76s-.26,.6-.65,1.06c-.3,.56-.68,.83-1.13,.83-.33,0-.54-.1-.63-.29,0-.23-.11-.34-.34-.34s-.61-.36-1.15-1.08c0-.07,.05-.1,.14-.1s.14-.07,.14-.2l-.27-1.33c0-.13,.06-.36,.18-.69,.27-.79,.53-1.23,.77-1.33,.12-.13,.2-.32,.23-.56s.14-.73,.32-1.45,.3-1.08,.36-1.08l.09,.1-.18,.59s.05,0,.07-.02,.04-.06,.07-.12,.06-.11,.09-.15,.08-.13,.14-.29l-.18-.64,.09-.1,.09,.1,.09-.1-.09-.39c0-.23,.03-.36,.09-.39l.27,.1s-.05-.07-.07-.1-.05-.07-.11-.12-.09-.2-.09-.47l.09-.2-.09-.1-.54,.29c-.33,.1-1.01,.74-2.05,1.92s-2.09,2.47-3.15,3.88-1.8,2.52-2.19,3.34c-.21,.56-.6,1.39-1.17,2.5-.45,.95-.68,1.52-.68,1.72l.09,.2s-.1,.06-.2,.07-.35,.53-.72,1.55-.56,1.74-.56,2.16c0,.23-.02,.34-.05,.34h-.05c-.06,0-.09,.14-.09,.42s-.05,.42-.14,.42-.14,.12-.14,.37-.09,.89-.27,1.94c-.24,1.01-.36,2.32-.36,3.93,0,.92,.08,1.44,.23,1.57s.51,.2,1.08,.2c.45,0,1-.11,1.65-.34s1.1-.44,1.37-.64c.15-.1,.44-.23,.86-.39s.84-.26,1.26-.29l.32-.1c.45-.13,.84-.33,1.17-.59,.21-.16,.69-.51,1.44-1.03s1.47-1.06,2.16-1.62l.63-.49c.36-.26,.63-.48,.81-.66s.3-.28,.36-.29,.09-.04,.09-.07,0-.08,.02-.15,.05-.11,.11-.15,.11-.07,.16-.1,.1-.06,.16-.07,.12-.05,.18-.1,.14-.09,.23-.12c-.15,.52-.27,.79-.36,.79s-.18,.1-.27,.29l-.36,.74,.99-.88c.18-.2,.38-.38,.59-.54,1.8-2.03,2.76-3.04,2.88-3.04,.69-.72,1.08-1.08,1.17-1.08,0,.07-.53,.67-1.58,1.82-.51,.49-.99,1.06-1.44,1.72-.09,.1-.14,.2-.14,.29,.09,0,.27-.2,.54-.59,.18-.1,.33-.2,.45-.29,.42-.29,.64-.44,.65-.44s.06-.04,.14-.12,.13-.17,.16-.27,.08-.16,.16-.17,.19-.09,.34-.22,.63-.7,1.44-1.72l.18-.49c.09-.62,.21-.93,.36-.93,.03,0,.08,.02,.14,.05s.09,.07,.09,.12,0,.11,.02,.2,.04,.14,.07,.17c.27-.39,.53-.71,.79-.96s.41-.37,.47-.37l.09,.1-.09-.2c0-.2,.38-.7,1.13-1.52,.9-.85,1.4-1.28,1.49-1.28l-.41,.69,.09,.1,.5-.2,.09,.1c-.12,.13-.24,.2-.36,.2l-.5,.83c-.06,.26-.41,.8-1.04,1.62-.96,1.34-2.18,2.91-3.65,4.71-1.14,1.54-2.31,3.01-3.52,4.42-1.05,1.41-2.64,2.75-4.78,4.03-3.49,1.93-5.83,2.9-7.03,2.9Zm-6.67-3.83l-.09-.1c-.24-.26-.36-.7-.36-1.33l.36,.93,.09,.49Zm.23-1.42c.06,0,.09-.88,.09-2.65,0-1.57,.09-2.36,.27-2.36,.06,0,.09-.12,.09-.37s.08-.68,.23-1.3c.42-1.54,.87-2.8,1.35-3.78l.18-.88c0-.13,.12-.39,.36-.79,.15-.16,.36-.62,.63-1.37s.65-1.51,1.13-2.26l1.08-2.01c.06-.23,.25-.55,.56-.96s.47-.79,.47-1.15c.15-.33,.33-.67,.54-1.03l.27-.79-.09-.1c-.48,.49-1.49,2-3.02,4.52v-.2h-.09c-.21,.16-.32,.33-.32,.49s-.15,.47-.45,.93c-.24,.33-.36,.61-.36,.83s-.18,.72-.54,1.47c-.51,.72-.77,1.19-.77,1.42,0,.1-.09,.26-.27,.49l-.18,.29c0,.2-.14,.74-.43,1.65s-.47,1.35-.56,1.35l-.09-.1-.09,.1,.09,.34c0,.26-.04,.39-.11,.39s-.14,.03-.2,.1l.23,.69c-.06,.07-.17,.1-.32,.1l.09,.59h-.18l-.18,.34c0,.26,.02,.39,.07,.39h.09s.02,.16,.02,.49c-.12,.43-.18,1-.18,1.72s.07,1.46,.2,2.11,.26,1.08,.38,1.28Zm1.17-3.58l.09-.2v-.25l-.09-.2-.09,.25,.09,.39Zm.09-2.41l.09-.44c.03-.2,.09-.43,.18-.69l.45-1.28,.41-.93v-.1l.09,.1-.27,1.23c0,.07,.03,.1,.09,.1l.72-2.31-.45,.69h-.09c.36-1.21,.75-2.39,1.17-3.54,0-.1,.11-.31,.32-.64,.6-.92,1.05-1.37,1.35-1.37,0-.33,.14-.83,.41-1.52,.21-.46,.36-.69,.45-.69l.09,.1,.36-.2c.24-.29,.36-.49,.36-.59,0-.07-.03-.1-.09-.1-.06,.07-.18,.15-.36,.25l-.09,.05c0-.13,.15-.52,.45-1.18l1.13-1.87h-.18l-2.61,3.93c-.18,.39-.37,.83-.56,1.3s-.35,.73-.45,.76-.16,.11-.16,.25c0,.36-.06,.54-.18,.54h-.23l.09,.1-.81,2.21c-.51,1.28-.93,2.46-1.26,3.54s-.5,1.77-.5,2.06l.09,.25Zm2.61-6.33l.54-1.08c.36-.75,.54-1.18,.54-1.28-.18,.16-.35,.41-.5,.74-.39,.85-.59,1.39-.59,1.62Zm2.03-4.03l.18-.2,.18-.44c-.24,.1-.36,.31-.36,.64Zm9.01-4.96c.36-.07,.62-.67,.77-1.82l.18,.1,.18-.59,.09-1.28c0-.23-.06-.41-.18-.54-.03,0-.08,.1-.14,.29l-.05,.1c-.09,.26-.17,.61-.23,1.03-.09,.75-.21,1.26-.36,1.52-.18,.59-.27,.98-.27,1.18Zm2.21,16.3l.14-.39c0-.33,.03-.52,.09-.59h.45l.18,.1c0,.16-.29,.46-.86,.88Zm.59-1.42s.11-.12,.32-.27,.53-.42,.95-.81c-.06,.07-.13,.15-.2,.25s-.17,.2-.27,.32-.26,.23-.45,.34-.31,.17-.34,.17Zm2.39-1.57l-.05-.05s-.05-.13-.05-.29c0-.33,.03-.49,.09-.49l.45,.64-.09,.1-.18-.1-.18,.2Zm1.13-1.23l.72-1.23c.06,0,.09,.08,.09,.25,0,.13-.27,.46-.81,.98Z"/><path class="b" d="M126.38,75.13l-.09-.29c0-.33,.06-.72,.18-1.18l.09,.29c0,.29-.06,.69-.18,1.18Zm7.21,6.24l-.86-.1c-1.53-.23-2.45-.59-2.75-1.08-.18-.36-.39-.54-.63-.54-.21,0-.32,.15-.32,.44,0,.07-.03,.1-.09,.1l-.63-.54c-.42-.33-.75-.69-.99-1.08-.39-.56-.71-1.52-.95-2.9l.45,.69c.12,0,.29-.57,.5-1.72,.12-.62,.18-1.06,.18-1.3s.03-.48,.09-.71c.12,0,.18-.16,.18-.49v-.2c0-.43,.03-.72,.09-.88s.12-.25,.18-.25l.63,.29h.09v-.29l.27,.1c0,.2-.24,.29-.72,.29-.09,0-.18,.11-.27,.34,0,.2,.09,.29,.27,.29,.12,0,.24-.03,.36-.1,0,.03,0,.06-.02,.07s-.05,.05-.11,.1-.11,.09-.16,.12-.1,.09-.16,.17-.09,.19-.09,.32l.09,.49c0,.2-.05,.29-.14,.29s-.17,.03-.23,.1l.09,.25c0,.52-.06,.98-.18,1.37,0,.59,.03,.9,.09,.93,.12,0,.27-.34,.45-1.03l.18,.39c0,.23-.03,.38-.09,.47s-.1,.14-.11,.17-.04,.07-.07,.1l.09,.1h.27v.1l-.45,.49c.24,0,.45,.2,.63,.59l.09-.2c0-.49,.27-1.96,.81-4.42,.15-.49,.23-.94,.23-1.35s.15-.83,.45-1.25c.06-.07,.09-.16,.09-.29s.02-.25,.05-.34,.05-.18,.05-.25c.15-.62,.3-.94,.45-.96s.24-.25,.27-.69,.11-.71,.23-.81c.12,0,.18-.05,.18-.15v-.1c0-.13,.03-.25,.09-.34,.12,0,.18-.07,.18-.2v-.1c0-.13,.17-.67,.5-1.62s.57-1.49,.72-1.62c0-.03,.05-.11,.14-.25s.17-.29,.25-.49,.16-.43,.25-.69l.05-.1c.06-.26,.2-.59,.41-.98-.39,.43-.77,1.03-1.13,1.82s-.72,1.46-1.08,2.01c-.36,.33-.74,1.03-1.13,2.11-.45,.88-.69,1.33-.72,1.33,0-.23,.15-.74,.45-1.52,.12-.16,.18-.39,.18-.69v-.2s-.12-.05-.27-.05c0-.07,.02-.1,.05-.1,.24,0,.47-.13,.68-.39s.32-.49,.32-.69c0-.03-.17-.07-.5-.1-.18,.13-.27,.23-.27,.29s-.06,.1-.18,.1c0-.23,.21-.79,.63-1.69s.68-1.37,.77-1.4l.09,.1c-.03,.07-.05,.12-.05,.17s-.02,.11-.05,.2-.06,.15-.09,.2-.06,.09-.09,.12l.27-.2c.09-.07,.19-.22,.29-.47s.16-.47,.16-.66c.06-.46,.17-.69,.34-.69s.25-.02,.25-.05l-.09-.34c0-.1,.02-.17,.05-.22s.05-.09,.05-.12,0-.07,.02-.12,.05-.09,.11-.12,.2-.05,.41-.05l-.18-.2c0-.13,.09-.27,.27-.42s.27-.3,.27-.47l-.09-.2s.06-.05,.09-.05,.07-.02,.11-.07l.09-.1,.05-.05,.05-.05s.03-.04,.05-.07,.02-.06,.02-.07,0-.04,.02-.07,.04-.07,.07-.1c.09-.29,.3-.62,.63-.98l.5-.59v-.1l-.63,.29c-.72,.52-1.5,1.49-2.34,2.9-.3,.56-.63,.97-.99,1.23h-.36c0-.13,.27-.62,.81-1.47s1.12-1.69,1.74-2.53,1.1-1.41,1.44-1.72,.7-.65,1.06-1.01c.18-.23,.36-.41,.54-.54s.32-.2,.41-.2c.06,.07,.09,.15,.09,.25s.03,.15,.09,.15c.27,0,.77-.1,1.49-.29l.18-.1-.09-.2c0-.2,.39-.43,1.17-.69,.24-.13,.5-.2,.77-.2,.21,0,.39,.07,.54,.2,.45,.2,.86,.29,1.22,.29s.78,.29,1.26,.88c.57,.49,1.07,.74,1.49,.74,.57,0,1.31,.21,2.21,.64,.39,.23,.64,.44,.74,.64s.26,.38,.47,.54c.3,.33,.51,.59,.63,.79,.09,.39,.27,.59,.54,.59l.77-.2c0,.07,.09,.1,.27,.1,.36,0,.89-.2,1.58-.59,.54-.33,1.25-.62,2.12-.88l.63-.25s-.05-.02-.05-.05h-.14v-.05l.18-.2c.45-.2,.98-.29,1.58-.29,.27,0,.45,.03,.54,.1,0,.07-.05,.13-.16,.2s-.17,.13-.2,.2c-.24,.1-.36,.21-.36,.34l.27,.1,.95-.25c-.12,.2-.87,.58-2.25,1.15s-2.14,.86-2.28,.86-.2,.07-.2,.22-.15,.22-.45,.22c-.15,0-.38,.05-.68,.15s-.6,.28-.9,.54c1.17-.33,2.39-.72,3.65-1.18,2.13-.75,3.2-1.26,3.2-1.52,.06,.03,.13,.05,.2,.05s.17,.02,.27,.07,.2,.13,.29,.25,.14,.22,.14,.32v.05c0,.07-.21,.31-.63,.74,0,.2-.56,.55-1.69,1.06s-1.89,.83-2.28,.96c-.27,0-.41,.07-.41,.22s-.83,.61-2.48,1.4c0,.07-.15,.15-.45,.25-.15,0-.39,.11-.72,.34-.18,.1-.27,.27-.27,.52s-.05,.58-.14,1.01c-.3,1.28-.79,2.69-1.46,4.25s-1.39,2.89-2.14,4l-1.71,2.41c-1.41,2.16-3.23,4.08-5.45,5.75-1.11,.98-1.67,1.56-1.67,1.72h.14s.05,.03,.05,.1l-.27,.2c-.09,0-.16,0-.2-.02s-.07-.07-.07-.17c-.69,0-1.53,.2-2.52,.59-.39,.2-.75,.29-1.08,.29Zm-7.03-8.45v-.1c0-.13,.06-.47,.18-1.03,.27-1.37,.5-2.21,.68-2.5h.14s.05,.05,.05,.15c-.54,2.32-.89,3.49-1.04,3.49Zm1.31-4.71c0-.29,.15-.67,.45-1.13v.34c-.03,.13-.18,.39-.45,.79Zm.68,2.21h-.32l-.18-.1s.09-.07,.27-.1l.27,.1-.05,.1Zm.18-.44h-.09l-.32-.2,.09-.39c.03-.23,.05-.36,.07-.39s.04-.07,.07-.12,.05-.09,.07-.12,.04-.07,.07-.1c.09-.1,.18-.15,.27-.15l-.27,.59-.09,.64c0,.07,0,.11,.02,.12l.11,.12Zm.23,.54l-.09-.1,.18-.39c.21,0,.32,.03,.32,.1v.05c0,.07-.14,.18-.41,.34Zm0-4.91l.18-.83,.41-.79h.09l-.27,.79-.41,.83Zm.5,3.58v-.2c0-.2,.05-.38,.14-.54s.2-.25,.32-.25l-.18,.64c-.09,.23-.18,.34-.27,.34Zm.27-5.6h-.09c.24-.69,.42-1.15,.54-1.37,.69-1.24,1.13-1.87,1.31-1.87-1.08,2.16-1.67,3.24-1.76,3.24Zm1.49,.1v-.1c0-.29,.27-.74,.81-1.33l-.18-.1c-.09,0-.18,.04-.27,.12s-.26,.52-.5,1.3l.14,.1Zm.81,14.68c.18,0,.39-.13,.63-.39,.15-.16,.42-.39,.81-.69,1.08-.79,1.73-1.2,1.94-1.25s.32-.15,.32-.29,.15-.22,.45-.22c.63-.29,.95-.56,.95-.79l-.09-.2,.05-.1c.12-.33,.29-.49,.52-.49s.65-.34,1.28-1.03c1.38-1.44,2.18-2.21,2.39-2.31,.18,0,.28-.08,.29-.25s.16-.41,.43-.74c.9-1.47,1.37-2.21,1.4-2.21,0-.03,.05-.13,.16-.29s.2-.31,.27-.44,.37-.52,.88-1.18c.09,0,.16-.05,.2-.15s.07-.2,.07-.29c0-.23,.05-.41,.14-.54s.17-.26,.25-.39,.16-.28,.25-.44c.54-1.08,.81-1.75,.81-2.01l-.54-.1-1.26,.1c-1.02,0-2.48-.1-4.37-.29l-.72-.1c-1.14,0-2.05,.43-2.73,1.3s-1.49,2.58-2.46,5.13l-1.58,3.49-.99,3.34c-.09,.16-.18,.74-.27,1.72v.49c0,1.01,.18,1.56,.54,1.62Zm-.54-14.88c.09,0,.23-.13,.43-.39s.29-.47,.29-.64l-.18-.2c-.36,.62-.54,1.03-.54,1.23Zm5.99,10.95c.12,0,.18-.07,.18-.2s-.03-.2-.09-.2l-.27,.2c0,.1,0,.16,.02,.17s.07,.02,.16,.02Zm3.34-.29c.03-.1,.06-.16,.09-.17s.06-.04,.09-.07v-.05h-.32c-.12,0-.18,.05-.18,.15,0,.07,.11,.11,.32,.15Zm.99-.83c.09,0,.35-.2,.77-.59,.09-.13,.24-.26,.45-.39,.66-.75,1.01-1.14,1.04-1.15s.08-.07,.14-.17l.77-.59-.45,.74c-.27,.39-.41,.69-.41,.88l.09,.1c.09,0,.38-.25,.86-.74,.54-.82,.81-1.31,.81-1.47l-.09-.2,.09-.1,.18,.1c.3,0,.9-.95,1.8-2.85s1.35-3.22,1.35-3.98c0-.13,0-.22,.02-.27s.05-.07,.11-.07,.11-.31,.14-.93c0-.2-.05-.34-.16-.42s-.26-.12-.47-.12c-.51,0-.86,.43-1.04,1.28-.06,.29-.14,.52-.25,.69s-.17,.25-.2,.25h-.18l.27,.29-.18,.2c-.18,.13-.27,.29-.27,.49s-.09,.39-.27,.59l-.09,.05c-.06,.07-.09,.11-.09,.15h.09c-.15,.16-.35,.47-.59,.93,0,.29-.05,.59-.16,.88s-.22,.47-.34,.52-.2,.09-.23,.12l.09,.1c0,.13-.06,.2-.18,.2h-.09s-.05,.05-.07,.05-.05,.02-.11,.05-.09,.1-.09,.2l.09,.1,.36-.2v.2s-.04,.08-.11,.15-.13,.11-.16,.15c-.24,0-.44,.2-.59,.59-.12,.56-.24,.83-.36,.83l-.09-.1,.09-.1v-.2s-.08,.05-.16,.05-.11,.15-.11,.44c0,.03-.03,.08-.09,.15-.15,.33-.39,.67-.72,1.03-.69,.79-1.04,1.25-1.04,1.4s-.06,.22-.18,.22-.18,.05-.18,.15c0,.23,.06,.34,.18,.34Zm.18-15.08c.27,0,.8-.1,1.58-.29,1.77-.46,2.91-.72,3.43-.79l-1.13-2.75-.99-.2c-.33,0-.61,.32-.83,.96s-.48,1.01-.77,1.1-.59,.34-.9,.71-.53,.73-.65,1.06v.05c0,.1,.09,.15,.27,.15Zm4.24,5.45c.06,0,.11-.02,.16-.07s.08-.07,.09-.07,.04-.02,.07-.05l.18-.74s-.08,.07-.14,.1-.12,.11-.18,.25c-.18,.2-.27,.39-.27,.59h.09Zm2.34-6.83c.36-.13,.54-.25,.54-.34l-.23-.34c-.18-.29-.29-.5-.34-.61s-.12-.27-.23-.47-.34-.39-.7-.59l.18,.64c0,.13-.05,.2-.14,.2h-.05c-.12,0-.18,.1-.18,.29,0,.72,.12,1.08,.36,1.08,.33-.13,.68-.23,1.04-.29l-.36,.44h.09Z"/><path class="b" d="M155.31,80.09c-.72,0-1.23-.34-1.53-1.03-.24-.46-.41-.69-.5-.69-.03,0-.06,.02-.09,.05s-.08,.11-.14,.25l-.05,.1s-.12-.08-.27-.25c-.39-.46-.59-.76-.61-.91s-.07-.25-.16-.32-.17-.11-.23-.15-.17-.07-.32-.1-.27-.15-.36-.34-.18-.54-.27-1.03c0-1.21,.06-2.13,.18-2.75,.54-2.19,2.48-7.12,5.81-14.78,.78-1.8,1.61-4.01,2.48-6.63,.81-2.29,1.53-3.8,2.16-4.52,.51-.56,.81-.83,.9-.83,.12,0,.18,.08,.18,.25,.03,.07,.07,.11,.11,.15s.08,.07,.09,.1,.04,.05,.07,.05l-.09-.29c0-.33,.06-.5,.18-.52s.18-.09,.18-.22l-.18-.59c0-.13,.06-.2,.18-.2l1.04,.39c.09,0,.18-.1,.27-.29,0-.13,.06-.2,.18-.2,.06,.07,.12,.12,.18,.17s.13,.11,.2,.2,.23,.12,.47,.12l.27-.1c.12,.29,.35,.48,.7,.56s.64,.43,.88,1.03,.36,1.32,.36,2.14-.08,1.42-.25,1.92-.55,1.23-1.15,2.21c-.93,1.6-1.76,3.31-2.48,5.11-.09,.33-.41,.93-.95,1.82l-2.12,4.22c0,.36-.71,2-2.12,4.91-.54,1.28-.81,2.04-.81,2.28s-.06,.4-.18,.47l-.23,.39c0,.1,.02,.16,.07,.17s.13,.02,.25,.02c.09,.07,2.37-2.77,6.85-8.5l1.89-2.36c2.7-3.57,4.75-6.09,6.13-7.56s2.42-2.28,3.11-2.41l.81-.1c.48,0,.74,.2,.77,.59v.64c0,.07,.03,.1,.09,.1l.81-.1c.21,0,.33,.07,.36,.2,0,.29,.17,.49,.5,.59,.21,0,.39,.13,.54,.39,0,.26,.12,.46,.36,.59s.39,.65,.45,1.57l.18,4.76c0,1.96-.15,4.42-.45,7.37l.09,.49c.09,0,.29-.2,.59-.61s.81-1.01,1.53-1.79c.72-.62,1.22-1.16,1.49-1.62,.21-.33,.36-.49,.45-.49s.59-.57,1.49-1.72c1.26-1.51,2.24-2.56,2.93-3.17s1.29-.92,1.8-.96h.45c.39,0,.66,.13,.81,.39l.09,.44h-.18c-.12,0-.18,.03-.18,.1l.09,.2c.06,.2,.18,.29,.36,.29l.86-.2c.18,0,.27,.08,.27,.25s.11,.32,.32,.47,.48,.58,.81,1.3c.12,.43,.18,1,.18,1.72,0,.59-.06,1.56-.18,2.9l-.14,3.83c.09,.13,.23,.2,.41,.2,.36,0,.84-.34,1.44-1.03l.36-.29c.27-.33,.53-.49,.77-.49,.3-.1,.5-.2,.59-.32s.39-.37,.9-.76c1.32-.98,2.61-1.87,3.88-2.65l1.49-1.18c.6-.56,1.11-.83,1.53-.83,.12,0,.18,.08,.18,.25s-.05,.29-.14,.39-.14,.23-.14,.39-.11,.31-.32,.44-.32,.26-.32,.39-.27,.39-.81,.79c-.81,.62-1.28,1.05-1.4,1.28v.1c.18,0,.86-.54,2.03-1.62,.93-.75,1.4-1.21,1.4-1.37h-.18c0-.13,.27-.38,.81-.74,.15-.13,.3-.2,.45-.2l.09,.2-.18,.88c-.09,.29-.29,.7-.59,1.23-.84,1.44-1.41,2.23-1.71,2.36-.06,0-.3,.17-.72,.52s-.89,.76-1.4,1.25c-1.44,1.34-2.49,2.23-3.15,2.65-.87,.59-1.51,1.09-1.92,1.5s-1.12,.61-2.14,.61c-.51,0-.98-.03-1.4-.1-.24,0-.51-.18-.81-.54-.24-.2-.48-.29-.72-.29s-.53-.27-.86-.81-.57-1.1-.72-1.69c-.33-1.15-.56-1.85-.68-2.11l.09-.1c0-.1-.09-.2-.27-.29l-.09-.1c0-.07,.03-.1,.09-.1s.12-.04,.18-.12,.09-.17,.09-.27l-.09-.1-.18,.1c-.09,0-.16-.16-.2-.47s-.13-1.01-.25-2.09c-3.49,4.45-5.57,7.17-6.26,8.15-.66,.82-1.22,1.23-1.67,1.23-.18,0-.3-.1-.36-.29,0-.07-.06-.1-.18-.1-.24,.16-.47,.29-.68,.39-.18,0-.41-.1-.68-.29s-.41-.38-.41-.56-.24-.48-.72-.91l-.5-.25c-.36,0-.77-.42-1.22-1.25s-.75-1.73-.9-2.68c-.06-.65-.09-1.62-.09-2.9l.09-5.65c0-.82-.03-1.41-.09-1.77s-.15-.54-.27-.54c-1.59,1.34-4.37,4.58-8.34,9.72-2.49,3.4-5,6.69-7.53,9.87-.57,.69-.95,1.27-1.15,1.74s-.77,.79-1.74,.96c-.51,.23-.98,.34-1.4,.34Zm-3.79-4.12c.12,0,.18-.16,.18-.49v-.25c0-.26,.03-.52,.09-.79v-.15c.15-.82,.29-1.34,.41-1.57,.06-.03,.11-.13,.14-.29,0-.59,.13-1.1,.38-1.55s.38-.79,.38-1.06c1.05-2.68,1.58-4.17,1.58-4.47s.21-.85,.63-1.67c.51-1.05,.77-1.75,.77-2.11,0-.2,.07-.29,.2-.29s.25-.21,.34-.64c.18-.59,.42-1.15,.72-1.67,1.05-2.29,1.58-3.81,1.58-4.57,0-.2-.03-.29-.09-.29-.36,.85-.7,1.7-1.01,2.55s-.62,1.69-.92,2.5c-.09,.33-.2,.49-.34,.49s-.2,.11-.2,.34-.09,.47-.27,.74c-.3,.39-.65,1.21-1.04,2.46l-2.03,5.11c-1.23,3.34-1.85,5.61-1.85,6.83,0,.52,.12,.8,.36,.83Zm1.31-2.11l.14-.39c.12-.29,.23-.64,.32-1.03l.95-2.5c.15-.26,.29-.62,.41-1.08,.24-.62,.38-.95,.43-.98s.12-.16,.23-.37,.2-.48,.29-.81c.27-.79,.56-1.52,.86-2.21,.48-1.01,1.05-2.39,1.71-4.12,.27-.65,.41-1.08,.41-1.28,0-.07-.03-.1-.09-.1l-2.3,5.11c-.9,2.06-1.7,4.07-2.39,6.02s-1.04,3.13-1.04,3.56l.09,.2Zm.63,2.01c.09,0,.19-.12,.29-.37s.2-.53,.29-.86c.42-1.37,.63-2.28,.63-2.7,0-.07,.08-.1,.23-.1s.29-.07,.41-.2v-.25s-.05,.07-.05,.1-.03,.07-.09,.12-.11,.09-.14,.12l-.09-.1c.69-2.03,1.13-3.04,1.31-3.04,.12-.07,.18-.16,.18-.27s.02-.2,.05-.27,.05-.11,.05-.15c.12,0,.18-.11,.18-.34v-.15c0-.33,.32-1,.95-2.01l-.09-.1,.09-.44c1.2-3.08,1.9-4.74,2.1-4.98s.29-.42,.29-.52c0-.2-.09-.29-.27-.29-.45,0-1.13,1.13-2.03,3.39-2.91,6.68-4.37,10.26-4.37,10.75l.09,.1,.41-.29,.09,.1-.18,1.13c-.21,.49-.32,1.03-.32,1.62Zm6.85-17.92l.09-.1,.18-.39v-.1h-.18c-.18,.13-.27,.29-.27,.49l.18,.1Zm1.13,13.06c.3,0,.51-.13,.63-.39,0-.2,.09-.29,.27-.29,.3,0,.55-.11,.74-.32s.29-.45,.29-.71v-.39h.18c.18,0,.38-.13,.59-.39s.32-.49,.32-.69l-.09-.39,.09,.1c.21,0,.83-.63,1.87-1.89s1.55-2.01,1.55-2.23,0-.38,.02-.44,.1-.16,.25-.29l-.18,.44,.09,.1c.12,0,.81-.87,2.07-2.6,1.89-2.36,2.84-3.72,2.84-4.08l-.14-.2,.14-.1,.36,.1c.27,0,.45-.1,.54-.29,.33-.29,.63-.62,.9-.98,.39-.33,.59-.67,.59-1.03-.09-.2-.18-.29-.27-.29s-.2,.1-.34,.29-.55,.61-1.24,1.23c-.63,.69-1.53,1.75-2.7,3.19-1.2,1.6-1.92,2.41-2.16,2.41-.03,0-.05,.05-.05,.15,.15,.16,.27,.36,.36,.59-.24,0-.44,.07-.61,.2s-.7,.74-1.6,1.82c-.24,0-.47,.25-.68,.74-.09,.16-.14,.34-.14,.54l-.18,.1c-.24,0-.93,.83-2.07,2.5-.96,1.34-1.56,2.23-1.8,2.68s-.47,.66-.68,.66l-.09,.2h.32Zm-.23,1.03l.32-.74-.23,.1-.18,.44c0,.13,.03,.2,.09,.2Zm18.03-5.16l.18-.1c.06,0,.12-.07,.18-.2,0-.03-.09-.07-.27-.1-.12,0-.18,.05-.18,.15,0,.07,.03,.15,.09,.25Zm7.3-.98l.27-.2c.06-.1,.12-.17,.18-.22s.09-.11,.09-.17c-.15,.07-.29,.12-.43,.17s-.2,.16-.2,.32c0,.07,.03,.1,.09,.1Zm5.32,5.5c0-.13-.27-.36-.81-.69l.27,.29c.18,.26,.36,.39,.54,.39Zm.41,1.52c.12,0,.18-.1,.18-.29,0-.29-.07-.47-.2-.52s-.26-.11-.38-.17l-.18,.29s0,.07,.02,.1,.04,.11,.07,.22,.11,.2,.23,.27,.21,.1,.27,.1Z"/><path class="b" d="M209.9,80.78h-1.85c-1.08,0-2.05-.25-2.91-.74s-1.55-1.01-2.1-1.55-.86-.89-.95-1.06c-.9-1.28-1.35-3.01-1.35-5.21,0-1.31,.18-2.62,.54-3.93,.51-1.64,.83-2.54,.95-2.7l.45-1.23,3.43-6.73c.69-1.21,1.31-2.14,1.85-2.8l1.35-2.01c.48-.52,.81-.84,.99-.96s.35-.2,.5-.27c.87-.46,1.52-.72,1.94-.79,.78-.13,1.58-.2,2.39-.2,.75,0,1.52,.43,2.32,1.28s1.36,1.83,1.69,2.95l.18,1.57c0,1.57-.62,3.37-1.85,5.4-.18,.33-1.71,2.11-4.6,5.35-1.44,1.64-2.23,2.46-2.37,2.46s-.4,.16-.79,.49c-.15,.16-.32,.3-.52,.42s-.34,.17-.43,.17c-.33,0-.54,.07-.63,.2-.39,0-.85-.18-1.37-.54s-.89-.73-1.08-1.1-.34-.56-.43-.56c-.18,0-.38,.52-.59,1.57s-.32,2.18-.32,3.39c0,2.88,.68,4.32,2.03,4.32s2.73-.43,3.97-1.28l.54-.34c1.02-.59,1.79-1.13,2.3-1.62,.39-.39,.68-.59,.86-.59l.18,.1c0-.43,.12-.65,.36-.69l.36,.1-.09-.1c0-.23,.69-.88,2.07-1.96l1.08-.88,.09,.1-.27,.59c0,.16,.03,.25,.09,.25,.15-.16,.35-.34,.59-.54l.23-.2c1.86-1.54,2.79-2.5,2.79-2.9v-.2c.06,.07,.11,.11,.14,.12s.07,.05,.11,.1,.11,.07,.2,.07l-.18-.69,.81-.34,.18,.1c.21,0,.83-.54,1.87-1.62s1.55-1.74,1.55-1.99,.03-.45,.09-.61c.12,0,.18,.05,.18,.15l-.18,.39h.09l.18-.2c.6-.46,1.06-.88,1.37-1.25s.47-.6,.47-.66l-.09-.1-.63,.39h-.18c0,.23-.12,.46-.36,.69l-.36,.1s.11-.18,.32-.44c.93-1.08,1.68-1.77,2.25-2.06,.12-.07,.27-.2,.45-.39,0,.1-.18,.29-.54,.59-.51,.69-.77,1.1-.77,1.23,0,.29-.92,1.39-2.75,3.29-.51,.56-.86,.97-1.06,1.23s-.31,.56-.34,.88c0,.07-.06,.1-.18,.1-.06,0-.09-.07-.09-.2l.09-.1-.09-.1c-.06,0-.21,.17-.45,.52s-.36,.56-.36,.66-.29,.38-.86,.83l.68-.79c-.21,0-.47,.15-.77,.44s-.45,.51-.45,.64c-.06,.36-.12,.56-.18,.59s-.12,.08-.18,.15l.09-.54,.18-.2c-.54,.2-.81,.41-.81,.64v.05h.05s.08,.05,.23,.05l-.27,.2c-.39,0-.59,.08-.59,.25l-.09,.25,.27-.1c0,.1-.19,.32-.56,.66s-.58,.52-.61,.52l.09-.39h-.18c-.12,.1-.18,.2-.18,.29s-.14,.33-.41,.69c-.81,.95-1.37,1.42-1.67,1.42l-.18-.2h-.05c-.06,0-.12,.08-.18,.25s-.24,.38-.54,.64l-.72,.69c-.36,.23-.54,.44-.54,.64,.18,0,.8-.36,1.85-1.08l1.13-1.03c.21-.13,.65-.46,1.31-.98,.39-.39,.63-.59,.72-.59l1.13-1.03c.66-.72,1.11-1.08,1.35-1.08,.12,0,.2,0,.23-.02s.05-.12,.05-.32c.3,0,.54-.07,.72-.2s.38-.26,.59-.39c-1.02,1.15-1.67,1.72-1.94,1.72l.36-.49c-.48,.13-.72,.36-.72,.69-.06,.2-.15,.36-.27,.49l-.27-.1c-.24,0-.66,.33-1.26,.98-.21,.29-.32,.51-.32,.64l-.09-.1c-.18,0-.28,.02-.29,.05s-.02,.06-.02,.07-.02,.04-.05,.07c.03,.03,.09,.05,.18,.05,.06,.07,.09,.11,.09,.15l-.72,.29c-.27,.2-.41,.39-.41,.59v.1s-.02,.05-.05,.05c-.45,0-.92,.29-1.4,.88-.21,.23-.32,.43-.32,.59l.18,.1c.09,0,.2-.08,.34-.25s.28-.31,.43-.44c.12,0,.44-.16,.95-.47s.84-.55,.99-.71l.27-.25c.42-.36,.98-.88,1.67-1.57,1.08-.98,2.16-2.01,3.25-3.09,2.61-2.59,3.92-4.01,3.92-4.27-.09,0-.48,.36-1.17,1.08-.03,0-.15,.08-.36,.25-.72,.65-1.1,.98-1.13,.98l.18-.69-.09-.1,.18,.1c.12,0,.29-.1,.5-.29,.6-.43,.9-.82,.9-1.18,0-.1,.1-.31,.29-.64s.37-.49,.52-.49v.29c.33-.36,.56-.67,.68-.93,.06-.13,.14-.25,.23-.37s.14-.2,.14-.25,.15-.2,.45-.47c2.34-2.03,3.52-3.34,3.52-3.93v-.2l.18,.1c.12,0,.19-.06,.2-.17s.04-.19,.07-.22c.12,0,.21,.07,.27,.2,.18,.23,.27,.39,.27,.49,0,.29-.21,.75-.63,1.37s-.89,1.21-1.4,1.77l-.81,1.08c-.42,.69-1.17,1.67-2.25,2.95-2.79,3.31-4.97,5.61-6.54,6.92l-2.03,1.82c-1.38,1.31-3.16,2.73-5.34,4.25s-3.96,2.41-5.34,2.68Zm-8.11-8.54c.12,0,.18-.16,.18-.49l-.09-.2-.09,.1h.09l-.09,.59Zm.36,0c.51-3.57,1.13-5.75,1.85-6.53l.36-.49c0-.13-.09-.25-.27-.34-.27,0-.54,.39-.81,1.18-.15,.46-.23,.74-.23,.83l-.27,.44c-.12,.1-.21,.34-.27,.74-.03,.07-.09,.69-.18,1.87l-.18,2.31Zm.27,3.44l.09-.15-.27-.79c0,.39,.06,.7,.18,.93Zm1.76-11c.06,0,.14-.04,.23-.12s.14-.19,.14-.32v-.27s.05-.07,.16-.07,.2-.06,.27-.17,.11-.22,.11-.32c0-.23,.09-.48,.27-.76s.38-.5,.59-.66l1.26-2.5c.27-.52,.41-.87,.41-1.03-.12,0-.29,.15-.52,.44s-.34,.52-.34,.66-.06,.22-.18,.22-.18,.07-.18,.22-.22,.56-.65,1.23-.83,1.34-1.19,2.01-.54,1.12-.54,1.35l.18,.1Zm.68-.98h-.05l-.09-.1v-.1l.14-.2h.05l.09,.2c0,.13-.05,.2-.14,.2Zm1.44,3.29l.18-.1c.12-.13,.32-.2,.61-.2s.49-.07,.61-.2c0-.07,.12-.1,.36-.1,0-.1,.59-.8,1.76-2.11,2.07-2.19,3.11-3.39,3.11-3.58s.17-.41,.5-.64l1.08-1.72c.63-1.21,.95-2.41,.95-3.58,0-.62-.11-1.23-.32-1.82,0-.2-.06-.29-.18-.29-.09,0-.27,.15-.54,.44s-.47,.44-.59,.44-.23,.16-.32,.49c-.27,.46-.5,.74-.68,.83-.36,.13-.54,.25-.54,.34s-.28,.52-.83,1.25-.83,1.14-.83,1.2-.19,.3-.56,.71-.68,.86-.92,1.35-.38,.74-.43,.74-.09,.03-.14,.1-.07,.12-.07,.17-.21,.43-.63,1.15l-.68,.88-.63,1.42c-.42,.65-.63,1.23-.63,1.72,0,.69,.12,1.05,.36,1.08Zm1.4-8.74c.18,0,.27-.07,.27-.22s.06-.24,.18-.27c.06-.2,.09-.39,.09-.59l-.09,.2c-.36,.49-.54,.79-.54,.88h.09Zm5.14,3.73c.09-.07,.3-.31,.63-.74l.68-.83c.75-.95,1.13-1.51,1.13-1.67l.45-.79c.54-.98,.81-2.1,.81-3.34,0-.59-.09-1.11-.27-1.57l-.36-.64h-.18c.18,.52,.27,1.1,.27,1.72,0,1.77-.27,3.13-.81,4.08l-.27,.44c-.66,1.21-1.19,2.05-1.58,2.5l-.68,.83h.18Zm2.7,14c.18-.1,.27-.23,.27-.39,0-.03-.05-.05-.14-.05s-.17,.05-.23,.15-.09,.2-.09,.29h.18Zm2.48-4.67h-.09c.15-.13,.27-.33,.36-.59l.05-.2c.39-.52,.87-.79,1.44-.79-.96,1.05-1.55,1.57-1.76,1.57Zm.72-.79l.18-.1c.27-.16,.41-.29,.41-.39-.09,0-.17,.03-.23,.1s-.12,.12-.18,.17-.1,.09-.11,.12-.04,.07-.07,.1Zm1.13,.2c.18,0,.27-.16,.27-.49-.03,.03-.05,.09-.07,.17s-.11,.12-.29,.12l-.18-.1s.05,.07,.05,.1,0,.07,.02,.12,.08,.07,.2,.07Zm-.18-1.28c0-.1,.14-.26,.41-.49,.63-.69,1.02-1.03,1.17-1.03,.06,0,.09,.03,.09,.1-.15,.29-.38,.59-.68,.88-.45,.36-.78,.54-.99,.54Zm2.52-1.62c.15-.03,.32-.2,.5-.49-.06,.03-.11,.05-.16,.05s-.09,.02-.14,.05-.1,.06-.16,.07-.09,.11-.09,.27c0,.03,.02,.05,.05,.05Zm.59-1.03l.14-.2,.36-.1v.1l-.5,.2Zm1.22-1.08l.09-.2,.27-.29c.06,0,.09,.03,.09,.1l-.45,.39Zm0,2.7l.45-.59h.09s0,.07-.02,.1-.05,.1-.11,.2-.2,.2-.41,.29Zm.86-.69h-.14c.27-.16,.41-.38,.41-.64-.06,.03-.12,.05-.18,.05s-.14,.02-.25,.07-.22,.12-.34,.22c0-.13,.13-.26,.38-.39s.38-.27,.38-.42,.05-.27,.14-.37,.23-.15,.41-.15c0,.1-.09,.26-.27,.49l-.18,.39,.36-.2,.09,.1c0,.1-.09,.28-.27,.54-.18,0-.31,.05-.38,.15s-.13,.15-.16,.15Zm.09-2.85c-.15,0-.23-.07-.23-.2s.08-.2,.23-.2l.09,.2-.09,.2Zm.63-.88v-.29l.18-.39v.39c0,.2-.06,.29-.18,.29Zm.81,1.62h-.09c0-.13,.08-.28,.23-.44l.14-.2c.36-.33,.59-.49,.68-.49,0,.1-.15,.34-.45,.74-.06,.07-.12,.12-.18,.17l-.18,.15c-.06,.05-.11,.07-.14,.07Zm1.22-2.31v-.1c0-.23,.18-.41,.54-.54-.06,.07-.11,.13-.16,.2s-.1,.16-.16,.27-.14,.17-.23,.17Zm1.4-2.21l.09-.25,.36-.29c.06,0,.09,.03,.09,.1-.09,.03-.16,.07-.2,.1s-.1,.07-.16,.12-.12,.12-.18,.22Zm2.21-3.04v-.1c0-.2,.09-.33,.27-.39l.09-.1c-.09,.26-.21,.46-.36,.59Z"/></svg>