<?xml version="1.0" encoding="utf-8"?>
<!-- Generator: Adobe Illustrator 26.4.1, SVG Export Plug-In . SVG Version: 6.00 Build 0)  -->
<svg version="1.1" id="a" xmlns="http://www.w3.org/2000/svg" xmlns:xlink="http://www.w3.org/1999/xlink" x="0px" y="0px"
	 viewBox="0 0 231.9 87.9" style="enable-background:new 0 0 231.9 87.9;" xml:space="preserve">
<style type="text/css">
	.st0{fill:#FFFFFF;}
</style>
<g>
	<path class="st0" d="M27.7,50l-1.4-0.6c-0.6-0.3-1.2-0.6-1.9-0.8c-1.8-0.5-2.9-1.1-3.6-1.7l-0.5-0.3h-0.1l0,0c0,0-0.1-0.1-0.1-0.1
		c0,0-0.2-0.2-0.7-0.5c-0.6-0.4-0.9-1-1.1-2c-0.1-0.5-0.2-1.2-0.2-1.9c0-0.4,0.1-0.8,0.1-1.1s0.1-0.8,0.3-1.4
		c0.4-1.4,0.7-2.2,0.9-2.3l0.1-0.7c0,0,0.1-0.1,0.1-0.2c0-0.1,0-0.2,0.1-0.3c0,0,0,0,0-0.1c0,0,0,0,0.1,0c0.1-0.1,0.1-0.3,0.1-0.4
		c0-0.1,0.4-0.8,1.2-2.2c0.8-1.4,1.3-2.1,1.5-2.3l0.4-0.7c0-0.1,0.2-0.4,0.6-0.8c0.2-0.5,1.3-1.8,3.2-4s4.5-4.7,7.8-7.4
		s7.1-5.1,11.5-7c1.4-0.6,2.2-0.9,2.3-0.9c0,0.1-0.5,0.4-1.5,0.8c-1,0.5-1.5,0.7-1.6,0.7c-0.3,0-1.7,0.8-4.3,2.4s-5.5,3.7-8.8,6.5
		s-6.2,5.9-8.8,9.6c-0.4,0.6-0.9,1.2-1.3,1.8c-0.4,0.6-0.9,1.5-1.4,2.6c-0.7,1.3-1.1,2.3-1.2,3c0.1,0,0.2-0.2,0.4-0.5l0.3-0.5
		l0.1,0.1l-0.1,0.3c-0.3,1.1-0.5,1.7-0.5,1.8c0,0,0,0.1,0.1,0.1c0,0,0.1-0.1,0.1-0.1c0,0,0.1-0.4,0.3-1.1c0.2-0.6,0.4-1,0.4-1.1
		c0-0.1,0.1-0.3,0.2-0.6c0.1-0.3,0.3-0.8,0.7-1.4c0.9-1.6,1.5-2.5,1.8-2.9c0.1,0,0.2-0.1,0.2-0.2c0-0.2,0.1-0.3,0.2-0.5
		c2.4-3.9,5.9-7.6,10.4-11.2c1.6-1.3,2.6-2.1,3.1-2.4l0.1-0.1c0-0.1,0.9-0.7,2.6-1.8c0.4-0.3,1.5-1,3.2-2c0.7-0.5,2.8-1.5,6.3-3
		c3.5-1.5,5.5-2.2,6.1-2.2c0.6-0.3,1.1-0.5,1.4-0.5c0.4,0,0.8-0.1,1.2-0.2c0.3-0.1,0.5-0.2,0.7-0.2c0.1,0,0.3,0.1,0.4,0.2V7.7
		l0.1-0.1h0c0,0,0-0.1,0.1-0.1s0.1-0.1,0.1-0.1c0,0-0.1,0-0.3-0.1c-0.9,0-2.4,0.4-4.7,1.1c-1.7,0.5-3.4,1.1-5,1.9
		c-0.4,0.1-0.7,0.1-0.8,0.1c0-0.1,0.7-0.5,2.2-1.1c0.1-0.1,0.8-0.4,1.9-0.7c3.2-1,6.3-1.6,9.4-1.6l2.3,0.1c0.9,0.1,1.4,0.3,1.6,0.5
		c0,0.1,0.3,0.2,0.8,0.4C67.8,8.4,68.5,8.7,69,9s0.8,0.5,0.8,0.5s0.1,0.2,0.2,0.3c0.2,0.3,0.5,0.6,0.9,0.8c0.4,0.3,0.9,0.8,1.4,1.5
		c0.5,0.6,0.9,1.2,1.1,1.7c0.2,0.5,0.4,0.9,0.5,1.2c0.1,0.3,0.1,0.7,0.1,1.1c0,0.8,0,1.6-0.1,2.4v0.1c0,0.1-0.1,0.6-0.2,1.5
		c-0.3,1.2-0.6,2.2-1.1,3.2c-0.9,1.5-1.5,2.3-1.7,2.6l-0.3,0.5l0.1-0.1c0,0,0.1,0,0.1,0.1c0,0.1-0.1,0.2-0.3,0.3S70,27,69.8,27.2
		c-0.2,0.2-0.3,0.3-0.3,0.4c0,0,0,0.1-0.1,0.2c-0.1,0.1-0.1,0.1-0.1,0.2c-0.1,0.1-0.2,0.1-0.2,0.2l0.1,0.2c-0.3,0-0.8,0.4-1.3,1.2
		c-0.2,0.3-0.4,0.6-0.6,0.7l0,0c0,0-0.1,0.1-0.1,0.3c0,0.1-0.1,0.2-0.2,0.2c-0.1,0-0.4,0.2-0.9,0.7l-0.4,0.4l-0.1-0.1l0.7-0.8
		c0.5-0.5,0.7-0.8,0.7-1c0,0,0-0.1-0.1-0.1c-0.1,0.1-0.3,0.2-0.4,0.3c0-0.2,0.1-0.3,0.3-0.5c0.2-0.1,0.3-0.2,0.4-0.2
		c0,0,0,0.1,0.1,0.2c0.6-0.5,0.9-0.8,0.9-0.9c0,0-0.2,0.1-0.4,0.3c-0.2,0.2-0.3,0.3-0.4,0.3c1.8-2.2,2.7-3.4,2.7-3.7L70,25.7
		c-0.1,0-0.2,0.1-0.3,0.3l-0.3,0.1l0.1-0.1h-0.1c0,0,0,0.1,0,0.1c0,0,0,0.1,0,0.2c0,0.2-0.2,0.4-0.5,0.5c-0.3,0.1-0.5,0.3-0.5,0.4
		s0,0.2,0,0.3s0,0.2,0,0.2l-0.7,0.7c-0.5,0.6-0.8,1-0.8,1.1c0,0.1-0.1,0.2-0.4,0.3c0,0-0.1,0-0.1,0.1c0,0-0.1,0-0.1,0.1s0,0.1,0,0.1
		c0,0-0.1,0.1-0.3,0.3c-0.2,0.1-0.3,0.3-0.3,0.5c0,0.1,0,0.1,0.1,0.1l0.3-0.1c-0.2,0.2-0.5,0.4-0.7,0.6c0-0.1,0-0.1,0-0.1
		s0.1-0.1,0.2-0.2L65.7,31c-0.1,0-0.3,0.2-0.6,0.5c-0.1,0.1-0.2,0.1-0.3,0.1c-0.1,0-0.2,0.1-0.3,0.2c-0.1,0.2-0.1,0.3-0.1,0.5
		s0,0.3-0.1,0.3c-0.1,0-0.2,0.1-0.3,0.3c0,0.1-0.1,0.2-0.2,0.2h-0.1c-0.1,0-0.1,0-0.1,0.1c-0.2,0.2-0.4,0.4-0.5,0.4
		c-0.3,0.2-0.5,0.4-0.5,0.4l0.1,0.1c-0.1,0-0.2,0-0.2,0c-0.1,0-0.1,0-0.2,0.1c0,0.1-0.1,0.1-0.1,0.2c0,0.1,0,0.2,0.1,0.2
		c0.1,0,0.3-0.1,0.5-0.3l0.1,0c0.3-0.3,0.5-0.4,0.6-0.4c0.1,0,0.2,0,0.2,0c0,0,0.1,0,0.1,0c0.2-0.1,0.4-0.2,0.4-0.3v-0.1H64
		c0,0-0.1,0-0.1,0c0-0.2,0.2-0.4,0.5-0.7c0.2-0.2,0.4-0.3,0.4-0.3c0,0.1,0,0.1-0.1,0.2c-0.1,0-0.1,0-0.1,0.1c0,0,0,0.1,0.1,0.1
		l0.4-0.1l0.1,0.1c-0.1,0.3-0.3,0.4-0.4,0.4c-0.1,0-0.2,0.1-0.3,0.3c0,0.1-0.2,0.4-0.6,0.6c-0.4,0.3-0.7,0.5-0.7,0.7v0.1
		c-0.1,0.2-0.2,0.3-0.3,0.3c-0.1,0-0.3,0.1-0.5,0.4c-0.2,0.3-0.4,0.4-0.6,0.4c-0.5,0.3-0.7,0.5-0.7,0.6h0.1v0.1L61,36.8
		c0,0-0.1,0-0.2-0.1c-0.1-0.1-0.1-0.2-0.1-0.3l0.1-0.1c0.1,0,0.2-0.1,0.3-0.2c0.1-0.2,0.2-0.4,0.4-0.6c0.2-0.2,0.3-0.3,0.3-0.4h-0.1
		c-0.7,0.3-1.2,0.7-1.6,1.2c-0.3,0.4-0.5,0.7-0.5,1.1l-0.1,0.2c0,0,0,0,0.1-0.1c0,0,0,0,0.1-0.1c0,0,0-0.1,0-0.1c0,0,0-0.1,0.1-0.1
		s0.1-0.1,0.1-0.1L60,37c0.1,0,0.2,0,0.2-0.1s0.1-0.2,0.2-0.2l0.1,0l-0.1,0.2l0.2-0.1c0,0,0,0.1,0.1,0.3c0,0.2-0.1,0.4-0.2,0.5
		c-0.1,0.1-0.3,0.2-0.4,0.2c-0.3,0-0.8,0.2-1.6,0.5h-0.1c0-0.1,0.1-0.2,0.2-0.3c0.1,0,0.2-0.1,0.3-0.3l0.1-0.1
		c-0.2,0-0.6,0.2-1.1,0.5l-4.2,3.6l-2.5,1.9c0,0-0.1,0.1-0.2,0.1c-0.1,0-0.3,0.1-0.5,0.3c-0.5,0.3-0.8,0.5-0.8,0.7l1.1-0.5
		c0.1,0,0.3-0.1,0.4-0.3c0,0,0.1,0,0.1-0.1s0.1-0.1,0.2-0.1c0.1-0.1,0.2-0.1,0.3-0.1c0,0,0.1,0,0.1,0s0.1,0,0.1,0
		c0,0,0.1-0.1,0.2-0.1c0-0.1,0.1-0.1,0.2-0.1l0.1-0.1c0.2,0,0.3-0.1,0.3-0.1c0,0,0-0.1,0-0.1c0.1-0.1,0.2-0.2,0.3-0.2
		c0.1,0,0.2-0.1,0.3-0.1c0.2-0.1,0.3-0.2,0.3-0.3c0.1-0.1,0.2-0.2,0.3-0.2s0.2-0.1,0.2-0.2c0-0.1,0.2-0.2,0.6-0.2l0.4,0.1
		c0,0,0,0.1,0,0.1c0,0,0,0-0.1,0l-0.8,0.5c-0.4,0.4-0.9,0.8-1.4,1.2c-0.5,0.4-0.9,0.6-1,0.6l-0.5,0.3c-0.5,0.4-1.4,0.8-2.7,1h0v0
		h-0.1v0h0c-0.1,0-0.4-0.1-1-0.1l-0.7-0.1c0,0,0-0.1-0.1-0.1c0,0-0.1-0.1-0.2-0.1s-0.3-0.1-0.6-0.2s-0.5-0.2-0.5-0.3
		c0-0.1,0.4-0.2,1.1-0.5c0.5-0.1,0.7-0.2,0.7-0.3l0.2-0.1c0.2-0.1,0.7-0.3,1.2-0.7c1.4-0.9,2.6-1.7,3.5-2.6l1.3-1l0.5-0.5V39
		c0.1,0,0.2-0.1,0.4-0.2c0.1-0.1,0.2-0.2,0.4-0.4c0.5-0.4,1.1-0.9,1.7-1.4c0.4-0.4,0.7-0.5,0.8-0.5l0.1,0.2c0,0-0.1,0.1-0.2,0.1
		c-0.1,0-0.3,0.1-0.5,0.4c-0.4,0.4-1.2,1.2-2.4,2.2l-0.4,0.4c-0.4,0.4-0.8,0.8-1.4,1.2c-0.4,0.3-0.8,0.6-0.9,0.8
		c-0.2,0.2-0.3,0.3-0.5,0.3c-0.1,0-0.2,0.1-0.2,0.2c0,0.1-0.2,0.3-0.7,0.5L49.6,43c0,0.1,0,0.1-0.1,0.1h0c-0.1,0-0.2,0-0.3,0.1v0.1
		c0.1,0,0.2-0.1,0.3-0.1c0.1,0,0.2-0.1,0.3-0.2c0.1-0.1,0.3-0.1,0.5-0.1l0,0c0,0,0.1,0.1,0.1,0.1c0.2-0.1,0.3-0.2,0.3-0.3l-0.1-0.2
		c0,0,0.1,0,0.1,0s0.1,0,0.1,0c0,0,0.1,0,0.2,0c0.1,0,0.2-0.1,0.5-0.2s0.3-0.2,0.3-0.4c0,0,0-0.1-0.1-0.1c-0.1,0-0.1,0-0.2-0.1
		l0.3-0.1c0.1,0,0.1,0,0.2,0.1c0,0.1,0,0.1,0,0.1c0.7-0.4,1.1-0.6,1.2-0.7c0.1-0.1,0.3-0.3,0.5-0.6l-0.1-0.1l-0.2,0.1
		c0,0.1-0.2,0.3-0.5,0.4l-0.3,0.2c0-0.1,0.3-0.4,0.8-0.7l0.5-0.2c0.2,0,0.3,0,0.5-0.1c0.1-0.1,0.2-0.2,0.2-0.3
		c0-0.1,0.1-0.2,0.3-0.3s0.5-0.2,0.8-0.5c0.3-0.2,0.5-0.5,0.8-0.7c0.3-0.2,0.4-0.4,0.4-0.5c0-0.1,0-0.2,0.1-0.3s0.1-0.1,0.2-0.1
		l-0.2,0.4c0.1,0,0.1,0,0.2-0.1l0.1-0.3c0-0.1,0-0.2,0-0.3c0,0,0.1,0,0.2,0l0,0.1c0,0,0,0,0.1,0l0.1-0.1l-0.1-0.1
		c0-0.1,0.1-0.2,0.2-0.2s0.2-0.1,0.3-0.1c0.1,0,0.1,0,0.1-0.1c0,0,0.1-0.1,0.1-0.1s0-0.1,0-0.2c0-0.1,0-0.1,0.1-0.2
		c0.1-0.1,0.1-0.1,0.1-0.1c0,0,0.1,0.1,0.1,0.2s0,0.2,0.1,0.2l0.1-0.1c0-0.2,0.1-0.3,0.1-0.3c0.2,0,0.6-0.4,1.2-1.1
		c0.3-0.4,0.5-0.7,0.5-0.7l0.1,0.1c0-0.1,0-0.2,0.1-0.3c0.1-0.1,0.1-0.1,0.2-0.2c0.1-0.1,0.1-0.1,0.2-0.1l-0.1,0.1v0.2l0.1-0.1
		c0.1-0.1,0.3-0.3,0.6-0.6l0.1-0.1c0.2-0.3,0.3-0.4,0.3-0.4c0-0.2,0-0.3,0-0.3c0,0,0.1-0.1,0.3-0.1l0.1,0.1v-0.1
		c-0.1,0-0.1,0-0.1-0.1v-0.1h0.2c0.1,0,0.2,0,0.2-0.1s0-0.1,0.1-0.1s1.2-1.3,3.5-3.8c1-1.1,1.7-2,2.3-2.6c0.4-0.4,0.6-0.6,0.7-0.8
		c0.8-1.3,1.4-2.7,2-4.3c0.3-0.7,0.4-1.2,0.4-1.4c-0.3,0-0.5,0.2-0.5,0.6c0,0.2-0.2,0.4-0.7,0.5c0,0-0.1-0.1-0.1-0.2l0.1-0.3
		l-1.1,1.3l0.8-1.6c0-0.2,0-0.3,0.1-0.3s0.3-0.8,0.6-2.3c0-0.5,0.1-1,0.1-1.6c0-2.2-0.6-3.7-1.9-4.6c-0.6-0.4-0.9-0.6-1.2-0.6
		c-0.2,0-0.4-0.1-0.4-0.2c-0.1-0.1-0.5-0.2-1.2-0.3c0,0-0.1,0-0.1,0c0,0-0.1,0-0.1,0c-0.1,0-0.2-0.1-0.2-0.1c0,0-0.8-0.1-2.2-0.2
		L63,9.3c-1.6,0-3.8,0.4-6.5,1.1c-2.7,0.8-5.4,1.7-7.8,2.7c-2.5,1.1-4.2,2.1-5.3,3.1l-0.7,0.5c-0.5,0.3-1,0.6-1.4,0.9
		c-2.7,1.6-5.3,3.6-7.8,6c0,0-0.1,0.1-0.1,0.1c-0.4,0.3-0.7,0.5-0.7,0.5c-0.1,0-0.6,0.5-1.5,1.6c-0.2,0.2-0.3,0.3-0.4,0.3
		c-0.1,0-0.1,0-0.1,0.1c-0.6,0.7-0.8,1-0.8,1.1c0,0-0.2,0.2-0.5,0.6c-0.4,0.4-0.6,0.5-0.7,0.5c-0.1,0-0.2,0.1-0.3,0.3
		c0,0.1-0.1,0.1-0.1,0.2c0,0-0.1,0.1-0.1,0.1v0h0c0,0-0.1,0.1-0.2,0.2s-0.2,0.3-0.2,0.5l-0.1,0.3c0,0-0.2,0.2-0.5,0.7l-1.5,2h0.1
		l-0.1,0.3L25,33.2l0.1,0.1c0,0.1-0.3,0.5-0.8,1.2c-0.3,0.3-0.4,0.5-0.5,0.7s-0.2,0.5-0.3,0.9l0,0.1c-0.1,0.4-0.3,0.7-0.4,0.8
		c-0.9,1.4-1.4,3.2-1.6,5.6c0,1,0,1.7,0.1,2.1c0.2,1,0.6,1.7,1.1,2c0.3,0.2,0.8,0.4,1.6,0.7c1.8,0.7,3,1.4,3.7,2
		c0.2,0.2,0.4,0.4,0.4,0.5h-0.4C27.8,49.7,27.7,49.8,27.7,50z M28.6,27.4C28.7,27.4,28.7,27.4,28.6,27.4c0.1,0,0.1-0.1,0.2-0.1
		c0,0,0.1-0.1,0.1-0.2l-0.1-0.1C28.7,27.1,28.6,27.2,28.6,27.4z M29.1,26.9l1.1-1.1c0.1,0,0.1-0.1,0.1-0.3c0,0-0.3,0.2-0.7,0.7
		S29.1,26.8,29.1,26.9z M32.8,68.3c0,0-0.1,0-0.1-0.1s-0.1-0.1-0.1-0.1l-0.4,0.1c-0.1,0-0.2-0.1-0.3-0.3l-0.1-0.1
		c-0.4-0.5-0.6-1.1-0.7-1.6c0-0.3,0-0.8,0-1.5c0.1-1.7,0.4-3.6,0.9-5.6c0.6-2.1,1.2-4.1,1.9-6c0.7-1.9,1.4-3.5,1.9-4.8
		s0.8-1.9,0.9-1.9c0,0.2-0.3,0.9-0.8,2.2c-0.5,1.3-0.8,2-0.9,2.2c-0.1,0.1-0.3,0.8-0.7,1.9c-0.5,1.5-0.8,2.3-0.9,2.4
		c0,0.3-0.1,0.6-0.3,1c-0.8,2.3-1.2,3.7-1.2,4.2c0.1,0,0.1,0.1,0.1,0.2l-0.1,0.3c-0.1,0.5-0.2,1-0.2,1.5c0.1,0,0.2-0.3,0.3-0.9
		c0.2-0.7,0.3-1,0.4-1c-0.1,0.9-0.3,1.9-0.5,2.8c-0.2,0.6-0.3,1.5-0.3,2.5c0,0.2,0,0.4-0.1,0.5c0,0.1-0.1,0.2-0.1,0.3
		c0,0.4,0.1,0.6,0.3,0.6c0.1,0,0.2,0,0.3,0.1c0.1,0,0.1-0.5,0.1-1.5c0.2-3,2.1-8.7,5.7-16.9c0.8-1.8,1.2-2.8,1.2-3l-0.1-0.1
		c0-0.5,0.5-1.8,1.6-4.1L41,41c0.2-0.2,0.6-1.2,1.3-3.1c0.1-0.3,0.3-0.7,0.5-1.3c0.5-1.4,0.8-2.2,1-2.5c0.2-0.4,0.3-0.7,0.3-0.8
		c0,0,0,0,0-0.1c0,0,0,0-0.1-0.1c0,0-0.1-0.1-0.1-0.2c0,0,0,0,0.1-0.1c0,0,0-0.1,0.1-0.1s0.1-0.1,0.1-0.2L44,32.3
		c0.3,0,0.4-0.2,0.4-0.5c0-0.1,0-0.2-0.1-0.2c-0.3,0.1-0.5,0.1-0.5,0.1c0,0,0,0,0-0.1c0,0,0.1-0.1,0.1-0.2c0-0.1,0.1-0.2,0.2-0.3
		c0.1-0.1,0.1-0.2,0.1-0.4c0-0.3,0-0.6,0.1-0.7l0.1-0.4L44,29.9v-0.1l0.1-0.3c0,0,0-0.1,0.1-0.4c0-0.2,0-0.3-0.1-0.3L44,29L44,28.9
		c0-0.1,0-0.3,0.1-0.6c0.1-0.4,0.2-0.8,0.3-1.2s0.3-1.1,0.6-2.2c0.3-1,0.6-2.1,1-3.2c0.3-1.1,0.6-1.9,0.9-2.5
		c0.1-0.1,0.2-0.3,0.4-0.4c0.2-0.1,0.3-0.2,0.5-0.2c0,0,0.1,0,0.1,0c0,0,0.1,0.2,0.1,0.5c0.1,0,0.2-0.1,0.3-0.2
		c0.1-0.1,0.3-0.2,0.4-0.2c0,0,0.1,0.1,0.1,0.2c0.1,0.1,0.1,0.1,0.2,0.1s0.1,0,0.1,0.1L49,19.4c0,0.1,0.1,0.1,0.2,0.2
		c0.1,0,0.3,0.1,0.5,0.2c0.4,0.3,0.7,0.9,0.7,1.9l-0.1,1.1c-0.1,0.7-0.5,1.9-1.1,3.7c-0.1,0.3-0.2,0.5-0.2,0.7c0,0.2,0,0.4-0.1,0.4
		c-0.1,0-0.1,0-0.1,0.1l0.1,0.1c0,0.1,0,0.2-0.1,0.3c-0.2,0.3-0.3,0.5-0.3,0.5s-0.1,0.1-0.1,0.2c0,0.1-0.1,0.3-0.2,0.7
		s-0.2,0.6-0.2,0.7c-0.1,0.6-0.2,1-0.4,1.1c-0.2,0.3-0.4,0.7-0.4,1.3c-0.1,0.3-0.2,0.6-0.4,0.7c-0.1,0.2-0.3,0.4-0.3,0.8
		c0,0.3,0,0.5-0.1,0.8s-0.2,0.4-0.4,0.5l-0.1,0.3c-0.3,1.1-0.6,1.7-0.8,1.8c-0.1,0-0.1,0.1-0.1,0.4c0,0.1,0,0.2,0,0.2
		c0,0-0.1,0.1-0.1,0.2l0,0.1c-0.2,0.3-0.9,1.9-2,4.8c-0.6,1.3-1,2.1-1.1,2.4c-0.1,0.2-0.1,0.3-0.2,0.3c0,0-0.1,0.1-0.1,0.1
		s0,0.1-0.1,0.1c0,0-0.1,0.2-0.1,0.4s-0.2,0.6-0.4,1.1c-0.4,0.9-0.7,1.5-0.9,1.6c-0.2,0.1-0.7,1.3-1.6,3.5l-0.5,1.2
		c0,0-0.3,0.5-0.7,1.5c-0.4,0.9-0.8,2.1-1.3,3.4c-1.2,3.4-1.9,5.9-2,7.6L33.6,68c-0.1,0-0.1-0.1-0.2-0.1c0-0.1-0.1-0.1-0.1-0.1
		c0,0.1,0,0.1-0.1,0.2c-0.1,0.1-0.1,0.1-0.2,0.2S32.9,68.3,32.8,68.3z M31.9,63.2v-0.5C31.9,62.7,31.9,62.9,31.9,63.2L31.9,63.2z
		 M32.3,60.2L32.3,60.2l0.1-0.5v0.2L32.3,60.2z M32.4,23.4c0,0,0.1,0,0.2-0.1c0.1,0,0.2-0.1,0.3-0.2s0.1-0.2,0.1-0.3
		c-0.1,0-0.1,0-0.2,0S32.7,23,32.4,23.4L32.4,23.4z M32.8,66c0.1,0,0.1-0.1,0.2-0.4c0.2-0.5,0.3-1.2,0.4-2c0-0.4,0.1-0.7,0.1-0.9
		c0,0,0,0-0.1,0c0,0,0,0,0,0.1c0,0.2-0.1,0.4-0.1,0.6c0,0.1,0,0.1-0.1,0.1c-0.1,0-0.1,0.2-0.1,0.6c0,0.4-0.1,0.7-0.2,0.8
		c-0.1,0.1-0.2,0.3-0.2,0.6C32.7,65.8,32.7,65.9,32.8,66C32.8,66,32.8,66,32.8,66z M32.8,58.2V58h0.1c0,0,0.1,0,0.1,0.1L32.8,58.2z
		 M33.1,59.2L33.1,59.2l0.2-0.7c0.1-0.3,0.2-0.6,0.2-0.8c0-0.1,0.3-0.8,0.9-2.3c0-0.2,0.1-0.3,0.1-0.3c0,0,0.1-0.1,0.1-0.1
		s0.1-0.1,0.1-0.1c0-0.1,0.1-0.1,0.1-0.2s0.1-0.1,0.1-0.1v0.1c0,0.1,0,0.1,0.1,0.1l0.2-0.1c0,0.1,0,0.2,0,0.3
		c-0.1,0.1-0.2,0.2-0.2,0.2v-0.2c0,0,0,0-0.1,0c-0.1,0-0.2,0.4-0.5,1.1L34,57.4C33.5,58.6,33.2,59.2,33.1,59.2z M33.2,57.5
		L33.2,57.5c-0.1-0.1,0-0.1,0-0.2c0,0,0.1,0,0.1,0c0,0,0,0,0,0.1L33.2,57.5z M33.3,67.5l0.1-0.1c0-0.1,0-0.1,0-0.1
		c0,0-0.1,0-0.1,0.1L33.3,67.5z M33.6,22.4c0,0,0.1,0,0.1-0.1s0.1-0.1,0.1-0.1s0.1-0.1,0.1-0.1c-0.1,0-0.2,0-0.3,0.1
		C33.5,22.1,33.5,22.2,33.6,22.4L33.6,22.4z M33.6,56.2c0,0-0.1-0.1-0.1-0.2l0.1,0l0.1,0.1L33.6,56.2z M33.6,62.3l0.2-0.1
		c0.1-0.2,0.1-0.5,0.1-0.7l-0.1-0.1c-0.1,0-0.1,0-0.1,0.1c0,0,0,0.1,0.1,0.1C33.7,62,33.6,62.3,33.6,62.3z M33.9,60.9l0.1-0.1
		l0.1-0.3L34,60.5L33.9,60.9z M34.2,53.9L34.2,53.9c0-0.2,0.1-0.3,0.2-0.4c0.1-0.1,0.1-0.1,0.2-0.2l0.1,0.1L34.2,53.9z M34.3,60.2
		c0.1,0,0.2-0.1,0.3-0.3c0-0.1,0.1-0.2,0.1-0.3c-0.1,0-0.2,0-0.3,0.1L34.3,60.2L34.3,60.2z M34.3,21.9c0.1,0,0.2-0.1,0.3-0.3
		c0-0.1,0.1-0.2,0.1-0.3h-0.1c0,0-0.1,0.1-0.2,0.2C34.3,21.7,34.3,21.8,34.3,21.9z M34.8,54.6c0-0.5,0.3-1.3,0.8-2.4
		c0.5-1.1,0.9-1.7,1-1.7C36.6,50.7,36,52.1,34.8,54.6z M34.9,21.3c0.2,0,1.1-0.7,2.8-2.2v-0.1c-0.2,0.2-0.3,0.3-0.5,0.3
		c-0.1,0-0.2,0.1-0.2,0.1C35.6,20.6,34.9,21.2,34.9,21.3z M35.1,58.4c0.4-1.1,1.6-4.2,3.8-9.3c0.2-0.4,0.4-0.9,0.6-1.3
		c0.2-0.5,0.3-0.8,0.4-1.1c0.1-0.3,0.4-0.9,0.9-1.8c-0.3,0-0.4,0-0.4,0l0.3-0.8l0.1-0.5h-0.1c-0.4,0.7-0.7,1.4-1.1,2.2l-1.3,2.9
		c0,0.1,0,0.2-0.1,0.4s-0.1,0.2-0.1,0.3c0,0.1,0,0.1-0.1,0.1s0,0.1,0,0.2c0,0.1,0,0.2-0.1,0.2s-0.1,0-0.1,0V50
		c-0.2,0.5-0.4,0.9-0.5,1.2l-1.1,2.5c-0.2,0.5-0.3,0.9-0.3,1.2c0,0.1-0.1,0.2-0.2,0.2c-0.1,0.1-0.2,0.1-0.2,0.2
		c-0.1,0.1-0.1,0.3-0.1,0.6c0,0,0,0.1,0,0.1s0,0.1-0.1,0.1c0,0.1,0,0.2,0.1,0.3c-0.1,0-0.2,0-0.2,0c0,0,0,0.2,0,0.4
		c0,0.2,0,0.4,0,0.4c0,0-0.1,0.1-0.1,0.1s-0.1,0-0.1,0.1c0.1,0.1,0.2,0.2,0.2,0.4L35.1,58.4z M35.9,49.6L35.9,49.6
		c0-0.1,0-0.2,0.1-0.3c0-0.1,0.1-0.1,0.1-0.1L35.9,49.6z M36.1,52.5L36.1,52.5c0-0.1,0-0.2,0.1-0.3c0-0.1,0.1-0.2,0.1-0.3
		c0.1-0.1,0.1-0.1,0.2-0.1c0,0.1-0.1,0.3-0.2,0.5C36.2,52.4,36.1,52.5,36.1,52.5z M36.9,47.4L36.9,47.4l0-0.4c0,0,0,0.1,0.1,0.2
		C37,47.4,37,47.4,36.9,47.4z M37.2,46.7c-0.1,0-0.1,0-0.1-0.1c0-0.1,0-0.1,0.1-0.1l0.1,0.1C37.3,46.6,37.3,46.7,37.2,46.7z
		 M37.1,49c0,0-0.1,0-0.1-0.1c0-0.1,0-0.2,0.1-0.2c0,0,0.1-0.1,0.1-0.1c0,0,0.1-0.1,0.1-0.2s0.1-0.1,0.1-0.2
		c0.1-0.1,0.2-0.2,0.2-0.2c-0.1,0.3-0.2,0.6-0.3,0.7C37.3,48.9,37.2,49,37.1,49z M37.3,45.6l-0.1-0.1c0,0,0.1-0.2,0.2-0.4
		c0.1-0.2,0.2-0.3,0.3-0.3c0,0.2,0,0.3-0.1,0.5c0,0-0.1,0.1-0.1,0.2S37.3,45.6,37.3,45.6z M37.1,46.3c0-0.1,0-0.2,0.1-0.2
		s0.2-0.1,0.3-0.1c0,0,0,0.1-0.1,0.1c-0.1,0-0.1,0.1-0.2,0.1S37.2,46.3,37.1,46.3C37.2,46.3,37.2,46.3,37.1,46.3z M37.4,49.3
		L37.4,49.3C37.4,49.3,37.4,49.3,37.4,49.3c0-0.1,0-0.1,0.2-0.2l0.1,0.1c0,0,0,0,0,0s0,0-0.1,0.1C37.6,49.3,37.5,49.3,37.4,49.3z
		 M37.8,45.8c-0.1,0-0.1,0-0.1-0.1c0,0,0-0.1,0-0.1s0-0.1,0.1-0.1c0,0,0.1-0.1,0.2-0.1v0C37.8,45.7,37.8,45.8,37.8,45.8z M37.8,47.7
		c-0.1,0-0.1,0-0.1-0.1l0.1-0.3c0.1,0,0.1,0,0.1,0.1L37.8,47.7z M38.1,19c0,0,0.1,0,0.2-0.1c0.1,0,0.2-0.1,0.2-0.2
		c0.1-0.1,0.1-0.2,0.1-0.2c0-0.1,0-0.1-0.1-0.1c0,0-0.1,0-0.2,0.1c-0.1,0.1-0.2,0.2-0.2,0.2c0,0.1,0,0.1-0.1,0.1
		C38,18.9,38,18.9,38.1,19L38.1,19z M38.2,44.5l0.1-0.4c0.2-0.7,0.4-1.1,0.4-1.1s0.1-0.2,0.3-0.6c0-0.3,0.2-0.9,0.5-1.6
		c0.1-0.1,0.2-0.6,0.4-1.2c0-0.1,0-0.1-0.1-0.1c-0.1,0-0.1,0.1-0.1,0.3c0-0.1,0-0.1,0-0.2c0-0.1,0-0.1,0-0.2
		c0.1-0.5,0.2-0.8,0.4-0.8l0.1-0.3c0-0.2,0-0.3,0.1-0.3s0.1,0,0.2-0.1v-0.3c0-0.1,0.3-0.7,0.8-2c0.2-0.6,0.4-1.1,0.6-1.5
		c0.2-0.4,0.4-0.6,0.4-0.6s0.1-0.1,0.1-0.3c0-0.2,0.1-0.4,0.1-0.5s0.1-0.2,0.1-0.2c0-0.1,0-0.1,0.1-0.1c0.1,0,0.1,0,0.2,0
		c0,0,0.1,0,0.1,0c0-0.1,0-0.1,0.1-0.1c0.1,0,0.2,0.1,0.2,0.2c0,0.1-0.1,0.1-0.1,0.2s-0.1,0.1-0.1,0.2c0,0.1-0.1,0.2-0.1,0.3
		c0,0.1,0.1,0.2,0.2,0.2c-0.2,0.2-0.3,0.4-0.3,0.5c-0.1,0.2-0.2,0.3-0.3,0.3c-0.1,0-0.1,0.1-0.1,0.2c0,0,0,0.1,0.1,0.1l0.1-0.1
		l0.1,0.1c0,0.1-0.1,0.2-0.3,0.3s-0.3,0.2-0.3,0.4c0,0.2-0.1,0.3-0.2,0.3c-0.1,0-0.2,0.2-0.4,0.5c-0.3,0.6-0.4,0.9-0.4,1.1l0.1,0.2
		c0,0.1,0,0.2-0.1,0.2c-0.2,0.1-0.3,0.2-0.3,0.3c0,0.2-0.1,0.4-0.2,0.5c-0.2,0.1-0.2,0.4-0.2,0.9c0,0.1-0.1,0.3-0.3,0.4
		c-0.2,0.1-0.3,0.3-0.3,0.3c0,0.3-0.3,1.1-0.9,2.5C38.5,43.8,38.2,44.5,38.2,44.5z M38.8,45.4h-0.1c0-0.1,0.1-0.4,0.3-0.8
		s0.3-0.6,0.4-0.6c0,0.1-0.1,0.4-0.3,0.7S38.8,45.4,38.8,45.4z M38.8,41.9v-0.3c0.1-0.4,0.2-0.5,0.3-0.5l0.2,0.1l-0.1,0.1
		C39,41.2,38.9,41.4,38.8,41.9z M39.1,18.3c0,0,0.1,0,0.1-0.1c0.1,0,0.1-0.1,0.1-0.1c0,0-0.1-0.1-0.3-0.1l-0.1,0.1
		C38.9,18.2,39,18.3,39.1,18.3L39.1,18.3z M39.3,40.7C39.3,40.7,39.3,40.7,39.3,40.7c-0.1-0.2,0-0.3,0-0.3l0.1,0.1
		C39.5,40.6,39.4,40.6,39.3,40.7z M39.6,43.5L39.6,43.5c-0.1,0-0.1,0-0.1-0.1c0-0.1,0-0.2,0.1-0.3c0.1,0,0.1-0.1,0.2-0.1
		c0,0.1,0,0.2-0.1,0.3C39.7,43.4,39.7,43.4,39.6,43.5z M39.8,17.7C39.9,17.7,39.9,17.7,39.8,17.7c0.1-0.1,0.2-0.1,0.2-0.1
		s0.1-0.1,0.1-0.1s0-0.1-0.1-0.1S40,17.5,39.8,17.7L39.8,17.7z M39.9,42.7L39.9,42.7l-0.1-0.1c0-0.1,0-0.1,0.1-0.1s0.1,0,0.1,0.1
		L39.9,42.7z M40.3,41.7v-0.4l0.1,0.1C40.4,41.6,40.3,41.7,40.3,41.7z M40.4,17.3l0.4-0.1l0.4-0.2c0-0.1,0.6-0.5,1.7-1.1
		c0-0.1,0.5-0.4,1.6-1c1-0.6,1.5-0.9,1.6-0.9c0.2,0,2.2-0.9,6.1-2.8v0.1c0,0,0,0.1,0.1,0.1c0.1,0,0.2,0,0.2-0.1c0,0,0.1-0.1,0.4-0.2
		c0.2-0.1,0.6-0.2,1-0.3c0.4-0.1,0.6-0.3,0.6-0.5c0-0.2,0-0.3,0.1-0.3l0.8,0.2c0.1,0,0.2-0.1,0.2-0.2c0-0.1,0.1-0.2,0.4-0.2
		c0.1,0,0.1,0,0.2-0.1l0,0V9.7l0.4-0.1c0,0,0,0,0.1-0.1s0.1,0,0.2,0c0.1,0,0.1,0,0.2-0.1c0.2,0,0.4-0.1,0.7-0.2
		C58.3,9.1,58.7,9,59,9v0.2c0.1,0,0.3-0.1,0.4-0.1l0.1,0l0.9-0.1c0.6,0,0.8-0.1,0.8-0.3c0,0-0.1,0-0.4-0.1c-0.1,0-0.5,0-1.1,0.1
		c-0.1,0-0.3,0-0.4-0.1l-1.4,0.4c-0.5,0.1-0.8,0.1-1,0.2s-0.4,0.2-0.7,0.4l-0.3-0.1c-0.6,0.1-1.1,0.3-1.6,0.4
		c-0.2,0.1-0.4,0.2-0.6,0.2c-1.3,0.4-2.7,1-4.2,1.8c-0.5,0.2-0.8,0.3-1,0.3s-0.3,0-0.3,0.1v0.4c-0.1-0.1-0.3-0.1-0.4-0.1
		c-0.2,0-0.4,0.1-0.5,0.2c0,0-0.9,0.4-2.4,1.3c-1.6,0.8-2.4,1.4-2.6,1.6l-0.1,0.1c-0.3,0-0.5,0.1-0.8,0.4c-0.1,0.1-0.2,0.1-0.2,0.2
		s-0.1,0.1-0.2,0.1c0,0-0.1,0-0.1,0.1c-0.1,0-0.1,0.1-0.1,0.1v0c0,0,0,0.1,0,0.2C41,16.8,40.8,17,40.4,17.3L40.4,17.3z M40.6,40.4
		L40.6,40.4c0-0.1,0-0.1,0-0.2c0,0,0-0.1,0.1-0.1c0-0.1,0-0.1,0.1-0.1c0,0,0-0.1,0.1-0.1c0,0,0.1-0.1,0.1-0.1l0.1,0.1
		C40.9,40.1,40.7,40.3,40.6,40.4z M40.8,37.6L40.8,37.6c0.1-0.1,0.1-0.2,0.1-0.4C40.8,37.1,40.8,37.3,40.8,37.6z M40.8,44.5
		c0,0,0.1,0,0.1-0.1c0,0,0.1-0.2,0.1-0.4C40.9,44.2,40.8,44.4,40.8,44.5L40.8,44.5z M41.2,43.9c0.1,0,0.1-0.1,0.1-0.1l-0.1-0.1
		c0,0-0.1,0-0.1,0.1c0,0-0.1,0.1-0.1,0.1s0,0.1,0,0.1H41.2z M41.4,39.2c-0.1,0-0.1,0-0.1-0.1c0,0,0-0.1,0.1-0.2c0.1,0,0.1,0,0.1,0.1
		L41.4,39.2z M41.5,38.8c0,0-0.1,0-0.1-0.1c0.2-0.7,0.4-1,0.4-1s0.1,0,0.1,0.1s0,0.2,0,0.2c0,0.1,0,0.1,0,0.1c0,0.2-0.1,0.3-0.2,0.5
		C41.6,38.8,41.5,38.8,41.5,38.8z M42,37.5L42,37.5c0-0.1,0.1-0.3,0.1-0.4c0-0.1,0.1-0.2,0.2-0.2c0,0,0.1,0,0.1,0.1
		c0,0,0,0.1-0.1,0.2c0,0.1-0.1,0.2-0.1,0.2S42,37.5,42,37.5z M42.1,41.8L42.1,41.8c0.1-0.1,0.2-0.2,0.2-0.2s0-0.1-0.1-0.1L42.1,41.8
		L42.1,41.8z M42.3,36.8C42.3,36.8,42.3,36.8,42.3,36.8l0.1-0.4l0.1-0.1v0.3C42.5,36.8,42.4,36.8,42.3,36.8z M42.6,35.8L42.6,35.8
		c0-0.2,0-0.3,0.1-0.4c0.1-0.1,0.2-0.2,0.3-0.2c0,0,0,0.1-0.1,0.2c0,0.1-0.1,0.1-0.1,0.2C42.8,35.7,42.7,35.8,42.6,35.8z M42.8,32.3
		V32c0-0.1,0-0.1,0-0.1c0,0,0.1-0.1,0.1-0.3l0.1,0.1c0,0,0,0.1-0.1,0.2s0,0.2-0.1,0.2C42.8,32.2,42.8,32.2,42.8,32.3z M42.9,35.1
		L42.9,35.1c0-0.1,0-0.3,0.1-0.5c0.1-0.2,0.1-0.4,0.1-0.5c0-0.1,0-0.2,0.1-0.3c0.1-0.3,0.3-0.5,0.4-0.5l0.1,0.1
		c0,0.1-0.1,0.5-0.4,0.9l-0.2,0.4C43.2,34.8,43.1,35,43,35C43,35.1,42.9,35.1,42.9,35.1z M43.3,31.1L43.3,31.1
		c-0.1-0.2,0-0.3,0.1-0.5l0.1,0.1C43.4,30.9,43.4,31,43.3,31.1z M43.5,30.3L43.5,30.3c0-0.1,0-0.3,0.1-0.4c0.1-0.2,0.1-0.3,0.2-0.5
		c0-0.1,0.1-0.2,0.1-0.3H44c-0.1,0.5-0.2,0.8-0.2,0.9C43.6,30.2,43.5,30.3,43.5,30.3z M44.4,28.1c0.2,0,0.3-0.3,0.4-1v-0.1
		c0,0-0.1,0-0.1,0.1c0,0.1-0.1,0.2-0.2,0.4s-0.2,0.3-0.2,0.4L44.4,28.1z M44.6,44.2c-0.1,0-0.2,0-0.2-0.1c0-0.1,0.5-0.5,1.6-1
		c2.7-1.4,4.5-2.6,5.5-3.5c0.3-0.2,0.7-0.5,1.2-0.8c0.1-0.1,0.2-0.1,0.3-0.2c0.1-0.1,0.2-0.1,0.2-0.1c-0.1,0.1-0.4,0.4-1.1,1
		l0.7-0.4l0,0.1c-0.1,0.3-0.2,0.4-0.3,0.4c-0.3,0.1-0.7,0.4-1.1,0.9c-0.5,0.4-0.7,0.7-0.8,0.7c-0.1,0-0.2,0.1-0.3,0.2
		c-0.7,0.6-1.5,1.2-2.5,1.7c-0.8,0.4-1.2,0.6-1.4,0.6l0.6-0.5h-0.1c-0.9,0.3-1.4,0.6-1.4,0.7l0.6-0.1C45.3,44.1,44.8,44.2,44.6,44.2
		z M44.6,31.1v-0.3C44.6,30.8,44.6,30.9,44.6,31.1L44.6,31.1z M45.5,29.3l0.1-0.3c0-0.1,0-0.1-0.1-0.1C45.4,29,45.4,29.1,45.5,29.3
		C45.4,29.3,45.4,29.3,45.5,29.3z M46.2,26.6l0.1-0.1v-0.2C46.2,26.3,46.2,26.4,46.2,26.6z M51.6,10.9
		C51.6,10.8,51.6,10.8,51.6,10.9C51.7,10.8,51.7,10.8,51.6,10.9l-0.3-0.1c0,0,0,0.1,0.1,0.1H51.6z M52.2,41.6H52c0,0,0,0,0.1-0.1
		s0.1,0,0.1-0.1l0.3-0.1l0.1,0.1L52.2,41.6z M54,10.5L54,10.5L54,10.5l0-0.2c0,0,0.1,0,0.1,0.1C54.1,10.5,54.1,10.5,54,10.5z
		 M55.1,41.5c0,0-0.1,0-0.1-0.1c0-0.1,0-0.2,0.1-0.3h0.2c0.1,0,0.1,0,0.1-0.1c0-0.1,0-0.2,0.1-0.2s0.3-0.2,0.6-0.5
		c0.4-0.4,0.7-0.6,0.9-0.6c0.1,0,0.2-0.1,0.2-0.3c0.1-0.1,0.3-0.3,0.6-0.5l0.4-0.4c0,0.4,0,0.6-0.1,0.6c0,0,0-0.1,0-0.1
		c0,0,0-0.1,0-0.2c-0.1,0.1-0.3,0.3-0.4,0.5c0,0.1,0,0.2-0.1,0.4c-0.2,0.4-0.4,0.5-0.5,0.5s-0.3,0.1-0.6,0.4s-0.5,0.4-0.7,0.4
		c-0.2,0-0.3,0.1-0.5,0.3L55.1,41.5z M55.3,9.4l0.5-0.1c0.2-0.1,0.4-0.1,0.4-0.2c-0.2,0-0.3,0-0.4,0.1C55.4,9.3,55.3,9.4,55.3,9.4z
		 M56.7,8.9c0.1,0,0.3,0,0.7-0.1c0.5-0.1,1.2-0.3,2.1-0.4c0.4-0.1,0.6-0.1,0.6-0.2c-0.4,0-1,0.1-2,0.3C57.2,8.7,56.7,8.9,56.7,8.9z
		 M57.4,36.2c0,0,0.1-0.1,0.3-0.3c0.5-0.5,0.7-0.7,0.7-0.8c0-0.1,0.2-0.2,0.5-0.4l0.5-0.3c0,0-0.3,0.4-1,1
		C57.9,35.9,57.5,36.2,57.4,36.2z M60,7.6c0.1,0,0.2,0,0.2-0.1c0,0-0.1,0-0.2-0.1c-0.2,0-0.3,0-0.3,0.1C59.7,7.5,59.7,7.6,60,7.6
		L60,7.6z M61.1,8.2c0.2,0,0.4,0,0.4-0.1c0,0-0.1,0-0.2-0.1l-0.8,0.1C60.5,8.1,60.7,8.2,61.1,8.2z M63.5,33.8L63.5,33.8
		c-0.1-0.2,0-0.3,0.1-0.3c0,0,0.1,0,0.1,0.1L63.5,33.8z M65.3,32.5L65.3,32.5c-0.1,0,0-0.1,0-0.1c0.1-0.1,0.1-0.1,0.2-0.1
		C65.5,32.4,65.4,32.5,65.3,32.5z M65.9,26.1L65.9,26.1c-0.1-0.1,0-0.2,0.1-0.3c0-0.1,0.1-0.1,0.2-0.1L65.9,26.1z M66.2,26.8
		l-0.1-0.1c0-0.1,0-0.2,0.1-0.2s0.2-0.1,0.2-0.1C66.5,26.5,66.4,26.7,66.2,26.8z M66.6,26.1C66.6,26.1,66.6,26.1,66.6,26.1
		c-0.1,0-0.1-0.1-0.1-0.1l0.2-0.2c0.3-0.2,0.5-0.5,0.6-0.9c0.1-0.1,0.2-0.2,0.3-0.3c0.1-0.1,0.2-0.2,0.2-0.2c0,0,0.1-0.2,0.3-0.5
		c0.1-0.1,0.2-0.2,0.3-0.4s0.1-0.2,0.1-0.4c0,0-0.2,0.2-0.4,0.5c-0.3,0.5-0.6,0.7-0.7,0.7c0,0,0.4-0.6,1.1-1.6
		c0.7-1,1.1-1.6,1.2-1.6l-0.2,0.6c0,0,0,0.1,0.1,0.1c0,0,0.1,0,0.1,0c0,0,0.1,0,0.1-0.1c0.1-0.1,0.1-0.1,0.2-0.2H70l0.3,0.6v0.1
		l-0.2-0.1c0,0,0,0.1,0,0.2c0,0.1-0.1,0.4-0.4,0.9c-0.2,0.4-0.4,0.9-0.7,1.4c-0.3,0.5-0.5,0.9-0.7,1.2c-0.1,0.1-0.3,0.2-0.4,0.2
		l0.1-0.2c0.2-0.2,0.3-0.4,0.3-0.5c0-0.1,0-0.1-0.1-0.1l-0.7,0.5C67,25.9,66.7,26.1,66.6,26.1z M68.4,28.7c0.1,0,0.2-0.1,0.2-0.2
		h-0.1L68.4,28.7L68.4,28.7z M68.7,23.9c0.1,0,0.3-0.3,0.5-0.9L68.7,23.9L68.7,23.9z M69,22.6c0,0,0.1-0.1,0.1-0.2
		c0,0,0-0.1-0.1-0.1c-0.1,0-0.1,0-0.1,0.1C68.9,22.6,68.9,22.6,69,22.6z M71.2,19.5l0.1-0.2c0-0.1,0-0.1-0.1-0.1
		c-0.1,0.1-0.1,0.1-0.1,0.2C71,19.5,71.1,19.5,71.2,19.5z M72.3,16.6l0.1-0.1l-0.1-0.2l-0.1,0.1L72.3,16.6z M72.3,17.2v-0.3L72.2,17
		L72.3,17.2z"/>
	<path class="st0" d="M61.2,53.3l-0.1-0.2c0-0.2,0-0.5,0.1-0.9l0.1,0.2C61.3,52.7,61.3,53,61.2,53.3z M67,58l-0.7-0.1
		c-1.2-0.2-2-0.4-2.2-0.8c-0.1-0.3-0.3-0.4-0.5-0.4c-0.2,0-0.3,0.1-0.3,0.3c0,0,0,0.1-0.1,0.1l-0.5-0.4c-0.3-0.2-0.6-0.5-0.8-0.8
		c-0.3-0.4-0.6-1.1-0.8-2.2l0.4,0.5c0.1,0,0.2-0.4,0.4-1.3c0.1-0.5,0.1-0.8,0.1-1s0-0.4,0.1-0.5c0.1,0,0.1-0.1,0.1-0.4V51
		c0-0.3,0-0.5,0.1-0.7s0.1-0.2,0.1-0.2l0.5,0.2h0.1v-0.2l0.2,0.1c0,0.1-0.2,0.2-0.6,0.2c-0.1,0-0.1,0.1-0.2,0.3
		c0,0.1,0.1,0.2,0.2,0.2c0.1,0,0.2,0,0.3-0.1c0,0,0,0,0,0.1s0,0-0.1,0.1S62.9,51,62.8,51s-0.1,0.1-0.1,0.1s-0.1,0.1-0.1,0.2l0.1,0.4
		c0,0.1,0,0.2-0.1,0.2s-0.1,0-0.2,0.1l0.1,0.2c0,0.4,0,0.7-0.1,1c0,0.4,0,0.7,0.1,0.7c0.1,0,0.2-0.3,0.4-0.8l0.1,0.3
		c0,0.2,0,0.3-0.1,0.3c0,0.1-0.1,0.1-0.1,0.1c0,0,0,0-0.1,0.1l0.1,0.1H63v0.1l-0.4,0.4c0.2,0,0.4,0.1,0.5,0.4l0.1-0.1
		c0-0.4,0.2-1.5,0.7-3.3c0.1-0.4,0.2-0.7,0.2-1c0-0.3,0.1-0.6,0.4-0.9c0,0,0.1-0.1,0.1-0.2c0-0.1,0-0.2,0-0.3s0-0.1,0-0.2
		c0.1-0.5,0.2-0.7,0.4-0.7c0.1,0,0.2-0.2,0.2-0.5s0.1-0.5,0.2-0.6c0.1,0,0.1,0,0.1-0.1v-0.1c0-0.1,0-0.2,0.1-0.3
		c0.1,0,0.1,0,0.1-0.1v-0.1c0-0.1,0.1-0.5,0.4-1.2c0.3-0.7,0.5-1.1,0.6-1.2c0,0,0-0.1,0.1-0.2c0.1-0.1,0.1-0.2,0.2-0.4
		c0.1-0.1,0.1-0.3,0.2-0.5l0-0.1c0-0.2,0.2-0.4,0.3-0.7c-0.3,0.3-0.6,0.8-0.9,1.4c-0.3,0.6-0.6,1.1-0.9,1.5
		c-0.3,0.2-0.6,0.8-0.9,1.6c-0.4,0.7-0.6,1-0.6,1c0-0.2,0.1-0.5,0.4-1.1c0.1-0.1,0.1-0.3,0.1-0.5v-0.1c0,0-0.1,0-0.2,0
		c0,0,0-0.1,0-0.1c0.2,0,0.4-0.1,0.5-0.3c0.2-0.2,0.3-0.4,0.3-0.5c0,0-0.1,0-0.4-0.1c-0.1,0.1-0.2,0.2-0.2,0.2s0,0.1-0.1,0.1
		c0-0.2,0.2-0.6,0.5-1.3s0.5-1,0.6-1l0.1,0.1c0,0,0,0.1,0,0.1s0,0.1,0,0.1c0,0.1,0,0.1-0.1,0.1c0,0,0,0.1-0.1,0.1
		c0.1,0,0.1-0.1,0.2-0.1c0.1,0,0.2-0.2,0.2-0.3c0.1-0.2,0.1-0.3,0.1-0.5c0-0.3,0.1-0.5,0.3-0.5c0.1,0,0.2,0,0.2,0l-0.1-0.3
		c0-0.1,0-0.1,0-0.2s0-0.1,0-0.1c0,0,0-0.1,0-0.1c0,0,0-0.1,0.1-0.1c0,0,0.2,0,0.3,0L67,41c0-0.1,0.1-0.2,0.2-0.3
		c0.1-0.1,0.2-0.2,0.2-0.3l-0.1-0.1c0,0,0,0,0.1,0s0.1,0,0.1-0.1c0,0,0.1-0.1,0.1-0.1c0,0,0,0,0,0c0,0,0,0,0,0c0,0,0,0,0-0.1
		c0,0,0,0,0-0.1s0,0,0-0.1c0,0,0,0,0.1-0.1c0.1-0.2,0.2-0.5,0.5-0.7l0.4-0.4v-0.1l-0.5,0.2c-0.6,0.4-1.2,1.1-1.9,2.2
		c-0.2,0.4-0.5,0.7-0.8,0.9h-0.3c0-0.1,0.2-0.5,0.7-1.1c0.4-0.6,0.9-1.3,1.4-1.9c0.5-0.6,0.9-1,1.2-1.3c0.3-0.2,0.6-0.5,0.9-0.7
		c0.1-0.2,0.3-0.3,0.4-0.4c0.1-0.1,0.3-0.1,0.3-0.1c0,0,0.1,0.1,0.1,0.2c0,0.1,0,0.1,0.1,0.1c0.2,0,0.6-0.1,1.2-0.2l0.1-0.1
		l-0.1-0.1c0-0.1,0.3-0.3,0.9-0.5c0.2-0.1,0.4-0.1,0.6-0.1c0.2,0,0.3,0,0.4,0.1c0.4,0.1,0.7,0.2,1,0.2s0.6,0.2,1,0.7
		c0.5,0.4,0.9,0.5,1.2,0.5c0.5,0,1.1,0.2,1.8,0.5c0.3,0.2,0.5,0.3,0.6,0.5c0.1,0.1,0.2,0.3,0.4,0.4c0.2,0.2,0.4,0.4,0.5,0.6
		c0.1,0.3,0.2,0.4,0.4,0.4l0.6-0.1c0,0,0.1,0.1,0.2,0.1c0.3,0,0.7-0.1,1.3-0.4c0.4-0.2,1-0.5,1.7-0.7l0.5-0.2c0,0,0,0,0,0h-0.1v0
		l0.1-0.1c0.4-0.1,0.8-0.2,1.3-0.2c0.2,0,0.4,0,0.4,0.1c0,0,0,0.1-0.1,0.1s-0.1,0.1-0.2,0.1c-0.2,0.1-0.3,0.2-0.3,0.3l0.2,0.1
		l0.8-0.2c-0.1,0.1-0.7,0.4-1.8,0.9s-1.7,0.6-1.8,0.6c-0.1,0-0.2,0.1-0.2,0.2c0,0.1-0.1,0.2-0.4,0.2c-0.1,0-0.3,0-0.5,0.1
		c-0.2,0.1-0.5,0.2-0.7,0.4c0.9-0.2,1.9-0.5,3-0.9c1.7-0.6,2.6-0.9,2.6-1.1c0,0,0.1,0,0.2,0c0.1,0,0.1,0,0.2,0.1s0.2,0.1,0.2,0.2
		s0.1,0.2,0.1,0.2v0c0,0-0.2,0.2-0.5,0.5c0,0.1-0.5,0.4-1.4,0.8s-1.5,0.6-1.8,0.7c-0.2,0-0.3,0.1-0.3,0.2s-0.7,0.5-2,1
		c0,0-0.1,0.1-0.4,0.2c-0.1,0-0.3,0.1-0.6,0.3c-0.1,0.1-0.2,0.2-0.2,0.4s0,0.4-0.1,0.7c-0.2,0.9-0.6,2-1.2,3.2
		c-0.5,1.2-1.1,2.1-1.7,3L76,51.7c-1.1,1.6-2.6,3-4.4,4.3c-0.9,0.7-1.4,1.2-1.4,1.3h0.1c0,0,0,0,0,0.1l-0.2,0.1c-0.1,0-0.1,0-0.2,0
		c0,0-0.1-0.1-0.1-0.1c-0.6,0-1.2,0.1-2,0.4C67.6,57.9,67.3,58,67,58z M61.3,51.7L61.3,51.7c0-0.2,0-0.4,0.1-0.8
		c0.2-1,0.4-1.6,0.5-1.9h0.1c0,0,0,0,0,0.1C61.7,50.8,61.5,51.7,61.3,51.7z M62.4,48.2c0-0.2,0.1-0.5,0.4-0.8v0.3
		C62.7,47.7,62.6,47.9,62.4,48.2z M63,49.8h-0.3l-0.1-0.1c0,0,0.1,0,0.2-0.1L63,49.8L63,49.8z M63.1,49.5L63.1,49.5l-0.3-0.1
		l0.1-0.3c0-0.2,0-0.3,0.1-0.3c0,0,0-0.1,0.1-0.1c0,0,0-0.1,0.1-0.1c0,0,0,0,0.1-0.1c0.1-0.1,0.1-0.1,0.2-0.1l-0.2,0.4L63,49.3
		C63,49.4,63,49.4,63.1,49.5C63,49.4,63,49.4,63.1,49.5z M63.3,49.9L63.3,49.9l0.1-0.4c0.2,0,0.3,0,0.3,0.1v0
		C63.6,49.7,63.5,49.8,63.3,49.9z M63.3,46.2l0.1-0.6l0.3-0.6h0.1l-0.2,0.6L63.3,46.2z M63.7,48.9v-0.1c0-0.1,0-0.3,0.1-0.4
		c0.1-0.1,0.2-0.2,0.3-0.2l-0.1,0.5C63.8,48.8,63.8,48.9,63.7,48.9z M63.9,44.7L63.9,44.7c0.1-0.5,0.3-0.9,0.4-1
		c0.6-0.9,0.9-1.4,1.1-1.4C64.4,43.9,64,44.7,63.9,44.7z M65.1,44.8L65.1,44.8c0-0.3,0.2-0.6,0.7-1.1l-0.1-0.1c-0.1,0-0.1,0-0.2,0.1
		s-0.2,0.4-0.4,1L65.1,44.8z M65.8,55.7c0.1,0,0.3-0.1,0.5-0.3c0.1-0.1,0.3-0.3,0.7-0.5c0.9-0.6,1.4-0.9,1.6-0.9s0.3-0.1,0.3-0.2
		s0.1-0.2,0.4-0.2c0.5-0.2,0.8-0.4,0.8-0.6l-0.1-0.1l0-0.1c0.1-0.2,0.2-0.4,0.4-0.4s0.5-0.3,1-0.8c1.1-1.1,1.8-1.6,1.9-1.7
		c0.1,0,0.2-0.1,0.2-0.2s0.1-0.3,0.3-0.5c0.7-1.1,1.1-1.6,1.1-1.6c0,0,0-0.1,0.1-0.2s0.2-0.2,0.2-0.3c0.1-0.1,0.3-0.4,0.7-0.9
		c0.1,0,0.1,0,0.2-0.1s0.1-0.1,0.1-0.2c0-0.2,0-0.3,0.1-0.4c0.1-0.1,0.1-0.2,0.2-0.3c0.1-0.1,0.1-0.2,0.2-0.3
		c0.4-0.8,0.7-1.3,0.7-1.5L77,43.3l-1,0.1c-0.8,0-2-0.1-3.5-0.2L71.8,43c-0.9,0-1.7,0.3-2.2,1c-0.5,0.6-1.2,1.9-2,3.8l-1.3,2.6
		l-0.8,2.5c-0.1,0.1-0.1,0.5-0.2,1.3v0.4C65.3,55.3,65.5,55.7,65.8,55.7z M65.3,44.7c0.1,0,0.2-0.1,0.3-0.3c0.2-0.2,0.2-0.4,0.2-0.5
		l-0.1-0.1C65.5,44.2,65.3,44.5,65.3,44.7z M70.2,52.8c0.1,0,0.1,0,0.1-0.1c0-0.1,0-0.1-0.1-0.1L70,52.7c0,0.1,0,0.1,0,0.1
		C70.1,52.8,70.1,52.8,70.2,52.8z M72.9,52.6c0-0.1,0-0.1,0.1-0.1c0,0,0,0,0.1-0.1v0h-0.3c-0.1,0-0.1,0-0.1,0.1
		C72.6,52.5,72.7,52.6,72.9,52.6z M73.7,52c0.1,0,0.3-0.1,0.6-0.4c0.1-0.1,0.2-0.2,0.4-0.3c0.5-0.6,0.8-0.8,0.8-0.9
		c0,0,0.1-0.1,0.1-0.1l0.6-0.4l-0.4,0.5c-0.2,0.3-0.3,0.5-0.3,0.7l0.1,0.1c0.1,0,0.3-0.2,0.7-0.5c0.4-0.6,0.7-1,0.7-1.1l-0.1-0.1
		l0.1-0.1l0.1,0.1c0.2,0,0.7-0.7,1.5-2.1c0.7-1.4,1.1-2.4,1.1-3c0-0.1,0-0.2,0-0.2s0-0.1,0.1-0.1c0,0,0.1-0.2,0.1-0.7
		c0-0.1,0-0.2-0.1-0.3s-0.2-0.1-0.4-0.1c-0.4,0-0.7,0.3-0.8,0.9c0,0.2-0.1,0.4-0.2,0.5s-0.1,0.2-0.2,0.2H78l0.2,0.2l-0.1,0.1
		c-0.1,0.1-0.2,0.2-0.2,0.4c0,0.1-0.1,0.3-0.2,0.4l-0.1,0c0,0-0.1,0.1-0.1,0.1h0.1c-0.1,0.1-0.3,0.4-0.5,0.7c0,0.2,0,0.4-0.1,0.7
		c-0.1,0.2-0.2,0.3-0.3,0.4c-0.1,0-0.2,0.1-0.2,0.1l0.1,0.1c0,0.1,0,0.1-0.1,0.1h-0.1c0,0,0,0-0.1,0s0,0-0.1,0c0,0-0.1,0.1-0.1,0.1
		l0.1,0.1l0.3-0.1v0.1c0,0,0,0.1-0.1,0.1c-0.1,0-0.1,0.1-0.1,0.1c-0.2,0-0.4,0.1-0.5,0.4c-0.1,0.4-0.2,0.6-0.3,0.6l-0.1-0.1l0.1-0.1
		v-0.1c0,0-0.1,0-0.1,0s-0.1,0.1-0.1,0.3c0,0,0,0.1-0.1,0.1c-0.1,0.2-0.3,0.5-0.6,0.8c-0.6,0.6-0.8,0.9-0.8,1c0,0.1,0,0.2-0.1,0.2
		s-0.1,0-0.1,0.1C73.5,51.9,73.6,52,73.7,52z M73.8,40.8c0.2,0,0.6-0.1,1.3-0.2c1.4-0.3,2.4-0.5,2.8-0.6l-0.9-2l-0.8-0.1
		c-0.3,0-0.5,0.2-0.7,0.7s-0.4,0.7-0.6,0.8c-0.2,0.1-0.5,0.2-0.7,0.5s-0.4,0.5-0.5,0.8v0C73.6,40.7,73.7,40.8,73.8,40.8z M77.3,44.8
		c0,0,0.1,0,0.1-0.1c0,0,0.1-0.1,0.1-0.1s0,0,0.1,0l0.1-0.5c0,0-0.1,0-0.1,0.1c0,0-0.1,0.1-0.1,0.2C77.3,44.5,77.2,44.7,77.3,44.8
		L77.3,44.8z M79.2,39.7c0.3-0.1,0.4-0.2,0.4-0.3l-0.2-0.3c-0.1-0.2-0.2-0.4-0.3-0.5c0-0.1-0.1-0.2-0.2-0.3
		c-0.1-0.1-0.3-0.3-0.6-0.4l0.1,0.5c0,0.1,0,0.1-0.1,0.1h0c-0.1,0-0.1,0.1-0.1,0.2c0,0.5,0.1,0.8,0.3,0.8c0.3-0.1,0.5-0.2,0.8-0.2
		L79.2,39.7L79.2,39.7z"/>
	<path class="st0" d="M84.3,57.6c0,0,0-0.1-0.1-0.3L84,56.9h-0.2c0,0-0.1,0-0.1,0.1c0,0.1,0,0.1-0.1,0.1c-0.2,0-0.3-0.2-0.4-0.6
		c-0.1-0.4-0.3-0.7-0.6-1.1C82.4,55.1,82.2,55,82,55s-0.3-0.1-0.4-0.4c0-0.5,0-0.9,0.1-1.2c0.1-0.9,0.2-1.4,0.3-1.6
		c0.1-0.1,0.2-0.3,0.2-0.6c0-0.1,0-0.2,0-0.2c0-0.3,0.1-0.6,0.2-0.9c0.1-0.3,0.3-1,0.6-2.1c0.3-1,0.5-1.5,0.6-1.5s0.2-0.2,0.2-0.6
		c0-0.4,0.2-0.8,0.4-1.2s0.4-0.5,0.7-0.5c0,0,0,0,0,0.1l-0.1,0.2c-0.1,0.2-0.2,0.4-0.2,0.6s-0.1,0.3-0.2,0.4
		c-0.1,0.1-0.2,0.2-0.2,0.4c0,0.2,0,0.4-0.1,0.6c-0.2,0.5-0.5,1.2-0.8,1.9c-0.7,1.8-1,3-1,3.5c0,0.2,0,0.4-0.1,0.5
		c-0.1,0.2-0.1,0.7-0.1,1.3l-0.1,1c0.5-0.6,0.7-0.9,0.7-1.1l-0.1-0.1l0.2,0c0.1,0,0.2-0.1,0.2-0.1c0,0,0,0,0-0.1L83,53
		c0-0.1,0-0.2,0-0.2s0.1,0,0.3,0s0.3-0.1,0.3-0.4v-0.2l-0.2,0.3c0,0-0.1,0-0.1-0.1c0-0.1,0.1-0.3,0.2-0.4c0.2-0.1,0.3-0.2,0.4-0.4
		s0.2-0.3,0.5-0.4s0.3-0.2,0.3-0.4c0-0.2,0-0.3-0.1-0.3L84.3,51v-0.1c0.2-0.6,0.3-1,0.4-1.1c0.1-0.1,0.2-0.2,0.3-0.2l-0.1-0.7
		c0-0.2,0.1-0.3,0.3-0.3s0.3,0,0.3-0.1l-0.1-0.1c-0.1,0-0.2-0.1-0.2-0.3c0.2-0.6,0.4-1,0.4-1.4l-0.1-0.1c0,0,0,0,0.1,0
		c0,0,0.1,0,0.1,0c0,0,0.1-0.1,0.2-0.3l0.4-1.2l1-3.3c0-0.1,0-0.2,0-0.4c-0.1,0-0.2,0.1-0.3,0.4c-0.1,0.3-0.3,0.5-0.4,0.6
		c-0.1,0.1-0.2,0.2-0.3,0.2c0,0-0.1,0-0.1,0c0,0-0.1,0-0.1,0l-0.1-0.1l0.2-1c0.2-0.6,0.4-1,0.4-1.1s0.1-0.3,0.2-0.5v-0.7l-0.1-0.1
		c-0.1,0-0.2,0.3-0.4,0.9c-0.6,2.1-1.1,3.2-1.3,3.4c0,0.1-0.1,0.3-0.1,0.4c0,0.1,0,0.2-0.1,0.2c-0.1,0-0.2-0.1-0.2-0.2
		c0-0.1,0.2-0.9,0.7-2.2l1-3.4c0.1-0.2,0.2-0.6,0.3-1.2l0.3-1.4c0.1-0.6,0.1-1,0.2-1c0,0,0.1-0.1,0.2-0.1c0.8,0.2,1.2,0.3,1.2,0.4
		c-0.2,0-0.3,0.1-0.3,0.2c0,0,0,0.1,0.1,0.1s0.3,0.1,0.5,0.1s0.4,0,0.5,0.1c0.1,0,0.3,0.1,0.4,0.1s0.3,0.1,0.4,0.3
		c0.1,0.1,0.2,0.5,0.2,1.1l0,0.5l0.1,0.1l-0.3,0.9c0,0.2-0.1,0.6-0.2,1.1s-0.2,0.8-0.3,0.8c0,0-0.1,0.1-0.1,0.2
		c0,0.1-0.1,0.3-0.1,0.5c0,0.3-0.1,0.8-0.3,1.4c-0.3,0.7-0.4,1.2-0.4,1.4s-0.1,0.3-0.2,0.3l-0.1,0.2l0.1,0.2c0.2,0,0.5-0.4,1-1.2
		c1.8-3.1,2.8-4.6,2.9-4.6c0,0.2-0.5,1.1-1.4,2.5l-0.6,1.1c-0.7,1.4-1.3,2.4-1.8,3.1c-0.6,1.2-0.9,2-0.9,2.3c0.1,0,0.2-0.1,0.3-0.3
		c0.1-0.2,0.5-0.7,1-1.3c0.7-0.9,1.1-1.4,1.1-1.5s0.1-0.3,0.3-0.7c0.2-0.4,0.4-0.6,0.5-0.7l0.1-0.1c0.1-0.2,0.1-0.3,0.1-0.4
		s0-0.1,0-0.1s0.1,0,0.2,0c0-0.1,0.1-0.2,0.1-0.3s0.2-0.5,0.6-1c0.1-0.1,0.3-0.3,0.4-0.4c0.1-0.1,0.1-0.3,0.1-0.4s0-0.1,0.1-0.1
		l0.9-1.3c0.7-1.2,1.4-2.3,2.1-3.1c0.7-0.8,1.2-1.3,1.5-1.5c0.2,0,0.4-0.2,0.5-0.4l0.1-0.1h0.4c0.1,0,0.2-0.1,0.3-0.2
		c0.1-0.1,0.2-0.3,0.2-0.4l-0.1-0.1l0.1-0.1c0.1,0,0.2,0.2,0.2,0.5c0,0,0,0,0.1,0s0,0,0-0.1c0,0,0,0,0.1-0.1c0-0.1,0.1-0.3,0.1-0.3
		c0.1-0.1,0.2-0.1,0.4-0.1c1.4,0.2,2.5,0.5,3.2,0.8c0.6,0.2,0.8,0.5,0.8,0.6c0,0.2,0.2,0.3,0.5,0.5s0.5,0.3,0.5,0.5c0,0,0,0,0,0.1
		c0,0,0,0.1,0.1,0.1c0,0.1,0.1,0.1,0.2,0.1c0.1,0.1,0.2,0.3,0.2,0.4c0,0.1-0.1,0.2-0.2,0.2c-0.3,0-0.6-0.2-0.9-0.6
		c-0.2-0.2-0.3-0.4-0.5-0.4s-0.4-0.1-0.7-0.1c-0.5,0-0.9,0.1-1.4,0.2c-0.6,0.2-1.5,0.7-2.6,1.6c-1.1,0.9-1.9,1.7-2.6,2.6
		c-0.2,0.4-0.5,0.8-0.8,1.2c-0.7,1-1,1.5-1,1.5c0,0-0.7,1.2-2.1,3.5l-2.4,3.9c-0.1,0.1-0.2,0.3-0.2,0.4c0,0.1-0.1,0.2-0.2,0.2
		c-0.1,0-0.2,0.1-0.2,0.2c0,0,0,0.2-0.1,0.4c-0.1,0.2-0.2,0.4-0.4,0.6c-0.4,0.5-0.5,0.8-0.5,0.9s-0.1,0.3-0.2,0.4l-0.1,0.3
		c0,0.2,0,0.3,0,0.3s-0.1,0.1-0.3,0.4c-0.2,0.3-0.3,0.6-0.5,0.9c-0.3,0.7-0.7,1.3-1.2,1.9c-0.4,0.6-0.8,0.8-0.9,0.8l-0.2-0.1
		c-0.1,0-0.1,0.1-0.2,0.2C84.5,57.4,84.4,57.5,84.3,57.6z M84.8,45.6c0.5-1.8,0.8-2.8,1.1-2.8H86c0.1,0,0.1,0,0.1,0.1
		c0,0.1-0.1,0.3-0.3,0.5c-0.1,0.3-0.2,0.6-0.2,0.8C85.7,44.6,85.4,45.1,84.8,45.6z M86.5,41.6c0.1,0,0.1,0,0.1-0.1
		c0-0.1,0-0.2-0.1-0.3l-0.1,0.3C86.3,41.6,86.4,41.6,86.5,41.6L86.5,41.6z M86.5,47.3c0.1,0,0.2,0,0.2-0.1c0-0.1-0.1-0.1-0.2-0.1
		l-0.1,0.1L86.5,47.3z M86.9,40.6c0.1,0,0.3-0.2,0.6-0.7C87.1,40.2,86.9,40.4,86.9,40.6z M87.1,50.2l0.4-0.6l0.4-0.8l-0.1-0.1
		l-0.1,0.1c-0.1,0.1-0.2,0.2-0.2,0.4c0,0.2,0,0.2-0.1,0.2h0c-0.1,0.1-0.2,0.2-0.2,0.4V50.2z M88,48.8c0,0,0.1-0.1,0.2-0.2
		c0.1-0.1,0.3-0.5,0.6-1.2h-0.1c-0.2,0-0.4,0.3-0.6,0.8C88.1,48.5,88,48.7,88,48.8z M89.1,47.1c0.1,0,0.3-0.3,0.7-0.8
		c0.4-0.5,0.5-0.8,0.5-0.9c0-0.1,0.2-0.4,0.7-0.9c0.5-0.5,0.8-1.1,1.2-1.7c0.1-0.1,0.5-0.6,1.1-1.6c0.6-0.9,0.9-1.4,0.9-1.5
		s0.3-0.4,0.8-1.1l1.5-1.8c1-1.1,1.7-1.7,2-1.8c0.2-0.1,0.3-0.2,0.3-0.3c0-0.1-0.1-0.1-0.2-0.2c-0.2,0-0.3,0.1-0.4,0.2
		c-0.1,0.1-0.2,0.2-0.3,0.2c0,0-0.4,0.4-1.1,1.1c-0.9,0.9-1.5,1.6-1.9,2c-0.4,0.4-0.5,0.7-0.5,0.8l0.1,0.1c0,0-0.1,0-0.2,0.1
		s-0.3,0.2-0.5,0.4c-0.3,0.3-0.5,0.4-0.6,0.4s-0.1,0-0.1,0.1l0.1,0.1c0,0.1-0.3,0.7-0.8,1.7c-0.6,0.9-0.9,1.5-0.9,1.7l0.1,0.1h-0.1
		c-0.1,0-0.2,0.1-0.3,0.2s-0.2,0.2-0.2,0.3s-0.1,0.2-0.1,0.2c0,0-0.1,0.1-0.1,0.1c-0.2,0.3-0.4,0.6-0.7,0.9
		C89.4,46.2,89.1,46.8,89.1,47.1z M92.4,38.2l0.7-0.8c0,0,0.1,0,0.1,0.1C93.1,37.8,92.9,38,92.4,38.2z M93.4,36.8L93.4,36.8
		c0.2-0.5,0.7-1,1.3-1.6c0.6-0.6,1.3-1.1,1.9-1.5l1.1-0.6h0.1c0,0.1-0.2,0.2-0.6,0.4c-0.8,0.4-1.8,1.3-3.1,2.6
		C93.8,36.6,93.6,36.8,93.4,36.8z M99,34.5c0.1,0,0.2,0,0.2-0.1c0-0.1,0-0.2,0-0.2c0-0.1,0.1-0.2,0.4-0.3c0.3-0.1,0.5-0.1,0.6-0.2
		c0.1,0,0.2-0.1,0.2-0.3l-0.1-0.1c-0.5,0.3-1,0.5-1.4,0.5c-0.3,0.1-0.4,0.3-0.4,0.4C98.6,34.3,98.7,34.4,99,34.5z"/>
	<path class="st0" d="M110.5,58.6c-0.5,0-1.1-0.1-1.8-0.2s-1.2-0.3-1.5-0.4c-0.3-0.2-0.6-0.2-0.7-0.3l0,0c-0.2,0-0.4-0.1-0.7-0.4
		c-0.2-0.4-0.4-0.6-0.7-0.7c-0.1,0-0.2-0.1-0.3-0.2s-0.1-0.2-0.1-0.2c0-0.1-0.1-0.1-0.2-0.1l-0.1,0.1l0.1-0.2c0,0,0,0-0.1,0
		s0,0-0.1,0c0,0-0.1-0.3-0.3-0.8s-0.3-1.1-0.3-1.8c0-0.5,0-1,0.1-1.5c0.1-0.5,0.2-0.7,0.3-0.7l0.1,0.1l-0.1-0.3
		c0-0.4,0.2-1.4,0.7-2.8c0.4-1.4,0.7-2.1,0.7-2.1c0,0.2,0.1,0.4,0.1,0.5c0,0.2,0,0.4-0.1,0.5c0,0.1-0.1,0.2-0.1,0.2
		c0,0-0.1,0.1-0.1,0.2l0.1,0.1c0,0-0.1,0-0.1,0.1c0,0-0.1,0.2-0.1,0.6c0,0.3-0.1,0.6-0.4,0.9l0.1,0.1c0,0.2-0.1,0.3-0.1,0.5
		c0,0.1-0.1,0.6-0.3,1.3c-0.1,0.7-0.2,1.1-0.3,1.3c0,0.1-0.1,0.2-0.1,0.3c0,0.1-0.1,0.2-0.2,0.3l0.1,0.2c0.1,0,0.2,0.3,0.2,0.8
		c0,0.1,0.1,0.1,0.3,0.1l-0.3,0.3l0.3-0.1l0.1,0.1c0,0.3,0,0.5,0,0.5s0.1,0.1,0.1,0.1l0.1-0.1c0,0-0.1,0-0.1-0.1s-0.1-0.1-0.1-0.3
		c0-0.1,0.1-0.5,0.2-1.4c0.3-2.2,1.2-4.9,2.6-8.2l0.1-0.5h0c0.1,0,0.2-0.1,0.2-0.2l-0.1-0.2l0.2-0.1l-0.1-0.1c0-0.1,0-0.1,0-0.1h0.1
		l0.1,0.1l0.1-0.1l-0.1-0.5l0.3,0.1h0v-0.5c0-0.4,0.1-0.6,0.2-0.7c0.1,0,0.2-0.2,0.3-0.7c0-0.3,0.1-0.5,0.1-0.5
		c0.2-0.2,0.3-0.6,0.5-1.2c0.1-0.6,0.3-0.9,0.4-0.9l0.2,0.1l-0.1-0.4c0.1,0,0.1-0.1,0.2-0.1s0.1,0,0.1-0.1c0-0.1,0-0.1,0-0.1
		l0.1,0.1c0,0.1-0.1,0.5-0.3,0.9c-0.5,1.4-0.9,2.3-1.2,2.8c-0.1,0.3-0.3,0.7-0.4,1.3l-0.5,1.3c-0.4,1.1-0.7,1.8-0.8,2
		c-0.1,0.2-0.2,0.3-0.4,0.3l-0.1,0.3c0,0.1,0,0.2,0.1,0.2l0.1,0c-0.1,0.1-0.2,0.3-0.2,0.5c0,0.4-0.2,1.2-0.6,2.4
		c-0.4,1.4-0.6,2.6-0.6,3.5c0,0.7,0.1,1.2,0.3,1.6l0.2,0.6v-1.4c0-0.4,0.1-0.8,0.2-1.3l0.1-0.9l0.7-2.1c0.1-0.6,0.2-1,0.4-1.1
		c0,0,0.1-0.5,0.3-1.3c0.1-0.6,0.2-0.9,0.2-0.9c0.1,0,0.4-0.6,0.8-1.8c1.4-3.5,2.3-5.5,2.5-6.1c0.8-2,1.4-3.3,1.7-4
		c0.1-0.5,0.2-0.8,0.4-1.1c3.3-7.3,5-11,5-11.2l1.6-3.1c-0.3,0-0.6,0-0.8,0.1c0,0-0.6,1.2-1.8,3.7l-2.9,6c-0.3,0.6-0.5,1-0.6,1.3
		c-0.1,0.2-0.3,0.4-0.4,0.4c-0.1,0-0.1,0-0.1-0.1c0-0.3,0.1-0.6,0.3-0.9c0.1-0.2,0.2-0.4,0.4-0.4c0.2-0.1,0.4-0.3,0.5-0.7
		c-0.1,0-0.3,0.2-0.6,0.5c0-0.2,0.3-0.7,0.8-1.5c0.5-0.7,0.7-1.2,0.7-1.4s0-0.4,0.1-0.5c0.2-0.6,0.4-0.8,0.5-0.8
		c0.1,0,0.2,0,0.2-0.1c0-0.1-0.1-0.1-0.2-0.1c0-0.1,0-0.3,0.1-0.4c0.1-0.3,0.3-0.5,0.4-0.5c0,0,0.1-0.1,0.1-0.2c0-0.7,0.6-2,1.8-4.1
		h-0.9c0,0.2,0,0.3-0.1,0.3l-0.3-0.1c0,0,0,0,0,0v0.4c0,0,0,0.1-0.1,0.1s-0.1,0-0.1,0.1l0.1,0.3c0,0-0.1,0.1-0.2,0.2
		s-0.2,0.1-0.2,0.2l0.1,0.4c0,0.1-0.1,0.3-0.2,0.4c-0.4,0.1-0.6,0.5-0.7,0.9c0,0.2-0.1,0.4-0.2,0.4c-0.1,0.1-0.2,0.1-0.2,0.2l0.1,0
		c0.1,0,0.1,0.1,0.1,0.3c0,0.1-0.1,0.3-0.4,0.6c-0.3,0.2-0.4,0.4-0.4,0.5l0.1,0.3l-0.2-0.1c0,0-0.1,0.2-0.1,0.6
		c0,0.1-0.2,0.7-0.7,1.7c-0.5,1-0.8,1.5-0.8,1.5c0-0.4,0.3-1.2,0.9-2.6c1.2-2.7,2.2-4.9,3.1-6.5h-0.4c-2.8,0.1-5.1,0.3-7,0.5
		c-1.6,0.2-2.8,0.3-3.9,0.3c-1,0-1.8-0.2-2.3-0.5s-0.8-1-1-1.9v-0.2c0-0.4,0.3-0.8,0.8-1c0.4-0.2,0.6-0.3,0.8-0.3
		c0-0.1,0-0.1,0.1-0.1c0,0.1,0.3,0.2,1,0.2c0.5,0,1.4-0.1,2.7-0.3h0.5c0.2,0,0.4,0,0.5,0.1l0.1,0c0.2-0.2,0.5-0.3,0.8-0.3
		c0.2,0,0.4,0.1,0.5,0.2c0,0,0.1,0,0.1,0.1c0,0,0.1,0.1,0.1,0.1v-0.1c0,0,0-0.1,0.1-0.1c0.3,0,0.7,0.1,1.1,0.4
		c0.1-0.3,0.3-0.4,0.4-0.4l0.6,0.1c-0.2,0-0.4,0.1-0.5,0.1c-0.1,0-0.2,0.1-0.2,0.1c0.2,0,0.9-0.2,1.9-0.5c0,0-0.1,0.1-0.2,0.2
		c-0.1,0.1-0.1,0.2-0.1,0.3c0,0,0,0.1,0.1,0.1c0.2-0.1,0.5-0.1,1-0.1c0.6,0,0.9,0,1-0.1c0,0,0.2-0.1,0.4-0.1l0.9,0.1l0.2-0.1
		c0.1,0,0.6,0,1.2,0.1c0.3-0.7,0.5-1.1,0.6-1.2c0.1-0.1,0.1-0.2,0.1-0.2c0,0.1-0.2,0.6-0.7,1.4h0.4l0.1-0.2v0.2c0.1,0,0.1,0,0.2,0
		c0,0,0.1,0,0.1,0c0,0,0.1,0,0.1,0c0,0,0.1,0,0.1,0h1.1c0.5-1.1,0.8-1.8,0.9-2v0c0,0,0.1,0,0.1-0.1s0-0.1,0.1-0.2
		c0.1-0.1,0.2-0.3,0.3-0.5c1.9-3.1,2.8-4.9,2.8-5.4c0-0.1,0-0.1-0.1-0.1c-0.1,0-0.4,0.4-0.9,1.3c-0.5,0.9-0.8,1.3-0.8,1.3
		s0,0.1,0,0.1c0,0,0,0.1-0.1,0.1c-0.2,0.2-0.3,0.4-0.3,0.4l0.2-0.5c0,0-0.1,0-0.1,0.1c-0.2,0.3-0.4,0.5-0.4,0.7l0.1,0.3
		c0,0.1-0.1,0.2-0.3,0.2c-0.2,0-0.3,0-0.3,0.1l0.1,0.1c-0.1,0-0.3,0-0.6,0.1c0-0.1,0.2-0.5,0.6-1.2c0.2-0.4,0.4-0.6,0.4-0.7
		c0,0-0.3,0.4-0.8,1.2l-1.1,1.8c-0.7,1.1-1.1,1.7-1.1,1.7c0-0.1,0.8-1.5,2.3-4.2c2.2-3.8,3.6-6,4.4-6.5c0.4-0.2,0.8-0.4,1.2-0.4h1.5
		c0.7,0.5,1.1,0.9,1.4,1c0.3,0.2,0.4,0.4,0.4,0.6c-0.2,0.5-0.5,1-0.9,1.4l-0.8,1c-0.9,1.2-2.6,4.1-5.1,8.6l3.2,0.3
		c3.4,0.3,5.1,0.5,5.3,0.8c0,0.2,0.2,0.3,0.5,0.3c0.3,0.1,0.4,0.2,0.4,0.4l-0.1,0.3c0,0.2,0.1,0.4,0.3,0.5c0.2,0.2,0.3,0.4,0.3,0.5
		c0,0.4-0.5,0.6-1.6,0.6c-1.4,0-2.8-0.1-4.2-0.4c-0.7-0.1-1-0.2-1.1-0.4c0,0-0.1-0.1-0.1-0.1l0.1,0.4c0,0,0,0.1-0.1,0.1
		c-0.1,0-0.3-0.1-0.4-0.3l0-0.1h-0.1l0,0.1c0,0.1-0.1,0.2-0.2,0.2c-0.1,0-0.3,0-0.4-0.1s-0.2-0.1-0.2-0.2l0.1-0.1l-0.1-0.1
		c-0.3,0-0.4,0-0.4,0.1c0,0.1,0,0.1,0,0.2c0,0.1,0,0.1,0,0.2c-1.5,0-2.4,0-2.9,0.1c-2,4-4.1,8.1-6,12.5c-2,4.3-3.6,8.1-5,11.4
		s-2,5.2-2,5.7l0.1,0.2c0,0.1,0,0.2-0.1,0.4c-0.2,0.4-0.4,1.3-0.8,2.8c-0.2,0.9-0.3,1.6-0.3,2.2c0,0.4,0.1,0.7,0.2,1.1
		c0.1,0.3,0.3,0.5,0.4,0.5c0.1,0,0.2,0.1,0.3,0.1c0.6,0,1.7-0.5,3.2-1.5c0.3-0.2,0.6-0.4,0.9-0.6c0.3-0.2,0.5-0.4,0.8-0.6
		c0.3-0.2,0.4-0.3,0.5-0.3s0.2-0.1,0.4-0.2c0.2-0.1,0.7-0.5,1.5-1.1c0.2-0.2,0.4-0.3,0.5-0.3l0.2,0.3c0,0,0,0,0,0
		c0-0.2,0.2-0.6,0.7-1.2c0.6-0.7,1-1,1.2-1l0.1,0.1c-0.2,0.3-0.4,0.7-0.7,1l0.4-0.3c0.7-0.6,1.2-0.9,1.4-0.9c0,0,0.1,0,0.1,0.1
		c0,0,0,0.1-0.1,0.1s-0.2,0.1-0.3,0.3c0,0.2-0.1,0.3-0.2,0.3c0,0-0.1,0-0.2-0.1l0.1,0.1c0,0.1,0,0.2-0.1,0.2s-0.2,0.2-0.3,0.2
		c-0.1,0.1-0.2,0.1-0.3,0.1l-0.1-0.1v0.1l0.1,0.1l-0.4,0.4l-0.1,0.3l0.2-0.1c0,0.1-0.1,0.3-0.3,0.5l-0.2,0.4c0,0.1,0,0.1,0.1,0.1
		c0.1,0,0.2-0.1,0.2-0.2c0.3,0,0.6-0.2,0.9-0.5c0.4-0.3,0.8-0.5,0.9-0.5c0.1,0,0.1,0,0.2,0c0.2,0,0.5-0.3,0.9-0.8l0.4-0.4l-0.7,0.4
		c-0.1,0-0.1,0-0.1-0.1c0-0.1,0.1-0.3,0.3-0.5c0.2-0.2,0.3-0.3,0.5-0.4c0.1-0.1,0.2-0.2,0.2-0.3c0-0.1,0.1-0.3,0.4-0.6
		c0.3-0.3,0.6-0.7,1.1-1.4c0.4-0.5,0.7-0.9,0.9-1.1c0.1-0.1,0.2-0.2,0.2-0.2c0,0,0.1-0.2,0.1-0.4h0.1c0.1,0,0.1,0,0.1-0.1
		s0-0.2,0.1-0.2l-0.1-0.1c-0.2,0-0.3,0.1-0.4,0.3c-0.1,0.3-1,1.4-2.6,3.2c-1.6,1.8-2.5,2.6-2.7,2.6c0-0.1,1.8-2.2,5.3-6.3
		c0.8-1.1,1.3-1.6,1.4-1.7s0.2-0.1,0.3-0.1c0.2,0,0.4,0.2,0.4,0.7c-0.1,0.2-0.2,0.4-0.3,0.5c-0.3,0.3-0.7,0.9-1.2,1.7
		c-0.3,0.3-0.5,0.7-0.8,0.9c-0.3,0.3-0.4,0.5-0.4,0.5l0.1,0.1c0,0.2-0.5,0.8-1.4,1.9c-0.6,0.9-0.9,1.3-0.9,1.4l0.6-0.6
		c0,0-0.1,0.2-0.3,0.5l-0.4,0.5c-0.9,1.1-1.4,1.6-1.6,1.6c-0.2,0-0.4,0-0.5,0.1V54l0.2-0.1c0,0.1-0.5,0.5-1.4,1.4
		c-1.1,0.9-1.9,1.5-2.4,1.8c-0.5,0.2-1.1,0.5-1.9,0.8c-0.8,0.3-1.3,0.4-1.5,0.4s-0.4,0.1-0.6,0.2c0,0,0,0-0.1,0.1
		C110.7,58.6,110.6,58.6,110.5,58.6z M103.4,53L103.4,53c-0.1-0.2,0-0.3,0-0.4l0.1,0.1L103.4,53z M103.6,16.6L103.6,16.6
		c-0.1,0-0.1,0-0.1-0.1c0-0.2,0.1-0.3,0.3-0.3c0.1,0,0.2,0,0.2,0.1C103.8,16.5,103.7,16.6,103.6,16.6z M103.5,51.8v-0.4
		c0.1-0.8,0.3-1.4,0.4-1.8l0.1-0.3c0.1-0.2,0.1-0.3,0.1-0.3L103.5,51.8z M104.2,52.5l0.1-0.2c0-0.1,0-0.2-0.1-0.2h0.1
		C104.2,52.1,104.1,52.2,104.2,52.5L104.2,52.5z M105,55.9l-0.1-0.1c-0.2-0.2-0.4-0.4-0.4-0.5V55l0,0c-0.1,0-0.2,0.1-0.2,0.3
		c0,0.1,0.1,0.2,0.2,0.3c0.1,0.1,0.2,0.2,0.3,0.2C104.9,55.9,104.9,55.9,105,55.9z M104.6,48.1l-0.1-0.3l0.1-0.1
		c0.1,0,0.2,0.1,0.2,0.2L104.6,48.1z M104.9,47L104.9,47l-0.1-0.4c0.1,0,0.1,0,0.1,0.1L104.9,47z M105.3,45.5c0-0.1,0.2-0.8,0.7-2
		c0.5-1.3,0.8-1.9,0.9-1.9v0.1l-0.2,0.5l-0.5,1.5C105.6,44.9,105.4,45.5,105.3,45.5z M105.8,45.7L105.8,45.7
		c-0.1-0.3,0.1-0.8,0.4-1.5l0.2-0.5c0,0.6-0.1,1.1-0.2,1.5C106.1,45.5,106,45.7,105.8,45.7z M106.9,41.5L106.9,41.5l-0.2-0.1
		c0-0.1,0-0.2,0.1-0.2c0.1,0,0.1,0,0.1,0.1v0L106.9,41.5L106.9,41.5z M106.8,43L106.8,43c-0.1-0.1,0-0.2,0-0.3
		c0.1-0.1,0.1-0.2,0.2-0.3s0.2-0.1,0.2-0.1c0.1,0,0.1,0,0.1,0.1C107.3,42.5,107.1,42.7,106.8,43z M107,41h-0.1c0-0.1,0-0.2,0.1-0.4
		c0,0,0,0,0-0.1s0,0,0,0l0.1,0.1C107.2,40.9,107.1,41,107,41z M107,52.7l0.2-0.3l-0.1-0.1c0,0,0,0-0.1,0.1c0,0,0,0,0,0s0,0-0.1,0.1
		S106.9,52.6,107,52.7C106.9,52.7,106.9,52.7,107,52.7z M107,17.3l1.7-0.1l0.3-0.1c0,0-0.1,0-0.3-0.1c-0.2,0-0.4,0-0.7,0.1
		s-0.5,0.1-0.7,0.1C107.2,17.2,107,17.3,107,17.3z M107.2,52.2l0.1-0.2l-0.1-0.1h-0.1h0.1c0,0-0.1,0-0.1,0.1
		C107.1,52.1,107.1,52.2,107.2,52.2z M107.3,40.4L107.3,40.4l0.1-0.7l0.1,0.1c0,0.1,0,0.1,0,0.2c0,0,0,0.1,0,0.1c0,0,0,0.1,0,0.1
		C107.4,40.4,107.3,40.4,107.3,40.4z M107.2,41.9v-0.3c0.3-0.8,0.5-1.2,0.5-1.2l-0.1,0.4l0.3-0.1v0.1c-0.1,0.2-0.1,0.3-0.2,0.5
		c0,0.1-0.1,0.2-0.1,0.3c0,0.1-0.1,0.1-0.2,0.1S107.3,41.7,107.2,41.9z M107.3,51.7c0.1,0,0.2-0.2,0.2-0.5l0-0.4
		c0,0-0.1,0.1-0.2,0.3c-0.1,0.2-0.1,0.4-0.1,0.4C107.2,51.6,107.2,51.7,107.3,51.7z M107.6,50.4c0.1,0,0.2-0.2,0.4-0.7
		c0.1-0.2,0.1-0.4,0.1-0.6c-0.1,0-0.1,0.1-0.2,0.4S107.7,50.1,107.6,50.4z M107.8,39c0-0.1,0.1-0.3,0.2-0.7c0.2-0.4,0.3-0.6,0.3-0.6
		c0,0,0.1,0,0.1,0.1L107.8,39z M108,40.5c0-0.1,0-0.2-0.1-0.2c0-0.1-0.1-0.1-0.1-0.2c0,0,0-0.1,0-0.1c0,0,0.1-0.1,0.2-0.1
		c0.1,0,0.2,0,0.2-0.1c0-0.1,0-0.1,0.1-0.1H108c0,0,0-0.1,0.1-0.1c0-0.1,0.1-0.2,0.1-0.3c0-0.1,0.1-0.2,0.1-0.2l0.3,0.1h-0.1
		c-0.1,0-0.1,0-0.1,0.1l0.1,0.3c0,0.3-0.1,0.6-0.3,0.8C108,40.4,108,40.5,108,40.5z M108.3,16.8C108.3,16.8,108.3,16.7,108.3,16.8
		c0-0.1-0.1-0.1-0.4-0.1l-0.1,0.1H108.3z M108.2,48.5c0.1,0,0.2-0.1,0.3-0.3s0.1-0.4,0.1-0.4l-0.1,0.1c-0.3,0.3-0.4,0.5-0.4,0.5
		S108,48.5,108.2,48.5L108.2,48.5z M108.5,38.8L108.5,38.8l-0.1-0.1l0.1-0.3c0,0,0.1,0,0.1,0.1C108.6,38.7,108.6,38.8,108.5,38.8z
		 M108.4,47.6c0,0,0.1-0.1,0.2-0.2c0.1-0.2,0.2-0.3,0.2-0.5c0.1-0.2,0.1-0.4,0.1-0.5c0-0.1,0-0.1-0.1-0.1c-0.1,0-0.1,0-0.1,0.1
		c0,0.1,0,0.1,0,0.1S108.6,46.8,108.4,47.6z M108.5,37.4l-0.1-0.2l0.1-0.1h0c0,0,0,0.1,0,0.2C108.6,37.4,108.6,37.4,108.5,37.4z
		 M108.7,42.5l0.1-0.1c0-0.1,0-0.2-0.1-0.2C108.6,42.4,108.6,42.5,108.7,42.5z M109,18.4c0.1,0,0.1,0,0.1-0.1l-0.1-0.1l-0.2,0.1
		L109,18.4z M109.2,37.8l-0.1-0.1c0,0,0-0.1-0.1-0.1c0,0,0-0.1-0.1-0.1l-0.2,0.1c0-0.3,0.1-0.4,0.2-0.4c0.1,0,0.2,0.1,0.2,0.3
		C109.2,37.7,109.2,37.8,109.2,37.8z M108.8,36.6v-0.1c0-0.2,0-0.4,0.1-0.4c0,0,0.1-0.1,0.1-0.1c0,0,0,0,0.1-0.1c0,0.2,0,0.3,0,0.4
		C108.9,36.5,108.9,36.6,108.8,36.6z M109.1,46c0,0,0.1-0.2,0.2-0.5c0.8-1.7,1.1-2.7,1.1-3.1c0,0-0.1,0.1-0.3,0.4
		c-0.4,0.8-0.7,1.4-0.7,1.8l-0.1,0.4C109.2,45.6,109.1,45.9,109.1,46z M109.3,17l1.7-0.2l-0.7,0C109.8,16.8,109.5,16.9,109.3,17z
		 M109.3,35.4L109.3,35.4c0-0.2,0-0.4,0.1-0.5c0.1-0.2,0.2-0.3,0.3-0.5c0.1-0.1,0.2-0.2,0.2-0.2l-0.1,0.4
		C109.6,35.1,109.4,35.4,109.3,35.4z M109.7,18.4c0.3,0,0.4,0,0.4-0.1l-0.7-0.1c-0.1,0-0.1,0-0.1,0.1c0,0.1,0.1,0.1,0.3,0.1H109.7z
		 M109.5,36.4c0-0.1,0-0.3,0.1-0.5c0.1-0.3,0.2-0.5,0.3-0.5l0.1,0.2l-0.1,0.5c0,0,0,0.1-0.1,0.1c0,0,0,0.1-0.1,0.1v-0.1
		C109.7,36.3,109.6,36.4,109.5,36.4z M110.1,34.9L110.1,34.9L110.1,34.9c-0.1,0-0.1-0.1-0.1-0.1l0.1-0.3c1.1-3.1,1.8-4.7,2.2-4.7
		c0.1,0,0.1,0,0.1,0.1c0,0.1,0,0.1-0.1,0.1c0,0-0.1,0-0.2-0.1v0.6l-0.2-0.1L112,31l-0.1-0.1c-0.1,0-0.1,0.1-0.2,0.3
		s-0.1,0.4-0.1,0.6c0,0.3,0,0.4-0.1,0.4s-0.1,0-0.2,0c0,0-0.1,0.1-0.1,0.1c0,0,0,0.1,0.1,0.1c0.1,0,0.1,0,0.1,0.1c0,0,0,0.1,0,0.1
		c0,0,0,0.1,0,0.1c-0.2,0.5-0.4,0.7-0.5,0.7v-0.1c-0.1,0-0.2,0.2-0.3,0.6c0,0.2-0.1,0.4-0.1,0.7l-0.2-0.2
		C110.3,34.7,110.2,34.9,110.1,34.9z M110.2,33.6C110.2,33.6,110.1,33.6,110.2,33.6c-0.1-0.1-0.1-0.2-0.1-0.3c0,0,0,0,0.1,0
		S110.2,33.4,110.2,33.6z M110.3,37.9C110.2,37.9,110.2,37.9,110.3,37.9c-0.1-0.1,0-0.2,0.3-0.4c0.2-0.2,0.3-0.5,0.4-0.9
		c0-0.2,0.1-0.3,0.1-0.3v-0.4c0-0.3,0.2-0.6,0.5-0.9c0.1-0.1,0.2-0.1,0.3-0.1l-0.3,0.3c-0.1,0.1-0.2,0.2-0.3,0.3
		c0,0.1-0.1,0.2-0.1,0.3c0.1,0,0.2-0.1,0.3-0.2v0.1c-0.6,1.2-0.8,1.8-0.8,1.9s0,0.1-0.1,0.2C110.5,37.9,110.4,37.9,110.3,37.9z
		 M111.8,18.4c0.8,0,2.7-0.1,5.5-0.3l0.1-0.4c-3.9,0.1-6.2,0.3-6.8,0.4l-0.4,0C110.7,18.3,111.2,18.4,111.8,18.4z M110.6,42.3
		C110.6,42.3,110.6,42.3,110.6,42.3c0-0.3,0-0.4,0-0.4c-0.1,0-0.1,0-0.1,0.1C110.4,42.3,110.5,42.3,110.6,42.3z M110.6,41.8
		C110.7,41.8,110.7,41.8,110.6,41.8c0.1-0.1,0.1-0.1,0.1-0.1c0-0.1,0-0.2-0.1-0.2s-0.1,0-0.1,0.1c0,0.1,0,0.1,0,0.2
		C110.5,41.8,110.5,41.8,110.6,41.8z M111,41.3c0.1,0,0.2-0.2,0.2-0.5s0.1-0.5,0.1-0.5s0.2-0.2,0.3-0.5c0,0,0-0.1,0-0.1
		c0-0.1,0-0.1,0-0.2c0,0-0.1,0.1-0.2,0.1s-0.1,0.1-0.1,0.2c-0.4,0.7-0.6,1.2-0.6,1.4c0,0,0,0.1,0.1,0.1
		C110.9,41.3,110.9,41.3,111,41.3z M112.3,17.4l-0.4-0.1h-0.3C111.7,17.4,111.9,17.4,112.3,17.4z M111.6,34.7L111.6,34.7l-0.1-0.1
		l1.1-2.4c0-0.4,0.1-0.6,0.2-0.6l0.2,0.1v-0.3c0-0.1,0-0.1,0.1-0.1s0.1,0.1,0.1,0.3l-0.1,0.5c-0.8,1.5-1.2,2.2-1.2,2.2h-0.1
		c-0.1,0-0.1,0-0.1,0.1C111.8,34.7,111.7,34.7,111.6,34.7z M111.8,39.1c0,0,0.1,0,0.2-0.1s0.1-0.1,0.2-0.2c0-0.1,0.1-0.1,0.1-0.2
		s0-0.1,0-0.1h-0.1C111.8,38.7,111.7,38.9,111.8,39.1L111.8,39.1z M112.3,38c0-0.1,0.1-0.2,0.2-0.4c0.1-0.1,0.2-0.2,0.2-0.4v-0.1
		c0,0-0.2-0.1-0.4-0.1V38z M113,17.4c0.2,0,0.4,0,0.4-0.1c0,0-0.1,0-0.2-0.1l-0.6,0.1c0,0.1,0.1,0.1,0.3,0.1H113z M113,26.9
		L113,26.9c-0.1-0.1,0-0.2,0-0.3s0.1-0.1,0.2-0.1L113,26.9z M113.1,36.2l0.4-0.9c0.3-0.6,0.4-1,0.4-1.2c0,0,0-0.1-0.1-0.1
		c-0.1,0.1-0.1,0.2-0.1,0.4c0,0.1-0.1,0.2-0.2,0.2l-0.1,0.1c0,0.2,0,0.5-0.1,0.7C113.2,35.8,113.1,36,113.1,36.2z M114.2,16.2H114
		c-0.1,0-0.2,0-0.2-0.1h0.3C114.2,16.1,114.2,16.1,114.2,16.2z M114.4,17.4c0.1,0,0.2,0,0.3-0.1c0-0.1-0.1-0.1-0.4-0.1
		c-0.3,0-0.4,0-0.4,0.1C114,17.3,114.2,17.4,114.4,17.4z M113.9,33.6c0,0,0.1-0.1,0.3-0.4c0.3-0.5,0.6-1.1,0.9-1.7
		c0.1-0.3,0.2-0.5,0.2-0.6l-0.1,0.1c-0.2,0.2-0.5,0.9-1.1,2.2C114,33.4,113.9,33.5,113.9,33.6z M114.6,23.5L114.6,23.5
		c0.1-0.3,0.2-0.4,0.3-0.4c0,0.1,0,0.2-0.1,0.2C114.8,23.4,114.7,23.5,114.6,23.5z M114.8,24.6L114.8,24.6c0.2-0.1,0.2-0.2,0.2-0.3
		c0,0,0-0.1-0.1-0.1C114.9,24.2,114.8,24.3,114.8,24.6z M115.3,17.4c0.2,0,0.4,0,0.4-0.1c0.1,0,0.1-0.1,0.1-0.1h-1
		c0,0.1,0.1,0.1,0.3,0.1H115.3z M115.7,21.1c0-0.1,0.1-0.3,0.2-0.4c0,0,0.1-0.1,0.1-0.1c0,0.1,0,0.2-0.1,0.3
		C115.8,21.1,115.8,21.1,115.7,21.1z M116.2,53.9c0.5-0.4,0.8-0.6,0.8-0.7C116.8,53.2,116.5,53.4,116.2,53.9L116.2,53.9z
		 M116.7,17.2C116.7,17.2,116.7,17.2,116.7,17.2C116.8,17.2,116.8,17.2,116.7,17.2l-0.5-0.1C116.3,17.2,116.5,17.2,116.7,17.2z
		 M116.8,27.8l0.2-0.4v-0.1C116.8,27.4,116.8,27.6,116.8,27.8z M117.7,17.3l0.1-0.1l-0.7,0.1C117.1,17.3,117.3,17.3,117.7,17.3z
		 M117.5,18.1l0.3-0.1l0.2-0.3h-0.4L117.5,18.1z M118.1,17.3l0.1-0.1h-0.4l-0.1,0.1H118.1z M118.1,53.2l0.1-0.1c0,0,0.1-0.1,0.2-0.1
		c0.1-0.1,0.2-0.1,0.3-0.2c0.1-0.1,0.2-0.2,0.2-0.2l-0.1,0c-0.2,0.1-0.4,0.2-0.5,0.3C118.2,53,118.1,53.1,118.1,53.2z M118.2,18
		c0.8,0,1.3,0,1.3-0.1s0-0.2,0.1-0.2h-1.4V18z M118.2,24.7l0.5-1l0.6-1.3h-0.1c-0.4,0.6-0.6,0.8-0.6,0.8h-0.1c0,0.1-0.1,0.4-0.2,0.8
		C118.2,24.4,118.2,24.6,118.2,24.7z M118.7,50.1c-0.1,0-0.2-0.1-0.2-0.3c0,0,0-0.1,0-0.2l0.1,0.1c0.1,0,0.3-0.2,0.8-0.7
		c1.2-1.3,1.8-1.9,1.9-1.9c0,0.1-0.7,1-2.2,2.7C118.8,50,118.7,50.1,118.7,50.1z M118.4,49.1c0,0,0-0.1,0.1-0.2
		c0-0.1,0.1-0.1,0.1-0.2c0,0,0.1-0.1,0.1-0.1c0,0,0.1-0.1,0.1-0.1c0,0,0,0,0.1-0.1h0.1L118.4,49.1z M118.9,17.3c0.4,0,0.6,0,0.6-0.1
		c0-0.1-0.3-0.1-0.8-0.1c0,0.1-0.1,0.2-0.2,0.2H118.9z M118.9,53.3c0,0,0.2-0.1,0.5-0.4c0.3-0.3,0.5-0.4,0.5-0.5
		c-0.1,0-0.2,0.1-0.4,0.2c-0.2,0.1-0.3,0.2-0.5,0.4C118.9,53.1,118.8,53.3,118.9,53.3L118.9,53.3z M119,20.9L119,20.9
		c-0.1-0.1,0-0.2,0-0.3h0c0,0,0.1,0,0.1,0.1C119.2,20.7,119.1,20.8,119,20.9C119.1,20.9,119,20.9,119,20.9z M118.9,48.3l0.4-0.4
		c0,0,0.1,0,0.1,0c0,0,0,0,0,0.1c0,0,0,0,0,0.1c0,0,0,0-0.1,0.1c0,0-0.1,0-0.1,0.1c-0.1,0-0.1,0.1-0.2,0.1
		C119,48.3,119,48.3,118.9,48.3z M119.3,15.6L119.3,15.6l-0.1-0.3l0.1,0.1L119.3,15.6z M119.4,49.8L119.4,49.8
		c0.3-0.4,0.7-0.8,1.1-1.3l0.9-0.9c0,0.1-0.3,0.5-0.8,1.2C119.9,49.5,119.6,49.8,119.4,49.8z M119.5,51.8l-0.1-0.1l-0.1-0.1h0.1
		c0.1,0,0.2-0.1,0.2-0.3s0.1-0.3,0.2-0.3c0,0,0.1,0,0.1,0.1c0,0,0.1,0,0.1,0.1s0,0.1,0.1,0.1l0,0.1
		C119.9,51.6,119.7,51.8,119.5,51.8z M119.7,15c-0.1,0-0.1,0-0.1-0.1c0-0.1,0.1-0.2,0.4-0.2c0,0,0-0.1-0.1-0.1
		c-0.1,0-0.1-0.1-0.2-0.2l0-0.1c0.2-0.2,0.3-0.3,0.3-0.5c0-0.2,0.1-0.3,0.2-0.3c0.1,0,0.1,0.1,0.1,0.2c0,0.1-0.1,0.3-0.1,0.4
		l0.1,0.2c0,0.1-0.1,0.2-0.3,0.3C119.9,14.9,119.8,15,119.7,15z M120.2,19.2v-0.1h-0.4c0,0.1,0.1,0.1,0.3,0.1H120.2z M120.9,17.9
		l0.1-0.3h-0.7l-0.2,0.3H120.9z M120.6,13.4c-0.1,0-0.2,0-0.2-0.1l0.1-0.2c0.3-0.3,0.4-0.5,0.5-0.5l0.1,0.1c0,0-0.1,0-0.1,0
		s-0.1,0.1-0.2,0.2v0.1h0.1c0.1,0,0.1,0,0.1,0.1c0,0,0,0,0,0s0,0-0.1,0.1C120.8,13.4,120.7,13.4,120.6,13.4z M120.6,14.2l-0.1-0.1
		v-0.1l0.1-0.1h0.1l0.1,0.1C120.7,14.2,120.6,14.2,120.6,14.2z M121.2,17.3l0.1-0.1l-0.7,0.1v0.1H121.2z M121.5,16.7l1.4-2.9
		c0-0.4,0.1-0.6,0.1-0.6l-0.1,0.5c0,0,0.1-0.1,0.2-0.1c0.1,0,0.3-0.5,0.7-1.5c0.4-0.9,0.6-1.5,0.6-1.7c-0.2,0-1.4,2-3.7,6.1
		c0,0,0.1,0,0.1,0.1c0.1,0,0.1,0,0.2,0C121.4,16.5,121.5,16.6,121.5,16.7z M121.6,47.1c0.4-0.4,0.6-0.6,0.7-0.6v0.1L121.6,47.1z
		 M123.5,19.3c0-0.1-0.5-0.1-1.6-0.2c0,0.1,0,0.2-0.1,0.2H123.5z M122,10.1c0,0,0.1,0,0.1-0.1c0.1-0.1,0.1-0.1,0.1-0.2h-0.1
		c-0.1,0.1-0.1,0.1-0.1,0.2L122,10.1z M122.2,49.2c0,0,0.1,0,0.2-0.1s0.2-0.2,0.2-0.2c0-0.1,0.1-0.1,0.1-0.2c0,0,0-0.1,0-0.1
		c-0.1,0-0.2,0.1-0.4,0.4C122.3,49,122.2,49.1,122.2,49.2z M122.6,10.1c0,0,0.1,0,0.1-0.1c0.1-0.1,0.1-0.1,0.1-0.2h-0.1l-0.1,0.2
		L122.6,10.1z M132.4,19.1l0.3-0.1c0-0.1-0.4-0.2-1.2-0.4c-0.7-0.2-1.9-0.4-3.7-0.6c-1.6-0.1-3.3-0.2-5-0.3
		c-0.1,0.1-0.1,0.2-0.1,0.3c1.7,0.1,3.6,0.4,5.7,0.7C130.6,18.9,132,19.1,132.4,19.1z M122.8,44.5L122.8,44.5c0-0.1,0.1-0.3,0.3-0.5
		c0-0.1,0.1-0.1,0.2-0.1C123.1,44.1,123,44.3,122.8,44.5z M123.9,11.9L123.9,11.9c-0.2,0-0.2,0-0.2-0.1c0,0,0-0.1,0.1-0.1
		c0,0,0.1-0.1,0.1-0.1l0.1,0.1v0C124.1,11.8,124,11.8,123.9,11.9z M124.2,19.5l0.1-0.1l-0.1-0.2c0,0-0.1,0-0.1,0.1
		c0,0.1,0,0.1,0.1,0.2C124.1,19.5,124.1,19.5,124.2,19.5z M124.2,45.7c0.1,0,0.1,0,0.1-0.1c0-0.1,0-0.1-0.1-0.1l-0.1,0.1L124.2,45.7
		z M124.5,45.3c0,0,0.1-0.1,0.2-0.3c0.1-0.2,0.2-0.3,0.3-0.3s0.2-0.1,0.2-0.3c0-0.1,0-0.1-0.1-0.1c0,0-0.1,0.1-0.2,0.2
		c-0.1,0.1-0.2,0.2-0.3,0.4C124.4,45,124.4,45.2,124.5,45.3L124.5,45.3z M127.2,17.5C127.2,17.5,127.2,17.5,127.2,17.5
		C127.2,17.5,127.2,17.5,127.2,17.5l-2.7-0.3l1.3,0.2L127.2,17.5z M127.8,19.6c-0.1,0-0.3-0.1-0.5-0.1
		C127.2,19.5,127.4,19.6,127.8,19.6z M127.9,17.6L127.9,17.6c0-0.2-0.1-0.2-0.3-0.2l-0.2,0.1c0,0,0,0,0,0.1c0,0,0.1,0,0.1,0.1
		C127.5,17.6,127.7,17.6,127.9,17.6z M131.1,17.7c0-0.1-0.1-0.1-0.3-0.1l-0.1,0.1c0,0,0,0,0.1,0.1C130.8,17.7,130.9,17.7,131.1,17.7
		z M132.3,17.7L132.3,17.7c-0.1,0-0.2,0-0.2,0c0,0-0.1-0.1-0.1-0.1c0,0,0.1-0.1,0.1-0.1L132.3,17.7z"/>
	<path class="st0" d="M120.1,85.3c-0.4,0-0.7-0.1-1.1-0.4c-0.2-0.2-0.5-0.3-0.9-0.4c-0.3,0-0.6-0.1-0.8-0.3c-0.2-0.2-0.4-0.5-0.7-1
		c-0.3-0.5-0.4-0.9-0.4-1.3l0.1-1c0.1-1.4,0.2-2.6,0.4-3.8v-0.3c-0.1,0-0.1,0-0.2,0.1c0,0.1-0.1,0.1-0.1,0.2c0,0-0.1,0.1-0.1,0.1V77
		c0.1-0.2,0.1-0.6,0.1-1c0.1-0.5,0.2-0.7,0.2-0.7c0,0,0.1,0.2,0.1,0.4l-0.1,0.1l0.1-0.1c0.2-0.2,0.3-0.5,0.3-0.8
		c0-0.1-0.1-0.2-0.2-0.2c-0.1,0-0.1,0.1-0.1,0.4l-0.1-0.2l0.1-0.4c0-0.3,0.1-0.4,0.3-0.4h0.1c0.1,0,0.2-0.4,0.3-1.1l0.3-1.2
		c0-0.1-0.1-0.3-0.2-0.4c0,0.2,0,0.4-0.1,0.4l-0.1-0.1c0-0.1,0.1-0.3,0.2-0.4c0.1-0.1,0.2-0.3,0.3-0.5l0.1-0.4l-0.2,0
		c0.2-0.2,0.3-0.5,0.4-0.7c0,0,0-0.1-0.1-0.1s-0.1-0.3-0.1-0.6l0.2,0.4c0.1,0,0.2-0.1,0.3-0.4l0.1-0.2c0-0.2,0.2-1,0.5-2.4l0.1-0.5
		l-0.1-0.6l0.1-0.1l0.2,0.1v-0.3c0.3-0.5,0.4-0.9,0.4-1.1l-0.1-0.1h-0.1c0,0,0,0-0.1,0.1c0,0-0.1,0.1-0.1,0.1c0,0-0.1,0.1-0.1,0.3
		h-0.1l0.1-0.7c0.1-0.4,0.1-0.7,0.1-0.7c0-0.1,0.1-0.1,0.2-0.1l0.1,0.1l-0.1,0.5c0.1,0,0.1,0,0.1-0.1c0.1-0.2,0.1-0.4,0.1-0.7
		l0.3-1.3c0.4-1.2,0.7-2,0.7-2.4c0,0,0-0.1,0-0.1s-0.1-0.1-0.2-0.3v0.3h-0.1c0-0.3,0.1-0.7,0.3-1.1c0.1-0.3,0.1-0.4,0.2-0.4v0.2
		l0.1,0c0.2-0.2,0.3-0.5,0.3-1c0-0.1,0-0.2,0-0.3s0.1-0.1,0.2-0.1c0,0,0-0.1,0-0.1s0-0.1,0-0.1c0-0.2,0.2-0.9,0.5-2l0.3-0.9
		l-0.4-0.7c-0.2-0.3-0.3-0.5-0.3-0.7c0-0.1,0.1-0.2,0.2-0.3s0.2-0.2,0.2-0.4s0.1-0.4,0.4-0.5c0.1-0.1,0.2-0.2,0.3-0.2
		s0.1-0.2,0.1-0.4c0,0,0.1,0,0.1,0c0.1,0,0.1,0,0.1,0.1s0,0.1,0,0.1c0,0,0.1,0,0.1-0.1c0,0,0-0.1,0.1-0.2c0,0,0-0.1-0.1-0.1
		c0,0-0.1-0.1-0.1-0.3c0,0,0-0.1,0-0.1c0,0,0,0,0-0.1c0,0,0-0.1,0.1-0.1c0-0.1,0.1-0.1,0.1-0.1c0,0,0.1-0.1,0.2-0.2
		c0.2-0.3,0.3-0.5,0.3-0.8l-0.1-0.1l-0.2,0.1l0.4-1.6c0.2-0.4,0.3-0.6,0.4-0.6l-0.1-0.2c0-0.1,0-0.2,0.1-0.4
		c0.2-0.4,0.3-0.5,0.4-0.5c0.1,0,0.2-0.2,0.4-0.6c0-0.1,0.1-0.3,0.1-0.4c-0.1,0-0.2,0-0.2,0c0,0-0.1,0.1-0.1,0.1l-0.1,0.1v-0.2
		c0-0.1,0-0.1,0.1-0.2c0.1,0,0.1-0.2,0.2-0.5c0.1-0.3,0.2-0.5,0.3-0.5h0.1v0.1c0,0,0.1,0.1,0.1,0.1c0.1-0.1,0.2-0.3,0.2-0.5
		c0,0,0,0-0.1,0l-0.3,0.3l-0.1-0.1c0-0.2,0.1-0.6,0.3-1.2c0.2-0.6,0.3-0.8,0.4-0.8c0,0.2,0,0.3,0.1,0.3c0,0,0,0,0.1,0
		c0,0,0.1-0.1,0.1-0.1c0-0.1,0.1-0.2,0.1-0.3l-0.1-0.2h-0.1c0,0-0.1,0-0.1-0.1c1.1-3.1,1.7-4.9,1.8-5.3c0.1-0.6,0.3-1,0.4-1.2
		c1.8-4.7,2.8-7.3,2.8-7.6c0-0.2,0.1-0.5,0.4-1.1s0.4-0.9,0.5-0.9c0,0,0.1-0.1,0.1-0.3c0-0.2,0.1-0.3,0.1-0.3s0.2,0,0.2-0.1v-0.7
		c0-0.4,0-0.5,0.1-0.5c0.1,0.1,0.2,0.2,0.4,0.3h0.1v-0.2c0-0.1,0-0.1,0.1-0.2h0.2c0.2,0.1,0.3,0.2,0.3,0.3c0,0.1,0,0.1,0.1,0.1
		c0.1,0,0.2,0,0.2,0c0,0,0.1,0.2,0.1,0.4l0.1-0.1l0.4,0.2l0.4-0.1c0.4,0,0.6,0.4,0.8,1.1c0,0.4-0.1,0.8-0.2,1.2
		c-0.1,0.4-0.4,0.8-0.7,1.3c-0.2,0.3-0.4,0.6-0.4,0.9c0,0,0.1-0.1,0.1-0.2s0.1-0.2,0.2-0.3c0,0,0.1,0.1,0.1,0.2
		c0,0.2-0.1,0.6-0.3,1.2c-0.2,0.6-0.5,1.2-0.7,1.8c-0.4,0.9-0.7,1.8-0.8,2.4c0,0.2,0,0.4-0.1,0.5c-0.1,0-0.1,0.1-0.1,0.3
		s-0.1,0.4-0.4,0.8c-0.2,0.2-0.4,0.6-0.6,1.2c-0.2,0.7-0.6,2.1-1.4,4l-0.7,2.1c-0.4,1.3-0.7,2-0.7,2s-0.1,0-0.1,0.1l0.1,0.3
		c0,0.3,0,0.5-0.1,0.6c-0.1,0.1-0.5,1.6-1.4,4.4c0.1,0,0.3,0,0.5-0.1c0.5-0.3,0.9-0.5,1.2-0.8c0.4-0.2,0.6-0.4,0.7-0.4
		s0.6-0.2,1.5-0.7c0.3-0.2,0.6-0.3,0.9-0.5c0.3-0.1,0.5-0.2,0.8-0.4c0.9-0.6,1.5-0.8,1.7-0.8c0.3-0.1,0.5-0.3,0.7-0.4
		c0.4-0.3,1.2-0.5,2.4-0.8c0.5-0.1,0.8-0.2,1-0.2c0,0,0,0,0,0.1c0,0,0,0-0.1,0.1c0,0-0.2,0.1-0.6,0.2c-0.4,0.1-0.8,0.2-1.2,0.3
		c-1.1,0.5-1.6,0.8-1.7,0.8c0,0,0,0-0.1,0c0,0-0.1,0-0.1,0c0,0-0.1,0-0.1,0c-0.3,0.1-0.5,0.2-0.6,0.2s-0.2,0.1-0.2,0.2
		c0,0.1,0,0.1-0.1,0.1h-0.1c-0.3,0-0.5,0.1-0.6,0.3c0,0,0.1,0.1,0.2,0.1l4.7-2c0.3-0.1,0.6-0.2,0.8-0.2c0.1,0,0.2,0,0.2,0.1
		s0,0.1,0.1,0.1h0c0.1,0,0.2,0,0.4,0s0.3,0,0.3,0.1l-0.3,0.4h0.1l-0.1,0.4l-0.6,0.6c-0.4,0.4-0.6,0.7-0.7,0.7s-0.5,0.2-1,0.6
		c-0.4,0.3-0.9,0.6-1.4,0.8l-1.4,0.9c-0.1,0-0.3,0.1-0.6,0.4c-3.5,2.2-5.3,3.3-5.4,3.3c-0.1,0-0.2,0.1-0.3,0.2
		c-0.1,0.1-0.1,0.4-0.2,0.9l-0.1,0.6c0-0.6-0.1-0.9-0.2-1c-0.2,0-0.4,1-0.5,2.9c0,2.8-0.2,5.6-0.5,8.4c0,0.5-0.1,0.9-0.2,1.4
		c-0.1,0.5-0.1,0.9-0.2,1.4c-0.1,0.9-0.4,2.4-0.9,4.3c-1.7,7.1-2.9,11.1-3.7,11.9c0,0-0.1,0.1-0.1,0.1s-0.1,0.1-0.1,0.2
		c0,0.1-0.1,0.2-0.1,0.3l0.1,0.1c0.1,0,0.5-0.5,0.9-1.5l0.3-0.4c0,0.1,0,0.2-0.1,0.4l0,0.1c-0.4,0.9-0.9,1.7-1.5,2.3
		c-0.4,0.4-0.7,0.6-0.9,0.6c-0.1,0-0.2,0-0.2,0c0,0-0.1,0.1-0.1,0.1C120.5,85.3,120.3,85.3,120.1,85.3z M117.1,82.3
		c0.1,0,0.1-0.1,0.1-0.4c0-0.7,0.2-2.2,0.5-4.6c0.1-0.6,0.1-1,0.1-1.1c0.1-0.2,0.2-0.4,0.3-0.4l-0.1-0.1c0-0.4,0.1-0.8,0.2-1.4
		c0.1-0.6,0.2-1,0.3-1.3l1.2-5.4c0.4-1.6,0.6-2.4,0.6-2.6l0.2-0.7c0.1-0.6,0.2-1,0.2-1S121,63,121,63c0.1-0.1,0.2-0.3,0.2-0.6
		s0-0.4,0.1-0.5c0.1,0,0.2-0.1,0.2-0.3s0.1-0.2,0.1-0.3h-0.1c0,0-0.1,0-0.1-0.1c0-0.3,0.1-0.6,0.3-0.9l0.4-1.4
		c0.3-0.7,0.5-1.3,0.6-2c0-0.2,0-0.5,0.1-0.8c0,0,0-0.1,0-0.2l0.4-1.3c0.1-0.4,0.2-0.8,0.3-1.2c0-0.1,0-0.1-0.1-0.1h0
		c0,0-0.1,0-0.2,0.1s-0.2,0.1-0.3,0.2c0,0.2-0.1,0.3-0.3,0.5c-0.1,0.1-0.1,0.2-0.1,0.3c0.1,0,0.1,0,0.2,0.1c0,0,0,0-0.1,0.1
		c0,0-0.1,0-0.1,0.1c0,0-0.1,0.2-0.1,0.4l0.1,0.1l-0.3-0.1l0.1,0.2c0,0.2,0,0.3-0.1,0.3c0,0-0.1,0.1-0.1,0.2l0.1,0.4
		c0,0-0.1,0-0.2,0.1c-0.1,0-0.2,0.1-0.2,0.2l0.1,0.3c0,0.2,0,0.4-0.1,0.4c-0.1,0-0.2,0.3-0.3,0.7h0.1c0,0,0.1,0,0.1,0.1
		c0,0.1-0.1,0.4-0.4,1c-0.1,0.2-0.1,0.5-0.1,0.8c0,0.2,0,0.3-0.1,0.3c-0.1,0.1-0.2,0.2-0.2,0.4c-0.1,0.4-0.2,0.9-0.2,1.3
		c0,0.3-0.1,0.5-0.2,0.7c-0.1,0.3-0.2,0.5-0.2,0.7l-0.3,1.6l0.1,0.4l-0.1-0.1c-0.1,0-0.1,0.1-0.2,0.2c0,0.1,0,0.1,0,0.2
		c0,0,0.1,0.1,0.1,0.1c-0.4,0.8-0.6,1.4-0.6,1.8l0.1,0.4c0,0.1,0,0.2-0.1,0.2c-0.1,0-0.1,0.1-0.1,0.3c0,0.2,0,0.4-0.1,0.4
		c-0.1,0-0.2,0.1-0.2,0.3c-0.1,0.9-0.2,1.5-0.4,1.9s-0.3,1.1-0.5,2.3c-0.1,0.1-0.1,0.3-0.1,0.7l0,0.5c-0.6,3.1-0.9,5.2-0.9,6.2
		c0,0.4,0,0.9,0.1,1.3S117,82.2,117.1,82.3z M118.3,83.2c0,0,0.1-0.1,0.1-0.2c0-0.1,0.1-1.1,0.1-3c0.3-1.9,0.5-3,0.6-3
		s0.1-0.2,0.1-0.4c0-0.2,0.1-0.4,0.1-0.7c0-0.6,0.1-0.9,0.2-1.1c0.1-0.1,0.2-0.4,0.2-0.7c0-0.3,0.1-0.7,0.1-1s0.1-0.6,0.2-0.7
		c0.1-0.1,0.2-0.4,0.3-0.9c0.1-0.9,0.2-1.5,0.3-1.7c0.1,0,0.1-0.1,0.1-0.4c0-0.5,0.1-1.1,0.4-1.8c0.2-1,0.5-2,0.8-3
		c0.1-0.4,0.2-0.7,0.2-0.9s0-0.3,0.1-0.3c0.1-0.1,0.3-1,0.7-2.8c0.1-0.5,0.3-0.8,0.5-0.9c0,0,0.1,0,0.1-0.1h-0.1l-0.1-0.1
		c0-0.3,0.1-0.7,0.2-1.2c0.1-0.5,0.3-1,0.4-1.5s0.3-0.8,0.4-0.9c0,0,0,0,0,0v0l-0.2-0.2l0.1-0.3c0.2-0.2,0.3-0.6,0.4-1.3
		c0,0,0-0.1,0-0.1c0,0-0.2-0.1-0.5-0.1c-0.1,0-0.2,0.2-0.3,0.5l-0.4,1.4c-0.1,0.3-0.2,0.5-0.3,0.7c0,0.2-0.1,0.5-0.1,0.7
		s-0.1,0.5-0.3,0.7l-0.1,0.3c0,0.3-0.2,1.1-0.6,2.6c-0.4,1.2-0.7,2.2-0.8,3.1l-0.1,0.4c-0.1,0.5-0.4,1.6-0.8,3.4
		c0,0.1-0.1,0.3-0.2,0.8c-0.1,0.1-0.1,0.2-0.1,0.4c0,0.2-0.1,0.7-0.4,1.5l-0.4,1.6c-0.3,2.2-0.5,3.3-0.7,3.3c0,0,0,0.2-0.1,0.5
		s-0.1,0.7-0.1,1.1c-0.1,1-0.3,1.5-0.3,1.6c-0.1,0.1-0.1,0.4-0.1,0.9l0.1,2.9c0,0.5,0.1,0.8,0.2,0.8S118.2,83.1,118.3,83.2z
		 M118.5,67.1c0.1-0.6,0.3-1,0.4-1.1v0.3C118.9,66.4,118.8,66.7,118.5,67.1z M119.2,81.8c0.1,0,0.3-0.2,0.5-0.5
		c0.2-0.3,0.3-0.5,0.4-0.5c0,0.1,0,0.2,0,0.2c0,0,0,0.1,0.1,0.1c0.3-0.3,0.5-0.6,0.5-0.7c0-0.1,0.2-0.7,0.7-1.8
		c0.4-1.1,0.7-1.7,0.7-1.7l-0.2,1c-0.2,0.8-0.3,1.4-0.3,1.6c0,0.5,0,1-0.1,1.5v0.2h0l0.4-0.7l0.7-1.6c0.3-0.6,0.5-0.9,0.5-0.9
		c0-0.4,0-0.8,0.1-1c0.1-0.5,0.3-0.8,0.4-0.8l0.1,0.1l0.1-0.1v-0.3c0,0,0-0.1-0.1-0.1c-0.1,0-0.1-0.1-0.1-0.2l0.1-0.4l0.3,0.4
		c0-0.3,0-0.5,0.1-0.7l-0.2,0.2l-0.1-0.2l0.1-0.6c0.1-0.5,0.2-0.9,0.2-1.2c0.1-0.8,0.3-1.3,0.4-1.6l-0.2-0.4l0.1,0.1
		c0,0,0.1-0.1,0.2-0.3c0.2-0.4,0.3-0.8,0.3-1.2c0-0.1,0.1-0.3,0.3-0.4c0.1,0,0.1-0.1,0.2-0.2c0.1-0.1,0.1-0.3,0.1-0.5
		c0-0.5,0.1-0.9,0.2-1.2c0,0,0.1-0.5,0.3-1.5l0.1-0.7c0.4-3.1,0.7-5.1,0.7-5.8c0-0.6,0-0.9-0.1-0.9c0,0,0,0-0.1,0.1
		c0,0.1,0,0.2,0,0.4c0,0.3,0,0.5-0.1,0.5c0-0.1-0.1-0.2-0.1-0.4l0.1-0.2l-0.1-0.4h0v0c-0.1,0.2-0.1,0.6-0.2,1.2l-0.1-0.8
		c0-0.4,0-0.6,0-0.7c0,0,0.1-0.1,0.2-0.1h0.1c0.4,0,0.6-0.7,0.6-2c0-0.4,0-0.8,0-1.1c0-0.3,0-0.7,0-1.1c-0.1-0.5-0.1-0.8-0.1-0.8
		c0,0,0,0.7-0.1,2.1c0,0.1,0,0.3-0.1,0.6s0,0.6,0,0.9c0,0.7,0,1.1-0.1,1.2c0,0,0-0.1-0.1-0.3l0.1-2.3c0-0.5,0-0.7-0.1-0.8l0,0.1
		c-0.1,0.1-0.1,0.4-0.1,1c0,0,0-0.2-0.1-0.6c0-0.1,0-0.2,0-0.3c0-0.8-0.1-1.2-0.2-1.2c0,0-0.1,0-0.1,0.1c-0.1,0.2-0.2,0.5-0.2,0.9
		l-0.1,0.4c-0.1,0.2-0.2,0.4-0.2,0.6s0,0.3,0,0.5c0,0,0,0.1,0,0.1c-0.1,0.5-0.2,0.9-0.4,1l-0.3,0.7l-0.1,0.5c0,0.3-0.4,1.8-1.1,4.5
		c-0.1,0-0.1,0.1-0.1,0.3l0.1,0.1c0,0.2,0,0.3-0.1,0.3c0,0-0.1,0-0.1-0.1c0,0-0.1-0.1-0.1-0.1c0-0.6,0.2-1.3,0.7-2.3
		c0-0.1,0-0.3,0.1-0.5c0.2-0.5,0.3-0.9,0.3-1.2l-0.1-0.4l-0.1,0.1c-0.1,0.2-0.3,0.5-0.4,0.7l0.3-0.3v0.2c0,0.1-0.1,0.3-0.3,0.3
		s-0.3,0.3-0.3,0.8c0,0.4-0.1,0.7-0.3,0.9c-0.1,0.1-0.2,0.4-0.2,0.8c0,0.5,0,0.7-0.1,0.7c0,0,0,0.1,0,0.1c0,0,0,0,0,0.1s0,0.2,0,0.6
		l-0.1,0.2c-0.1,0-0.2,0-0.2,0.1s0,0.1,0,0.2c0,0.1,0,0.1,0,0.2c-0.2,1.1-0.4,1.8-0.4,2.2c0,0.1,0,0.2-0.1,0.3c-0.2,0-0.3,0-0.3,0.1
		l0.1,0.4c0,0.1,0,0.1-0.1,0.1c-0.1,0-0.1,0.1-0.2,0.3c-0.1,0.2-0.1,0.4-0.1,0.7c0,0.3-0.1,0.5-0.1,0.8c0,0.4,0,0.6-0.1,0.7
		c-0.1,0.1-0.1,0.1-0.2,0.2c-0.1,0.2-0.2,0.5-0.2,0.8c0,0.5-0.1,0.9-0.3,1.2c0,0.1-0.1,0.3-0.1,0.5c0,0.1-0.1,0.4-0.1,0.7
		c0,0.1-0.1,0.2-0.1,0.2c-0.1,0.1-0.2,0.4-0.2,0.9c0,0.6-0.1,1.1-0.1,1.3s-0.1,0.5-0.2,0.7l-0.1,0.4l0.1,0.3l-0.1,0.1l-0.1,0.2
		c0,0.4-0.1,0.8-0.2,1.4l-0.1,0.8C119.1,81,119.1,81.7,119.2,81.8C119.2,81.7,119.2,81.8,119.2,81.8z M121.1,71.4
		c-0.1,0-0.2,0-0.2-0.1c0.1-0.2,0.2-0.3,0.3-0.5s0.1-0.3,0.1-0.4s0-0.2,0-0.2c0,0,0-0.1,0-0.1c0.1-0.2,0.3-0.4,0.4-0.4l0.1,0.1
		l-0.1,0.1c-0.1,0.1-0.2,0.3-0.2,0.4C121.5,71.1,121.4,71.4,121.1,71.4z M121.1,58.3v-0.1c0-0.1,0-0.2-0.1-0.2L121.1,58.3
		L121.1,58.3z M121.1,82.1l0.2-0.6c0,0-0.1,0-0.1,0c-0.1,0.1-0.2,0.2-0.2,0.4L121.1,82.1z M121.5,75.4v-0.2c0-0.1,0-0.2,0-0.3
		s0-0.2,0.1-0.2c0,0,0.1-0.1,0.1-0.1s0,0,0.1-0.1l0.1,0.1C121.8,74.9,121.6,75.1,121.5,75.4z M122,73.8l-0.1-0.2
		c0-0.3,0.1-0.5,0.2-0.5l0.1,0L122,73.8z M122.3,72.8l-0.1-0.3l0.1-0.2c0,0,0,0,0.1,0C122.3,72.3,122.3,72.5,122.3,72.8z
		 M122.8,53.6l0.2-0.4V53c0,0-0.1,0.1-0.2,0.1c-0.1,0.1-0.1,0.2-0.1,0.3C122.7,53.6,122.7,53.6,122.8,53.6z M123.5,77.3l0.2-0.6
		c-0.2,0.1-0.3,0.3-0.3,0.5C123.4,77.3,123.4,77.3,123.5,77.3z M124.3,50c0.3,0,0.5-0.2,0.6-0.7c0.1-0.5,0.2-0.7,0.2-0.8
		c0,0,0.1-0.1,0.1-0.1s0.1-0.3,0.2-0.8c0.2-0.5,0.3-0.9,0.3-1c0-0.2,0-0.4,0.1-0.4s0.1-0.2,0.2-0.6l0.6-1.8c0.1-0.5,0.2-0.8,0.4-0.9
		c0.1-0.1,0.2-0.2,0.2-0.3c0,0-0.1,0-0.1-0.1c0,0-0.1-0.1-0.1-0.2c0-0.1,0-0.3,0.1-0.4l0.1-0.5l0.8-2c0.3-1.1,0.5-2,0.8-2.4
		c0.2-0.5,0.3-0.9,0.3-1.1c0-0.1,0-0.3,0.1-0.3c0.1-0.1,0.2-0.3,0.3-0.7c0.1-0.4,0.3-0.8,0.4-1.2c0.3-0.8,0.6-1.7,0.9-2.7
		c0.3-0.6,0.4-1.2,0.4-1.6c0,0-0.1,0.1-0.3,0.2c-0.2,0.5-0.7,1.8-1.4,3.7c-0.1,0.2-0.2,0.5-0.3,0.8l-0.2,0.5c-0.1,0.4-0.3,1-0.6,1.7
		l-1,3.1c-0.3,0.9-0.5,1.5-0.5,1.7s-0.2,0.3-0.3,0.3c-0.1,0-0.2,0.1-0.2,0.4c0,0,0.1-0.1,0.1-0.1c0,0,0.1-0.1,0.1-0.2l-0.2,0.9
		l-0.3,0.7c0-0.1,0-0.1-0.1-0.1c-0.1,0.1-0.1,0.2-0.2,0.4l0.1,0.6l-0.1,0.1l-0.2-0.2l-0.3,0.9c0,0.2-0.1,0.4-0.1,0.6l0.1,0.1
		c0,0-0.1,0-0.1,0.1c-0.1,0-0.1,0.1-0.1,0.1c0,0.1,0,0.3-0.1,0.6c-0.1,0.4-0.1,0.6-0.1,0.9c0,0.2-0.1,0.3-0.2,0.3h-0.1l0.1,0.4
		c0,0.3,0,0.6-0.1,0.8l0,0.1c-0.1,0.1-0.1,0.2-0.2,0.2s-0.1,0-0.1,0.1c-0.1,0.2-0.1,0.3-0.1,0.5l0.1,0.3L124.3,50z M124.1,47.5
		c0,0,0-0.1,0.1-0.2c0-0.1,0-0.1,0.1-0.2c0-0.1,0-0.1,0.1-0.2c0,0,0-0.2,0-0.5c-0.1,0.1-0.2,0.2-0.2,0.4S124.1,47.2,124.1,47.5z
		 M124.4,57.9c0.1,0,0.2-0.3,0.3-0.8s0.3-0.9,0.4-1c0.1-0.1,0.2-0.2,0.2-0.3c-0.1,0-0.1,0-0.2,0.1c-0.1,0-0.2,0-0.3,0.1
		s-0.2,0.1-0.3,0.1l0.1,0.1c0,0.1,0,0.1-0.1,0.1s-0.1,0.1-0.1,0.4l0.2,0.4c0,0,0,0.1-0.1,0.1c-0.1,0.2-0.2,0.3-0.2,0.4
		C124.1,57.8,124.2,57.9,124.4,57.9z M124.3,74.6l0.2-0.8l-0.1-0.1C124.3,74.1,124.3,74.4,124.3,74.6z M124.5,67.9L124.5,67.9
		c-0.1,0-0.1-0.1-0.1-0.2c0-0.1,0-0.1,0.1-0.2c0.1-0.1,0.1-0.1,0.1-0.1c0,0,0,0.1,0,0.1c0,0,0,0.1,0,0.2c0.2,0,0.5-0.9,0.8-2.6
		c0,0.7,0,1.1-0.1,1.4c-0.1,0.3-0.2,0.6-0.3,0.9c0,0.1-0.1,0.2-0.3,0.3C124.7,67.8,124.6,67.9,124.5,67.9z M124.6,73.6
		c0.1-0.1,0.1-0.3,0.1-0.6l0.6-2.2c0.1-0.5,0.2-0.9,0.2-1.2c0,0-0.1,0-0.1,0.1c0,0,0,0.1-0.1,0.1c0,0-0.1,0.2-0.1,0.4
		c0,0.2,0,0.5-0.1,0.7l-0.1,0.3c-0.2,0.3-0.3,0.7-0.4,1.2s-0.1,0.8-0.1,1C124.5,73.5,124.5,73.6,124.6,73.6z M125.3,49.6l0.4-0.1
		c0.3-0.1,0.6-0.2,0.7-0.4c0.1-0.1,0.2-0.4,0.2-0.8c0.1-0.5,0.2-0.7,0.3-0.7c0,0,0.1-0.1,0.1-0.4c0-0.3,0.1-0.4,0.2-0.4
		s0.1-0.1,0.1-0.3s0-0.5,0.1-0.7c0.2-0.8,0.4-1.3,0.6-1.6c0.1-0.4,0.2-0.8,0.3-1.3c0.2-0.6,0.3-1.1,0.5-1.4c0.2-0.6,0.3-0.9,0.3-1.1
		s0-0.2,0.1-0.2s0.1-0.2,0.2-0.4c0-0.1,0-0.3,0.1-0.7c0.3-1.2,0.6-2.1,0.9-2.7l0.1-0.8c0-0.1,0-0.1,0.1-0.1c0.1-0.1,0.1-0.3,0.2-0.6
		c0-0.3,0.1-0.6,0.3-1c0.3-1.1,0.5-1.6,0.6-1.6c0.1,0,0.2-0.1,0.2-0.3c0-0.3,0-0.5-0.1-0.5c-0.1,0.1-0.4,0.7-0.8,1.8
		c-0.4,1.1-0.6,1.7-0.6,1.9s-0.1,0.3-0.2,0.4s-0.5,1.1-1.1,2.9c-0.6,1.8-0.9,2.9-1,3c-0.3,0.7-0.4,1.1-0.4,1.3
		c0,0.2-0.1,0.5-0.3,0.8c-0.3,0.7-0.5,1.2-0.6,1.6c-0.1,0.6-0.3,1-0.5,1.3c0,0.1,0,0.3-0.1,0.4c-0.1,0.2-0.1,0.5-0.2,0.9l-0.2,0.5
		L125.3,49.6z M125.3,69c0,0-0.1,0-0.1-0.1c0-0.3,0.1-0.6,0.3-0.8c0,0.2,0,0.4-0.1,0.6C125.5,68.9,125.4,69,125.3,69z M125.6,54.5
		l-0.1-0.3c0,0,0.1,0,0.1,0c0,0,0.1,0,0.1,0c0,0,0.1-0.1,0.1-0.2l-0.1-0.1c-0.1,0-0.1,0-0.2,0.1c0,0.1-0.1,0.2-0.1,0.3L125.6,54.5z
		 M125.6,64.8L125.6,64.8l-0.1-0.5l0.1,0.1V64.8z M125.7,63.9l-0.1-0.2l0.1-1.2c0.1-0.3,0.1-0.4,0.2-0.4l-0.1,1.3L125.7,63.9z
		 M125.6,67.2v-0.1c0-0.1,0-0.3,0.1-0.4l0.1-0.1c0,0.4,0,0.6-0.1,0.6C125.8,67.2,125.7,67.2,125.6,67.2
		C125.7,67.2,125.7,67.2,125.6,67.2z M126.1,61L126.1,61l-0.1-0.2l0.1-0.2h0.1V61z M126.2,63.9L126.2,63.9c-0.2,0-0.2-0.1-0.2-0.4
		l0.1-0.3c0,0,0.1,0,0.1,0.1c0,0.1,0,0.2,0.1,0.2L126.2,63.9z M126.3,58.2c0,0,0-0.1-0.1-0.4l0.1-0.4c0.1,0,0.1,0.1,0.1,0.4
		C126.4,58,126.4,58.2,126.3,58.2z M126.3,62.9v-0.1c0-0.4,0.1-1,0.2-1.6c0,0.6,0,1.1-0.1,1.5L126.3,62.9z M126.5,60.9L126.5,60.9
		l-0.1-0.3c0-0.2,0-0.4,0.1-0.5c0.1-0.1,0.1-0.2,0.1-0.2h0.1C126.7,60.2,126.7,60.5,126.5,60.9z M126.5,71.8L126.5,71.8
		c0-0.2,0-0.4,0.1-0.7c0-0.3,0.1-0.6,0.2-0.8l0-0.1c0.1-0.3,0.1-0.6,0.2-0.8v-0.1c0,0.3-0.1,0.9-0.2,1.7
		C126.7,71.5,126.6,71.8,126.5,71.8z M126.8,54.5v-0.6c0-0.2,0-0.3-0.1-0.3l-0.1,0.1c0,0.2,0,0.4,0,0.5
		C126.7,54.4,126.7,54.5,126.8,54.5z M127.1,68.4c0,0,0-0.1-0.1-0.2c0-0.1,0-0.4,0.1-0.7c0-0.2,0.1-0.3,0.1-0.3c0,0,0.1,0.1,0.1,0.3
		l-0.1,0.6C127.3,68.4,127.2,68.4,127.1,68.4z M127.4,67.1c0,0,0-0.1-0.1-0.2c0-0.1,0-0.3,0.1-0.5c0-0.3,0.1-0.5,0.2-0.6l0.1,0.1
		C127.6,66.7,127.5,67.1,127.4,67.1z M127.9,64.7c-0.1-0.1-0.2-0.2-0.2-0.3c0-0.2,0.1-0.3,0.2-0.3l0.1,0.3
		C128,64.6,127.9,64.7,127.9,64.7z M127.8,65.4L127.8,65.4l-0.1-0.4h0.1V65.4z M127.9,36.3l0.3-0.5v-0.1H128
		c-0.1,0.1-0.2,0.2-0.2,0.4C127.8,36.2,127.8,36.3,127.9,36.3z M128,63.6l-0.1-0.5l0-0.6l0.2-0.8c0,0.7,0,1.2,0,1.3
		S128.1,63.3,128,63.6z M128.3,61.2L128.3,61.2l-0.1-0.4l0.1-0.2C128.3,60.9,128.3,61.1,128.3,61.2z M128.4,60.2L128.4,60.2
		l-0.1-0.8l0.1-0.1V60.2z M128.5,55.4c0-0.2-0.1-0.5-0.1-1.1l0.1-0.1V55.4z M131.5,47.7l0.2-0.1l0.5-0.2c0.1,0,0.2,0,0.2-0.1
		c0-0.2,0-0.3-0.1-0.3c0,0-0.2,0.1-0.5,0.4C131.6,47.5,131.5,47.6,131.5,47.7z M133,47.1L133,47.1c0-0.1,0.3-0.3,0.8-0.7
		s0.8-0.5,0.9-0.5l0.1,0.1l-0.1,0.2c0.3-0.3,0.4-0.4,0.5-0.4c0.1,0,0.1,0,0.2,0c0,0,0.1,0,0.2-0.1l-0.1-0.2c-0.2,0-0.7,0.2-1.5,0.6
		c-0.8,0.4-1.2,0.7-1.2,0.7l0.2,0.2H133z M134.3,28.1l0.1-0.2l0.2-0.6C134.6,27.4,134.4,27.7,134.3,28.1z M135.8,45.4
		c0.1,0,0.2-0.1,0.2-0.2c0-0.1,0-0.1-0.1-0.1c-0.2,0.1-0.3,0.2-0.5,0.3C135.5,45.4,135.6,45.4,135.8,45.4z"/>
	<path class="st0" d="M135.6,53.3l-0.1-0.2c0-0.2,0-0.5,0.1-0.9l0.1,0.2C135.7,52.7,135.7,53,135.6,53.3z M141.4,58l-0.7-0.1
		c-1.2-0.2-2-0.4-2.2-0.8c-0.1-0.3-0.3-0.4-0.5-0.4c-0.2,0-0.3,0.1-0.3,0.3c0,0,0,0.1-0.1,0.1l-0.5-0.4c-0.3-0.2-0.6-0.5-0.8-0.8
		c-0.3-0.4-0.6-1.1-0.8-2.2l0.4,0.5c0.1,0,0.2-0.4,0.4-1.3c0.1-0.5,0.1-0.8,0.1-1s0-0.4,0.1-0.5c0.1,0,0.1-0.1,0.1-0.4V51
		c0-0.3,0-0.5,0.1-0.7s0.1-0.2,0.1-0.2l0.5,0.2h0.1v-0.2l0.2,0.1c0,0.1-0.2,0.2-0.6,0.2c-0.1,0-0.1,0.1-0.2,0.3
		c0,0.1,0.1,0.2,0.2,0.2c0.1,0,0.2,0,0.3-0.1c0,0,0,0,0,0.1c0,0,0,0-0.1,0.1c0,0-0.1,0.1-0.1,0.1c0,0-0.1,0.1-0.1,0.1
		c0,0.1-0.1,0.1-0.1,0.2l0.1,0.4c0,0.1,0,0.2-0.1,0.2c-0.1,0-0.1,0-0.2,0.1l0.1,0.2c0,0.4,0,0.7-0.1,1c0,0.4,0,0.7,0.1,0.7
		c0.1,0,0.2-0.3,0.4-0.8l0.1,0.3c0,0.2,0,0.3-0.1,0.3c0,0.1-0.1,0.1-0.1,0.1c0,0,0,0-0.1,0.1l0.1,0.1h0.2v0.1l-0.4,0.4
		c0.2,0,0.4,0.1,0.5,0.4l0.1-0.1c0-0.4,0.2-1.5,0.7-3.3c0.1-0.4,0.2-0.7,0.2-1c0-0.3,0.1-0.6,0.4-0.9c0,0,0.1-0.1,0.1-0.2
		c0-0.1,0-0.2,0-0.3s0-0.1,0-0.2c0.1-0.5,0.2-0.7,0.4-0.7s0.2-0.2,0.2-0.5c0-0.3,0.1-0.5,0.2-0.6c0.1,0,0.1,0,0.1-0.1v-0.1
		c0-0.1,0-0.2,0.1-0.3c0.1,0,0.1,0,0.1-0.1v-0.1c0-0.1,0.1-0.5,0.4-1.2c0.3-0.7,0.5-1.1,0.6-1.2c0,0,0-0.1,0.1-0.2
		c0.1-0.1,0.1-0.2,0.2-0.4c0.1-0.1,0.1-0.3,0.2-0.5l0-0.1c0-0.2,0.2-0.4,0.3-0.7c-0.3,0.3-0.6,0.8-0.9,1.4c-0.3,0.6-0.6,1.1-0.9,1.5
		c-0.3,0.2-0.6,0.8-0.9,1.6c-0.4,0.7-0.6,1-0.6,1c0-0.2,0.1-0.5,0.4-1.1c0.1-0.1,0.1-0.3,0.1-0.5v-0.1c0,0-0.1,0-0.2,0
		c0,0,0-0.1,0-0.1c0.2,0,0.4-0.1,0.5-0.3c0.2-0.2,0.3-0.4,0.3-0.5c0,0-0.1,0-0.4-0.1c-0.1,0.1-0.2,0.2-0.2,0.2s0,0.1-0.1,0.1
		c0-0.2,0.2-0.6,0.5-1.3s0.5-1,0.6-1l0.1,0.1c0,0,0,0.1,0,0.1s0,0.1,0,0.1c0,0.1,0,0.1-0.1,0.1s0,0.1-0.1,0.1c0.1,0,0.1-0.1,0.2-0.1
		c0.1,0,0.2-0.2,0.2-0.3c0.1-0.2,0.1-0.3,0.1-0.5c0-0.3,0.1-0.5,0.3-0.5s0.2,0,0.2,0l-0.1-0.3c0-0.1,0-0.1,0-0.2s0-0.1,0-0.1
		c0,0,0-0.1,0-0.1c0,0,0-0.1,0.1-0.1c0,0,0.2,0,0.3,0l-0.1-0.1c0-0.1,0.1-0.2,0.2-0.3c0.1-0.1,0.2-0.2,0.2-0.3l-0.1-0.1
		c0,0,0,0,0.1,0s0.1,0,0.1-0.1S142,40,142,40c0,0,0,0,0,0c0,0,0,0,0,0c0,0,0,0,0-0.1c0,0,0,0,0-0.1s0,0,0-0.1c0,0,0,0,0.1-0.1
		c0.1-0.2,0.2-0.5,0.5-0.7l0.4-0.4v-0.1l-0.5,0.2c-0.6,0.4-1.2,1.1-1.9,2.2c-0.2,0.4-0.5,0.7-0.8,0.9h-0.3c0-0.1,0.2-0.5,0.7-1.1
		s0.9-1.3,1.4-1.9c0.5-0.6,0.9-1,1.2-1.3c0.3-0.2,0.6-0.5,0.9-0.7c0.1-0.2,0.3-0.3,0.4-0.4c0.1-0.1,0.3-0.1,0.3-0.1
		c0,0,0.1,0.1,0.1,0.2c0,0.1,0,0.1,0.1,0.1c0.2,0,0.6-0.1,1.2-0.2l0.1-0.1l-0.1-0.1c0-0.1,0.3-0.3,0.9-0.5c0.2-0.1,0.4-0.1,0.6-0.1
		c0.2,0,0.3,0,0.4,0.1c0.4,0.1,0.7,0.2,1,0.2s0.6,0.2,1,0.7c0.5,0.4,0.9,0.5,1.2,0.5c0.5,0,1.1,0.2,1.8,0.5c0.3,0.2,0.5,0.3,0.6,0.5
		c0.1,0.1,0.2,0.3,0.4,0.4c0.2,0.2,0.4,0.4,0.5,0.6c0.1,0.3,0.2,0.4,0.4,0.4l0.6-0.1c0,0,0.1,0.1,0.2,0.1c0.3,0,0.7-0.1,1.3-0.4
		c0.4-0.2,1-0.5,1.7-0.7l0.5-0.2c0,0,0,0,0,0H159v0l0.1-0.1c0.4-0.1,0.8-0.2,1.3-0.2c0.2,0,0.4,0,0.4,0.1c0,0,0,0.1-0.1,0.1
		s-0.1,0.1-0.2,0.1c-0.2,0.1-0.3,0.2-0.3,0.3l0.2,0.1l0.8-0.2c-0.1,0.1-0.7,0.4-1.8,0.9c-1.1,0.4-1.7,0.6-1.8,0.6s-0.2,0.1-0.2,0.2
		c0,0.1-0.1,0.2-0.4,0.2c-0.1,0-0.3,0-0.5,0.1c-0.2,0.1-0.5,0.2-0.7,0.4c0.9-0.2,1.9-0.5,3-0.9c1.7-0.6,2.6-0.9,2.6-1.1
		c0,0,0.1,0,0.2,0s0.1,0,0.2,0.1s0.2,0.1,0.2,0.2c0.1,0.1,0.1,0.2,0.1,0.2v0c0,0-0.2,0.2-0.5,0.5c0,0.1-0.5,0.4-1.4,0.8
		c-0.9,0.4-1.5,0.6-1.8,0.7c-0.2,0-0.3,0.1-0.3,0.2s-0.7,0.5-2,1c0,0-0.1,0.1-0.4,0.2c-0.1,0-0.3,0.1-0.6,0.3
		c-0.1,0.1-0.2,0.2-0.2,0.4s0,0.4-0.1,0.7c-0.2,0.9-0.6,2-1.2,3.2c-0.5,1.2-1.1,2.1-1.7,3l-1.4,1.8c-1.1,1.6-2.6,3-4.4,4.3
		c-0.9,0.7-1.4,1.2-1.4,1.3h0.1c0,0,0,0,0,0.1l-0.2,0.1c-0.1,0-0.1,0-0.2,0c0,0-0.1-0.1-0.1-0.1c-0.6,0-1.2,0.1-2,0.4
		C142,57.9,141.7,58,141.4,58z M135.7,51.7L135.7,51.7c0-0.2,0-0.4,0.1-0.8c0.2-1,0.4-1.6,0.5-1.9h0.1c0,0,0,0,0,0.1
		C136.1,50.8,135.9,51.7,135.7,51.7z M136.8,48.2c0-0.2,0.1-0.5,0.4-0.8v0.3C137.1,47.7,137,47.9,136.8,48.2z M137.3,49.8h-0.3
		l-0.1-0.1c0,0,0.1,0,0.2-0.1L137.3,49.8L137.3,49.8z M137.5,49.5L137.5,49.5l-0.3-0.1l0.1-0.3c0-0.2,0-0.3,0.1-0.3
		c0,0,0-0.1,0.1-0.1c0,0,0-0.1,0.1-0.1c0,0,0,0,0.1-0.1c0.1-0.1,0.1-0.1,0.2-0.1l-0.2,0.4l-0.1,0.5
		C137.4,49.4,137.4,49.4,137.5,49.5C137.4,49.4,137.4,49.4,137.5,49.5z M137.7,49.9L137.7,49.9l0.1-0.4c0.2,0,0.3,0,0.3,0.1v0
		C138,49.7,137.9,49.8,137.7,49.9z M137.7,46.2l0.1-0.6l0.3-0.6h0.1l-0.2,0.6L137.7,46.2z M138.1,48.9v-0.1c0-0.1,0-0.3,0.1-0.4
		s0.2-0.2,0.3-0.2l-0.1,0.5C138.2,48.8,138.1,48.9,138.1,48.9z M138.3,44.7L138.3,44.7c0.1-0.5,0.3-0.9,0.4-1
		c0.6-0.9,0.9-1.4,1.1-1.4C138.8,43.9,138.4,44.7,138.3,44.7z M139.5,44.8L139.5,44.8c0-0.3,0.2-0.6,0.7-1.1l-0.1-0.1
		c-0.1,0-0.1,0-0.2,0.1c-0.1,0.1-0.2,0.4-0.4,1L139.5,44.8z M140.2,55.7c0.1,0,0.3-0.1,0.5-0.3c0.1-0.1,0.3-0.3,0.7-0.5
		c0.9-0.6,1.4-0.9,1.6-0.9s0.3-0.1,0.3-0.2s0.1-0.2,0.4-0.2c0.5-0.2,0.8-0.4,0.8-0.6l-0.1-0.1l0-0.1c0.1-0.2,0.2-0.4,0.4-0.4
		c0.2,0,0.5-0.3,1-0.8c1.1-1.1,1.8-1.6,1.9-1.7c0.1,0,0.2-0.1,0.2-0.2c0-0.1,0.1-0.3,0.3-0.5c0.7-1.1,1.1-1.6,1.1-1.6
		c0,0,0-0.1,0.1-0.2s0.2-0.2,0.2-0.3s0.3-0.4,0.7-0.9c0.1,0,0.1,0,0.2-0.1c0-0.1,0.1-0.1,0.1-0.2c0-0.2,0-0.3,0.1-0.4
		c0.1-0.1,0.1-0.2,0.2-0.3c0.1-0.1,0.1-0.2,0.2-0.3c0.4-0.8,0.7-1.3,0.7-1.5l-0.4-0.1l-1,0.1c-0.8,0-2-0.1-3.5-0.2l-0.6-0.1
		c-0.9,0-1.7,0.3-2.2,1c-0.5,0.6-1.2,1.9-2,3.8l-1.3,2.6l-0.8,2.5c-0.1,0.1-0.1,0.5-0.2,1.3v0.4C139.7,55.3,139.9,55.7,140.2,55.7z
		 M139.7,44.7c0.1,0,0.2-0.1,0.3-0.3c0.2-0.2,0.2-0.4,0.2-0.5l-0.1-0.1C139.9,44.2,139.7,44.5,139.7,44.7z M144.6,52.8
		c0.1,0,0.1,0,0.1-0.1c0-0.1,0-0.1-0.1-0.1l-0.2,0.1c0,0.1,0,0.1,0,0.1C144.5,52.8,144.5,52.8,144.6,52.8z M147.3,52.6
		c0-0.1,0-0.1,0.1-0.1c0,0,0,0,0.1-0.1v0h-0.3c-0.1,0-0.1,0-0.1,0.1C147,52.5,147.1,52.6,147.3,52.6z M148.1,52
		c0.1,0,0.3-0.1,0.6-0.4c0.1-0.1,0.2-0.2,0.4-0.3c0.5-0.6,0.8-0.8,0.8-0.9s0.1-0.1,0.1-0.1l0.6-0.4l-0.4,0.5
		c-0.2,0.3-0.3,0.5-0.3,0.7l0.1,0.1c0.1,0,0.3-0.2,0.7-0.5c0.4-0.6,0.7-1,0.7-1.1l-0.1-0.1l0.1-0.1l0.1,0.1c0.2,0,0.7-0.7,1.5-2.1
		c0.7-1.4,1.1-2.4,1.1-3c0-0.1,0-0.2,0-0.2s0-0.1,0.1-0.1c0,0,0.1-0.2,0.1-0.7c0-0.1,0-0.2-0.1-0.3s-0.2-0.1-0.4-0.1
		c-0.4,0-0.7,0.3-0.8,0.9c0,0.2-0.1,0.4-0.2,0.5s-0.1,0.2-0.2,0.2h-0.1l0.2,0.2l-0.1,0.1c-0.1,0.1-0.2,0.2-0.2,0.4
		c0,0.1-0.1,0.3-0.2,0.4l-0.1,0c0,0-0.1,0.1-0.1,0.1h0.1c-0.1,0.1-0.3,0.4-0.5,0.7c0,0.2,0,0.4-0.1,0.7c-0.1,0.2-0.2,0.3-0.3,0.4
		c-0.1,0-0.2,0.1-0.2,0.1l0.1,0.1c0,0.1,0,0.1-0.1,0.1h-0.1c0,0,0,0-0.1,0c0,0,0,0-0.1,0c0,0-0.1,0.1-0.1,0.1l0.1,0.1l0.3-0.1v0.1
		c0,0,0,0.1-0.1,0.1c-0.1,0-0.1,0.1-0.1,0.1c-0.2,0-0.4,0.1-0.5,0.4c-0.1,0.4-0.2,0.6-0.3,0.6l-0.1-0.1l0.1-0.1v-0.1
		c0,0-0.1,0-0.1,0s-0.1,0.1-0.1,0.3c0,0,0,0.1-0.1,0.1c-0.1,0.2-0.3,0.5-0.6,0.8c-0.6,0.6-0.8,0.9-0.8,1c0,0.1,0,0.2-0.1,0.2
		c-0.1,0-0.1,0-0.1,0.1C147.9,51.9,148,52,148.1,52z M148.2,40.8c0.2,0,0.6-0.1,1.3-0.2c1.4-0.3,2.4-0.5,2.8-0.6l-0.9-2l-0.8-0.1
		c-0.3,0-0.5,0.2-0.7,0.7c-0.2,0.5-0.4,0.7-0.6,0.8c-0.2,0.1-0.5,0.2-0.7,0.5s-0.4,0.5-0.5,0.8v0C148,40.7,148.1,40.8,148.2,40.8z
		 M151.7,44.8c0,0,0.1,0,0.1-0.1s0.1-0.1,0.1-0.1c0,0,0,0,0.1,0l0.1-0.5c0,0-0.1,0-0.1,0.1c0,0-0.1,0.1-0.1,0.2
		C151.7,44.5,151.6,44.7,151.7,44.8L151.7,44.8z M153.6,39.7c0.3-0.1,0.4-0.2,0.4-0.3l-0.2-0.3c-0.1-0.2-0.2-0.4-0.3-0.5
		c0-0.1-0.1-0.2-0.2-0.3c-0.1-0.1-0.3-0.3-0.6-0.4l0.1,0.5c0,0.1,0,0.1-0.1,0.1h0c-0.1,0-0.1,0.1-0.1,0.2c0,0.5,0.1,0.8,0.3,0.8
		c0.3-0.1,0.5-0.2,0.8-0.2L153.6,39.7L153.6,39.7z"/>
	<path class="st0" d="M162.4,58.6c-0.3,0-0.5,0-0.7-0.1c-1.2-0.3-2.2-0.8-2.8-1.4c-0.7-0.6-1.1-1.3-1.4-2c-0.3-0.8-0.4-1.5-0.4-2.3
		c0-0.8,0.1-1.6,0.3-2.3l0.1-0.3c0.1-0.6,0.3-1.1,0.4-1.6c0.1-0.5,0.2-0.9,0.3-1.2c0-1.4,1.1-4.9,3.2-10.7l2.2-5.9
		c0.2-0.4,0.4-0.6,0.5-0.6l-0.5,1.4c-1,2.7-1.5,4.2-1.5,4.6c0,0,0,0.1,0.1,0.1h0.1l-0.1,0.3l-0.3-0.1c0,0-0.1,0-0.2,0.1
		s-0.1,0.2-0.1,0.2c0,0,0.1,0,0.2,0v0.1l-0.1,0.1c-0.1,0.2-0.2,0.3-0.2,0.4c0,0,0,0.1,0.1,0.1s0.1,0.1,0.1,0.1h-0.2
		c0,0-0.1,0-0.1,0.1l0.2,0.4l-0.1-0.1c-0.1,0-0.2,0.2-0.3,0.5c-0.1,0.3-0.3,0.7-0.4,1.1s-0.2,0.7-0.2,1l0.1,0.4l-0.1,0.1l-0.1-0.1
		c-0.1,0-0.3,0.3-0.4,1c0,0.1-0.1,0.2-0.1,0.2c0,0-0.1,0.5-0.2,1.3l0.1,0.7c-0.1-0.1-0.2-0.2-0.3-0.3c-0.1,0-0.1,0.1-0.2,0.3
		c-0.1,0.4-0.1,0.6-0.1,0.7s0,0.1,0,0.2l-0.2,1.5l0,0c0,0,0-0.1,0-0.1s0-0.1,0-0.1c0-0.1,0-0.1,0.1-0.2c0-0.1,0-0.1,0.1-0.2
		c0.2-0.6,0.3-0.9,0.4-0.9c0.3,0,0.9-1.3,1.9-4l0.7-2.3l4.7-12.1c0.1,0,1.3-2.6,3.7-7.7c0.2-0.5,0.4-0.7,0.4-0.8
		c0,0,0.1-0.1,0.2-0.3c0.1-0.3,0.2-0.5,0.2-0.6l-0.1,0.1l-0.1-0.1c0-0.1,0.1-0.2,0.2-0.2s0.2-0.1,0.4-0.3l0-0.1
		c0.1-0.1,0.2-0.4,0.3-0.7c0.1-0.3,0.6-1.3,1.4-2.9s1.3-2.5,1.4-2.6c0.1-0.1,0.2-0.2,0.2-0.3c0-0.1,0-0.2,0-0.2c0,0,0,0,0.1-0.1h0
		c0,0,0.2-0.1,0.3-0.4c0-0.1,0.1-0.2,0.2-0.3c0.3-0.4,0.4-0.7,0.4-0.8c0-0.1,0.1-0.2,0.2-0.4c0.1-0.1,0.3-0.3,0.4-0.5
		c0.1-0.2,0.2-0.5,0.4-0.7s0.3-0.4,0.3-0.6s0-0.3,0.1-0.3s0.1,0,0.2,0c0.2,0,0.3-0.2,0.3-0.4l-0.1-0.3c0,0-0.1,0.1-0.4,0.3
		c-0.1,0.1-0.3,0.2-0.5,0.2l0.1,0.2c0,0.1-0.1,0.2-0.3,0.4c-0.3,0.3-1.1,1.2-2.2,2.8l-0.7,1.3c-0.3,0.6-0.5,0.9-0.7,0.9
		c0-0.1,0-0.2,0.1-0.2c0.1,0,0.1-0.1,0.2-0.1c0,0,0.1-0.1,0.1-0.1v-0.2l-0.3,0.1c-0.2,0.2-0.3,0.4-0.3,0.5c0,0.1-0.1,0.3-0.2,0.6
		c-0.1,0.1-0.3,0.2-0.4,0.2l0.8-1.6c0.5-1,0.9-1.6,1-1.8c0.1-0.2,0.2-0.3,0.2-0.5s0.1-0.2,0.2-0.3c0.1-0.1,0.2-0.3,0.4-0.6
		c0.5-0.9,1.1-1.8,1.8-2.5c0.6-0.6,0.9-1.1,1.1-1.5c0-0.1,0.1-0.3,0.1-0.4c0-0.1,0.2-0.2,0.5-0.3s0.6-0.1,0.8-0.2
		c0.4,0,0.8,0.1,1,0.3c0.2,0.1,0.4,0.2,0.5,0.2h1c0-0.1,0-0.1,0.1-0.1c0.1,0,0.3,0.1,0.5,0.4c0.7,0.9,1,1.5,1,1.6
		c0,0-0.1,0.1-0.2,0.1c-0.1,0-0.1,0.1-0.1,0.2c0,1.1-0.7,3.2-2,6.5c-2.8,6.6-5.9,13.3-9.5,19.9c-1.5,2.7-2.4,4.1-2.6,4.1s-0.9,1-2,3
		c-1,2-1.6,3.1-1.6,3.2c0,0.1,0,0.3-0.1,0.3c-0.2,0.1-0.3,0.3-0.4,0.5c0,0.1-0.1,0.3-0.4,0.8l-0.1,0.3c-0.2,0.4-0.5,0.9-0.8,1.5
		c-0.9,1.8-1.4,2.8-1.4,3.1c0,0.9-0.3,1.5-0.8,1.6c0,0-0.1,0-0.1,0c0,0-0.1,0.4-0.3,1.2c-0.2,1.7-0.3,3-0.3,3.8c0,0.5,0,0.7,0.1,0.8
		h0.1c1.4-0.7,2.1-1.2,2.1-1.5l0.1,0.1c0.3,0,1.3-0.8,2.9-2.5c0.8-0.8,1.2-1.2,1.3-1.2l-0.1,0.2c-0.2,0-0.3,0-0.3,0.1
		c0,0.1,0.1,0.2,0.2,0.2c0.2,0,0.3,0,0.3-0.1c0-0.1,0-0.2,0.1-0.2h0.2v-0.1c0-0.1,0-0.1-0.1-0.1s-0.1,0-0.2-0.1
		c0-0.1-0.1-0.1-0.1-0.2c0-0.1,0-0.2,0.1-0.2c0,0.1,0.1,0.1,0.2,0.1l0.2-0.1v0.1c0,0.1,0,0.2,0.1,0.3c0,0,0,0,0-0.1c0,0,0.1,0,0.2,0
		c0-0.3,0-0.4,0.1-0.4h0.1c0,0.1,0,0.3-0.1,0.4c0.1,0,0.1-0.1,0.2-0.2V50l0.1,0.2c0,0.1,0,0.2-0.1,0.4c0,0,0,0,0,0
		c-0.1,0.2-0.3,0.4-0.5,0.5c-0.2,0.1-0.2,0.2-0.3,0.2c0-0.1,0.1-0.3,0.4-0.5c0.1-0.1,0.1-0.2,0.1-0.3l-0.1,0.1
		c-0.4,0.5-0.8,0.9-1.1,1.1c-0.3,0.2-0.5,0.4-0.7,0.4s-0.2,0.1-0.2,0.1l0.1-0.1l0.1,0.2c0,0.1,0,0.1-0.1,0.1h0
		c-0.1,0-0.1,0.1-0.1,0.2l0.1,0.1h-0.3c-0.1,0-0.1,0-0.1,0.1c0,0,0,0.1,0.1,0.2s0.2,0.1,0.3,0.1c0.1,0,0.2-0.1,0.2-0.3l0.1-0.2
		c0.1,0,0.2,0,0.3-0.1c0,0,0.1-0.1,0.1-0.1s0.1-0.1,0.2-0.1s0.2-0.1,0.3-0.1s0.1,0,0.1-0.1s0.2-0.3,0.5-0.7c2.9-2.9,5-5.4,6.3-7.4
		c0.3-0.5,0.5-0.8,0.6-0.8l0.1,0.1c0,0.3-0.1,0.6-0.2,0.7s-0.2,0.3-0.2,0.5c0,0.4-0.3,1.1-0.8,1.9c-0.4,0.5-0.5,0.9-0.5,1.2
		c0,0.1-0.1,0.1-0.2,0.1s-0.2,0.1-0.2,0.3c-0.3,0-0.5,0.1-0.5,0.4l0.1,0.1c0,0.1-0.1,0.3-0.4,0.7l-0.3,0.4l-0.5,0.7l-0.7,0.9
		c0,0-0.1,0.2-0.3,0.5c-0.1,0.1-0.2,0.2-0.2,0.3c0,0-0.1,0.1-0.1,0.1c0,0,0,0,0,0.1c0,0,0,0,0,0.1c0,0,0,0-0.1,0.1
		c0,0-0.1,0.1-0.1,0.1h0.1c0,0.1,0,0.2-0.1,0.2c-0.1,0.1-0.2,0.1-0.3,0.1c0,0.1-0.1,0.3-0.3,0.5c-0.1,0.2-0.2,0.3-0.2,0.5H169
		l-0.5,0.6c0,0-0.1,0.1-0.3,0.3C166,57.3,164.1,58.6,162.4,58.6z M158.2,56.2c0,0,0.1,0,0.1-0.1l-0.1-0.3c-0.4-0.4-0.5-1.3-0.5-2.6
		c0-0.5,0-0.8,0.1-1c0,0,0.1,0.3,0.1,1c0.1,0.8,0.1,1.2,0.1,1.2l0.1-0.6l-0.1-0.6c0.1,0,0.2-0.1,0.3-0.2s0-0.5,0-1.1
		c0-0.1,0.1-0.2,0.1-0.4s0.1-0.4,0.2-0.6c0.1-0.2,0.2-0.4,0.2-0.6c0-0.1,0-0.2-0.1-0.2c-0.1-0.1-0.2-0.1-0.3-0.2
		c-0.1,0-0.2-0.1-0.3-0.1c-0.1,0-0.1,0-0.2,0c-0.1,0-0.1,0-0.1,0.1c0,0,0,0.1-0.1,0.1c0,0,0,0,0,0.1s0,0,0,0.1
		c-0.1,1.3-0.2,2.4-0.2,3.2c0,1.2,0.1,2,0.3,2.4C158,56,158.1,56.2,158.2,56.2z M159.1,54.4l0-0.2c0-0.2,0-0.4,0-0.7
		c0-0.6,0.1-1.2,0.4-1.8c0.2-0.5,0.3-0.9,0.3-1.2c0-0.1-0.1-0.2-0.3-0.2c-0.1,0-0.2,0.1-0.3,0.4c-0.1,0.5-0.2,1.3-0.3,2.5
		L159.1,54.4z M159.6,43.6c0,0,0-0.1-0.1-0.2l0.1-0.3c0.1,0,0.1,0.1,0.1,0.2C159.8,43.4,159.7,43.5,159.6,43.6z M160.6,51.1
		L160.6,51.1c0-0.2,0-0.2-0.1-0.2l-0.1,0.1v0c0,0,0,0.1,0.1,0.1H160.6z M160.5,52.8L160.5,52.8c0-0.3,0-0.4-0.1-0.4l-0.1,0.1
		L160.5,52.8z M160.6,40L160.6,40c0-0.2,0.1-0.5,0.4-0.9C160.8,39.7,160.7,40,160.6,40z M161.5,42.2
		C161.5,42.2,161.5,42.2,161.5,42.2c0.1,0,0.1-0.1,0.2-0.1c0.1,0,0.1-0.1,0.1-0.1c0,0,0-0.1,0-0.1C161.6,41.9,161.5,42,161.5,42.2z
		 M162.3,39.1c0.2,0,0.4-0.3,0.6-0.9c0.1-0.3,0.2-0.4,0.2-0.4c0,0,0,0.1,0,0.1s0,0.1,0,0.1c0,0,0,0.1,0.1,0.1c0,0,0.1,0,0.1,0.1
		s0,0,0,0c0.1,0,0.1-0.1,0.1-0.4c0-0.1,0-0.2,0-0.2c0,0,0-0.1,0.1-0.1c0,0,0.1,0,0.1-0.1l-0.1-0.5l0.1-0.1l0.3,0.2L164,37l-0.1-0.4
		c0-0.1,0.1-0.1,0.1-0.2c0.1-0.1,0.4-0.9,1.1-2.6c0.3-0.8,0.5-1.1,0.5-1.2c0,0,1.2-2.7,3.4-7.9c2.3-5.3,3.4-7.9,3.4-8
		c0-0.1,0-0.1,0.1-0.1c0,0,0.1-0.1,0.3-0.2c0.2-0.3,0.3-0.5,0.3-0.7s0.1-0.4,0.3-0.8c0.2-0.3,0.3-0.7,0.3-0.9c0-0.1,0-0.2,0-0.2
		c0,0,0.1,0,0.1,0c0.1,0,0.1,0,0.1,0v0c0,0,0.1-0.3,0.4-0.8c0.4-0.6,0.6-1,0.6-1.2c0.2-0.4,0.5-0.8,0.7-1.3c0.2-0.5,0.4-0.8,0.5-0.8
		c0,0,0-0.1,0-0.1c0-0.2,0-0.3-0.1-0.3c-0.4,0-1.3,1.4-2.8,4.3s-3.1,6.1-4.8,9.9c-1.7,3.7-3.2,7.2-4.5,10.3
		C162.9,36.8,162.2,38.6,162.3,39.1L162.3,39.1z M162.4,39.9c0.2,0,0.3-0.2,0.3-0.5C162.6,39.3,162.4,39.5,162.4,39.9
		C162.3,39.9,162.3,39.9,162.4,39.9z M162.5,34.6C162.5,34.6,162.5,34.5,162.5,34.6c-0.1-0.1-0.1-0.2,0-0.3c0-0.1,0.1-0.2,0.1-0.2
		l0.1,0.1L162.5,34.6z M163,39.4c0.1,0,0.1-0.1,0.1-0.1l-0.1-0.1c-0.1,0-0.2,0-0.2,0.1c0,0,0,0.1,0,0.1H163z M163.1,38.9l0.2-0.1
		c0-0.1-0.1-0.1-0.3-0.1C163,38.8,163,38.9,163.1,38.9z M163.8,29.8l0.1-0.4l2.2-4.5c-1.1,2.5-1.6,3.8-1.6,4c0,0-0.1,0.2-0.3,0.5
		C164,29.6,163.8,29.8,163.8,29.8z M164.2,30.3L164.2,30.3L164.2,30.3l-0.1-0.4c0.1,0,0.1,0.1,0.1,0.3L164.2,30.3z M165.1,37.2
		l0.2-0.1c0.2-0.1,0.3-0.2,0.3-0.4c0-0.1,0-0.1-0.1-0.1c0,0,0,0-0.1,0s-0.1,0-0.1,0.1s-0.1,0.1-0.1,0.2c0,0.1-0.1,0.1-0.1,0.1
		S165,37.1,165.1,37.2C165,37.2,165,37.2,165.1,37.2z M165.1,28.1L165.1,28.1c0-0.2,0-0.3,0.1-0.3c0.1,0,0.1,0,0.1-0.1l-0.1,0.3
		L165.1,28.1z M165.1,38.2c0,0,0.1,0,0.1-0.1s0.1-0.1,0.1-0.2c0,0,0-0.1-0.1-0.1c0,0,0,0,0,0c0,0,0,0-0.1,0.1c0,0-0.1,0.1-0.1,0.1
		C165.1,38,165.1,38.1,165.1,38.2C165.1,38.1,165.1,38.2,165.1,38.2L165.1,38.2z M165.4,55c0.2,0,0.3-0.1,0.4-0.2
		c0.1-0.1,0.1-0.2,0.1-0.3c0,0,0,0-0.1,0s-0.1,0-0.1,0.1c-0.1,0-0.1,0.1-0.2,0.2C165.5,54.9,165.4,55,165.4,55z M165.9,37.2
		L165.9,37.2c-0.1-0.1,0-0.3,0.2-0.5c0.3-0.4,0.5-0.7,0.5-1l-0.1-0.1c-0.2,0.2-0.4,0.3-0.6,0.3s-0.3,0.2-0.3,0.5
		c0,0,0.1-0.1,0.2-0.2c0.1-0.1,0.2-0.1,0.3-0.1l0.1,0.1c-0.3,0.4-0.4,0.7-0.4,0.9c0,0.1,0,0.1,0.1,0.2S165.8,37.2,165.9,37.2z
		 M166.5,24.6l0.1-0.5h-0.1l-0.4,0.5l-0.1-0.1c0.1-0.2,0.2-0.4,0.2-0.5c0-0.1,0.1-0.3,0.4-0.8l0.1,0.7L166.5,24.6L166.5,24.6z
		 M166,35.7C166.1,35.7,166.1,35.7,166,35.7c0.1-0.1,0.2-0.2,0.2-0.2c0,0,0-0.1,0.1-0.2s0-0.2,0-0.2C166.3,35.1,166.2,35.3,166,35.7
		z M166.3,54.3c0.1,0,0.4-0.3,0.9-0.8l0.4-0.4c-0.2,0.1-0.4,0.3-0.6,0.4c-0.2,0.1-0.3,0.3-0.5,0.5C166.4,54.1,166.3,54.2,166.3,54.3
		z M166.8,35.4c0.1,0,0.2-0.2,0.5-0.7c0.2-0.3,0.3-0.6,0.5-0.8l0.2-0.5l-0.1-0.4c0-0.1,0-0.1,0-0.2c0,0,0.1-0.2,0.3-0.5l-0.1,0.7
		c0,0,0.1,0,0.1-0.1c0,0,0.1-0.1,0.1-0.1c0.4-0.3,0.6-0.7,0.7-1.1c0.4-0.6,0.6-0.9,0.7-1s0.2-0.3,0.2-0.4s0-0.2,0.1-0.2
		c0.1-0.1,0.1-0.1,0.1-0.2c0-0.1,0-0.1,0.1-0.1c0,0,0.1-0.1,0.1-0.1c0,0,0.2-0.4,0.6-0.9c0.3-0.6,0.5-0.9,0.5-0.9c0,0-0.1,0-0.1,0.1
		c0,0.1-0.1,0.1-0.2,0.2c-0.2,0.2-0.4,0.4-0.5,0.7c-0.5,0.7-0.7,1.1-0.7,1.2c0,0.2-0.2,0.5-0.5,0.8c-0.1,0.1-0.3,0.2-0.4,0.2
		l0.2-0.4c0.3-0.4,0.4-0.6,0.4-0.8c0-0.1-0.1-0.1-0.2-0.1c-0.1,0-0.2,0-0.3,0.1c-0.1,0.1-0.2,0.2-0.2,0.3l0.1,0.1l-0.1,0.3v-0.4
		c0-0.6,0.3-1.1,0.8-1.5c0.2-0.1,0.3-0.2,0.4-0.2c0,0.1-0.1,0.1-0.3,0.1c-0.2,0.1-0.3,0.2-0.3,0.3l0.1,0.1h0.1l0.1-0.1l0.1,0.1
		c-0.1,0.1-0.2,0.1-0.3,0.1c-0.1,0-0.2,0-0.3,0.1v0.2c0.1,0,0.3-0.1,0.5-0.4s0.5-0.6,0.8-0.9c0.3-0.4,0.4-0.8,0.6-1.1
		c0-0.1,0.1-0.3,0.3-0.5c1-1.4,1.5-2.3,1.5-2.6h-0.3c0.2-0.3,0.3-0.5,0.4-0.5v0.4c0.1,0,0.4-0.4,0.8-1.3c0.1-0.3,0.3-0.5,0.4-0.7
		c0.1-0.2,0.2-0.3,0.3-0.3c0,0.1-0.1,0.4-0.4,0.8l-0.2,0.5c-0.5,1.1-0.8,1.7-0.9,1.7s-0.2,0.1-0.2,0.3l-0.2,0.4
		c-0.5,0.6-0.7,1.1-0.7,1.3c0,0.1,0,0.1,0.1,0.1c0.1,0,0.2-0.2,0.5-0.6c0-0.1,0.4-0.9,1.2-2.2c1.4-2.5,2-3.8,2-4l-0.1-0.1l-0.4,0.7
		c-0.2,0.5-0.4,0.8-0.5,0.8l-0.1-0.3l0.1-0.5l-0.1-0.2c0,0,0-0.1,0.1-0.1c0.2,0,0.4-0.2,0.7-0.7c0.2-0.3,0.3-0.4,0.3-0.4l0.1,0.1
		c0,0,0-0.2,0.1-0.6l0.1-0.1l-0.1-0.1l-0.2,0.1c0-0.1,0.1-0.2,0.2-0.2h0.2l0.3-0.4c0.4-0.5,0.6-0.9,0.6-1.1l-0.2-0.4v-0.1
		c0.2,0,0.4,0.1,0.5,0.3c0,0.1,0.1,0.1,0.1,0.1c0.1,0,0.1-0.1,0.1-0.2v-0.8c0-0.2,0.1-0.5,0.2-0.6c0.1-0.2,0.3-0.3,0.4-0.3v0.3h0.1
		c0.2-0.2,0.7-1.2,1.4-3c0.8-1.8,1.2-3,1.2-3.4l-0.1-0.1c0.6-1.8,0.9-3,0.9-3.5c-0.1,0-0.1,0.2-0.2,0.5c-0.1,0.6-0.2,1.1-0.4,1.4
		c-0.1,0.2-0.1,0.4-0.2,0.6c0,0.2-0.1,0.3-0.1,0.4c0,0.1-0.1,0.1-0.1,0.1c0,0.1-0.1,0.2-0.1,0.3c0,0.1-0.1,0.1-0.1,0.1
		c0,0,0,0.1,0,0.3c0,0.1,0,0.3,0,0.5l0,0.1c-0.2,0.6-0.3,0.9-0.4,0.9c0,0,0,0,0,0s0,0-0.1-0.1s-0.1-0.1-0.1-0.1
		c0-0.1,0.1-0.2,0.2-0.4l0-0.3c0.1-0.5,0.3-1,0.5-1.8l0.3-1.1c0.1-0.4,0.1-0.6,0.1-0.8l-0.1-0.1c-0.1,0-0.3,0.1-0.4,0.3
		c-0.5,0.5-0.8,1-0.9,1.4c0,0,0,0.1-0.1,0.2c0,0.1,0,0.1,0,0.1c0,0,0,0,0,0.1c0,0,0,0,0,0l-0.2-0.1l0.1,0.4L179.3,8h-0.1l0.1,0.4
		c0,0.1,0,0.2-0.1,0.2s-0.1,0-0.1,0.1l0.1,0.3c0,0,0,0-0.1,0.1c0,0-0.3,0.7-0.8,2.2c-0.2,0.7-0.4,1.1-0.5,1.1c0,0,0,0,0-0.1
		c0-0.2,0-0.4,0.1-0.4c0-0.7,0-1.1,0.1-1.1s0.3-0.4,0.6-1.3s0.5-1.4,0.5-1.7L179,7.7c-0.3,0-1.7,2.4-4.2,7.3
		c-1.1,1.8-1.8,3.1-2.1,3.9l-1.2,2.6c-0.8,1.5-1.4,2.9-1.8,4.1c-0.4,1.2-0.6,2-0.6,2.2c0.1,0,0.2-0.3,0.4-0.9l0.1-0.1h0.1
		c-0.3,1-0.5,1.6-0.8,1.6c0,0,0,0-0.1,0c0,0,0,0-0.1-0.1c0,0,0,0,0-0.1l0.1-0.3c0,0,0,0-0.1,0c0,0,0,0-0.1,0.1c0,0-0.1,0.1-0.2,0.2
		c-0.1,0.1-0.1,0.1-0.1,0.2s0,0,0,0c0,0,0,0,0.1,0.1c0,0,0.1,0.1,0.1,0.1s0.1,0,0.1,0s0,0.1,0,0.2c0,0.5-0.3,1.3-1,2.4
		c0,0.1,0,0.3,0.1,0.3c0.1,0.2,0.1,0.3,0.2,0.3c-0.3,0-0.4,0-0.4-0.1c0,0.9-0.2,1.4-0.4,1.4l-0.1-0.1c0,0-0.1,0.1-0.1,0.2
		c0,0.1,0,0.3-0.1,0.5l-0.3,0.9l0.2-0.2c0.2-0.4,0.4-0.7,0.5-0.7c0,0.3-0.2,0.8-0.7,1.5L166.8,35.4z M166.8,23.1L166.8,23.1
		c0.4-1.2,0.7-1.9,0.8-2c0,0,0.1,0,0.1,0.1c0,0.1,0,0.3-0.1,0.4c-0.1,0.1-0.1,0.2-0.2,0.3C167.1,22.7,166.9,23.1,166.8,23.1z
		 M167.5,33.5C167.5,33.5,167.5,33.5,167.5,33.5c-0.1,0-0.1-0.1-0.1-0.2l0.1-0.3l0.1,0.1L167.5,33.5z M167.7,38.2
		C167.6,38.2,167.6,38.2,167.7,38.2l-0.1-0.2l0.1-0.3l0.1,0.1C167.8,37.9,167.8,38.1,167.7,38.2z M168,21.1c-0.1,0-0.1-0.1-0.1-0.2
		c0-0.2,0.1-0.6,0.4-1.3c0.7-1.4,1.1-2,1.2-2c0,0.2-0.2,0.6-0.6,1.3c-0.5,0.9-0.8,1.4-0.8,1.6c0,0.1,0.1,0.2,0.2,0.4c0,0,0,0,0,0.1
		c0,0,0,0.1-0.1,0.1C168.2,21.1,168.1,21.1,168,21.1z M168,31.8l-0.1-0.4h0.1c0.1,0,0.2-0.1,0.3-0.3c0.1-0.2,0.1-0.4,0.1-0.5
		l-0.1-0.4l0.5,0.3c0,0,0,0.1,0,0.1s-0.1,0.2-0.1,0.3s-0.1,0.2-0.2,0.3c-0.1,0.1-0.1,0.2-0.2,0.3C168.2,31.7,168.1,31.8,168,31.8z
		 M168,29.5C168.1,29.5,168.1,29.5,168,29.5c0.1-0.2,0.1-0.2,0.2-0.3c0,0,0.1-0.1,0.1-0.2s0-0.2,0-0.2c-0.1,0-0.2,0-0.2,0.1
		L168,29.5L168,29.5z M168,49.7l0.4-0.5v0.1C168.3,49.5,168.1,49.7,168,49.7z M168.6,31.9c-0.1,0-0.1,0-0.1-0.1c0,0,0,0,0-0.1
		c0,0,0-0.1,0.1-0.1c0,0,0.1-0.1,0.1-0.1l0.1,0.1L168.6,31.9z M168.8,49.7h-0.1c0,0,0,0,0-0.1l0.2-0.3h0.1c0,0,0.1,0,0.1,0.1
		C169,49.6,168.9,49.7,168.8,49.7z M168.7,20v-0.1c0-0.1,0-0.2,0.1-0.2c0.1,0,0.1,0,0.1-0.1c0,0,0,0.1-0.1,0.2
		C168.9,19.8,168.8,19.9,168.7,20z M168.8,29.3L168.8,29.3c-0.1,0-0.1-0.1,0-0.2c0-0.1,0.1-0.2,0.1-0.2l0.1,0.1
		C169,29.2,168.9,29.3,168.8,29.3z M169.3,49.2c-0.1,0-0.1,0-0.1-0.1c0-0.1,0-0.3,0.1-0.4c0.1-0.2,0.2-0.2,0.3-0.2
		c0.1,0,0.3-0.2,0.5-0.7c0,0.3,0,0.4-0.1,0.5h0.1v0.1c-0.1,0.2-0.2,0.3-0.3,0.3c0,0-0.2,0-0.5,0l0.1,0.3L169.3,49.2z M169.4,49.4
		c0-0.1,0-0.2,0.1-0.3c0.1-0.1,0.1-0.2,0.1-0.2c0.1,0,0.1,0,0.1,0.1L169.4,49.4z M169.5,17.2L169.5,17.2c0-0.3,0.4-1.2,1.2-2.6
		c0.3-0.6,0.6-1.1,0.8-1.6l0.6-0.9c0,0.2-0.1,0.5-0.3,0.9l-0.3,1l-0.3-0.1c0,0-0.1,0.1-0.1,0.2s-0.1,0.3-0.2,0.3
		c-0.1,0.1-0.2,0.4-0.4,0.9c-0.5,0.8-0.7,1.2-0.7,1.3c0,0.1,0,0.1,0.1,0.2l0.1-0.1c0.1,0,0.1,0,0.1,0.1c0,0,0,0-0.1,0s0,0-0.1,0.1
		c0,0-0.1,0.1-0.1,0.1C169.9,17,169.7,17.1,169.5,17.2z M169.9,28.2c-0.1,0-0.1-0.1-0.1-0.4c0,0-0.1,0.1-0.1,0.1
		c0,0-0.1,0.1-0.1,0.2c0-0.1,0-0.3,0-0.4c0-0.2,0.1-0.4,0.3-0.4c0,0,0,0.1,0,0.1c0,0,0,0.1,0,0.1c0,0,0,0.1,0.1,0.1
		c0.1,0,0.1,0,0.2-0.1c0-0.1,0.1-0.1,0.1-0.2c0.1-0.2,0.1-0.4,0.1-0.5l-0.1-0.1c-0.1,0-0.2,0.1-0.3,0.1c0,0-0.1-0.2-0.2-0.5
		c0,0,0.1,0,0.1,0.1c0,0.1,0.1,0.1,0.2,0.1c0.1,0,0.1-0.1,0.2-0.1c0,0,0.1-0.1,0.1-0.1c0,0,0,0,0.1-0.1v0.2c0,0.1,0,0.1,0.1,0.1
		c0.1,0.1,0.2,0.2,0.2,0.3h-0.2v0.3c0,0.3-0.1,0.5-0.3,0.5c0,0-0.1,0-0.2,0.1C170.1,28.1,170,28.1,169.9,28.2z M170.4,48.3
		C170.3,48.3,170.3,48.3,170.4,48.3l0.1-0.4l0.1,0.1C170.5,48.2,170.5,48.3,170.4,48.3z M170.5,22.9l0.1-0.1l-0.1-0.3l-0.1,0.2
		L170.5,22.9z M170.5,16.2c0,0,0-0.1,0.1-0.3s0.1-0.3,0.2-0.3c0,0,0.1,0,0.1,0.1L170.5,16.2z M170.6,50.3l0.1-0.2
		c0-0.1,0-0.1-0.1-0.1c0,0-0.1,0.1-0.1,0.2C170.5,50.2,170.6,50.3,170.6,50.3z M171,25.4L171,25.4c-0.1-0.2,0-0.4,0.1-0.4
		c0,0,0.1,0,0.1,0.1L171,25.4z M171.1,15c0-0.1,0-0.1,0-0.2c0,0,0.1-0.1,0.2-0.2l0.1-0.1l0.1,0.1c0,0.1,0,0.2-0.1,0.3
		C171.3,15,171.2,15,171.1,15z M171.3,24.8l0.1-0.3l0.2-0.2l-0.1-0.1l-0.1,0.1l-0.1-0.1c0-0.1,0.1-0.2,0.2-0.2s0.4-0.3,0.7-0.8
		c0.2-0.3,0.3-0.5,0.4-0.5l-0.6,1.1c-0.2,0.4-0.3,0.6-0.5,0.7C171.5,24.7,171.4,24.8,171.3,24.8z M171.6,27.4c0.1,0,0.1-0.1,0.2-0.2
		c0-0.1,0.1-0.2,0.1-0.4l-0.1-0.1c-0.1,0-0.2,0.1-0.3,0.2s-0.1,0.3-0.1,0.4L171.6,27.4z M171.5,47.7v-0.1c0-0.2,0-0.3,0.1-0.3
		c0,0,0.1,0,0.1,0.1c0,0,0.1,0.1,0.1,0.1c0,0,0,0.1-0.1,0.1C171.7,47.6,171.6,47.6,171.5,47.7z M172.1,13.5H172c0-0.2,0-0.3,0.1-0.3
		l0.1,0.2C172.2,13.5,172.1,13.5,172.1,13.5z M173.3,21.3l-0.1-0.2c0-0.1,0-0.2,0.1-0.2s0.1-0.1,0.2-0.1c0,0,0.1,0,0.1,0
		c0.1,0,0.1,0,0.1,0.1c0,0,0,0.1-0.1,0.1c0,0-0.1,0.1-0.1,0.2C173.5,21.2,173.4,21.3,173.3,21.3z M173.4,10.2c0,0,0.1,0,0.1-0.1
		s0.1-0.1,0.2-0.2c0.1-0.2,0.2-0.3,0.2-0.3c0,0,0.1-0.3,0.4-0.8c0.5-0.8,0.7-1.2,0.7-1.3c-0.1,0-0.3,0.2-0.6,0.6
		c-0.3,0.4-0.5,0.8-0.6,1.1l-0.1,0.1c-0.1,0.1-0.2,0.3-0.3,0.4c-0.1,0.1-0.1,0.2-0.1,0.3S173.4,10.2,173.4,10.2z M173.7,25.1
		l0.2-0.1c0.1,0,0.1-0.1,0.1-0.2l-0.1-0.1c0,0,0,0-0.1,0.1c0,0,0,0-0.1,0.1c0,0-0.1,0.1-0.1,0.1C173.7,24.9,173.7,25,173.7,25.1z
		 M173.8,20.4l0.1-0.7l-0.1-0.2l0.1-0.1h0.4L173.8,20.4z M174.5,18.9l0-0.1c0.2-0.3,0.3-0.5,0.4-0.5L174.5,18.9z M175.2,17.7
		L175.2,17.7c0-0.2,0.1-0.4,0.2-0.6c0.1-0.2,0.2-0.4,0.2-0.7h0.1c0.1,0,0.3-0.5,0.6-1.6c0-0.2,0.1-0.3,0.1-0.3V15l0.2-0.4h0.1
		c0,0.2-0.2,0.8-0.7,1.7C175.7,17.3,175.4,17.7,175.2,17.7z M175.3,7.2c0,0,0.1,0,0.1-0.1c0.2-0.2,0.3-0.4,0.4-0.6
		C175.7,6.5,175.5,6.7,175.3,7.2z M176,19.7c0.1,0,0.1,0,0.1-0.1s0-0.2-0.1-0.2l-0.1,0.2v0.1L176,19.7z M176.1,19.1
		c0,0,0.3-0.3,0.7-0.9c0.1-0.2,0.2-0.4,0.3-0.4c0.1-0.1,0.2-0.3,0.2-0.4c0-0.1-0.1-0.1-0.2-0.1c0,0,0,0,0,0.1c0,0.1-0.1,0.2-0.3,0.5
		c-0.5,0.6-0.7,1-0.7,1.3C176,19.1,176.1,19.1,176.1,19.1z M176.8,6.7L176.8,6.7l-0.1-0.1c0-0.1,0.1-0.1,0.3-0.1L176.8,6.7z
		 M177,19.4c0,0,0.1,0,0.1-0.1s0.1-0.2,0.1-0.3l-0.1-0.1C177,19,176.9,19.2,177,19.4L177,19.4z M177,14.1L177,14.1
		c-0.1-0.2,0-0.4,0.1-0.4c0,0,0.1,0,0.1,0.1C177.2,13.9,177.1,14,177,14.1z M177.7,16.2C177.7,16.2,177.7,16.1,177.7,16.2
		c0.1-0.2,0.1-0.2,0.1-0.2s0-0.1,0-0.1c0-0.1,0-0.1,0-0.2l-0.1-0.1c0,0-0.1,0-0.1,0.1c-0.1,0-0.1,0.1-0.1,0.4
		C177.6,16.1,177.6,16.2,177.7,16.2z M178.2,14.5L178.2,14.5c0-0.2,0.4-1.4,1.3-3.6c0.2-0.3,0.3-0.5,0.3-0.5c0,0,0.1,0,0.1,0.1
		c0,0.1,0,0.3-0.1,0.5c-0.2,0.7-0.5,1.6-1,2.5C178.4,14.2,178.2,14.5,178.2,14.5z"/>
	<path class="st0" d="M178.7,56c-0.9,0-1.7-0.2-2.2-0.5c-0.3-0.2-0.7-0.5-1.2-0.9c-0.3-0.2-0.5-0.4-0.7-0.6
		c-0.5-0.4-0.9-0.9-1.1-1.3s-0.3-1.1-0.3-2c0-0.5,0.1-1.3,0.3-2.5c0.5-3,0.9-4.9,1.2-5.7c0,0,0.2-0.4,0.4-1.2c0.7-1.8,1-2.7,1-2.7
		s0-0.1,0-0.1c0,0,0.1-0.2,0.2-0.3l0.1-0.3v-0.4c0.1-0.2,0.3-0.3,0.4-0.3c0.1,0,0.2,0.1,0.2,0.2c0,0.1,0.1,0.2,0.2,0.2
		c0.1,0,0.4,0.1,1,0.1c0.1,0,0.2,0.1,0.2,0.2c0,0.1,0,0.1-0.1,0.1l-0.4-0.1v0l0.2,0.2c0.3,0.1,0.5,0.2,0.6,0.2
		c0.2,0,0.5,0.1,0.6,0.4c0.2,0.3,0.3,0.6,0.3,1c0,0.2-0.1,0.5-0.2,0.9c-0.1,0.4-0.4,1-0.7,1.9c-0.2,0.3-0.4,1-0.7,1.9
		c-0.5,1.9-0.9,3.5-1.2,4.7c-0.1,0.2-0.2,0.5-0.3,0.8c-0.1,0.3-0.2,1.1-0.2,2.4c0,0.5,0,0.7,0.1,0.8l0.7,0.1c0.1,0,0.3-0.1,0.4-0.3
		s0.8-0.4,1.9-0.6c0.1,0,0.3-0.1,0.5-0.3c0.7-0.4,1-0.8,1-0.9c-0.1,0-0.3,0.1-0.7,0.3c-0.3,0.2-0.5,0.3-0.6,0.3l-0.1-0.1
		c0-0.1,0.2-0.4,0.7-0.7c0.7-0.6,2.2-2.1,4.5-4.7c0.6-0.7,1.3-1.5,2.2-2.4c1.4-1.5,2.1-2.3,2.3-2.4s0.3-0.2,0.4-0.2l0.4,0.1
		c0,0,0,0.1-0.1,0.1c-0.1,0-0.1,0.1-0.2,0.1s-0.1,0.1-0.2,0.1c0,0,0.1,0.1,0.3,0.2c0.1,0,0.2,0,0.3-0.1c0,0,0.1-0.1,0.1-0.2
		c0.1,0,0.1,0,0.2,0.1c0.1,0.1,0.2,0.2,0.3,0.3c0.1,0,0.1,0,0.1,0v-0.1c0,0,0-0.1,0.1-0.1c0.1,0.1,0.2,0.3,0.3,0.4
		c0,0.1-0.1,0.4-0.4,0.7c-0.3,0.3-0.4,0.5-0.4,0.7c0,0.1-0.2,0.5-0.7,1.2c-0.5,0.6-0.8,1.1-0.9,1.5c0,0.1-0.1,0.3-0.3,0.5
		c-0.3,0.6-0.6,1-0.8,1.2c-0.7,0.9-1.1,1.3-1.1,1.3c0,0-0.1,0-0.1,0.1c-1.2,1.5-2.5,2.9-4,4.3c-0.7,0.6-1.2,1-1.4,1.1
		c-0.1,0-0.2,0.1-0.3,0.3c-0.3,0.1-0.5,0.2-0.7,0.2c-0.3,0-0.6,0.1-0.8,0.2C179.4,56,179.1,56,178.7,56z M180.6,35.3h-0.7
		c-0.1,0-0.1-0.1-0.1-0.3v-0.1c-0.1-0.3-0.2-0.4-0.4-0.4c0,0-0.1,0-0.1,0c0,0-0.1,0-0.2,0s-0.1-0.1-0.2-0.1c0-0.1,0-0.2-0.1-0.3
		c0-0.3,0-0.7,0.1-1.2c0.2-1.2,0.4-1.9,0.5-2.2l0.2-0.6c0-0.3,0.1-0.6,0.3-0.8c0.2-0.5,0.3-0.9,0.3-1.3c0.2-0.7,0.4-1,0.5-1
		c0,0,0.1-0.2,0.1-0.4c0-0.2,0-0.4,0.1-0.4c0.1,0,0.1,0.1,0.2,0.2c0.1,0.1,0.2,0.2,0.4,0.3c0.4,0.2,0.7,0.3,1,0.3s0.5,0,0.6,0.1v0.1
		l-0.3,0.1c-0.2,0.1-0.3,0.2-0.3,0.3c0,0.1,0.1,0.1,0.2,0.1l0.6-0.1c0.1,0,0.3,0.1,0.3,0.2l0.1,0.1c0.1,0.2,0.2,0.4,0.3,0.4
		s0.2,0.1,0.2,0.3l0,0.4c-0.1,0.3-0.4,1.2-1.1,2.6c-0.7,1.5-1.1,2.3-1.2,2.4c-0.2,0.2-0.4,0.5-0.5,0.9c-0.1,0.4-0.3,0.6-0.4,0.6
		S180.7,35.3,180.6,35.3z M182.1,51.3c0,0,0.2-0.2,0.6-0.5c0.8-0.7,1.2-1.1,1.3-1.1c3-3.5,4.6-5.3,4.6-5.5l1.5-1.7
		c0-0.1,0-0.1-0.1-0.1c-0.3,0-0.5,0-0.6,0.1c-0.3,0.2-0.9,0.8-1.9,1.9c-1,1-1.5,1.6-1.5,1.7s-0.4,0.6-1.3,1.6
		c-2.2,2.3-3.3,3.6-3.3,3.8c0,0,0.1-0.1,0.1-0.1c0.1,0,0.2-0.1,0.3-0.2c0.1-0.1,0.2-0.1,0.4-0.1c0.1,0,0.1,0,0.1,0.1L182.1,51.3z
		 M183.6,51.3c0.3-0.5,0.5-0.8,0.7-0.9c0.2,0,1.5-1.4,3.8-4.1l0.5-0.7c0.2-0.3,0.4-0.5,0.4-0.7c0-0.1,0.1-0.2,0.2-0.2
		s0.1-0.1,0.1-0.2c-0.1,0-0.3,0.1-0.6,0.4l-0.3,0.3c-0.5,0.6-1,1.2-1.5,1.7c-1.5,1.8-2.4,2.8-2.9,3.2
		C183.9,50.3,183.7,50.7,183.6,51.3z"/>
	<path class="st0" d="M186.2,53.3l-0.1-0.2c0-0.2,0-0.5,0.1-0.9l0.1,0.2C186.3,52.7,186.3,53,186.2,53.3z M192,58l-0.7-0.1
		c-1.2-0.2-2-0.4-2.2-0.8c-0.1-0.3-0.3-0.4-0.5-0.4c-0.2,0-0.3,0.1-0.3,0.3c0,0,0,0.1-0.1,0.1l-0.5-0.4c-0.3-0.2-0.6-0.5-0.8-0.8
		c-0.3-0.4-0.6-1.1-0.8-2.2l0.4,0.5c0.1,0,0.2-0.4,0.4-1.3c0.1-0.5,0.1-0.8,0.1-1s0-0.4,0.1-0.5c0.1,0,0.1-0.1,0.1-0.4V51
		c0-0.3,0-0.5,0.1-0.7c0-0.1,0.1-0.2,0.1-0.2l0.5,0.2h0.1v-0.2l0.2,0.1c0,0.1-0.2,0.2-0.6,0.2c-0.1,0-0.1,0.1-0.2,0.3
		c0,0.1,0.1,0.2,0.2,0.2c0.1,0,0.2,0,0.3-0.1c0,0,0,0,0,0.1c0,0,0,0-0.1,0.1s-0.1,0.1-0.1,0.1s-0.1,0.1-0.1,0.1s-0.1,0.1-0.1,0.2
		l0.1,0.4c0,0.1,0,0.2-0.1,0.2c-0.1,0-0.1,0-0.2,0.1l0.1,0.2c0,0.4,0,0.7-0.1,1c0,0.4,0,0.7,0.1,0.7c0.1,0,0.2-0.3,0.4-0.8l0.1,0.3
		c0,0.2,0,0.3-0.1,0.3c0,0.1-0.1,0.1-0.1,0.1c0,0,0,0-0.1,0.1l0.1,0.1h0.2v0.1l-0.4,0.4c0.2,0,0.4,0.1,0.5,0.4l0.1-0.1
		c0-0.4,0.2-1.5,0.7-3.3c0.1-0.4,0.2-0.7,0.2-1c0-0.3,0.1-0.6,0.4-0.9c0,0,0.1-0.1,0.1-0.2c0-0.1,0-0.2,0-0.3s0-0.1,0-0.2
		c0.1-0.5,0.2-0.7,0.4-0.7c0.1,0,0.2-0.2,0.2-0.5s0.1-0.5,0.2-0.6c0.1,0,0.1,0,0.1-0.1v-0.1c0-0.1,0-0.2,0.1-0.3
		c0.1,0,0.1,0,0.1-0.1v-0.1c0-0.1,0.1-0.5,0.4-1.2c0.3-0.7,0.5-1.1,0.6-1.2c0,0,0-0.1,0.1-0.2c0.1-0.1,0.1-0.2,0.2-0.4
		c0.1-0.1,0.1-0.3,0.2-0.5l0-0.1c0-0.2,0.2-0.4,0.3-0.7c-0.3,0.3-0.6,0.8-0.9,1.4c-0.3,0.6-0.6,1.1-0.9,1.5
		c-0.3,0.2-0.6,0.8-0.9,1.6c-0.4,0.7-0.6,1-0.6,1c0-0.2,0.1-0.5,0.4-1.1c0.1-0.1,0.1-0.3,0.1-0.5v-0.1c0,0-0.1,0-0.2,0
		c0,0,0-0.1,0-0.1c0.2,0,0.4-0.1,0.5-0.3c0.2-0.2,0.3-0.4,0.3-0.5c0,0-0.1,0-0.4-0.1c-0.1,0.1-0.2,0.2-0.2,0.2s0,0.1-0.1,0.1
		c0-0.2,0.2-0.6,0.5-1.3s0.5-1,0.6-1l0.1,0.1c0,0,0,0.1,0,0.1s0,0.1,0,0.1c0,0.1,0,0.1-0.1,0.1s0,0.1-0.1,0.1c0.1,0,0.1-0.1,0.2-0.1
		c0.1,0,0.2-0.2,0.2-0.3c0.1-0.2,0.1-0.3,0.1-0.5c0-0.3,0.1-0.5,0.3-0.5c0.1,0,0.2,0,0.2,0l-0.1-0.3c0-0.1,0-0.1,0-0.2s0-0.1,0-0.1
		c0,0,0-0.1,0-0.1c0,0,0-0.1,0.1-0.1c0,0,0.2,0,0.3,0L192,41c0-0.1,0.1-0.2,0.2-0.3c0.1-0.1,0.2-0.2,0.2-0.3l-0.1-0.1c0,0,0,0,0.1,0
		s0.1,0,0.1-0.1c0,0,0.1-0.1,0.1-0.1c0,0,0,0,0,0c0,0,0,0,0,0c0,0,0,0,0-0.1c0,0,0,0,0-0.1s0,0,0-0.1c0,0,0,0,0.1-0.1
		c0.1-0.2,0.2-0.5,0.5-0.7l0.4-0.4v-0.1l-0.5,0.2c-0.6,0.4-1.2,1.1-1.9,2.2c-0.2,0.4-0.5,0.7-0.8,0.9h-0.3c0-0.1,0.2-0.5,0.7-1.1
		c0.4-0.6,0.9-1.3,1.4-1.9c0.5-0.6,0.9-1,1.2-1.3c0.3-0.2,0.6-0.5,0.9-0.7c0.1-0.2,0.3-0.3,0.4-0.4c0.1-0.1,0.3-0.1,0.3-0.1
		c0,0,0.1,0.1,0.1,0.2c0,0.1,0,0.1,0.1,0.1c0.2,0,0.6-0.1,1.2-0.2l0.1-0.1l-0.1-0.1c0-0.1,0.3-0.3,0.9-0.5c0.2-0.1,0.4-0.1,0.6-0.1
		c0.2,0,0.3,0,0.4,0.1c0.4,0.1,0.7,0.2,1,0.2c0.3,0,0.6,0.2,1,0.7c0.5,0.4,0.9,0.5,1.2,0.5c0.5,0,1.1,0.2,1.8,0.5
		c0.3,0.2,0.5,0.3,0.6,0.5c0.1,0.1,0.2,0.3,0.4,0.4c0.2,0.2,0.4,0.4,0.5,0.6c0.1,0.3,0.2,0.4,0.4,0.4l0.6-0.1c0,0,0.1,0.1,0.2,0.1
		c0.3,0,0.7-0.1,1.3-0.4c0.4-0.2,1-0.5,1.7-0.7l0.5-0.2c0,0,0,0,0,0h-0.1v0l0.1-0.1c0.4-0.1,0.8-0.2,1.3-0.2c0.2,0,0.4,0,0.4,0.1
		c0,0,0,0.1-0.1,0.1s-0.1,0.1-0.2,0.1c-0.2,0.1-0.3,0.2-0.3,0.3l0.2,0.1l0.8-0.2c-0.1,0.1-0.7,0.4-1.8,0.9c-1.1,0.4-1.7,0.6-1.8,0.6
		s-0.2,0.1-0.2,0.2c0,0.1-0.1,0.2-0.4,0.2c-0.1,0-0.3,0-0.5,0.1c-0.2,0.1-0.5,0.2-0.7,0.4c0.9-0.2,1.9-0.5,3-0.9
		c1.7-0.6,2.6-0.9,2.6-1.1c0,0,0.1,0,0.2,0s0.1,0,0.2,0.1s0.2,0.1,0.2,0.2c0.1,0.1,0.1,0.2,0.1,0.2v0c0,0-0.2,0.2-0.5,0.5
		c0,0.1-0.5,0.4-1.4,0.8s-1.5,0.6-1.8,0.7c-0.2,0-0.3,0.1-0.3,0.2s-0.7,0.5-2,1c0,0-0.1,0.1-0.4,0.2c-0.1,0-0.3,0.1-0.6,0.3
		c-0.1,0.1-0.2,0.2-0.2,0.4s0,0.4-0.1,0.7c-0.2,0.9-0.6,2-1.2,3.2s-1.1,2.1-1.7,3l-1.4,1.8c-1.1,1.6-2.6,3-4.4,4.3
		c-0.9,0.7-1.4,1.2-1.4,1.3h0.1c0,0,0,0,0,0.1l-0.2,0.1c-0.1,0-0.1,0-0.2,0s-0.1-0.1-0.1-0.1c-0.6,0-1.2,0.1-2,0.4
		C192.6,57.9,192.3,58,192,58z M186.3,51.7L186.3,51.7c0-0.2,0-0.4,0.1-0.8c0.2-1,0.4-1.6,0.5-1.9h0.1c0,0,0,0,0,0.1
		C186.7,50.8,186.5,51.7,186.3,51.7z M187.4,48.2c0-0.2,0.1-0.5,0.4-0.8v0.3C187.7,47.7,187.6,47.9,187.4,48.2z M187.9,49.8h-0.3
		l-0.1-0.1c0,0,0.1,0,0.2-0.1L187.9,49.8L187.9,49.8z M188.1,49.5L188.1,49.5l-0.3-0.1l0.1-0.3c0-0.2,0-0.3,0.1-0.3
		c0,0,0-0.1,0.1-0.1c0,0,0-0.1,0.1-0.1c0,0,0,0,0.1-0.1c0.1-0.1,0.1-0.1,0.2-0.1l-0.2,0.4l-0.1,0.5C188,49.4,188,49.4,188.1,49.5
		C188,49.4,188,49.4,188.1,49.5z M188.3,49.9L188.3,49.9l0.1-0.4c0.2,0,0.3,0,0.3,0.1v0C188.6,49.7,188.5,49.8,188.3,49.9z
		 M188.3,46.2l0.1-0.6l0.3-0.6h0.1l-0.2,0.6L188.3,46.2z M188.7,48.9v-0.1c0-0.1,0-0.3,0.1-0.4c0.1-0.1,0.2-0.2,0.3-0.2l-0.1,0.5
		C188.8,48.8,188.7,48.9,188.7,48.9z M188.9,44.7L188.9,44.7c0.1-0.5,0.3-0.9,0.4-1c0.6-0.9,0.9-1.4,1.1-1.4
		C189.4,43.9,189,44.7,188.9,44.7z M190.1,44.8L190.1,44.8c0-0.3,0.2-0.6,0.7-1.1l-0.1-0.1c-0.1,0-0.1,0-0.2,0.1s-0.2,0.4-0.4,1
		L190.1,44.8z M190.8,55.7c0.1,0,0.3-0.1,0.5-0.3c0.1-0.1,0.3-0.3,0.7-0.5c0.9-0.6,1.4-0.9,1.6-0.9s0.3-0.1,0.3-0.2s0.1-0.2,0.4-0.2
		c0.5-0.2,0.8-0.4,0.8-0.6l-0.1-0.1l0-0.1c0.1-0.2,0.2-0.4,0.4-0.4s0.5-0.3,1-0.8c1.1-1.1,1.8-1.6,1.9-1.7c0.1,0,0.2-0.1,0.2-0.2
		c0-0.1,0.1-0.3,0.3-0.5c0.7-1.1,1.1-1.6,1.1-1.6c0,0,0-0.1,0.1-0.2s0.2-0.2,0.2-0.3s0.3-0.4,0.7-0.9c0.1,0,0.1,0,0.2-0.1
		s0.1-0.1,0.1-0.2c0-0.2,0-0.3,0.1-0.4c0.1-0.1,0.1-0.2,0.2-0.3c0.1-0.1,0.1-0.2,0.2-0.3c0.4-0.8,0.7-1.3,0.7-1.5l-0.4-0.1l-1,0.1
		c-0.8,0-2-0.1-3.5-0.2l-0.6-0.1c-0.9,0-1.7,0.3-2.2,1s-1.2,1.9-2,3.8l-1.3,2.6l-0.8,2.5c-0.1,0.1-0.1,0.5-0.2,1.3v0.4
		C190.3,55.3,190.5,55.7,190.8,55.7z M190.3,44.7c0.1,0,0.2-0.1,0.3-0.3c0.2-0.2,0.2-0.4,0.2-0.5l-0.1-0.1
		C190.5,44.2,190.3,44.5,190.3,44.7z M195.2,52.8c0.1,0,0.1,0,0.1-0.1c0-0.1,0-0.1-0.1-0.1l-0.2,0.1c0,0.1,0,0.1,0,0.1
		C195.1,52.8,195.1,52.8,195.2,52.8z M197.9,52.6c0-0.1,0-0.1,0.1-0.1s0,0,0.1-0.1v0h-0.3c-0.1,0-0.1,0-0.1,0.1
		C197.6,52.5,197.7,52.6,197.9,52.6z M198.7,52c0.1,0,0.3-0.1,0.6-0.4c0.1-0.1,0.2-0.2,0.4-0.3c0.5-0.6,0.8-0.8,0.8-0.9
		s0.1-0.1,0.1-0.1l0.6-0.4l-0.4,0.5c-0.2,0.3-0.3,0.5-0.3,0.7l0.1,0.1c0.1,0,0.3-0.2,0.7-0.5c0.4-0.6,0.7-1,0.7-1.1l-0.1-0.1
		l0.1-0.1l0.1,0.1c0.2,0,0.7-0.7,1.5-2.1c0.7-1.4,1.1-2.4,1.1-3c0-0.1,0-0.2,0-0.2c0,0,0-0.1,0.1-0.1s0.1-0.2,0.1-0.7
		c0-0.1,0-0.2-0.1-0.3s-0.2-0.1-0.4-0.1c-0.4,0-0.7,0.3-0.8,0.9c0,0.2-0.1,0.4-0.2,0.5s-0.1,0.2-0.2,0.2H203l0.2,0.2l-0.1,0.1
		c-0.1,0.1-0.2,0.2-0.2,0.4c0,0.1-0.1,0.3-0.2,0.4l-0.1,0c0,0-0.1,0.1-0.1,0.1h0.1c-0.1,0.1-0.3,0.4-0.5,0.7c0,0.2,0,0.4-0.1,0.7
		c-0.1,0.2-0.2,0.3-0.3,0.4c-0.1,0-0.2,0.1-0.2,0.1l0.1,0.1c0,0.1,0,0.1-0.1,0.1h-0.1c0,0,0,0-0.1,0c0,0,0,0-0.1,0
		c0,0-0.1,0.1-0.1,0.1l0.1,0.1l0.3-0.1v0.1c0,0,0,0.1-0.1,0.1c-0.1,0-0.1,0.1-0.1,0.1c-0.2,0-0.4,0.1-0.5,0.4
		c-0.1,0.4-0.2,0.6-0.3,0.6l-0.1-0.1l0.1-0.1v-0.1c0,0-0.1,0-0.1,0s-0.1,0.1-0.1,0.3c0,0,0,0.1-0.1,0.1c-0.1,0.2-0.3,0.5-0.6,0.8
		c-0.6,0.6-0.8,0.9-0.8,1c0,0.1,0,0.2-0.1,0.2c-0.1,0-0.1,0-0.1,0.1C198.5,51.9,198.6,52,198.7,52z M198.8,40.8
		c0.2,0,0.6-0.1,1.3-0.2c1.4-0.3,2.4-0.5,2.8-0.6l-0.9-2l-0.8-0.1c-0.3,0-0.5,0.2-0.7,0.7c-0.2,0.5-0.4,0.7-0.6,0.8
		c-0.2,0.1-0.5,0.2-0.7,0.5s-0.4,0.5-0.5,0.8v0C198.6,40.7,198.7,40.8,198.8,40.8z M202.2,44.8c0,0,0.1,0,0.1-0.1
		c0,0,0.1-0.1,0.1-0.1c0,0,0,0,0.1,0l0.1-0.5c0,0-0.1,0-0.1,0.1c0,0-0.1,0.1-0.1,0.2C202.2,44.5,202.2,44.7,202.2,44.8L202.2,44.8z
		 M204.1,39.7c0.3-0.1,0.4-0.2,0.4-0.3l-0.2-0.3c-0.1-0.2-0.2-0.4-0.3-0.5s-0.1-0.2-0.2-0.3c-0.1-0.1-0.3-0.3-0.6-0.4l0.1,0.5
		c0,0.1,0,0.1-0.1,0.1h0c-0.1,0-0.1,0.1-0.1,0.2c0,0.5,0.1,0.8,0.3,0.8c0.3-0.1,0.5-0.2,0.8-0.2L204.1,39.7L204.1,39.7z"/>
</g>
</svg>
