<?xml version="1.0" encoding="utf-8"?>
<!-- Generator: Adobe Illustrator 24.1.2, SVG Export Plug-In . SVG Version: 6.00 Build 0)  -->
<svg version="1.1" xmlns="http://www.w3.org/2000/svg" xmlns:xlink="http://www.w3.org/1999/xlink" x="0px" y="0px"
	 viewBox="0 0 351.5 351.2" style="enable-background:new 0 0 351.5 351.2;" xml:space="preserve">
<style type="text/css">
	.st0{display:none;}
	.st1{display:inline;stroke:#FFFFFF;stroke-width:16;stroke-miterlimit:10;}
	.st2{display:inline;stroke:#FFFFFF;stroke-miterlimit:10;}
	.st3{display:inline;fill:#FFFFFF;stroke:#FFFFFF;stroke-width:10;stroke-miterlimit:10;}
	.st4{display:inline;fill:#FFFFFF;stroke:#FFFFFF;stroke-width:8.9998;stroke-miterlimit:9.9997;}
	.st5{display:inline;fill:#FFFFFF;stroke:#F298A5;stroke-width:4;stroke-miterlimit:10;}
	.st6{display:inline;fill:#FFFFFF;stroke:#FFFFFF;stroke-width:6.9998;stroke-miterlimit:9.9997;}
	.st7{display:inline;fill:none;stroke:#FFFFFF;stroke-width:17;stroke-miterlimit:10;}
	.st8{display:inline;fill:#F296A1;stroke:#F296A1;stroke-miterlimit:10;}
	.st9{display:inline;fill:#F296A1;stroke:#FFFFFF;stroke-miterlimit:10;}
	.st10{display:inline;}
	.st11{fill:#FFFFFF;}
	.st12{fill:#F296A1;}
	.st13{display:inline;fill:none;stroke:#FFFFFF;stroke-width:14;stroke-miterlimit:10;}
	.st14{display:inline;fill:none;stroke:#FFFFFF;stroke-width:7;stroke-miterlimit:10;}
	.st15{display:inline;fill:#FFFFFF;stroke:#F3A2AC;stroke-width:2;stroke-miterlimit:10;}
	.st16{display:inline;fill:#FFFFFF;stroke:#F3A2AC;stroke-width:3;stroke-miterlimit:10;}
	.st17{fill:none;stroke:#FFFFFF;stroke-width:17;stroke-miterlimit:10;}
	.st18{fill:#FFFFFF;stroke:#FFFFFF;stroke-width:10;stroke-miterlimit:10;}
	.st19{fill:#F3A2AC;}
	.st20{fill:#FFFFFF;stroke:#FFFFFF;stroke-width:2;stroke-miterlimit:10;}
	.st21{fill:#FFFFFF;stroke:#FFFFFF;stroke-miterlimit:10;}
	.st22{fill:#FFFFFF;stroke:#F3A2AC;stroke-width:2.9999;stroke-miterlimit:9.9997;}
	.st23{display:inline;fill:#FFFFFF;stroke:#FFFFFF;stroke-width:14;stroke-miterlimit:10;}
	.st24{display:inline;fill:#FFFFFF;stroke:#FFFFFF;stroke-width:7;stroke-miterlimit:10;}
	.st25{fill:none;}
</style>
<g id="Layer_2" class="st0">
	<rect x="-3.3" y="1.4" class="st1" width="356.6" height="357.4"/>
</g>
<g id="Layer_1">
	<g id="Layer_2_1_" class="st0">
		<rect x="1.9" y="4.5" class="st2" width="342.9" height="339.8"/>
	</g>
	<g id="Layer_3" class="st0">
		<path class="st3" d="M193.7,229.4c-0.9,2.4-7.8,4.5-21.5,8.5c-14.7,4.3-22,6.5-27.5,6.7c-9.1,0.4-18-2.5-35.8-8.1
			c-11.7-3.7-17.6-5.6-18.6-8.2c-4-10.3,18.3-36.7,44.8-39.4C167.5,185.7,197.7,218.8,193.7,229.4z"/>
		
			<ellipse transform="matrix(0.9992 -3.934040e-02 3.934040e-02 0.9992 -5.9043 5.3464)" class="st4" cx="132.9" cy="152.7" rx="27.5" ry="29.5"/>
		<path class="st5" d="M267.5,227.7c-0.5,2.9-7.5,6.3-21.5,12.9c-14.9,7.1-22.4,10.7-28.3,11.8c-9.7,1.8-19.8-0.1-40-3.7
			c-13.3-2.4-20-3.7-21.5-6.5c-6.2-11.1,12.8-44.4,40.8-51.4C231.2,182.2,269.8,215.1,267.5,227.7z"/>
		
			<ellipse transform="matrix(0.9871 -0.1599 0.1599 0.9871 -22.4895 35.4943)" class="st6" cx="209.3" cy="157.5" rx="28.5" ry="30.6"/>
		<ellipse class="st7" cx="172.9" cy="178.9" rx="102.5" ry="96.5"/>
	</g>
	<g id="Layer_4" class="st0">
		<path class="st3" d="M238.4,243.2c-1.1,2.9-9.3,5.4-25.8,10.2c-17.6,5.2-26.4,7.8-33.1,8.1c-10.9,0.4-21.6-3-43.1-9.7
			c-14.1-4.5-21.2-6.8-22.4-9.9c-4.8-12.4,22-44.1,53.8-47.3C206.9,190.7,243.2,230.5,238.4,243.2z"/>
		
			<ellipse transform="matrix(0.9992 -3.934040e-02 3.934040e-02 0.9992 -5.8579 6.904)" class="st4" cx="172.5" cy="152.3" rx="33" ry="35.4"/>
		<path class="st8" d="M164.1,197c2.4,9.2,4.8,18.5,7.1,27.7c2.1,0,4.2,0,6.2,0c2.4-9.2,4.8-18.5,7.1-27.7H164.1z"/>
		<path class="st8" d="M174,199.7c5.2,0.1,9-1.7,10.7-2.7"/>
		<path class="st8" d="M164.1,197c1.7,0.9,5.1,2.6,9.8,2.7"/>
		<path class="st9" d="M168.6,214.9c-3.9,18.2-7.7,36.3-11.6,54.5c12.5,0,25,0,37.5,0c-4.8-18.5-9.5-36.9-14.3-55.4
			c-1,0.6-2.7,1.5-5.1,1.8C172.1,216.1,169.7,215.3,168.6,214.9z"/>
		<ellipse class="st7" cx="173.5" cy="175.8" rx="102.5" ry="96.5"/>
	</g>
	<g id="Layer_5" class="st0">
		<g class="st10">
			<path class="st11" d="M177.8,252.1c-10.1,0-21-3.4-40.8-9.7c-11.9-3.8-20.5-6.5-21.5-9c-1.3-3.2,0.1-8.3,3.6-14.1
				c8.5-13.9,28-29,49-31.1c1.7-0.2,3.5-0.3,5.3-0.3c23.9,0,47.6,16.3,58.8,32.4c4.2,6,6,11.5,4.9,14.5c-0.8,2.2-11.4,5.4-24.8,9.3
				c-17.5,5.2-26.2,7.7-32.7,8C179,252.1,178.4,252.1,177.8,252.1z"/>
			<path class="st12" d="M173.4,186.4v3c26.1,0,48.7,19,57.6,31.7c2.9,4.1,5.8,10,4.7,13c-1.4,1.9-12.8,5.2-23.9,8.5
				c-17.3,5.1-26,7.7-32.3,7.9c-0.6,0-1.2,0-1.7,0c-9.9,0-20-3.2-40.3-9.6c-7.5-2.4-12.3-3.9-15.7-5.3c-4.3-1.8-4.8-2.7-4.8-2.8
				c-1.1-2.7,0.2-7.5,3.5-12.8c8.3-13.6,27.4-28.4,47.9-30.4c1.7-0.2,3.4-0.3,5.1-0.3L173.4,186.4 M173.4,186.4
				c-1.8,0-3.6,0.1-5.4,0.3c-31.8,3.2-58.7,34.9-53.8,47.3c1.2,3.1,8.3,5.4,22.4,9.9c20.2,6.4,30.9,9.8,41.2,9.8c0.6,0,1.2,0,1.8,0
				c6.7-0.3,15.5-2.9,33.1-8.1c16.5-4.9,24.7-7.4,25.8-10.2C243,223.1,210.2,186.4,173.4,186.4L173.4,186.4z"/>
		</g>
		
			<ellipse transform="matrix(0.9992 -3.934040e-02 3.934040e-02 0.9992 -6.0105 7.147)" class="st4" cx="178.6" cy="156.3" rx="33" ry="35.4"/>
		<ellipse class="st7" cx="174.6" cy="177.9" rx="102.5" ry="96.5"/>
		<line class="st13" x1="179.5" y1="50.8" x2="179.5" y2="104.1"/>
		<line class="st13" x1="301.8" y1="185.8" x2="246.8" y2="184.8"/>
		<line class="st13" x1="104" y1="181.1" x2="49" y2="180.1"/>
		<line class="st13" x1="175.8" y1="251.3" x2="175.8" y2="304.6"/>
	</g>
	<g id="Layer_6" class="st0">
		<g class="st10">
			<path class="st11" d="M234.5,149.9c3.3,0,6,2.7,6,6v51.4c0,3.3-2.7,6-6,6H106.8c-3.3,0-6-2.7-6-6v-51.4c0-3.3,2.7-6,6-6H234.5
				 M234.5,143.9H106.8c-6.6,0-12,5.4-12,12v51.4c0,6.6,5.4,12,12,12h127.8c6.6,0,12-5.4,12-12v-51.4
				C246.5,149.3,241.1,143.9,234.5,143.9L234.5,143.9z"/>
		</g>
		<g class="st10">
			<path class="st11" d="M100.7,168c-1.9,0-3.4-1.5-3.4-3.4v-10.1c0-1.9,1.5-3.4,3.4-3.4h138.9c1.9,0,3.4,1.5,3.4,3.4v10.1
				c0,1.9-1.5,3.4-3.4,3.4H100.7z"/>
			<path class="st11" d="M239.6,152.5c1.1,0,1.9,0.9,1.9,1.9v10.1c0,1.1-0.9,1.9-1.9,1.9H100.7c-1.1,0-1.9-0.9-1.9-1.9v-10.1
				c0-1.1,0.9-1.9,1.9-1.9H239.6 M239.6,149.5H100.7c-2.7,0-4.9,2.2-4.9,4.9v10.1c0,2.7,2.2,4.9,4.9,4.9h138.9
				c2.7,0,4.9-2.2,4.9-4.9v-10.1C244.6,151.7,242.3,149.5,239.6,149.5L239.6,149.5z"/>
		</g>
		<g class="st10">
			<path class="st11" d="M206.2,157.4c-2.4,0-4.3-1.8-4.3-4s1.9-4,4.3-4s4.3,1.8,4.3,4S208.6,157.4,206.2,157.4z"/>
			<path class="st12" d="M206.2,150.3c1.8,0,3.3,1.4,3.3,3s-1.5,3-3.3,3s-3.3-1.4-3.3-3S204.4,150.3,206.2,150.3 M206.2,148.3
				c-2.9,0-5.3,2.3-5.3,5c0,2.8,2.4,5,5.3,5c2.9,0,5.3-2.3,5.3-5S209.1,148.3,206.2,148.3L206.2,148.3z"/>
		</g>
		<g class="st10">
			<path class="st11" d="M235.8,157.9c-2.4,0-4.3-1.8-4.3-4s1.9-4,4.3-4s4.3,1.8,4.3,4S238.2,157.9,235.8,157.9z"/>
			<path class="st12" d="M235.8,150.8c1.8,0,3.3,1.4,3.3,3s-1.5,3-3.3,3s-3.3-1.4-3.3-3S234,150.8,235.8,150.8 M235.8,148.8
				c-2.9,0-5.3,2.3-5.3,5c0,2.8,2.4,5,5.3,5c2.9,0,5.3-2.3,5.3-5S238.8,148.8,235.8,148.8L235.8,148.8z"/>
		</g>
		<g class="st10">
			<path class="st11" d="M220.5,157.4c-2.4,0-4.3-1.8-4.3-4s1.9-4,4.3-4c2.4,0,4.3,1.8,4.3,4S222.8,157.4,220.5,157.4z"/>
			<path class="st12" d="M220.5,150.3c1.8,0,3.3,1.4,3.3,3s-1.5,3-3.3,3s-3.3-1.4-3.3-3S218.6,150.3,220.5,150.3 M220.5,148.3
				c-2.9,0-5.3,2.3-5.3,5c0,2.8,2.4,5,5.3,5s5.3-2.3,5.3-5S223.4,148.3,220.5,148.3L220.5,148.3z"/>
		</g>
		<line class="st14" x1="100.1" y1="180.1" x2="155.1" y2="180.1"/>
		<line class="st14" x1="100.6" y1="192.1" x2="193.1" y2="192.1"/>
		<line class="st14" x1="100.6" y1="206.1" x2="155.6" y2="206.1"/>
		<path class="st15" d="M207.1,149.4c14.5-21.8,26.7-40.1,29.1-38.5c2.1,1.4-6.3,15.8-17.6,49.1c-8.4,24.7-14.1,46.8-19.4,47.3
			c-2.1,0.2-2.3-3.4-7.7-6.7c-4.8-2.9-7-1.5-8.2-3.4C180.7,193,187.6,178.8,207.1,149.4z"/>
		<path class="st16" d="M199.3,212.1c4.7,19.2-55.3,51.8-57.6,48.9c-0.6-0.7,4.2-3.5,9.8-12c11.7-17.7,6.2-29,17.4-40.2
			c2-2,8.3-8.4,16.3-7.6C191.3,201.8,197.9,206.6,199.3,212.1z"/>
		<ellipse class="st7" cx="172.6" cy="179.6" rx="102.5" ry="96.5"/>
	</g>
	<g id="Layer_7">
		<ellipse class="st17" cx="176.2" cy="169" rx="151.6" ry="142.7"/>
		<path class="st18" d="M257.4,222.9c-1.3,3.6-11.5,6.6-31.8,12.6c-21.7,6.4-32.5,9.6-40.7,9.9c-13.5,0.5-26.6-3.6-53-12
			c-17.4-5.5-26.1-8.3-27.6-12.2c-6-15.2,27-54.3,66.2-58.2C218.6,158.3,263.3,207.2,257.4,222.9z"/>
		<g>
			<path class="st11" d="M158.6,264.3c-21.8,0-26.9-0.9-32-5.7c-3.1-2.9-5.1-6.3-10.1-24.7c-4-14.9-7.5-30.3-10.3-45.7
				c0-1.7,0.5-7.3,4.9-11.7c3.2-3.2,7.4-4.9,11.8-4.9h106.3c9.2,0,16.7,7.5,16.7,16.6c-3.2,13.2-6.6,26.6-10.1,39.8
				c-6.4,24-7.9,27.2-11.5,30.6c-5.8,5.4-12,5.4-46.3,5.6h-5.9C167,264.2,162.5,264.3,158.6,264.3z"/>
			<path class="st19" d="M229.2,172.5c8.6,0,15.6,6.9,15.7,15.5c-3.2,13.1-6.6,26.5-10.1,39.6c-6.3,23.7-7.8,26.9-11.3,30.1
				c-5.3,4.9-10.1,5.2-45.6,5.4h-3.3H172c-5.1,0-9.6,0.1-13.5,0.1c-21.5,0-26.5-0.9-31.3-5.4c-3-2.8-4.9-6.1-9.8-24.2
				c-4-14.9-7.5-30.2-10.3-45.5c0-1.7,0.5-6.8,4.6-11c3-3,6.9-4.6,11.1-4.6L229.2,172.5 M229.2,170.5H122.9c-4.9,0-9.3,2-12.5,5.2
				c-5.1,5.1-5.2,11.3-5.2,12.5c3.3,18,7,33.4,10.4,45.9c4.9,18.2,7,21.9,10.4,25.1c5.5,5.2,11.4,6,32.7,6c4.6,0,9.9,0,16.1-0.1
				c37.7-0.2,44-0.1,50.3-5.9c3.9-3.7,5.5-7.5,11.8-31.1c4.3-15.9,7.6-29.5,10.1-39.9C247,178.5,239,170.5,229.2,170.5L229.2,170.5z
				"/>
		</g>
		<path class="st20" d="M223.5,277h-91.6c-1.6,0-3-1.4-3-3v-2.9c0-1.6,1.3-3,3-3h91.6c1.7,0,3,1.4,3,3v2.9
			C226.5,275.7,225.1,277,223.5,277z"/>
		<g>
			<path class="st12" d="M176.9,232.1c-7.5,0-13.6-5.7-13.6-12.8s6.1-12.8,13.6-12.8s13.6,5.7,13.6,12.8S184.4,232.1,176.9,232.1z"
				/>
			<path class="st12" d="M176.9,207c7.2,0,13.1,5.5,13.1,12.3s-5.9,12.3-13.1,12.3s-13.1-5.5-13.1-12.3S169.7,207,176.9,207
				 M176.9,206c-7.8,0-14.1,6-14.1,13.3c0,7.4,6.3,13.3,14.1,13.3s14.1-6,14.1-13.3S184.7,206,176.9,206L176.9,206z"/>
		</g>
		<path class="st21" d="M154.7,72.2c-25.6,16.9-28,39.4-43.3,69.3c-0.5,0.9-1.8,3.5-1,6.2c0.4,1.6,2.2,5.3,12.2,7.7
			c16.8,4,36.1-0.8,54.8-1.2c24.5-0.5,40.1,6.7,60.1,0.9c3.6-1,12.6-3.7,13.3-8.9c0.4-3-2.1-5.5-2.9-6.4c-14.4-15.6-14.9-50-43-67.6
			c-4.2-2.6-15.1-9.2-29.1-8C172.8,64.4,164.8,65.5,154.7,72.2z"/>
		
			<ellipse transform="matrix(0.9992 -3.934040e-02 3.934040e-02 0.9992 -4.1662 7.0753)" class="st22" cx="177.7" cy="109.4" rx="40.7" ry="43.6"/>
		<path class="st18" d="M214.1,99c-2.2,4.1-9.6,1.2-38.7,1.3c-26.2,0.1-32.5,2.4-34.5-1.3c-4.2-7.7,13.6-34.8,36.6-34.9
			C200.4,64.1,218.3,91.2,214.1,99z"/>
	</g>
	<g id="Layer_1_1_" class="st0">
		<ellipse class="st7" cx="174.8" cy="181.1" rx="102.5" ry="96.5"/>
		<ellipse class="st13" cx="174.8" cy="180.4" rx="73" ry="68.7"/>
		<ellipse class="st23" cx="175.8" cy="179.6" rx="31.5" ry="29"/>
		<path class="st24" d="M242.5,98c2.6-20.3,2.3-36.2,1.5-47.4c-0.4-4.6-0.9-9.6,0.3-9.9c2.7-0.8,11.9,22.1,19.9,43.4L242.5,98z"/>
		<path class="st24" d="M257,114.2c16.8-11.9,31.1-19,41.5-23.3c4.3-1.8,9-3.5,8.7-4.9c-0.6-3-25.3-1.4-48,0.6L257,114.2z"/>
		<g class="st10">
			<line class="st25" x1="263.3" y1="87.6" x2="185.3" y2="171.6"/>
			<g>
				<path class="st12" d="M256.2,80.5c-22.8,24.5-45.5,49-68.3,73.5c-3.2,3.5-6.5,7-9.7,10.5c-8.7,9.4,5.4,23.6,14.1,14.1
					c22.8-24.5,45.5-49,68.3-73.5c3.2-3.5,6.5-7,9.7-10.5C279.1,85.3,265,71.1,256.2,80.5L256.2,80.5z"/>
			</g>
		</g>
	</g>
</g>
</svg>
