<?xml version="1.0" encoding="utf-8"?>
<!-- Generator: Adobe Illustrator 24.1.2, SVG Export Plug-In . SVG Version: 6.00 Build 0)  -->
<svg version="1.1" xmlns="http://www.w3.org/2000/svg" xmlns:xlink="http://www.w3.org/1999/xlink" x="0px" y="0px"
	 viewBox="0 0 559.4 556.4" style="enable-background:new 0 0 559.4 556.4;" xml:space="preserve">
<style type="text/css">
	.st0{fill:none;}
	.st1{fill:#FFFFFF;stroke:#FFFFFF;stroke-width:2;stroke-miterlimit:10;}
	.st2{stroke:#000000;stroke-width:2;stroke-miterlimit:10;}
	.st3{display:none;}
	.st4{display:inline;fill:#A9DAE6;stroke:#A9DAE6;stroke-width:2;stroke-miterlimit:10;}
	.st5{display:inline;fill:#F9F19A;stroke:#F9F19A;stroke-width:2;stroke-miterlimit:10;}
	.st6{fill:#EC6568;stroke:#000000;stroke-width:4;stroke-miterlimit:10;}
	.st7{stroke:#000000;stroke-width:4;stroke-miterlimit:10;}
	.st8{fill:#F9F19A;stroke:#000000;stroke-width:2;stroke-miterlimit:10;}
	.st9{fill:url(#SVGID_1_);stroke:#000000;stroke-width:2;stroke-miterlimit:10;}
	.st10{fill:#FDCC68;stroke:#000000;stroke-width:2;stroke-miterlimit:10;}
	.st11{fill:url(#New_Pattern_Swatch_1);stroke:#000000;stroke-width:2;stroke-miterlimit:10;}
	.st12{fill:#FFFFFF;}
	.st13{fill:#F29699;stroke:#000000;stroke-width:2;stroke-miterlimit:10;}
	.st14{fill:url(#SVGID_2_);stroke:#000000;stroke-width:2;stroke-miterlimit:10;}
	.st15{fill:#EC6568;stroke:#000000;stroke-width:2;stroke-miterlimit:10;}
	.st16{display:inline;stroke:#000000;stroke-width:4;stroke-miterlimit:10;}
	.st17{display:inline;}
	.st18{display:inline;fill:#CC1236;stroke:#000000;stroke-width:4;stroke-miterlimit:10;}
	.st19{display:inline;fill:url(#SVGID_3_);stroke:#000000;stroke-width:2;stroke-miterlimit:10;}
	.st20{display:inline;fill:url(#SVGID_4_);stroke:#000000;stroke-width:2;stroke-miterlimit:10;}
	.st21{display:inline;fill:#991636;stroke:#000000;stroke-width:4;stroke-miterlimit:10;}
	.st22{display:inline;fill:#F9F19A;stroke:#000000;stroke-width:2;stroke-miterlimit:10;}
	.st23{display:inline;fill:#EC6568;stroke:#000000;stroke-width:4;stroke-miterlimit:10;}
	.st24{display:inline;fill:#FFFFFF;stroke:#000000;stroke-width:4;stroke-miterlimit:10;}
	.st25{display:inline;fill:url(#SVGID_5_);stroke:#000000;stroke-width:2;stroke-miterlimit:10;}
	.st26{display:inline;fill:url(#SVGID_6_);stroke:#000000;stroke-width:2;stroke-miterlimit:10;}
	.st27{display:inline;fill:url(#SVGID_7_);stroke:#000000;stroke-width:2;stroke-miterlimit:10;}
	.st28{display:inline;fill:#F29699;stroke:#000000;stroke-width:2;stroke-miterlimit:10;}
	.st29{display:inline;fill:url(#SVGID_8_);stroke:#000000;stroke-width:2;stroke-miterlimit:10;}
	.st30{display:inline;fill:#EC6568;stroke:#000000;stroke-width:2;stroke-miterlimit:10;}
	.st31{fill:url(#SVGID_9_);stroke:#000000;stroke-width:2;stroke-miterlimit:10;}
	.st32{fill:url(#SVGID_10_);stroke:#000000;stroke-width:2;stroke-miterlimit:10;}
	.st33{fill:#3299CC;stroke:#000000;stroke-width:2;stroke-miterlimit:10;}
	.st34{fill:#A9DAE6;stroke:#000000;stroke-width:2;stroke-miterlimit:10;}
	.st35{fill:url(#SVGID_11_);stroke:#000000;stroke-width:2;stroke-miterlimit:10;}
	.st36{fill:url(#SVGID_12_);stroke:#000000;stroke-width:2;stroke-miterlimit:10;}
</style>
<pattern  x="-324.9" y="-14.1" width="34.4" height="36.4" patternUnits="userSpaceOnUse" id="New_Pattern_Swatch_1" viewBox="0 -36.4 34.4 36.4" style="overflow:visible;">
	<g>
		<rect y="-36.4" class="st0" width="34.4" height="36.4"/>
		<rect x="1" y="-35.4" class="st1" width="32.4" height="34.4"/>
		<ellipse class="st2" cx="11.2" cy="-10.8" rx="6.6" ry="6.3"/>
		<ellipse class="st2" cx="24.4" cy="-25.4" rx="6.6" ry="6.3"/>
	</g>
</pattern>
<g id="Layer_13" class="st3">
	<rect x="-6.3" y="665.2" class="st4" width="289.6" height="490.8"/>
	<rect x="977.3" y="-8.5" class="st5" width="350.9" height="541.9"/>
</g>
<g id="Layer_2">
	<ellipse class="st6" cx="279.3" cy="274.9" rx="238.1" ry="226.2"/>
	<path class="st7" d="M341.1,282.6c2.2-8.5,5.8-20.2,12.4-33.2c6.2-12.3,18.5-36.8,43-52.7c34.9-22.7,74.7-14.9,85.1-12.5
		c-8.6,47.6-25.3,64-39.3,70.1c-11.9,5.2-20.5,2.3-40.5,5.3C375,263.7,354.4,274.3,341.1,282.6z"/>
	<g id="Layer_3">
		<path class="st8" d="M192,245c-38.6,18.4-27.9,107.1-26.6,117.7c5.9,49,31.1,128.5,73.6,131.4c20.1,1.4,39.2-16.2,56.3-32
			c19.7-18.1,16.5-24.3,41.1-51.1c25-27.2,40.5-34.1,38.2-45.2c-2.6-12.7-24.9-9.7-34.2-28.9c-7.4-15.4,2.1-23.6-3.2-38.3
			c-3-8.2-10.9-19.6-73.7-39.2C222.6,246.6,202.1,240.2,192,245z"/>
		<pattern  id="SVGID_1_" xlink:href="#New_Pattern_Swatch_1" patternTransform="matrix(1 0 0 1 0 15.6289)">
		</pattern>
		<path class="st9" d="M119.3,456.2c-7.2-3.4-12.5-6.6-13.9-12.1c-1.5-5.7,2.3-9.3,5.3-18.6c0,0,4.1-12.7,2.2-27.4
			c-2.2-18-12-21.1-9.4-31c2.7-10.4,15.8-15.4,21.3-17.5c7.8-3,17-4.1,29.9-2.1c23.6,3.7,34.1,15.4,46.7,20.6
			c15.7,6.4,41.4,5.4,85.7-27.1c-41.6,36-66.6,68.4-82.2,92.8c-7.8,12.2-18.6,30.4-38.8,35.7C152.7,472.9,139.8,465.9,119.3,456.2z"
			/>
		<path class="st8" d="M138.7,317.3c-9.5-16.6-9.2-35.8-4-48.9c4.9-12.2,10.5-10.3,17.6-24.5c10-20.1,5.2-36.3,11.9-38.4
			c5.6-1.8,11.2,8.8,22.7,18.7c18.9,16.3,37.9,16.9,49.6,20.1c19.1,5.3,44.5,24.7,71,88.3c-41-25.7-65.3-24.1-80-17.6
			c-19.7,8.7-24.4,27.6-45.1,28.1C166.3,343.5,148.1,333.8,138.7,317.3z"/>
		<path class="st10" d="M136.2,316c-2.2,5.4,2.2,8.1,5.9,22c3.9,14.6,1.5,21.2,6.6,24.2c3.8,2.3,8.7,0.4,13.9-1.3
			c10.5-3.4,14.2-9.3,19.5-12.5c6.6-4,18.5-5.4,41.9,5.5c-22.4-12.6-37-24.9-46.5-34.5c-4.7-4.7-11.4-11.9-21.1-12.7
			C148.6,306.1,138.8,309.4,136.2,316z"/>
		<path class="st8" d="M158,329c-1,3.2,2.8,4.6,4.8,11.2c2.4,7.7-0.8,12.6,2.1,14.7c1.9,1.4,4.8,0.2,7.8-0.7c5.9-1.9,7.9-5.2,10.9-7
			c3.7-2.2,10.3-3,23.4,3.1c-12.6-7.1-20.7-13.9-26-19.3c-2.6-2.6-6.4-6.7-11.8-7.1C164.7,323.5,159,325.5,158,329z"/>
		<path class="st10" d="M151.3,401.1c-3.7-6.1-0.9-14.5,0.8-19.9c1.9-5.8,3.2-5.3,4-9.5c2.2-10.5-5.3-16.8-2.3-20.8
			c2.4-3.3,9.6-1.7,14.1-1c11.1,1.7,16,7.3,21.9,9.7c7.4,3,19.5,2.5,40.3-12.8c-19.6,16.9-31.3,32.2-38.7,43.7
			c-3.7,5.7-8.7,14.3-18.3,16.8C165.7,409.3,155.3,407.7,151.3,401.1z"/>
		<path class="st8" d="M159.8,374.8c-0.2-3.5,3.8-4,7.3-10.1c4.1-7.2,2.1-13,5.5-14.3c2.2-0.9,4.7,1,7.4,2.6c5.3,3.3,6.5,7.2,9,9.7
			c3.1,3.2,9.4,5.6,23.5,2.6c-13.8,4.1-23.3,9.1-29.7,13.2c-3.2,2-7.7,5.2-13.1,4.3C165.1,382.1,160.1,378.6,159.8,374.8z"/>
		<path class="st10" d="M163.6,325.7c-1.7,5.8,5.1,8.3,8.7,20c4.2,13.8-1.4,22.5,3.8,26.2c3.5,2.4,8.6,0.4,13.9-1.3
			c10.5-3.4,14.2-9.3,19.5-12.5c6.6-4,18.5-5.4,41.9,5.5c-22.4-12.6-37-24.9-46.5-34.5c-4.7-4.7-11.4-11.9-21.1-12.7
			C175.6,315.8,165.5,319.4,163.6,325.7z"/>
		<path class="st11" d="M190.5,393.3c-2.7-7.9,0.5-16.3,1.7-19.6c5.3-14,14.3-13.2,16.7-22.9c1.5-6-4.2-17.2-15.6-39.2
			c-5.4-10.3-8.1-14.9-8.1-22.3c0-6,1.8-17.2,8.5-20c4.8-2,8.9,1.4,29.4,12.3c12.6,6.7,8.4,4,17.1,8.8
			c22.5,12.4,40.8,24.4,43.4,26.7c14.4,12.1,37.9,25.7,77.5,30.7c-42.4,6.3-67.7,21.7-83,34.8c-16.2,13.9-24.5,27.9-43.3,30.1
			C217.7,414.8,195.3,407.7,190.5,393.3z"/>
		<path class="st8" d="M169.4,536.3c-8.3-7.1-0.1-23.3-11.4-33c-5.8-5-11.2-3.4-14.6-9.2c-3.2-5.5-0.1-9.5-0.4-20.2
			c-0.3-11.6-4.2-12.5-5.4-23.4c-0.4-3.5-2.1-19.7,6.7-30.8c8.3-10.5,22.4-11,32.2-12.5c26.5-4,36.7,11.4,57.1,6.2
			c12.8-3.2,19.1-11.5,28.3-20c37.6-34.5,95.7-44.7,100.5-36c6.1,10.9-77.9,39.6-111.7,116.7c-5.3,12.2-14,36.1-37.4,51.7
			C199.1,535.5,178.2,543.8,169.4,536.3z"/>
	</g>
	<g>
		<path class="st12" d="M467.8,188.6c-7.3,3.8-14.5,7.7-21.5,11.8c-7,4.1-13.9,8.5-20.7,13.1c-3.4,2.3-6.7,4.7-10,7.1
			c-3.3,2.4-6.5,4.9-9.7,7.4c-6.4,5.1-12.7,10.3-18.9,15.7c5.3-6.3,11.2-12.1,17.4-17.5c6.2-5.5,12.7-10.5,19.5-15.2
			c3.4-2.3,6.9-4.5,10.4-6.7c3.6-2.1,7.1-4.1,10.8-6C452.5,194.6,460.1,191.3,467.8,188.6z"/>
	</g>
</g>
<g id="Layer_1">
	<path class="st13" d="M345,74c-38.9-17.8-100,47.4-107.3,55.3c-33.8,36.1-78.5,106.4-53.4,140.8c11.9,16.3,37.6,19.6,60.7,22.6
		c26.5,3.5,29.2-3,65.6-1.3c36.9,1.7,52.2,9.1,59.2,0.2c8-10.2-8.6-25.4,0.2-44.8c7-15.6,19.4-13.5,27.3-27.1
		c4.4-7.6,8-20.9-17.3-81.6C363.5,98.5,355.2,78.7,345,74z"/>
	<pattern  id="SVGID_2_" xlink:href="#New_Pattern_Swatch_1" patternTransform="matrix(1 0 0 1 0 15.6289)">
	</pattern>
	<path class="st14" d="M136.5,154c-2-7.8-2.9-13.8,0.3-18.4c3.4-4.8,8.6-4.2,17.6-7.9c0,0,12.4-5.1,22.5-15.9
		c12.4-13.3,8.5-22.8,17.7-27.1c9.7-4.6,21.9,2.2,27.1,5.1c7.3,4,14.1,10.4,20.8,21.6c12.4,20.5,10.1,36.1,14.2,49
		c5.1,16.2,22.5,35.2,75.8,48.2c-54.3-8.7-95.2-7.1-124-3.4c-14.3,1.8-35.3,5.3-52.3-6.8C145.1,190.3,142.2,175.9,136.5,154z"/>
	<path class="st13" d="M255.4,79.6c6.6-17.9,21.5-30.1,34.9-34.5c12.4-4.1,14.6,1.4,30.1-2.3c21.8-5.2,31.1-19.3,37.1-15.6
		c5,3.1,0.4,14.3,0.2,29.4c-0.4,24.9,11.4,39.9,16.4,50.9c8.2,18,9.6,50-22,111.2c-6.7-47.9-23.5-65.5-37.9-72.6
		c-19.3-9.6-36.8-0.9-50.5-16.5C253.1,117.6,248.8,97.4,255.4,79.6z"/>
	<path class="st15" d="M254.8,76.8c-5.5,1.8-4.8,7-13.1,18.7c-8.7,12.4-15.3,14.8-14.3,20.6c0.7,4.4,5.3,6.9,10,9.8
		c9.3,5.9,16.2,4.9,22.1,6.9c7.3,2.5,16.1,10.7,22.7,35.6c-4.7-25.3-4.6-44.4-3.4-57.8c0.6-6.7,1.8-16.4-3.9-24.4
		C270.4,80,261.6,74.6,254.8,76.8z"/>
	<path class="st13" d="M258.8,101.9c-3.1,1.3-1.7,5.1-5.5,10.9c-4.4,6.8-10.2,7.5-9.9,11.1c0.2,2.4,2.9,3.8,5.6,5.5
		c5.2,3.3,9.1,2.7,12.3,3.9c4.1,1.4,9,6,12.7,19.9c-2.7-14.2-2.6-24.8-1.9-32.3c0.3-3.7,1-9.2-2.2-13.6
		C267.4,103.5,262.2,100.5,258.8,101.9z"/>
	<path class="st15" d="M199.3,143.1c2.3-6.7,10.5-10,15.8-12.1c5.7-2.3,6.1-1,9.9-3c9.4-5.1,9.5-14.8,14.4-15.1
		c4.1-0.3,7.4,6.2,9.8,10.2c5.8,9.6,4.7,17,6.7,23c2.4,7.6,10.6,16.6,35.7,22.7c-25.5-4.1-44.8-3.3-58.3-1.6
		c-6.7,0.9-16.6,2.5-24.6-3.2C202.3,159.4,196.9,150.4,199.3,143.1z"/>
	<path class="st13" d="M224.9,132.8c2.6-2.4,5.5,0.4,12.5-0.9c8.2-1.5,11.3-6.7,14.5-5c2.1,1.1,2.3,4.2,2.7,7.4
		c0.8,6.2-1.3,9.6-1.7,13.1c-0.4,4.4,1.7,10.8,13.1,19.7c-12-8-22-12-29.2-14.3c-3.6-1.1-9-2.6-11.8-7.3
		C222.7,141.4,222.1,135.4,224.9,132.8z"/>
	<path class="st15" d="M265,104.1c-5.5,2.4-3.1,9.2-9.8,19.5c-7.8,12.1-18.2,13.4-17.6,19.8c0.4,4.2,5.2,6.9,10,9.8
		c9.3,5.9,16.2,4.9,22.1,6.9c7.3,2.5,16.1,10.7,22.7,35.6c-4.7-25.3-4.6-44.4-3.4-57.8c0.6-6.7,1.8-16.4-3.9-24.4
		C280.3,106.9,271,101.5,265,104.1z"/>
	<path class="st13" d="M230.5,168.1c4.4-7.1,12.8-10.1,16.1-11.3c14.1-4.9,19.3,2.4,28.3-2c5.6-2.7,10.5-14.2,20-37.1
		c4.5-10.7,6.2-15.8,11.9-20.6c4.6-3.9,14.3-9.7,20.8-6.3c4.6,2.4,4.7,7.7,9.5,30.4c3,13.9,2.3,9,4.2,18.8c5,25.2,7.5,46.9,7.4,50.5
		c0,18.8,4.7,45.5,26.3,79.2c-32.1-28.4-60.2-37.9-80-41.2c-21-3.5-37.1-0.9-50.8-13.8C231.4,202.7,222.5,181.1,230.5,168.1z"/>
	<path class="st13" d="M107.3,243.8c0.1-10.9,17.8-15,18-29.9c0.1-7.7-4.6-10.7-2.3-17.1c2.1-6,7.2-6.2,15.2-13.2
		c8.7-7.7,6.9-11.2,14.5-19.1c2.4-2.5,13.7-14.3,27.9-14.6c13.4-0.3,22.8,10.1,30.2,16.7c20.1,17.7,14.9,35.4,31.9,47.8
		c10.7,7.8,21.1,7.2,33.5,8.9c50.6,6.7,95.7,44.6,92.2,53.9c-4.4,11.7-80.4-34.2-161.2-10.6c-12.7,3.7-36.6,12.4-63.6,4.5
		C127,266.1,107.2,255.4,107.3,243.8z"/>
</g>
<g id="Layer_4">
	<path class="st7" d="M354.8,373.1c-7.4-4.7-17.4-11.8-27.7-22.1c-9.8-9.7-29.2-29.1-36.7-57.2c-10.7-40.3,9.1-75.6,14.6-84.8
		c42.5,23,53,44,54.4,59.1c1.2,12.9-4.2,20.2-7.6,40.1C347.3,335,351,357.9,354.8,373.1z"/>
	<g>
		<path class="st12" d="M304.8,223.4c1.4,8.1,2.8,16.2,4.5,24.1c1.7,8,3.7,15.9,6,23.7c1.1,3.9,2.3,7.8,3.6,11.7
			c1.2,3.9,2.6,7.7,4,11.6c2.8,7.7,5.9,15.2,9.1,22.8c-4.3-7-8-14.4-11.3-21.9c-3.3-7.6-6-15.4-8.3-23.3c-1.1-4-2.2-8-3.1-12
			c-0.9-4-1.7-8.1-2.3-12.1C305.8,239.8,305,231.6,304.8,223.4z"/>
	</g>
</g>
<g id="Layer_5">
	<path class="st7" d="M368.6,372.6c0.6,8.7,0.7,21-1.5,35.4c-2.1,13.6-6.3,40.7-24.7,63.3c-26.2,32.4-66.5,37.2-77.2,38.1
		c-6.5-47.9,4.3-68.7,15.8-78.8c9.7-8.6,18.8-8.5,36.9-17.5C342.2,401.1,358.5,384.7,368.6,372.6z"/>
	<g>
		<path class="st12" d="M276.9,501.1c5.8-5.9,11.4-11.8,16.8-17.9c5.4-6.1,10.7-12.3,15.6-18.8c2.5-3.2,4.9-6.5,7.3-9.8
			c2.4-3.3,4.7-6.7,7-10c4.5-6.8,8.9-13.7,13.1-20.8c-3.1,7.6-6.9,14.9-11.1,22c-4.2,7.1-8.9,13.9-13.9,20.4
			c-2.6,3.2-5.1,6.4-7.9,9.5c-2.7,3.1-5.5,6.1-8.4,9C289.7,490.7,283.5,496.2,276.9,501.1z"/>
	</g>
</g>
<g id="Layer_7" class="st3">
	<path class="st16" d="M970.7,450.3c4.6-7.5,11.5-17.6,21.6-28.1c9.6-10,28.6-29.7,56.6-37.6c40.1-11.4,75.8,7.9,85,13.3
		c-22.3,42.9-43.1,53.7-58.3,55.4c-12.9,1.4-20.2-3.9-40.2-6.9C1008.6,442.3,985.8,446.3,970.7,450.3z"/>
	<g class="st17">
		<path class="st12" d="M1119.5,398c-8.1,1.5-16.1,3.1-24.1,4.9c-7.9,1.9-15.8,4-23.6,6.4c-3.9,1.2-7.8,2.5-11.6,3.8
			c-3.9,1.3-7.7,2.8-11.5,4.2c-7.6,2.9-15.1,6.1-22.7,9.4c6.9-4.4,14.3-8.2,21.8-11.6c7.5-3.4,15.3-6.2,23.1-8.7
			c4-1.2,7.9-2.3,11.9-3.3c4-0.9,8-1.8,12.1-2.5C1103.1,399.2,1111.3,398.3,1119.5,398z"/>
	</g>
	<g class="st17">
		<g>
			<path d="M1088.2,315.2c8.4,14.7,16.8,29.5,25.2,44.2c8.4,14.6,16.7,29.3,25.1,43.9c3.8,6.7,7.7,13.5,11.2,20.4
				c1.8,3.4,3.5,6.9,5.1,10.4c0.8,1.8,1.6,3.6,2.4,5.4c-0.3-0.8,0.1,0.2,0.2,0.5c0.2,0.4,0.3,0.8,0.5,1.3c0.4,0.9,0.7,1.8,1.1,2.7
				c2.8,7.3,5,14.8,6.5,22.5c0.4,1.9,0.7,3.9,1,5.8c0,0.2,0.1,1,0,0.1c0,0.2,0.1,0.5,0.1,0.7c0.1,0.5,0.1,0.9,0.2,1.4
				c0.1,1,0.2,2,0.3,3.1c0.4,4,0.6,8,0.7,12c0.3,16.2-1.5,32.4-3.6,48.5c-0.3,2-0.5,3.9-0.8,5.9c-0.3,2.6,2.5,5.1,5,5
				c3-0.1,4.6-2.2,5-5c2.1-16.2,4.2-32.4,4.4-48.7c0.2-16.4-1.8-32.8-7-48.4c-5.1-15-12.5-29.1-20.3-42.8
				c-8.3-14.6-16.7-29.2-25-43.8c-8.5-14.8-16.9-29.6-25.4-44.4c-1.1-1.9-2.1-3.8-3.2-5.6c-1.3-2.3-4.6-3.2-6.8-1.8
				C1087.7,309.8,1086.8,312.7,1088.2,315.2L1088.2,315.2z"/>
		</g>
	</g>
</g>
<g id="Layer_6" class="st3">
	<path class="st18" d="M884.9,235.2c22.6,8.3,44.7,9.1,55.5,9.6c1.1,0,2.3,0.1,4,0.1c13.4-0.2,22.3-4,48.2-5.1
		c6.4-0.3,11.6-0.3,15.1-0.2c-6.9-11.8-18.8-29-37.2-44.3c-13.2-11-21.8-19.5-35.4-21.6c-8-1.3-15.4,0.3-29.9,3.5
		c-15.3,3.4-25.4,7-31.9,9.1c-12.4,4-30.6,8.5-55.3,9.5c7.7,5.5,18.6,13,32.3,21.2C866.9,226.7,875.1,231.6,884.9,235.2z"/>
	<path class="st18" d="M947.2,305c30.6,4.5,44.8,10.8,77.3,14.6c39,4.6,71.2,1.8,91.8-1.1c-10-15.8-27.5-38.7-56-57.7
		c-5.9-4-26-16.9-55.4-25.5c-7.2-2.1-33.4-9.3-55.4-8.4c-61.2,2.6-103.7,68.6-109.8,78.4C886.3,298.7,922.8,301.4,947.2,305z"/>
	<path class="st18" d="M1098.5,140.6c-2.2,6.7-10.1,30.9-8.8,63.4c0.1,2.1,0.3,4.1,0.5,6.2c2.6,20.3,9.1,33.9,14.9,73.1
		c1.4,9.6,2.3,17.5,2.9,22.8c14.2-9.3,34.8-25.6,51.6-52c3.5-5.5,14.9-24.1,22.2-51.3c0,0,7.2-26.9,6.6-51.3
		c-1.6-65.1-71.3-120.5-78-125.6C1110.3,90.1,1104.5,122.7,1098.5,140.6z"/>
	<pattern  id="SVGID_3_" xlink:href="#New_Pattern_Swatch_1" patternTransform="matrix(1 0 0 1 82.0964 -10.5933)">
	</pattern>
	<path class="st19" d="M969.6,206.6c25.6,24,34.4,38.2,62.2,62.9c33.4,29.7,65.7,49.3,87.1,60.9c1.9-18.5,1.9-47.4-11.2-80.7
		c-2.7-7-12.3-30.1-33.8-56.3c-5.3-6.4-24.7-29.4-46.1-43.5c-59.4-39.2-146.8-18.5-159.6-15.3C916.9,160.9,949.2,187.5,969.6,206.6z
		"/>
	<pattern  id="SVGID_4_" xlink:href="#New_Pattern_Swatch_1" patternTransform="matrix(1 0 0 1 82.0964 -10.5933)">
	</pattern>
	<path class="st20" d="M1160.5,171.1c-6,6.8-21.9,25.3-33.3,54.7c-0.8,2-1.4,3.8-2,5.9c-5.7,19.6-5.2,34.7-15.4,73
		c-2.5,9.4-4.8,17-6.4,22.1c16.7-2.9,42.1-9.7,68-27.2c5.4-3.7,23.3-16.2,40.8-38.3c0,0,16.1-20.3,26.4-44.4
		c27-63.3,1.1-146.7-1.5-154.7C1200.3,119.2,1176,153.4,1160.5,171.1z"/>
	<path class="st21" d="M1018,187.2c8.2,17.4,9.8,27,19,45.1c11,21.8,23.6,37.5,32.1,47.1c4.7-10.7,10.5-27.8,10.6-49.2
		c0-4.5-0.2-19.4-5.8-37.6c-1.4-4.5-6.6-20.5-14.7-31.6c-22.4-30.7-71.2-29.6-78.3-29.3C1000.3,153.5,1011.5,173.4,1018,187.2z"/>
	<path class="st18" d="M1025.7,132.6c-2,52.8-1.9,59.1,1.1,70.1c5.3,19.7,13.5,32.4,24.5,70.4c2.7,9.3,4.7,17.1,5.9,22.2
		c12.8-11.1,31-30,44.2-58.4c2.8-5.9,11.6-25.9,15.2-53.8c0.9-6.9,3.7-31.7-0.3-51.7c-11.1-55.6-76.8-86-86.6-90.4
		C1028.3,68.2,1027,98.9,1025.7,132.6z"/>
	<path class="st21" d="M1009.9,277.5c16.1,7.9,22.8,13.9,40.1,21.8c20.7,9.5,39,13.7,50.8,15.7c-2.7-10.5-8.3-26.2-20.6-41.8
		c-2.6-3.3-11.3-13.9-26-23.9c-3.6-2.4-16.8-11.1-29.1-14.5c-34.2-9.4-69.4,19.4-74.5,23.7C977.4,263.2,997.1,271.2,1009.9,277.5z"
		/>
	<path class="st22" d="M1057.4,219.2c2.5,13.9,5.9,22.3,16.3,48.2c8.6,21.6,15.2,39,19.1,49.7c6.6-8.6,15.4-22.8,20.1-42.1
		c0.6-2.7,1.3-13.6,2.7-35.3c2.6-39.9,1.4-30.8,1.9-35.1c2-17,5-27.1,0-30.7c-3.5-2.5-7.3,0.5-13.2-2.9c-5.5-3.2-5.7-7.9-8.8-8.1
		c-4.9-0.2-5.9,11.4-12.4,13.2c-7.8,2.1-14.1-12.6-20.1-11.1C1055.2,166.8,1052.9,193.7,1057.4,219.2z"/>
	<path class="st22" d="M1042.1,265.6c5.2,6.9,9.4,10.5,22.3,21.6c10.7,9.3,19.1,17,24.2,21.6c1.2-6.5,2-16.7-0.9-28.4
		c-0.4-1.6-3.1-7.7-8.4-19.9c-9.7-22.4-7.8-17.1-8.8-19.6c-3.6-9.8-4.8-16.1-8.6-16.7c-2.6-0.4-3.8,2.3-8,2.1
		c-3.9-0.2-5.3-2.7-7-1.9c-2.7,1.3,0,7.9-3.1,10.6c-3.7,3.3-11.2-2.9-14-0.4C1026.3,237.8,1032.5,253,1042.1,265.6z"/>
	<path class="st22" d="M1115.4,256.2c-4.6,7.3-6.5,12.5-12.5,28.4c-5,13.3-9.2,23.9-11.8,30.3c6.5-1.2,16.3-3.9,26.4-10.7
		c1.4-1,6.1-5.6,15.7-14.8c17.6-16.9,13.3-13.3,15.3-15.1c7.9-6.8,13.4-10.1,12.6-13.9c-0.5-2.6-3.5-2.7-4.7-6.7
		c-1.2-3.7,0.7-5.9-0.7-7.2c-2.1-2.1-7.4,2.7-11,0.8c-4.4-2.3-1.2-11.5-4.5-13.3C1136,231.7,1123.9,242.8,1115.4,256.2z"/>
	<path class="st18" d="M1025,315.1c30.8,8.9,60.6,16.2,89.1,22.3c4.8-3.9,12.4-10,22.3-16.7c39.6-27.1,65.4-31.6,64.6-40.1
		c-0.8-7.4-21.4-11.1-53.4-16.7c-23.3-4.1-35-6.2-46.8-4.5c-23.6,3.4-27.6,13.6-49.5,13.7c-17.2,0.1-21.2-6.2-32.9-3.7
		c-16.5,3.5-27,19.9-33.4,33.4C998,307.1,1011.3,311.1,1025,315.1z"/>
</g>
<g id="Layer_9" class="st3">
	<ellipse class="st23" cx="1303.1" cy="308.9" rx="122.3" ry="116.2"/>
</g>
<g id="Layer_8" class="st3">
	<path class="st16" d="M1238,478.6c-3.9-3.7-9.1-9.1-14.2-16.5c-4.8-7-14.2-20.9-15.5-38.7c-1.8-25.5,14.2-44.5,18.6-49.4
		c23,18.7,26.9,32.6,26,41.9c-0.8,7.9-4.9,11.7-9.2,23.3C1237.9,454.8,1237.5,469,1238,478.6z"/>
	<g class="st17">
		<path class="st12" d="M1225.2,382.6c0.1,5.1,0.2,10.1,0.4,15.1c0.2,5,0.5,10,1,14.9c0.2,2.5,0.5,5,0.8,7.4c0.3,2.5,0.7,4.9,1,7.4
			c0.7,4.9,1.6,9.9,2.4,14.9c-2-4.7-3.5-9.5-4.7-14.4c-1.2-4.9-2-10-2.5-15c-0.2-2.5-0.4-5.1-0.4-7.6c0-2.5-0.1-5.1,0.1-7.6
			C1223.5,392.6,1224.1,387.6,1225.2,382.6z"/>
	</g>
	<g class="st17">
		<g>
			<path d="M1273.8,368.7c-5.2,20.9-10.4,41.8-15.7,62.7c-1.2,4.7-2.4,9.4-3.9,14.1c-0.7,2.4-1.5,4.7-2.4,7c-0.4,1-0.8,2.1-1.2,3.1
				c-0.1,0.1-0.4,1-0.2,0.4c0.2-0.6-0.1,0.3-0.2,0.4c-0.3,0.6-0.5,1.2-0.8,1.8c-2,4.3-4.4,8.5-7.2,12.4c-0.3,0.4-0.6,0.8-0.9,1.2
				c-0.2,0.2-0.3,0.4-0.5,0.7c-0.1,0.1-0.6,0.8-0.2,0.3c0.4-0.5-0.2,0.2-0.3,0.3c-0.2,0.2-0.3,0.4-0.5,0.7c-0.4,0.5-0.8,1-1.2,1.5
				c-1.5,1.8-3.1,3.5-4.7,5.2c-7.2,7.5-15.4,14.1-23.5,20.6c-2,1.6-1.8,5.4,0,7.1c2.2,2,4.9,1.8,7.1,0
				c14.7-11.8,29.8-24.2,38.7-41.2c4.8-9.1,7.8-18.9,10.4-28.8c2.7-10.3,5.2-20.7,7.8-31c3-12,6-23.9,9-35.9
				c0.6-2.5-0.8-5.5-3.5-6.2C1277.3,364.6,1274.4,366,1273.8,368.7L1273.8,368.7z"/>
		</g>
	</g>
	<path class="st24" d="M1209.6,240.4c7.9,14.9,19,25.9,24.5,31.4c0.6,0.6,1.2,1.2,2,2c7.2,6.4,13.7,8.8,27.8,20.7
		c3.5,2.9,6.2,5.5,8.1,7.2c2.1-9,4.3-23.1,2-39.3c-1.6-11.7-2-19.9-8.1-27.5c-3.6-4.5-8.3-7.3-17.4-12.7
		c-9.7-5.7-16.8-8.8-21.2-10.9c-8.4-4-20.2-10.7-33.7-22c1.3,6.3,3.5,15.3,6.7,25.8C1204.3,227.7,1206.2,234,1209.6,240.4z"/>
	<path class="st24" d="M1217.5,304.9c11.7,15,15.3,23.8,28,39.3c15.3,18.6,30.8,31.1,41.1,38.5c2.3-11.2,4.2-28.8-0.3-49.3
		c-0.9-4.3-4.3-18.5-13.7-34.8c-2.3-4-10.8-18.3-21-27.3c-28.2-24.8-75-13.6-81.9-11.9C1193.2,276.3,1208.2,293,1217.5,304.9z"/>
	<path class="st21" d="M1354.3,296.4c-26.1,19.2-29.1,21.7-33.2,27.3c-7.5,10.1-10.4,18.9-24.4,38.7c-3.4,4.9-6.4,8.8-8.4,11.3
		c10.2,1.9,26.3,3.4,44.9-1.1c3.9-0.9,16.8-4.3,31.6-13.3c3.6-2.2,16.6-10.3,24.7-19.9c22.4-26.6,11.9-69.7,10.3-76.1
		C1386.2,273.1,1371,284.2,1354.3,296.4z"/>
	<pattern  id="SVGID_5_" xlink:href="#New_Pattern_Swatch_1" patternTransform="matrix(1 0 0 1 82.0964 -10.5933)">
	</pattern>
	<path class="st25" d="M1269.2,270.9c1.2,21.5-1,31.5,0.8,54.3c2.2,27.3,8.2,49.7,12.7,63.9c8.7-7.4,20.9-20.2,29.3-40.5
		c1.7-4.2,7.3-18.5,8.9-39.2c0.4-5.1,1.6-23.5-1.9-38.8c-9.7-42.6-57.1-70.5-64.1-74.5C1265.3,228.3,1268.3,253.8,1269.2,270.9z"/>
	<pattern  id="SVGID_6_" xlink:href="#New_Pattern_Swatch_1" patternTransform="matrix(1 0 0 1 82.0964 -10.5933)">
	</pattern>
	<path class="st26" d="M1368.8,336.3c-4.1,0.3-19.8,1.6-38,10.1c-1.2,0.5-2.2,1.1-3.4,1.8c-10.8,6.3-17,13.2-37.8,25.8
		c-5.1,3.1-9.4,5.5-12.2,7c8.6,5.8,22.8,13.6,41.6,16.8c4,0.7,17.2,2.7,34.3,0.4c0,0,16.6-2.3,30.6-8.5
		c38.1-16.9,55.5-75.4,56.3-78.4C1400.6,330.1,1380.2,335.4,1368.8,336.3z"/>
	<path class="st21" d="M1298.8,282.9c-3.8,11.2-7.1,16.1-10.7,28c-4.4,14.3-5.5,26.6-5.8,34.5c6.6-2.7,16.5-7.8,25.6-17.3
		c1.9-2,8.1-8.6,13.4-19.1c1.3-2.6,5.8-11.9,6.9-20.2c3.1-23.1-18.9-43.3-22.2-46.2C1305.3,260.5,1301.8,274,1298.8,282.9z"/>
	<path class="st21" d="M1325.5,261.9c-23.3,22.5-25.9,25.4-29.3,31.5c-6.1,11-7.8,20.1-19.1,41.6c-2.8,5.3-5.2,9.5-6.8,12.3
		c10.4,0.5,26.5-0.1,44.3-7.1c3.7-1.5,16.1-6.5,29.6-17.4c3.3-2.7,15.1-12.4,21.8-23c18.7-29.3,2.5-70.7,0.1-76.8
		C1354,234.5,1340.3,247.6,1325.5,261.9z"/>
	<path class="st21" d="M1257,319.4c3.8,10.4,4.2,15.8,8.5,26.7c5.1,13,11.5,22.6,15.8,28.5c3.2-5.8,7.5-15.2,8.6-27.3
		c0.2-2.5,0.9-11-1.4-21.6c-0.6-2.6-2.7-12-6.7-18.8c-11.2-18.7-39-20.9-43.1-21.1C1248.7,299.3,1254,311.2,1257,319.4z"/>
	<path class="st22" d="M1302.7,313.8c-4.8,7.2-6.8,12.4-13.3,28.2c-5.4,13.2-9.8,23.7-12.6,30.1c6.6-1,16.5-3.5,26.7-10.1
		c1.4-0.9,6.3-5.5,16.2-14.5c18.1-16.6,13.7-13,15.8-14.7c8.1-6.7,13.7-9.9,13.1-13.6c-0.5-2.6-3.4-2.8-4.6-6.9
		c-1.1-3.8,0.9-5.9-0.5-7.3c-2.1-2.2-7.5,2.5-11.1,0.6c-4.4-2.4-0.9-11.6-4.2-13.5C1324,289.7,1311.6,300.5,1302.7,313.8z"/>
	<path class="st22" d="M1276.2,327.8c-0.6,5.3-0.3,8.6,0.7,19c0.8,8.7,1.3,15.6,1.6,19.9c3.3-2.4,8-6.5,11.7-13
		c0.5-0.9,1.9-4.7,4.7-12.4c5.2-14.1,3.8-10.9,4.4-12.4c2.5-5.9,4.7-9.2,3.3-11c-1-1.3-2.7-0.6-4.4-2.5c-1.6-1.8-1.2-3.5-2.3-3.8
		c-1.7-0.6-3.3,3.5-5.9,3.4c-3-0.1-3.7-6-6-6.1C1281.1,308.7,1277.3,318.1,1276.2,327.8z"/>
	<path class="st22" d="M1312.7,354.8c-5.1,1.3-8.2,2.8-17.6,7.3c-7.9,3.8-14.2,6.7-18.1,8.4c3.4,2.2,8.9,5.2,16.2,6.4
		c1,0.2,5.1,0.1,13.2,0.1c15,0,11.5-0.2,13.2-0.2c6.4,0.3,10.3,1.2,11.5-0.8c0.9-1.4-0.4-2.7,0.8-5c1.1-2.1,2.8-2.3,2.8-3.5
		c-0.1-1.8-4.4-1.9-5.2-4.3c-1-2.9,4.3-5.6,3.6-7.8C1332.2,352.6,1322.1,352.4,1312.7,354.8z"/>
	<pattern  id="SVGID_7_" xlink:href="#New_Pattern_Swatch_1" patternTransform="matrix(1 0 0 1 82.0964 -10.5933)">
	</pattern>
	<path class="st27" d="M1247.7,342.5c9.9,17,19.9,32.9,30,47.7c3.8,0.3,9.7,0.9,16.9,2.1c29.1,4.8,42.4,13.8,45.6,9.7
		c2.8-3.6-4.8-14-16.6-30.1c-8.6-11.7-12.9-17.6-18.8-21.8c-11.9-8.5-18-5.7-27.7-15c-7.7-7.3-6.7-11.7-13-15.6
		c-8.8-5.4-20.4-2.7-29,0.6C1239.1,327.4,1243.3,334.9,1247.7,342.5z"/>
</g>
<g id="Layer_10" class="st3">
	<path class="st16" d="M136.9,980.5c1.5-6,4.2-14.4,8.8-23.7c4.4-8.8,13.2-26.2,30.6-37.5c24.9-16.2,53.2-10.6,60.6-8.9
		c-6.1,33.9-18,45.6-28,49.9c-8.4,3.7-14.6,1.6-28.8,3.8C161,967.1,146.3,974.6,136.9,980.5z"/>
	<g class="st17">
		<path class="st12" d="M227.1,913.6c-5.1,2.9-10.2,5.7-15.2,8.7c-5,3-9.9,6.1-14.6,9.4c-2.4,1.6-4.8,3.3-7.1,5
			c-2.4,1.7-4.6,3.5-7,5.2c-4.6,3.5-9.1,7.2-13.6,10.9c3.7-4.6,7.8-8.8,12.1-12.7c4.4-3.9,9-7.5,13.9-10.9c2.4-1.6,4.9-3.2,7.4-4.7
			c2.5-1.5,5.1-2.9,7.7-4.2C216,917.6,221.5,915.4,227.1,913.6z"/>
	</g>
	<path class="st28" d="M139.6,832.1c-27.7-12.7-71.2,33.8-76.4,39.3c-24,25.7-55.9,75.7-38,100.3c8.5,11.6,26.8,14,43.2,16.1
		c18.9,2.5,20.8-2.1,46.7-0.9c26.3,1.2,37.2,6.5,42.1,0.2c5.7-7.2-6.1-18.1,0.1-31.9c5-11.1,13.8-9.6,19.4-19.3
		c3.1-5.4,5.7-14.9-12.3-58.1C152.8,849.5,146.9,835.4,139.6,832.1z"/>
	<pattern  id="SVGID_8_" xlink:href="#New_Pattern_Swatch_1" patternTransform="matrix(1 0 0 1 0 15.6289)">
	</pattern>
	<path class="st29" d="M-8.8,889c-1.4-5.5-2.1-9.8,0.2-13.1c2.4-3.4,6.1-3,12.5-5.6c0,0,8.8-3.6,16-11.3c8.8-9.5,6-16.2,12.6-19.3
		c6.9-3.3,15.6,1.6,19.3,3.6c5.2,2.9,10,7.4,14.8,15.4c8.8,14.6,7.2,25.7,10.1,34.9c3.7,11.5,16,25.1,54,34.3
		c-38.6-6.2-67.7-5.1-88.3-2.4c-10.2,1.3-25.1,3.8-37.2-4.9C-2.7,914.8-4.7,904.6-8.8,889z"/>
	<path class="st28" d="M75.9,836c4.7-12.8,15.3-21.4,24.8-24.5c8.8-2.9,10.4,1,21.4-1.6c15.5-3.7,22.1-13.8,26.4-11.1
		c3.6,2.2,0.3,10.2,0.1,20.9c-0.3,17.7,8.1,28.4,11.7,36.3c5.8,12.8,6.9,35.6-15.7,79.1c-4.8-34.1-16.8-46.6-27-51.7
		c-13.7-6.8-26.2-0.6-35.9-11.7C74.2,863.1,71.2,848.7,75.9,836z"/>
	<path class="st30" d="M75.4,834.1c-3.9,1.3-3.4,4.9-9.3,13.3c-6.2,8.8-10.9,10.5-10.2,14.6c0.5,3.1,3.8,4.9,7.1,7
		c6.6,4.2,11.6,3.5,15.7,4.9c5.2,1.8,11.4,7.6,16.2,25.3c-3.4-18-3.3-31.6-2.4-41.1c0.4-4.7,1.3-11.7-2.7-17.3
		C86.5,836.3,80.2,832.5,75.4,834.1z"/>
	<path class="st28" d="M78.3,851.9c-2.2,1-1.2,3.7-3.9,7.7c-3.1,4.8-7.2,5.3-7,7.9c0.1,1.7,2.1,2.7,4,3.9c3.7,2.3,6.5,2,8.8,2.7
		c2.9,1,6.4,4.3,9,14.2c-1.9-10.1-1.8-17.7-1.4-23c0.2-2.6,0.7-6.5-1.5-9.7C84.4,853,80.7,850.9,78.3,851.9z"/>
	<path class="st30" d="M35.9,881.2c1.6-4.8,7.5-7.1,11.2-8.6c4-1.6,4.4-0.7,7-2.1c6.7-3.6,6.7-10.6,10.3-10.8c2.9-0.2,5.3,4.4,7,7.2
		c4.1,6.9,3.4,12.1,4.8,16.4c1.7,5.4,7.5,11.8,25.4,16.2c-18.2-2.9-31.9-2.4-41.5-1.1c-4.8,0.6-11.8,1.8-17.5-2.3
		C38,892.9,34.2,886.5,35.9,881.2z"/>
	<path class="st28" d="M54.1,873.9c1.8-1.7,3.9,0.3,8.9-0.7c5.8-1.1,8.1-4.8,10.3-3.6c1.5,0.8,1.6,3,1.9,5.3
		c0.6,4.4-0.9,6.9-1.2,9.4c-0.3,3.1,1.2,7.7,9.3,14c-8.6-5.7-15.6-8.6-20.8-10.2c-2.6-0.8-6.4-1.8-8.4-5.2
		C52.6,880,52.2,875.7,54.1,873.9z"/>
	<path class="st30" d="M82.7,853.5c-3.9,1.7-2.2,6.6-6.9,13.9c-5.6,8.6-13,9.5-12.6,14.1c0.3,3,3.7,4.9,7.1,7
		c6.6,4.2,11.6,3.5,15.7,4.9c5.2,1.8,11.4,7.6,16.2,25.3c-3.4-18-3.3-31.6-2.4-41.1c0.4-4.7,1.3-11.7-2.7-17.3
		C93.6,855.5,87,851.6,82.7,853.5z"/>
	<path class="st28" d="M58.1,899c3.1-5.1,9.1-7.2,11.5-8c10-3.5,13.7,1.7,20.1-1.4c4-1.9,7.4-10.1,14.2-26.4
		c3.2-7.6,4.4-11.2,8.5-14.6c3.3-2.8,10.2-6.9,14.8-4.5c3.3,1.7,3.3,5.5,6.7,21.7c2.1,9.9,1.6,6.4,3,13.4c3.5,18,5.3,33.4,5.3,35.9
		c0,13.4,3.3,32.4,18.7,56.3c-22.8-20.2-42.8-27-57-29.3c-15-2.5-26.4-0.6-36.2-9.8C58.8,923.7,52.4,908.3,58.1,899z"/>
	<path class="st28" d="M-29.6,952.9c0.1-7.8,12.7-10.7,12.8-21.3c0.1-5.5-3.3-7.6-1.6-12.2c1.5-4.3,5.2-4.4,10.8-9.4
		c6.2-5.5,4.9-8,10.3-13.6c1.7-1.8,9.8-10.2,19.8-10.4c9.5-0.2,16.2,7.2,21.5,11.9c14.3,12.6,10.6,25.2,22.7,34
		c7.6,5.5,15,5.1,23.8,6.3c36,4.8,68.1,31.7,65.6,38.4c-3.1,8.3-57.3-24.4-114.7-7.6c-9.1,2.7-26.1,8.8-45.3,3.2
		C-15.5,968.8-29.7,961.2-29.6,952.9z"/>
	<g class="st17">
		<path class="st12" d="M91.2,1136.1c4-4.3,7.9-8.6,11.7-13c3.8-4.4,7.5-8.8,11-13.4c1.8-2.3,3.5-4.6,5.2-6.9c1.7-2.3,3.4-4.7,5-7.1
			c3.3-4.8,6.4-9.7,9.6-14.6c-2.1,5.5-4.7,10.8-7.6,15.9c-2.9,5.1-6.3,10-9.8,14.6c-1.8,2.3-3.7,4.6-5.6,6.8c-2,2.2-4,4.3-6.1,6.4
			C100.4,1128.9,96,1132.7,91.2,1136.1z"/>
	</g>
	<g id="Layer_11" class="st17">
		<path class="st7" d="M230.4,874.9c0.9-6.2,2.6-14.7,6.3-24.5c3.5-9.2,10.4-27.4,26.5-40.5c23.1-18.7,51.8-16.1,59.4-15.1
			c-2.6,34.3-13.2,47.2-22.6,52.6c-8,4.5-14.3,3.1-28.3,6.8C253,859,239.2,868,230.4,874.9z"/>
		<pattern  id="SVGID_9_" xlink:href="#New_Pattern_Swatch_1" patternTransform="matrix(1 0 0 1 0 15.6289)">
		</pattern>
		<path class="st31" d="M266.3,731.9c-23.2-19.8-77.7,13-84.2,16.9c-30.1,18.1-74.5,57.5-64,86c5,13.5,21.9,20.8,37.1,27.3
			c17.5,7.5,20.6,3.6,45.2,11.9c25,8.3,34,16.4,40.5,11.7c7.5-5.4-0.9-19,8.8-30.6c7.8-9.3,15.9-5.5,24-13.2
			c4.5-4.3,9.5-12.8,4.1-59.3C274.2,752.3,272.4,737.1,266.3,731.9z"/>
		<pattern  id="SVGID_10_" xlink:href="#New_Pattern_Swatch_1" patternTransform="matrix(1 0 0 1 0 15.6289)">
		</pattern>
		<path class="st32" d="M108,746.1c0.1-5.7,0.7-10,3.8-12.6c3.2-2.6,6.7-1.2,13.6-2c0,0,9.5-1.1,18.5-6.5
			c11.1-6.7,10.2-13.9,17.4-15.1c7.5-1.2,14.6,5.8,17.5,8.8c4.2,4.2,7.6,9.9,10.1,18.8c4.5,16.4-0.1,26.7,0.2,36.3
			c0.4,12.1,8.6,28.5,42.5,47.8c-35.5-16.6-63.8-23.4-84.2-26.5c-10.2-1.5-25.2-3.2-34.4-14.8C106.8,772.6,107.6,762.2,108,746.1z"
			/>
		<path class="st33" d="M204,716.2c-4.1,0.1-4.6,3.8-12.6,10.3c-8.4,6.8-13.4,7.2-13.8,11.3c-0.3,3.2,2.3,5.8,4.9,8.7
			c5.2,5.8,10.2,6.5,13.8,9c4.5,3.1,8.9,10.4,8.6,28.8c1.7-18.3,5.5-31.3,8.9-40.2c1.7-4.4,4.4-10.9,2.1-17.4
			C214,721.4,209,716.1,204,716.2z"/>
		<path class="st34" d="M201.8,734.2c-2.4,0.3-2.2,3.2-5.9,6.4c-4.3,3.8-8.4,3.1-8.9,5.7c-0.3,1.7,1.3,3.2,2.7,4.8
			c2.9,3.3,5.7,3.7,7.7,5c2.5,1.7,5,5.8,4.8,16.1c0.9-10.2,3.1-17.5,5-22.5c1-2.5,2.5-6.1,1.2-9.7
			C207.4,736.9,204.4,733.9,201.8,734.2z"/>
		<path class="st33" d="M153.1,750.8c2.9-4.2,9.1-4.8,13.2-5.2c4.3-0.4,4.4,0.5,7.3-0.1c7.4-1.6,9.4-8.3,12.8-7.6
			c2.9,0.6,3.9,5.7,4.7,8.9c2.1,7.7-0.1,12.5,0.1,17.1c0.2,5.7,4,13.4,20,22.5c-16.7-7.8-30-11-39.6-12.4c-4.8-0.7-11.8-1.5-16.2-7
			C151.9,762.6,150,755.4,153.1,750.8z"/>
		<path class="st34" d="M172.6,748.7c2.2-1.1,3.7,1.3,8.7,1.8c5.9,0.5,9-2.4,10.9-0.6c1.2,1.2,0.8,3.4,0.4,5.6
			c-0.6,4.4-2.8,6.3-3.7,8.7c-1.2,2.9-0.9,7.7,5.1,16c-6.7-7.8-12.7-12.5-17.2-15.5c-2.2-1.5-5.6-3.5-6.6-7.3
			C169.4,754.2,170.2,750,172.6,748.7z"/>
		<pattern  id="SVGID_11_" xlink:href="#New_Pattern_Swatch_1" patternTransform="matrix(1 0 0 1 0 15.6289)">
		</pattern>
		<path class="st35" d="M205.6,736.9c-4.3,0.6-3.9,5.7-10.5,11.4c-7.7,6.7-15.1,5.6-15.9,10.1c-0.6,3,2.3,5.7,4.9,8.7
			c5.2,5.8,10.2,6.5,13.8,9c4.5,3.1,8.9,10.4,8.6,28.8c1.7-18.3,5.5-31.3,8.9-40.2c1.7-4.4,4.4-10.9,2.1-17.4
			C215.6,741.8,210.3,736.3,205.6,736.9z"/>
		<path class="st7" d="M234.7,883.7c-5.5,2.9-13.5,6.5-23.5,9.3c-9.5,2.6-28.3,7.7-48.3,2.4c-28.7-7.6-43.5-32.4-47.2-39.1
			c29.2-18.1,45.9-17.1,55.8-12.7c8.4,3.8,11,9.7,22.1,18.9C208.6,874.8,224,880.7,234.7,883.7z"/>
		<g>
			<path class="st12" d="M124.6,861.5c5.6,1.9,11.1,3.7,16.6,5.4c5.6,1.7,11.1,3.3,16.8,4.6c2.8,0.7,5.6,1.3,8.5,1.9
				c2.8,0.6,5.7,1.1,8.5,1.7c5.7,1,11.5,1.9,17.3,2.8c-5.9,0.4-11.7,0.1-17.6-0.5c-5.8-0.6-11.6-1.7-17.4-3
				c-2.8-0.7-5.7-1.5-8.5-2.4c-2.8-0.9-5.6-1.8-8.3-2.9C135,867,129.6,864.5,124.6,861.5z"/>
		</g>
		<path class="st34" d="M70.5,801.9c2.2-7.4,15.1-6.8,18.1-17c1.6-5.3-1.1-8.2,1.7-12.2c2.6-3.7,6.2-2.8,13-6.1
			c7.4-3.6,6.9-6.3,13.6-10.3c2.2-1.3,12.2-7.1,21.9-4.6c9.2,2.4,13.6,11.3,17.5,17.3c10.3,16.1,3.3,27.2,12.5,38.9
			c5.8,7.4,13,9,21.2,12.6c33.3,14.4,56.8,49.2,52.6,54.9c-5.3,7.2-48.4-39.1-108.3-38.7c-9.5,0.1-27.5,1.4-44.5-9.3
			C79.6,820.9,68.1,809.8,70.5,801.9z"/>
		<path class="st34" d="M221.4,714.9c8-11,20.6-16.4,30.6-16.8c9.3-0.4,9.7,3.8,21,4.3c15.9,0.7,25.1-7.2,28.4-3.5
			c2.8,3.1-2.5,9.9-5.6,20.2c-5.1,17,0,29.5,1.3,38.1c2.1,13.9-3.1,36.1-36.7,71.8c4.7-34.1-3.4-49.4-11.8-57.1
			c-11.4-10.3-25-7.8-31.4-21.1C212.4,740.5,213.4,725.8,221.4,714.9z"/>
		<path class="st34" d="M169.5,774c4.4-4,10.7-4.4,13.2-4.6c10.6-0.6,12.7,5.4,19.7,4.2c4.4-0.8,9.9-7.7,20.9-21.5
			c5.1-6.5,7.3-9.6,12.1-11.8c3.9-1.8,11.7-3.9,15.5-0.3c2.7,2.5,1.7,6.2,0.6,22.7c-0.7,10.1-0.2,6.6-0.8,13.7
			c-1.5,18.2-4,33.6-4.7,36c-3.7,12.9-5.7,32.1,2.6,59.3c-16.4-25.7-33.8-37.7-46.8-43.8c-13.7-6.5-25.2-7.8-32.1-19.4
			C163.5,797.9,161.6,781.4,169.5,774z"/>
	</g>
	<g id="Layer_12" class="st17">
		<path class="st7" d="M146.6,1045c-5.3-3.3-12.4-8.4-19.8-15.7c-7-6.9-20.8-20.7-26.1-40.7c-7.6-28.7,6.5-53.8,10.4-60.4
			c30.3,16.3,37.7,31.3,38.7,42.1c0.9,9.2-3,14.4-5.4,28.6C141.3,1017.9,143.9,1034.2,146.6,1045z"/>
		<g>
			<path class="st12" d="M111,938.4c1.1,5.8,2.3,11.5,3.6,17.1c1.3,5.7,2.7,11.3,4.4,16.8c0.8,2.8,1.7,5.5,2.5,8.3
				c0.9,2.8,1.8,5.5,2.8,8.2c1.9,5.5,4,10.9,6.1,16.4c-3.2-4.9-5.9-10.1-8.3-15.5c-2.4-5.4-4.4-10.9-6-16.6
				c-0.8-2.8-1.5-5.7-2.2-8.5c-0.6-2.9-1.2-5.8-1.6-8.7C111.4,950.1,110.9,944.3,111,938.4z"/>
		</g>
		<path class="st8" d="M30.7,953.8c-27.5,13.1-19.9,76.2-18.9,83.8c4.2,34.9,22.1,91.5,52.4,93.6c14.3,1,27.9-11.5,40.1-22.8
			c14-12.9,11.7-17.3,29.3-36.4c17.8-19.4,28.8-24.3,27.2-32.2c-1.9-9-17.7-6.9-24.3-20.6c-5.3-10.9,1.5-16.8-2.3-27.3
			c-2.1-5.9-7.8-13.9-52.4-27.9C52.5,954.9,37.9,950.4,30.7,953.8z"/>
		<pattern  id="SVGID_12_" xlink:href="#New_Pattern_Swatch_1" patternTransform="matrix(1 0 0 1 0 15.6289)">
		</pattern>
		<path class="st36" d="M-21,1104.1c-5.2-2.4-8.9-4.7-9.9-8.6c-1.1-4,1.6-6.6,3.7-13.2c0,0,2.9-9.1,1.6-19.5
			c-1.6-12.8-8.6-15-6.7-22.1c2-7.4,11.2-10.9,15.1-12.4c5.5-2.1,12.1-2.9,21.3-1.5c16.8,2.6,24.3,11,33.2,14.7
			c11.2,4.6,29.5,3.8,61-19.3c-29.6,25.6-47.4,48.7-58.5,66.1c-5.5,8.7-13.2,21.7-27.6,25.4C2.7,1116-6.5,1111-21,1104.1z"/>
		<path class="st8" d="M-7.2,1005.2c-6.7-11.8-6.6-25.5-2.9-34.8c3.5-8.7,7.4-7.3,12.5-17.4c7.1-14.3,3.7-25.8,8.4-27.4
			c4-1.3,8,6.3,16.1,13.3c13.4,11.6,27,12,35.3,14.3c13.6,3.8,31.7,17.6,50.6,62.8c-29.2-18.3-46.5-17.1-56.9-12.5
			c-14,6.2-17.3,19.7-32.1,20C12.4,1023.9-0.5,1017-7.2,1005.2z"/>
		<path class="st10" d="M-9,1004.3c-1.6,3.8,1.6,5.8,4.2,15.7c2.8,10.4,1.1,15.1,4.7,17.2c2.7,1.6,6.2,0.3,9.9-0.9
			c7.5-2.4,10.1-6.6,13.9-8.9c4.7-2.8,13.2-3.9,29.8,3.9c-16-9-26.3-17.8-33.1-24.5c-3.4-3.4-8.1-8.5-15.1-9
			C-0.2,997.2-7.1,999.6-9,1004.3z"/>
		<path class="st8" d="M6.5,1013.6c-0.7,2.3,2,3.3,3.4,8c1.7,5.5-0.6,9,1.5,10.4c1.4,1,3.4,0.2,5.5-0.5c4.2-1.3,5.7-3.7,7.8-5
			c2.6-1.6,7.4-2.2,16.7,2.2c-8.9-5-14.7-9.9-18.5-13.7c-1.9-1.9-4.5-4.7-8.4-5.1C11.3,1009.6,7.2,1011.1,6.5,1013.6z"/>
		<path class="st10" d="M1.7,1064.9c-2.6-4.3-0.7-10.3,0.6-14.1c1.4-4.1,2.3-3.8,2.9-6.7c1.6-7.5-3.8-11.9-1.7-14.8
			c1.7-2.4,6.8-1.2,10-0.7c7.9,1.2,11.4,5.2,15.6,6.9c5.3,2.2,13.9,1.8,28.7-9.1c-13.9,12-22.3,22.9-27.5,31.1
			c-2.6,4.1-6.2,10.2-13,11.9C12,1070.7,4.6,1069.6,1.7,1064.9z"/>
		<path class="st8" d="M7.8,1046.2c-0.1-2.5,2.7-2.8,5.2-7.2c2.9-5.1,1.5-9.2,3.9-10.2c1.6-0.6,3.4,0.7,5.3,1.9
			c3.8,2.4,4.6,5.1,6.4,6.9c2.2,2.2,6.7,4,16.7,1.9c-9.9,2.9-16.6,6.5-21.2,9.4c-2.3,1.5-5.5,3.7-9.4,3.1
			C11.5,1051.3,8,1048.9,7.8,1046.2z"/>
		<path class="st10" d="M10.5,1011.2c-1.2,4.1,3.6,5.9,6.2,14.2c3,9.8-1,16.1,2.7,18.7c2.5,1.7,6.1,0.3,9.9-0.9
			c7.5-2.4,10.1-6.6,13.9-8.9c4.7-2.8,13.2-3.9,29.8,3.9c-16-9-26.3-17.8-33.1-24.5c-3.4-3.4-8.1-8.5-15.1-9
			C19,1004.1,11.8,1006.7,10.5,1011.2z"/>
		<path class="st11" d="M29.6,1059.3c-1.9-5.6,0.4-11.6,1.2-13.9c3.7-9.9,10.1-9.4,11.9-16.3c1.1-4.3-3-12.2-11.1-27.9
			c-3.8-7.3-5.8-10.6-5.8-15.9c0-4.3,1.2-12.2,6.1-14.2c3.4-1.4,6.3,1,20.9,8.8c8.9,4.8,6,2.9,12.2,6.3c16,8.8,29,17.4,30.9,19
			c10.2,8.6,27,18.3,55.2,21.9c-30.2,4.5-48.2,15.5-59.1,24.8c-11.5,9.9-17.5,19.8-30.8,21.4C49,1074.6,33.1,1069.6,29.6,1059.3z"/>
		<path class="st8" d="M14.6,1161.1c-5.9-5.1,0-16.6-8.1-23.5c-4.2-3.6-7.9-2.4-10.4-6.6c-2.3-3.9,0-6.8-0.3-14.4
			c-0.2-8.3-3-8.9-3.8-16.6c-0.3-2.5-1.5-14,4.8-21.9c5.9-7.4,15.9-7.8,22.9-8.9c18.9-2.9,26.1,8.1,40.6,4.4
			c9.1-2.3,13.6-8.2,20.1-14.2c26.8-24.5,68.1-31.8,71.6-25.6c4.4,7.8-55.5,28.2-79.5,83c-3.8,8.7-10,25.7-26.6,36.8
			C35.8,1160.5,20.9,1166.5,14.6,1161.1z"/>
		<path class="st7" d="M156.4,1044.6c0.4,6.2,0.5,15-1.1,25.2c-1.5,9.7-4.5,29-17.6,45.1c-18.7,23-47.3,26.4-54.9,27.1
			c-4.6-34.1,3.1-48.9,11.2-56.1c6.9-6.1,13.4-6,26.3-12.5C137.6,1064.9,149.2,1053.2,156.4,1044.6z"/>
	</g>
</g>
</svg>
